G04 #@! TF.GenerationSoftware,KiCad,Pcbnew,8.0.4*
G04 #@! TF.CreationDate,2025-02-17T13:51:32+11:00*
G04 #@! TF.ProjectId,LSG,4c53472e-6b69-4636-9164-5f7063625858,rev?*
G04 #@! TF.SameCoordinates,Original*
G04 #@! TF.FileFunction,Copper,L2,Inr*
G04 #@! TF.FilePolarity,Positive*
%FSLAX46Y46*%
G04 Gerber Fmt 4.6, Leading zero omitted, Abs format (unit mm)*
G04 Created by KiCad (PCBNEW 8.0.4) date 2025-02-17 13:51:32*
%MOMM*%
%LPD*%
G01*
G04 APERTURE LIST*
G04 #@! TA.AperFunction,ComponentPad*
%ADD10C,1.000000*%
G04 #@! TD*
G04 #@! TA.AperFunction,ComponentPad*
%ADD11R,1.500000X1.500000*%
G04 #@! TD*
G04 #@! TA.AperFunction,ComponentPad*
%ADD12O,1.700000X1.100000*%
G04 #@! TD*
G04 #@! TA.AperFunction,ComponentPad*
%ADD13R,1.700000X1.700000*%
G04 #@! TD*
G04 #@! TA.AperFunction,ComponentPad*
%ADD14O,1.700000X1.700000*%
G04 #@! TD*
G04 #@! TA.AperFunction,ViaPad*
%ADD15C,0.600000*%
G04 #@! TD*
G04 #@! TA.AperFunction,ViaPad*
%ADD16C,1.000000*%
G04 #@! TD*
G04 APERTURE END LIST*
D10*
X-2500000Y7000000D03*
D11*
X-36000000Y-3000000D03*
D10*
X18825000Y-7750000D03*
D12*
X32000000Y-4320000D03*
X35800000Y-4320000D03*
X32000000Y4320000D03*
X35800000Y4320000D03*
D11*
X-36000000Y3000000D03*
D13*
X15000000Y7500000D03*
D14*
X17540000Y7500000D03*
X20080000Y7500000D03*
X22620000Y7500000D03*
X25160000Y7500000D03*
X27700000Y7500000D03*
D11*
X-36000000Y0D03*
D10*
X-2500000Y-7000000D03*
D15*
X-1180000Y-7630000D03*
X-16000000Y-1000000D03*
X29500000Y5500000D03*
X10000000Y-750000D03*
X29500000Y2250000D03*
X-27000000Y-4500000D03*
X10000000Y-4750000D03*
X8000000Y1250000D03*
X4000000Y-2250000D03*
X-5250000Y-500000D03*
X-33500000Y4250000D03*
X5000000Y1250000D03*
X14250000Y-7500000D03*
X5000000Y-5750000D03*
X-15000000Y-4500000D03*
X17000000Y4750000D03*
X4000000Y-5750000D03*
X-11750000Y-1000000D03*
X10000000Y250000D03*
X3000000Y1250000D03*
X10000000Y-1750000D03*
X6000000Y-2250000D03*
X4000000Y-250000D03*
X7000000Y1250000D03*
X2000000Y1250000D03*
X10000000Y-2750000D03*
X-9000000Y-3000000D03*
X6000000Y-250000D03*
X8000000Y-5750000D03*
X4000000Y-4250000D03*
X8000000Y-250000D03*
X-7250000Y-500000D03*
X3000000Y-5750000D03*
X9000000Y1250000D03*
X10000000Y1250000D03*
X8000000Y-2250000D03*
X2000000Y-750000D03*
X2000000Y-2750000D03*
X8000000Y-4250000D03*
X2000000Y-1750000D03*
X-33500000Y-4250000D03*
X9000000Y-5750000D03*
X4000000Y1250000D03*
X26750000Y-1750000D03*
X6000000Y-5750000D03*
X-27000000Y-1000000D03*
X6000000Y-4250000D03*
X6000000Y1250000D03*
X-6500000Y7500000D03*
X-15000000Y4500000D03*
X13750000Y4500000D03*
X-27000000Y4500000D03*
X27000000Y1000000D03*
X2000000Y250000D03*
X-13500000Y7750000D03*
D16*
X25000000Y-3250000D03*
D15*
X23500000Y2500000D03*
X22972947Y124419D03*
X-9500000Y5250000D03*
X-13250000Y750000D03*
X1199997Y750000D03*
X-3521772Y423242D03*
X-9000000Y-7750000D03*
X5500000Y-8200000D03*
D16*
X34250000Y-2750000D03*
X34250000Y2750000D03*
D15*
X23500000Y-3750000D03*
D16*
X34250000Y0D03*
D15*
X-8750000Y6250000D03*
X-9250000Y-1250000D03*
X-6250000Y1250000D03*
X-1000000Y-2000000D03*
X10000000Y-5750000D03*
X13000000Y-3500000D03*
X15750000Y-3500000D03*
X2000000Y-3750000D03*
X2000000Y-5750000D03*
X-22250000Y1250000D03*
X25000000Y3000000D03*
X20000000Y0D03*
X21000000Y6000000D03*
X13000000Y-750000D03*
X19500000Y4750000D03*
X13000000Y-2250000D03*
X-9000000Y-6500000D03*
X9750000Y-8200000D03*
X20250000Y-6500000D03*
X8750000Y-8200000D03*
X6500000Y-8200000D03*
X-5250000Y-7250000D03*
X7000000Y-5750000D03*
X-3875000Y4375000D03*
G04 #@! TA.AperFunction,Conductor*
G36*
X-1056961Y8629815D02*
G01*
X-1011206Y8577011D01*
X-1000000Y8525500D01*
X-1000000Y3000000D01*
X13000000Y3000000D01*
X13000000Y4750001D01*
X18894318Y4750001D01*
X18894318Y4749998D01*
X18914955Y4593239D01*
X18914956Y4593237D01*
X18975463Y4447160D01*
X19071718Y4321718D01*
X19197160Y4225463D01*
X19343237Y4164956D01*
X19343239Y4164955D01*
X19499999Y4144318D01*
X19500000Y4144318D01*
X19500001Y4144318D01*
X19656760Y4164955D01*
X19656762Y4164956D01*
X19802839Y4225463D01*
X19802841Y4225464D01*
X19928282Y4321718D01*
X20024536Y4447159D01*
X20085044Y4593238D01*
X20105682Y4750000D01*
X20085044Y4906762D01*
X20024536Y5052841D01*
X19928282Y5178282D01*
X19802841Y5274536D01*
X19656762Y5335044D01*
X19552254Y5348802D01*
X19500001Y5355682D01*
X19499999Y5355682D01*
X19421619Y5345363D01*
X19343238Y5335044D01*
X19197159Y5274536D01*
X19071718Y5178282D01*
X18975464Y5052841D01*
X18975463Y5052839D01*
X18914956Y4906762D01*
X18914955Y4906760D01*
X18894318Y4750001D01*
X13000000Y4750001D01*
X13000000Y8525500D01*
X13019685Y8592539D01*
X13072489Y8638294D01*
X13124000Y8649500D01*
X16775224Y8649500D01*
X16842263Y8629815D01*
X16888018Y8577011D01*
X16897962Y8507853D01*
X16868937Y8444297D01*
X16847728Y8426229D01*
X16848274Y8425508D01*
X16843703Y8422056D01*
X16843699Y8422053D01*
X16843698Y8422052D01*
X16728733Y8317247D01*
X16686127Y8278406D01*
X16557632Y8108253D01*
X16462596Y7917394D01*
X16462596Y7917392D01*
X16462595Y7917389D01*
X16453096Y7884004D01*
X16404244Y7712310D01*
X16384571Y7500000D01*
X16384571Y7499999D01*
X16404244Y7287689D01*
X16462596Y7082607D01*
X16462596Y7082605D01*
X16557632Y6891746D01*
X16686127Y6721593D01*
X16843699Y6577947D01*
X17024980Y6465702D01*
X17024982Y6465701D01*
X17223799Y6388680D01*
X17223802Y6388679D01*
X17433390Y6349500D01*
X17433392Y6349500D01*
X17646608Y6349500D01*
X17646610Y6349500D01*
X17856198Y6388679D01*
X17958426Y6428282D01*
X18055017Y6465701D01*
X18055019Y6465702D01*
X18150039Y6524536D01*
X18236302Y6577948D01*
X18393872Y6721593D01*
X18522366Y6891745D01*
X18522367Y6891746D01*
X18617403Y7082605D01*
X18617403Y7082607D01*
X18617405Y7082611D01*
X18675756Y7287690D01*
X18686529Y7403951D01*
X18712315Y7468888D01*
X18756869Y7500804D01*
X18720497Y7521668D01*
X18688307Y7583681D01*
X18686529Y7596048D01*
X18679035Y7676920D01*
X18675756Y7712310D01*
X18617405Y7917389D01*
X18592981Y7966439D01*
X18522367Y8108253D01*
X18522366Y8108253D01*
X18522366Y8108255D01*
X18393872Y8278407D01*
X18236302Y8422052D01*
X18236296Y8422056D01*
X18231726Y8425508D01*
X18233052Y8427264D01*
X18192862Y8472102D01*
X18181759Y8541084D01*
X18209713Y8605118D01*
X18267849Y8643874D01*
X18304776Y8649500D01*
X19315224Y8649500D01*
X19382263Y8629815D01*
X19428018Y8577011D01*
X19437962Y8507853D01*
X19408937Y8444297D01*
X19387728Y8426229D01*
X19388274Y8425508D01*
X19383703Y8422056D01*
X19383699Y8422053D01*
X19383698Y8422052D01*
X19268733Y8317247D01*
X19226127Y8278406D01*
X19097632Y8108253D01*
X19002596Y7917394D01*
X19002596Y7917392D01*
X19002595Y7917389D01*
X18993096Y7884004D01*
X18944244Y7712310D01*
X18933471Y7596048D01*
X18907685Y7531111D01*
X18863130Y7499194D01*
X18899503Y7478331D01*
X18931693Y7416318D01*
X18933471Y7403951D01*
X18944244Y7287689D01*
X19002596Y7082607D01*
X19002596Y7082605D01*
X19097632Y6891746D01*
X19226127Y6721593D01*
X19383699Y6577947D01*
X19564980Y6465702D01*
X19564982Y6465701D01*
X19763799Y6388680D01*
X19763802Y6388679D01*
X19973390Y6349500D01*
X19973392Y6349500D01*
X20186609Y6349500D01*
X20186610Y6349500D01*
X20217506Y6355275D01*
X20295753Y6369902D01*
X20365268Y6362871D01*
X20419946Y6319373D01*
X20442428Y6253219D01*
X20433098Y6200560D01*
X20414956Y6156762D01*
X20414955Y6156760D01*
X20394318Y6000001D01*
X20394318Y5999998D01*
X20414955Y5843239D01*
X20414956Y5843237D01*
X20475463Y5697160D01*
X20571718Y5571718D01*
X20697160Y5475463D01*
X20843237Y5414956D01*
X20843239Y5414955D01*
X20999999Y5394318D01*
X21000000Y5394318D01*
X21000001Y5394318D01*
X21156760Y5414955D01*
X21156762Y5414956D01*
X21302839Y5475463D01*
X21302841Y5475464D01*
X21428282Y5571718D01*
X21524536Y5697159D01*
X21585044Y5843238D01*
X21591923Y5895492D01*
X21605682Y5999998D01*
X21605682Y6000001D01*
X21589856Y6120213D01*
X21585044Y6156762D01*
X21524536Y6302841D01*
X21428282Y6428282D01*
X21302841Y6524536D01*
X21156762Y6585044D01*
X21071291Y6596296D01*
X21007395Y6624562D01*
X20968924Y6682887D01*
X20968093Y6752751D01*
X20988523Y6793962D01*
X21062367Y6891746D01*
X21157403Y7082605D01*
X21157403Y7082607D01*
X21157405Y7082611D01*
X21215756Y7287690D01*
X21226529Y7403951D01*
X21252315Y7468888D01*
X21296869Y7500804D01*
X21260497Y7521668D01*
X21228307Y7583681D01*
X21226529Y7596048D01*
X21219035Y7676920D01*
X21215756Y7712310D01*
X21157405Y7917389D01*
X21132981Y7966439D01*
X21062367Y8108253D01*
X21062366Y8108253D01*
X21062366Y8108255D01*
X20933872Y8278407D01*
X20776302Y8422052D01*
X20776296Y8422056D01*
X20771726Y8425508D01*
X20773052Y8427264D01*
X20732862Y8472102D01*
X20721759Y8541084D01*
X20749713Y8605118D01*
X20807849Y8643874D01*
X20844776Y8649500D01*
X21855224Y8649500D01*
X21922263Y8629815D01*
X21968018Y8577011D01*
X21977962Y8507853D01*
X21948937Y8444297D01*
X21927728Y8426229D01*
X21928274Y8425508D01*
X21923703Y8422056D01*
X21923699Y8422053D01*
X21923698Y8422052D01*
X21808733Y8317247D01*
X21766127Y8278406D01*
X21637632Y8108253D01*
X21542596Y7917394D01*
X21542596Y7917392D01*
X21542595Y7917389D01*
X21533096Y7884004D01*
X21484244Y7712310D01*
X21473471Y7596048D01*
X21447685Y7531111D01*
X21403130Y7499194D01*
X21439503Y7478331D01*
X21471693Y7416318D01*
X21473471Y7403951D01*
X21484244Y7287689D01*
X21542596Y7082607D01*
X21542596Y7082605D01*
X21637632Y6891746D01*
X21766127Y6721593D01*
X21923699Y6577947D01*
X22104980Y6465702D01*
X22104982Y6465701D01*
X22303799Y6388680D01*
X22303802Y6388679D01*
X22513390Y6349500D01*
X22513392Y6349500D01*
X22726608Y6349500D01*
X22726610Y6349500D01*
X22936198Y6388679D01*
X23038426Y6428282D01*
X23135017Y6465701D01*
X23135019Y6465702D01*
X23230039Y6524536D01*
X23316302Y6577948D01*
X23473872Y6721593D01*
X23602366Y6891745D01*
X23602367Y6891746D01*
X23697403Y7082605D01*
X23697403Y7082607D01*
X23697405Y7082611D01*
X23755756Y7287690D01*
X23766529Y7403951D01*
X23792315Y7468888D01*
X23836869Y7500804D01*
X23800497Y7521668D01*
X23768307Y7583681D01*
X23766529Y7596048D01*
X23759035Y7676920D01*
X23755756Y7712310D01*
X23697405Y7917389D01*
X23672981Y7966439D01*
X23602367Y8108253D01*
X23602366Y8108253D01*
X23602366Y8108255D01*
X23473872Y8278407D01*
X23316302Y8422052D01*
X23316296Y8422056D01*
X23311726Y8425508D01*
X23313052Y8427264D01*
X23272862Y8472102D01*
X23261759Y8541084D01*
X23289713Y8605118D01*
X23347849Y8643874D01*
X23384776Y8649500D01*
X24395224Y8649500D01*
X24462263Y8629815D01*
X24508018Y8577011D01*
X24517962Y8507853D01*
X24488937Y8444297D01*
X24467728Y8426229D01*
X24468274Y8425508D01*
X24463703Y8422056D01*
X24463699Y8422053D01*
X24463698Y8422052D01*
X24348733Y8317247D01*
X24306127Y8278406D01*
X24177632Y8108253D01*
X24082596Y7917394D01*
X24082596Y7917392D01*
X24082595Y7917389D01*
X24073096Y7884004D01*
X24024244Y7712310D01*
X24013471Y7596048D01*
X23987685Y7531111D01*
X23943130Y7499194D01*
X23979503Y7478331D01*
X24011693Y7416318D01*
X24013471Y7403951D01*
X24024244Y7287689D01*
X24082596Y7082607D01*
X24082596Y7082605D01*
X24177632Y6891746D01*
X24306127Y6721593D01*
X24463699Y6577947D01*
X24644980Y6465702D01*
X24644982Y6465701D01*
X24843799Y6388680D01*
X24843802Y6388679D01*
X25053390Y6349500D01*
X25053392Y6349500D01*
X25266608Y6349500D01*
X25266610Y6349500D01*
X25476198Y6388679D01*
X25578426Y6428282D01*
X25675017Y6465701D01*
X25675019Y6465702D01*
X25770039Y6524536D01*
X25856302Y6577948D01*
X26013872Y6721593D01*
X26142366Y6891745D01*
X26142367Y6891746D01*
X26237403Y7082605D01*
X26237403Y7082607D01*
X26237405Y7082611D01*
X26295756Y7287690D01*
X26306529Y7403951D01*
X26332315Y7468888D01*
X26376869Y7500804D01*
X26340497Y7521668D01*
X26308307Y7583681D01*
X26306529Y7596048D01*
X26299035Y7676920D01*
X26295756Y7712310D01*
X26237405Y7917389D01*
X26212981Y7966439D01*
X26142367Y8108253D01*
X26142366Y8108253D01*
X26142366Y8108255D01*
X26013872Y8278407D01*
X25856302Y8422052D01*
X25856296Y8422056D01*
X25851726Y8425508D01*
X25853052Y8427264D01*
X25812862Y8472102D01*
X25801759Y8541084D01*
X25829713Y8605118D01*
X25887849Y8643874D01*
X25924776Y8649500D01*
X26935224Y8649500D01*
X27002263Y8629815D01*
X27048018Y8577011D01*
X27057962Y8507853D01*
X27028937Y8444297D01*
X27007728Y8426229D01*
X27008274Y8425508D01*
X27003703Y8422056D01*
X27003699Y8422053D01*
X27003698Y8422052D01*
X26888733Y8317247D01*
X26846127Y8278406D01*
X26717632Y8108253D01*
X26622596Y7917394D01*
X26622596Y7917392D01*
X26622595Y7917389D01*
X26613096Y7884004D01*
X26564244Y7712310D01*
X26553471Y7596048D01*
X26527685Y7531111D01*
X26483130Y7499194D01*
X26519503Y7478331D01*
X26551693Y7416318D01*
X26553471Y7403951D01*
X26564244Y7287689D01*
X26622596Y7082607D01*
X26622596Y7082605D01*
X26717632Y6891746D01*
X26846127Y6721593D01*
X27003699Y6577947D01*
X27184980Y6465702D01*
X27184982Y6465701D01*
X27383799Y6388680D01*
X27383802Y6388679D01*
X27593390Y6349500D01*
X27593392Y6349500D01*
X27806608Y6349500D01*
X27806610Y6349500D01*
X28016198Y6388679D01*
X28118426Y6428282D01*
X28215017Y6465701D01*
X28215019Y6465702D01*
X28310039Y6524536D01*
X28396302Y6577948D01*
X28553872Y6721593D01*
X28682366Y6891745D01*
X28682367Y6891746D01*
X28777403Y7082605D01*
X28777403Y7082607D01*
X28777405Y7082611D01*
X28784141Y7106286D01*
X34149500Y7106286D01*
X34149500Y6893713D01*
X34182753Y6683760D01*
X34248444Y6481585D01*
X34344951Y6292179D01*
X34469890Y6120213D01*
X34620213Y5969890D01*
X34792179Y5844951D01*
X34981585Y5748444D01*
X35183760Y5682753D01*
X35183759Y5682753D01*
X35354202Y5655757D01*
X35393713Y5649500D01*
X35393714Y5649500D01*
X35606286Y5649500D01*
X35606287Y5649500D01*
X35669644Y5659534D01*
X35816239Y5682753D01*
X35816241Y5682753D01*
X35816243Y5682754D01*
X36018412Y5748443D01*
X36018416Y5748445D01*
X36207820Y5844951D01*
X36379786Y5969890D01*
X36530109Y6120213D01*
X36655048Y6292179D01*
X36655051Y6292184D01*
X36751557Y6481588D01*
X36817246Y6683757D01*
X36850500Y6893713D01*
X36850500Y7106287D01*
X36817246Y7316243D01*
X36751557Y7518412D01*
X36655051Y7707816D01*
X36584033Y7805565D01*
X36530109Y7879786D01*
X36530106Y7879788D01*
X36530104Y7879792D01*
X36379792Y8030104D01*
X36379788Y8030106D01*
X36379786Y8030109D01*
X36207820Y8155048D01*
X36207816Y8155051D01*
X36018412Y8251557D01*
X35816243Y8317246D01*
X35606287Y8350500D01*
X35393713Y8350500D01*
X35183757Y8317246D01*
X34981588Y8251557D01*
X34792184Y8155051D01*
X34792181Y8155049D01*
X34792179Y8155048D01*
X34620213Y8030109D01*
X34469890Y7879786D01*
X34344951Y7707820D01*
X34333439Y7685227D01*
X34248443Y7518412D01*
X34182754Y7316243D01*
X34182753Y7316239D01*
X34149500Y7106286D01*
X28784141Y7106286D01*
X28835756Y7287690D01*
X28855429Y7500000D01*
X28835756Y7712310D01*
X28777405Y7917389D01*
X28752981Y7966439D01*
X28682367Y8108253D01*
X28682366Y8108253D01*
X28682366Y8108255D01*
X28553872Y8278407D01*
X28396302Y8422052D01*
X28396296Y8422056D01*
X28391726Y8425508D01*
X28393052Y8427264D01*
X28352862Y8472102D01*
X28341759Y8541084D01*
X28369713Y8605118D01*
X28427849Y8643874D01*
X28464776Y8649500D01*
X35444486Y8649500D01*
X35495572Y8649500D01*
X35504417Y8649184D01*
X35526836Y8647580D01*
X35725904Y8633342D01*
X35743414Y8630824D01*
X35956046Y8584570D01*
X35973023Y8579586D01*
X36176920Y8503536D01*
X36193013Y8496186D01*
X36384004Y8391897D01*
X36398887Y8382332D01*
X36573093Y8251923D01*
X36586464Y8240337D01*
X36740337Y8086464D01*
X36751923Y8073093D01*
X36882332Y7898887D01*
X36891897Y7884004D01*
X36996186Y7693013D01*
X37003536Y7676920D01*
X37079586Y7473023D01*
X37084570Y7456046D01*
X37130824Y7243414D01*
X37133342Y7225904D01*
X37149184Y7004419D01*
X37149500Y6995572D01*
X37149500Y-6995572D01*
X37149184Y-7004419D01*
X37133342Y-7225904D01*
X37130824Y-7243414D01*
X37084570Y-7456046D01*
X37079586Y-7473023D01*
X37003536Y-7676920D01*
X36996186Y-7693013D01*
X36891897Y-7884004D01*
X36882332Y-7898887D01*
X36751923Y-8073093D01*
X36740337Y-8086464D01*
X36586464Y-8240337D01*
X36573093Y-8251923D01*
X36398887Y-8382332D01*
X36384004Y-8391897D01*
X36193013Y-8496186D01*
X36176920Y-8503536D01*
X35973023Y-8579586D01*
X35956046Y-8584570D01*
X35743414Y-8630824D01*
X35725904Y-8633342D01*
X35526836Y-8647580D01*
X35504417Y-8649184D01*
X35495572Y-8649500D01*
X19328476Y-8649500D01*
X19261437Y-8629815D01*
X19215682Y-8577011D01*
X19205738Y-8507853D01*
X19234763Y-8444297D01*
X19262504Y-8420506D01*
X19327262Y-8379816D01*
X19454816Y-8252262D01*
X19550789Y-8099522D01*
X19610368Y-7929255D01*
X19610369Y-7929249D01*
X19630565Y-7750003D01*
X19630565Y-7749996D01*
X19610369Y-7570750D01*
X19610368Y-7570745D01*
X19592057Y-7518415D01*
X19550789Y-7400478D01*
X19454816Y-7247738D01*
X19327262Y-7120184D01*
X19305145Y-7106287D01*
X19174523Y-7024211D01*
X19004254Y-6964631D01*
X19004249Y-6964630D01*
X18825004Y-6944435D01*
X18824996Y-6944435D01*
X18645750Y-6964630D01*
X18645745Y-6964631D01*
X18475476Y-7024211D01*
X18322737Y-7120184D01*
X18195184Y-7247737D01*
X18099211Y-7400476D01*
X18039631Y-7570745D01*
X18039630Y-7570750D01*
X18019435Y-7749996D01*
X18019435Y-7750003D01*
X18039630Y-7929249D01*
X18039631Y-7929254D01*
X18099211Y-8099523D01*
X18162346Y-8200001D01*
X18195184Y-8252262D01*
X18322738Y-8379816D01*
X18335203Y-8387648D01*
X18387496Y-8420506D01*
X18433787Y-8472841D01*
X18444435Y-8541894D01*
X18416060Y-8605743D01*
X18357670Y-8644115D01*
X18321524Y-8649500D01*
X10399367Y-8649500D01*
X10332328Y-8629815D01*
X10286573Y-8577011D01*
X10276629Y-8507853D01*
X10284806Y-8478047D01*
X10295493Y-8452247D01*
X10335044Y-8356762D01*
X10355682Y-8200000D01*
X10349764Y-8155051D01*
X10335044Y-8043239D01*
X10335044Y-8043238D01*
X10274536Y-7897159D01*
X10178282Y-7771718D01*
X10052841Y-7675464D01*
X9906762Y-7614956D01*
X9906760Y-7614955D01*
X9750001Y-7594318D01*
X9749999Y-7594318D01*
X9593239Y-7614955D01*
X9593237Y-7614956D01*
X9447157Y-7675464D01*
X9325486Y-7768826D01*
X9260317Y-7794020D01*
X9191872Y-7779981D01*
X9174514Y-7768826D01*
X9052842Y-7675464D01*
X8906762Y-7614956D01*
X8906760Y-7614955D01*
X8750001Y-7594318D01*
X8749999Y-7594318D01*
X8593239Y-7614955D01*
X8593237Y-7614956D01*
X8447160Y-7675463D01*
X8321718Y-7771718D01*
X8225463Y-7897160D01*
X8164956Y-8043237D01*
X8164955Y-8043239D01*
X8144318Y-8199998D01*
X8144318Y-8200001D01*
X8164955Y-8356760D01*
X8164956Y-8356762D01*
X8215194Y-8478047D01*
X8222663Y-8547517D01*
X8191388Y-8609996D01*
X8131299Y-8645648D01*
X8100633Y-8649500D01*
X7149367Y-8649500D01*
X7082328Y-8629815D01*
X7036573Y-8577011D01*
X7026629Y-8507853D01*
X7034806Y-8478047D01*
X7045493Y-8452247D01*
X7085044Y-8356762D01*
X7105682Y-8200000D01*
X7099764Y-8155051D01*
X7085044Y-8043239D01*
X7085044Y-8043238D01*
X7024536Y-7897159D01*
X6928282Y-7771718D01*
X6802841Y-7675464D01*
X6656762Y-7614956D01*
X6656760Y-7614955D01*
X6500001Y-7594318D01*
X6499999Y-7594318D01*
X6343239Y-7614955D01*
X6343237Y-7614956D01*
X6197157Y-7675464D01*
X6075486Y-7768826D01*
X6010317Y-7794020D01*
X5941872Y-7779981D01*
X5924514Y-7768826D01*
X5802842Y-7675464D01*
X5656762Y-7614956D01*
X5656760Y-7614955D01*
X5500001Y-7594318D01*
X5499999Y-7594318D01*
X5343239Y-7614955D01*
X5343237Y-7614956D01*
X5197160Y-7675463D01*
X5071718Y-7771718D01*
X4975463Y-7897160D01*
X4914956Y-8043237D01*
X4914955Y-8043239D01*
X4894318Y-8199998D01*
X4894318Y-8200001D01*
X4914955Y-8356760D01*
X4914956Y-8356762D01*
X4965194Y-8478047D01*
X4972663Y-8547517D01*
X4941388Y-8609996D01*
X4881299Y-8645648D01*
X4850633Y-8649500D01*
X-35495572Y-8649500D01*
X-35504418Y-8649184D01*
X-35725904Y-8633343D01*
X-35743416Y-8630825D01*
X-35956047Y-8584570D01*
X-35973023Y-8579586D01*
X-36176920Y-8503536D01*
X-36193013Y-8496186D01*
X-36384004Y-8391897D01*
X-36398887Y-8382332D01*
X-36573093Y-8251923D01*
X-36586464Y-8240337D01*
X-36740337Y-8086464D01*
X-36751923Y-8073093D01*
X-36882332Y-7898887D01*
X-36891897Y-7884004D01*
X-36996186Y-7693013D01*
X-37003536Y-7676920D01*
X-37079586Y-7473023D01*
X-37084570Y-7456047D01*
X-37130825Y-7243416D01*
X-37133343Y-7225904D01*
X-37149184Y-7004418D01*
X-37149500Y-6995572D01*
X-37149500Y-6893714D01*
X-36850501Y-6893714D01*
X-36850501Y-7106288D01*
X-36817247Y-7316244D01*
X-36751558Y-7518413D01*
X-36655052Y-7707817D01*
X-36655050Y-7707820D01*
X-36655049Y-7707821D01*
X-36530110Y-7879787D01*
X-36530107Y-7879789D01*
X-36530105Y-7879793D01*
X-36379793Y-8030105D01*
X-36379789Y-8030107D01*
X-36379787Y-8030110D01*
X-36302221Y-8086464D01*
X-36207817Y-8155052D01*
X-36018413Y-8251558D01*
X-35816244Y-8317247D01*
X-35606288Y-8350501D01*
X-35606287Y-8350501D01*
X-35393715Y-8350501D01*
X-35393714Y-8350501D01*
X-35183758Y-8317247D01*
X-34981589Y-8251558D01*
X-34792185Y-8155052D01*
X-34792182Y-8155050D01*
X-34792180Y-8155049D01*
X-34620214Y-8030110D01*
X-34469891Y-7879787D01*
X-34344952Y-7707821D01*
X-34248445Y-7518415D01*
X-34243196Y-7502262D01*
X-34182755Y-7316244D01*
X-34172262Y-7249998D01*
X-34149501Y-7106287D01*
X-34149501Y-6893714D01*
X-34182754Y-6683761D01*
X-34242462Y-6500000D01*
X-9605682Y-6500000D01*
X-9585044Y-6656762D01*
X-9524536Y-6802841D01*
X-9428282Y-6928282D01*
X-9340588Y-6995572D01*
X-9300120Y-7026624D01*
X-9258917Y-7083052D01*
X-9254762Y-7152798D01*
X-9288974Y-7213718D01*
X-9300120Y-7223376D01*
X-9428280Y-7321716D01*
X-9428280Y-7321717D01*
X-9428282Y-7321718D01*
X-9524536Y-7447159D01*
X-9585044Y-7593238D01*
X-9585044Y-7593239D01*
X-9605681Y-7749996D01*
X-9605682Y-7750000D01*
X-9585044Y-7906762D01*
X-9524536Y-8052841D01*
X-9428282Y-8178282D01*
X-9302841Y-8274536D01*
X-9156762Y-8335044D01*
X-9052254Y-8348802D01*
X-9000001Y-8355682D01*
X-9000000Y-8355682D01*
X-8999999Y-8355682D01*
X-8921619Y-8345363D01*
X-8843238Y-8335044D01*
X-8697159Y-8274536D01*
X-8571718Y-8178282D01*
X-8475464Y-8052841D01*
X-8424272Y-7929254D01*
X-8414956Y-7906762D01*
X-8414955Y-7906760D01*
X-8394318Y-7750001D01*
X-8394318Y-7749998D01*
X-8414955Y-7593239D01*
X-8414956Y-7593237D01*
X-8475463Y-7447160D01*
X-8571718Y-7321718D01*
X-8665183Y-7250000D01*
X-5855682Y-7250000D01*
X-5835044Y-7406762D01*
X-5774536Y-7552841D01*
X-5678282Y-7678282D01*
X-5552841Y-7774536D01*
X-5406762Y-7835044D01*
X-5302254Y-7848802D01*
X-5250001Y-7855682D01*
X-5250000Y-7855682D01*
X-5249999Y-7855682D01*
X-5171619Y-7845363D01*
X-5093238Y-7835044D01*
X-4947159Y-7774536D01*
X-4821718Y-7678282D01*
X-4725464Y-7552841D01*
X-4685370Y-7456047D01*
X-4664956Y-7406762D01*
X-4664955Y-7406760D01*
X-4644318Y-7250001D01*
X-4644318Y-7249998D01*
X-4664955Y-7093239D01*
X-4664956Y-7093237D01*
X-4703578Y-6999996D01*
X-3305565Y-6999996D01*
X-3305565Y-7000003D01*
X-3288349Y-7152798D01*
X-3285368Y-7179255D01*
X-3225789Y-7349522D01*
X-3129816Y-7502262D01*
X-3002262Y-7629816D01*
X-2849522Y-7725789D01*
X-2679255Y-7785368D01*
X-2679252Y-7785368D01*
X-2679249Y-7785369D01*
X-2500004Y-7805565D01*
X-2500000Y-7805565D01*
X-2499996Y-7805565D01*
X-2320750Y-7785369D01*
X-2320745Y-7785368D01*
X-2219672Y-7750001D01*
X-2150478Y-7725789D01*
X-2121880Y-7707820D01*
X-2070385Y-7675463D01*
X-1997738Y-7629816D01*
X-1870184Y-7502262D01*
X-1851812Y-7473023D01*
X-1774211Y-7349523D01*
X-1714631Y-7179254D01*
X-1714630Y-7179249D01*
X-1694435Y-7000003D01*
X-1694435Y-6999996D01*
X-1714630Y-6820750D01*
X-1714631Y-6820745D01*
X-1774211Y-6650476D01*
X-1868763Y-6499998D01*
X19644318Y-6499998D01*
X19644318Y-6500001D01*
X19664955Y-6656760D01*
X19664956Y-6656762D01*
X19725464Y-6802841D01*
X19821718Y-6928282D01*
X19947159Y-7024536D01*
X20093238Y-7085044D01*
X20155478Y-7093238D01*
X20249999Y-7105682D01*
X20250000Y-7105682D01*
X20250001Y-7105682D01*
X20344514Y-7093239D01*
X20406762Y-7085044D01*
X20552841Y-7024536D01*
X20678282Y-6928282D01*
X20704808Y-6893713D01*
X34149500Y-6893713D01*
X34149500Y-7106286D01*
X34182753Y-7316239D01*
X34182753Y-7316241D01*
X34182754Y-7316243D01*
X34228179Y-7456047D01*
X34248444Y-7518414D01*
X34344951Y-7707820D01*
X34469890Y-7879786D01*
X34620213Y-8030109D01*
X34792179Y-8155048D01*
X34792181Y-8155049D01*
X34792184Y-8155051D01*
X34981588Y-8251557D01*
X35183757Y-8317246D01*
X35393713Y-8350500D01*
X35393714Y-8350500D01*
X35606286Y-8350500D01*
X35606287Y-8350500D01*
X35816243Y-8317246D01*
X36018412Y-8251557D01*
X36207816Y-8155051D01*
X36229789Y-8139086D01*
X36379786Y-8030109D01*
X36379788Y-8030106D01*
X36379792Y-8030104D01*
X36530104Y-7879792D01*
X36530108Y-7879787D01*
X36530109Y-7879786D01*
X36655048Y-7707820D01*
X36655050Y-7707817D01*
X36655051Y-7707816D01*
X36751557Y-7518412D01*
X36817246Y-7316243D01*
X36850500Y-7106287D01*
X36850500Y-6893713D01*
X36817246Y-6683757D01*
X36751557Y-6481588D01*
X36655051Y-6292184D01*
X36655049Y-6292181D01*
X36655048Y-6292179D01*
X36530109Y-6120213D01*
X36379786Y-5969890D01*
X36207820Y-5844951D01*
X36018414Y-5748444D01*
X36018413Y-5748443D01*
X36018412Y-5748443D01*
X35816243Y-5682754D01*
X35816241Y-5682753D01*
X35816240Y-5682753D01*
X35654957Y-5657208D01*
X35606287Y-5649500D01*
X35393713Y-5649500D01*
X35345042Y-5657208D01*
X35183760Y-5682753D01*
X34981585Y-5748444D01*
X34792179Y-5844951D01*
X34620213Y-5969890D01*
X34469890Y-6120213D01*
X34344951Y-6292179D01*
X34248444Y-6481585D01*
X34182753Y-6683760D01*
X34149500Y-6893713D01*
X20704808Y-6893713D01*
X20774536Y-6802841D01*
X20835044Y-6656762D01*
X20855682Y-6500000D01*
X20835044Y-6343238D01*
X20774536Y-6197159D01*
X20678282Y-6071718D01*
X20552841Y-5975464D01*
X20539384Y-5969890D01*
X20406762Y-5914956D01*
X20406760Y-5914955D01*
X20250001Y-5894318D01*
X20249999Y-5894318D01*
X20093239Y-5914955D01*
X20093237Y-5914956D01*
X19947160Y-5975463D01*
X19821718Y-6071718D01*
X19725463Y-6197160D01*
X19664956Y-6343237D01*
X19664955Y-6343239D01*
X19644318Y-6499998D01*
X-1868763Y-6499998D01*
X-1870184Y-6497737D01*
X-1997737Y-6370184D01*
X-2150476Y-6274211D01*
X-2320745Y-6214631D01*
X-2320750Y-6214630D01*
X-2499996Y-6194435D01*
X-2500004Y-6194435D01*
X-2679249Y-6214630D01*
X-2679254Y-6214631D01*
X-2849523Y-6274211D01*
X-3002262Y-6370184D01*
X-3129815Y-6497737D01*
X-3221918Y-6644318D01*
X-3225789Y-6650478D01*
X-3230855Y-6664956D01*
X-3285368Y-6820745D01*
X-3285369Y-6820750D01*
X-3305565Y-6999996D01*
X-4703578Y-6999996D01*
X-4725463Y-6947160D01*
X-4821718Y-6821718D01*
X-4947160Y-6725463D01*
X-5093237Y-6664956D01*
X-5093239Y-6664955D01*
X-5249999Y-6644318D01*
X-5250001Y-6644318D01*
X-5406760Y-6664955D01*
X-5406762Y-6664956D01*
X-5552841Y-6725464D01*
X-5678282Y-6821718D01*
X-5774536Y-6947159D01*
X-5835044Y-7093238D01*
X-5835044Y-7093239D01*
X-5850905Y-7213718D01*
X-5855682Y-7250000D01*
X-8665183Y-7250000D01*
X-8699880Y-7223376D01*
X-8741082Y-7166947D01*
X-8745237Y-7097201D01*
X-8711024Y-7036281D01*
X-8699880Y-7026624D01*
X-8665178Y-6999996D01*
X-8571718Y-6928282D01*
X-8475464Y-6802841D01*
X-8414956Y-6656762D01*
X-8414955Y-6656760D01*
X-8394318Y-6500001D01*
X-8394318Y-6499998D01*
X-8414955Y-6343239D01*
X-8414956Y-6343237D01*
X-8475463Y-6197160D01*
X-8571718Y-6071718D01*
X-8697160Y-5975463D01*
X-8843237Y-5914956D01*
X-8843239Y-5914955D01*
X-8999999Y-5894318D01*
X-9000001Y-5894318D01*
X-9156760Y-5914955D01*
X-9156762Y-5914956D01*
X-9289384Y-5969890D01*
X-9302841Y-5975464D01*
X-9428282Y-6071718D01*
X-9524536Y-6197159D01*
X-9585044Y-6343238D01*
X-9605682Y-6500000D01*
X-34242462Y-6500000D01*
X-34248445Y-6481586D01*
X-34344952Y-6292180D01*
X-34469891Y-6120214D01*
X-34620214Y-5969891D01*
X-34792180Y-5844952D01*
X-34978538Y-5749998D01*
X1394318Y-5749998D01*
X1394318Y-5750001D01*
X1414955Y-5906760D01*
X1414956Y-5906762D01*
X1441104Y-5969890D01*
X1475464Y-6052841D01*
X1571718Y-6178282D01*
X1697159Y-6274536D01*
X1843238Y-6335044D01*
X1905478Y-6343238D01*
X1999999Y-6355682D01*
X2000000Y-6355682D01*
X2000001Y-6355682D01*
X2094514Y-6343239D01*
X2156762Y-6335044D01*
X2302841Y-6274536D01*
X2428282Y-6178282D01*
X2524536Y-6052841D01*
X2585044Y-5906762D01*
X2605682Y-5750000D01*
X2605682Y-5749998D01*
X6394318Y-5749998D01*
X6394318Y-5750001D01*
X6414955Y-5906760D01*
X6414956Y-5906762D01*
X6441104Y-5969890D01*
X6475464Y-6052841D01*
X6571718Y-6178282D01*
X6697159Y-6274536D01*
X6843238Y-6335044D01*
X6905478Y-6343238D01*
X6999999Y-6355682D01*
X7000000Y-6355682D01*
X7000001Y-6355682D01*
X7094514Y-6343239D01*
X7156762Y-6335044D01*
X7302841Y-6274536D01*
X7428282Y-6178282D01*
X7524536Y-6052841D01*
X7585044Y-5906762D01*
X7605682Y-5750000D01*
X7605682Y-5749998D01*
X9394318Y-5749998D01*
X9394318Y-5750001D01*
X9414955Y-5906760D01*
X9414956Y-5906762D01*
X9441104Y-5969890D01*
X9475464Y-6052841D01*
X9571718Y-6178282D01*
X9697159Y-6274536D01*
X9843238Y-6335044D01*
X9905478Y-6343238D01*
X9999999Y-6355682D01*
X10000000Y-6355682D01*
X10000001Y-6355682D01*
X10094514Y-6343239D01*
X10156762Y-6335044D01*
X10302841Y-6274536D01*
X10428282Y-6178282D01*
X10524536Y-6052841D01*
X10585044Y-5906762D01*
X10605682Y-5750000D01*
X10605477Y-5748445D01*
X10585044Y-5593239D01*
X10585044Y-5593238D01*
X10524536Y-5447159D01*
X10428282Y-5321718D01*
X10302841Y-5225464D01*
X10156762Y-5164956D01*
X10156760Y-5164955D01*
X10000001Y-5144318D01*
X9999999Y-5144318D01*
X9843239Y-5164955D01*
X9843237Y-5164956D01*
X9697160Y-5225463D01*
X9571718Y-5321718D01*
X9475463Y-5447160D01*
X9414956Y-5593237D01*
X9414955Y-5593239D01*
X9394318Y-5749998D01*
X7605682Y-5749998D01*
X7605477Y-5748445D01*
X7585044Y-5593239D01*
X7585044Y-5593238D01*
X7524536Y-5447159D01*
X7428282Y-5321718D01*
X7302841Y-5225464D01*
X7156762Y-5164956D01*
X7156760Y-5164955D01*
X7000001Y-5144318D01*
X6999999Y-5144318D01*
X6843239Y-5164955D01*
X6843237Y-5164956D01*
X6697160Y-5225463D01*
X6571718Y-5321718D01*
X6475463Y-5447160D01*
X6414956Y-5593237D01*
X6414955Y-5593239D01*
X6394318Y-5749998D01*
X2605682Y-5749998D01*
X2605477Y-5748445D01*
X2585044Y-5593239D01*
X2585044Y-5593238D01*
X2524536Y-5447159D01*
X2428282Y-5321718D01*
X2302841Y-5225464D01*
X2156762Y-5164956D01*
X2156760Y-5164955D01*
X2000001Y-5144318D01*
X1999999Y-5144318D01*
X1843239Y-5164955D01*
X1843237Y-5164956D01*
X1697160Y-5225463D01*
X1571718Y-5321718D01*
X1475463Y-5447160D01*
X1414956Y-5593237D01*
X1414955Y-5593239D01*
X1394318Y-5749998D01*
X-34978538Y-5749998D01*
X-34981586Y-5748445D01*
X-35183761Y-5682754D01*
X-35183760Y-5682754D01*
X-35354203Y-5655758D01*
X-35393714Y-5649501D01*
X-35606288Y-5649501D01*
X-35669645Y-5659535D01*
X-35816240Y-5682754D01*
X-35816242Y-5682754D01*
X-35816244Y-5682755D01*
X-36018413Y-5748444D01*
X-36018414Y-5748444D01*
X-36018415Y-5748445D01*
X-36207821Y-5844952D01*
X-36379787Y-5969891D01*
X-36530110Y-6120214D01*
X-36655049Y-6292180D01*
X-36655050Y-6292182D01*
X-36655052Y-6292185D01*
X-36751558Y-6481589D01*
X-36817247Y-6683758D01*
X-36850501Y-6893714D01*
X-37149500Y-6893714D01*
X-37149500Y-3749998D01*
X1394318Y-3749998D01*
X1394318Y-3750001D01*
X1414955Y-3906760D01*
X1414956Y-3906762D01*
X1443547Y-3975788D01*
X1475464Y-4052841D01*
X1571718Y-4178282D01*
X1697159Y-4274536D01*
X1843238Y-4335044D01*
X1921619Y-4345363D01*
X1999999Y-4355682D01*
X2000000Y-4355682D01*
X2000001Y-4355682D01*
X2052254Y-4348802D01*
X2156762Y-4335044D01*
X2302841Y-4274536D01*
X2428282Y-4178282D01*
X2524536Y-4052841D01*
X2585044Y-3906762D01*
X2605384Y-3752262D01*
X2605682Y-3750001D01*
X2605682Y-3749998D01*
X2585044Y-3593239D01*
X2585044Y-3593238D01*
X2524536Y-3447159D01*
X2428282Y-3321718D01*
X2302841Y-3225464D01*
X2156762Y-3164956D01*
X2156760Y-3164955D01*
X2000001Y-3144318D01*
X1999999Y-3144318D01*
X1843239Y-3164955D01*
X1843237Y-3164956D01*
X1697160Y-3225463D01*
X1571718Y-3321718D01*
X1475463Y-3447160D01*
X1414956Y-3593237D01*
X1414955Y-3593239D01*
X1394318Y-3749998D01*
X-37149500Y-3749998D01*
X-37149500Y-2000000D01*
X-1605682Y-2000000D01*
X-1585044Y-2156762D01*
X-1524536Y-2302841D01*
X-1428282Y-2428282D01*
X-1302841Y-2524536D01*
X-1156762Y-2585044D01*
X-1052254Y-2598802D01*
X-1000001Y-2605682D01*
X-1000000Y-2605682D01*
X-999999Y-2605682D01*
X-921619Y-2595363D01*
X-843238Y-2585044D01*
X-697159Y-2524536D01*
X-571718Y-2428282D01*
X-475464Y-2302841D01*
X-453576Y-2250000D01*
X-453575Y-2249998D01*
X12394318Y-2249998D01*
X12394318Y-2250001D01*
X12414955Y-2406760D01*
X12414956Y-2406762D01*
X12475464Y-2552841D01*
X12571718Y-2678282D01*
X12662234Y-2747737D01*
X12699880Y-2776624D01*
X12741082Y-2833053D01*
X12745237Y-2902799D01*
X12711024Y-2963719D01*
X12699880Y-2973376D01*
X12571718Y-3071718D01*
X12475463Y-3197160D01*
X12414956Y-3343237D01*
X12414955Y-3343239D01*
X12394318Y-3499998D01*
X12394318Y-3500001D01*
X12414955Y-3656760D01*
X12414956Y-3656762D01*
X12453576Y-3750000D01*
X12475464Y-3802841D01*
X12571718Y-3928282D01*
X12697159Y-4024536D01*
X12843238Y-4085044D01*
X12921619Y-4095363D01*
X12999999Y-4105682D01*
X13000000Y-4105682D01*
X13000001Y-4105682D01*
X13052254Y-4098802D01*
X13156762Y-4085044D01*
X13302841Y-4024536D01*
X13428282Y-3928282D01*
X13524536Y-3802841D01*
X13585044Y-3656762D01*
X13605682Y-3500000D01*
X13605682Y-3499998D01*
X15144318Y-3499998D01*
X15144318Y-3500001D01*
X15164955Y-3656760D01*
X15164956Y-3656762D01*
X15203576Y-3750000D01*
X15225464Y-3802841D01*
X15321718Y-3928282D01*
X15447159Y-4024536D01*
X15593238Y-4085044D01*
X15671619Y-4095363D01*
X15749999Y-4105682D01*
X15750000Y-4105682D01*
X15750001Y-4105682D01*
X15802254Y-4098802D01*
X15906762Y-4085044D01*
X16052841Y-4024536D01*
X16178282Y-3928282D01*
X16274536Y-3802841D01*
X16296424Y-3749998D01*
X22894318Y-3749998D01*
X22894318Y-3750001D01*
X22914955Y-3906760D01*
X22914956Y-3906762D01*
X22943547Y-3975788D01*
X22975464Y-4052841D01*
X23071718Y-4178282D01*
X23197159Y-4274536D01*
X23343238Y-4335044D01*
X23421619Y-4345363D01*
X23499999Y-4355682D01*
X23500000Y-4355682D01*
X23500001Y-4355682D01*
X23552254Y-4348802D01*
X23656762Y-4335044D01*
X23802841Y-4274536D01*
X23928282Y-4178282D01*
X24024536Y-4052841D01*
X24085044Y-3906762D01*
X24105682Y-3750000D01*
X24105681Y-3749998D01*
X24106351Y-3744915D01*
X24134617Y-3681018D01*
X24192942Y-3642547D01*
X24262806Y-3641716D01*
X24322030Y-3678788D01*
X24334283Y-3695127D01*
X24370182Y-3752260D01*
X24370184Y-3752262D01*
X24497738Y-3879816D01*
X24650478Y-3975789D01*
X24789789Y-4024536D01*
X24820745Y-4035368D01*
X24820750Y-4035369D01*
X24999996Y-4055565D01*
X25000000Y-4055565D01*
X25000004Y-4055565D01*
X25179249Y-4035369D01*
X25179252Y-4035368D01*
X25179255Y-4035368D01*
X25349522Y-3975789D01*
X25502262Y-3879816D01*
X25629816Y-3752262D01*
X25725789Y-3599522D01*
X25785368Y-3429255D01*
X25785369Y-3429249D01*
X25805565Y-3250003D01*
X25805565Y-3249996D01*
X25785369Y-3070750D01*
X25785368Y-3070745D01*
X25747918Y-2963719D01*
X25725789Y-2900478D01*
X25721918Y-2894318D01*
X25631237Y-2750000D01*
X25631234Y-2749996D01*
X33444435Y-2749996D01*
X33444435Y-2750003D01*
X33464630Y-2929249D01*
X33464631Y-2929254D01*
X33524211Y-3099523D01*
X33552358Y-3144318D01*
X33620184Y-3252262D01*
X33747738Y-3379816D01*
X33900478Y-3475789D01*
X33969672Y-3500001D01*
X34070745Y-3535368D01*
X34070750Y-3535369D01*
X34249996Y-3555565D01*
X34250000Y-3555565D01*
X34250004Y-3555565D01*
X34429249Y-3535369D01*
X34429252Y-3535368D01*
X34429255Y-3535368D01*
X34599522Y-3475789D01*
X34752262Y-3379816D01*
X34879816Y-3252262D01*
X34975789Y-3099522D01*
X35035368Y-2929255D01*
X35036979Y-2914956D01*
X35055565Y-2750003D01*
X35055565Y-2749996D01*
X35035369Y-2570750D01*
X35035368Y-2570745D01*
X34985518Y-2428282D01*
X34975789Y-2400478D01*
X34879816Y-2247738D01*
X34752262Y-2120184D01*
X34599523Y-2024211D01*
X34429254Y-1964631D01*
X34429249Y-1964630D01*
X34250004Y-1944435D01*
X34249996Y-1944435D01*
X34070750Y-1964630D01*
X34070745Y-1964631D01*
X33900476Y-2024211D01*
X33747737Y-2120184D01*
X33620184Y-2247737D01*
X33524211Y-2400476D01*
X33464631Y-2570745D01*
X33464630Y-2570750D01*
X33444435Y-2749996D01*
X25631234Y-2749996D01*
X25629816Y-2747738D01*
X25502262Y-2620184D01*
X25446337Y-2585044D01*
X25349523Y-2524211D01*
X25179254Y-2464631D01*
X25179249Y-2464630D01*
X25000004Y-2444435D01*
X24999996Y-2444435D01*
X24820750Y-2464630D01*
X24820745Y-2464631D01*
X24650476Y-2524211D01*
X24497737Y-2620184D01*
X24370184Y-2747737D01*
X24274211Y-2900476D01*
X24214631Y-3070745D01*
X24214630Y-3070750D01*
X24194435Y-3249996D01*
X24194435Y-3250003D01*
X24199772Y-3297372D01*
X24187717Y-3366194D01*
X24140368Y-3417573D01*
X24072758Y-3435197D01*
X24006352Y-3413470D01*
X23978177Y-3386743D01*
X23928282Y-3321718D01*
X23802841Y-3225464D01*
X23656762Y-3164956D01*
X23656760Y-3164955D01*
X23500001Y-3144318D01*
X23499999Y-3144318D01*
X23343239Y-3164955D01*
X23343237Y-3164956D01*
X23197160Y-3225463D01*
X23071718Y-3321718D01*
X22975463Y-3447160D01*
X22914956Y-3593237D01*
X22914955Y-3593239D01*
X22894318Y-3749998D01*
X16296424Y-3749998D01*
X16335044Y-3656762D01*
X16355682Y-3500000D01*
X16352494Y-3475788D01*
X16335044Y-3343239D01*
X16335044Y-3343238D01*
X16274536Y-3197159D01*
X16178282Y-3071718D01*
X16052841Y-2975464D01*
X16047800Y-2973376D01*
X15906762Y-2914956D01*
X15906760Y-2914955D01*
X15750001Y-2894318D01*
X15749999Y-2894318D01*
X15593239Y-2914955D01*
X15593237Y-2914956D01*
X15447160Y-2975463D01*
X15321718Y-3071718D01*
X15225463Y-3197160D01*
X15164956Y-3343237D01*
X15164955Y-3343239D01*
X15144318Y-3499998D01*
X13605682Y-3499998D01*
X13602494Y-3475788D01*
X13585044Y-3343239D01*
X13585044Y-3343238D01*
X13524536Y-3197159D01*
X13428282Y-3071718D01*
X13428280Y-3071717D01*
X13428280Y-3071716D01*
X13300120Y-2973376D01*
X13258917Y-2916948D01*
X13254762Y-2847202D01*
X13288974Y-2786282D01*
X13300120Y-2776624D01*
X13337766Y-2747737D01*
X13428282Y-2678282D01*
X13524536Y-2552841D01*
X13585044Y-2406762D01*
X13605682Y-2250000D01*
X13585044Y-2093238D01*
X13524536Y-1947159D01*
X13428282Y-1821718D01*
X13302841Y-1725464D01*
X13156762Y-1664956D01*
X13156760Y-1664955D01*
X13000001Y-1644318D01*
X12999999Y-1644318D01*
X12843239Y-1664955D01*
X12843237Y-1664956D01*
X12697160Y-1725463D01*
X12571718Y-1821718D01*
X12475463Y-1947160D01*
X12414956Y-2093237D01*
X12414955Y-2093239D01*
X12394318Y-2249998D01*
X-453575Y-2249998D01*
X-414956Y-2156762D01*
X-414955Y-2156760D01*
X-394318Y-2000001D01*
X-394318Y-1999998D01*
X-414955Y-1843239D01*
X-414956Y-1843237D01*
X-475463Y-1697160D01*
X-571718Y-1571718D01*
X-697160Y-1475463D01*
X-843237Y-1414956D01*
X-843239Y-1414955D01*
X-999999Y-1394318D01*
X-1000001Y-1394318D01*
X-1156760Y-1414955D01*
X-1156762Y-1414956D01*
X-1302841Y-1475464D01*
X-1428282Y-1571718D01*
X-1524536Y-1697159D01*
X-1585044Y-1843238D01*
X-1585044Y-1843239D01*
X-1601025Y-1964630D01*
X-1605682Y-2000000D01*
X-37149500Y-2000000D01*
X-37149500Y-1250000D01*
X-9855682Y-1250000D01*
X-9835044Y-1406762D01*
X-9774536Y-1552841D01*
X-9678282Y-1678282D01*
X-9552841Y-1774536D01*
X-9406762Y-1835044D01*
X-9344514Y-1843239D01*
X-9250001Y-1855682D01*
X-9250000Y-1855682D01*
X-9249999Y-1855682D01*
X-9155478Y-1843238D01*
X-9093238Y-1835044D01*
X-8947159Y-1774536D01*
X-8821718Y-1678282D01*
X-8725464Y-1552841D01*
X-8664956Y-1406762D01*
X-8664955Y-1406760D01*
X-8644318Y-1250001D01*
X-8644318Y-1249998D01*
X-8664955Y-1093239D01*
X-8664956Y-1093237D01*
X-8725463Y-947160D01*
X-8821718Y-821718D01*
X-8915185Y-749998D01*
X12394318Y-749998D01*
X12394318Y-750001D01*
X12414955Y-906760D01*
X12414956Y-906762D01*
X12475464Y-1052841D01*
X12571718Y-1178282D01*
X12697159Y-1274536D01*
X12843238Y-1335044D01*
X12921619Y-1345363D01*
X12999999Y-1355682D01*
X13000000Y-1355682D01*
X13000001Y-1355682D01*
X13052254Y-1348802D01*
X13156762Y-1335044D01*
X13302841Y-1274536D01*
X13428282Y-1178282D01*
X13524536Y-1052841D01*
X13585044Y-906762D01*
X13605682Y-750000D01*
X13602494Y-725788D01*
X13585044Y-593239D01*
X13585044Y-593238D01*
X13524536Y-447159D01*
X13428282Y-321718D01*
X13302841Y-225464D01*
X13156762Y-164956D01*
X13156760Y-164955D01*
X13000001Y-144318D01*
X12999999Y-144318D01*
X12843239Y-164955D01*
X12843237Y-164956D01*
X12697160Y-225463D01*
X12571718Y-321718D01*
X12475463Y-447160D01*
X12414956Y-593237D01*
X12414955Y-593239D01*
X12394318Y-749998D01*
X-8915185Y-749998D01*
X-8947160Y-725463D01*
X-9093237Y-664956D01*
X-9093239Y-664955D01*
X-9249999Y-644318D01*
X-9250001Y-644318D01*
X-9406760Y-664955D01*
X-9406762Y-664956D01*
X-9552841Y-725464D01*
X-9678282Y-821718D01*
X-9774536Y-947159D01*
X-9835044Y-1093238D01*
X-9855682Y-1250000D01*
X-37149500Y-1250000D01*
X-37149500Y-1074832D01*
X-37129815Y-1007793D01*
X-37077011Y-962038D01*
X-37007853Y-952094D01*
X-36944297Y-981119D01*
X-36937831Y-987139D01*
X-36922765Y-1002206D01*
X-36819991Y-1047585D01*
X-36794865Y-1050500D01*
X-35205136Y-1050499D01*
X-35205122Y-1050497D01*
X-35205117Y-1050497D01*
X-35180012Y-1047586D01*
X-35180010Y-1047585D01*
X-35180009Y-1047585D01*
X-35077235Y-1002206D01*
X-34997794Y-922765D01*
X-34990727Y-906760D01*
X-34952415Y-819993D01*
X-34952415Y-819991D01*
X-34949500Y-794868D01*
X-34949500Y794856D01*
X-34949502Y794882D01*
X-34952413Y819987D01*
X-34952415Y819991D01*
X-34997793Y922764D01*
X-35077234Y1002205D01*
X-35077235Y1002206D01*
X-35180009Y1047585D01*
X-35205135Y1050500D01*
X-36794864Y1050499D01*
X-36794879Y1050497D01*
X-36794882Y1050497D01*
X-36819987Y1047586D01*
X-36819988Y1047585D01*
X-36819991Y1047585D01*
X-36922765Y1002206D01*
X-36937819Y987152D01*
X-36999142Y953667D01*
X-37068834Y958651D01*
X-37124767Y1000523D01*
X-37149184Y1065987D01*
X-37149500Y1074833D01*
X-37149500Y1250000D01*
X-22855682Y1250000D01*
X-22835044Y1093238D01*
X-22774536Y947159D01*
X-22678282Y821718D01*
X-22552841Y725464D01*
X-22552839Y725463D01*
X-22406762Y664956D01*
X-22406760Y664955D01*
X-22250001Y644318D01*
X-22250000Y644318D01*
X-22249999Y644318D01*
X-22093239Y664955D01*
X-22093237Y664956D01*
X-21947160Y725463D01*
X-21915181Y750001D01*
X-13855682Y750001D01*
X-13855682Y749998D01*
X-13852452Y725464D01*
X-13835044Y593238D01*
X-13774536Y447159D01*
X-13678282Y321718D01*
X-13552841Y225464D01*
X-13552839Y225463D01*
X-13406762Y164956D01*
X-13406760Y164955D01*
X-13250001Y144318D01*
X-13250000Y144318D01*
X-13249999Y144318D01*
X-13093239Y164955D01*
X-13093237Y164956D01*
X-12947160Y225463D01*
X-12821718Y321718D01*
X-12743816Y423242D01*
X-4127454Y423242D01*
X-4106816Y266480D01*
X-4046308Y120401D01*
X-3950054Y-5040D01*
X-3824613Y-101294D01*
X-3678534Y-161802D01*
X-3574026Y-175560D01*
X-3521773Y-182440D01*
X-3521772Y-182440D01*
X-3521771Y-182440D01*
X-3443391Y-172121D01*
X-3365010Y-161802D01*
X-3218931Y-101294D01*
X-3093490Y-5040D01*
X-3089622Y1D01*
X19394318Y1D01*
X19394318Y-1D01*
X19414955Y-156760D01*
X19414956Y-156762D01*
X19424272Y-179254D01*
X19475464Y-302841D01*
X19571718Y-428282D01*
X19697159Y-524536D01*
X19843238Y-585044D01*
X19905478Y-593238D01*
X19999999Y-605682D01*
X20000000Y-605682D01*
X20000001Y-605682D01*
X20094514Y-593239D01*
X20156762Y-585044D01*
X20302841Y-524536D01*
X20428282Y-428282D01*
X20524536Y-302841D01*
X20585044Y-156762D01*
X20601424Y-32341D01*
X20605682Y-1D01*
X20605682Y1D01*
X20589302Y124420D01*
X22367265Y124420D01*
X22367265Y124417D01*
X22387902Y-32341D01*
X22387903Y-32343D01*
X22448411Y-178422D01*
X22544665Y-303863D01*
X22670106Y-400117D01*
X22816185Y-460625D01*
X22894566Y-470944D01*
X22972946Y-481263D01*
X22972947Y-481263D01*
X22972948Y-481263D01*
X23025201Y-474383D01*
X23129709Y-460625D01*
X23275788Y-400117D01*
X23401229Y-303863D01*
X23497483Y-178422D01*
X23557991Y-32343D01*
X23562249Y3D01*
X33444435Y3D01*
X33444435Y-3D01*
X33464630Y-179249D01*
X33464631Y-179254D01*
X33524211Y-349523D01*
X33573699Y-428282D01*
X33620184Y-502262D01*
X33747738Y-629816D01*
X33803663Y-664956D01*
X33899960Y-725464D01*
X33900478Y-725789D01*
X33969672Y-750001D01*
X34070745Y-785368D01*
X34070750Y-785369D01*
X34249996Y-805565D01*
X34250000Y-805565D01*
X34250004Y-805565D01*
X34429249Y-785369D01*
X34429252Y-785368D01*
X34429255Y-785368D01*
X34599522Y-725789D01*
X34752262Y-629816D01*
X34879816Y-502262D01*
X34975789Y-349522D01*
X35035368Y-179255D01*
X35036979Y-164956D01*
X35055565Y-3D01*
X35055565Y3D01*
X35035369Y179249D01*
X35035368Y179254D01*
X35019199Y225463D01*
X34975789Y349522D01*
X34879816Y502262D01*
X34752262Y629816D01*
X34599522Y725789D01*
X34429255Y785368D01*
X34429252Y785368D01*
X34429249Y785369D01*
X34250004Y805565D01*
X34249996Y805565D01*
X34070750Y785369D01*
X34070745Y785368D01*
X33900478Y725789D01*
X33900476Y725788D01*
X33899959Y725463D01*
X33747738Y629816D01*
X33747737Y629815D01*
X33620184Y502262D01*
X33524211Y349523D01*
X33464631Y179254D01*
X33464630Y179249D01*
X33444435Y3D01*
X23562249Y3D01*
X23578629Y124419D01*
X23557991Y281181D01*
X23497483Y427260D01*
X23401229Y552701D01*
X23275788Y648955D01*
X23129709Y709463D01*
X23025201Y723221D01*
X22972948Y730101D01*
X22972946Y730101D01*
X22894566Y719782D01*
X22816185Y709463D01*
X22670106Y648955D01*
X22544665Y552701D01*
X22448411Y427260D01*
X22448410Y427258D01*
X22387903Y281181D01*
X22387902Y281179D01*
X22367265Y124420D01*
X20589302Y124420D01*
X20585044Y156760D01*
X20585044Y156762D01*
X20524536Y302841D01*
X20428282Y428282D01*
X20302841Y524536D01*
X20156762Y585044D01*
X20052254Y598802D01*
X20000001Y605682D01*
X19999999Y605682D01*
X19921619Y595363D01*
X19843238Y585044D01*
X19697159Y524536D01*
X19571718Y428282D01*
X19475464Y302841D01*
X19475463Y302839D01*
X19414956Y156762D01*
X19414955Y156760D01*
X19394318Y1D01*
X-3089622Y1D01*
X-2997236Y120401D01*
X-2997235Y120402D01*
X-2936728Y266479D01*
X-2936727Y266481D01*
X-2916090Y423240D01*
X-2916090Y423243D01*
X-2936727Y580002D01*
X-2936728Y580004D01*
X-2997235Y726081D01*
X-2997236Y726083D01*
X-3015589Y750001D01*
X594315Y750001D01*
X594315Y749998D01*
X614952Y593239D01*
X614953Y593237D01*
X675460Y447160D01*
X771715Y321718D01*
X897157Y225463D01*
X1043234Y164956D01*
X1043236Y164955D01*
X1199996Y144318D01*
X1199997Y144318D01*
X1199998Y144318D01*
X1356757Y164955D01*
X1356759Y164956D01*
X1502836Y225463D01*
X1502838Y225464D01*
X1628279Y321718D01*
X1724533Y447159D01*
X1785041Y593238D01*
X1802449Y725464D01*
X1805679Y749998D01*
X1805679Y750001D01*
X1785041Y906760D01*
X1785041Y906762D01*
X1724533Y1052841D01*
X1628279Y1178282D01*
X1502838Y1274536D01*
X1356759Y1335044D01*
X1252251Y1348802D01*
X1199998Y1355682D01*
X1199996Y1355682D01*
X1121616Y1345363D01*
X1043235Y1335044D01*
X897156Y1274536D01*
X771715Y1178282D01*
X675461Y1052841D01*
X675460Y1052839D01*
X614953Y906762D01*
X614952Y906760D01*
X594315Y750001D01*
X-3015589Y750001D01*
X-3093490Y851524D01*
X-3218931Y947778D01*
X-3365010Y1008286D01*
X-3443391Y1018605D01*
X-3521771Y1028924D01*
X-3521773Y1028924D01*
X-3574026Y1022044D01*
X-3678534Y1008286D01*
X-3824613Y947778D01*
X-3950054Y851524D01*
X-4046308Y726083D01*
X-4106816Y580004D01*
X-4114118Y524536D01*
X-4126790Y428282D01*
X-4127454Y423242D01*
X-12743816Y423242D01*
X-12725463Y447160D01*
X-12664956Y593237D01*
X-12664955Y593239D01*
X-12644318Y749998D01*
X-12644318Y750001D01*
X-12664955Y906760D01*
X-12664956Y906762D01*
X-12725463Y1052839D01*
X-12725464Y1052841D01*
X-12821718Y1178282D01*
X-12915183Y1250000D01*
X-6855682Y1250000D01*
X-6835044Y1093238D01*
X-6774536Y947159D01*
X-6678282Y821718D01*
X-6552841Y725464D01*
X-6552839Y725463D01*
X-6406762Y664956D01*
X-6406760Y664955D01*
X-6250001Y644318D01*
X-6250000Y644318D01*
X-6249999Y644318D01*
X-6093239Y664955D01*
X-6093237Y664956D01*
X-5947160Y725463D01*
X-5821718Y821718D01*
X-5725463Y947160D01*
X-5664956Y1093237D01*
X-5664955Y1093239D01*
X-5644318Y1249998D01*
X-5644318Y1250001D01*
X-5664955Y1406760D01*
X-5664956Y1406762D01*
X-5725463Y1552839D01*
X-5725464Y1552841D01*
X-5821718Y1678282D01*
X-5947159Y1774536D01*
X-6093238Y1835044D01*
X-6171619Y1845363D01*
X-6249999Y1855682D01*
X-6250001Y1855682D01*
X-6302254Y1848802D01*
X-6406762Y1835044D01*
X-6552841Y1774536D01*
X-6678282Y1678282D01*
X-6774536Y1552841D01*
X-6835044Y1406762D01*
X-6855682Y1250000D01*
X-12915183Y1250000D01*
X-12947159Y1274536D01*
X-13093238Y1335044D01*
X-13171619Y1345363D01*
X-13249999Y1355682D01*
X-13250001Y1355682D01*
X-13302254Y1348802D01*
X-13406762Y1335044D01*
X-13552841Y1274536D01*
X-13678282Y1178282D01*
X-13774536Y1052841D01*
X-13835044Y906762D01*
X-13835044Y906760D01*
X-13855682Y750001D01*
X-21915181Y750001D01*
X-21821718Y821718D01*
X-21725463Y947160D01*
X-21664956Y1093237D01*
X-21664955Y1093239D01*
X-21644318Y1249998D01*
X-21644318Y1250001D01*
X-21664955Y1406760D01*
X-21664956Y1406762D01*
X-21725463Y1552839D01*
X-21725464Y1552841D01*
X-21821718Y1678282D01*
X-21947159Y1774536D01*
X-22093238Y1835044D01*
X-22171619Y1845363D01*
X-22249999Y1855682D01*
X-22250001Y1855682D01*
X-22302254Y1848802D01*
X-22406762Y1835044D01*
X-22552841Y1774536D01*
X-22678282Y1678282D01*
X-22774536Y1552841D01*
X-22835044Y1406762D01*
X-22855682Y1250000D01*
X-37149500Y1250000D01*
X-37149500Y1925167D01*
X-37129815Y1992206D01*
X-37077011Y2037961D01*
X-37007853Y2047905D01*
X-36944297Y2018880D01*
X-36937819Y2012848D01*
X-36922765Y1997794D01*
X-36819992Y1952415D01*
X-36794865Y1949500D01*
X-35205143Y1949500D01*
X-35205117Y1949502D01*
X-35180012Y1952413D01*
X-35180008Y1952415D01*
X-35077235Y1997793D01*
X-34997794Y2077234D01*
X-34952415Y2180006D01*
X-34952415Y2180008D01*
X-34949500Y2205131D01*
X-34949500Y2500001D01*
X22894318Y2500001D01*
X22894318Y2499998D01*
X22914955Y2343239D01*
X22914956Y2343237D01*
X22975463Y2197160D01*
X23071718Y2071718D01*
X23197160Y1975463D01*
X23343237Y1914956D01*
X23343239Y1914955D01*
X23499999Y1894318D01*
X23500000Y1894318D01*
X23500001Y1894318D01*
X23656760Y1914955D01*
X23656762Y1914956D01*
X23802839Y1975463D01*
X23802841Y1975464D01*
X23928282Y2071718D01*
X24024536Y2197159D01*
X24085044Y2343238D01*
X24105682Y2500000D01*
X24085044Y2656762D01*
X24024536Y2802841D01*
X23928282Y2928282D01*
X23834816Y3000001D01*
X24394318Y3000001D01*
X24394318Y3000000D01*
X24414955Y2843239D01*
X24414956Y2843237D01*
X24475463Y2697160D01*
X24571718Y2571718D01*
X24697160Y2475463D01*
X24843237Y2414956D01*
X24843239Y2414955D01*
X24999999Y2394318D01*
X25000000Y2394318D01*
X25000001Y2394318D01*
X25156760Y2414955D01*
X25156762Y2414956D01*
X25302839Y2475463D01*
X25302841Y2475464D01*
X25428282Y2571718D01*
X25524536Y2697159D01*
X25546425Y2750003D01*
X33444435Y2750003D01*
X33444435Y2749996D01*
X33464630Y2570750D01*
X33464631Y2570745D01*
X33524211Y2400476D01*
X33620184Y2247737D01*
X33747737Y2120184D01*
X33900476Y2024211D01*
X34070745Y1964631D01*
X34070750Y1964630D01*
X34249996Y1944435D01*
X34250000Y1944435D01*
X34250004Y1944435D01*
X34429249Y1964630D01*
X34429254Y1964631D01*
X34599523Y2024211D01*
X34752262Y2120184D01*
X34879815Y2247737D01*
X34975788Y2400476D01*
X34980855Y2414955D01*
X35035368Y2570745D01*
X35035478Y2571718D01*
X35055565Y2749996D01*
X35055565Y2750003D01*
X35035369Y2929249D01*
X35035368Y2929254D01*
X35010613Y3000000D01*
X34975789Y3099522D01*
X34879816Y3252262D01*
X34752262Y3379816D01*
X34599522Y3475789D01*
X34429255Y3535368D01*
X34429252Y3535368D01*
X34429249Y3535369D01*
X34250004Y3555565D01*
X34249996Y3555565D01*
X34070750Y3535369D01*
X34070745Y3535368D01*
X33900478Y3475789D01*
X33747738Y3379816D01*
X33747737Y3379815D01*
X33620184Y3252262D01*
X33524211Y3099523D01*
X33464631Y2929254D01*
X33464630Y2929249D01*
X33444435Y2750003D01*
X25546425Y2750003D01*
X25585044Y2843238D01*
X25605682Y3000000D01*
X25585044Y3156762D01*
X25524536Y3302841D01*
X25428282Y3428282D01*
X25302841Y3524536D01*
X25156762Y3585044D01*
X25052254Y3598802D01*
X25000001Y3605682D01*
X24999999Y3605682D01*
X24921619Y3595363D01*
X24843238Y3585044D01*
X24697159Y3524536D01*
X24571718Y3428282D01*
X24475464Y3302841D01*
X24475463Y3302839D01*
X24414956Y3156762D01*
X24414955Y3156760D01*
X24394318Y3000001D01*
X23834816Y3000001D01*
X23802841Y3024536D01*
X23656762Y3085044D01*
X23546790Y3099522D01*
X23500001Y3105682D01*
X23499999Y3105682D01*
X23453210Y3099522D01*
X23343238Y3085044D01*
X23197159Y3024536D01*
X23071718Y2928282D01*
X22975464Y2802841D01*
X22975463Y2802839D01*
X22914956Y2656762D01*
X22914955Y2656760D01*
X22894318Y2500001D01*
X-34949500Y2500001D01*
X-34949500Y3794856D01*
X-34949502Y3794882D01*
X-34952413Y3819987D01*
X-34952415Y3819991D01*
X-34997793Y3922764D01*
X-35077234Y4002205D01*
X-35077235Y4002206D01*
X-35180009Y4047585D01*
X-35205135Y4050500D01*
X-36794864Y4050499D01*
X-36794879Y4050497D01*
X-36794882Y4050497D01*
X-36819987Y4047586D01*
X-36819988Y4047585D01*
X-36819991Y4047585D01*
X-36922765Y4002206D01*
X-36937819Y3987152D01*
X-36999142Y3953667D01*
X-37068834Y3958651D01*
X-37124767Y4000523D01*
X-37149184Y4065987D01*
X-37149500Y4074833D01*
X-37149500Y4375000D01*
X-4480682Y4375000D01*
X-4460044Y4218238D01*
X-4399536Y4072159D01*
X-4303282Y3946718D01*
X-4177841Y3850464D01*
X-4177839Y3850463D01*
X-4031762Y3789956D01*
X-4031760Y3789955D01*
X-3875001Y3769318D01*
X-3875000Y3769318D01*
X-3874999Y3769318D01*
X-3718239Y3789955D01*
X-3718237Y3789956D01*
X-3572160Y3850463D01*
X-3446718Y3946718D01*
X-3350463Y4072160D01*
X-3289956Y4218237D01*
X-3289955Y4218239D01*
X-3269318Y4374998D01*
X-3269318Y4375001D01*
X-3289955Y4531760D01*
X-3289956Y4531762D01*
X-3350463Y4677839D01*
X-3350464Y4677841D01*
X-3446718Y4803282D01*
X-3572159Y4899536D01*
X-3718238Y4960044D01*
X-3796619Y4970363D01*
X-3874999Y4980682D01*
X-3875001Y4980682D01*
X-3927254Y4973802D01*
X-4031762Y4960044D01*
X-4177841Y4899536D01*
X-4303282Y4803282D01*
X-4399536Y4677841D01*
X-4460044Y4531762D01*
X-4480682Y4375000D01*
X-37149500Y4375000D01*
X-37149500Y5250000D01*
X-10105682Y5250000D01*
X-10085044Y5093238D01*
X-10024536Y4947159D01*
X-9928282Y4821718D01*
X-9802841Y4725464D01*
X-9802839Y4725463D01*
X-9656762Y4664956D01*
X-9656760Y4664955D01*
X-9500001Y4644318D01*
X-9500000Y4644318D01*
X-9499999Y4644318D01*
X-9343239Y4664955D01*
X-9343237Y4664956D01*
X-9197160Y4725463D01*
X-9071718Y4821718D01*
X-8975463Y4947160D01*
X-8914956Y5093237D01*
X-8914955Y5093239D01*
X-8894318Y5249998D01*
X-8894318Y5250001D01*
X-8914955Y5406760D01*
X-8914956Y5406762D01*
X-8946354Y5482563D01*
X-8953823Y5552033D01*
X-8922548Y5614512D01*
X-8862459Y5650164D01*
X-8815608Y5652955D01*
X-8750001Y5644318D01*
X-8750000Y5644318D01*
X-8749999Y5644318D01*
X-8593239Y5664955D01*
X-8593237Y5664956D01*
X-8447160Y5725463D01*
X-8321718Y5821718D01*
X-8225463Y5947160D01*
X-8164956Y6093237D01*
X-8164955Y6093239D01*
X-8144318Y6249998D01*
X-8144318Y6250001D01*
X-8164955Y6406760D01*
X-8164956Y6406762D01*
X-8225463Y6552839D01*
X-8225464Y6552841D01*
X-8321718Y6678282D01*
X-8447159Y6774536D01*
X-8593238Y6835044D01*
X-8671619Y6845363D01*
X-8749999Y6855682D01*
X-8750001Y6855682D01*
X-8802254Y6848802D01*
X-8906762Y6835044D01*
X-9052841Y6774536D01*
X-9178282Y6678282D01*
X-9274536Y6552841D01*
X-9335044Y6406762D01*
X-9339897Y6369902D01*
X-9355682Y6250001D01*
X-9355682Y6249998D01*
X-9349173Y6200560D01*
X-9335044Y6093238D01*
X-9303644Y6017433D01*
X-9296176Y5947967D01*
X-9327451Y5885488D01*
X-9387539Y5849835D01*
X-9434388Y5847044D01*
X-9500000Y5855682D01*
X-9500001Y5855682D01*
X-9544413Y5849835D01*
X-9656762Y5835044D01*
X-9802841Y5774536D01*
X-9928282Y5678282D01*
X-10024536Y5552841D01*
X-10085044Y5406762D01*
X-10105682Y5250000D01*
X-37149500Y5250000D01*
X-37149500Y6995572D01*
X-37149184Y7004418D01*
X-37141898Y7106288D01*
X-36850501Y7106288D01*
X-36850501Y6893714D01*
X-36817247Y6683758D01*
X-36751558Y6481589D01*
X-36691068Y6362871D01*
X-36655049Y6292180D01*
X-36530110Y6120214D01*
X-36379787Y5969891D01*
X-36207821Y5844952D01*
X-36207817Y5844950D01*
X-36018413Y5748444D01*
X-35816244Y5682755D01*
X-35816242Y5682754D01*
X-35816241Y5682754D01*
X-35654958Y5657209D01*
X-35606288Y5649501D01*
X-35606287Y5649501D01*
X-35393715Y5649501D01*
X-35393714Y5649501D01*
X-35345043Y5657209D01*
X-35183761Y5682754D01*
X-34981586Y5748445D01*
X-34792180Y5844952D01*
X-34620214Y5969891D01*
X-34469891Y6120214D01*
X-34344952Y6292180D01*
X-34248445Y6481586D01*
X-34182754Y6683761D01*
X-34149501Y6893714D01*
X-34149501Y7000003D01*
X-3305565Y7000003D01*
X-3305565Y6999996D01*
X-3286979Y6835043D01*
X-3285368Y6820745D01*
X-3225789Y6650478D01*
X-3164440Y6552841D01*
X-3129815Y6497737D01*
X-3002262Y6370184D01*
X-2849523Y6274211D01*
X-2679254Y6214631D01*
X-2679249Y6214630D01*
X-2500004Y6194435D01*
X-2500000Y6194435D01*
X-2499996Y6194435D01*
X-2320750Y6214630D01*
X-2320745Y6214631D01*
X-2150476Y6274211D01*
X-1997737Y6370184D01*
X-1870184Y6497737D01*
X-1774211Y6650476D01*
X-1714631Y6820745D01*
X-1714630Y6820750D01*
X-1694435Y6999996D01*
X-1694435Y7000003D01*
X-1714630Y7179249D01*
X-1714631Y7179254D01*
X-1774211Y7349523D01*
X-1870184Y7502262D01*
X-1997737Y7629815D01*
X-1997738Y7629816D01*
X-2121876Y7707817D01*
X-2150476Y7725788D01*
X-2150478Y7725789D01*
X-2320745Y7785368D01*
X-2320750Y7785369D01*
X-2499996Y7805565D01*
X-2500004Y7805565D01*
X-2679249Y7785369D01*
X-2679252Y7785368D01*
X-2679255Y7785368D01*
X-2849522Y7725789D01*
X-3002262Y7629816D01*
X-3129816Y7502262D01*
X-3225789Y7349522D01*
X-3269199Y7225463D01*
X-3285368Y7179254D01*
X-3285369Y7179249D01*
X-3305565Y7000003D01*
X-34149501Y7000003D01*
X-34149501Y7106287D01*
X-34182754Y7316240D01*
X-34225292Y7447159D01*
X-34248444Y7518413D01*
X-34248445Y7518415D01*
X-34344952Y7707821D01*
X-34375597Y7750001D01*
X-14105682Y7750001D01*
X-14105682Y7749998D01*
X-14099173Y7700559D01*
X-14085044Y7593238D01*
X-14024536Y7447159D01*
X-13928282Y7321718D01*
X-13802841Y7225464D01*
X-13802839Y7225463D01*
X-13656762Y7164956D01*
X-13656760Y7164955D01*
X-13500001Y7144318D01*
X-13500000Y7144318D01*
X-13499999Y7144318D01*
X-13343239Y7164955D01*
X-13343237Y7164956D01*
X-13197160Y7225463D01*
X-13071718Y7321718D01*
X-12975463Y7447160D01*
X-12914956Y7593237D01*
X-12914955Y7593239D01*
X-12894318Y7749998D01*
X-12894318Y7750001D01*
X-12914955Y7906760D01*
X-12914956Y7906762D01*
X-12975463Y8052839D01*
X-12975464Y8052841D01*
X-13071718Y8178282D01*
X-13197159Y8274536D01*
X-13343238Y8335044D01*
X-13421619Y8345363D01*
X-13499999Y8355682D01*
X-13500001Y8355682D01*
X-13552254Y8348802D01*
X-13656762Y8335044D01*
X-13802841Y8274536D01*
X-13928282Y8178282D01*
X-14024536Y8052841D01*
X-14085044Y7906762D01*
X-14088595Y7879787D01*
X-14105682Y7750001D01*
X-34375597Y7750001D01*
X-34469891Y7879787D01*
X-34620214Y8030110D01*
X-34792180Y8155049D01*
X-34792184Y8155051D01*
X-34792185Y8155052D01*
X-34981589Y8251558D01*
X-35183758Y8317247D01*
X-35393714Y8350501D01*
X-35606288Y8350501D01*
X-35816244Y8317247D01*
X-36018413Y8251558D01*
X-36207817Y8155052D01*
X-36229790Y8139087D01*
X-36379787Y8030110D01*
X-36379789Y8030107D01*
X-36379793Y8030105D01*
X-36530105Y7879793D01*
X-36530107Y7879789D01*
X-36530110Y7879787D01*
X-36624406Y7749998D01*
X-36655052Y7707817D01*
X-36751558Y7518413D01*
X-36817247Y7316244D01*
X-36850501Y7106288D01*
X-37141898Y7106288D01*
X-37133343Y7225904D01*
X-37130825Y7243416D01*
X-37084570Y7456047D01*
X-37079586Y7473023D01*
X-37003536Y7676920D01*
X-36996186Y7693013D01*
X-36891897Y7884004D01*
X-36882332Y7898887D01*
X-36751923Y8073093D01*
X-36740337Y8086464D01*
X-36586464Y8240337D01*
X-36573093Y8251923D01*
X-36398887Y8382332D01*
X-36384004Y8391897D01*
X-36193013Y8496186D01*
X-36176920Y8503536D01*
X-35973023Y8579586D01*
X-35956047Y8584570D01*
X-35743416Y8630825D01*
X-35725904Y8633343D01*
X-35504418Y8649184D01*
X-35495572Y8649500D01*
X-35444486Y8649500D01*
X-1124000Y8649500D01*
X-1056961Y8629815D01*
G37*
G04 #@! TD.AperFunction*
M02*
