G04 #@! TF.GenerationSoftware,KiCad,Pcbnew,8.0.4*
G04 #@! TF.CreationDate,2025-02-17T13:02:24+11:00*
G04 #@! TF.ProjectId,LSG,4c53472e-6b69-4636-9164-5f7063625858,rev?*
G04 #@! TF.SameCoordinates,Original*
G04 #@! TF.FileFunction,Soldermask,Top*
G04 #@! TF.FilePolarity,Negative*
%FSLAX46Y46*%
G04 Gerber Fmt 4.6, Leading zero omitted, Abs format (unit mm)*
G04 Created by KiCad (PCBNEW 8.0.4) date 2025-02-17 13:02:24*
%MOMM*%
%LPD*%
G01*
G04 APERTURE LIST*
G04 Aperture macros list*
%AMRoundRect*
0 Rectangle with rounded corners*
0 $1 Rounding radius*
0 $2 $3 $4 $5 $6 $7 $8 $9 X,Y pos of 4 corners*
0 Add a 4 corners polygon primitive as box body*
4,1,4,$2,$3,$4,$5,$6,$7,$8,$9,$2,$3,0*
0 Add four circle primitives for the rounded corners*
1,1,$1+$1,$2,$3*
1,1,$1+$1,$4,$5*
1,1,$1+$1,$6,$7*
1,1,$1+$1,$8,$9*
0 Add four rect primitives between the rounded corners*
20,1,$1+$1,$2,$3,$4,$5,0*
20,1,$1+$1,$4,$5,$6,$7,0*
20,1,$1+$1,$6,$7,$8,$9,0*
20,1,$1+$1,$8,$9,$2,$3,0*%
G04 Aperture macros list end*
%ADD10C,0.010000*%
%ADD11RoundRect,0.200000X-0.200000X-0.275000X0.200000X-0.275000X0.200000X0.275000X-0.200000X0.275000X0*%
%ADD12RoundRect,0.225000X-0.250000X0.225000X-0.250000X-0.225000X0.250000X-0.225000X0.250000X0.225000X0*%
%ADD13RoundRect,0.225000X-0.225000X-0.250000X0.225000X-0.250000X0.225000X0.250000X-0.225000X0.250000X0*%
%ADD14RoundRect,0.200000X0.200000X0.275000X-0.200000X0.275000X-0.200000X-0.275000X0.200000X-0.275000X0*%
%ADD15C,2.200000*%
%ADD16RoundRect,0.243750X-0.243750X-0.456250X0.243750X-0.456250X0.243750X0.456250X-0.243750X0.456250X0*%
%ADD17C,1.000000*%
%ADD18RoundRect,0.250000X-0.500000X-0.250000X0.500000X-0.250000X0.500000X0.250000X-0.500000X0.250000X0*%
%ADD19R,0.900000X1.500000*%
%ADD20RoundRect,0.250000X0.250000X0.475000X-0.250000X0.475000X-0.250000X-0.475000X0.250000X-0.475000X0*%
%ADD21R,1.500000X1.500000*%
%ADD22RoundRect,0.150000X-0.512500X-0.150000X0.512500X-0.150000X0.512500X0.150000X-0.512500X0.150000X0*%
%ADD23RoundRect,0.250000X0.475000X-0.250000X0.475000X0.250000X-0.475000X0.250000X-0.475000X-0.250000X0*%
%ADD24RoundRect,0.150000X-0.587500X-0.150000X0.587500X-0.150000X0.587500X0.150000X-0.587500X0.150000X0*%
%ADD25RoundRect,0.102000X-0.400000X-0.200000X0.400000X-0.200000X0.400000X0.200000X-0.400000X0.200000X0*%
%ADD26RoundRect,0.102000X-0.200000X-0.400000X0.200000X-0.400000X0.200000X0.400000X-0.200000X0.400000X0*%
%ADD27RoundRect,0.102000X-0.725000X-0.725000X0.725000X-0.725000X0.725000X0.725000X-0.725000X0.725000X0*%
%ADD28RoundRect,0.102000X-0.350000X-0.350000X0.350000X-0.350000X0.350000X0.350000X-0.350000X0.350000X0*%
%ADD29RoundRect,0.200000X-0.275000X0.200000X-0.275000X-0.200000X0.275000X-0.200000X0.275000X0.200000X0*%
%ADD30RoundRect,0.175000X0.425000X-0.175000X0.425000X0.175000X-0.425000X0.175000X-0.425000X-0.175000X0*%
%ADD31RoundRect,0.190000X-0.410000X0.190000X-0.410000X-0.190000X0.410000X-0.190000X0.410000X0.190000X0*%
%ADD32RoundRect,0.200000X-0.400000X0.200000X-0.400000X-0.200000X0.400000X-0.200000X0.400000X0.200000X0*%
%ADD33RoundRect,0.175000X-0.425000X0.175000X-0.425000X-0.175000X0.425000X-0.175000X0.425000X0.175000X0*%
%ADD34RoundRect,0.190000X0.410000X-0.190000X0.410000X0.190000X-0.410000X0.190000X-0.410000X-0.190000X0*%
%ADD35RoundRect,0.200000X0.400000X-0.200000X0.400000X0.200000X-0.400000X0.200000X-0.400000X-0.200000X0*%
%ADD36O,1.700000X1.100000*%
%ADD37RoundRect,0.150000X0.512500X0.150000X-0.512500X0.150000X-0.512500X-0.150000X0.512500X-0.150000X0*%
%ADD38R,1.700000X1.700000*%
%ADD39O,1.700000X1.700000*%
%ADD40RoundRect,0.250000X-0.250000X-0.475000X0.250000X-0.475000X0.250000X0.475000X-0.250000X0.475000X0*%
G04 APERTURE END LIST*
D10*
X4850000Y-1050000D02*
X3200000Y-1050000D01*
X3200000Y-60000D01*
X3860000Y600000D01*
X4850000Y600000D01*
X4850000Y-1050000D01*
G36*
X4850000Y-1050000D02*
G01*
X3200000Y-1050000D01*
X3200000Y-60000D01*
X3860000Y600000D01*
X4850000Y600000D01*
X4850000Y-1050000D01*
G37*
D11*
X20675000Y-3000000D03*
X22325000Y-3000000D03*
D12*
X-19250000Y5275000D03*
X-19250000Y3725000D03*
D13*
X-11025000Y0D03*
X-9475000Y0D03*
D14*
X30325000Y-750000D03*
X28675000Y-750000D03*
D15*
X-35500001Y-7000001D03*
D16*
X17062500Y-5000000D03*
X18937500Y-5000000D03*
X17062500Y-3000000D03*
X18937500Y-3000000D03*
D17*
X-2500000Y7000000D03*
D18*
X-31250000Y-2250000D03*
X-22750000Y-2250000D03*
X-31250000Y-6750000D03*
X-22750000Y-6750000D03*
D19*
X-7650000Y-2450000D03*
X-4350000Y-2450000D03*
X-4350000Y2450000D03*
X-7650000Y2450000D03*
D20*
X30800000Y-7000000D03*
X32700000Y-7000000D03*
D21*
X-36000000Y-3000000D03*
D22*
X-7637500Y6450000D03*
X-7637500Y5500000D03*
X-7637500Y4550000D03*
X-5362500Y4550000D03*
X-5362500Y5500000D03*
X-5362500Y6450000D03*
D14*
X22325000Y4750000D03*
X20675000Y4750000D03*
D15*
X-35500001Y7000001D03*
D22*
X-7637500Y-4550000D03*
X-7637500Y-5500000D03*
X-7637500Y-6450000D03*
X-5362500Y-6450000D03*
X-5362500Y-5500000D03*
X-5362500Y-4550000D03*
D17*
X18825000Y-7750000D03*
D23*
X25000000Y-7200000D03*
X25000000Y-5300000D03*
D12*
X-2250000Y-975000D03*
X-2250000Y-2525000D03*
X-2250000Y2275000D03*
X-2250000Y725000D03*
D16*
X17062500Y1000000D03*
X18937500Y1000000D03*
D24*
X24562500Y700000D03*
X24562500Y-1200000D03*
X26437500Y-250000D03*
D12*
X-31250000Y5275000D03*
X-31250000Y3725000D03*
D25*
X100000Y1800000D03*
X100000Y1000000D03*
X100000Y200000D03*
X100000Y-600000D03*
X100000Y-1400000D03*
X100000Y-2200000D03*
X100000Y-3000000D03*
X100000Y-3800000D03*
X100000Y-4600000D03*
X100000Y-5400000D03*
X100000Y-6200000D03*
D26*
X1200000Y-7100000D03*
X2000000Y-7100000D03*
X2800000Y-7100000D03*
X3600000Y-7100000D03*
X4400000Y-7100000D03*
X5200000Y-7100000D03*
X6000000Y-7100000D03*
X6800000Y-7100000D03*
X7600000Y-7100000D03*
X8400000Y-7100000D03*
X9200000Y-7100000D03*
X10000000Y-7100000D03*
X10800000Y-7100000D03*
D25*
X11900000Y-6200000D03*
X11900000Y-5400000D03*
X11900000Y-4600000D03*
X11900000Y-3800000D03*
X11900000Y-3000000D03*
X11900000Y-2200000D03*
X11900000Y-1400000D03*
X11900000Y-600000D03*
X11900000Y200000D03*
X11900000Y1000000D03*
X11900000Y1800000D03*
D26*
X10800000Y2700000D03*
X10000000Y2700000D03*
X9200000Y2700000D03*
X8400000Y2700000D03*
X7600000Y2700000D03*
X6800000Y2700000D03*
X6000000Y2700000D03*
X5200000Y2700000D03*
X4400000Y2700000D03*
X3600000Y2700000D03*
X2800000Y2700000D03*
X2000000Y2700000D03*
X1200000Y2700000D03*
D27*
X6000000Y-225000D03*
X7975000Y-225000D03*
X7975000Y-2200000D03*
X7975000Y-4175000D03*
X6000000Y-4175000D03*
X4025000Y-4175000D03*
X4025000Y-2200000D03*
X6000000Y-2200000D03*
D28*
X11950000Y2750000D03*
X11950000Y-7150000D03*
X50000Y-7150000D03*
X50000Y2750000D03*
D29*
X-10750000Y-3675000D03*
X-10750000Y-5325000D03*
D30*
X31920000Y-500000D03*
D31*
X31920000Y1520000D03*
D32*
X31920000Y2750000D03*
D33*
X31920000Y500000D03*
D34*
X31920000Y-1520000D03*
D35*
X31920000Y-2750000D03*
D36*
X32000000Y-4320000D03*
X35800000Y-4320000D03*
X32000000Y4320000D03*
X35800000Y4320000D03*
D29*
X-22750000Y5325000D03*
X-22750000Y3675000D03*
D18*
X-19250000Y6750000D03*
X-10750000Y6750000D03*
X-19250000Y2250000D03*
X-10750000Y2250000D03*
D16*
X17062500Y3000000D03*
X18937500Y3000000D03*
D29*
X-22750000Y-3675000D03*
X-22750000Y-5325000D03*
D11*
X20675000Y3000000D03*
X22325000Y3000000D03*
D14*
X22325000Y-7750000D03*
X20675000Y-7750000D03*
D21*
X-36000000Y3000000D03*
D37*
X29387500Y-4950000D03*
X29387500Y-4000000D03*
X29387500Y-3050000D03*
X27112500Y-3050000D03*
X27112500Y-4950000D03*
D18*
X-19250000Y-2250000D03*
X-10750000Y-2250000D03*
X-19250000Y-6750000D03*
X-10750000Y-6750000D03*
X-31250000Y6750000D03*
X-22750000Y6750000D03*
X-31250000Y2250000D03*
X-22750000Y2250000D03*
D29*
X-10750000Y5325000D03*
X-10750000Y3675000D03*
D11*
X20675000Y-5000000D03*
X22325000Y-5000000D03*
D15*
X35500000Y-7000000D03*
D11*
X20675000Y1000000D03*
X22325000Y1000000D03*
D24*
X27375000Y4450000D03*
X27375000Y2550000D03*
X29250000Y3500000D03*
D38*
X15000000Y7500000D03*
D39*
X17540000Y7500000D03*
X20080000Y7500000D03*
X22620000Y7500000D03*
X25160000Y7500000D03*
X27700000Y7500000D03*
D40*
X27050000Y-7000000D03*
X28950000Y-7000000D03*
D16*
X17062500Y-1000000D03*
X18937500Y-1000000D03*
D20*
X32700000Y7000000D03*
X30800000Y7000000D03*
D15*
X35500000Y7000000D03*
D14*
X25575000Y4750000D03*
X23925000Y4750000D03*
D12*
X-19250000Y-3725000D03*
X-19250000Y-5275000D03*
D11*
X20675000Y-1000000D03*
X22325000Y-1000000D03*
D21*
X-36000000Y0D03*
D17*
X-2500000Y-7000000D03*
D14*
X30325000Y750000D03*
X28675000Y750000D03*
D12*
X-31250000Y-3725000D03*
X-31250000Y-5275000D03*
M02*
