G04 #@! TF.GenerationSoftware,KiCad,Pcbnew,8.0.4*
G04 #@! TF.CreationDate,2025-02-17T13:02:24+11:00*
G04 #@! TF.ProjectId,LSG,4c53472e-6b69-4636-9164-5f7063625858,rev?*
G04 #@! TF.SameCoordinates,Original*
G04 #@! TF.FileFunction,Copper,L1,Top*
G04 #@! TF.FilePolarity,Positive*
%FSLAX46Y46*%
G04 Gerber Fmt 4.6, Leading zero omitted, Abs format (unit mm)*
G04 Created by KiCad (PCBNEW 8.0.4) date 2025-02-17 13:02:24*
%MOMM*%
%LPD*%
G01*
G04 APERTURE LIST*
G04 Aperture macros list*
%AMRoundRect*
0 Rectangle with rounded corners*
0 $1 Rounding radius*
0 $2 $3 $4 $5 $6 $7 $8 $9 X,Y pos of 4 corners*
0 Add a 4 corners polygon primitive as box body*
4,1,4,$2,$3,$4,$5,$6,$7,$8,$9,$2,$3,0*
0 Add four circle primitives for the rounded corners*
1,1,$1+$1,$2,$3*
1,1,$1+$1,$4,$5*
1,1,$1+$1,$6,$7*
1,1,$1+$1,$8,$9*
0 Add four rect primitives between the rounded corners*
20,1,$1+$1,$2,$3,$4,$5,0*
20,1,$1+$1,$4,$5,$6,$7,0*
20,1,$1+$1,$6,$7,$8,$9,0*
20,1,$1+$1,$8,$9,$2,$3,0*%
%AMFreePoly0*
4,1,14,0.728536,0.728536,0.730000,0.725000,0.730000,-0.725000,0.728536,-0.728536,0.725000,-0.730000,-0.725000,-0.730000,-0.728536,-0.728536,-0.730000,-0.725000,-0.730000,0.125000,-0.728536,0.128536,-0.128536,0.728536,-0.125000,0.730000,0.725000,0.730000,0.728536,0.728536,0.728536,0.728536,$1*%
G04 Aperture macros list end*
G04 #@! TA.AperFunction,SMDPad,CuDef*
%ADD10RoundRect,0.200000X-0.200000X-0.275000X0.200000X-0.275000X0.200000X0.275000X-0.200000X0.275000X0*%
G04 #@! TD*
G04 #@! TA.AperFunction,SMDPad,CuDef*
%ADD11RoundRect,0.225000X-0.250000X0.225000X-0.250000X-0.225000X0.250000X-0.225000X0.250000X0.225000X0*%
G04 #@! TD*
G04 #@! TA.AperFunction,SMDPad,CuDef*
%ADD12RoundRect,0.225000X-0.225000X-0.250000X0.225000X-0.250000X0.225000X0.250000X-0.225000X0.250000X0*%
G04 #@! TD*
G04 #@! TA.AperFunction,SMDPad,CuDef*
%ADD13RoundRect,0.200000X0.200000X0.275000X-0.200000X0.275000X-0.200000X-0.275000X0.200000X-0.275000X0*%
G04 #@! TD*
G04 #@! TA.AperFunction,SMDPad,CuDef*
%ADD14RoundRect,0.243750X-0.243750X-0.456250X0.243750X-0.456250X0.243750X0.456250X-0.243750X0.456250X0*%
G04 #@! TD*
G04 #@! TA.AperFunction,ComponentPad*
%ADD15C,1.000000*%
G04 #@! TD*
G04 #@! TA.AperFunction,SMDPad,CuDef*
%ADD16RoundRect,0.250000X-0.500000X-0.250000X0.500000X-0.250000X0.500000X0.250000X-0.500000X0.250000X0*%
G04 #@! TD*
G04 #@! TA.AperFunction,SMDPad,CuDef*
%ADD17R,0.900000X1.500000*%
G04 #@! TD*
G04 #@! TA.AperFunction,SMDPad,CuDef*
%ADD18RoundRect,0.250000X0.250000X0.475000X-0.250000X0.475000X-0.250000X-0.475000X0.250000X-0.475000X0*%
G04 #@! TD*
G04 #@! TA.AperFunction,ComponentPad*
%ADD19R,1.500000X1.500000*%
G04 #@! TD*
G04 #@! TA.AperFunction,SMDPad,CuDef*
%ADD20RoundRect,0.150000X-0.512500X-0.150000X0.512500X-0.150000X0.512500X0.150000X-0.512500X0.150000X0*%
G04 #@! TD*
G04 #@! TA.AperFunction,SMDPad,CuDef*
%ADD21RoundRect,0.250000X0.475000X-0.250000X0.475000X0.250000X-0.475000X0.250000X-0.475000X-0.250000X0*%
G04 #@! TD*
G04 #@! TA.AperFunction,SMDPad,CuDef*
%ADD22RoundRect,0.150000X-0.587500X-0.150000X0.587500X-0.150000X0.587500X0.150000X-0.587500X0.150000X0*%
G04 #@! TD*
G04 #@! TA.AperFunction,SMDPad,CuDef*
%ADD23R,0.800000X0.400000*%
G04 #@! TD*
G04 #@! TA.AperFunction,SMDPad,CuDef*
%ADD24R,0.400000X0.800000*%
G04 #@! TD*
G04 #@! TA.AperFunction,SMDPad,CuDef*
%ADD25FreePoly0,0.000000*%
G04 #@! TD*
G04 #@! TA.AperFunction,SMDPad,CuDef*
%ADD26R,1.450000X1.450000*%
G04 #@! TD*
G04 #@! TA.AperFunction,SMDPad,CuDef*
%ADD27R,0.700000X0.700000*%
G04 #@! TD*
G04 #@! TA.AperFunction,SMDPad,CuDef*
%ADD28RoundRect,0.200000X-0.275000X0.200000X-0.275000X-0.200000X0.275000X-0.200000X0.275000X0.200000X0*%
G04 #@! TD*
G04 #@! TA.AperFunction,SMDPad,CuDef*
%ADD29RoundRect,0.175000X0.425000X-0.175000X0.425000X0.175000X-0.425000X0.175000X-0.425000X-0.175000X0*%
G04 #@! TD*
G04 #@! TA.AperFunction,SMDPad,CuDef*
%ADD30RoundRect,0.190000X-0.410000X0.190000X-0.410000X-0.190000X0.410000X-0.190000X0.410000X0.190000X0*%
G04 #@! TD*
G04 #@! TA.AperFunction,SMDPad,CuDef*
%ADD31RoundRect,0.200000X-0.400000X0.200000X-0.400000X-0.200000X0.400000X-0.200000X0.400000X0.200000X0*%
G04 #@! TD*
G04 #@! TA.AperFunction,SMDPad,CuDef*
%ADD32RoundRect,0.175000X-0.425000X0.175000X-0.425000X-0.175000X0.425000X-0.175000X0.425000X0.175000X0*%
G04 #@! TD*
G04 #@! TA.AperFunction,SMDPad,CuDef*
%ADD33RoundRect,0.190000X0.410000X-0.190000X0.410000X0.190000X-0.410000X0.190000X-0.410000X-0.190000X0*%
G04 #@! TD*
G04 #@! TA.AperFunction,SMDPad,CuDef*
%ADD34RoundRect,0.200000X0.400000X-0.200000X0.400000X0.200000X-0.400000X0.200000X-0.400000X-0.200000X0*%
G04 #@! TD*
G04 #@! TA.AperFunction,ComponentPad*
%ADD35O,1.700000X1.100000*%
G04 #@! TD*
G04 #@! TA.AperFunction,SMDPad,CuDef*
%ADD36RoundRect,0.150000X0.512500X0.150000X-0.512500X0.150000X-0.512500X-0.150000X0.512500X-0.150000X0*%
G04 #@! TD*
G04 #@! TA.AperFunction,ComponentPad*
%ADD37R,1.700000X1.700000*%
G04 #@! TD*
G04 #@! TA.AperFunction,ComponentPad*
%ADD38O,1.700000X1.700000*%
G04 #@! TD*
G04 #@! TA.AperFunction,SMDPad,CuDef*
%ADD39RoundRect,0.250000X-0.250000X-0.475000X0.250000X-0.475000X0.250000X0.475000X-0.250000X0.475000X0*%
G04 #@! TD*
G04 #@! TA.AperFunction,ViaPad*
%ADD40C,0.600000*%
G04 #@! TD*
G04 #@! TA.AperFunction,ViaPad*
%ADD41C,1.000000*%
G04 #@! TD*
G04 #@! TA.AperFunction,Conductor*
%ADD42C,0.200000*%
G04 #@! TD*
G04 #@! TA.AperFunction,Conductor*
%ADD43C,0.500000*%
G04 #@! TD*
G04 #@! TA.AperFunction,Conductor*
%ADD44C,0.700000*%
G04 #@! TD*
G04 APERTURE END LIST*
D10*
X20675000Y-3000000D03*
X22325000Y-3000000D03*
D11*
X-19250000Y5275000D03*
X-19250000Y3725000D03*
D12*
X-11025000Y0D03*
X-9475000Y0D03*
D13*
X30325000Y-750000D03*
X28675000Y-750000D03*
D14*
X17062500Y-5000000D03*
X18937500Y-5000000D03*
X17062500Y-3000000D03*
X18937500Y-3000000D03*
D15*
X-2500000Y7000000D03*
D16*
X-31250000Y-2250000D03*
X-22750000Y-2250000D03*
X-31250000Y-6750000D03*
X-22750000Y-6750000D03*
D17*
X-7650000Y-2450000D03*
X-4350000Y-2450000D03*
X-4350000Y2450000D03*
X-7650000Y2450000D03*
D18*
X30800000Y-7000000D03*
X32700000Y-7000000D03*
D19*
X-36000000Y-3000000D03*
D20*
X-7637500Y6450000D03*
X-7637500Y5500000D03*
X-7637500Y4550000D03*
X-5362500Y4550000D03*
X-5362500Y5500000D03*
X-5362500Y6450000D03*
D13*
X22325000Y4750000D03*
X20675000Y4750000D03*
D20*
X-7637500Y-4550000D03*
X-7637500Y-5500000D03*
X-7637500Y-6450000D03*
X-5362500Y-6450000D03*
X-5362500Y-5500000D03*
X-5362500Y-4550000D03*
D15*
X18825000Y-7750000D03*
D21*
X25000000Y-7200000D03*
X25000000Y-5300000D03*
D11*
X-2250000Y-975000D03*
X-2250000Y-2525000D03*
X-2250000Y2275000D03*
X-2250000Y725000D03*
D14*
X17062500Y1000000D03*
X18937500Y1000000D03*
D22*
X24562500Y700000D03*
X24562500Y-1200000D03*
X26437500Y-250000D03*
D11*
X-31250000Y5275000D03*
X-31250000Y3725000D03*
D23*
X100000Y1800000D03*
X100000Y1000000D03*
X100000Y200000D03*
X100000Y-600000D03*
X100000Y-1400000D03*
X100000Y-2200000D03*
X100000Y-3000000D03*
X100000Y-3800000D03*
X100000Y-4600000D03*
X100000Y-5400000D03*
X100000Y-6200000D03*
D24*
X1200000Y-7100000D03*
X2000000Y-7100000D03*
X2800000Y-7100000D03*
X3600000Y-7100000D03*
X4400000Y-7100000D03*
X5200000Y-7100000D03*
X6000000Y-7100000D03*
X6800000Y-7100000D03*
X7600000Y-7100000D03*
X8400000Y-7100000D03*
X9200000Y-7100000D03*
X10000000Y-7100000D03*
X10800000Y-7100000D03*
D23*
X11900000Y-6200000D03*
X11900000Y-5400000D03*
X11900000Y-4600000D03*
X11900000Y-3800000D03*
X11900000Y-3000000D03*
X11900000Y-2200000D03*
X11900000Y-1400000D03*
X11900000Y-600000D03*
X11900000Y200000D03*
X11900000Y1000000D03*
X11900000Y1800000D03*
D24*
X10800000Y2700000D03*
X10000000Y2700000D03*
X9200000Y2700000D03*
X8400000Y2700000D03*
X7600000Y2700000D03*
X6800000Y2700000D03*
X6000000Y2700000D03*
X5200000Y2700000D03*
X4400000Y2700000D03*
X3600000Y2700000D03*
X2800000Y2700000D03*
X2000000Y2700000D03*
X1200000Y2700000D03*
D25*
X4025000Y-225000D03*
D26*
X6000000Y-225000D03*
X7975000Y-225000D03*
X7975000Y-2200000D03*
X7975000Y-4175000D03*
X6000000Y-4175000D03*
X4025000Y-4175000D03*
X4025000Y-2200000D03*
X6000000Y-2200000D03*
D27*
X11950000Y2750000D03*
X11950000Y-7150000D03*
X50000Y-7150000D03*
X50000Y2750000D03*
D28*
X-10750000Y-3675000D03*
X-10750000Y-5325000D03*
D29*
X31920000Y-500000D03*
D30*
X31920000Y1520000D03*
D31*
X31920000Y2750000D03*
D32*
X31920000Y500000D03*
D33*
X31920000Y-1520000D03*
D34*
X31920000Y-2750000D03*
D35*
X32000000Y-4320000D03*
X35800000Y-4320000D03*
X32000000Y4320000D03*
X35800000Y4320000D03*
D28*
X-22750000Y5325000D03*
X-22750000Y3675000D03*
D16*
X-19250000Y6750000D03*
X-10750000Y6750000D03*
X-19250000Y2250000D03*
X-10750000Y2250000D03*
D14*
X17062500Y3000000D03*
X18937500Y3000000D03*
D28*
X-22750000Y-3675000D03*
X-22750000Y-5325000D03*
D10*
X20675000Y3000000D03*
X22325000Y3000000D03*
D13*
X22325000Y-7750000D03*
X20675000Y-7750000D03*
D19*
X-36000000Y3000000D03*
D36*
X29387500Y-4950000D03*
X29387500Y-4000000D03*
X29387500Y-3050000D03*
X27112500Y-3050000D03*
X27112500Y-4950000D03*
D16*
X-19250000Y-2250000D03*
X-10750000Y-2250000D03*
X-19250000Y-6750000D03*
X-10750000Y-6750000D03*
X-31250000Y6750000D03*
X-22750000Y6750000D03*
X-31250000Y2250000D03*
X-22750000Y2250000D03*
D28*
X-10750000Y5325000D03*
X-10750000Y3675000D03*
D10*
X20675000Y-5000000D03*
X22325000Y-5000000D03*
X20675000Y1000000D03*
X22325000Y1000000D03*
D22*
X27375000Y4450000D03*
X27375000Y2550000D03*
X29250000Y3500000D03*
D37*
X15000000Y7500000D03*
D38*
X17540000Y7500000D03*
X20080000Y7500000D03*
X22620000Y7500000D03*
X25160000Y7500000D03*
X27700000Y7500000D03*
D39*
X27050000Y-7000000D03*
X28950000Y-7000000D03*
D14*
X17062500Y-1000000D03*
X18937500Y-1000000D03*
D18*
X32700000Y7000000D03*
X30800000Y7000000D03*
D13*
X25575000Y4750000D03*
X23925000Y4750000D03*
D11*
X-19250000Y-3725000D03*
X-19250000Y-5275000D03*
D10*
X20675000Y-1000000D03*
X22325000Y-1000000D03*
D19*
X-36000000Y0D03*
D15*
X-2500000Y-7000000D03*
D13*
X30325000Y750000D03*
X28675000Y750000D03*
D11*
X-31250000Y-3725000D03*
X-31250000Y-5275000D03*
D40*
X-1180000Y-7630000D03*
X-16000000Y-1000000D03*
X29500000Y5500000D03*
X10000000Y-750000D03*
X29500000Y2250000D03*
X-27000000Y-4500000D03*
X10000000Y-4750000D03*
X8000000Y1250000D03*
X4000000Y-2250000D03*
X-5250000Y-500000D03*
X-33500000Y4250000D03*
X5000000Y1250000D03*
X14250000Y-7500000D03*
X5000000Y-5750000D03*
X-15000000Y-4500000D03*
X17000000Y4750000D03*
X4000000Y-5750000D03*
X-11750000Y-1000000D03*
X10000000Y250000D03*
X3000000Y1250000D03*
X10000000Y-1750000D03*
X6000000Y-2250000D03*
X4000000Y-250000D03*
X7000000Y1250000D03*
X2000000Y1250000D03*
X10000000Y-2750000D03*
X-9000000Y-3000000D03*
X6000000Y-250000D03*
X8000000Y-5750000D03*
X4000000Y-4250000D03*
X8000000Y-250000D03*
X-7250000Y-500000D03*
X3000000Y-5750000D03*
X9000000Y1250000D03*
X10000000Y1250000D03*
X8000000Y-2250000D03*
X2000000Y-750000D03*
X2000000Y-2750000D03*
X8000000Y-4250000D03*
X2000000Y-1750000D03*
X-33500000Y-4250000D03*
X9000000Y-5750000D03*
X4000000Y1250000D03*
X26750000Y-1750000D03*
X6000000Y-5750000D03*
X-27000000Y-1000000D03*
X6000000Y-4250000D03*
X6000000Y1250000D03*
X-6500000Y7500000D03*
X-15000000Y4500000D03*
X13750000Y4500000D03*
X-27000000Y4500000D03*
X27000000Y1000000D03*
X2000000Y250000D03*
X-13500000Y7750000D03*
D41*
X25000000Y-3250000D03*
D40*
X23500000Y2500000D03*
X22972947Y124419D03*
X-9500000Y5250000D03*
X-13250000Y750000D03*
X1199997Y750000D03*
X-3521772Y423242D03*
X-9000000Y-7750000D03*
X5500000Y-8200000D03*
D41*
X34250000Y-2750000D03*
X34250000Y2750000D03*
D40*
X23500000Y-3750000D03*
D41*
X34250000Y0D03*
D40*
X-8750000Y6250000D03*
X-9250000Y-1250000D03*
X-6250000Y1250000D03*
X-1000000Y-2000000D03*
X10000000Y-5750000D03*
X13000000Y-3500000D03*
X15750000Y-3500000D03*
X2000000Y-3750000D03*
X2000000Y-5750000D03*
X-22250000Y1250000D03*
X25000000Y3000000D03*
X20000000Y0D03*
X21000000Y6000000D03*
X13000000Y-750000D03*
X19500000Y4750000D03*
X13000000Y-2250000D03*
X-9000000Y-6500000D03*
X9750000Y-8200000D03*
X20250000Y-6500000D03*
X8750000Y-8200000D03*
X6500000Y-8200000D03*
X-5250000Y-7250000D03*
X7000000Y-5750000D03*
X-3875000Y4375000D03*
D42*
X-11750000Y-725000D02*
X-11025000Y0D01*
X-7637500Y5500000D02*
X-5362500Y5500000D01*
X-11750000Y-1000000D02*
X-11750000Y-1250000D01*
X-11750000Y-1000000D02*
X-11750000Y-725000D01*
X2800000Y-7100000D02*
X2800000Y-5950000D01*
X2800000Y-5950000D02*
X3000000Y-5750000D01*
X-7637500Y-5500000D02*
X-5362500Y-5500000D01*
X-11750000Y-1250000D02*
X-10750000Y-2250000D01*
X-22750000Y5325000D02*
X-22209744Y5325000D01*
X-1075000Y200000D02*
X100000Y200000D01*
X-17850000Y750000D02*
X-13250000Y750000D01*
X22550000Y-7750000D02*
X25000000Y-5300000D01*
X22325000Y1000000D02*
X22325000Y675000D01*
X-2250000Y725000D02*
X-3220014Y725000D01*
X22325000Y-7750000D02*
X22550000Y-7750000D01*
X-3220014Y725000D02*
X-3521772Y423242D01*
X22325000Y3000000D02*
X23000000Y3000000D01*
X-19784744Y7750000D02*
X-13500000Y7750000D01*
X-1075000Y200000D02*
X-1600000Y725000D01*
X22325000Y772366D02*
X22972947Y124419D01*
X-22275000Y-3675000D02*
X-17850000Y750000D01*
X-22209744Y5325000D02*
X-19784744Y7750000D01*
X22325000Y1000000D02*
X22325000Y772366D01*
X-10750000Y-3675000D02*
X-11225000Y-3675000D01*
X-4275000Y-4550000D02*
X-2250000Y-2525000D01*
X-2250000Y-2198696D02*
X-1075000Y-1023696D01*
X27112500Y-5087500D02*
X27112500Y-4950000D01*
X-1600000Y725000D02*
X-2250000Y725000D01*
X-22750000Y-3675000D02*
X-22275000Y-3675000D01*
X-2250000Y-2525000D02*
X-2250000Y-2198696D01*
X-9500000Y5250000D02*
X-9575000Y5325000D01*
X-13250000Y-1650000D02*
X-13250000Y750000D01*
X1199997Y750000D02*
X649997Y200000D01*
X-9575000Y5325000D02*
X-10750000Y5325000D01*
X-3050000Y6450000D02*
X-2500000Y7000000D01*
X-5362500Y-4550000D02*
X-4275000Y-4550000D01*
X649997Y200000D02*
X100000Y200000D01*
X-11225000Y-3675000D02*
X-13250000Y-1650000D01*
X23000000Y3000000D02*
X23500000Y2500000D01*
X-1075000Y-1023696D02*
X-1075000Y200000D01*
X-5362500Y6450000D02*
X-3050000Y6450000D01*
X22325000Y-1000000D02*
X22325000Y-523528D01*
X22325000Y-523528D02*
X22972947Y124419D01*
X-10750000Y-6750000D02*
X-10750000Y-5325000D01*
X-19250000Y-6750000D02*
X-19250000Y-5275000D01*
X-10000000Y-6750000D02*
X-10750000Y-6750000D01*
X-10750000Y-6750000D02*
X-19250000Y-6750000D01*
X-9000000Y-7750000D02*
X-10000000Y-6750000D01*
X6000000Y-7100000D02*
X6000000Y-7700000D01*
X6000000Y-7700000D02*
X5500000Y-8200000D01*
X34250000Y-3750000D02*
X34250000Y-2750000D01*
D43*
X29387500Y-4950000D02*
X28725001Y-4950000D01*
D44*
X31920000Y-1520000D02*
X33020000Y-1520000D01*
D43*
X28725001Y-3050000D02*
X29387500Y-3050000D01*
D44*
X33020000Y-1230000D02*
X34250000Y0D01*
D42*
X-7637500Y-2462500D02*
X-7650000Y-2450000D01*
X34250000Y3572082D02*
X30822082Y7000000D01*
X-9250000Y-1250000D02*
X-8050000Y-2450000D01*
D43*
X28250000Y-3525001D02*
X28725001Y-3050000D01*
X28250000Y-4474999D02*
X28250000Y-3525001D01*
D42*
X-8550000Y6450000D02*
X-7637500Y6450000D01*
X-8050000Y-2450000D02*
X-7650000Y-2450000D01*
D44*
X33020000Y-1520000D02*
X34250000Y-2750000D01*
D42*
X34250000Y2750000D02*
X34250000Y3572082D01*
D44*
X31920000Y1520000D02*
X32730000Y1520000D01*
D43*
X29387500Y-3050000D02*
X30049999Y-3050000D01*
D44*
X32730000Y1520000D02*
X34250000Y0D01*
D42*
X22750000Y-3000000D02*
X23500000Y-3750000D01*
X31000000Y-7000000D02*
X34250000Y-3750000D01*
X30800000Y-7000000D02*
X28950000Y-7000000D01*
X-8750000Y6250000D02*
X-8550000Y6450000D01*
X30822082Y7000000D02*
X30800000Y7000000D01*
D43*
X31579999Y-1520000D02*
X31920000Y-1520000D01*
D42*
X-9475000Y-1025000D02*
X-9250000Y-1250000D01*
X28950000Y-7000000D02*
X28950000Y-5387500D01*
D44*
X33020000Y-1520000D02*
X33020000Y-1230000D01*
D43*
X30049999Y-3050000D02*
X31579999Y-1520000D01*
D42*
X30800000Y-7000000D02*
X31000000Y-7000000D01*
D43*
X28725001Y-4950000D02*
X28250000Y-4474999D01*
D42*
X-9475000Y0D02*
X-9475000Y-1025000D01*
X22325000Y-3000000D02*
X22750000Y-3000000D01*
X28950000Y-5387500D02*
X29387500Y-4950000D01*
D44*
X32730000Y1520000D02*
X33020000Y1520000D01*
X33020000Y1520000D02*
X34250000Y2750000D01*
D42*
X-7637500Y-4550000D02*
X-7637500Y-2462500D01*
X-10750000Y2250000D02*
X-10750000Y3675000D01*
X-9750000Y1250000D02*
X-10750000Y2250000D01*
X-400000Y-1400000D02*
X100000Y-1400000D01*
X-19250000Y2250000D02*
X-19250000Y3725000D01*
X-1000000Y-2000000D02*
X-400000Y-1400000D01*
X-19250000Y2250000D02*
X-10750000Y2250000D01*
X-6250000Y1250000D02*
X-9750000Y1250000D01*
X-4400000Y-7300000D02*
X-5500000Y-8400000D01*
X100000Y-2200000D02*
X-300000Y-2200000D01*
X-5500000Y-8400000D02*
X-21100000Y-8400000D01*
X-4400000Y-6300000D02*
X-4400000Y-7300000D01*
X-22750000Y-6750000D02*
X-22750000Y-5325000D01*
X-22750000Y-6750000D02*
X-31250000Y-6750000D01*
X-31250000Y-6750000D02*
X-31250000Y-5275000D01*
X-300000Y-2200000D02*
X-4400000Y-6300000D01*
X-21100000Y-8400000D02*
X-22750000Y-6750000D01*
X10000000Y-7100000D02*
X10000000Y-5750000D01*
X1950000Y-3800000D02*
X2000000Y-3750000D01*
X100000Y-3800000D02*
X1950000Y-3800000D01*
X13000000Y-3500000D02*
X15750000Y-3500000D01*
X-22750000Y2250000D02*
X-31250000Y2250000D01*
X-22750000Y2250000D02*
X-22750000Y3675000D01*
X2000000Y-7100000D02*
X2000000Y-5750000D01*
X-31250000Y2250000D02*
X-31250000Y3725000D01*
X-22750000Y1750000D02*
X-22250000Y1250000D01*
X-22750000Y2250000D02*
X-22750000Y1750000D01*
X18937500Y-1000000D02*
X20675000Y-1000000D01*
X18937500Y-3000000D02*
X20675000Y-3000000D01*
X-7637500Y2462500D02*
X-7650000Y2450000D01*
X-7637500Y4550000D02*
X-7637500Y2462500D01*
X26437500Y-250000D02*
X24134448Y-250000D01*
X21675000Y2000000D02*
X20675000Y3000000D01*
X24134448Y-250000D02*
X23525000Y359448D01*
X23525000Y987648D02*
X22512648Y2000000D01*
X18937500Y3000000D02*
X20675000Y3000000D01*
X23525000Y359448D02*
X23525000Y987648D01*
X22512648Y2000000D02*
X21675000Y2000000D01*
X20000000Y325000D02*
X20675000Y1000000D01*
X20000000Y0D02*
X20000000Y325000D01*
X29250000Y3500000D02*
X25500000Y3500000D01*
X25500000Y3500000D02*
X25000000Y3000000D01*
X18937500Y1000000D02*
X20675000Y1000000D01*
X18937500Y-5000000D02*
X20675000Y-5000000D01*
X21120000Y6000000D02*
X21000000Y6000000D01*
X23925000Y6195000D02*
X22620000Y7500000D01*
X22620000Y7500000D02*
X21120000Y6000000D01*
X23925000Y4750000D02*
X23925000Y6195000D01*
X12350000Y-1400000D02*
X11900000Y-1400000D01*
X13000000Y-750000D02*
X12350000Y-1400000D01*
X19500000Y5000000D02*
X20080000Y5580000D01*
X12950000Y-2200000D02*
X13000000Y-2250000D01*
X19500000Y4750000D02*
X19500000Y5000000D01*
X20080000Y5580000D02*
X20080000Y7500000D01*
X11900000Y-2200000D02*
X12950000Y-2200000D01*
X19500000Y4750000D02*
X20675000Y4750000D01*
X-8950000Y-6450000D02*
X-9000000Y-6500000D01*
X-7637500Y-6450000D02*
X-8950000Y-6450000D01*
X22325000Y4750000D02*
X24562500Y2512500D01*
X24562500Y2512500D02*
X24562500Y700000D01*
X27075000Y4750000D02*
X27375000Y4450000D01*
X25575000Y4750000D02*
X27075000Y4750000D01*
X30575000Y500000D02*
X30325000Y750000D01*
X31920000Y500000D02*
X30575000Y500000D01*
X31920000Y-500000D02*
X30575000Y-500000D01*
X30575000Y-500000D02*
X30325000Y-750000D01*
X18825000Y-7750000D02*
X20675000Y-7750000D01*
X9200000Y-7650000D02*
X9750000Y-8200000D01*
X9200000Y-7100000D02*
X9200000Y-7650000D01*
X20250000Y-6500000D02*
X20825000Y-6500000D01*
X8400000Y-7100000D02*
X8400000Y-7850000D01*
X8400000Y-7850000D02*
X8750000Y-8200000D01*
X20825000Y-6500000D02*
X22325000Y-5000000D01*
X-5250000Y-7250000D02*
X-5250000Y-6562500D01*
X6800000Y-7900000D02*
X6500000Y-8200000D01*
X-5250000Y-6562500D02*
X-5362500Y-6450000D01*
X6800000Y-7100000D02*
X6800000Y-7900000D01*
X-5187500Y4375000D02*
X-5362500Y4550000D01*
X7600000Y-7100000D02*
X7600000Y-6350000D01*
X-3875000Y4375000D02*
X-5187500Y4375000D01*
X7600000Y-6350000D02*
X7000000Y-5750000D01*
D43*
X31680000Y-4000000D02*
X32000000Y-4320000D01*
X29387500Y-4000000D02*
X31680000Y-4000000D01*
G04 #@! TA.AperFunction,Conductor*
G36*
X-656961Y8629815D02*
G01*
X-611206Y8577011D01*
X-600000Y8525500D01*
X-600000Y3400000D01*
X12600000Y3400000D01*
X12600000Y3505815D01*
X16075000Y3505815D01*
X16075000Y3250000D01*
X16812500Y3250000D01*
X16812500Y4200000D01*
X16769197Y4200000D01*
X16769184Y4199999D01*
X16667326Y4189592D01*
X16502290Y4134905D01*
X16502285Y4134903D01*
X16354308Y4043629D01*
X16231370Y3920691D01*
X16140096Y3772714D01*
X16140094Y3772709D01*
X16085407Y3607673D01*
X16075000Y3505815D01*
X12600000Y3505815D01*
X12600000Y8525500D01*
X12619685Y8592539D01*
X12672489Y8638294D01*
X12724000Y8649500D01*
X16775224Y8649500D01*
X16842263Y8629815D01*
X16888018Y8577011D01*
X16897962Y8507853D01*
X16868937Y8444297D01*
X16847728Y8426229D01*
X16848274Y8425508D01*
X16843703Y8422056D01*
X16843699Y8422053D01*
X16843698Y8422052D01*
X16728733Y8317247D01*
X16686127Y8278406D01*
X16557632Y8108253D01*
X16462596Y7917394D01*
X16462596Y7917392D01*
X16462595Y7917389D01*
X16453096Y7884004D01*
X16404244Y7712310D01*
X16384571Y7500000D01*
X16384571Y7499999D01*
X16404244Y7287689D01*
X16462596Y7082607D01*
X16462596Y7082605D01*
X16557632Y6891746D01*
X16686127Y6721593D01*
X16843699Y6577947D01*
X17024980Y6465702D01*
X17024982Y6465701D01*
X17223799Y6388680D01*
X17223802Y6388679D01*
X17433390Y6349500D01*
X17433392Y6349500D01*
X17646608Y6349500D01*
X17646610Y6349500D01*
X17856198Y6388679D01*
X17960850Y6429221D01*
X18055017Y6465701D01*
X18055019Y6465702D01*
X18135413Y6515480D01*
X18236302Y6577948D01*
X18393872Y6721593D01*
X18448522Y6793961D01*
X18522367Y6891746D01*
X18617403Y7082605D01*
X18617403Y7082607D01*
X18617405Y7082611D01*
X18675756Y7287690D01*
X18686529Y7403951D01*
X18712315Y7468888D01*
X18756869Y7500804D01*
X18720497Y7521668D01*
X18688307Y7583681D01*
X18686529Y7596048D01*
X18685555Y7606561D01*
X18675756Y7712310D01*
X18617405Y7917389D01*
X18596506Y7959360D01*
X18522367Y8108253D01*
X18522366Y8108253D01*
X18522366Y8108255D01*
X18393872Y8278407D01*
X18236302Y8422052D01*
X18236296Y8422056D01*
X18231726Y8425508D01*
X18233052Y8427264D01*
X18192862Y8472102D01*
X18181759Y8541084D01*
X18209713Y8605118D01*
X18267849Y8643874D01*
X18304776Y8649500D01*
X19315224Y8649500D01*
X19382263Y8629815D01*
X19428018Y8577011D01*
X19437962Y8507853D01*
X19408937Y8444297D01*
X19387728Y8426229D01*
X19388274Y8425508D01*
X19383703Y8422056D01*
X19383699Y8422053D01*
X19383698Y8422052D01*
X19268733Y8317247D01*
X19226127Y8278406D01*
X19097632Y8108253D01*
X19002596Y7917394D01*
X19002596Y7917392D01*
X19002595Y7917389D01*
X18993096Y7884004D01*
X18944244Y7712310D01*
X18933471Y7596048D01*
X18907685Y7531111D01*
X18863130Y7499194D01*
X18899503Y7478331D01*
X18931693Y7416318D01*
X18933471Y7403951D01*
X18944244Y7287689D01*
X19002596Y7082607D01*
X19002596Y7082605D01*
X19097632Y6891746D01*
X19226127Y6721593D01*
X19383699Y6577947D01*
X19564979Y6465702D01*
X19564987Y6465698D01*
X19600295Y6452020D01*
X19655696Y6409446D01*
X19679286Y6343679D01*
X19679500Y6336394D01*
X19679500Y5797255D01*
X19659815Y5730216D01*
X19643181Y5709574D01*
X19233351Y5299744D01*
X19203504Y5279804D01*
X19204199Y5278601D01*
X19197163Y5274539D01*
X19197159Y5274536D01*
X19071718Y5178282D01*
X18975464Y5052841D01*
X18975463Y5052839D01*
X18914956Y4906762D01*
X18914955Y4906760D01*
X18894318Y4750001D01*
X18894318Y4749998D01*
X18914955Y4593239D01*
X18914956Y4593237D01*
X18975463Y4447160D01*
X19035369Y4369089D01*
X19071718Y4321718D01*
X19115407Y4288194D01*
X19200532Y4222876D01*
X19241734Y4166448D01*
X19245889Y4096702D01*
X19211676Y4035781D01*
X19149959Y4003029D01*
X19125045Y4000500D01*
X18651140Y4000500D01*
X18563679Y3989997D01*
X18504174Y3966531D01*
X18424502Y3935112D01*
X18424500Y3935111D01*
X18305288Y3844711D01*
X18209764Y3718742D01*
X18207516Y3720446D01*
X18167527Y3681447D01*
X18099073Y3667453D01*
X18033920Y3692688D01*
X17992753Y3749142D01*
X17991762Y3752015D01*
X17984904Y3772710D01*
X17984903Y3772714D01*
X17893629Y3920691D01*
X17770691Y4043629D01*
X17622714Y4134903D01*
X17622709Y4134905D01*
X17457673Y4189592D01*
X17355815Y4199999D01*
X17355803Y4200000D01*
X17312500Y4200000D01*
X17312500Y-6200000D01*
X17355803Y-6200000D01*
X17355815Y-6199999D01*
X17457673Y-6189592D01*
X17622709Y-6134905D01*
X17622714Y-6134903D01*
X17770691Y-6043629D01*
X17893629Y-5920691D01*
X17984903Y-5772714D01*
X17984904Y-5772710D01*
X17991762Y-5752015D01*
X18031533Y-5694569D01*
X18096048Y-5667744D01*
X18164824Y-5680057D01*
X18207959Y-5720110D01*
X18209764Y-5718742D01*
X18305288Y-5844711D01*
X18424500Y-5935111D01*
X18424502Y-5935112D01*
X18475279Y-5955136D01*
X18563679Y-5989997D01*
X18651140Y-6000500D01*
X18651146Y-6000500D01*
X19223854Y-6000500D01*
X19223860Y-6000500D01*
X19311321Y-5989997D01*
X19450500Y-5935111D01*
X19569711Y-5844711D01*
X19660111Y-5725500D01*
X19714997Y-5586321D01*
X19724196Y-5509714D01*
X19751734Y-5445501D01*
X19809616Y-5406369D01*
X19847312Y-5400500D01*
X19901533Y-5400500D01*
X19968572Y-5420185D01*
X20014327Y-5472989D01*
X20017715Y-5481166D01*
X20031203Y-5517330D01*
X20031206Y-5517335D01*
X20088027Y-5593237D01*
X20117454Y-5632546D01*
X20190921Y-5687543D01*
X20232791Y-5743476D01*
X20237775Y-5813168D01*
X20204290Y-5874491D01*
X20142966Y-5907975D01*
X20132796Y-5909748D01*
X20093238Y-5914956D01*
X20093237Y-5914956D01*
X19947160Y-5975463D01*
X19821718Y-6071718D01*
X19725463Y-6197160D01*
X19664956Y-6343237D01*
X19664955Y-6343239D01*
X19644318Y-6499998D01*
X19644318Y-6500001D01*
X19664955Y-6656760D01*
X19664956Y-6656762D01*
X19720898Y-6791819D01*
X19725464Y-6802841D01*
X19821718Y-6928282D01*
X19947159Y-7024536D01*
X19947160Y-7024536D01*
X19947161Y-7024537D01*
X19982766Y-7039285D01*
X20037170Y-7083126D01*
X20059235Y-7149420D01*
X20041956Y-7217119D01*
X20034584Y-7228153D01*
X20031205Y-7232666D01*
X20031203Y-7232669D01*
X20017715Y-7268834D01*
X19975843Y-7324767D01*
X19910379Y-7349184D01*
X19901533Y-7349500D01*
X19587290Y-7349500D01*
X19520251Y-7329815D01*
X19482297Y-7291473D01*
X19454817Y-7247739D01*
X19327262Y-7120184D01*
X19174523Y-7024211D01*
X19004254Y-6964631D01*
X19004249Y-6964630D01*
X18825004Y-6944435D01*
X18824996Y-6944435D01*
X18645750Y-6964630D01*
X18645745Y-6964631D01*
X18475476Y-7024211D01*
X18322737Y-7120184D01*
X18195184Y-7247737D01*
X18099211Y-7400476D01*
X18039631Y-7570745D01*
X18039630Y-7570750D01*
X18019435Y-7749996D01*
X18019435Y-7750003D01*
X18039630Y-7929249D01*
X18039631Y-7929254D01*
X18099211Y-8099523D01*
X18181928Y-8231166D01*
X18195184Y-8252262D01*
X18322738Y-8379816D01*
X18327083Y-8382546D01*
X18387496Y-8420506D01*
X18433787Y-8472841D01*
X18444435Y-8541894D01*
X18416060Y-8605743D01*
X18357670Y-8644115D01*
X18321524Y-8649500D01*
X10399367Y-8649500D01*
X10332328Y-8629815D01*
X10286573Y-8577011D01*
X10276629Y-8507853D01*
X10284806Y-8478047D01*
X10295493Y-8452247D01*
X10335044Y-8356762D01*
X10351579Y-8231166D01*
X10355682Y-8200001D01*
X10355682Y-8199998D01*
X10338946Y-8072876D01*
X10335044Y-8043238D01*
X10285333Y-7923227D01*
X10277865Y-7853758D01*
X10309140Y-7791279D01*
X10349731Y-7762376D01*
X10349844Y-7762326D01*
X10419113Y-7753211D01*
X10450081Y-7762293D01*
X10530009Y-7797585D01*
X10555135Y-7800500D01*
X11044864Y-7800499D01*
X11044879Y-7800497D01*
X11044882Y-7800497D01*
X11069987Y-7797586D01*
X11069988Y-7797585D01*
X11069991Y-7797585D01*
X11172765Y-7752206D01*
X11252206Y-7672765D01*
X11297585Y-7569991D01*
X11300500Y-7544865D01*
X11300499Y-6821776D01*
X11320183Y-6754738D01*
X11372987Y-6708983D01*
X11438793Y-6698604D01*
X11455135Y-6700500D01*
X12344864Y-6700499D01*
X12344879Y-6700497D01*
X12344882Y-6700497D01*
X12369987Y-6697586D01*
X12369988Y-6697585D01*
X12369991Y-6697585D01*
X12472765Y-6652206D01*
X12552206Y-6572765D01*
X12597585Y-6469991D01*
X12600500Y-6444865D01*
X12600499Y-5955136D01*
X12600497Y-5955117D01*
X12597586Y-5930012D01*
X12597585Y-5930011D01*
X12597585Y-5930009D01*
X12562294Y-5850083D01*
X12553223Y-5780809D01*
X12562291Y-5749922D01*
X12597585Y-5669991D01*
X12600500Y-5644865D01*
X12600500Y-5505815D01*
X16075000Y-5505815D01*
X16085407Y-5607673D01*
X16140094Y-5772709D01*
X16140096Y-5772714D01*
X16231370Y-5920691D01*
X16354308Y-6043629D01*
X16502285Y-6134903D01*
X16502290Y-6134905D01*
X16667326Y-6189592D01*
X16769184Y-6199999D01*
X16769197Y-6200000D01*
X16812500Y-6200000D01*
X16812500Y-5250000D01*
X16075000Y-5250000D01*
X16075000Y-5505815D01*
X12600500Y-5505815D01*
X12600499Y-5155136D01*
X12600497Y-5155117D01*
X12597586Y-5130012D01*
X12597585Y-5130011D01*
X12597585Y-5130009D01*
X12562294Y-5050083D01*
X12553223Y-4980809D01*
X12562291Y-4949922D01*
X12597585Y-4869991D01*
X12600500Y-4844865D01*
X12600499Y-4355136D01*
X12600474Y-4354919D01*
X12597586Y-4330012D01*
X12597585Y-4330011D01*
X12597585Y-4330009D01*
X12562294Y-4250083D01*
X12553223Y-4180809D01*
X12562293Y-4149918D01*
X12581006Y-4107538D01*
X12626091Y-4054163D01*
X12692877Y-4033636D01*
X12741891Y-4043064D01*
X12843238Y-4085044D01*
X12867393Y-4088224D01*
X12999999Y-4105682D01*
X13000000Y-4105682D01*
X13000001Y-4105682D01*
X13056490Y-4098245D01*
X13156762Y-4085044D01*
X13302841Y-4024536D01*
X13428282Y-3928282D01*
X13428283Y-3928279D01*
X13431093Y-3926124D01*
X13496263Y-3900930D01*
X13506580Y-3900500D01*
X15243420Y-3900500D01*
X15310459Y-3920185D01*
X15318907Y-3926124D01*
X15321716Y-3928279D01*
X15321718Y-3928282D01*
X15447159Y-4024536D01*
X15593238Y-4085044D01*
X15617393Y-4088224D01*
X15749999Y-4105682D01*
X15750000Y-4105682D01*
X15750001Y-4105682D01*
X15806490Y-4098245D01*
X15906762Y-4085044D01*
X15983679Y-4053183D01*
X16053146Y-4045715D01*
X16115625Y-4076990D01*
X16151278Y-4137078D01*
X16148785Y-4206904D01*
X16142476Y-4220426D01*
X16143149Y-4220740D01*
X16140094Y-4227290D01*
X16085407Y-4392326D01*
X16075000Y-4494184D01*
X16075000Y-4750000D01*
X16812500Y-4750000D01*
X16812500Y-1250000D01*
X16075000Y-1250000D01*
X16075000Y-1505815D01*
X16085407Y-1607673D01*
X16140094Y-1772709D01*
X16140096Y-1772714D01*
X16231371Y-1920692D01*
X16233266Y-1923089D01*
X16234054Y-1925042D01*
X16235161Y-1926837D01*
X16234854Y-1927026D01*
X16259407Y-1987884D01*
X16246366Y-2056526D01*
X16233266Y-2076911D01*
X16231371Y-2079307D01*
X16140096Y-2227285D01*
X16140094Y-2227290D01*
X16085407Y-2392326D01*
X16075000Y-2494184D01*
X16075000Y-2799063D01*
X16055315Y-2866102D01*
X16002511Y-2911857D01*
X15933353Y-2921801D01*
X15914712Y-2916688D01*
X15914613Y-2917060D01*
X15906760Y-2914955D01*
X15750001Y-2894318D01*
X15749999Y-2894318D01*
X15593239Y-2914955D01*
X15593237Y-2914956D01*
X15447160Y-2975463D01*
X15435538Y-2984381D01*
X15321718Y-3071718D01*
X15321716Y-3071720D01*
X15318907Y-3073876D01*
X15253737Y-3099070D01*
X15243420Y-3099500D01*
X13506580Y-3099500D01*
X13439541Y-3079815D01*
X13431094Y-3073876D01*
X13395049Y-3046218D01*
X13302841Y-2975464D01*
X13300120Y-2973376D01*
X13258917Y-2916948D01*
X13254762Y-2847202D01*
X13288974Y-2786282D01*
X13300120Y-2776624D01*
X13326796Y-2756155D01*
X13428282Y-2678282D01*
X13524536Y-2552841D01*
X13585044Y-2406762D01*
X13605682Y-2250000D01*
X13604557Y-2241457D01*
X13585044Y-2093239D01*
X13585044Y-2093238D01*
X13524536Y-1947159D01*
X13428282Y-1821718D01*
X13302841Y-1725464D01*
X13289915Y-1720110D01*
X13156762Y-1664956D01*
X13156760Y-1664955D01*
X13000001Y-1644318D01*
X13000000Y-1644318D01*
X12995716Y-1644882D01*
X12984519Y-1646356D01*
X12915484Y-1635588D01*
X12863230Y-1589207D01*
X12844346Y-1521937D01*
X12864828Y-1455137D01*
X12880650Y-1435741D01*
X12924991Y-1391400D01*
X12986312Y-1357917D01*
X12996485Y-1356144D01*
X12999997Y-1355681D01*
X13000000Y-1355682D01*
X13156762Y-1335044D01*
X13302841Y-1274536D01*
X13428282Y-1178282D01*
X13524536Y-1052841D01*
X13585044Y-906762D01*
X13605682Y-750000D01*
X13602494Y-725788D01*
X13586527Y-604500D01*
X13585044Y-593238D01*
X13524536Y-447159D01*
X13428282Y-321718D01*
X13302841Y-225464D01*
X13300516Y-224501D01*
X13156762Y-164956D01*
X13156760Y-164955D01*
X13000001Y-144318D01*
X12999999Y-144318D01*
X12843239Y-164955D01*
X12843234Y-164957D01*
X12768553Y-195891D01*
X12699084Y-203360D01*
X12636605Y-172085D01*
X12600953Y-111995D01*
X12597927Y-67040D01*
X12600500Y-44865D01*
X12600499Y444864D01*
X12597585Y469991D01*
X12586903Y494184D01*
X16075000Y494184D01*
X16085407Y392326D01*
X16140094Y227290D01*
X16140096Y227285D01*
X16231371Y79307D01*
X16233266Y76911D01*
X16234054Y74957D01*
X16235161Y73163D01*
X16234854Y72973D01*
X16259407Y12116D01*
X16246366Y-56526D01*
X16233266Y-76911D01*
X16231371Y-79307D01*
X16140096Y-227285D01*
X16140094Y-227290D01*
X16085407Y-392326D01*
X16075000Y-494184D01*
X16075000Y-750000D01*
X16812500Y-750000D01*
X16812500Y750000D01*
X16075000Y750000D01*
X16075000Y494184D01*
X12586903Y494184D01*
X12562294Y549916D01*
X12553224Y619192D01*
X12562296Y650087D01*
X12597584Y730006D01*
X12597585Y730009D01*
X12600500Y755135D01*
X12600499Y1244864D01*
X12600497Y1244882D01*
X12597586Y1269986D01*
X12597585Y1269987D01*
X12597585Y1269991D01*
X12562294Y1349916D01*
X12553224Y1419192D01*
X12562296Y1450087D01*
X12597584Y1530006D01*
X12597585Y1530009D01*
X12600500Y1555135D01*
X12600499Y2044864D01*
X12600146Y2047905D01*
X12597586Y2069987D01*
X12597585Y2069988D01*
X12597585Y2069991D01*
X12552206Y2172765D01*
X12472765Y2252206D01*
X12369991Y2297585D01*
X12344865Y2300500D01*
X11455136Y2300499D01*
X11455122Y2300497D01*
X11455117Y2300497D01*
X11430012Y2297586D01*
X11430010Y2297585D01*
X11430009Y2297585D01*
X11327235Y2252206D01*
X11247794Y2172765D01*
X11202415Y2069993D01*
X11202415Y2069991D01*
X11199500Y2044868D01*
X11199500Y1555143D01*
X11199502Y1555117D01*
X11202413Y1530013D01*
X11202415Y1530009D01*
X11237705Y1450083D01*
X11246776Y1380808D01*
X11237704Y1349913D01*
X11202415Y1269993D01*
X11202415Y1269991D01*
X11199500Y1244868D01*
X11199500Y755143D01*
X11199502Y755117D01*
X11202413Y730013D01*
X11202415Y730009D01*
X11237705Y650083D01*
X11246776Y580808D01*
X11237704Y549913D01*
X11202415Y469993D01*
X11202415Y469991D01*
X11199500Y444868D01*
X11199500Y-44856D01*
X11199502Y-44882D01*
X11202413Y-69987D01*
X11202414Y-69988D01*
X11202414Y-69990D01*
X11202415Y-69991D01*
X11237704Y-149913D01*
X11246776Y-219191D01*
X11237705Y-250083D01*
X11212442Y-307299D01*
X11202415Y-330009D01*
X11199500Y-355131D01*
X11199500Y-844856D01*
X11199502Y-844882D01*
X11202413Y-869987D01*
X11202414Y-869988D01*
X11202414Y-869990D01*
X11202415Y-869991D01*
X11237704Y-949913D01*
X11246776Y-1019191D01*
X11237705Y-1050083D01*
X11225501Y-1077724D01*
X11202415Y-1130009D01*
X11199500Y-1155131D01*
X11199500Y-1644856D01*
X11199502Y-1644882D01*
X11202413Y-1669987D01*
X11202414Y-1669988D01*
X11202414Y-1669990D01*
X11202415Y-1669991D01*
X11237704Y-1749913D01*
X11246776Y-1819191D01*
X11237705Y-1850083D01*
X11222549Y-1884410D01*
X11202415Y-1930009D01*
X11199500Y-1955131D01*
X11199500Y-2444856D01*
X11199502Y-2444882D01*
X11202413Y-2469987D01*
X11202414Y-2469988D01*
X11202414Y-2469990D01*
X11202415Y-2469991D01*
X11237704Y-2549913D01*
X11246776Y-2619191D01*
X11237705Y-2650083D01*
X11223362Y-2682568D01*
X11202415Y-2730009D01*
X11199500Y-2755131D01*
X11199500Y-3244856D01*
X11199502Y-3244882D01*
X11202413Y-3269987D01*
X11202414Y-3269988D01*
X11202414Y-3269990D01*
X11202415Y-3269991D01*
X11237704Y-3349913D01*
X11246776Y-3419191D01*
X11237705Y-3450083D01*
X11215443Y-3500504D01*
X11202415Y-3530009D01*
X11199500Y-3555131D01*
X11199500Y-4044856D01*
X11199502Y-4044882D01*
X11202413Y-4069987D01*
X11202414Y-4069988D01*
X11202414Y-4069990D01*
X11202415Y-4069991D01*
X11237704Y-4149913D01*
X11246776Y-4219191D01*
X11237705Y-4250083D01*
X11223964Y-4281206D01*
X11202415Y-4330009D01*
X11199500Y-4355131D01*
X11199500Y-4844856D01*
X11199502Y-4844882D01*
X11202413Y-4869987D01*
X11202414Y-4869988D01*
X11202414Y-4869990D01*
X11202415Y-4869991D01*
X11237704Y-4949913D01*
X11246776Y-5019191D01*
X11237705Y-5050083D01*
X11214432Y-5102793D01*
X11202415Y-5130009D01*
X11199500Y-5155131D01*
X11199500Y-5644856D01*
X11199502Y-5644882D01*
X11202413Y-5669987D01*
X11202414Y-5669988D01*
X11202414Y-5669990D01*
X11202415Y-5669991D01*
X11237704Y-5749913D01*
X11246776Y-5819191D01*
X11237705Y-5850083D01*
X11212680Y-5906760D01*
X11202415Y-5930009D01*
X11199500Y-5955131D01*
X11199500Y-6278222D01*
X11179815Y-6345261D01*
X11127011Y-6391016D01*
X11061210Y-6401396D01*
X11044867Y-6399500D01*
X10555143Y-6399500D01*
X10555124Y-6399502D01*
X10538780Y-6401397D01*
X10469920Y-6389564D01*
X10418388Y-6342380D01*
X10400500Y-6278222D01*
X10400500Y-6256580D01*
X10420185Y-6189541D01*
X10426124Y-6181093D01*
X10428279Y-6178283D01*
X10428282Y-6178282D01*
X10524536Y-6052841D01*
X10585044Y-5906762D01*
X10603400Y-5767331D01*
X10605682Y-5750001D01*
X10605682Y-5749998D01*
X10585044Y-5593239D01*
X10585044Y-5593238D01*
X10524536Y-5447159D01*
X10428282Y-5321718D01*
X10302841Y-5225464D01*
X10156762Y-5164956D01*
X10156760Y-5164955D01*
X10000001Y-5144318D01*
X9999999Y-5144318D01*
X9843239Y-5164955D01*
X9843237Y-5164956D01*
X9697160Y-5225463D01*
X9571718Y-5321718D01*
X9475463Y-5447160D01*
X9414956Y-5593237D01*
X9414955Y-5593239D01*
X9394318Y-5749998D01*
X9394318Y-5750001D01*
X9414955Y-5906760D01*
X9414956Y-5906762D01*
X9460053Y-6015637D01*
X9475464Y-6052841D01*
X9571718Y-6178282D01*
X9571720Y-6178283D01*
X9573876Y-6181093D01*
X9599070Y-6246263D01*
X9599500Y-6256580D01*
X9599500Y-6278222D01*
X9579815Y-6345261D01*
X9527011Y-6391016D01*
X9461210Y-6401396D01*
X9444867Y-6399500D01*
X8955143Y-6399500D01*
X8955117Y-6399502D01*
X8930013Y-6402413D01*
X8909286Y-6411564D01*
X8850083Y-6437705D01*
X8780808Y-6446776D01*
X8749913Y-6437704D01*
X8669992Y-6402415D01*
X8644865Y-6399500D01*
X8155143Y-6399500D01*
X8155122Y-6399502D01*
X8137362Y-6401561D01*
X8068501Y-6389727D01*
X8016970Y-6342543D01*
X8003738Y-6304818D01*
X8002603Y-6305123D01*
X7999136Y-6292185D01*
X7989307Y-6255500D01*
X7986832Y-6246263D01*
X7973208Y-6195413D01*
X7957543Y-6168281D01*
X7920480Y-6104087D01*
X7641402Y-5825009D01*
X7607917Y-5763686D01*
X7606144Y-5753513D01*
X7605681Y-5749998D01*
X7585044Y-5593238D01*
X7524536Y-5447159D01*
X7428282Y-5321718D01*
X7302841Y-5225464D01*
X7156762Y-5164956D01*
X7156760Y-5164955D01*
X7000001Y-5144318D01*
X6999999Y-5144318D01*
X6843239Y-5164955D01*
X6843237Y-5164956D01*
X6697160Y-5225463D01*
X6571718Y-5321718D01*
X6475463Y-5447160D01*
X6414956Y-5593237D01*
X6414955Y-5593239D01*
X6394318Y-5749998D01*
X6394318Y-5750001D01*
X6414955Y-5906760D01*
X6414956Y-5906762D01*
X6460053Y-6015637D01*
X6475464Y-6052841D01*
X6571718Y-6178282D01*
X6577913Y-6183035D01*
X6619116Y-6239461D01*
X6623271Y-6309207D01*
X6589060Y-6370128D01*
X6534988Y-6401060D01*
X6530013Y-6402413D01*
X6509286Y-6411564D01*
X6450083Y-6437705D01*
X6380808Y-6446776D01*
X6349913Y-6437704D01*
X6269992Y-6402415D01*
X6244865Y-6399500D01*
X5755143Y-6399500D01*
X5755117Y-6399502D01*
X5730013Y-6402413D01*
X5709286Y-6411564D01*
X5650083Y-6437705D01*
X5580808Y-6446776D01*
X5549913Y-6437704D01*
X5469992Y-6402415D01*
X5444865Y-6399500D01*
X4955143Y-6399500D01*
X4955117Y-6399502D01*
X4930013Y-6402413D01*
X4909286Y-6411564D01*
X4850083Y-6437705D01*
X4780808Y-6446776D01*
X4749913Y-6437704D01*
X4669992Y-6402415D01*
X4644865Y-6399500D01*
X4155143Y-6399500D01*
X4155117Y-6399502D01*
X4130013Y-6402413D01*
X4109286Y-6411564D01*
X4050083Y-6437705D01*
X3980808Y-6446776D01*
X3949913Y-6437704D01*
X3869992Y-6402415D01*
X3844865Y-6399500D01*
X3355143Y-6399500D01*
X3355117Y-6399502D01*
X3330012Y-6402413D01*
X3330008Y-6402415D01*
X3227235Y-6447793D01*
X3147794Y-6527234D01*
X3102415Y-6630006D01*
X3102415Y-6630008D01*
X3099500Y-6655131D01*
X3099500Y-7544856D01*
X3099502Y-7544882D01*
X3102413Y-7569987D01*
X3102415Y-7569991D01*
X3147793Y-7672764D01*
X3147794Y-7672765D01*
X3227235Y-7752206D01*
X3330009Y-7797585D01*
X3355135Y-7800500D01*
X3844864Y-7800499D01*
X3844879Y-7800497D01*
X3844882Y-7800497D01*
X3869986Y-7797586D01*
X3869987Y-7797585D01*
X3869991Y-7797585D01*
X3949917Y-7762294D01*
X4019190Y-7753223D01*
X4050081Y-7762293D01*
X4130009Y-7797585D01*
X4155135Y-7800500D01*
X4644864Y-7800499D01*
X4644879Y-7800497D01*
X4644882Y-7800497D01*
X4669986Y-7797586D01*
X4669987Y-7797585D01*
X4669991Y-7797585D01*
X4749917Y-7762294D01*
X4819190Y-7753223D01*
X4850083Y-7762294D01*
X4877808Y-7774536D01*
X4892459Y-7781005D01*
X4945836Y-7826091D01*
X4966363Y-7892877D01*
X4956935Y-7941891D01*
X4914955Y-8043240D01*
X4894318Y-8199998D01*
X4894318Y-8200001D01*
X4914955Y-8356760D01*
X4914956Y-8356762D01*
X4965194Y-8478047D01*
X4972663Y-8547517D01*
X4941388Y-8609996D01*
X4881299Y-8645648D01*
X4850633Y-8649500D01*
X-4883745Y-8649500D01*
X-4950784Y-8629815D01*
X-4996539Y-8577011D01*
X-5006483Y-8507853D01*
X-4977458Y-8444297D01*
X-4971426Y-8437819D01*
X-4079522Y-7545915D01*
X-4079520Y-7545913D01*
X-4051862Y-7498009D01*
X-4026793Y-7454589D01*
X-3999500Y-7352726D01*
X-3999500Y-6999996D01*
X-3305565Y-6999996D01*
X-3305565Y-7000003D01*
X-3285369Y-7179249D01*
X-3285368Y-7179255D01*
X-3225789Y-7349522D01*
X-3129816Y-7502262D01*
X-3002262Y-7629816D01*
X-2849522Y-7725789D01*
X-2679255Y-7785368D01*
X-2679252Y-7785368D01*
X-2679249Y-7785369D01*
X-2500004Y-7805565D01*
X-2500000Y-7805565D01*
X-2499996Y-7805565D01*
X-2320750Y-7785369D01*
X-2320745Y-7785368D01*
X-2228846Y-7753211D01*
X-2150478Y-7725789D01*
X-2133754Y-7715281D01*
X-2066089Y-7672764D01*
X-1997738Y-7629816D01*
X-1870184Y-7502262D01*
X-1851812Y-7473023D01*
X-1774211Y-7349523D01*
X-1714631Y-7179254D01*
X-1714630Y-7179249D01*
X-1694435Y-7000003D01*
X-1694435Y-6999996D01*
X-1714630Y-6820750D01*
X-1714631Y-6820745D01*
X-1772582Y-6655131D01*
X699500Y-6655131D01*
X699500Y-7544856D01*
X699502Y-7544882D01*
X702413Y-7569987D01*
X702415Y-7569991D01*
X747793Y-7672764D01*
X747794Y-7672765D01*
X827235Y-7752206D01*
X930009Y-7797585D01*
X955135Y-7800500D01*
X1444864Y-7800499D01*
X1444879Y-7800497D01*
X1444882Y-7800497D01*
X1469986Y-7797586D01*
X1469987Y-7797585D01*
X1469991Y-7797585D01*
X1549917Y-7762294D01*
X1619190Y-7753223D01*
X1650081Y-7762293D01*
X1730009Y-7797585D01*
X1755135Y-7800500D01*
X2244864Y-7800499D01*
X2244879Y-7800497D01*
X2244882Y-7800497D01*
X2269987Y-7797586D01*
X2269988Y-7797585D01*
X2269991Y-7797585D01*
X2372765Y-7752206D01*
X2452206Y-7672765D01*
X2497585Y-7569991D01*
X2500500Y-7544865D01*
X2500499Y-6655136D01*
X2500497Y-6655117D01*
X2497586Y-6630012D01*
X2497585Y-6630010D01*
X2497585Y-6630009D01*
X2452206Y-6527235D01*
X2436819Y-6511848D01*
X2403334Y-6450525D01*
X2400500Y-6424167D01*
X2400500Y-6256580D01*
X2420185Y-6189541D01*
X2426124Y-6181093D01*
X2428279Y-6178283D01*
X2428282Y-6178282D01*
X2524536Y-6052841D01*
X2585044Y-5906762D01*
X2603400Y-5767331D01*
X2605682Y-5750001D01*
X2605682Y-5749998D01*
X2585044Y-5593239D01*
X2585044Y-5593238D01*
X2524536Y-5447159D01*
X2428282Y-5321718D01*
X2302841Y-5225464D01*
X2156762Y-5164956D01*
X2156760Y-5164955D01*
X2000001Y-5144318D01*
X1999999Y-5144318D01*
X1843239Y-5164955D01*
X1843237Y-5164956D01*
X1697160Y-5225463D01*
X1571718Y-5321718D01*
X1475463Y-5447160D01*
X1414956Y-5593237D01*
X1414955Y-5593239D01*
X1394318Y-5749998D01*
X1394318Y-5750001D01*
X1414955Y-5906760D01*
X1414956Y-5906762D01*
X1460053Y-6015637D01*
X1475464Y-6052841D01*
X1571718Y-6178282D01*
X1571720Y-6178283D01*
X1573876Y-6181093D01*
X1599070Y-6246263D01*
X1599500Y-6256580D01*
X1599500Y-6278222D01*
X1579815Y-6345261D01*
X1527011Y-6391016D01*
X1461210Y-6401396D01*
X1444867Y-6399500D01*
X955143Y-6399500D01*
X955117Y-6399502D01*
X930012Y-6402413D01*
X930008Y-6402415D01*
X827235Y-6447793D01*
X747794Y-6527234D01*
X702415Y-6630006D01*
X702415Y-6630008D01*
X699500Y-6655131D01*
X-1772582Y-6655131D01*
X-1774211Y-6650476D01*
X-1870184Y-6497737D01*
X-1997737Y-6370184D01*
X-2150476Y-6274211D01*
X-2320745Y-6214631D01*
X-2320750Y-6214630D01*
X-2499996Y-6194435D01*
X-2500004Y-6194435D01*
X-2679249Y-6214630D01*
X-2679254Y-6214631D01*
X-2849523Y-6274211D01*
X-2969344Y-6349500D01*
X-3002262Y-6370184D01*
X-3129816Y-6497738D01*
X-3148350Y-6527235D01*
X-3212929Y-6630012D01*
X-3225789Y-6650478D01*
X-3258075Y-6742747D01*
X-3285368Y-6820745D01*
X-3285369Y-6820750D01*
X-3305565Y-6999996D01*
X-3999500Y-6999996D01*
X-3999500Y-6517254D01*
X-3979815Y-6450215D01*
X-3963181Y-6429573D01*
X-788685Y-3255077D01*
X-727362Y-3221592D01*
X-657670Y-3226576D01*
X-601737Y-3268448D01*
X-587573Y-3292665D01*
X-562294Y-3349916D01*
X-553223Y-3419190D01*
X-562293Y-3450081D01*
X-597585Y-3530009D01*
X-600500Y-3555135D01*
X-600499Y-4044864D01*
X-600497Y-4044879D01*
X-600497Y-4044882D01*
X-597586Y-4069986D01*
X-597585Y-4069987D01*
X-597585Y-4069991D01*
X-562294Y-4149917D01*
X-553223Y-4219190D01*
X-562293Y-4250081D01*
X-597585Y-4330009D01*
X-600500Y-4355135D01*
X-600499Y-4844864D01*
X-600497Y-4844879D01*
X-600497Y-4844882D01*
X-597586Y-4869986D01*
X-597585Y-4869987D01*
X-597585Y-4869991D01*
X-562294Y-4949917D01*
X-553223Y-5019190D01*
X-562293Y-5050081D01*
X-597585Y-5130009D01*
X-600500Y-5155135D01*
X-600499Y-5644864D01*
X-600497Y-5644879D01*
X-600497Y-5644882D01*
X-597586Y-5669987D01*
X-597585Y-5669988D01*
X-597585Y-5669991D01*
X-552206Y-5772765D01*
X-472765Y-5852206D01*
X-369991Y-5897585D01*
X-344865Y-5900500D01*
X544864Y-5900499D01*
X544879Y-5900497D01*
X544882Y-5900497D01*
X569987Y-5897586D01*
X569988Y-5897585D01*
X569991Y-5897585D01*
X672765Y-5852206D01*
X752206Y-5772765D01*
X797585Y-5669991D01*
X800500Y-5644865D01*
X800499Y-5155136D01*
X800497Y-5155117D01*
X797586Y-5130012D01*
X797585Y-5130011D01*
X797585Y-5130009D01*
X762294Y-5050083D01*
X753223Y-4980809D01*
X762291Y-4949922D01*
X797585Y-4869991D01*
X800500Y-4844865D01*
X800499Y-4355136D01*
X798603Y-4338786D01*
X810433Y-4269925D01*
X857613Y-4218391D01*
X921777Y-4200500D01*
X1558581Y-4200500D01*
X1625620Y-4220185D01*
X1634067Y-4226124D01*
X1697157Y-4274535D01*
X1697158Y-4274535D01*
X1697159Y-4274536D01*
X1843238Y-4335044D01*
X1921619Y-4345363D01*
X1999999Y-4355682D01*
X2000000Y-4355682D01*
X2000001Y-4355682D01*
X2075593Y-4345730D01*
X2156762Y-4335044D01*
X2302841Y-4274536D01*
X2428282Y-4178282D01*
X2524536Y-4052841D01*
X2585044Y-3906762D01*
X2605682Y-3750000D01*
X2604016Y-3737349D01*
X2590219Y-3632544D01*
X2585044Y-3593238D01*
X2524536Y-3447159D01*
X2428282Y-3321718D01*
X2302841Y-3225464D01*
X2293493Y-3221592D01*
X2156762Y-3164956D01*
X2156760Y-3164955D01*
X2000001Y-3144318D01*
X1999999Y-3144318D01*
X1843239Y-3164955D01*
X1843237Y-3164956D01*
X1697160Y-3225463D01*
X1584619Y-3311819D01*
X1571718Y-3321718D01*
X1549258Y-3350988D01*
X1492832Y-3392189D01*
X1450884Y-3399500D01*
X921778Y-3399500D01*
X854739Y-3379815D01*
X808984Y-3327011D01*
X798604Y-3261210D01*
X800499Y-3244871D01*
X800500Y-3244865D01*
X800499Y-2755136D01*
X799904Y-2750003D01*
X797586Y-2730012D01*
X797585Y-2730011D01*
X797585Y-2730009D01*
X762294Y-2650083D01*
X753223Y-2580809D01*
X762291Y-2549922D01*
X797585Y-2469991D01*
X800500Y-2444865D01*
X800499Y-1955136D01*
X799574Y-1947159D01*
X797586Y-1930012D01*
X797585Y-1930011D01*
X797585Y-1930009D01*
X762294Y-1850083D01*
X753223Y-1780809D01*
X762291Y-1749922D01*
X797585Y-1669991D01*
X800500Y-1644865D01*
X800499Y-1155136D01*
X800497Y-1155117D01*
X797586Y-1130012D01*
X797585Y-1130011D01*
X797585Y-1130009D01*
X762294Y-1050083D01*
X753223Y-980809D01*
X762291Y-949922D01*
X797585Y-869991D01*
X800500Y-844865D01*
X800499Y-355136D01*
X798447Y-337441D01*
X797586Y-330012D01*
X797585Y-330008D01*
X788795Y-310101D01*
X779723Y-240823D01*
X809546Y-177638D01*
X840226Y-152629D01*
X895910Y-120480D01*
X1124987Y108597D01*
X1186310Y142082D01*
X1196482Y143855D01*
X1312559Y159137D01*
X1356759Y164956D01*
X1494835Y222149D01*
X1502836Y225463D01*
X1502838Y225464D01*
X1628279Y321718D01*
X1724533Y447159D01*
X1785041Y593238D01*
X1805679Y750000D01*
X1805335Y752610D01*
X1795171Y829815D01*
X1785041Y906762D01*
X1724533Y1052841D01*
X1628279Y1178282D01*
X1502838Y1274536D01*
X1356759Y1335044D01*
X1243810Y1349914D01*
X1199998Y1355682D01*
X1199996Y1355682D01*
X1121616Y1345363D01*
X1043235Y1335044D01*
X897156Y1274536D01*
X771715Y1178282D01*
X675461Y1052841D01*
X675460Y1052839D01*
X614953Y906762D01*
X614952Y906760D01*
X601992Y808314D01*
X573725Y744417D01*
X515401Y705946D01*
X479059Y700499D01*
X-344864Y700499D01*
X-344879Y700497D01*
X-344882Y700497D01*
X-369987Y697586D01*
X-369988Y697585D01*
X-369991Y697585D01*
X-472765Y652206D01*
X-480653Y644318D01*
X-488152Y636819D01*
X-549475Y603334D01*
X-575833Y600500D01*
X-857745Y600500D01*
X-924784Y620185D01*
X-945426Y636819D01*
X-1354084Y1045477D01*
X-1354087Y1045480D01*
X-1445412Y1098207D01*
X-1452916Y1101315D01*
X-1451697Y1104257D01*
X-1498573Y1132837D01*
X-1522165Y1170746D01*
X-1537635Y1209975D01*
X-1624921Y1325078D01*
X-1740023Y1412363D01*
X-1740024Y1412363D01*
X-1740025Y1412364D01*
X-1874410Y1465359D01*
X-1958856Y1475500D01*
X-2541144Y1475500D01*
X-2625590Y1465359D01*
X-2759975Y1412364D01*
X-2809246Y1375000D01*
X-2875078Y1325078D01*
X-2962364Y1209975D01*
X-2964716Y1204011D01*
X-3007622Y1148867D01*
X-3073529Y1125673D01*
X-3080071Y1125500D01*
X-3167287Y1125500D01*
X-3272741Y1125500D01*
X-3374602Y1098207D01*
X-3465829Y1045536D01*
X-3514059Y1032613D01*
X-3513714Y1029985D01*
X-3573472Y1022117D01*
X-3678534Y1008286D01*
X-3824613Y947778D01*
X-3950054Y851524D01*
X-4046308Y726083D01*
X-4106816Y580004D01*
X-4116035Y509976D01*
X-4127454Y423243D01*
X-4127454Y423240D01*
X-4120109Y367452D01*
X-4106816Y266480D01*
X-4046308Y120401D01*
X-3950054Y-5040D01*
X-3824613Y-101294D01*
X-3678534Y-161802D01*
X-3600426Y-172085D01*
X-3521773Y-182440D01*
X-3521772Y-182440D01*
X-3521771Y-182440D01*
X-3388975Y-164957D01*
X-3365010Y-161802D01*
X-3218931Y-101294D01*
X-3093490Y-5040D01*
X-3093488Y-5038D01*
X-3093487Y-5037D01*
X-3025165Y84001D01*
X-2968737Y125204D01*
X-2898991Y129358D01*
X-2851865Y107318D01*
X-2759976Y37636D01*
X-2715180Y19970D01*
X-2625590Y-15359D01*
X-2541144Y-25500D01*
X-2541138Y-25500D01*
X-1958862Y-25500D01*
X-1958856Y-25500D01*
X-1874410Y-15359D01*
X-1835455Y3D01*
X-1740025Y37635D01*
X-1688234Y76911D01*
X-1677742Y84866D01*
X-1612432Y109689D01*
X-1544068Y95261D01*
X-1515137Y73743D01*
X-1511819Y70425D01*
X-1478334Y9102D01*
X-1475500Y-17256D01*
X-1475500Y-806441D01*
X-1495185Y-873480D01*
X-1511819Y-894122D01*
X-2355878Y-1738181D01*
X-2417201Y-1771666D01*
X-2443559Y-1774500D01*
X-2541144Y-1774500D01*
X-2582242Y-1779435D01*
X-2625588Y-1784640D01*
X-2759976Y-1837636D01*
X-2875078Y-1924921D01*
X-2962363Y-2040023D01*
X-2962363Y-2040024D01*
X-2962364Y-2040025D01*
X-3015359Y-2174410D01*
X-3025500Y-2258856D01*
X-3025500Y-2258862D01*
X-3025500Y-2682745D01*
X-3045185Y-2749784D01*
X-3061819Y-2770426D01*
X-3387819Y-3096426D01*
X-3449142Y-3129911D01*
X-3518834Y-3124927D01*
X-3574767Y-3083055D01*
X-3599184Y-3017591D01*
X-3599500Y-3008745D01*
X-3599500Y-1655143D01*
X-3599502Y-1655117D01*
X-3602413Y-1630012D01*
X-3602415Y-1630008D01*
X-3647793Y-1527235D01*
X-3727234Y-1447794D01*
X-3830007Y-1402415D01*
X-3855134Y-1399500D01*
X-4844856Y-1399500D01*
X-4844882Y-1399502D01*
X-4869987Y-1402413D01*
X-4869991Y-1402415D01*
X-4972764Y-1447793D01*
X-4972765Y-1447794D01*
X-5052206Y-1527235D01*
X-5097585Y-1630009D01*
X-5100500Y-1655135D01*
X-5100499Y-3244864D01*
X-5100498Y-3244871D01*
X-5100497Y-3244882D01*
X-5097586Y-3269987D01*
X-5097585Y-3269988D01*
X-5097585Y-3269991D01*
X-5052206Y-3372765D01*
X-4972765Y-3452206D01*
X-4869991Y-3497585D01*
X-4844865Y-3500500D01*
X-4091253Y-3500499D01*
X-4024215Y-3520183D01*
X-3978460Y-3572987D01*
X-3968516Y-3642146D01*
X-3997541Y-3705702D01*
X-4003573Y-3712180D01*
X-4361137Y-4069744D01*
X-4422460Y-4103229D01*
X-4492152Y-4098245D01*
X-4522451Y-4081834D01*
X-4637118Y-3997207D01*
X-4637119Y-3997206D01*
X-4765299Y-3952353D01*
X-4795730Y-3949500D01*
X-4795734Y-3949500D01*
X-5929266Y-3949500D01*
X-5929270Y-3949500D01*
X-5959699Y-3952353D01*
X-5959701Y-3952353D01*
X-6087880Y-3997206D01*
X-6087882Y-3997207D01*
X-6197150Y-4077850D01*
X-6277793Y-4187118D01*
X-6284716Y-4206904D01*
X-6322646Y-4315298D01*
X-6322646Y-4315300D01*
X-6325500Y-4345730D01*
X-6325500Y-4754269D01*
X-6322646Y-4784699D01*
X-6322646Y-4784701D01*
X-6301596Y-4844856D01*
X-6277793Y-4912882D01*
X-6197150Y-5022150D01*
X-6087882Y-5102793D01*
X-6010106Y-5130008D01*
X-5959700Y-5147646D01*
X-5929270Y-5150500D01*
X-5929266Y-5150500D01*
X-4795730Y-5150500D01*
X-4765300Y-5147646D01*
X-4765298Y-5147646D01*
X-4669163Y-5114006D01*
X-4637118Y-5102793D01*
X-4527850Y-5022150D01*
X-4512141Y-5000865D01*
X-4456494Y-4958615D01*
X-4412372Y-4950500D01*
X-4222275Y-4950500D01*
X-4222273Y-4950500D01*
X-4120412Y-4923207D01*
X-4029087Y-4870480D01*
X-2470426Y-3311819D01*
X-2409103Y-3278334D01*
X-2382745Y-3275500D01*
X-2241255Y-3275500D01*
X-2174216Y-3295185D01*
X-2128461Y-3347989D01*
X-2118517Y-3417147D01*
X-2147542Y-3480703D01*
X-2153574Y-3487181D01*
X-4527562Y-5861169D01*
X-4588885Y-5894654D01*
X-4656197Y-5890530D01*
X-4765302Y-5852353D01*
X-4765300Y-5852353D01*
X-4795730Y-5849500D01*
X-4795734Y-5849500D01*
X-5929266Y-5849500D01*
X-5929270Y-5849500D01*
X-5959699Y-5852353D01*
X-5959701Y-5852353D01*
X-6087880Y-5897206D01*
X-6087882Y-5897207D01*
X-6197150Y-5977850D01*
X-6277793Y-6087118D01*
X-6283731Y-6104087D01*
X-6322646Y-6215298D01*
X-6322646Y-6215300D01*
X-6325500Y-6245730D01*
X-6325500Y-6654269D01*
X-6322646Y-6684699D01*
X-6322646Y-6684701D01*
X-6313738Y-6710157D01*
X-6277793Y-6812882D01*
X-6197150Y-6922150D01*
X-6087882Y-7002793D01*
X-6009827Y-7030105D01*
X-5959706Y-7047644D01*
X-5959704Y-7047644D01*
X-5959699Y-7047646D01*
X-5958808Y-7047729D01*
X-5958187Y-7047976D01*
X-5952330Y-7049256D01*
X-5952541Y-7050225D01*
X-5893901Y-7073579D01*
X-5853269Y-7130420D01*
X-5847437Y-7187373D01*
X-5855682Y-7249999D01*
X-5855682Y-7250001D01*
X-5852741Y-7272339D01*
X-5835044Y-7406762D01*
X-5774536Y-7552841D01*
X-5678282Y-7678282D01*
X-5601692Y-7737050D01*
X-5560491Y-7793476D01*
X-5556336Y-7863222D01*
X-5589499Y-7923106D01*
X-5629574Y-7963181D01*
X-5690897Y-7996666D01*
X-5717255Y-7999500D01*
X-8285771Y-7999500D01*
X-8352810Y-7979815D01*
X-8398565Y-7927011D01*
X-8408710Y-7859315D01*
X-8394318Y-7750000D01*
X-8394318Y-7749998D01*
X-8414955Y-7593239D01*
X-8414956Y-7593237D01*
X-8475463Y-7447160D01*
X-8571718Y-7321718D01*
X-8699880Y-7223376D01*
X-8741082Y-7166947D01*
X-8745237Y-7097201D01*
X-8711024Y-7036281D01*
X-8699880Y-7026625D01*
X-8620734Y-6965893D01*
X-8592863Y-6944507D01*
X-8527696Y-6919313D01*
X-8459251Y-6933351D01*
X-8443757Y-6943104D01*
X-8362882Y-7002793D01*
X-8281693Y-7031202D01*
X-8234700Y-7047646D01*
X-8204270Y-7050500D01*
X-8204266Y-7050500D01*
X-7070730Y-7050500D01*
X-7040300Y-7047646D01*
X-7040298Y-7047646D01*
X-6942903Y-7013565D01*
X-6912118Y-7002793D01*
X-6802850Y-6922150D01*
X-6722207Y-6812882D01*
X-6722206Y-6812880D01*
X-6677353Y-6684701D01*
X-6677353Y-6684699D01*
X-6674500Y-6654269D01*
X-6674500Y-6245730D01*
X-6677353Y-6215300D01*
X-6677353Y-6215298D01*
X-6722206Y-6087119D01*
X-6722207Y-6087117D01*
X-6802850Y-5977850D01*
X-6912117Y-5897207D01*
X-6912119Y-5897206D01*
X-7040299Y-5852353D01*
X-7070730Y-5849500D01*
X-7070734Y-5849500D01*
X-8204266Y-5849500D01*
X-8204270Y-5849500D01*
X-8234699Y-5852353D01*
X-8234701Y-5852353D01*
X-8362880Y-5897206D01*
X-8362882Y-5897207D01*
X-8472150Y-5977850D01*
X-8477354Y-5984902D01*
X-8532999Y-6027153D01*
X-8602655Y-6032613D01*
X-8652611Y-6009646D01*
X-8697157Y-5975464D01*
X-8843237Y-5914956D01*
X-8843239Y-5914955D01*
X-8999999Y-5894318D01*
X-9000001Y-5894318D01*
X-9156760Y-5914955D01*
X-9156762Y-5914956D01*
X-9289384Y-5969890D01*
X-9302841Y-5975464D01*
X-9428282Y-6071718D01*
X-9524536Y-6197159D01*
X-9536825Y-6226827D01*
X-9580663Y-6281229D01*
X-9646957Y-6303295D01*
X-9714657Y-6286017D01*
X-9762268Y-6234881D01*
X-9764933Y-6228912D01*
X-9765638Y-6227658D01*
X-9857077Y-6107077D01*
X-9977657Y-6015638D01*
X-10011375Y-6002342D01*
X-10066518Y-5959435D01*
X-10089710Y-5893527D01*
X-10073589Y-5825543D01*
X-10065150Y-5812677D01*
X-10041294Y-5780809D01*
X-10031204Y-5767331D01*
X-10031203Y-5767329D01*
X-10031202Y-5767328D01*
X-9980910Y-5632486D01*
X-9980909Y-5632485D01*
X-9980909Y-5632483D01*
X-9974500Y-5572873D01*
X-9974500Y-5382483D01*
X-9974500Y-5077129D01*
X-9974501Y-5077123D01*
X-9980908Y-5017516D01*
X-10031202Y-4882671D01*
X-10031206Y-4882664D01*
X-10117452Y-4767455D01*
X-10117455Y-4767452D01*
X-10232664Y-4681206D01*
X-10232671Y-4681202D01*
X-10367513Y-4630910D01*
X-10367514Y-4630909D01*
X-10367517Y-4630909D01*
X-10427127Y-4624500D01*
X-10427135Y-4624500D01*
X-10427136Y-4624500D01*
X-11072870Y-4624500D01*
X-11072876Y-4624501D01*
X-11132483Y-4630908D01*
X-11267328Y-4681202D01*
X-11267335Y-4681206D01*
X-11382544Y-4767452D01*
X-11382547Y-4767455D01*
X-11468793Y-4882664D01*
X-11468795Y-4882668D01*
X-11468796Y-4882669D01*
X-11519091Y-5017517D01*
X-11525500Y-5077127D01*
X-11525499Y-5572872D01*
X-11519091Y-5632483D01*
X-11468796Y-5767331D01*
X-11434849Y-5812677D01*
X-11410432Y-5878140D01*
X-11425283Y-5946413D01*
X-11474687Y-5995819D01*
X-11488625Y-6002342D01*
X-11522341Y-6015638D01*
X-11642922Y-6107077D01*
X-11734361Y-6227658D01*
X-11734362Y-6227660D01*
X-11751450Y-6270990D01*
X-11794356Y-6326134D01*
X-11860264Y-6349327D01*
X-11866804Y-6349500D01*
X-18133196Y-6349500D01*
X-18200235Y-6329815D01*
X-18245990Y-6277011D01*
X-18248550Y-6270990D01*
X-18265637Y-6227660D01*
X-18265638Y-6227658D01*
X-18357077Y-6107077D01*
X-18477658Y-6015638D01*
X-18520957Y-5998563D01*
X-18576101Y-5955657D01*
X-18599293Y-5889748D01*
X-18583172Y-5821764D01*
X-18574274Y-5808289D01*
X-18537636Y-5759975D01*
X-18535087Y-5753513D01*
X-18484640Y-5625588D01*
X-18478311Y-5572876D01*
X-18474500Y-5541144D01*
X-18474500Y-5008856D01*
X-18481508Y-4950499D01*
X-18484640Y-4924411D01*
X-18537636Y-4790023D01*
X-18624921Y-4674921D01*
X-18740023Y-4587636D01*
X-18874411Y-4534640D01*
X-18920841Y-4529065D01*
X-18958856Y-4524500D01*
X-19541144Y-4524500D01*
X-19582242Y-4529435D01*
X-19625588Y-4534640D01*
X-19759976Y-4587636D01*
X-19875078Y-4674921D01*
X-19962363Y-4790023D01*
X-19962363Y-4790024D01*
X-19962364Y-4790025D01*
X-20015359Y-4924410D01*
X-20025500Y-5008856D01*
X-20025500Y-5541144D01*
X-20015359Y-5625590D01*
X-19962364Y-5759975D01*
X-19925728Y-5808285D01*
X-19900906Y-5873593D01*
X-19915333Y-5941957D01*
X-19964430Y-5991669D01*
X-19979043Y-5998563D01*
X-20022339Y-6015637D01*
X-20022341Y-6015638D01*
X-20142922Y-6107077D01*
X-20234360Y-6227656D01*
X-20234360Y-6227657D01*
X-20234361Y-6227658D01*
X-20289877Y-6368436D01*
X-20300500Y-6456898D01*
X-20300500Y-7043102D01*
X-20289877Y-7131564D01*
X-20234361Y-7272342D01*
X-20142922Y-7392922D01*
X-20022342Y-7484361D01*
X-19881564Y-7539877D01*
X-19793102Y-7550500D01*
X-19793097Y-7550500D01*
X-18706903Y-7550500D01*
X-18706898Y-7550500D01*
X-18618436Y-7539877D01*
X-18477658Y-7484361D01*
X-18477657Y-7484360D01*
X-18477656Y-7484360D01*
X-18357077Y-7392922D01*
X-18265638Y-7272341D01*
X-18265637Y-7272339D01*
X-18248550Y-7229010D01*
X-18205644Y-7173866D01*
X-18139736Y-7150673D01*
X-18133196Y-7150500D01*
X-11866804Y-7150500D01*
X-11799765Y-7170185D01*
X-11754010Y-7222989D01*
X-11751450Y-7229010D01*
X-11741306Y-7254731D01*
X-11734361Y-7272342D01*
X-11642922Y-7392922D01*
X-11522342Y-7484361D01*
X-11381564Y-7539877D01*
X-11293102Y-7550500D01*
X-11293097Y-7550500D01*
X-10206903Y-7550500D01*
X-10206898Y-7550500D01*
X-10118436Y-7539877D01*
X-9977658Y-7484361D01*
X-9977656Y-7484360D01*
X-9977654Y-7484359D01*
X-9970266Y-7480205D01*
X-9969059Y-7482351D01*
X-9915669Y-7462063D01*
X-9847306Y-7476494D01*
X-9818385Y-7498005D01*
X-9641399Y-7674992D01*
X-9607917Y-7736311D01*
X-9606144Y-7746484D01*
X-9605681Y-7749996D01*
X-9605682Y-7750000D01*
X-9591290Y-7859315D01*
X-9602056Y-7928351D01*
X-9648436Y-7980606D01*
X-9714229Y-7999500D01*
X-20882745Y-7999500D01*
X-20949784Y-7979815D01*
X-20970426Y-7963181D01*
X-21678874Y-7254731D01*
X-21712359Y-7193408D01*
X-21711411Y-7136658D01*
X-21710122Y-7131562D01*
X-21703160Y-7073579D01*
X-21699500Y-7043102D01*
X-21699500Y-6456898D01*
X-21705430Y-6407513D01*
X-21710122Y-6368438D01*
X-21765639Y-6227656D01*
X-21857077Y-6107077D01*
X-21977657Y-6015638D01*
X-22011375Y-6002342D01*
X-22066518Y-5959435D01*
X-22089710Y-5893527D01*
X-22073589Y-5825543D01*
X-22065150Y-5812677D01*
X-22041294Y-5780809D01*
X-22031204Y-5767331D01*
X-22031203Y-5767329D01*
X-22031202Y-5767328D01*
X-21980910Y-5632486D01*
X-21980909Y-5632485D01*
X-21980909Y-5632483D01*
X-21974500Y-5572873D01*
X-21974500Y-5382483D01*
X-21974500Y-5077129D01*
X-21974501Y-5077123D01*
X-21980908Y-5017516D01*
X-22031202Y-4882671D01*
X-22031206Y-4882664D01*
X-22117452Y-4767455D01*
X-22117455Y-4767452D01*
X-22232664Y-4681206D01*
X-22232671Y-4681202D01*
X-22367513Y-4630910D01*
X-22367514Y-4630909D01*
X-22367517Y-4630909D01*
X-22427127Y-4624500D01*
X-22427135Y-4624500D01*
X-22427136Y-4624500D01*
X-23072870Y-4624500D01*
X-23072876Y-4624501D01*
X-23132483Y-4630908D01*
X-23267328Y-4681202D01*
X-23267335Y-4681206D01*
X-23382544Y-4767452D01*
X-23382547Y-4767455D01*
X-23468793Y-4882664D01*
X-23468795Y-4882668D01*
X-23468796Y-4882669D01*
X-23519091Y-5017517D01*
X-23525500Y-5077127D01*
X-23525499Y-5572872D01*
X-23519091Y-5632483D01*
X-23468796Y-5767331D01*
X-23434849Y-5812677D01*
X-23410432Y-5878140D01*
X-23425283Y-5946413D01*
X-23474687Y-5995819D01*
X-23488625Y-6002342D01*
X-23522341Y-6015638D01*
X-23642922Y-6107077D01*
X-23734361Y-6227658D01*
X-23734362Y-6227660D01*
X-23751450Y-6270990D01*
X-23794356Y-6326134D01*
X-23860264Y-6349327D01*
X-23866804Y-6349500D01*
X-30133196Y-6349500D01*
X-30200235Y-6329815D01*
X-30245990Y-6277011D01*
X-30248550Y-6270990D01*
X-30265637Y-6227660D01*
X-30265638Y-6227658D01*
X-30357077Y-6107077D01*
X-30477658Y-6015638D01*
X-30520957Y-5998563D01*
X-30576101Y-5955657D01*
X-30599293Y-5889748D01*
X-30583172Y-5821764D01*
X-30574274Y-5808289D01*
X-30537636Y-5759975D01*
X-30535087Y-5753513D01*
X-30484640Y-5625588D01*
X-30478311Y-5572876D01*
X-30474500Y-5541144D01*
X-30474500Y-5008856D01*
X-30481508Y-4950499D01*
X-30484640Y-4924411D01*
X-30537636Y-4790023D01*
X-30624921Y-4674921D01*
X-30740023Y-4587636D01*
X-30874411Y-4534640D01*
X-30920841Y-4529065D01*
X-30958856Y-4524500D01*
X-31541144Y-4524500D01*
X-31582242Y-4529435D01*
X-31625588Y-4534640D01*
X-31759976Y-4587636D01*
X-31875078Y-4674921D01*
X-31962363Y-4790023D01*
X-31962363Y-4790024D01*
X-31962364Y-4790025D01*
X-32015359Y-4924410D01*
X-32025500Y-5008856D01*
X-32025500Y-5541144D01*
X-32015359Y-5625590D01*
X-31962364Y-5759975D01*
X-31925728Y-5808285D01*
X-31900906Y-5873593D01*
X-31915333Y-5941957D01*
X-31964430Y-5991669D01*
X-31979043Y-5998563D01*
X-32022339Y-6015637D01*
X-32022341Y-6015638D01*
X-32142922Y-6107077D01*
X-32234360Y-6227656D01*
X-32234360Y-6227657D01*
X-32234361Y-6227658D01*
X-32289877Y-6368436D01*
X-32300500Y-6456898D01*
X-32300500Y-7043102D01*
X-32289877Y-7131564D01*
X-32234361Y-7272342D01*
X-32142922Y-7392922D01*
X-32022342Y-7484361D01*
X-31881564Y-7539877D01*
X-31793102Y-7550500D01*
X-31793097Y-7550500D01*
X-30706903Y-7550500D01*
X-30706898Y-7550500D01*
X-30618436Y-7539877D01*
X-30477658Y-7484361D01*
X-30477657Y-7484360D01*
X-30477656Y-7484360D01*
X-30357077Y-7392922D01*
X-30265638Y-7272341D01*
X-30265637Y-7272339D01*
X-30248550Y-7229010D01*
X-30205644Y-7173866D01*
X-30139736Y-7150673D01*
X-30133196Y-7150500D01*
X-23866804Y-7150500D01*
X-23799765Y-7170185D01*
X-23754010Y-7222989D01*
X-23751450Y-7229010D01*
X-23741306Y-7254731D01*
X-23734361Y-7272342D01*
X-23642922Y-7392922D01*
X-23522342Y-7484361D01*
X-23381564Y-7539877D01*
X-23293102Y-7550500D01*
X-22567255Y-7550500D01*
X-22500216Y-7570185D01*
X-22479574Y-7586819D01*
X-21628574Y-8437819D01*
X-21595089Y-8499142D01*
X-21600073Y-8568834D01*
X-21641945Y-8624767D01*
X-21707409Y-8649184D01*
X-21716255Y-8649500D01*
X-35495572Y-8649500D01*
X-35504418Y-8649184D01*
X-35725904Y-8633343D01*
X-35743416Y-8630825D01*
X-35956047Y-8584570D01*
X-35973023Y-8579586D01*
X-36176920Y-8503536D01*
X-36193013Y-8496186D01*
X-36384004Y-8391897D01*
X-36398887Y-8382332D01*
X-36573093Y-8251923D01*
X-36586464Y-8240337D01*
X-36740337Y-8086464D01*
X-36751923Y-8073093D01*
X-36882332Y-7898887D01*
X-36891897Y-7884004D01*
X-36996186Y-7693013D01*
X-37003536Y-7676920D01*
X-37079586Y-7473023D01*
X-37084570Y-7456047D01*
X-37130825Y-7243416D01*
X-37133343Y-7225904D01*
X-37149184Y-7004418D01*
X-37149500Y-6995572D01*
X-37149500Y-6893714D01*
X-36850501Y-6893714D01*
X-36850501Y-7106288D01*
X-36817247Y-7316244D01*
X-36751558Y-7518413D01*
X-36655052Y-7707817D01*
X-36655050Y-7707820D01*
X-36655049Y-7707821D01*
X-36530110Y-7879787D01*
X-36530107Y-7879789D01*
X-36530105Y-7879793D01*
X-36379793Y-8030105D01*
X-36379789Y-8030107D01*
X-36379787Y-8030110D01*
X-36289213Y-8095915D01*
X-36207817Y-8155052D01*
X-36018413Y-8251558D01*
X-35816244Y-8317247D01*
X-35606288Y-8350501D01*
X-35606287Y-8350501D01*
X-35393715Y-8350501D01*
X-35393714Y-8350501D01*
X-35183758Y-8317247D01*
X-34981589Y-8251558D01*
X-34792185Y-8155052D01*
X-34792182Y-8155050D01*
X-34792180Y-8155049D01*
X-34620214Y-8030110D01*
X-34469891Y-7879787D01*
X-34344952Y-7707821D01*
X-34248445Y-7518415D01*
X-34248339Y-7518091D01*
X-34182755Y-7316244D01*
X-34178831Y-7291473D01*
X-34156504Y-7150500D01*
X-34149501Y-7106288D01*
X-34149501Y-6893714D01*
X-34161100Y-6820480D01*
X-34182754Y-6683761D01*
X-34248445Y-6481586D01*
X-34344952Y-6292180D01*
X-34469891Y-6120214D01*
X-34620214Y-5969891D01*
X-34792180Y-5844952D01*
X-34981586Y-5748445D01*
X-35183761Y-5682754D01*
X-35183760Y-5682754D01*
X-35354203Y-5655758D01*
X-35393714Y-5649501D01*
X-35606288Y-5649501D01*
X-35669645Y-5659535D01*
X-35816240Y-5682754D01*
X-35816242Y-5682754D01*
X-35816244Y-5682755D01*
X-36018413Y-5748444D01*
X-36018414Y-5748444D01*
X-36018415Y-5748445D01*
X-36207821Y-5844952D01*
X-36379787Y-5969891D01*
X-36530110Y-6120214D01*
X-36655049Y-6292180D01*
X-36655050Y-6292182D01*
X-36655052Y-6292185D01*
X-36751558Y-6481589D01*
X-36817247Y-6683758D01*
X-36850501Y-6893714D01*
X-37149500Y-6893714D01*
X-37149500Y-3427127D01*
X-23525500Y-3427127D01*
X-23525499Y-3922872D01*
X-23519091Y-3982483D01*
X-23468796Y-4117331D01*
X-23382546Y-4232546D01*
X-23267331Y-4318796D01*
X-23132483Y-4369091D01*
X-23072873Y-4375500D01*
X-22427128Y-4375499D01*
X-22378757Y-4370299D01*
X-22367516Y-4369091D01*
X-22232671Y-4318797D01*
X-22232664Y-4318793D01*
X-22117455Y-4232547D01*
X-22117452Y-4232544D01*
X-22031206Y-4117335D01*
X-22031201Y-4117326D01*
X-21980910Y-3982487D01*
X-21979125Y-3974932D01*
X-21976766Y-3975489D01*
X-21954595Y-3921989D01*
X-21945738Y-3912131D01*
X-17720426Y313181D01*
X-17659103Y346666D01*
X-17632745Y349500D01*
X-13774500Y349500D01*
X-13707461Y329815D01*
X-13661706Y277011D01*
X-13650500Y225500D01*
X-13650500Y-1597273D01*
X-13650500Y-1702727D01*
X-13623207Y-1804588D01*
X-13570480Y-1895913D01*
X-11554259Y-3912133D01*
X-11520776Y-3973454D01*
X-11519799Y-3979486D01*
X-11519091Y-3982477D01*
X-11519091Y-3982483D01*
X-11468796Y-4117331D01*
X-11382546Y-4232546D01*
X-11267331Y-4318796D01*
X-11132483Y-4369091D01*
X-11072873Y-4375500D01*
X-10427128Y-4375499D01*
X-10378757Y-4370299D01*
X-10367516Y-4369091D01*
X-10232671Y-4318797D01*
X-10232664Y-4318793D01*
X-10117455Y-4232547D01*
X-10117452Y-4232544D01*
X-10031206Y-4117335D01*
X-10031202Y-4117328D01*
X-9980910Y-3982486D01*
X-9980909Y-3982485D01*
X-9980909Y-3982483D01*
X-9974500Y-3922873D01*
X-9974500Y-3680057D01*
X-9974500Y-3427129D01*
X-9974501Y-3427123D01*
X-9980908Y-3367516D01*
X-10031202Y-3232671D01*
X-10031206Y-3232664D01*
X-10117452Y-3117455D01*
X-10117455Y-3117452D01*
X-10232664Y-3031206D01*
X-10232671Y-3031202D01*
X-10367513Y-2980910D01*
X-10367514Y-2980909D01*
X-10367517Y-2980909D01*
X-10427127Y-2974500D01*
X-10427135Y-2974500D01*
X-10427136Y-2974500D01*
X-11072870Y-2974500D01*
X-11072876Y-2974501D01*
X-11132484Y-2980909D01*
X-11218211Y-3012882D01*
X-11287903Y-3017866D01*
X-11349224Y-2984381D01*
X-12813181Y-1520425D01*
X-12846666Y-1459102D01*
X-12849500Y-1432744D01*
X-12849500Y243419D01*
X-12829815Y310458D01*
X-12823876Y318905D01*
X-12725464Y447157D01*
X-12664956Y593237D01*
X-12664955Y593239D01*
X-12644318Y750000D01*
X-12644318Y750001D01*
X-12664955Y906760D01*
X-12664956Y906762D01*
X-12725463Y1052839D01*
X-12725464Y1052841D01*
X-12821718Y1178282D01*
X-12947159Y1274536D01*
X-13093238Y1335044D01*
X-13171619Y1345363D01*
X-13249999Y1355682D01*
X-13250001Y1355682D01*
X-13293813Y1349914D01*
X-13406762Y1335044D01*
X-13552841Y1274536D01*
X-13678282Y1178282D01*
X-13678283Y1178279D01*
X-13681093Y1176124D01*
X-13746263Y1150930D01*
X-13756580Y1150500D01*
X-17797273Y1150500D01*
X-17902727Y1150500D01*
X-18004588Y1123207D01*
X-18095913Y1070480D01*
X-20128431Y-962038D01*
X-22150775Y-2984382D01*
X-22212098Y-3017867D01*
X-22281789Y-3012883D01*
X-22367513Y-2980910D01*
X-22367514Y-2980909D01*
X-22367517Y-2980909D01*
X-22427127Y-2974500D01*
X-22427135Y-2974500D01*
X-22427136Y-2974500D01*
X-23072870Y-2974500D01*
X-23072876Y-2974501D01*
X-23132483Y-2980908D01*
X-23267328Y-3031202D01*
X-23267335Y-3031206D01*
X-23382544Y-3117452D01*
X-23382547Y-3117455D01*
X-23468793Y-3232664D01*
X-23468797Y-3232671D01*
X-23473345Y-3244865D01*
X-23519091Y-3367517D01*
X-23525500Y-3427127D01*
X-37149500Y-3427127D01*
X-37149500Y-1074832D01*
X-37129815Y-1007793D01*
X-37077011Y-962038D01*
X-37007853Y-952094D01*
X-36944297Y-981119D01*
X-36937831Y-987139D01*
X-36922765Y-1002206D01*
X-36819991Y-1047585D01*
X-36794865Y-1050500D01*
X-35205136Y-1050499D01*
X-35205122Y-1050497D01*
X-35205117Y-1050497D01*
X-35180012Y-1047586D01*
X-35180010Y-1047585D01*
X-35180009Y-1047585D01*
X-35077235Y-1002206D01*
X-34997794Y-922765D01*
X-34985147Y-894122D01*
X-34952415Y-819993D01*
X-34952415Y-819991D01*
X-34949500Y-794868D01*
X-34949500Y794856D01*
X-34949502Y794882D01*
X-34952413Y819987D01*
X-34952415Y819991D01*
X-34997793Y922764D01*
X-35077234Y1002205D01*
X-35077235Y1002206D01*
X-35180009Y1047585D01*
X-35205135Y1050500D01*
X-36794864Y1050499D01*
X-36794879Y1050497D01*
X-36794882Y1050497D01*
X-36819987Y1047586D01*
X-36819988Y1047585D01*
X-36819991Y1047585D01*
X-36922765Y1002206D01*
X-36937819Y987152D01*
X-36999142Y953667D01*
X-37068834Y958651D01*
X-37124767Y1000523D01*
X-37149184Y1065987D01*
X-37149500Y1074833D01*
X-37149500Y1925167D01*
X-37129815Y1992206D01*
X-37077011Y2037961D01*
X-37007853Y2047905D01*
X-36944297Y2018880D01*
X-36937819Y2012848D01*
X-36922765Y1997794D01*
X-36819992Y1952415D01*
X-36794865Y1949500D01*
X-35205143Y1949500D01*
X-35205117Y1949502D01*
X-35180012Y1952413D01*
X-35180008Y1952415D01*
X-35077235Y1997793D01*
X-34997794Y2077234D01*
X-34952415Y2180006D01*
X-34952415Y2180008D01*
X-34949500Y2205131D01*
X-34949500Y2543102D01*
X-32300500Y2543102D01*
X-32300500Y1956898D01*
X-32289877Y1868436D01*
X-32241255Y1745140D01*
X-32234360Y1727656D01*
X-32142922Y1607077D01*
X-32022343Y1515639D01*
X-31979794Y1498860D01*
X-31883040Y1460705D01*
X-31881561Y1460122D01*
X-31835926Y1454642D01*
X-31793102Y1449500D01*
X-31793097Y1449500D01*
X-30706903Y1449500D01*
X-30706898Y1449500D01*
X-30667853Y1454188D01*
X-30618438Y1460122D01*
X-30477656Y1515639D01*
X-30357077Y1607077D01*
X-30265638Y1727658D01*
X-30265637Y1727660D01*
X-30248550Y1770990D01*
X-30205644Y1826134D01*
X-30139736Y1849327D01*
X-30133196Y1849500D01*
X-23866804Y1849500D01*
X-23799765Y1829815D01*
X-23754010Y1777011D01*
X-23751450Y1770990D01*
X-23734362Y1727660D01*
X-23734361Y1727658D01*
X-23642922Y1607077D01*
X-23522343Y1515639D01*
X-23479794Y1498860D01*
X-23383040Y1460705D01*
X-23381561Y1460122D01*
X-23335926Y1454642D01*
X-23293102Y1449500D01*
X-23067255Y1449500D01*
X-23000216Y1429815D01*
X-22979574Y1413181D01*
X-22891402Y1325009D01*
X-22857917Y1263686D01*
X-22856144Y1253513D01*
X-22855681Y1250001D01*
X-22855682Y1250000D01*
X-22835044Y1093238D01*
X-22774536Y947159D01*
X-22678282Y821718D01*
X-22552841Y725464D01*
X-22552839Y725463D01*
X-22406762Y664956D01*
X-22406760Y664955D01*
X-22250001Y644318D01*
X-22250000Y644318D01*
X-22249999Y644318D01*
X-22093239Y664955D01*
X-22093237Y664956D01*
X-21947160Y725463D01*
X-21821718Y821718D01*
X-21725463Y947160D01*
X-21664956Y1093237D01*
X-21664955Y1093239D01*
X-21644318Y1250000D01*
X-21644318Y1250001D01*
X-21664956Y1406762D01*
X-21664957Y1406765D01*
X-21725461Y1552836D01*
X-21725464Y1552841D01*
X-21755557Y1592059D01*
X-21780751Y1657228D01*
X-21767985Y1719466D01*
X-21768750Y1719768D01*
X-21767029Y1724131D01*
X-21766713Y1725673D01*
X-21765666Y1727587D01*
X-21710123Y1868434D01*
X-21706189Y1901196D01*
X-21699500Y1956898D01*
X-21699500Y2543102D01*
X-20300500Y2543102D01*
X-20300500Y1956898D01*
X-20289877Y1868436D01*
X-20241255Y1745140D01*
X-20234360Y1727656D01*
X-20142922Y1607077D01*
X-20022343Y1515639D01*
X-19979794Y1498860D01*
X-19883040Y1460705D01*
X-19881561Y1460122D01*
X-19835926Y1454642D01*
X-19793102Y1449500D01*
X-19793097Y1449500D01*
X-18706903Y1449500D01*
X-18706898Y1449500D01*
X-18667853Y1454188D01*
X-18618438Y1460122D01*
X-18477656Y1515639D01*
X-18357077Y1607077D01*
X-18265638Y1727658D01*
X-18265637Y1727660D01*
X-18248550Y1770990D01*
X-18205644Y1826134D01*
X-18139736Y1849327D01*
X-18133196Y1849500D01*
X-11866804Y1849500D01*
X-11799765Y1829815D01*
X-11754010Y1777011D01*
X-11751450Y1770990D01*
X-11734362Y1727660D01*
X-11734361Y1727658D01*
X-11642922Y1607077D01*
X-11522343Y1515639D01*
X-11479794Y1498860D01*
X-11383040Y1460705D01*
X-11381561Y1460122D01*
X-11335926Y1454642D01*
X-11293102Y1449500D01*
X-10567254Y1449500D01*
X-10500215Y1429815D01*
X-10479573Y1413181D01*
X-10077550Y1011158D01*
X-10077548Y1011155D01*
X-9995914Y929521D01*
X-9995906Y929515D01*
X-9974637Y917235D01*
X-9926422Y866668D01*
X-9913200Y798060D01*
X-9939168Y733196D01*
X-9961708Y711049D01*
X-10075078Y625078D01*
X-10162364Y509975D01*
X-10215359Y375590D01*
X-10225500Y291144D01*
X-10225500Y-291144D01*
X-10215359Y-375590D01*
X-10162364Y-509975D01*
X-10075078Y-625078D01*
X-9959975Y-712364D01*
X-9954011Y-714715D01*
X-9898869Y-757617D01*
X-9875673Y-823524D01*
X-9875500Y-830070D01*
X-9875500Y-972273D01*
X-9875500Y-1077727D01*
X-9853385Y-1160260D01*
X-9850222Y-1208531D01*
X-9855682Y-1250000D01*
X-9835044Y-1406762D01*
X-9774536Y-1552841D01*
X-9678282Y-1678282D01*
X-9552841Y-1774536D01*
X-9406762Y-1835044D01*
X-9250000Y-1855682D01*
X-9249997Y-1855681D01*
X-9246485Y-1856144D01*
X-9182589Y-1884410D01*
X-9175001Y-1891390D01*
X-8791892Y-2274500D01*
X-8436818Y-2629574D01*
X-8403333Y-2690897D01*
X-8400499Y-2717255D01*
X-8400499Y-3244864D01*
X-8400498Y-3244871D01*
X-8400497Y-3244882D01*
X-8397586Y-3269987D01*
X-8397585Y-3269988D01*
X-8397585Y-3269991D01*
X-8352206Y-3372765D01*
X-8272765Y-3452206D01*
X-8169991Y-3497585D01*
X-8147709Y-3500170D01*
X-8083385Y-3527450D01*
X-8044021Y-3585175D01*
X-8038000Y-3623344D01*
X-8038000Y-3825500D01*
X-8057685Y-3892539D01*
X-8110489Y-3938294D01*
X-8162000Y-3949500D01*
X-8204270Y-3949500D01*
X-8234699Y-3952353D01*
X-8234701Y-3952353D01*
X-8362880Y-3997206D01*
X-8362882Y-3997207D01*
X-8472150Y-4077850D01*
X-8552793Y-4187118D01*
X-8559716Y-4206904D01*
X-8597646Y-4315298D01*
X-8597646Y-4315300D01*
X-8600500Y-4345730D01*
X-8600500Y-4754269D01*
X-8597646Y-4784699D01*
X-8597646Y-4784701D01*
X-8576596Y-4844856D01*
X-8552793Y-4912882D01*
X-8472150Y-5022150D01*
X-8362882Y-5102793D01*
X-8285106Y-5130008D01*
X-8234700Y-5147646D01*
X-8204270Y-5150500D01*
X-8204266Y-5150500D01*
X-7070730Y-5150500D01*
X-7040300Y-5147646D01*
X-7040298Y-5147646D01*
X-6944163Y-5114006D01*
X-6912118Y-5102793D01*
X-6802850Y-5022150D01*
X-6722207Y-4912882D01*
X-6722206Y-4912880D01*
X-6677353Y-4784701D01*
X-6677353Y-4784699D01*
X-6674500Y-4754269D01*
X-6674500Y-4345730D01*
X-6677353Y-4315300D01*
X-6677353Y-4315298D01*
X-6722206Y-4187119D01*
X-6722207Y-4187117D01*
X-6802850Y-4077850D01*
X-6912117Y-3997207D01*
X-6912119Y-3997206D01*
X-7040299Y-3952353D01*
X-7070730Y-3949500D01*
X-7070734Y-3949500D01*
X-7113000Y-3949500D01*
X-7180039Y-3929815D01*
X-7225794Y-3877011D01*
X-7237000Y-3825500D01*
X-7237000Y-3620443D01*
X-7217315Y-3553404D01*
X-7164511Y-3507649D01*
X-7138885Y-3500504D01*
X-7139013Y-3500035D01*
X-7130013Y-3497585D01*
X-7130009Y-3497585D01*
X-7027235Y-3452206D01*
X-6947794Y-3372765D01*
X-6936854Y-3347989D01*
X-6902415Y-3269993D01*
X-6902415Y-3269991D01*
X-6899500Y-3244868D01*
X-6899500Y-1655143D01*
X-6899502Y-1655117D01*
X-6902413Y-1630012D01*
X-6902415Y-1630008D01*
X-6947793Y-1527235D01*
X-7027234Y-1447794D01*
X-7130007Y-1402415D01*
X-7155134Y-1399500D01*
X-8144856Y-1399500D01*
X-8144882Y-1399502D01*
X-8169987Y-1402413D01*
X-8169991Y-1402415D01*
X-8272764Y-1447793D01*
X-8291607Y-1466636D01*
X-8352930Y-1500121D01*
X-8422622Y-1495137D01*
X-8466969Y-1466636D01*
X-8608597Y-1325008D01*
X-8642082Y-1263685D01*
X-8643855Y-1253513D01*
X-8664956Y-1093238D01*
X-8664956Y-1093237D01*
X-8725463Y-947160D01*
X-8784678Y-869990D01*
X-8821718Y-821718D01*
X-8821719Y-821716D01*
X-8821721Y-821715D01*
X-8851800Y-798634D01*
X-8893002Y-742206D01*
X-8897155Y-672460D01*
X-8875116Y-625335D01*
X-8787636Y-509976D01*
X-8734640Y-375588D01*
X-8728172Y-321718D01*
X-8724500Y-291144D01*
X-8724500Y291144D01*
X-8731157Y346579D01*
X-8734640Y375588D01*
X-8787636Y509976D01*
X-8874921Y625078D01*
X-8877055Y626696D01*
X-8878515Y628672D01*
X-8880919Y631076D01*
X-8880558Y631436D01*
X-8918579Y682888D01*
X-8923130Y752610D01*
X-8889265Y813724D01*
X-8827735Y846827D01*
X-8802130Y849500D01*
X-6756580Y849500D01*
X-6689541Y829815D01*
X-6681093Y823876D01*
X-6678283Y821720D01*
X-6678282Y821718D01*
X-6552841Y725464D01*
X-6552839Y725463D01*
X-6406762Y664956D01*
X-6406760Y664955D01*
X-6250001Y644318D01*
X-6250000Y644318D01*
X-6249999Y644318D01*
X-6093239Y664955D01*
X-6093237Y664956D01*
X-5947160Y725463D01*
X-5821718Y821718D01*
X-5725463Y947160D01*
X-5664956Y1093237D01*
X-5664955Y1093239D01*
X-5644318Y1250000D01*
X-5644318Y1250001D01*
X-5664956Y1406762D01*
X-5725463Y1552839D01*
X-5725464Y1552841D01*
X-5821718Y1678282D01*
X-5947159Y1774536D01*
X-6093238Y1835044D01*
X-6171619Y1845363D01*
X-6249999Y1855682D01*
X-6250001Y1855682D01*
X-6296957Y1849500D01*
X-6406762Y1835044D01*
X-6552841Y1774536D01*
X-6678282Y1678282D01*
X-6678283Y1678279D01*
X-6681093Y1676124D01*
X-6746263Y1650930D01*
X-6756580Y1650500D01*
X-6775500Y1650500D01*
X-6842539Y1670185D01*
X-6888294Y1722989D01*
X-6899500Y1774500D01*
X-6899500Y2494184D01*
X16075000Y2494184D01*
X16085407Y2392326D01*
X16140094Y2227290D01*
X16140096Y2227285D01*
X16231371Y2079307D01*
X16233266Y2076911D01*
X16234054Y2074957D01*
X16235161Y2073163D01*
X16234854Y2072973D01*
X16259407Y2012116D01*
X16246366Y1943474D01*
X16233266Y1923089D01*
X16231371Y1920692D01*
X16140096Y1772714D01*
X16140094Y1772709D01*
X16085407Y1607673D01*
X16075000Y1505815D01*
X16075000Y1250000D01*
X16812500Y1250000D01*
X16812500Y2750000D01*
X16075000Y2750000D01*
X16075000Y2494184D01*
X-6899500Y2494184D01*
X-6899500Y3244856D01*
X-6899502Y3244882D01*
X-6902413Y3269987D01*
X-6902415Y3269991D01*
X-6947793Y3372764D01*
X-7027234Y3452205D01*
X-7027235Y3452206D01*
X-7092823Y3481166D01*
X-7130006Y3497584D01*
X-7130007Y3497584D01*
X-7130009Y3497585D01*
X-7130010Y3497585D01*
X-7139007Y3500033D01*
X-7138468Y3502011D01*
X-7191608Y3524543D01*
X-7230977Y3582266D01*
X-7237000Y3620443D01*
X-7237000Y3825500D01*
X-7217315Y3892539D01*
X-7164511Y3938294D01*
X-7113000Y3949500D01*
X-7070730Y3949500D01*
X-7040300Y3952353D01*
X-7040298Y3952353D01*
X-6912119Y3997206D01*
X-6912117Y3997207D01*
X-6802850Y4077850D01*
X-6722207Y4187117D01*
X-6722206Y4187119D01*
X-6677353Y4315298D01*
X-6677353Y4315300D01*
X-6674500Y4345730D01*
X-6674500Y4754269D01*
X-6325500Y4754269D01*
X-6325500Y4345730D01*
X-6322646Y4315300D01*
X-6322646Y4315298D01*
X-6290305Y4222876D01*
X-6277793Y4187118D01*
X-6197150Y4077850D01*
X-6103052Y4008403D01*
X-6087882Y3997207D01*
X-6087880Y3997206D01*
X-5959700Y3952353D01*
X-5929270Y3949500D01*
X-5929266Y3949500D01*
X-4795730Y3949500D01*
X-4765300Y3952353D01*
X-4765298Y3952354D01*
X-4721897Y3967541D01*
X-4680942Y3974500D01*
X-4381580Y3974500D01*
X-4314541Y3954815D01*
X-4306093Y3948876D01*
X-4303283Y3946720D01*
X-4303282Y3946718D01*
X-4177841Y3850464D01*
X-4177839Y3850463D01*
X-4031762Y3789956D01*
X-4031760Y3789955D01*
X-3875001Y3769318D01*
X-3875000Y3769318D01*
X-3874999Y3769318D01*
X-3718239Y3789955D01*
X-3718237Y3789956D01*
X-3572160Y3850463D01*
X-3446718Y3946718D01*
X-3350463Y4072160D01*
X-3289956Y4218237D01*
X-3289955Y4218239D01*
X-3269318Y4374998D01*
X-3269318Y4375001D01*
X-3289955Y4531760D01*
X-3289956Y4531762D01*
X-3350463Y4677839D01*
X-3350464Y4677841D01*
X-3446718Y4803282D01*
X-3572159Y4899536D01*
X-3718238Y4960044D01*
X-3796619Y4970363D01*
X-3874999Y4980682D01*
X-3875001Y4980682D01*
X-3927254Y4973802D01*
X-4031762Y4960044D01*
X-4177841Y4899536D01*
X-4250573Y4843726D01*
X-4315741Y4818532D01*
X-4384186Y4832570D01*
X-4434176Y4881383D01*
X-4443099Y4901142D01*
X-4447207Y4912882D01*
X-4454047Y4922150D01*
X-4527850Y5022150D01*
X-4637118Y5102793D01*
X-4695458Y5123207D01*
X-4765299Y5147646D01*
X-4795730Y5150500D01*
X-4795734Y5150500D01*
X-5929266Y5150500D01*
X-5929270Y5150500D01*
X-5959699Y5147646D01*
X-5959701Y5147646D01*
X-6003033Y5132483D01*
X-6087882Y5102793D01*
X-6197150Y5022150D01*
X-6277793Y4912882D01*
X-6288815Y4881383D01*
X-6322646Y4784701D01*
X-6322646Y4784699D01*
X-6325500Y4754269D01*
X-6674500Y4754269D01*
X-6677353Y4784699D01*
X-6677353Y4784701D01*
X-6722206Y4912880D01*
X-6722207Y4912882D01*
X-6729047Y4922150D01*
X-6802850Y5022150D01*
X-6912118Y5102793D01*
X-6970458Y5123207D01*
X-7040299Y5147646D01*
X-7070730Y5150500D01*
X-7070734Y5150500D01*
X-8204266Y5150500D01*
X-8204270Y5150500D01*
X-8234699Y5147646D01*
X-8234701Y5147646D01*
X-8278033Y5132483D01*
X-8362882Y5102793D01*
X-8472150Y5022150D01*
X-8552793Y4912882D01*
X-8563815Y4881383D01*
X-8597646Y4784701D01*
X-8597646Y4784699D01*
X-8600500Y4754269D01*
X-8600500Y4345730D01*
X-8597646Y4315300D01*
X-8597646Y4315298D01*
X-8565305Y4222876D01*
X-8552793Y4187118D01*
X-8472150Y4077850D01*
X-8378052Y4008403D01*
X-8362882Y3997207D01*
X-8362880Y3997206D01*
X-8234700Y3952353D01*
X-8204270Y3949500D01*
X-8204266Y3949500D01*
X-8162000Y3949500D01*
X-8094961Y3929815D01*
X-8049206Y3877011D01*
X-8038000Y3825500D01*
X-8038000Y3623342D01*
X-8057685Y3556303D01*
X-8110489Y3510548D01*
X-8147713Y3500168D01*
X-8169991Y3497585D01*
X-8272765Y3452206D01*
X-8352206Y3372765D01*
X-8397585Y3269991D01*
X-8400500Y3244865D01*
X-8400499Y2414956D01*
X-8400499Y1774500D01*
X-8420184Y1707461D01*
X-8472987Y1661706D01*
X-8524499Y1650500D01*
X-9532746Y1650500D01*
X-9599785Y1670185D01*
X-9620427Y1686819D01*
X-9678874Y1745266D01*
X-9712359Y1806589D01*
X-9711412Y1863333D01*
X-9710123Y1868430D01*
X-9703327Y1925033D01*
X-9699500Y1956898D01*
X-9699500Y2543102D01*
X-9705568Y2593631D01*
X-9710122Y2631561D01*
X-9717591Y2650500D01*
X-9735991Y2697160D01*
X-9765639Y2772343D01*
X-9857077Y2892922D01*
X-9977657Y2984361D01*
X-10011372Y2997656D01*
X-10066517Y3040562D01*
X-10089710Y3106469D01*
X-10073590Y3174454D01*
X-10065150Y3187321D01*
X-10031206Y3232664D01*
X-10031202Y3232671D01*
X-9980910Y3367513D01*
X-9980909Y3367514D01*
X-9980909Y3367517D01*
X-9974500Y3427127D01*
X-9974500Y3667453D01*
X-9974500Y3922870D01*
X-9974501Y3922876D01*
X-9980908Y3982483D01*
X-10031202Y4117328D01*
X-10031206Y4117335D01*
X-10117452Y4232544D01*
X-10117455Y4232547D01*
X-10232664Y4318793D01*
X-10232671Y4318797D01*
X-10314991Y4349500D01*
X-10367517Y4369091D01*
X-10427127Y4375500D01*
X-11072872Y4375499D01*
X-11132483Y4369091D01*
X-11267331Y4318796D01*
X-11382546Y4232546D01*
X-11468796Y4117331D01*
X-11519091Y3982483D01*
X-11525500Y3922873D01*
X-11525499Y3427128D01*
X-11522583Y3400000D01*
X-11519091Y3367516D01*
X-11471540Y3240025D01*
X-11468796Y3232669D01*
X-11438139Y3191716D01*
X-11434849Y3187322D01*
X-11410432Y3121858D01*
X-11425283Y3053585D01*
X-11474688Y3004179D01*
X-11488625Y2997657D01*
X-11522342Y2984361D01*
X-11642922Y2892922D01*
X-11734361Y2772342D01*
X-11734361Y2772341D01*
X-11734362Y2772339D01*
X-11751450Y2729010D01*
X-11794356Y2673866D01*
X-11860264Y2650673D01*
X-11866804Y2650500D01*
X-18133196Y2650500D01*
X-18200235Y2670185D01*
X-18245990Y2722989D01*
X-18248550Y2729010D01*
X-18265637Y2772339D01*
X-18265638Y2772341D01*
X-18357077Y2892922D01*
X-18477657Y2984361D01*
X-18517316Y3000000D01*
X-18520955Y3001435D01*
X-18576100Y3044341D01*
X-18599293Y3110248D01*
X-18583173Y3178233D01*
X-18574270Y3191715D01*
X-18537636Y3240023D01*
X-18484640Y3374411D01*
X-18478054Y3429260D01*
X-18474500Y3458856D01*
X-18474500Y3991144D01*
X-18481278Y4047586D01*
X-18484640Y4075588D01*
X-18537636Y4209976D01*
X-18624921Y4325078D01*
X-18740023Y4412363D01*
X-18740024Y4412363D01*
X-18740025Y4412364D01*
X-18874410Y4465359D01*
X-18958856Y4475500D01*
X-19541144Y4475500D01*
X-19625590Y4465359D01*
X-19759975Y4412364D01*
X-19875078Y4325078D01*
X-19962364Y4209975D01*
X-20015359Y4075590D01*
X-20025500Y3991144D01*
X-20025500Y3458856D01*
X-20015359Y3374410D01*
X-19964272Y3244864D01*
X-19962363Y3240023D01*
X-19925730Y3191716D01*
X-19900906Y3126405D01*
X-19915334Y3058041D01*
X-19964431Y3008329D01*
X-19979035Y3001438D01*
X-20022342Y2984361D01*
X-20142922Y2892922D01*
X-20234361Y2772342D01*
X-20289877Y2631564D01*
X-20300500Y2543102D01*
X-21699500Y2543102D01*
X-21705568Y2593631D01*
X-21710122Y2631561D01*
X-21717591Y2650500D01*
X-21735991Y2697160D01*
X-21765639Y2772343D01*
X-21857077Y2892922D01*
X-21977657Y2984361D01*
X-22011372Y2997656D01*
X-22066517Y3040562D01*
X-22089710Y3106469D01*
X-22073590Y3174454D01*
X-22065150Y3187321D01*
X-22031206Y3232664D01*
X-22031202Y3232671D01*
X-21980910Y3367513D01*
X-21980909Y3367514D01*
X-21980909Y3367517D01*
X-21974500Y3427127D01*
X-21974500Y3667453D01*
X-21974500Y3922870D01*
X-21974501Y3922876D01*
X-21980908Y3982483D01*
X-22031202Y4117328D01*
X-22031206Y4117335D01*
X-22117452Y4232544D01*
X-22117455Y4232547D01*
X-22232664Y4318793D01*
X-22232671Y4318797D01*
X-22314991Y4349500D01*
X-22367517Y4369091D01*
X-22427127Y4375500D01*
X-23072872Y4375499D01*
X-23132483Y4369091D01*
X-23267331Y4318796D01*
X-23382546Y4232546D01*
X-23468796Y4117331D01*
X-23519091Y3982483D01*
X-23525500Y3922873D01*
X-23525499Y3427128D01*
X-23522583Y3400000D01*
X-23519091Y3367516D01*
X-23471540Y3240025D01*
X-23468796Y3232669D01*
X-23438139Y3191716D01*
X-23434849Y3187322D01*
X-23410432Y3121858D01*
X-23425283Y3053585D01*
X-23474688Y3004179D01*
X-23488625Y2997657D01*
X-23522342Y2984361D01*
X-23642922Y2892922D01*
X-23734361Y2772342D01*
X-23734361Y2772341D01*
X-23734362Y2772339D01*
X-23751450Y2729010D01*
X-23794356Y2673866D01*
X-23860264Y2650673D01*
X-23866804Y2650500D01*
X-30133196Y2650500D01*
X-30200235Y2670185D01*
X-30245990Y2722989D01*
X-30248550Y2729010D01*
X-30265637Y2772339D01*
X-30265638Y2772341D01*
X-30357077Y2892922D01*
X-30477657Y2984361D01*
X-30517316Y3000000D01*
X-30520955Y3001435D01*
X-30576100Y3044341D01*
X-30599293Y3110248D01*
X-30583173Y3178233D01*
X-30574270Y3191715D01*
X-30537636Y3240023D01*
X-30484640Y3374411D01*
X-30478054Y3429260D01*
X-30474500Y3458856D01*
X-30474500Y3991144D01*
X-30481278Y4047586D01*
X-30484640Y4075588D01*
X-30537636Y4209976D01*
X-30624921Y4325078D01*
X-30740023Y4412363D01*
X-30740024Y4412363D01*
X-30740025Y4412364D01*
X-30874410Y4465359D01*
X-30958856Y4475500D01*
X-31541144Y4475500D01*
X-31625590Y4465359D01*
X-31759975Y4412364D01*
X-31875078Y4325078D01*
X-31962364Y4209975D01*
X-32015359Y4075590D01*
X-32025500Y3991144D01*
X-32025500Y3458856D01*
X-32015359Y3374410D01*
X-31964272Y3244864D01*
X-31962363Y3240023D01*
X-31925730Y3191716D01*
X-31900906Y3126405D01*
X-31915334Y3058041D01*
X-31964431Y3008329D01*
X-31979035Y3001438D01*
X-32022342Y2984361D01*
X-32142922Y2892922D01*
X-32234361Y2772342D01*
X-32289877Y2631564D01*
X-32300500Y2543102D01*
X-34949500Y2543102D01*
X-34949500Y3794856D01*
X-34949502Y3794882D01*
X-34952413Y3819987D01*
X-34952415Y3819991D01*
X-34997793Y3922764D01*
X-35077234Y4002205D01*
X-35077235Y4002206D01*
X-35180009Y4047585D01*
X-35205135Y4050500D01*
X-36794864Y4050499D01*
X-36794879Y4050497D01*
X-36794882Y4050497D01*
X-36819987Y4047586D01*
X-36819988Y4047585D01*
X-36819991Y4047585D01*
X-36922765Y4002206D01*
X-36933789Y3991182D01*
X-36937819Y3987152D01*
X-36999142Y3953667D01*
X-37068834Y3958651D01*
X-37124767Y4000523D01*
X-37149184Y4065987D01*
X-37149500Y4074833D01*
X-37149500Y5572873D01*
X-23525500Y5572873D01*
X-23525499Y5077128D01*
X-23522330Y5047646D01*
X-23519091Y5017516D01*
X-23468797Y4882671D01*
X-23468793Y4882664D01*
X-23382547Y4767455D01*
X-23382544Y4767452D01*
X-23267335Y4681206D01*
X-23267328Y4681202D01*
X-23132486Y4630910D01*
X-23132483Y4630909D01*
X-23072873Y4624500D01*
X-23072863Y4624500D01*
X-22427129Y4624500D01*
X-22427123Y4624501D01*
X-22367516Y4630908D01*
X-22232671Y4681202D01*
X-22232664Y4681206D01*
X-22117455Y4767452D01*
X-22117452Y4767455D01*
X-22031205Y4882665D01*
X-22006989Y4947589D01*
X-21969329Y4998525D01*
X-21969577Y4998773D01*
X-21967926Y5000423D01*
X-21966298Y5002626D01*
X-21963830Y5004519D01*
X-21395476Y5572873D01*
X-11525500Y5572873D01*
X-11525499Y5077128D01*
X-11522330Y5047646D01*
X-11519091Y5017516D01*
X-11468797Y4882671D01*
X-11468793Y4882664D01*
X-11382547Y4767455D01*
X-11382544Y4767452D01*
X-11267335Y4681206D01*
X-11267328Y4681202D01*
X-11132486Y4630910D01*
X-11132483Y4630909D01*
X-11072873Y4624500D01*
X-11072863Y4624500D01*
X-10427129Y4624500D01*
X-10427123Y4624501D01*
X-10367516Y4630908D01*
X-10232671Y4681202D01*
X-10232664Y4681206D01*
X-10117456Y4767452D01*
X-10117455Y4767453D01*
X-10117454Y4767454D01*
X-10097832Y4793665D01*
X-10041897Y4835534D01*
X-9972205Y4840516D01*
X-9923081Y4817727D01*
X-9802842Y4725464D01*
X-9656762Y4664956D01*
X-9656760Y4664955D01*
X-9500001Y4644318D01*
X-9500000Y4644318D01*
X-9499999Y4644318D01*
X-9343239Y4664955D01*
X-9343237Y4664956D01*
X-9197160Y4725463D01*
X-9071718Y4821718D01*
X-8975463Y4947160D01*
X-8914956Y5093237D01*
X-8914955Y5093239D01*
X-8894318Y5249998D01*
X-8894318Y5250001D01*
X-8914955Y5406760D01*
X-8914956Y5406762D01*
X-8946354Y5482563D01*
X-8953823Y5552033D01*
X-8922548Y5614512D01*
X-8862459Y5650164D01*
X-8815608Y5652955D01*
X-8750001Y5644318D01*
X-8750000Y5644318D01*
X-8749999Y5644318D01*
X-8593239Y5664955D01*
X-8593237Y5664956D01*
X-8447157Y5725464D01*
X-8315273Y5826663D01*
X-8250104Y5851857D01*
X-8228210Y5851745D01*
X-8204270Y5849500D01*
X-8204266Y5849500D01*
X-7070730Y5849500D01*
X-7040300Y5852353D01*
X-7040298Y5852353D01*
X-6912119Y5897206D01*
X-6912117Y5897207D01*
X-6802850Y5977850D01*
X-6722207Y6087117D01*
X-6722206Y6087119D01*
X-6677353Y6215298D01*
X-6677353Y6215300D01*
X-6674500Y6245730D01*
X-6674500Y6654269D01*
X-6325500Y6654269D01*
X-6325500Y6245730D01*
X-6322646Y6215300D01*
X-6322646Y6215298D01*
X-6297091Y6142269D01*
X-6277793Y6087118D01*
X-6197150Y5977850D01*
X-6087882Y5897207D01*
X-6087880Y5897206D01*
X-5959700Y5852353D01*
X-5929270Y5849500D01*
X-5929266Y5849500D01*
X-4795730Y5849500D01*
X-4765300Y5852353D01*
X-4765298Y5852353D01*
X-4637119Y5897206D01*
X-4637117Y5897207D01*
X-4527850Y5977850D01*
X-4522032Y5985733D01*
X-4512141Y5999134D01*
X-4456494Y6041385D01*
X-4412372Y6049500D01*
X-2997273Y6049500D01*
X-2895410Y6076793D01*
X-2804087Y6129520D01*
X-2757176Y6176430D01*
X-2695852Y6209914D01*
X-2655613Y6211967D01*
X-2500004Y6194435D01*
X-2500000Y6194435D01*
X-2499996Y6194435D01*
X-2320750Y6214630D01*
X-2320745Y6214631D01*
X-2150476Y6274211D01*
X-1997737Y6370184D01*
X-1870184Y6497737D01*
X-1774211Y6650476D01*
X-1714631Y6820745D01*
X-1714630Y6820750D01*
X-1694435Y6999996D01*
X-1694435Y7000003D01*
X-1714630Y7179249D01*
X-1714631Y7179254D01*
X-1774211Y7349523D01*
X-1870184Y7502262D01*
X-1997737Y7629815D01*
X-1997738Y7629816D01*
X-2121876Y7707817D01*
X-2150476Y7725788D01*
X-2150478Y7725789D01*
X-2320745Y7785368D01*
X-2320750Y7785369D01*
X-2499996Y7805565D01*
X-2500004Y7805565D01*
X-2679249Y7785369D01*
X-2679252Y7785368D01*
X-2679255Y7785368D01*
X-2849522Y7725789D01*
X-3002262Y7629816D01*
X-3129816Y7502262D01*
X-3225789Y7349522D01*
X-3269199Y7225463D01*
X-3285368Y7179254D01*
X-3285369Y7179249D01*
X-3305250Y7002792D01*
X-3305565Y7000000D01*
X-3305565Y6999996D01*
X-3304256Y6988386D01*
X-3316309Y6919564D01*
X-3363657Y6868184D01*
X-3427476Y6850500D01*
X-4412372Y6850500D01*
X-4479411Y6870185D01*
X-4512142Y6900866D01*
X-4512143Y6900868D01*
X-4527850Y6922150D01*
X-4637118Y7002793D01*
X-4686604Y7020109D01*
X-4765299Y7047646D01*
X-4795730Y7050500D01*
X-4795734Y7050500D01*
X-5929266Y7050500D01*
X-5929270Y7050500D01*
X-5959699Y7047646D01*
X-5959701Y7047646D01*
X-6023790Y7025219D01*
X-6087882Y7002793D01*
X-6197150Y6922150D01*
X-6277793Y6812882D01*
X-6299217Y6751656D01*
X-6322646Y6684701D01*
X-6322646Y6684699D01*
X-6325500Y6654269D01*
X-6674500Y6654269D01*
X-6677353Y6684699D01*
X-6677353Y6684701D01*
X-6722206Y6812880D01*
X-6722207Y6812882D01*
X-6728014Y6820750D01*
X-6802850Y6922150D01*
X-6912118Y7002793D01*
X-6961604Y7020109D01*
X-7040299Y7047646D01*
X-7070730Y7050500D01*
X-7070734Y7050500D01*
X-8204266Y7050500D01*
X-8204270Y7050500D01*
X-8234699Y7047646D01*
X-8234701Y7047646D01*
X-8298790Y7025219D01*
X-8362882Y7002793D01*
X-8472150Y6922150D01*
X-8482058Y6908724D01*
X-8487857Y6900868D01*
X-8543504Y6858617D01*
X-8587627Y6850501D01*
X-8602727Y6850501D01*
X-8614457Y6847357D01*
X-8662733Y6844193D01*
X-8750000Y6855682D01*
X-8750001Y6855682D01*
X-8802254Y6848802D01*
X-8906762Y6835044D01*
X-9052841Y6774536D01*
X-9178282Y6678282D01*
X-9274536Y6552841D01*
X-9335044Y6406762D01*
X-9342571Y6349589D01*
X-9355682Y6250001D01*
X-9355682Y6249998D01*
X-9350675Y6211967D01*
X-9335044Y6093238D01*
X-9303644Y6017433D01*
X-9296176Y5947967D01*
X-9327451Y5885488D01*
X-9387539Y5849835D01*
X-9434388Y5847044D01*
X-9500000Y5855682D01*
X-9500001Y5855682D01*
X-9529054Y5851857D01*
X-9656762Y5835044D01*
X-9802836Y5774538D01*
X-9802837Y5774538D01*
X-9802837Y5774537D01*
X-9802841Y5774536D01*
X-9833353Y5751123D01*
X-9898520Y5725930D01*
X-9908838Y5725500D01*
X-9937820Y5725500D01*
X-10004859Y5745185D01*
X-10037087Y5775189D01*
X-10117454Y5882546D01*
X-10163643Y5917123D01*
X-10232664Y5968793D01*
X-10232671Y5968797D01*
X-10278986Y5986071D01*
X-10367517Y6019091D01*
X-10427127Y6025500D01*
X-11072872Y6025499D01*
X-11132483Y6019091D01*
X-11267331Y5968796D01*
X-11382546Y5882546D01*
X-11468796Y5767331D01*
X-11519091Y5632483D01*
X-11525500Y5572873D01*
X-21395476Y5572873D01*
X-19655170Y7313181D01*
X-19593847Y7346666D01*
X-19567489Y7349500D01*
X-14006580Y7349500D01*
X-13939541Y7329815D01*
X-13931093Y7323876D01*
X-13928283Y7321720D01*
X-13928282Y7321718D01*
X-13802841Y7225464D01*
X-13802839Y7225463D01*
X-13656762Y7164956D01*
X-13656760Y7164955D01*
X-13500001Y7144318D01*
X-13500000Y7144318D01*
X-13499999Y7144318D01*
X-13343239Y7164955D01*
X-13343237Y7164956D01*
X-13197160Y7225463D01*
X-13071718Y7321718D01*
X-12975463Y7447160D01*
X-12914956Y7593237D01*
X-12914955Y7593239D01*
X-12894318Y7749998D01*
X-12894318Y7750001D01*
X-12914955Y7906760D01*
X-12914956Y7906762D01*
X-12975463Y8052839D01*
X-12975464Y8052841D01*
X-13071718Y8178282D01*
X-13197159Y8274536D01*
X-13343238Y8335044D01*
X-13421619Y8345363D01*
X-13499999Y8355682D01*
X-13500001Y8355682D01*
X-13552254Y8348802D01*
X-13656762Y8335044D01*
X-13802841Y8274536D01*
X-13928282Y8178282D01*
X-13928283Y8178279D01*
X-13931093Y8176124D01*
X-13996263Y8150930D01*
X-14006580Y8150500D01*
X-19732017Y8150500D01*
X-19837471Y8150500D01*
X-19939332Y8123207D01*
X-20030657Y8070480D01*
X-22103247Y5997888D01*
X-22164568Y5964405D01*
X-22234259Y5969389D01*
X-22256944Y5977850D01*
X-22367517Y6019091D01*
X-22427127Y6025500D01*
X-23072872Y6025499D01*
X-23132483Y6019091D01*
X-23267331Y5968796D01*
X-23382546Y5882546D01*
X-23468796Y5767331D01*
X-23519091Y5632483D01*
X-23525500Y5572873D01*
X-37149500Y5572873D01*
X-37149500Y6995572D01*
X-37149184Y7004418D01*
X-37141898Y7106288D01*
X-36850501Y7106288D01*
X-36850501Y6893714D01*
X-36817247Y6683758D01*
X-36751558Y6481589D01*
X-36655052Y6292185D01*
X-36655049Y6292180D01*
X-36530110Y6120214D01*
X-36379787Y5969891D01*
X-36207821Y5844952D01*
X-36207817Y5844950D01*
X-36018413Y5748444D01*
X-35816244Y5682755D01*
X-35816242Y5682754D01*
X-35816241Y5682754D01*
X-35654958Y5657209D01*
X-35606288Y5649501D01*
X-35606287Y5649501D01*
X-35393715Y5649501D01*
X-35393714Y5649501D01*
X-35345043Y5657209D01*
X-35183761Y5682754D01*
X-34981586Y5748445D01*
X-34792180Y5844952D01*
X-34620214Y5969891D01*
X-34469891Y6120214D01*
X-34344952Y6292180D01*
X-34248445Y6481586D01*
X-34182754Y6683761D01*
X-34149501Y6893714D01*
X-34149501Y7106287D01*
X-34182754Y7316240D01*
X-34225292Y7447159D01*
X-34248444Y7518413D01*
X-34248445Y7518415D01*
X-34344952Y7707821D01*
X-34469891Y7879787D01*
X-34620214Y8030110D01*
X-34792180Y8155049D01*
X-34792184Y8155051D01*
X-34792185Y8155052D01*
X-34981589Y8251558D01*
X-35183758Y8317247D01*
X-35393714Y8350501D01*
X-35606288Y8350501D01*
X-35816244Y8317247D01*
X-36018413Y8251558D01*
X-36207817Y8155052D01*
X-36213490Y8150930D01*
X-36379787Y8030110D01*
X-36379789Y8030107D01*
X-36379793Y8030105D01*
X-36530105Y7879793D01*
X-36530107Y7879789D01*
X-36530110Y7879787D01*
X-36624406Y7749998D01*
X-36655052Y7707817D01*
X-36751558Y7518413D01*
X-36817247Y7316244D01*
X-36850501Y7106288D01*
X-37141898Y7106288D01*
X-37133343Y7225904D01*
X-37130825Y7243416D01*
X-37084570Y7456047D01*
X-37079586Y7473023D01*
X-37003536Y7676920D01*
X-36996186Y7693013D01*
X-36891897Y7884004D01*
X-36882332Y7898887D01*
X-36751923Y8073093D01*
X-36740337Y8086464D01*
X-36586464Y8240337D01*
X-36573093Y8251923D01*
X-36398887Y8382332D01*
X-36384004Y8391897D01*
X-36193013Y8496186D01*
X-36176920Y8503536D01*
X-35973023Y8579586D01*
X-35956047Y8584570D01*
X-35743416Y8630825D01*
X-35725904Y8633343D01*
X-35504418Y8649184D01*
X-35495572Y8649500D01*
X-35444486Y8649500D01*
X-724000Y8649500D01*
X-656961Y8629815D01*
G37*
G04 #@! TD.AperFunction*
G04 #@! TA.AperFunction,Conductor*
G36*
X24462263Y8629815D02*
G01*
X24508018Y8577011D01*
X24517962Y8507853D01*
X24488937Y8444297D01*
X24467728Y8426229D01*
X24468274Y8425508D01*
X24463703Y8422056D01*
X24463699Y8422053D01*
X24463698Y8422052D01*
X24348733Y8317247D01*
X24306127Y8278406D01*
X24177632Y8108253D01*
X24082596Y7917394D01*
X24082596Y7917392D01*
X24082595Y7917389D01*
X24073096Y7884004D01*
X24024244Y7712310D01*
X24013471Y7596048D01*
X23987685Y7531111D01*
X23943130Y7499194D01*
X23979503Y7478331D01*
X24011693Y7416318D01*
X24013471Y7403951D01*
X24024244Y7287689D01*
X24082596Y7082607D01*
X24082596Y7082605D01*
X24177632Y6891746D01*
X24282337Y6753097D01*
X24307029Y6687736D01*
X24299348Y6651699D01*
X24317949Y6658638D01*
X24386222Y6643789D01*
X24410338Y6626592D01*
X24463699Y6577947D01*
X24644980Y6465702D01*
X24644982Y6465701D01*
X24843799Y6388680D01*
X24843802Y6388679D01*
X25053390Y6349500D01*
X25053392Y6349500D01*
X25266608Y6349500D01*
X25266610Y6349500D01*
X25476198Y6388679D01*
X25580850Y6429221D01*
X25675017Y6465701D01*
X25675019Y6465702D01*
X25755413Y6515480D01*
X25856302Y6577948D01*
X26013872Y6721593D01*
X26068522Y6793961D01*
X26142367Y6891746D01*
X26237403Y7082605D01*
X26237403Y7082607D01*
X26237405Y7082611D01*
X26295756Y7287690D01*
X26306529Y7403951D01*
X26332315Y7468888D01*
X26376869Y7500804D01*
X26340497Y7521668D01*
X26308307Y7583681D01*
X26306529Y7596048D01*
X26305555Y7606561D01*
X26295756Y7712310D01*
X26237405Y7917389D01*
X26216506Y7959360D01*
X26142367Y8108253D01*
X26142366Y8108253D01*
X26142366Y8108255D01*
X26013872Y8278407D01*
X25856302Y8422052D01*
X25856296Y8422056D01*
X25851726Y8425508D01*
X25853052Y8427264D01*
X25812862Y8472102D01*
X25801759Y8541084D01*
X25829713Y8605118D01*
X25887849Y8643874D01*
X25924776Y8649500D01*
X26935224Y8649500D01*
X27002263Y8629815D01*
X27048018Y8577011D01*
X27057962Y8507853D01*
X27028937Y8444297D01*
X27007728Y8426229D01*
X27008274Y8425508D01*
X27003703Y8422056D01*
X27003699Y8422053D01*
X27003698Y8422052D01*
X26888733Y8317247D01*
X26846127Y8278406D01*
X26717632Y8108253D01*
X26622596Y7917394D01*
X26622596Y7917392D01*
X26622595Y7917389D01*
X26613096Y7884004D01*
X26564244Y7712310D01*
X26553471Y7596048D01*
X26527685Y7531111D01*
X26483130Y7499194D01*
X26519503Y7478331D01*
X26551693Y7416318D01*
X26553471Y7403951D01*
X26564244Y7287689D01*
X26622596Y7082607D01*
X26622596Y7082605D01*
X26717632Y6891746D01*
X26846127Y6721593D01*
X27003699Y6577947D01*
X27184980Y6465702D01*
X27184982Y6465701D01*
X27383799Y6388680D01*
X27383802Y6388679D01*
X27593390Y6349500D01*
X27593392Y6349500D01*
X27806608Y6349500D01*
X27806610Y6349500D01*
X28016198Y6388679D01*
X28120850Y6429221D01*
X28215017Y6465701D01*
X28215019Y6465702D01*
X28295413Y6515480D01*
X28396302Y6577948D01*
X28553872Y6721593D01*
X28608522Y6793961D01*
X28682367Y6891746D01*
X28777403Y7082605D01*
X28777403Y7082607D01*
X28777405Y7082611D01*
X28835756Y7287690D01*
X28855429Y7500000D01*
X28835756Y7712310D01*
X28777405Y7917389D01*
X28756506Y7959360D01*
X28682367Y8108253D01*
X28682366Y8108253D01*
X28682366Y8108255D01*
X28553872Y8278407D01*
X28396302Y8422052D01*
X28396296Y8422056D01*
X28391726Y8425508D01*
X28393052Y8427264D01*
X28352862Y8472102D01*
X28341759Y8541084D01*
X28369713Y8605118D01*
X28427849Y8643874D01*
X28464776Y8649500D01*
X35444486Y8649500D01*
X35495572Y8649500D01*
X35504417Y8649184D01*
X35526836Y8647580D01*
X35725904Y8633342D01*
X35743414Y8630824D01*
X35956046Y8584570D01*
X35973023Y8579586D01*
X36176920Y8503536D01*
X36193013Y8496186D01*
X36384004Y8391897D01*
X36398887Y8382332D01*
X36573093Y8251923D01*
X36586464Y8240337D01*
X36740337Y8086464D01*
X36751923Y8073093D01*
X36882332Y7898887D01*
X36891897Y7884004D01*
X36996186Y7693013D01*
X37003536Y7676920D01*
X37079586Y7473023D01*
X37084570Y7456046D01*
X37130824Y7243414D01*
X37133342Y7225904D01*
X37149184Y7004419D01*
X37149500Y6995572D01*
X37149500Y-6995572D01*
X37149184Y-7004419D01*
X37133342Y-7225904D01*
X37130824Y-7243414D01*
X37084570Y-7456046D01*
X37079586Y-7473023D01*
X37003536Y-7676920D01*
X36996186Y-7693013D01*
X36891897Y-7884004D01*
X36882332Y-7898887D01*
X36751923Y-8073093D01*
X36740337Y-8086464D01*
X36586464Y-8240337D01*
X36573093Y-8251923D01*
X36398887Y-8382332D01*
X36384004Y-8391897D01*
X36193013Y-8496186D01*
X36176920Y-8503536D01*
X35973023Y-8579586D01*
X35956046Y-8584570D01*
X35743414Y-8630824D01*
X35725904Y-8633342D01*
X35539623Y-8646666D01*
X35504417Y-8649184D01*
X35495572Y-8649500D01*
X22898498Y-8649500D01*
X22831459Y-8629815D01*
X22785704Y-8577011D01*
X22775760Y-8507853D01*
X22804785Y-8444297D01*
X22824183Y-8426235D01*
X22882546Y-8382546D01*
X22968796Y-8267331D01*
X23019091Y-8132483D01*
X23025500Y-8072873D01*
X23025499Y-7892254D01*
X23045183Y-7825215D01*
X23061813Y-7804578D01*
X24074573Y-6791819D01*
X24135896Y-6758334D01*
X24162254Y-6755500D01*
X24231492Y-6755500D01*
X24282906Y-6751377D01*
X24312014Y-6749044D01*
X24351018Y-6742750D01*
X24429496Y-6723546D01*
X24465765Y-6711526D01*
X24492203Y-6705872D01*
X24494506Y-6705636D01*
X24507055Y-6705000D01*
X25492943Y-6705000D01*
X25505522Y-6705640D01*
X25507810Y-6705873D01*
X25534228Y-6711525D01*
X25570510Y-6723548D01*
X25648982Y-6742750D01*
X25687986Y-6749044D01*
X25710665Y-6750862D01*
X25768507Y-6755500D01*
X25768516Y-6755500D01*
X25923363Y-6755500D01*
X25923364Y-6755500D01*
X26057211Y-6737458D01*
X26120533Y-6720071D01*
X26140627Y-6711529D01*
X26203739Y-6684699D01*
X26244827Y-6667232D01*
X26356816Y-6576900D01*
X26404403Y-6525741D01*
X26486407Y-6407519D01*
X26489636Y-6401060D01*
X26528143Y-6324047D01*
X26575729Y-6272887D01*
X26639052Y-6255500D01*
X28036905Y-6255500D01*
X28103944Y-6275185D01*
X28149699Y-6327989D01*
X28160021Y-6394283D01*
X28158432Y-6407519D01*
X28149500Y-6481898D01*
X28149500Y-7518102D01*
X28153672Y-7552841D01*
X28160122Y-7606561D01*
X28160122Y-7606563D01*
X28160123Y-7606564D01*
X28177722Y-7651192D01*
X28215639Y-7747343D01*
X28307077Y-7867922D01*
X28427656Y-7959360D01*
X28427657Y-7959360D01*
X28427658Y-7959361D01*
X28568436Y-8014877D01*
X28656898Y-8025500D01*
X28656903Y-8025500D01*
X29243097Y-8025500D01*
X29243102Y-8025500D01*
X29331564Y-8014877D01*
X29472342Y-7959361D01*
X29592922Y-7867922D01*
X29684361Y-7747342D01*
X29739877Y-7606564D01*
X29750500Y-7518102D01*
X29750500Y-7518091D01*
X29750561Y-7517084D01*
X29750651Y-7516831D01*
X29750941Y-7514424D01*
X29751494Y-7514490D01*
X29774219Y-7451342D01*
X29829665Y-7408827D01*
X29874339Y-7400500D01*
X29875661Y-7400500D01*
X29942700Y-7420185D01*
X29988455Y-7472989D01*
X29998784Y-7514456D01*
X29999059Y-7514424D01*
X29999322Y-7516614D01*
X29999439Y-7517084D01*
X29999499Y-7518091D01*
X29999500Y-7518096D01*
X29999500Y-7518102D01*
X29999538Y-7518415D01*
X30010122Y-7606561D01*
X30010122Y-7606563D01*
X30010123Y-7606564D01*
X30027722Y-7651192D01*
X30065639Y-7747343D01*
X30157077Y-7867922D01*
X30277656Y-7959360D01*
X30277657Y-7959360D01*
X30277658Y-7959361D01*
X30418436Y-8014877D01*
X30506898Y-8025500D01*
X30506903Y-8025500D01*
X31093097Y-8025500D01*
X31093102Y-8025500D01*
X31181564Y-8014877D01*
X31322342Y-7959361D01*
X31442922Y-7867922D01*
X31534361Y-7747342D01*
X31589877Y-7606564D01*
X31600500Y-7518102D01*
X31600500Y-7017255D01*
X31620185Y-6950216D01*
X31636819Y-6929574D01*
X31672680Y-6893713D01*
X34149500Y-6893713D01*
X34149500Y-7106287D01*
X34151269Y-7117454D01*
X34182753Y-7316239D01*
X34182753Y-7316241D01*
X34182754Y-7316243D01*
X34248342Y-7518102D01*
X34248444Y-7518414D01*
X34344951Y-7707820D01*
X34469890Y-7879786D01*
X34620213Y-8030109D01*
X34792179Y-8155048D01*
X34792181Y-8155049D01*
X34792184Y-8155051D01*
X34981588Y-8251557D01*
X35183757Y-8317246D01*
X35393713Y-8350500D01*
X35393714Y-8350500D01*
X35606286Y-8350500D01*
X35606287Y-8350500D01*
X35816243Y-8317246D01*
X36018412Y-8251557D01*
X36207816Y-8155051D01*
X36249192Y-8124990D01*
X36379786Y-8030109D01*
X36379788Y-8030106D01*
X36379792Y-8030104D01*
X36530104Y-7879792D01*
X36530108Y-7879787D01*
X36530109Y-7879786D01*
X36655048Y-7707820D01*
X36655050Y-7707817D01*
X36655051Y-7707816D01*
X36751557Y-7518412D01*
X36817246Y-7316243D01*
X36850500Y-7106287D01*
X36850500Y-6893713D01*
X36817246Y-6683757D01*
X36751557Y-6481588D01*
X36655051Y-6292184D01*
X36655049Y-6292181D01*
X36655048Y-6292179D01*
X36530109Y-6120213D01*
X36379786Y-5969890D01*
X36207820Y-5844951D01*
X36018414Y-5748444D01*
X36018413Y-5748443D01*
X36018412Y-5748443D01*
X35816243Y-5682754D01*
X35816241Y-5682753D01*
X35816240Y-5682753D01*
X35654957Y-5657208D01*
X35606287Y-5649500D01*
X35393713Y-5649500D01*
X35345042Y-5657208D01*
X35183760Y-5682753D01*
X34981585Y-5748444D01*
X34792179Y-5844951D01*
X34620213Y-5969890D01*
X34469890Y-6120213D01*
X34344951Y-6292179D01*
X34248444Y-6481585D01*
X34182753Y-6683760D01*
X34160397Y-6824914D01*
X34149500Y-6893713D01*
X31672680Y-6893713D01*
X33093404Y-5472989D01*
X34570480Y-3995913D01*
X34623207Y-3904588D01*
X34650500Y-3802727D01*
X34650500Y-3697273D01*
X34650500Y-3512289D01*
X34670185Y-3445250D01*
X34708529Y-3407295D01*
X34720139Y-3400000D01*
X34752262Y-3379816D01*
X34879816Y-3252262D01*
X34975789Y-3099522D01*
X35035368Y-2929255D01*
X35036979Y-2914956D01*
X35055565Y-2750003D01*
X35055565Y-2749996D01*
X35035369Y-2570750D01*
X35035368Y-2570745D01*
X35019199Y-2524536D01*
X34975789Y-2400478D01*
X34955412Y-2368049D01*
X34896633Y-2274502D01*
X34879816Y-2247738D01*
X34752262Y-2120184D01*
X34701398Y-2088224D01*
X34599521Y-2024210D01*
X34429255Y-1964632D01*
X34429246Y-1964630D01*
X34422012Y-1963815D01*
X34357600Y-1936744D01*
X34348223Y-1928277D01*
X33882626Y-1462680D01*
X33849141Y-1401357D01*
X33854125Y-1331665D01*
X33882622Y-1287323D01*
X34348224Y-821720D01*
X34409545Y-788237D01*
X34422019Y-786183D01*
X34429255Y-785368D01*
X34599522Y-725789D01*
X34752262Y-629816D01*
X34879816Y-502262D01*
X34975789Y-349522D01*
X35035368Y-179255D01*
X35035398Y-178990D01*
X35055565Y-3D01*
X35055565Y3D01*
X35035369Y179249D01*
X35035368Y179254D01*
X35026424Y204815D01*
X34975789Y349522D01*
X34879816Y502262D01*
X34752262Y629816D01*
X34599522Y725789D01*
X34429255Y785368D01*
X34422025Y786182D01*
X34357611Y813245D01*
X34348232Y821712D01*
X33882627Y1287319D01*
X33849142Y1348642D01*
X33854126Y1418334D01*
X33882627Y1462681D01*
X34348223Y1928277D01*
X34409546Y1961762D01*
X34422012Y1963815D01*
X34429246Y1964630D01*
X34429255Y1964632D01*
X34599521Y2024210D01*
X34752262Y2120184D01*
X34879815Y2247737D01*
X34882623Y2252205D01*
X34941940Y2346607D01*
X34975788Y2400476D01*
X34975850Y2400651D01*
X35035368Y2570745D01*
X35042221Y2631561D01*
X35055565Y2750000D01*
X35055565Y2750003D01*
X35035369Y2929249D01*
X35035368Y2929254D01*
X35035368Y2929255D01*
X34975789Y3099522D01*
X34879816Y3252262D01*
X34752262Y3379816D01*
X34708528Y3407295D01*
X34662237Y3459629D01*
X34650500Y3512289D01*
X34650500Y3624807D01*
X34650500Y3624809D01*
X34623207Y3726669D01*
X34623207Y3726670D01*
X34570480Y3817995D01*
X31636819Y6751656D01*
X31603334Y6812979D01*
X31600500Y6839337D01*
X31600500Y7106286D01*
X34149500Y7106286D01*
X34149500Y6893713D01*
X34182753Y6683760D01*
X34248444Y6481585D01*
X34344951Y6292179D01*
X34469890Y6120213D01*
X34620213Y5969890D01*
X34792179Y5844951D01*
X34981585Y5748444D01*
X35183760Y5682753D01*
X35183759Y5682753D01*
X35354202Y5655757D01*
X35393713Y5649500D01*
X35393714Y5649500D01*
X35606286Y5649500D01*
X35606287Y5649500D01*
X35669644Y5659534D01*
X35816239Y5682753D01*
X35816241Y5682753D01*
X35816243Y5682754D01*
X36018412Y5748443D01*
X36055490Y5767335D01*
X36207820Y5844951D01*
X36379786Y5969890D01*
X36530109Y6120213D01*
X36655048Y6292179D01*
X36655051Y6292184D01*
X36751557Y6481588D01*
X36817246Y6683757D01*
X36850500Y6893713D01*
X36850500Y7106287D01*
X36817246Y7316243D01*
X36751557Y7518412D01*
X36655051Y7707816D01*
X36584033Y7805565D01*
X36530109Y7879786D01*
X36530106Y7879788D01*
X36530104Y7879792D01*
X36379792Y8030104D01*
X36379788Y8030106D01*
X36379786Y8030109D01*
X36207820Y8155048D01*
X36207816Y8155051D01*
X36018412Y8251557D01*
X35816243Y8317246D01*
X35606287Y8350500D01*
X35393713Y8350500D01*
X35183757Y8317246D01*
X34981588Y8251557D01*
X34792184Y8155051D01*
X34792181Y8155049D01*
X34792179Y8155048D01*
X34620213Y8030109D01*
X34469890Y7879786D01*
X34344951Y7707820D01*
X34333439Y7685227D01*
X34248443Y7518412D01*
X34182754Y7316243D01*
X34182753Y7316239D01*
X34149500Y7106286D01*
X31600500Y7106286D01*
X31600500Y7518096D01*
X31600500Y7518102D01*
X31589877Y7606564D01*
X31534361Y7747342D01*
X31442922Y7867922D01*
X31322342Y7959361D01*
X31181564Y8014877D01*
X31093102Y8025500D01*
X30506898Y8025500D01*
X30418436Y8014877D01*
X30277658Y7959361D01*
X30277657Y7959360D01*
X30277656Y7959360D01*
X30157077Y7867922D01*
X30065639Y7747343D01*
X30057139Y7725788D01*
X30019293Y7629816D01*
X30010122Y7606561D01*
X30007375Y7583681D01*
X29999500Y7518102D01*
X29999500Y6481898D01*
X30004188Y6442853D01*
X30010122Y6393438D01*
X30065639Y6252656D01*
X30157077Y6132077D01*
X30277656Y6040639D01*
X30418438Y5985122D01*
X30467853Y5979188D01*
X30506898Y5974500D01*
X30506903Y5974500D01*
X31093097Y5974500D01*
X31093102Y5974500D01*
X31148390Y5981139D01*
X31181567Y5985123D01*
X31184331Y5985822D01*
X31186650Y5985733D01*
X31189459Y5986071D01*
X31189512Y5985625D01*
X31254150Y5983168D01*
X31302402Y5953285D01*
X33724124Y3531564D01*
X33757609Y3470241D01*
X33752625Y3400549D01*
X33724124Y3356202D01*
X33620184Y3252262D01*
X33524210Y3099521D01*
X33464632Y2929255D01*
X33464630Y2929246D01*
X33463815Y2922012D01*
X33436744Y2857600D01*
X33428277Y2848223D01*
X32786873Y2206819D01*
X32725550Y2173334D01*
X32699192Y2170500D01*
X32521301Y2170500D01*
X32477968Y2178318D01*
X32473434Y2180009D01*
X32435335Y2194219D01*
X32376915Y2200500D01*
X31463086Y2200499D01*
X31415680Y2195403D01*
X31404664Y2194219D01*
X31304462Y2156846D01*
X31272511Y2144929D01*
X31159597Y2060403D01*
X31096013Y1975464D01*
X31075073Y1947492D01*
X31075069Y1947485D01*
X31031182Y1829815D01*
X31025781Y1815335D01*
X31019500Y1756915D01*
X31019500Y1756906D01*
X31019500Y1527744D01*
X30999815Y1460705D01*
X30947011Y1414950D01*
X30877853Y1405006D01*
X30821189Y1428477D01*
X30767331Y1468796D01*
X30632483Y1519091D01*
X30572873Y1525500D01*
X30077128Y1525499D01*
X30028757Y1520299D01*
X30017516Y1519091D01*
X29882671Y1468797D01*
X29882664Y1468793D01*
X29767455Y1382547D01*
X29767452Y1382544D01*
X29681206Y1267335D01*
X29681202Y1267328D01*
X29637020Y1148867D01*
X29630909Y1132483D01*
X29624500Y1072873D01*
X29624500Y1072864D01*
X29624500Y427129D01*
X29624501Y427123D01*
X29630908Y367516D01*
X29681202Y232671D01*
X29681206Y232664D01*
X29767452Y117455D01*
X29791750Y99266D01*
X29833620Y43332D01*
X29838604Y-26360D01*
X29805118Y-87683D01*
X29791750Y-99266D01*
X29767452Y-117455D01*
X29681206Y-232664D01*
X29681202Y-232671D01*
X29635524Y-355143D01*
X29630909Y-367517D01*
X29624500Y-427127D01*
X29624500Y-427134D01*
X29624500Y-427135D01*
X29624500Y-1072870D01*
X29624501Y-1072876D01*
X29630908Y-1132483D01*
X29681202Y-1267328D01*
X29681206Y-1267335D01*
X29767452Y-1382544D01*
X29767455Y-1382547D01*
X29882664Y-1468793D01*
X29882671Y-1468797D01*
X29893911Y-1472989D01*
X30017517Y-1519091D01*
X30077127Y-1525500D01*
X30496612Y-1525499D01*
X30563651Y-1545183D01*
X30609406Y-1597987D01*
X30619350Y-1667146D01*
X30590325Y-1730702D01*
X30584293Y-1737180D01*
X29908293Y-2413181D01*
X29846970Y-2446666D01*
X29820612Y-2449500D01*
X28820730Y-2449500D01*
X28790301Y-2452353D01*
X28669474Y-2494632D01*
X28660230Y-2496849D01*
X28660377Y-2497397D01*
X28652528Y-2499500D01*
X28652526Y-2499500D01*
X28553726Y-2525973D01*
X28512515Y-2537016D01*
X28386988Y-2609488D01*
X28240321Y-2756155D01*
X28178998Y-2789639D01*
X28109306Y-2784655D01*
X28053373Y-2742783D01*
X28035600Y-2709430D01*
X28027793Y-2687118D01*
X27947150Y-2577850D01*
X27837882Y-2497207D01*
X27837880Y-2497206D01*
X27709700Y-2452353D01*
X27679270Y-2449500D01*
X27679266Y-2449500D01*
X26564646Y-2449500D01*
X26497607Y-2429815D01*
X26451852Y-2377011D01*
X26447165Y-2364447D01*
X26446275Y-2362497D01*
X26372681Y-2247985D01*
X26368486Y-2241457D01*
X26368481Y-2241451D01*
X26322737Y-2188659D01*
X26322733Y-2188656D01*
X26322731Y-2188653D01*
X26213997Y-2094433D01*
X26213994Y-2094431D01*
X26213992Y-2094430D01*
X26083126Y-2034664D01*
X26083121Y-2034662D01*
X26083120Y-2034662D01*
X26016081Y-2014977D01*
X26016083Y-2014977D01*
X26016078Y-2014976D01*
X25954008Y-2006052D01*
X25873661Y-1994500D01*
X24124000Y-1994500D01*
X24123991Y-1994500D01*
X24123990Y-1994501D01*
X24016549Y-2006052D01*
X24016537Y-2006054D01*
X23965027Y-2017260D01*
X23862502Y-2051383D01*
X23862496Y-2051386D01*
X23741462Y-2129171D01*
X23741451Y-2129179D01*
X23688659Y-2174923D01*
X23594433Y-2283664D01*
X23594430Y-2283668D01*
X23534664Y-2414534D01*
X23514976Y-2481582D01*
X23508445Y-2527011D01*
X23495192Y-2619191D01*
X23494500Y-2624001D01*
X23494500Y-2878745D01*
X23474815Y-2945784D01*
X23422011Y-2991539D01*
X23352853Y-3001483D01*
X23289297Y-2972458D01*
X23282819Y-2966426D01*
X23060284Y-2743891D01*
X23026799Y-2682568D01*
X23024675Y-2669463D01*
X23019091Y-2617516D01*
X22968797Y-2482671D01*
X22968793Y-2482664D01*
X22882547Y-2367455D01*
X22882544Y-2367452D01*
X22767335Y-2281206D01*
X22767328Y-2281202D01*
X22632486Y-2230910D01*
X22632485Y-2230909D01*
X22632483Y-2230909D01*
X22572873Y-2224500D01*
X22572863Y-2224500D01*
X22077129Y-2224500D01*
X22077123Y-2224501D01*
X22017516Y-2230908D01*
X21882671Y-2281202D01*
X21882664Y-2281206D01*
X21767455Y-2367452D01*
X21767452Y-2367455D01*
X21681206Y-2482664D01*
X21681202Y-2482671D01*
X21630910Y-2617513D01*
X21630909Y-2617517D01*
X21624500Y-2677127D01*
X21624500Y-2677134D01*
X21624500Y-2677135D01*
X21624500Y-3322870D01*
X21624501Y-3322876D01*
X21630908Y-3382483D01*
X21681202Y-3517328D01*
X21681206Y-3517335D01*
X21767452Y-3632544D01*
X21767455Y-3632547D01*
X21882664Y-3718793D01*
X21882671Y-3718797D01*
X21927618Y-3735561D01*
X22017517Y-3769091D01*
X22077127Y-3775500D01*
X22572872Y-3775499D01*
X22632483Y-3769091D01*
X22738520Y-3729541D01*
X22808208Y-3724558D01*
X22869531Y-3758042D01*
X22903016Y-3819365D01*
X22904789Y-3829538D01*
X22914956Y-3906760D01*
X22914956Y-3906762D01*
X22971414Y-4043065D01*
X22975464Y-4052841D01*
X23071718Y-4178282D01*
X23197159Y-4274536D01*
X23343238Y-4335044D01*
X23386684Y-4340763D01*
X23450580Y-4369028D01*
X23489052Y-4427352D01*
X23494500Y-4463702D01*
X23494500Y-6126000D01*
X23494501Y-6126009D01*
X23499138Y-6169139D01*
X23486733Y-6237898D01*
X23463530Y-6270075D01*
X22776389Y-6957216D01*
X22715066Y-6990701D01*
X22645378Y-6985718D01*
X22632483Y-6980909D01*
X22632482Y-6980908D01*
X22572882Y-6974501D01*
X22572873Y-6974500D01*
X22572863Y-6974500D01*
X22077129Y-6974500D01*
X22077123Y-6974501D01*
X22017516Y-6980908D01*
X21882671Y-7031202D01*
X21882664Y-7031206D01*
X21767455Y-7117452D01*
X21767452Y-7117455D01*
X21681206Y-7232664D01*
X21681202Y-7232671D01*
X21636425Y-7352727D01*
X21630909Y-7367517D01*
X21624500Y-7427127D01*
X21624500Y-7427134D01*
X21624500Y-7427135D01*
X21624500Y-8072870D01*
X21624501Y-8072876D01*
X21630908Y-8132483D01*
X21681202Y-8267328D01*
X21681206Y-8267335D01*
X21718570Y-8317246D01*
X21767454Y-8382546D01*
X21825813Y-8426234D01*
X21867684Y-8482167D01*
X21872668Y-8551859D01*
X21839183Y-8613182D01*
X21777859Y-8646666D01*
X21751502Y-8649500D01*
X21248498Y-8649500D01*
X21181459Y-8629815D01*
X21135704Y-8577011D01*
X21125760Y-8507853D01*
X21154785Y-8444297D01*
X21174183Y-8426235D01*
X21232546Y-8382546D01*
X21318796Y-8267331D01*
X21369091Y-8132483D01*
X21375500Y-8072873D01*
X21375499Y-7427128D01*
X21369091Y-7367517D01*
X21363574Y-7352726D01*
X21318797Y-7232671D01*
X21318793Y-7232664D01*
X21232547Y-7117455D01*
X21232544Y-7117452D01*
X21117335Y-7031206D01*
X21117327Y-7031202D01*
X21110823Y-7028776D01*
X21054891Y-6986904D01*
X21030475Y-6921439D01*
X21045328Y-6853166D01*
X21066478Y-6824914D01*
X21070910Y-6820481D01*
X21070913Y-6820480D01*
X22079574Y-5811817D01*
X22140897Y-5778333D01*
X22167255Y-5775499D01*
X22572871Y-5775499D01*
X22572872Y-5775499D01*
X22632483Y-5769091D01*
X22767331Y-5718796D01*
X22882546Y-5632546D01*
X22968796Y-5517331D01*
X23019091Y-5382483D01*
X23025500Y-5322873D01*
X23025499Y-4677128D01*
X23019091Y-4617517D01*
X23012253Y-4599184D01*
X22968797Y-4482671D01*
X22968793Y-4482664D01*
X22882547Y-4367455D01*
X22882544Y-4367452D01*
X22767335Y-4281206D01*
X22767328Y-4281202D01*
X22632486Y-4230910D01*
X22632485Y-4230909D01*
X22632483Y-4230909D01*
X22572873Y-4224500D01*
X22572863Y-4224500D01*
X22077129Y-4224500D01*
X22077123Y-4224501D01*
X22017516Y-4230908D01*
X21882671Y-4281202D01*
X21882664Y-4281206D01*
X21767455Y-4367452D01*
X21767452Y-4367455D01*
X21681206Y-4482664D01*
X21681202Y-4482671D01*
X21630908Y-4617517D01*
X21624737Y-4674921D01*
X21624501Y-4677123D01*
X21624500Y-4677135D01*
X21624500Y-5082744D01*
X21604815Y-5149783D01*
X21588137Y-5170469D01*
X21587136Y-5171469D01*
X21525797Y-5204923D01*
X21456107Y-5199904D01*
X21400195Y-5158005D01*
X21375811Y-5092528D01*
X21375499Y-5083761D01*
X21375499Y-4677128D01*
X21369091Y-4617517D01*
X21362253Y-4599184D01*
X21318797Y-4482671D01*
X21318793Y-4482664D01*
X21232547Y-4367455D01*
X21232544Y-4367452D01*
X21117335Y-4281206D01*
X21117328Y-4281202D01*
X20982486Y-4230910D01*
X20982485Y-4230909D01*
X20982483Y-4230909D01*
X20922873Y-4224500D01*
X20922863Y-4224500D01*
X20427129Y-4224500D01*
X20427123Y-4224501D01*
X20367516Y-4230908D01*
X20232671Y-4281202D01*
X20232664Y-4281206D01*
X20117455Y-4367452D01*
X20117452Y-4367455D01*
X20031206Y-4482664D01*
X20031203Y-4482669D01*
X20017715Y-4518834D01*
X19975843Y-4574767D01*
X19910379Y-4599184D01*
X19901533Y-4599500D01*
X19847312Y-4599500D01*
X19780273Y-4579815D01*
X19734518Y-4527011D01*
X19724196Y-4490284D01*
X19723282Y-4482671D01*
X19714997Y-4413679D01*
X19683001Y-4332545D01*
X19660112Y-4274502D01*
X19660111Y-4274500D01*
X19569711Y-4155288D01*
X19495224Y-4098804D01*
X19453701Y-4042612D01*
X19449149Y-3972891D01*
X19483013Y-3911777D01*
X19495224Y-3901196D01*
X19569711Y-3844711D01*
X19588931Y-3819365D01*
X19660111Y-3725500D01*
X19714997Y-3586321D01*
X19724196Y-3509714D01*
X19751734Y-3445501D01*
X19809616Y-3406369D01*
X19847312Y-3400500D01*
X19901533Y-3400500D01*
X19968572Y-3420185D01*
X20014327Y-3472989D01*
X20017715Y-3481166D01*
X20031203Y-3517330D01*
X20031206Y-3517335D01*
X20117452Y-3632544D01*
X20117455Y-3632547D01*
X20232664Y-3718793D01*
X20232671Y-3718797D01*
X20277618Y-3735561D01*
X20367517Y-3769091D01*
X20427127Y-3775500D01*
X20922872Y-3775499D01*
X20982483Y-3769091D01*
X21117331Y-3718796D01*
X21232546Y-3632546D01*
X21318796Y-3517331D01*
X21369091Y-3382483D01*
X21375500Y-3322873D01*
X21375499Y-2677128D01*
X21369091Y-2617517D01*
X21366096Y-2609488D01*
X21318797Y-2482671D01*
X21318793Y-2482664D01*
X21232547Y-2367455D01*
X21232544Y-2367452D01*
X21117335Y-2281206D01*
X21117328Y-2281202D01*
X20982486Y-2230910D01*
X20982485Y-2230909D01*
X20982483Y-2230909D01*
X20922873Y-2224500D01*
X20922863Y-2224500D01*
X20427129Y-2224500D01*
X20427123Y-2224501D01*
X20367516Y-2230908D01*
X20232671Y-2281202D01*
X20232664Y-2281206D01*
X20117455Y-2367452D01*
X20117452Y-2367455D01*
X20031206Y-2482664D01*
X20031203Y-2482669D01*
X20017715Y-2518834D01*
X19975843Y-2574767D01*
X19910379Y-2599184D01*
X19901533Y-2599500D01*
X19847312Y-2599500D01*
X19780273Y-2579815D01*
X19734518Y-2527011D01*
X19724196Y-2490284D01*
X19723282Y-2482671D01*
X19714997Y-2413679D01*
X19677487Y-2318561D01*
X19660112Y-2274502D01*
X19660111Y-2274500D01*
X19569711Y-2155288D01*
X19495224Y-2098804D01*
X19453701Y-2042612D01*
X19449149Y-1972891D01*
X19483013Y-1911777D01*
X19495224Y-1901196D01*
X19569711Y-1844711D01*
X19622195Y-1775500D01*
X19660111Y-1725500D01*
X19714997Y-1586321D01*
X19724196Y-1509714D01*
X19751734Y-1445501D01*
X19809616Y-1406369D01*
X19847312Y-1400500D01*
X19901533Y-1400500D01*
X19968572Y-1420185D01*
X20014327Y-1472989D01*
X20017715Y-1481166D01*
X20031203Y-1517330D01*
X20031206Y-1517335D01*
X20117452Y-1632544D01*
X20117455Y-1632547D01*
X20232664Y-1718793D01*
X20232671Y-1718797D01*
X20277618Y-1735561D01*
X20367517Y-1769091D01*
X20427127Y-1775500D01*
X20922872Y-1775499D01*
X20982483Y-1769091D01*
X21117331Y-1718796D01*
X21232546Y-1632546D01*
X21318796Y-1517331D01*
X21369091Y-1382483D01*
X21375500Y-1322873D01*
X21375499Y-677128D01*
X21369091Y-617517D01*
X21367362Y-612882D01*
X21318797Y-482671D01*
X21318793Y-482664D01*
X21232547Y-367455D01*
X21232544Y-367452D01*
X21117335Y-281206D01*
X21117328Y-281202D01*
X20982482Y-230908D01*
X20982483Y-230908D01*
X20922883Y-224501D01*
X20922881Y-224500D01*
X20922873Y-224500D01*
X20922865Y-224500D01*
X20717521Y-224500D01*
X20650482Y-204815D01*
X20604727Y-152011D01*
X20594582Y-84315D01*
X20605682Y-1D01*
X20605682Y0D01*
X20603994Y12818D01*
X20594581Y84317D01*
X20605346Y153349D01*
X20651726Y205605D01*
X20717519Y224500D01*
X20922869Y224500D01*
X20922876Y224501D01*
X20982483Y230908D01*
X21117328Y281202D01*
X21117335Y281206D01*
X21232544Y367452D01*
X21232547Y367455D01*
X21318793Y482664D01*
X21318797Y482671D01*
X21343877Y549914D01*
X21369091Y617517D01*
X21375500Y677127D01*
X21375499Y1322872D01*
X21369091Y1382483D01*
X21331975Y1481993D01*
X21326992Y1551684D01*
X21360477Y1613007D01*
X21421800Y1646492D01*
X21491492Y1641508D01*
X21510145Y1632720D01*
X21514828Y1630017D01*
X21514842Y1630009D01*
X21520410Y1626793D01*
X21520415Y1626791D01*
X21571956Y1612981D01*
X21631616Y1576616D01*
X21662144Y1513769D01*
X21656043Y1449875D01*
X21630910Y1382488D01*
X21630909Y1382484D01*
X21630909Y1382483D01*
X21624500Y1322873D01*
X21624500Y1322864D01*
X21624500Y677129D01*
X21624501Y677123D01*
X21630908Y617516D01*
X21681202Y482671D01*
X21681206Y482664D01*
X21767452Y367455D01*
X21767455Y367452D01*
X21882664Y281206D01*
X21882671Y281202D01*
X22017517Y230908D01*
X22017516Y230908D01*
X22077116Y224501D01*
X22077119Y224500D01*
X22077127Y224500D01*
X22207273Y224500D01*
X22274312Y204815D01*
X22320067Y152011D01*
X22330011Y82853D01*
X22300986Y19297D01*
X22294970Y12836D01*
X22137816Y-144318D01*
X22086217Y-195917D01*
X22024894Y-229401D01*
X22021725Y-229914D01*
X22017512Y-230910D01*
X21882671Y-281202D01*
X21882664Y-281206D01*
X21767455Y-367452D01*
X21767452Y-367455D01*
X21681206Y-482664D01*
X21681202Y-482671D01*
X21632581Y-613033D01*
X21630909Y-617517D01*
X21624500Y-677127D01*
X21624500Y-677134D01*
X21624500Y-677135D01*
X21624500Y-1322870D01*
X21624501Y-1322876D01*
X21630908Y-1382483D01*
X21681202Y-1517328D01*
X21681206Y-1517335D01*
X21767452Y-1632544D01*
X21767455Y-1632547D01*
X21882664Y-1718793D01*
X21882671Y-1718797D01*
X21927618Y-1735561D01*
X22017517Y-1769091D01*
X22077127Y-1775500D01*
X22572872Y-1775499D01*
X22632483Y-1769091D01*
X22767331Y-1718796D01*
X22882546Y-1632546D01*
X22968796Y-1517331D01*
X23019091Y-1382483D01*
X23025500Y-1322873D01*
X23025499Y-677128D01*
X23019091Y-617517D01*
X23019089Y-617513D01*
X23018031Y-613033D01*
X23021767Y-543263D01*
X23062631Y-486589D01*
X23122521Y-461571D01*
X23129709Y-460625D01*
X23275788Y-400117D01*
X23401229Y-303863D01*
X23410969Y-291168D01*
X23467396Y-249965D01*
X23537142Y-245808D01*
X23597028Y-278972D01*
X23809627Y-491571D01*
X23809637Y-491582D01*
X23888536Y-570481D01*
X23913761Y-585044D01*
X23947458Y-604499D01*
X23947459Y-604500D01*
X23979855Y-623204D01*
X23979858Y-623206D01*
X23979860Y-623206D01*
X23979861Y-623207D01*
X24081721Y-650501D01*
X24081723Y-650501D01*
X24194771Y-650501D01*
X24194787Y-650500D01*
X25412372Y-650500D01*
X25479411Y-670185D01*
X25512141Y-700865D01*
X25527850Y-722150D01*
X25637118Y-802793D01*
X25679845Y-817744D01*
X25765299Y-847646D01*
X25795730Y-850500D01*
X25795734Y-850500D01*
X27079270Y-850500D01*
X27109699Y-847646D01*
X27109701Y-847646D01*
X27188727Y-819993D01*
X27237882Y-802793D01*
X27347150Y-722150D01*
X27427793Y-612882D01*
X27454599Y-536275D01*
X27472646Y-484701D01*
X27472646Y-484699D01*
X27475500Y-454269D01*
X27475500Y-45730D01*
X27472646Y-15300D01*
X27472646Y-15298D01*
X27439541Y79308D01*
X27427793Y112882D01*
X27347150Y222150D01*
X27237882Y302793D01*
X27141770Y336424D01*
X27109700Y347646D01*
X27079270Y350500D01*
X27079266Y350500D01*
X25795734Y350500D01*
X25795730Y350500D01*
X25765301Y347646D01*
X25763011Y346845D01*
X25761210Y346753D01*
X25757927Y346036D01*
X25757808Y346579D01*
X25693232Y343284D01*
X25632605Y378013D01*
X25600378Y440007D01*
X25598599Y475467D01*
X25600500Y495733D01*
X25600500Y904269D01*
X25597646Y934699D01*
X25597646Y934701D01*
X25564304Y1029985D01*
X25552793Y1062882D01*
X25472150Y1172150D01*
X25362882Y1252793D01*
X25252012Y1291588D01*
X25234700Y1297646D01*
X25204270Y1300500D01*
X25204266Y1300500D01*
X25087000Y1300500D01*
X25019961Y1320185D01*
X24974206Y1372989D01*
X24963000Y1424500D01*
X24963000Y2280701D01*
X24982685Y2347740D01*
X25035489Y2393495D01*
X25070813Y2403640D01*
X25151156Y2414218D01*
X25156762Y2414956D01*
X25302841Y2475464D01*
X25428282Y2571718D01*
X25524536Y2697159D01*
X25585044Y2843238D01*
X25604587Y2991686D01*
X25632853Y3055582D01*
X25691178Y3094053D01*
X25727526Y3099500D01*
X28224872Y3099500D01*
X28291911Y3079815D01*
X28324642Y3049134D01*
X28340350Y3027850D01*
X28449617Y2947207D01*
X28449619Y2947206D01*
X28577799Y2902353D01*
X28608230Y2899500D01*
X28608234Y2899500D01*
X29891770Y2899500D01*
X29922199Y2902353D01*
X29922201Y2902353D01*
X30050380Y2947206D01*
X30050382Y2947207D01*
X30159650Y3027850D01*
X30240293Y3137118D01*
X30264406Y3206029D01*
X30285146Y3265298D01*
X30285146Y3265300D01*
X30288000Y3295730D01*
X30288000Y3704269D01*
X30285146Y3734699D01*
X30285146Y3734701D01*
X30256001Y3817991D01*
X30240293Y3862882D01*
X30159650Y3972150D01*
X30050382Y4052793D01*
X29964926Y4082695D01*
X29922200Y4097646D01*
X29891770Y4100500D01*
X29891766Y4100500D01*
X28608234Y4100500D01*
X28608230Y4100500D01*
X28577801Y4097646D01*
X28575511Y4096845D01*
X28573710Y4096753D01*
X28570427Y4096036D01*
X28570308Y4096579D01*
X28505732Y4093284D01*
X28445105Y4128013D01*
X28412878Y4190007D01*
X28411099Y4225467D01*
X28413000Y4245733D01*
X28413000Y4654269D01*
X28410146Y4684699D01*
X28410146Y4684701D01*
X28387296Y4750001D01*
X28365293Y4812882D01*
X28284650Y4922150D01*
X28175382Y5002793D01*
X28089926Y5032695D01*
X28047200Y5047646D01*
X28016770Y5050500D01*
X28016766Y5050500D01*
X27388745Y5050500D01*
X27326744Y5067113D01*
X27320914Y5070478D01*
X27320913Y5070480D01*
X27229588Y5123207D01*
X27127727Y5150500D01*
X27127725Y5150500D01*
X26348467Y5150500D01*
X26281428Y5170185D01*
X26235673Y5222989D01*
X26232285Y5231166D01*
X26218796Y5267330D01*
X26218796Y5267331D01*
X26132546Y5382546D01*
X26017331Y5468796D01*
X25882483Y5519091D01*
X25822873Y5525500D01*
X25327128Y5525499D01*
X25278757Y5520299D01*
X25267516Y5519091D01*
X25132671Y5468797D01*
X25132664Y5468793D01*
X25017455Y5382547D01*
X25017452Y5382544D01*
X24931206Y5267335D01*
X24931202Y5267328D01*
X24886564Y5147646D01*
X24880909Y5132483D01*
X24874500Y5072873D01*
X24874500Y5072864D01*
X24874500Y4427129D01*
X24874501Y4427123D01*
X24880908Y4367516D01*
X24931202Y4232671D01*
X24931206Y4232664D01*
X25017452Y4117455D01*
X25017455Y4117452D01*
X25132664Y4031206D01*
X25132669Y4031203D01*
X25193800Y4008403D01*
X25249733Y3966531D01*
X25274150Y3901067D01*
X25259298Y3832794D01*
X25238149Y3804542D01*
X25206321Y3772714D01*
X25175189Y3741582D01*
X25175184Y3741576D01*
X25075008Y3641401D01*
X25013684Y3607917D01*
X25003512Y3606144D01*
X25000001Y3605681D01*
X25000000Y3605682D01*
X24843238Y3585044D01*
X24697159Y3524536D01*
X24571718Y3428282D01*
X24571717Y3428280D01*
X24571716Y3428280D01*
X24569378Y3425233D01*
X24502093Y3337544D01*
X24445669Y3296344D01*
X24375923Y3292189D01*
X24316041Y3325350D01*
X23878570Y3762821D01*
X23845087Y3824142D01*
X23850071Y3893834D01*
X23891943Y3949767D01*
X23957407Y3974184D01*
X23966252Y3974500D01*
X24172869Y3974500D01*
X24172876Y3974501D01*
X24232483Y3980908D01*
X24367328Y4031202D01*
X24367335Y4031206D01*
X24482544Y4117452D01*
X24482547Y4117455D01*
X24568793Y4232664D01*
X24568797Y4232671D01*
X24589505Y4288194D01*
X24619091Y4367517D01*
X24625500Y4427127D01*
X24625499Y5072872D01*
X24619091Y5132483D01*
X24568796Y5267331D01*
X24482546Y5382546D01*
X24375188Y5462914D01*
X24333318Y5518847D01*
X24325500Y5562180D01*
X24325500Y6134660D01*
X24325501Y6134678D01*
X24325501Y6247725D01*
X24325501Y6247727D01*
X24298207Y6349587D01*
X24272891Y6393436D01*
X24245480Y6440913D01*
X24239119Y6447273D01*
X24205635Y6508591D01*
X24209472Y6562288D01*
X24175057Y6554650D01*
X24109491Y6578791D01*
X24095702Y6590689D01*
X23933294Y6753097D01*
X23728192Y6958198D01*
X23694709Y7019520D01*
X23696609Y7079813D01*
X23720834Y7164955D01*
X23755756Y7287690D01*
X23766529Y7403951D01*
X23792315Y7468888D01*
X23836869Y7500804D01*
X23800497Y7521668D01*
X23768307Y7583681D01*
X23766529Y7596048D01*
X23765555Y7606561D01*
X23755756Y7712310D01*
X23697405Y7917389D01*
X23676506Y7959360D01*
X23602367Y8108253D01*
X23602366Y8108253D01*
X23602366Y8108255D01*
X23473872Y8278407D01*
X23316302Y8422052D01*
X23316296Y8422056D01*
X23311726Y8425508D01*
X23313052Y8427264D01*
X23272862Y8472102D01*
X23261759Y8541084D01*
X23289713Y8605118D01*
X23347849Y8643874D01*
X23384776Y8649500D01*
X24395224Y8649500D01*
X24462263Y8629815D01*
G37*
G04 #@! TD.AperFunction*
G04 #@! TA.AperFunction,Conductor*
G36*
X32766231Y-2190185D02*
G01*
X32786873Y-2206819D01*
X33428277Y-2848223D01*
X33461762Y-2909546D01*
X33463815Y-2922012D01*
X33464630Y-2929246D01*
X33464632Y-2929255D01*
X33524210Y-3099521D01*
X33565325Y-3164955D01*
X33620184Y-3252262D01*
X33747738Y-3379816D01*
X33767430Y-3392189D01*
X33791471Y-3407295D01*
X33837763Y-3459629D01*
X33849500Y-3512289D01*
X33849500Y-3532744D01*
X33829815Y-3599783D01*
X33813181Y-3620425D01*
X31430503Y-6003102D01*
X31369180Y-6036587D01*
X31299488Y-6031603D01*
X31297333Y-6030776D01*
X31181563Y-5985122D01*
X31128978Y-5978808D01*
X31093102Y-5974500D01*
X30506898Y-5974500D01*
X30467853Y-5979188D01*
X30418438Y-5985122D01*
X30277656Y-6040639D01*
X30157077Y-6132077D01*
X30065639Y-6252656D01*
X30010122Y-6393438D01*
X30001720Y-6463411D01*
X29999538Y-6481586D01*
X29999499Y-6481908D01*
X29999439Y-6482916D01*
X29999348Y-6483168D01*
X29999059Y-6485576D01*
X29998505Y-6485509D01*
X29975781Y-6548658D01*
X29920335Y-6591173D01*
X29875661Y-6599500D01*
X29874339Y-6599500D01*
X29807300Y-6579815D01*
X29761545Y-6527011D01*
X29751215Y-6485543D01*
X29750941Y-6485576D01*
X29750677Y-6483385D01*
X29750561Y-6482916D01*
X29750500Y-6481908D01*
X29750500Y-6481898D01*
X29739877Y-6393436D01*
X29684361Y-6252658D01*
X29684360Y-6252657D01*
X29684360Y-6252656D01*
X29592922Y-6132077D01*
X29472341Y-6040638D01*
X29472339Y-6040637D01*
X29429010Y-6023550D01*
X29373866Y-5980644D01*
X29350673Y-5914736D01*
X29350500Y-5908196D01*
X29350500Y-5674500D01*
X29370185Y-5607461D01*
X29422989Y-5561706D01*
X29474500Y-5550500D01*
X29954270Y-5550500D01*
X29984699Y-5547646D01*
X29984701Y-5547646D01*
X30048790Y-5525219D01*
X30112882Y-5502793D01*
X30222150Y-5422150D01*
X30302793Y-5312882D01*
X30333382Y-5225463D01*
X30347646Y-5184701D01*
X30347646Y-5184699D01*
X30350500Y-5154269D01*
X30350500Y-4745730D01*
X30347646Y-4715300D01*
X30347646Y-4715298D01*
X30313430Y-4617516D01*
X30302793Y-4587118D01*
X30222150Y-4477850D01*
X30112882Y-4397207D01*
X30112880Y-4397206D01*
X29984700Y-4352353D01*
X29954270Y-4349500D01*
X29954266Y-4349500D01*
X28954388Y-4349500D01*
X28887349Y-4329815D01*
X28866707Y-4313181D01*
X28836819Y-4283293D01*
X28803334Y-4221970D01*
X28800500Y-4195612D01*
X28800500Y-3804388D01*
X28820185Y-3737349D01*
X28836819Y-3716707D01*
X28866707Y-3686819D01*
X28928030Y-3653334D01*
X28954388Y-3650500D01*
X29954270Y-3650500D01*
X29984699Y-3647646D01*
X30041863Y-3627643D01*
X30105524Y-3605368D01*
X30114775Y-3603171D01*
X30114623Y-3602603D01*
X30122471Y-3600500D01*
X30122473Y-3600500D01*
X30122474Y-3600500D01*
X30262484Y-3562984D01*
X30272163Y-3557395D01*
X30280251Y-3552727D01*
X30358328Y-3507649D01*
X30388014Y-3490510D01*
X31641705Y-2236817D01*
X31703028Y-2203333D01*
X31729386Y-2200499D01*
X32376913Y-2200499D01*
X32376914Y-2200499D01*
X32435335Y-2194219D01*
X32477968Y-2178318D01*
X32521301Y-2170500D01*
X32699192Y-2170500D01*
X32766231Y-2190185D01*
G37*
G04 #@! TD.AperFunction*
G04 #@! TA.AperFunction,Conductor*
G36*
X25940700Y-2519685D02*
G01*
X25986455Y-2572489D01*
X25996399Y-2641647D01*
X25992737Y-2658595D01*
X25952402Y-2797426D01*
X25952401Y-2797432D01*
X25949500Y-2834298D01*
X25949500Y-3265701D01*
X25952401Y-3302567D01*
X25952402Y-3302573D01*
X25995076Y-3449455D01*
X26000000Y-3484050D01*
X26000000Y-4000000D01*
X27375500Y-4000000D01*
X27442539Y-4019685D01*
X27488294Y-4072489D01*
X27499500Y-4124000D01*
X27499500Y-4548917D01*
X27499500Y-4548919D01*
X27499499Y-4548919D01*
X27528340Y-4693906D01*
X27528343Y-4693916D01*
X27584912Y-4830487D01*
X27584920Y-4830501D01*
X27615375Y-4876079D01*
X27615376Y-4876082D01*
X27615377Y-4876082D01*
X27667049Y-4953416D01*
X28213681Y-5500048D01*
X28247166Y-5561371D01*
X28250000Y-5587729D01*
X28250000Y-5626000D01*
X28230315Y-5693039D01*
X28177511Y-5738794D01*
X28126000Y-5750000D01*
X26250000Y-5750000D01*
X26249999Y-5750000D01*
X26249998Y-5750001D01*
X26034273Y-6181454D01*
X25986686Y-6232613D01*
X25923364Y-6250000D01*
X25768516Y-6250000D01*
X25729512Y-6243706D01*
X25689100Y-6230315D01*
X25627797Y-6210001D01*
X25627795Y-6210000D01*
X25525010Y-6199500D01*
X24474998Y-6199500D01*
X24474980Y-6199501D01*
X24372203Y-6210000D01*
X24372200Y-6210001D01*
X24270488Y-6243706D01*
X24231484Y-6250000D01*
X24124000Y-6250000D01*
X24056961Y-6230315D01*
X24011206Y-6177511D01*
X24000000Y-6126000D01*
X24000000Y-4433440D01*
X24019685Y-4366401D01*
X24036319Y-4345759D01*
X24129816Y-4252262D01*
X24225789Y-4099522D01*
X24285368Y-3929255D01*
X24285369Y-3929249D01*
X24305565Y-3750003D01*
X24305565Y-3749996D01*
X24285369Y-3570750D01*
X24285368Y-3570745D01*
X24225788Y-3400476D01*
X24164271Y-3302573D01*
X24129816Y-3247738D01*
X24036319Y-3154241D01*
X24002834Y-3092918D01*
X24000000Y-3066560D01*
X24000000Y-2624000D01*
X24019685Y-2556961D01*
X24072489Y-2511206D01*
X24124000Y-2500000D01*
X25873661Y-2500000D01*
X25940700Y-2519685D01*
G37*
G04 #@! TD.AperFunction*
M02*
