M48
; DRILL file {KiCad 8.0.4} date 2025-02-17T13:02:26+1100
; FORMAT={-:-/ absolute / metric / decimal}
; #@! TF.CreationDate,2025-02-17T13:02:26+11:00
; #@! TF.GenerationSoftware,Kicad,Pcbnew,8.0.4
; #@! TF.FileFunction,Plated,1,4,PTH
FMAT,2
METRIC
; #@! TA.AperFunction,Plated,PTH,ViaDrill
T1C0.300
; #@! TA.AperFunction,Plated,PTH,ViaDrill
T2C0.500
; #@! TA.AperFunction,Plated,PTH,ComponentDrill
T3C0.500
; #@! TA.AperFunction,Plated,PTH,ComponentDrill
T4C0.600
; #@! TA.AperFunction,Plated,PTH,ComponentDrill
T5C0.700
; #@! TA.AperFunction,Plated,PTH,ComponentDrill
T6C1.000
%
G90
G05
T1
X-33.5Y4.25
X-33.5Y-4.25
X-27.0Y4.5
X-27.0Y-1.0
X-27.0Y-4.5
X-22.25Y1.25
X-16.0Y-1.0
X-15.0Y4.5
X-15.0Y-4.5
X-13.5Y7.75
X-13.25Y0.75
X-11.75Y-1.0
X-9.5Y5.25
X-9.25Y-1.25
X-9.0Y-3.0
X-9.0Y-6.5
X-9.0Y-7.75
X-8.75Y6.25
X-7.25Y-0.5
X-6.5Y7.5
X-6.25Y1.25
X-5.25Y-0.5
X-5.25Y-7.25
X-3.875Y4.375
X-3.522Y0.423
X-1.18Y-7.63
X-1.0Y-2.0
X1.2Y0.75
X2.0Y1.25
X2.0Y0.25
X2.0Y-0.75
X2.0Y-1.75
X2.0Y-2.75
X2.0Y-3.75
X2.0Y-5.75
X3.0Y1.25
X3.0Y-5.75
X4.0Y1.25
X4.0Y-0.25
X4.0Y-2.25
X4.0Y-4.25
X4.0Y-5.75
X5.0Y1.25
X5.0Y-5.75
X5.5Y-8.2
X6.0Y1.25
X6.0Y-0.25
X6.0Y-2.25
X6.0Y-4.25
X6.0Y-5.75
X6.5Y-8.2
X7.0Y1.25
X7.0Y-5.75
X8.0Y1.25
X8.0Y-0.25
X8.0Y-2.25
X8.0Y-4.25
X8.0Y-5.75
X8.75Y-8.2
X9.0Y1.25
X9.0Y-5.75
X9.75Y-8.2
X10.0Y1.25
X10.0Y0.25
X10.0Y-0.75
X10.0Y-1.75
X10.0Y-2.75
X10.0Y-4.75
X10.0Y-5.75
X13.0Y-0.75
X13.0Y-2.25
X13.0Y-3.5
X13.75Y4.5
X14.25Y-7.5
X15.75Y-3.5
X17.0Y4.75
X19.5Y4.75
X20.0Y0.0
X20.25Y-6.5
X21.0Y6.0
X22.973Y0.124
X23.5Y2.5
X23.5Y-3.75
X25.0Y3.0
X26.75Y-1.75
X27.0Y1.0
X29.5Y5.5
X29.5Y2.25
T2
X25.0Y-3.25
X34.25Y2.75
X34.25Y0.0
X34.25Y-2.75
T3
X-2.5Y7.0
X-2.5Y-7.0
X18.825Y-7.75
T5
X-36.0Y3.0
X-36.0Y0.0
X-36.0Y-3.0
T6
X15.0Y7.5
X17.54Y7.5
X20.08Y7.5
X22.62Y7.5
X25.16Y7.5
X27.7Y7.5
T4
X31.7Y4.32G85X32.3Y4.32
G05
X31.7Y-4.32G85X32.3Y-4.32
G05
X35.5Y4.32G85X36.1Y4.32
G05
X35.5Y-4.32G85X36.1Y-4.32
G05
M30
