G04 #@! TF.GenerationSoftware,KiCad,Pcbnew,8.0.4*
G04 #@! TF.CreationDate,2025-02-14T17:20:51+11:00*
G04 #@! TF.ProjectId,LSG,4c53472e-6b69-4636-9164-5f7063625858,rev?*
G04 #@! TF.SameCoordinates,Original*
G04 #@! TF.FileFunction,Copper,L4,Bot*
G04 #@! TF.FilePolarity,Positive*
%FSLAX46Y46*%
G04 Gerber Fmt 4.6, Leading zero omitted, Abs format (unit mm)*
G04 Created by KiCad (PCBNEW 8.0.4) date 2025-02-14 17:20:51*
%MOMM*%
%LPD*%
G01*
G04 APERTURE LIST*
G04 #@! TA.AperFunction,ComponentPad*
%ADD10C,1.000000*%
G04 #@! TD*
G04 #@! TA.AperFunction,ComponentPad*
%ADD11R,1.500000X1.500000*%
G04 #@! TD*
G04 #@! TA.AperFunction,ComponentPad*
%ADD12O,1.700000X1.100000*%
G04 #@! TD*
G04 #@! TA.AperFunction,ComponentPad*
%ADD13R,1.700000X1.700000*%
G04 #@! TD*
G04 #@! TA.AperFunction,ComponentPad*
%ADD14O,1.700000X1.700000*%
G04 #@! TD*
G04 #@! TA.AperFunction,ViaPad*
%ADD15C,0.600000*%
G04 #@! TD*
G04 #@! TA.AperFunction,ViaPad*
%ADD16C,1.000000*%
G04 #@! TD*
G04 #@! TA.AperFunction,Conductor*
%ADD17C,0.200000*%
G04 #@! TD*
G04 APERTURE END LIST*
D10*
X-2500000Y7000000D03*
D11*
X-36000000Y-3000000D03*
D10*
X18825000Y-7750000D03*
D12*
X32000000Y-4320000D03*
X35800000Y-4320000D03*
X32000000Y4320000D03*
X35800000Y4320000D03*
D11*
X-36000000Y0D03*
D13*
X15000000Y7500000D03*
D14*
X17540000Y7500000D03*
X20080000Y7500000D03*
X22620000Y7500000D03*
X25160000Y7500000D03*
X27700000Y7500000D03*
D11*
X-36000000Y3000000D03*
D10*
X-2500000Y-7000000D03*
D15*
X-16000000Y-1000000D03*
X29500000Y5500000D03*
X10000000Y-750000D03*
X29500000Y2250000D03*
X-27000000Y-4500000D03*
X10000000Y-4750000D03*
X8000000Y1250000D03*
X4000000Y-2250000D03*
X-5250000Y-500000D03*
X23000000Y-6250000D03*
X-33500000Y4250000D03*
X5000000Y1250000D03*
X14250000Y-7500000D03*
X5000000Y-5750000D03*
X-15000000Y-4500000D03*
X17000000Y4750000D03*
X4000000Y-5750000D03*
X-11750000Y-1000000D03*
X10000000Y250000D03*
X3000000Y1250000D03*
X10000000Y-1750000D03*
X6000000Y-2250000D03*
X4000000Y-250000D03*
X7000000Y1250000D03*
X2000000Y1250000D03*
X10000000Y-3750000D03*
X-9000000Y-3000000D03*
X6000000Y-250000D03*
X8000000Y-5750000D03*
X4000000Y-4250000D03*
X8000000Y-250000D03*
X-7250000Y-500000D03*
X3000000Y-5750000D03*
X9000000Y1250000D03*
X10000000Y1250000D03*
X8000000Y-2250000D03*
X2000000Y-750000D03*
X2000000Y-2750000D03*
X8000000Y-4250000D03*
X2000000Y-1750000D03*
X-33500000Y-4250000D03*
X9000000Y-5750000D03*
X4000000Y1250000D03*
X26750000Y-1750000D03*
X6000000Y-5750000D03*
X-27000000Y-1000000D03*
X6000000Y-4250000D03*
X6000000Y1250000D03*
X-6500000Y7500000D03*
X-15000000Y4500000D03*
X13750000Y4500000D03*
X-27000000Y4500000D03*
X27000000Y1000000D03*
X2000000Y250000D03*
X-1000000Y-6000000D03*
X-13500000Y7750000D03*
D16*
X25000000Y-3250000D03*
D15*
X23500000Y2500000D03*
X22972947Y124419D03*
X-9500000Y5250000D03*
X-13250000Y750000D03*
X1199997Y750000D03*
X-3521772Y423242D03*
X-9000000Y-7750000D03*
X5500000Y-8200000D03*
D16*
X34250000Y-2750000D03*
X34250000Y2250000D03*
D15*
X23500000Y-3750000D03*
D16*
X34250000Y0D03*
D15*
X-8750000Y6250000D03*
X-9250000Y-1250000D03*
X-6250000Y1250000D03*
X-1000000Y-2000000D03*
X10000000Y-5750000D03*
X10000000Y-2750000D03*
X13000000Y-3500000D03*
X15750000Y-3500000D03*
X2000000Y-3750000D03*
X2000000Y-5750000D03*
X-22250000Y1250000D03*
X25000000Y3000000D03*
X20000000Y0D03*
X21000000Y6000000D03*
X13000000Y-750000D03*
X19500000Y4750000D03*
X13000000Y-2250000D03*
X-9000000Y-6500000D03*
X9750000Y-8200000D03*
X20250000Y-6500000D03*
X8750000Y-8200000D03*
X6500000Y-8200000D03*
X-5250000Y-7250000D03*
X7000000Y-5750000D03*
X-3875000Y4375000D03*
D17*
X-8500000Y-8250000D02*
X-9000000Y-7750000D01*
X5500000Y-8200000D02*
X5450000Y-8250000D01*
X5450000Y-8250000D02*
X-8500000Y-8250000D01*
X-8900000Y-900000D02*
X-9250000Y-1250000D01*
X-8750000Y6250000D02*
X-8900000Y6100000D01*
X-8900000Y6100000D02*
X-8900000Y-900000D01*
X-1000000Y-1250000D02*
X-3500000Y1250000D01*
X-1000000Y-2000000D02*
X-1000000Y-1250000D01*
X-3500000Y1250000D02*
X-6250000Y1250000D01*
X10000000Y-5750000D02*
X11910000Y-5750000D01*
X11910000Y-5750000D02*
X25160000Y7500000D01*
X27700000Y7200000D02*
X27700000Y7500000D01*
X10000000Y-2750000D02*
X10750000Y-3500000D01*
X2000000Y-3750000D02*
X2600000Y-3150000D01*
X10750000Y-3500000D02*
X13000000Y-3500000D01*
X2600000Y-3150000D02*
X9600000Y-3150000D01*
X26000000Y5500000D02*
X27700000Y7200000D01*
X9600000Y-3150000D02*
X10000000Y-2750000D01*
X15750000Y-3401471D02*
X24651471Y5500000D01*
X24651471Y5500000D02*
X26000000Y5500000D01*
X15750000Y-3500000D02*
X15750000Y-3401471D01*
X-15500000Y1000000D02*
X-22000000Y1000000D01*
X-22000000Y1000000D02*
X-22250000Y1250000D01*
X2000000Y-5750000D02*
X1802941Y-5750000D01*
X-9500000Y-5000000D02*
X-15500000Y1000000D01*
X1802941Y-5750000D02*
X1052941Y-5000000D01*
X1052941Y-5000000D02*
X-9500000Y-5000000D01*
X22000000Y0D02*
X20000000Y0D01*
X25000000Y3000000D02*
X22000000Y0D01*
X21000000Y6000000D02*
X19750000Y6000000D01*
X19750000Y6000000D02*
X13000000Y-750000D01*
X19500000Y4250000D02*
X19500000Y4750000D01*
X13000000Y-2250000D02*
X19500000Y4250000D01*
X-9500000Y-6500000D02*
X-16000000Y0D01*
X-16000000Y0D02*
X-36000000Y0D01*
X-9000000Y-6500000D02*
X-9500000Y-6500000D01*
X18325000Y-8250000D02*
X18825000Y-7750000D01*
X9750000Y-8200000D02*
X9800000Y-8250000D01*
X9800000Y-8250000D02*
X18325000Y-8250000D01*
X10450000Y-6500000D02*
X20250000Y-6500000D01*
X8750000Y-8200000D02*
X10450000Y-6500000D01*
X6500000Y-8200000D02*
X5300000Y-7000000D01*
X5300000Y-7000000D02*
X-1368629Y-7000000D01*
X-2168629Y-6200000D02*
X-4200000Y-6200000D01*
X-1368629Y-7000000D02*
X-2168629Y-6200000D01*
X-4200000Y-6200000D02*
X-5250000Y-7250000D01*
X7000000Y-5750000D02*
X6400000Y-5150000D01*
X599997Y-99997D02*
X599997Y-3349997D01*
X-3875000Y4375000D02*
X599997Y-99997D01*
X599997Y-3349997D02*
X2000000Y-4750000D01*
X6400000Y-5150000D02*
X2400000Y-5150000D01*
X2400000Y-5150000D02*
X2000000Y-4750000D01*
G04 #@! TA.AperFunction,Conductor*
G36*
X-16233058Y-620185D02*
G01*
X-16212415Y-636819D01*
X-9990727Y-6858506D01*
X-9990724Y-6858511D01*
X-9980520Y-6868714D01*
X-9980520Y-6868716D01*
X-9868716Y-6980520D01*
X-9793040Y-7024211D01*
X-9731785Y-7059577D01*
X-9705605Y-7066591D01*
X-9645948Y-7102952D01*
X-9615417Y-7165799D01*
X-9623710Y-7235174D01*
X-9632706Y-7252337D01*
X-9716381Y-7385506D01*
X-9725789Y-7400478D01*
X-9783867Y-7566455D01*
X-9785368Y-7570745D01*
X-9785369Y-7570750D01*
X-9805565Y-7749996D01*
X-9805565Y-7750003D01*
X-9794244Y-7850478D01*
X-9785368Y-7929255D01*
X-9725789Y-8099522D01*
X-9629816Y-8252262D01*
X-9594259Y-8287819D01*
X-9560774Y-8349142D01*
X-9565758Y-8418834D01*
X-9607630Y-8474767D01*
X-9673094Y-8499184D01*
X-9681940Y-8499500D01*
X-34961772Y-8499500D01*
X-35028811Y-8479815D01*
X-35074566Y-8427011D01*
X-35084510Y-8357853D01*
X-35055485Y-8294297D01*
X-35000091Y-8257569D01*
X-34981589Y-8251558D01*
X-34792185Y-8155052D01*
X-34792182Y-8155050D01*
X-34792180Y-8155049D01*
X-34620214Y-8030110D01*
X-34469891Y-7879787D01*
X-34344952Y-7707821D01*
X-34248445Y-7518415D01*
X-34222257Y-7437819D01*
X-34182755Y-7316244D01*
X-34181063Y-7305565D01*
X-34154337Y-7136819D01*
X-34149501Y-7106288D01*
X-34149501Y-6893714D01*
X-34149501Y-6893713D01*
X-34182754Y-6683761D01*
X-34248445Y-6481586D01*
X-34344952Y-6292180D01*
X-34469891Y-6120214D01*
X-34620214Y-5969891D01*
X-34792180Y-5844952D01*
X-34981586Y-5748445D01*
X-35183761Y-5682754D01*
X-35183760Y-5682754D01*
X-35354203Y-5655758D01*
X-35393714Y-5649501D01*
X-35606288Y-5649501D01*
X-35669645Y-5659535D01*
X-35816240Y-5682754D01*
X-35816242Y-5682754D01*
X-35816244Y-5682755D01*
X-36018413Y-5748444D01*
X-36018414Y-5748444D01*
X-36018415Y-5748445D01*
X-36207821Y-5844952D01*
X-36379787Y-5969891D01*
X-36530110Y-6120214D01*
X-36655049Y-6292180D01*
X-36655050Y-6292182D01*
X-36655052Y-6292185D01*
X-36751558Y-6481589D01*
X-36757570Y-6500092D01*
X-36797008Y-6557766D01*
X-36861367Y-6584963D01*
X-36930213Y-6573048D01*
X-36981688Y-6525803D01*
X-36999500Y-6461771D01*
X-36999500Y-1366868D01*
X-36979815Y-1299829D01*
X-36927011Y-1254074D01*
X-36862244Y-1243579D01*
X-36857483Y-1244090D01*
X-36857483Y-1244091D01*
X-36797873Y-1250500D01*
X-35202128Y-1250499D01*
X-35153757Y-1245299D01*
X-35142516Y-1244091D01*
X-35007671Y-1193797D01*
X-35007664Y-1193793D01*
X-34892455Y-1107547D01*
X-34892452Y-1107544D01*
X-34806206Y-992335D01*
X-34806202Y-992328D01*
X-34755908Y-857482D01*
X-34749501Y-797883D01*
X-34749500Y-797864D01*
X-34749500Y-724500D01*
X-34729815Y-657461D01*
X-34677011Y-611706D01*
X-34625500Y-600500D01*
X-16300097Y-600500D01*
X-16233058Y-620185D01*
G37*
G04 #@! TD.AperFunction*
G04 #@! TA.AperFunction,Conductor*
G36*
X10059909Y-3661571D02*
G01*
X10075663Y-3674898D01*
X10265139Y-3864374D01*
X10265149Y-3864385D01*
X10269479Y-3868715D01*
X10269480Y-3868716D01*
X10381284Y-3980520D01*
X10468095Y-4030639D01*
X10468097Y-4030641D01*
X10506151Y-4052611D01*
X10518215Y-4059577D01*
X10670943Y-4100500D01*
X12410902Y-4100500D01*
X12477941Y-4120185D01*
X12523696Y-4172989D01*
X12533640Y-4242147D01*
X12504615Y-4305703D01*
X12498583Y-4312181D01*
X11697584Y-5113181D01*
X11636261Y-5146666D01*
X11609903Y-5149500D01*
X10582412Y-5149500D01*
X10515373Y-5129815D01*
X10505097Y-5122445D01*
X10502263Y-5120185D01*
X10502262Y-5120184D01*
X10445496Y-5084515D01*
X10349523Y-5024211D01*
X10179254Y-4964631D01*
X10179249Y-4964630D01*
X10000004Y-4944435D01*
X9999996Y-4944435D01*
X9820750Y-4964630D01*
X9820745Y-4964631D01*
X9650476Y-5024211D01*
X9497737Y-5120184D01*
X9370184Y-5247737D01*
X9274211Y-5400476D01*
X9214631Y-5570745D01*
X9214630Y-5570750D01*
X9194435Y-5749996D01*
X9194435Y-5750003D01*
X9214630Y-5929249D01*
X9214631Y-5929254D01*
X9274211Y-6099523D01*
X9343332Y-6209527D01*
X9370184Y-6252262D01*
X9497738Y-6379816D01*
X9503156Y-6383220D01*
X9549448Y-6435554D01*
X9560098Y-6504607D01*
X9531724Y-6568456D01*
X9524867Y-6575896D01*
X8731465Y-7369298D01*
X8670142Y-7402783D01*
X8657668Y-7404837D01*
X8570750Y-7414630D01*
X8400478Y-7474210D01*
X8247737Y-7570184D01*
X8120184Y-7697737D01*
X8024211Y-7850476D01*
X7964631Y-8020745D01*
X7964630Y-8020750D01*
X7944435Y-8199996D01*
X7944435Y-8200003D01*
X7962644Y-8361617D01*
X7950589Y-8430439D01*
X7903240Y-8481818D01*
X7839424Y-8499500D01*
X7410576Y-8499500D01*
X7343537Y-8479815D01*
X7297782Y-8427011D01*
X7287356Y-8361617D01*
X7305565Y-8200003D01*
X7305565Y-8199996D01*
X7285369Y-8020750D01*
X7285368Y-8020745D01*
X7236046Y-7879792D01*
X7225789Y-7850478D01*
X7129816Y-7697738D01*
X7002262Y-7570184D01*
X6977021Y-7554324D01*
X6849521Y-7474210D01*
X6679249Y-7414630D01*
X6592330Y-7404837D01*
X6527916Y-7377770D01*
X6518533Y-7369298D01*
X5787590Y-6638355D01*
X5787588Y-6638352D01*
X5668717Y-6519481D01*
X5668709Y-6519475D01*
X5573717Y-6464632D01*
X5573715Y-6464631D01*
X5531790Y-6440425D01*
X5531789Y-6440424D01*
X5513614Y-6435554D01*
X5379057Y-6399499D01*
X5220943Y-6399499D01*
X5213347Y-6399499D01*
X5213331Y-6399500D01*
X2761661Y-6399500D01*
X2694622Y-6379815D01*
X2648867Y-6327011D01*
X2638923Y-6257853D01*
X2656668Y-6209527D01*
X2725788Y-6099523D01*
X2725789Y-6099522D01*
X2785368Y-5929255D01*
X2788794Y-5898855D01*
X2793102Y-5860617D01*
X2820168Y-5796203D01*
X2877763Y-5756648D01*
X2916322Y-5750500D01*
X6083678Y-5750500D01*
X6150717Y-5770185D01*
X6196472Y-5822989D01*
X6206898Y-5860617D01*
X6214630Y-5929249D01*
X6274210Y-6099521D01*
X6306229Y-6150478D01*
X6370184Y-6252262D01*
X6497738Y-6379816D01*
X6529065Y-6399500D01*
X6632721Y-6464632D01*
X6650478Y-6475789D01*
X6775340Y-6519480D01*
X6820745Y-6535368D01*
X6820750Y-6535369D01*
X6999996Y-6555565D01*
X7000000Y-6555565D01*
X7000004Y-6555565D01*
X7179249Y-6535369D01*
X7179252Y-6535368D01*
X7179255Y-6535368D01*
X7349522Y-6475789D01*
X7502262Y-6379816D01*
X7629816Y-6252262D01*
X7725789Y-6099522D01*
X7785368Y-5929255D01*
X7788721Y-5899500D01*
X7805565Y-5750003D01*
X7805565Y-5749996D01*
X7785369Y-5570750D01*
X7785368Y-5570745D01*
X7725788Y-5400476D01*
X7629815Y-5247737D01*
X7502262Y-5120184D01*
X7349521Y-5024210D01*
X7179249Y-4964630D01*
X7092330Y-4954837D01*
X7027916Y-4927770D01*
X7018533Y-4919298D01*
X6887590Y-4788355D01*
X6887588Y-4788352D01*
X6768717Y-4669481D01*
X6768716Y-4669480D01*
X6681904Y-4619360D01*
X6681904Y-4619359D01*
X6681900Y-4619358D01*
X6631785Y-4590423D01*
X6479057Y-4549499D01*
X6320943Y-4549499D01*
X6313347Y-4549499D01*
X6313331Y-4549500D01*
X2700097Y-4549500D01*
X2633058Y-4529815D01*
X2612416Y-4513181D01*
X2578337Y-4479102D01*
X2544852Y-4417779D01*
X2549836Y-4348087D01*
X2578336Y-4303741D01*
X2629816Y-4252262D01*
X2725789Y-4099522D01*
X2785368Y-3929255D01*
X2793101Y-3860616D01*
X2820166Y-3796204D01*
X2877760Y-3756648D01*
X2916321Y-3750500D01*
X9513331Y-3750500D01*
X9513347Y-3750501D01*
X9520943Y-3750501D01*
X9679054Y-3750501D01*
X9679057Y-3750501D01*
X9831785Y-3709577D01*
X9885068Y-3678814D01*
X9925983Y-3655191D01*
X9993881Y-3638719D01*
X10059909Y-3661571D01*
G37*
G04 #@! TD.AperFunction*
G04 #@! TA.AperFunction,Conductor*
G36*
X35028813Y8479815D02*
G01*
X35074568Y8427011D01*
X35084512Y8357853D01*
X35055487Y8294297D01*
X35000093Y8257569D01*
X34981588Y8251557D01*
X34792184Y8155051D01*
X34792181Y8155049D01*
X34792179Y8155048D01*
X34620213Y8030109D01*
X34469890Y7879786D01*
X34344951Y7707820D01*
X34344949Y7707816D01*
X34248443Y7518412D01*
X34182754Y7316243D01*
X34182753Y7316239D01*
X34149500Y7106286D01*
X34149500Y6893713D01*
X34182753Y6683760D01*
X34248444Y6481585D01*
X34344951Y6292179D01*
X34469890Y6120213D01*
X34620213Y5969890D01*
X34792179Y5844951D01*
X34981585Y5748444D01*
X35183760Y5682753D01*
X35183759Y5682753D01*
X35354202Y5655757D01*
X35393713Y5649500D01*
X35393714Y5649500D01*
X35606286Y5649500D01*
X35606287Y5649500D01*
X35669644Y5659534D01*
X35816239Y5682753D01*
X35816241Y5682753D01*
X35816243Y5682754D01*
X36018412Y5748443D01*
X36207816Y5844949D01*
X36207820Y5844951D01*
X36379786Y5969890D01*
X36530109Y6120213D01*
X36655048Y6292179D01*
X36655052Y6292185D01*
X36751557Y6481588D01*
X36757570Y6500094D01*
X36797008Y6557768D01*
X36861367Y6584965D01*
X36930213Y6573050D01*
X36981688Y6525805D01*
X36999500Y6461773D01*
X36999500Y-6461773D01*
X36979815Y-6528812D01*
X36927011Y-6574567D01*
X36857853Y-6584511D01*
X36794297Y-6555486D01*
X36757570Y-6500094D01*
X36751557Y-6481588D01*
X36655051Y-6292184D01*
X36655049Y-6292181D01*
X36655048Y-6292179D01*
X36530109Y-6120213D01*
X36379786Y-5969890D01*
X36207820Y-5844951D01*
X36018414Y-5748444D01*
X36018413Y-5748443D01*
X36018412Y-5748443D01*
X35816243Y-5682754D01*
X35816241Y-5682753D01*
X35816240Y-5682753D01*
X35654957Y-5657208D01*
X35606287Y-5649500D01*
X35393713Y-5649500D01*
X35345042Y-5657208D01*
X35183760Y-5682753D01*
X34981585Y-5748444D01*
X34792179Y-5844951D01*
X34620213Y-5969890D01*
X34469890Y-6120213D01*
X34344951Y-6292179D01*
X34248444Y-6481585D01*
X34182753Y-6683760D01*
X34163815Y-6803334D01*
X34149500Y-6893713D01*
X34149500Y-7106287D01*
X34153227Y-7129816D01*
X34182753Y-7316239D01*
X34182753Y-7316241D01*
X34182754Y-7316243D01*
X34245012Y-7507853D01*
X34248444Y-7518414D01*
X34344951Y-7707820D01*
X34469890Y-7879786D01*
X34620213Y-8030109D01*
X34792179Y-8155048D01*
X34792181Y-8155049D01*
X34792184Y-8155051D01*
X34981588Y-8251557D01*
X35000092Y-8257569D01*
X35057768Y-8297006D01*
X35084966Y-8361365D01*
X35073051Y-8430211D01*
X35025807Y-8481687D01*
X34961774Y-8499500D01*
X19765301Y-8499500D01*
X19698262Y-8479815D01*
X19652507Y-8427011D01*
X19642563Y-8357853D01*
X19659172Y-8314516D01*
X19658039Y-8313911D01*
X19753811Y-8134733D01*
X19753811Y-8134732D01*
X19753814Y-8134727D01*
X19811024Y-7946132D01*
X19830341Y-7750000D01*
X19811024Y-7553868D01*
X19759950Y-7385503D01*
X19759328Y-7315639D01*
X19796576Y-7256526D01*
X19859870Y-7226935D01*
X19919567Y-7232469D01*
X20070737Y-7285366D01*
X20070743Y-7285367D01*
X20070745Y-7285368D01*
X20070746Y-7285368D01*
X20070750Y-7285369D01*
X20249996Y-7305565D01*
X20250000Y-7305565D01*
X20250004Y-7305565D01*
X20429249Y-7285369D01*
X20429252Y-7285368D01*
X20429255Y-7285368D01*
X20599522Y-7225789D01*
X20752262Y-7129816D01*
X20879816Y-7002262D01*
X20975789Y-6849522D01*
X21035368Y-6679255D01*
X21035369Y-6679249D01*
X21055565Y-6500003D01*
X21055565Y-6499996D01*
X21035369Y-6320750D01*
X21035368Y-6320745D01*
X20975788Y-6150476D01*
X20932508Y-6081597D01*
X20879816Y-5997738D01*
X20752262Y-5870184D01*
X20712104Y-5844951D01*
X20599523Y-5774211D01*
X20429254Y-5714631D01*
X20429249Y-5714630D01*
X20250004Y-5694435D01*
X20249996Y-5694435D01*
X20070750Y-5714630D01*
X20070745Y-5714631D01*
X19900476Y-5774211D01*
X19747736Y-5870185D01*
X19744903Y-5872445D01*
X19742724Y-5873334D01*
X19741842Y-5873889D01*
X19741744Y-5873734D01*
X19680217Y-5898855D01*
X19667588Y-5899500D01*
X12909097Y-5899500D01*
X12842058Y-5879815D01*
X12796303Y-5827011D01*
X12786359Y-5757853D01*
X12815384Y-5694297D01*
X12821416Y-5687819D01*
X13261498Y-5247737D01*
X14790186Y-3719047D01*
X14851507Y-3685564D01*
X14921198Y-3690548D01*
X14977132Y-3732420D01*
X14994907Y-3765776D01*
X15024210Y-3849521D01*
X15086231Y-3948226D01*
X15120184Y-4002262D01*
X15247738Y-4129816D01*
X15325713Y-4178811D01*
X15360251Y-4200513D01*
X15400478Y-4225789D01*
X15484930Y-4255340D01*
X15570745Y-4285368D01*
X15570750Y-4285369D01*
X15749996Y-4305565D01*
X15750000Y-4305565D01*
X15750004Y-4305565D01*
X15929249Y-4285369D01*
X15929252Y-4285368D01*
X15929255Y-4285368D01*
X16099522Y-4225789D01*
X16252262Y-4129816D01*
X16379816Y-4002262D01*
X16475789Y-3849522D01*
X16510615Y-3749996D01*
X22694435Y-3749996D01*
X22694435Y-3750003D01*
X22714630Y-3929249D01*
X22714631Y-3929254D01*
X22774211Y-4099523D01*
X22837668Y-4200513D01*
X22870184Y-4252262D01*
X22997738Y-4379816D01*
X23150478Y-4475789D01*
X23320745Y-4535368D01*
X23320750Y-4535369D01*
X23499996Y-4555565D01*
X23500000Y-4555565D01*
X23500004Y-4555565D01*
X23679249Y-4535369D01*
X23679252Y-4535368D01*
X23679255Y-4535368D01*
X23849522Y-4475789D01*
X24002262Y-4379816D01*
X24129816Y-4252262D01*
X24212806Y-4120185D01*
X24229494Y-4093626D01*
X24232024Y-4095215D01*
X24269859Y-4053232D01*
X24337269Y-4034855D01*
X24403913Y-4055841D01*
X24413522Y-4062980D01*
X24441459Y-4085908D01*
X24441467Y-4085913D01*
X24615266Y-4178811D01*
X24615269Y-4178811D01*
X24615273Y-4178814D01*
X24803868Y-4236024D01*
X25000000Y-4255341D01*
X25196132Y-4236024D01*
X25384727Y-4178814D01*
X25558538Y-4085910D01*
X25710883Y-3960883D01*
X25835910Y-3808538D01*
X25905014Y-3679254D01*
X25928811Y-3634733D01*
X25928811Y-3634732D01*
X25928814Y-3634727D01*
X25986024Y-3446132D01*
X26005341Y-3250000D01*
X25986024Y-3053868D01*
X25928814Y-2865273D01*
X25928811Y-2865269D01*
X25928811Y-2865266D01*
X25867200Y-2750000D01*
X33244659Y-2750000D01*
X33263975Y-2946129D01*
X33266617Y-2954837D01*
X33316774Y-3120184D01*
X33321188Y-3134733D01*
X33414086Y-3308532D01*
X33414090Y-3308539D01*
X33539116Y-3460883D01*
X33691460Y-3585909D01*
X33691467Y-3585913D01*
X33865266Y-3678811D01*
X33865269Y-3678811D01*
X33865273Y-3678814D01*
X34053868Y-3736024D01*
X34250000Y-3755341D01*
X34446132Y-3736024D01*
X34634727Y-3678814D01*
X34642054Y-3674898D01*
X34725079Y-3630520D01*
X34808538Y-3585910D01*
X34960883Y-3460883D01*
X35085910Y-3308538D01*
X35178814Y-3134727D01*
X35236024Y-2946132D01*
X35255341Y-2750000D01*
X35236024Y-2553868D01*
X35178814Y-2365273D01*
X35178811Y-2365269D01*
X35178811Y-2365266D01*
X35085913Y-2191467D01*
X35085909Y-2191460D01*
X34960883Y-2039116D01*
X34808539Y-1914090D01*
X34808532Y-1914086D01*
X34634733Y-1821188D01*
X34634727Y-1821186D01*
X34508997Y-1783046D01*
X34446129Y-1763975D01*
X34250000Y-1744659D01*
X34053870Y-1763975D01*
X33865266Y-1821188D01*
X33691467Y-1914086D01*
X33691460Y-1914090D01*
X33539116Y-2039116D01*
X33414090Y-2191460D01*
X33414086Y-2191467D01*
X33321188Y-2365266D01*
X33263975Y-2553870D01*
X33244659Y-2750000D01*
X25867200Y-2750000D01*
X25835913Y-2691467D01*
X25835909Y-2691460D01*
X25710883Y-2539116D01*
X25558539Y-2414090D01*
X25558532Y-2414086D01*
X25384733Y-2321188D01*
X25384727Y-2321186D01*
X25242092Y-2277918D01*
X25196129Y-2263975D01*
X25000000Y-2244659D01*
X24803870Y-2263975D01*
X24615266Y-2321188D01*
X24441467Y-2414086D01*
X24441460Y-2414090D01*
X24289116Y-2539116D01*
X24164090Y-2691460D01*
X24164086Y-2691467D01*
X24071186Y-2865270D01*
X24042341Y-2960358D01*
X24004043Y-3018796D01*
X23940230Y-3047252D01*
X23871164Y-3036690D01*
X23857709Y-3029355D01*
X23849522Y-3024211D01*
X23679254Y-2964631D01*
X23679249Y-2964630D01*
X23500004Y-2944435D01*
X23499996Y-2944435D01*
X23320750Y-2964630D01*
X23320745Y-2964631D01*
X23150476Y-3024211D01*
X22997737Y-3120184D01*
X22870184Y-3247737D01*
X22774211Y-3400476D01*
X22714631Y-3570745D01*
X22714630Y-3570750D01*
X22694435Y-3749996D01*
X16510615Y-3749996D01*
X16535368Y-3679255D01*
X16537361Y-3661571D01*
X16555565Y-3500002D01*
X16555565Y-3496502D01*
X16556205Y-3494322D01*
X16556345Y-3493080D01*
X16556562Y-3493104D01*
X16575250Y-3429463D01*
X16591884Y-3408821D01*
X17976494Y-2024211D01*
X19349916Y-650789D01*
X19411237Y-617306D01*
X19480929Y-622290D01*
X19503567Y-633479D01*
X19650473Y-725787D01*
X19650477Y-725788D01*
X19650478Y-725789D01*
X19713202Y-747737D01*
X19820745Y-785368D01*
X19820750Y-785369D01*
X19999996Y-805565D01*
X20000000Y-805565D01*
X20000004Y-805565D01*
X20179249Y-785369D01*
X20179252Y-785368D01*
X20179255Y-785368D01*
X20349522Y-725789D01*
X20502262Y-629816D01*
X20502267Y-629810D01*
X20505097Y-627555D01*
X20507275Y-626665D01*
X20508158Y-626111D01*
X20508255Y-626265D01*
X20569783Y-601145D01*
X20582412Y-600500D01*
X21913331Y-600500D01*
X21913347Y-600501D01*
X21920943Y-600501D01*
X22079054Y-600501D01*
X22079057Y-600501D01*
X22231785Y-559577D01*
X22293040Y-524211D01*
X22336556Y-499087D01*
X22404454Y-482615D01*
X22463856Y-503175D01*
X22464789Y-501692D01*
X22470684Y-505396D01*
X22470685Y-505397D01*
X22549468Y-554900D01*
X22574693Y-570750D01*
X22623425Y-601370D01*
X22764662Y-650791D01*
X22793692Y-660949D01*
X22793697Y-660950D01*
X22972943Y-681146D01*
X22972947Y-681146D01*
X22972951Y-681146D01*
X23152196Y-660950D01*
X23152199Y-660949D01*
X23152202Y-660949D01*
X23322469Y-601370D01*
X23475209Y-505397D01*
X23602763Y-377843D01*
X23698736Y-225103D01*
X23758315Y-54836D01*
X23758316Y-54830D01*
X23764494Y0D01*
X33244659Y0D01*
X33263975Y-196129D01*
X33321188Y-384733D01*
X33414086Y-558532D01*
X33414090Y-558539D01*
X33539116Y-710883D01*
X33691460Y-835909D01*
X33691467Y-835913D01*
X33865266Y-928811D01*
X33865269Y-928811D01*
X33865273Y-928814D01*
X34053868Y-986024D01*
X34250000Y-1005341D01*
X34446132Y-986024D01*
X34634727Y-928814D01*
X34808538Y-835910D01*
X34960883Y-710883D01*
X35085910Y-558538D01*
X35148215Y-441974D01*
X35178811Y-384733D01*
X35178811Y-384732D01*
X35178814Y-384727D01*
X35236024Y-196132D01*
X35255341Y0D01*
X35236024Y196132D01*
X35178814Y384727D01*
X35158229Y423238D01*
X35085913Y558532D01*
X35085909Y558539D01*
X35072167Y575283D01*
X34960883Y710883D01*
X34808538Y835910D01*
X34721632Y882362D01*
X34634733Y928811D01*
X34634732Y928811D01*
X34634727Y928814D01*
X34446132Y986024D01*
X34288012Y1001597D01*
X34249917Y1016979D01*
X34222937Y1003172D01*
X34211986Y1001597D01*
X34053868Y986024D01*
X33865273Y928814D01*
X33865269Y928811D01*
X33865266Y928811D01*
X33691467Y835913D01*
X33691460Y835909D01*
X33539116Y710883D01*
X33414090Y558539D01*
X33414086Y558532D01*
X33321188Y384733D01*
X33263975Y196129D01*
X33244659Y0D01*
X23764494Y0D01*
X23778512Y124415D01*
X23778512Y124422D01*
X23758316Y303668D01*
X23758315Y303673D01*
X23729951Y384733D01*
X23698736Y473941D01*
X23606425Y620851D01*
X23587426Y688087D01*
X23607794Y754923D01*
X23623739Y774504D01*
X25018534Y2169298D01*
X25079857Y2202783D01*
X25092331Y2204837D01*
X25179249Y2214630D01*
X25280332Y2250000D01*
X33244659Y2250000D01*
X33263975Y2053870D01*
X33321188Y1865266D01*
X33414086Y1691467D01*
X33414090Y1691460D01*
X33539116Y1539116D01*
X33691460Y1414090D01*
X33691467Y1414086D01*
X33865266Y1321188D01*
X34053870Y1263975D01*
X34211986Y1248403D01*
X34250081Y1233020D01*
X34277062Y1246828D01*
X34288010Y1248402D01*
X34309285Y1250498D01*
X34446129Y1263975D01*
X34576744Y1303597D01*
X34634727Y1321186D01*
X34634733Y1321188D01*
X34808532Y1414086D01*
X34808539Y1414090D01*
X34960883Y1539116D01*
X35085909Y1691460D01*
X35085913Y1691467D01*
X35178811Y1865266D01*
X35178811Y1865269D01*
X35178814Y1865273D01*
X35236024Y2053868D01*
X35255341Y2250000D01*
X35236024Y2446132D01*
X35178814Y2634727D01*
X35085910Y2808538D01*
X34960883Y2960883D01*
X34808538Y3085910D01*
X34721632Y3132362D01*
X34634733Y3178811D01*
X34634732Y3178811D01*
X34634727Y3178814D01*
X34446132Y3236024D01*
X34250000Y3255341D01*
X34053868Y3236024D01*
X33865273Y3178814D01*
X33865269Y3178811D01*
X33865266Y3178811D01*
X33691467Y3085913D01*
X33691460Y3085909D01*
X33539116Y2960883D01*
X33414090Y2808539D01*
X33414086Y2808532D01*
X33321188Y2634733D01*
X33263975Y2446129D01*
X33244659Y2250000D01*
X25280332Y2250000D01*
X25349521Y2274210D01*
X25502262Y2370184D01*
X25629815Y2497737D01*
X25725788Y2650476D01*
X25735859Y2679255D01*
X25785368Y2820745D01*
X25805565Y3000000D01*
X25795885Y3085909D01*
X25785369Y3179249D01*
X25785368Y3179254D01*
X25769085Y3225789D01*
X25725789Y3349522D01*
X25629816Y3502262D01*
X25502262Y3629816D01*
X25349522Y3725789D01*
X25179255Y3785368D01*
X25179252Y3785368D01*
X25179249Y3785369D01*
X25000004Y3805565D01*
X24999996Y3805565D01*
X24820750Y3785369D01*
X24820745Y3785368D01*
X24650478Y3725789D01*
X24497738Y3629816D01*
X24497737Y3629815D01*
X24370184Y3502262D01*
X24274210Y3349521D01*
X24245232Y3266705D01*
X24214632Y3179255D01*
X24214632Y3179254D01*
X24212333Y3172683D01*
X24209643Y3173624D01*
X24181771Y3123829D01*
X24120100Y3090989D01*
X24050464Y3096704D01*
X24007333Y3124744D01*
X24002262Y3129816D01*
X23849522Y3225789D01*
X23679255Y3285368D01*
X23679252Y3285368D01*
X23679249Y3285369D01*
X23596731Y3294666D01*
X23581758Y3296353D01*
X23517344Y3323419D01*
X23477789Y3381013D01*
X23475650Y3450850D01*
X23507960Y3507254D01*
X24863887Y4863181D01*
X24925210Y4896666D01*
X24951568Y4899500D01*
X25913331Y4899500D01*
X25913347Y4899499D01*
X25920943Y4899499D01*
X26079054Y4899499D01*
X26079057Y4899499D01*
X26231785Y4940423D01*
X26303424Y4981784D01*
X26368716Y5019480D01*
X26480520Y5131284D01*
X26487588Y5138352D01*
X26487590Y5138355D01*
X27469296Y6120061D01*
X27530619Y6153546D01*
X27567784Y6155908D01*
X27699998Y6144341D01*
X27700000Y6144341D01*
X27700001Y6144341D01*
X27935403Y6164936D01*
X27935413Y6164938D01*
X28163655Y6226094D01*
X28163659Y6226096D01*
X28163663Y6226097D01*
X28377830Y6325965D01*
X28377834Y6325967D01*
X28571395Y6461501D01*
X28571402Y6461506D01*
X28738493Y6628597D01*
X28738495Y6628599D01*
X28861220Y6803868D01*
X28874032Y6822165D01*
X28874034Y6822169D01*
X28874035Y6822170D01*
X28973903Y7036337D01*
X29035063Y7264592D01*
X29055659Y7500000D01*
X29035063Y7735408D01*
X28973903Y7963663D01*
X28874035Y8177829D01*
X28815476Y8261460D01*
X28785426Y8304377D01*
X28763099Y8370583D01*
X28780109Y8438350D01*
X28831057Y8486163D01*
X28887001Y8499500D01*
X34961774Y8499500D01*
X35028813Y8479815D01*
G37*
G04 #@! TD.AperFunction*
G04 #@! TA.AperFunction,Conductor*
G36*
X17897867Y-7120185D02*
G01*
X17943622Y-7172989D01*
X17953566Y-7242147D01*
X17940186Y-7282953D01*
X17896188Y-7365266D01*
X17896186Y-7365273D01*
X17838976Y-7553868D01*
X17838975Y-7553870D01*
X17837208Y-7559698D01*
X17834937Y-7559009D01*
X17807405Y-7611619D01*
X17746683Y-7646182D01*
X17718189Y-7649500D01*
X10449096Y-7649500D01*
X10382057Y-7629815D01*
X10336302Y-7577011D01*
X10326358Y-7507853D01*
X10355383Y-7444297D01*
X10361415Y-7437819D01*
X10482991Y-7316244D01*
X10662416Y-7136819D01*
X10723739Y-7103334D01*
X10750097Y-7100500D01*
X17830828Y-7100500D01*
X17897867Y-7120185D01*
G37*
G04 #@! TD.AperFunction*
G04 #@! TA.AperFunction,Conductor*
G36*
X819883Y-5620185D02*
G01*
X840525Y-5636819D01*
X1238579Y-6034873D01*
X1267939Y-6081597D01*
X1274212Y-6099525D01*
X1274213Y-6099526D01*
X1343332Y-6209527D01*
X1362333Y-6276764D01*
X1341966Y-6343599D01*
X1288698Y-6388814D01*
X1238339Y-6399500D01*
X-1068532Y-6399500D01*
X-1135571Y-6379815D01*
X-1156213Y-6363181D01*
X-1419868Y-6099526D01*
X-1688107Y-5831286D01*
X-1688109Y-5831284D01*
X-1707212Y-5812181D01*
X-1740697Y-5750858D01*
X-1735713Y-5681166D01*
X-1693841Y-5625233D01*
X-1628377Y-5600816D01*
X-1619531Y-5600500D01*
X752844Y-5600500D01*
X819883Y-5620185D01*
G37*
G04 #@! TD.AperFunction*
G04 #@! TA.AperFunction,Conductor*
G36*
X-14114901Y8479815D02*
G01*
X-14069146Y8427011D01*
X-14059202Y8357853D01*
X-14088227Y8294297D01*
X-14094259Y8287819D01*
X-14129816Y8252262D01*
X-14225789Y8099522D01*
X-14273328Y7963663D01*
X-14285368Y7929254D01*
X-14285369Y7929249D01*
X-14305565Y7750003D01*
X-14305565Y7749996D01*
X-14285369Y7570750D01*
X-14285368Y7570745D01*
X-14225789Y7400478D01*
X-14140409Y7264596D01*
X-14129815Y7247737D01*
X-14002262Y7120184D01*
X-13849523Y7024211D01*
X-13679254Y6964631D01*
X-13679249Y6964630D01*
X-13500004Y6944435D01*
X-13500000Y6944435D01*
X-13499996Y6944435D01*
X-13320750Y6964630D01*
X-13320745Y6964631D01*
X-13150476Y7024211D01*
X-12997737Y7120184D01*
X-12870184Y7247737D01*
X-12774211Y7400476D01*
X-12714631Y7570745D01*
X-12714630Y7570750D01*
X-12694435Y7749996D01*
X-12694435Y7750003D01*
X-12714630Y7929249D01*
X-12714631Y7929254D01*
X-12774211Y8099523D01*
X-12870184Y8252262D01*
X-12905741Y8287819D01*
X-12939226Y8349142D01*
X-12934242Y8418834D01*
X-12892370Y8474767D01*
X-12826906Y8499184D01*
X-12818060Y8499500D01*
X-724000Y8499500D01*
X-656961Y8479815D01*
X-611206Y8427011D01*
X-600000Y8375500D01*
X-600000Y3400000D01*
X12600000Y3400000D01*
X12600000Y8375500D01*
X12619685Y8442539D01*
X12672489Y8488294D01*
X12724000Y8499500D01*
X16352999Y8499500D01*
X16420038Y8479815D01*
X16465793Y8427011D01*
X16475737Y8357853D01*
X16454574Y8304377D01*
X16365965Y8177830D01*
X16365964Y8177828D01*
X16316031Y8070746D01*
X16266097Y7963663D01*
X16266096Y7963659D01*
X16266094Y7963655D01*
X16204938Y7735413D01*
X16204936Y7735403D01*
X16184341Y7500000D01*
X16184341Y7499999D01*
X16204936Y7264596D01*
X16204938Y7264586D01*
X16266094Y7036344D01*
X16266096Y7036337D01*
X16266097Y7036337D01*
X16278706Y7009295D01*
X16365965Y6822169D01*
X16365967Y6822165D01*
X16501501Y6628604D01*
X16501506Y6628597D01*
X16668597Y6461506D01*
X16668604Y6461501D01*
X16862165Y6325967D01*
X16862169Y6325965D01*
X17076335Y6226098D01*
X17076344Y6226094D01*
X17304586Y6164938D01*
X17304596Y6164936D01*
X17539999Y6144341D01*
X17540000Y6144341D01*
X17540001Y6144341D01*
X17775403Y6164936D01*
X17775413Y6164938D01*
X18003655Y6226094D01*
X18003659Y6226096D01*
X18003663Y6226097D01*
X18217830Y6325965D01*
X18217834Y6325967D01*
X18411395Y6461501D01*
X18411402Y6461506D01*
X18578493Y6628597D01*
X18578495Y6628599D01*
X18708425Y6814158D01*
X18763002Y6857782D01*
X18832501Y6864975D01*
X18894855Y6833453D01*
X18911575Y6814158D01*
X19041503Y6628601D01*
X19197754Y6472350D01*
X19231238Y6411027D01*
X19226254Y6341335D01*
X19197754Y6296990D01*
X16080020Y3179255D01*
X12981465Y80700D01*
X12920142Y47215D01*
X12907686Y45163D01*
X12820745Y35368D01*
X12788860Y24211D01*
X12650478Y-24210D01*
X12497737Y-120184D01*
X12370184Y-247737D01*
X12274211Y-400476D01*
X12214631Y-570745D01*
X12214630Y-570750D01*
X12194435Y-749996D01*
X12194435Y-750003D01*
X12214630Y-929249D01*
X12214631Y-929254D01*
X12274211Y-1099523D01*
X12319089Y-1170945D01*
X12370184Y-1252262D01*
X12497738Y-1379816D01*
X12521913Y-1395006D01*
X12568204Y-1447341D01*
X12578852Y-1516395D01*
X12550477Y-1580243D01*
X12521913Y-1604994D01*
X12497737Y-1620184D01*
X12370184Y-1747737D01*
X12274211Y-1900476D01*
X12214631Y-2070745D01*
X12214630Y-2070750D01*
X12194435Y-2249996D01*
X12194435Y-2250003D01*
X12214630Y-2429249D01*
X12214631Y-2429254D01*
X12274211Y-2599524D01*
X12343332Y-2709527D01*
X12362333Y-2776764D01*
X12341966Y-2843599D01*
X12288698Y-2888814D01*
X12238339Y-2899500D01*
X11050097Y-2899500D01*
X10983058Y-2879815D01*
X10962416Y-2863181D01*
X10830700Y-2731465D01*
X10797215Y-2670142D01*
X10795163Y-2657686D01*
X10785368Y-2570745D01*
X10725789Y-2400478D01*
X10629816Y-2247738D01*
X10502262Y-2120184D01*
X10349523Y-2024211D01*
X10179254Y-1964631D01*
X10179249Y-1964630D01*
X10000004Y-1944435D01*
X9999996Y-1944435D01*
X9820750Y-1964630D01*
X9820745Y-1964631D01*
X9650476Y-2024211D01*
X9497737Y-2120184D01*
X9370184Y-2247737D01*
X9274210Y-2400478D01*
X9251125Y-2466454D01*
X9210403Y-2523230D01*
X9145451Y-2548978D01*
X9134083Y-2549500D01*
X2520943Y-2549500D01*
X2368214Y-2590423D01*
X2319213Y-2618715D01*
X2319211Y-2618715D01*
X2231290Y-2669475D01*
X2231282Y-2669481D01*
X2174976Y-2725788D01*
X2119480Y-2781284D01*
X2119478Y-2781286D01*
X2037583Y-2863181D01*
X1981465Y-2919299D01*
X1920142Y-2952783D01*
X1907668Y-2954837D01*
X1820750Y-2964630D01*
X1650478Y-3024210D01*
X1497737Y-3120184D01*
X1446258Y-3171663D01*
X1384935Y-3205147D01*
X1315243Y-3200162D01*
X1270897Y-3171662D01*
X1236816Y-3137581D01*
X1203331Y-3076258D01*
X1200497Y-3049900D01*
X1200497Y-166321D01*
X1220182Y-99282D01*
X1272986Y-53527D01*
X1310609Y-43101D01*
X1379252Y-35368D01*
X1505384Y8767D01*
X1549520Y24211D01*
X1702259Y120184D01*
X1829812Y247737D01*
X1925785Y400476D01*
X1985365Y570745D01*
X1985366Y570750D01*
X2005562Y749996D01*
X2005562Y750003D01*
X1985366Y929249D01*
X1985365Y929254D01*
X1983978Y933218D01*
X1925786Y1099522D01*
X1829813Y1252262D01*
X1702259Y1379816D01*
X1549519Y1475789D01*
X1379252Y1535368D01*
X1379249Y1535368D01*
X1379246Y1535369D01*
X1200001Y1555565D01*
X1199993Y1555565D01*
X1020747Y1535369D01*
X1020742Y1535368D01*
X850475Y1475789D01*
X697735Y1379816D01*
X697734Y1379815D01*
X570181Y1252262D01*
X470503Y1093626D01*
X467912Y1095253D01*
X430027Y1053461D01*
X362563Y1035284D01*
X295981Y1056466D01*
X277666Y1071567D01*
X-3044298Y4393533D01*
X-3077783Y4454856D01*
X-3079837Y4467330D01*
X-3089630Y4554249D01*
X-3149210Y4724521D01*
X-3245184Y4877262D01*
X-3372737Y5004815D01*
X-3372738Y5004816D01*
X-3477671Y5070750D01*
X-3525476Y5100788D01*
X-3525478Y5100789D01*
X-3695745Y5160368D01*
X-3695750Y5160369D01*
X-3874996Y5180565D01*
X-3875004Y5180565D01*
X-4054249Y5160369D01*
X-4054252Y5160368D01*
X-4054255Y5160368D01*
X-4224522Y5100789D01*
X-4377262Y5004816D01*
X-4504816Y4877262D01*
X-4600789Y4724522D01*
X-4600789Y4724521D01*
X-4660368Y4554254D01*
X-4660369Y4554249D01*
X-4680565Y4375003D01*
X-4680565Y4374996D01*
X-4660369Y4195750D01*
X-4660368Y4195745D01*
X-4600788Y4025476D01*
X-4564735Y3968099D01*
X-4510186Y3881284D01*
X-4504815Y3872737D01*
X-4377262Y3745184D01*
X-4224521Y3649210D01*
X-4054249Y3589630D01*
X-3967330Y3579837D01*
X-3902916Y3552770D01*
X-3893533Y3544298D01*
X-1963609Y1614374D01*
X-36822Y-312412D01*
X-3337Y-373735D01*
X-503Y-400093D01*
X-503Y-1702877D01*
X-20188Y-1769916D01*
X-72992Y-1815671D01*
X-142150Y-1825615D01*
X-205706Y-1796590D01*
X-241545Y-1743832D01*
X-274211Y-1650476D01*
X-370186Y-1497734D01*
X-372450Y-1494896D01*
X-373340Y-1492715D01*
X-373889Y-1491842D01*
X-373735Y-1491745D01*
X-398856Y-1430209D01*
X-399500Y-1417587D01*
X-399500Y-1339059D01*
X-399499Y-1339046D01*
X-399499Y-1170945D01*
X-399498Y-1170945D01*
X-440424Y-1018210D01*
X-440425Y-1018209D01*
X-469359Y-968096D01*
X-469361Y-968094D01*
X-492041Y-928811D01*
X-508398Y-900478D01*
X-519479Y-881285D01*
X-519481Y-881282D01*
X-631286Y-769478D01*
X-1801242Y400478D01*
X-3015139Y1614374D01*
X-3015149Y1614385D01*
X-3059292Y1658528D01*
X-3131284Y1730520D01*
X-3131286Y1730521D01*
X-3131290Y1730524D01*
X-3233064Y1789283D01*
X-3233066Y1789284D01*
X-3268209Y1809574D01*
X-3268210Y1809575D01*
X-3268212Y1809575D01*
X-3268215Y1809577D01*
X-3420943Y1850501D01*
X-3579057Y1850501D01*
X-3586653Y1850501D01*
X-3586669Y1850500D01*
X-5667588Y1850500D01*
X-5734627Y1870185D01*
X-5744903Y1877555D01*
X-5747736Y1879814D01*
X-5747738Y1879816D01*
X-5900478Y1975789D01*
X-6070745Y2035368D01*
X-6070750Y2035369D01*
X-6249996Y2055565D01*
X-6250004Y2055565D01*
X-6429249Y2035369D01*
X-6429252Y2035368D01*
X-6429255Y2035368D01*
X-6599522Y1975789D01*
X-6752262Y1879816D01*
X-6879816Y1752262D01*
X-6975789Y1599522D01*
X-7019085Y1475789D01*
X-7035368Y1429254D01*
X-7035369Y1429249D01*
X-7055565Y1250003D01*
X-7055565Y1249996D01*
X-7035369Y1070750D01*
X-7035368Y1070745D01*
X-6985859Y929255D01*
X-6975788Y900476D01*
X-6936582Y838080D01*
X-6879816Y747738D01*
X-6752262Y620184D01*
X-6695496Y584515D01*
X-6599523Y524211D01*
X-6429254Y464631D01*
X-6429249Y464630D01*
X-6250004Y444435D01*
X-6250000Y444435D01*
X-6249996Y444435D01*
X-6070750Y464630D01*
X-6070745Y464631D01*
X-5900476Y524211D01*
X-5747736Y620185D01*
X-5744903Y622445D01*
X-5742724Y623334D01*
X-5741842Y623889D01*
X-5741744Y623734D01*
X-5680217Y648855D01*
X-5667588Y649500D01*
X-4440600Y649500D01*
X-4373561Y629815D01*
X-4327806Y577011D01*
X-4317380Y511616D01*
X-4327337Y423244D01*
X-4327337Y423238D01*
X-4307563Y247738D01*
X-4307140Y243987D01*
X-4247561Y73720D01*
X-4151588Y-79020D01*
X-4024034Y-206574D01*
X-3871294Y-302547D01*
X-3701027Y-362126D01*
X-3701024Y-362126D01*
X-3701021Y-362127D01*
X-3521776Y-382323D01*
X-3521772Y-382323D01*
X-3521768Y-382323D01*
X-3342522Y-362127D01*
X-3342517Y-362126D01*
X-3172247Y-302546D01*
X-3052890Y-227548D01*
X-3025337Y-210235D01*
X-2958102Y-191235D01*
X-2891267Y-211602D01*
X-2871690Y-227543D01*
X-1688809Y-1410424D01*
X-1655326Y-1471745D01*
X-1660310Y-1541437D01*
X-1671499Y-1564076D01*
X-1725788Y-1650475D01*
X-1785368Y-1820745D01*
X-1785369Y-1820750D01*
X-1805565Y-1999996D01*
X-1805565Y-2000003D01*
X-1785369Y-2179249D01*
X-1785368Y-2179255D01*
X-1725789Y-2349522D01*
X-1629816Y-2502262D01*
X-1502262Y-2629816D01*
X-1349522Y-2725789D01*
X-1179255Y-2785368D01*
X-1179252Y-2785368D01*
X-1179249Y-2785369D01*
X-1000004Y-2805565D01*
X-1000000Y-2805565D01*
X-999996Y-2805565D01*
X-820750Y-2785369D01*
X-820745Y-2785368D01*
X-796156Y-2776764D01*
X-650478Y-2725789D01*
X-497738Y-2629816D01*
X-370184Y-2502262D01*
X-347684Y-2466454D01*
X-274210Y-2349521D01*
X-241545Y-2256168D01*
X-200823Y-2199392D01*
X-135871Y-2173644D01*
X-67309Y-2187100D01*
X-16906Y-2235487D01*
X-503Y-2297122D01*
X-503Y-3263327D01*
X-504Y-3263345D01*
X-504Y-3270940D01*
X-504Y-3429054D01*
X16985Y-3494322D01*
X37462Y-3570745D01*
X40420Y-3581782D01*
X46998Y-3593176D01*
X47000Y-3593182D01*
X47002Y-3593182D01*
X119474Y-3718709D01*
X119478Y-3718714D01*
X238346Y-3837582D01*
X238352Y-3837587D01*
X588584Y-4187819D01*
X622069Y-4249142D01*
X617085Y-4318834D01*
X575213Y-4374767D01*
X509749Y-4399184D01*
X500903Y-4399500D01*
X-9199903Y-4399500D01*
X-9266942Y-4379815D01*
X-9287584Y-4363181D01*
X-13388455Y-262309D01*
X-13421940Y-200986D01*
X-13416956Y-131294D01*
X-13375084Y-75361D01*
X-13309620Y-50944D01*
X-13286896Y-51407D01*
X-13250000Y-55565D01*
X-13249996Y-55565D01*
X-13070750Y-35369D01*
X-13070745Y-35368D01*
X-12900476Y24211D01*
X-12747737Y120184D01*
X-12620184Y247737D01*
X-12524211Y400476D01*
X-12464631Y570745D01*
X-12464630Y570750D01*
X-12444435Y749996D01*
X-12444435Y750003D01*
X-12464630Y929249D01*
X-12464631Y929254D01*
X-12524211Y1099523D01*
X-12620184Y1252262D01*
X-12747737Y1379815D01*
X-12747738Y1379816D01*
X-12900478Y1475789D01*
X-13070745Y1535368D01*
X-13070750Y1535369D01*
X-13249996Y1555565D01*
X-13250004Y1555565D01*
X-13429249Y1535369D01*
X-13429252Y1535368D01*
X-13429255Y1535368D01*
X-13599522Y1475789D01*
X-13752262Y1379816D01*
X-13879816Y1252262D01*
X-13975789Y1099522D01*
X-14033981Y933218D01*
X-14035368Y929254D01*
X-14035369Y929249D01*
X-14055010Y754923D01*
X-14055565Y750000D01*
X-14051408Y713108D01*
X-14063462Y644288D01*
X-14110810Y592908D01*
X-14178420Y575283D01*
X-14244826Y597008D01*
X-14262309Y611544D01*
X-15015139Y1364374D01*
X-15015149Y1364385D01*
X-15131285Y1480521D01*
X-15165115Y1500052D01*
X-15232778Y1539117D01*
X-15268215Y1559577D01*
X-15420943Y1600501D01*
X-15579057Y1600501D01*
X-15586653Y1600501D01*
X-15586669Y1600500D01*
X-21456293Y1600500D01*
X-21523332Y1620185D01*
X-21561287Y1658528D01*
X-21620184Y1752262D01*
X-21747737Y1879815D01*
X-21747738Y1879816D01*
X-21900478Y1975789D01*
X-22070745Y2035368D01*
X-22070750Y2035369D01*
X-22249996Y2055565D01*
X-22250004Y2055565D01*
X-22429249Y2035369D01*
X-22429252Y2035368D01*
X-22429255Y2035368D01*
X-22599522Y1975789D01*
X-22752262Y1879816D01*
X-22879816Y1752262D01*
X-22975789Y1599522D01*
X-23019085Y1475789D01*
X-23035368Y1429254D01*
X-23035369Y1429249D01*
X-23055565Y1250003D01*
X-23055565Y1249996D01*
X-23035369Y1070750D01*
X-23035368Y1070745D01*
X-22975788Y900475D01*
X-22906668Y790473D01*
X-22887667Y723236D01*
X-22908034Y656401D01*
X-22961302Y611186D01*
X-23011661Y600500D01*
X-34625501Y600500D01*
X-34692540Y620185D01*
X-34738295Y672989D01*
X-34749501Y724500D01*
X-34749501Y797876D01*
X-34755908Y857483D01*
X-34806202Y992328D01*
X-34806206Y992335D01*
X-34892452Y1107544D01*
X-34892455Y1107547D01*
X-35007664Y1193793D01*
X-35007671Y1193797D01*
X-35142517Y1244091D01*
X-35142516Y1244091D01*
X-35148925Y1244779D01*
X-35202127Y1250500D01*
X-36797872Y1250499D01*
X-36851407Y1244744D01*
X-36862247Y1243579D01*
X-36931006Y1255986D01*
X-36982143Y1303597D01*
X-36999500Y1366869D01*
X-36999500Y1633131D01*
X-36979815Y1700170D01*
X-36927011Y1745925D01*
X-36862246Y1756421D01*
X-36857483Y1755909D01*
X-36797873Y1749500D01*
X-36797865Y1749500D01*
X-35202129Y1749500D01*
X-35202123Y1749501D01*
X-35142516Y1755908D01*
X-35007671Y1806202D01*
X-35007664Y1806206D01*
X-34892455Y1892452D01*
X-34892452Y1892455D01*
X-34806206Y2007664D01*
X-34806202Y2007671D01*
X-34755908Y2142517D01*
X-34749501Y2202116D01*
X-34749500Y2202135D01*
X-34749500Y3797870D01*
X-34749501Y3797876D01*
X-34755908Y3857483D01*
X-34806202Y3992328D01*
X-34806206Y3992335D01*
X-34892452Y4107544D01*
X-34892455Y4107547D01*
X-35007664Y4193793D01*
X-35007671Y4193797D01*
X-35142517Y4244091D01*
X-35142516Y4244091D01*
X-35150004Y4244896D01*
X-35202127Y4250500D01*
X-36797872Y4250499D01*
X-36849994Y4244896D01*
X-36862247Y4243579D01*
X-36931006Y4255986D01*
X-36982143Y4303597D01*
X-36999500Y4366869D01*
X-36999500Y5250003D01*
X-10305565Y5250003D01*
X-10305565Y5249996D01*
X-10285369Y5070750D01*
X-10285368Y5070745D01*
X-10235859Y4929255D01*
X-10225788Y4900476D01*
X-10202354Y4863181D01*
X-10131235Y4749996D01*
X-10129815Y4747737D01*
X-10002262Y4620184D01*
X-9849521Y4524210D01*
X-9679249Y4464630D01*
X-9610616Y4456897D01*
X-9546202Y4429830D01*
X-9506647Y4372235D01*
X-9500500Y4333677D01*
X-9500500Y-401579D01*
X-9520185Y-468618D01*
X-9572989Y-514373D01*
X-9583535Y-518616D01*
X-9597785Y-523603D01*
X-9599525Y-524212D01*
X-9720935Y-600500D01*
X-9752262Y-620184D01*
X-9879816Y-747738D01*
X-9921041Y-813347D01*
X-9963727Y-881282D01*
X-9975789Y-900478D01*
X-10003284Y-979055D01*
X-10035368Y-1070745D01*
X-10035369Y-1070750D01*
X-10055565Y-1249996D01*
X-10055565Y-1250003D01*
X-10039227Y-1395006D01*
X-10035368Y-1429255D01*
X-9975789Y-1599522D01*
X-9879816Y-1752262D01*
X-9752262Y-1879816D01*
X-9599522Y-1975789D01*
X-9429255Y-2035368D01*
X-9429252Y-2035368D01*
X-9429249Y-2035369D01*
X-9250004Y-2055565D01*
X-9250000Y-2055565D01*
X-9249996Y-2055565D01*
X-9070750Y-2035369D01*
X-9070745Y-2035368D01*
X-8969678Y-2000003D01*
X-8900478Y-1975789D01*
X-8882721Y-1964632D01*
X-8802285Y-1914090D01*
X-8747738Y-1879816D01*
X-8620184Y-1752262D01*
X-8556229Y-1650478D01*
X-8524210Y-1599521D01*
X-8464630Y-1429249D01*
X-8454837Y-1342331D01*
X-8427770Y-1277917D01*
X-8419582Y-1268848D01*
X-8419475Y-1268709D01*
X-8340426Y-1131790D01*
X-8340423Y-1131785D01*
X-8309992Y-1018215D01*
X-8299499Y-979057D01*
X-8299499Y-820942D01*
X-8299499Y-813347D01*
X-8299500Y-813329D01*
X-8299500Y5519190D01*
X-8279815Y5586229D01*
X-8252815Y5616135D01*
X-8247738Y5620183D01*
X-8120184Y5747737D01*
X-8024211Y5900476D01*
X-7964631Y6070745D01*
X-7964630Y6070750D01*
X-7944435Y6249996D01*
X-7944435Y6250003D01*
X-7964630Y6429249D01*
X-7964631Y6429254D01*
X-8024211Y6599523D01*
X-8120184Y6752262D01*
X-8247737Y6879815D01*
X-8247738Y6879816D01*
X-8350578Y6944435D01*
X-8400476Y6975788D01*
X-8400478Y6975789D01*
X-8469669Y7000000D01*
X-3505341Y7000000D01*
X-3486024Y6803868D01*
X-3428814Y6615273D01*
X-3428811Y6615269D01*
X-3428811Y6615266D01*
X-3335913Y6441467D01*
X-3335909Y6441460D01*
X-3210883Y6289116D01*
X-3058539Y6164090D01*
X-3058532Y6164086D01*
X-2884733Y6071188D01*
X-2884727Y6071186D01*
X-2822488Y6052306D01*
X-2696129Y6013975D01*
X-2500000Y5994659D01*
X-2303870Y6013975D01*
X-2115266Y6071188D01*
X-1941467Y6164086D01*
X-1941460Y6164090D01*
X-1789116Y6289116D01*
X-1664090Y6441460D01*
X-1664086Y6441467D01*
X-1571188Y6615266D01*
X-1513975Y6803870D01*
X-1494659Y7000000D01*
X-1513975Y7196129D01*
X-1550411Y7316240D01*
X-1571186Y7384727D01*
X-1571188Y7384733D01*
X-1664086Y7558532D01*
X-1664090Y7558539D01*
X-1789116Y7710883D01*
X-1941460Y7835909D01*
X-1941467Y7835913D01*
X-2115266Y7928811D01*
X-2115269Y7928811D01*
X-2115273Y7928814D01*
X-2303868Y7986024D01*
X-2500000Y8005341D01*
X-2696132Y7986024D01*
X-2884727Y7928814D01*
X-3058538Y7835910D01*
X-3210883Y7710883D01*
X-3335910Y7558538D01*
X-3428814Y7384727D01*
X-3486024Y7196132D01*
X-3505341Y7000000D01*
X-8469669Y7000000D01*
X-8570745Y7035368D01*
X-8570750Y7035369D01*
X-8749996Y7055565D01*
X-8750004Y7055565D01*
X-8929249Y7035369D01*
X-8929252Y7035368D01*
X-8929255Y7035368D01*
X-9099522Y6975789D01*
X-9252262Y6879816D01*
X-9379816Y6752262D01*
X-9475789Y6599522D01*
X-9531097Y6441460D01*
X-9535368Y6429254D01*
X-9535369Y6429249D01*
X-9555565Y6250003D01*
X-9555565Y6249997D01*
X-9547119Y6175041D01*
X-9559173Y6106219D01*
X-9606522Y6054840D01*
X-9656456Y6037936D01*
X-9679255Y6035368D01*
X-9849522Y5975789D01*
X-10002262Y5879816D01*
X-10129816Y5752262D01*
X-10225789Y5599522D01*
X-10261405Y5497737D01*
X-10285368Y5429254D01*
X-10285369Y5429249D01*
X-10305565Y5250003D01*
X-36999500Y5250003D01*
X-36999500Y6461771D01*
X-36979815Y6528810D01*
X-36927011Y6574565D01*
X-36857853Y6584509D01*
X-36794297Y6555484D01*
X-36757570Y6500093D01*
X-36751558Y6481589D01*
X-36672264Y6325965D01*
X-36655049Y6292180D01*
X-36530110Y6120214D01*
X-36379787Y5969891D01*
X-36207821Y5844952D01*
X-36207817Y5844950D01*
X-36018413Y5748444D01*
X-35816244Y5682755D01*
X-35816242Y5682754D01*
X-35816241Y5682754D01*
X-35654958Y5657209D01*
X-35606288Y5649501D01*
X-35606287Y5649501D01*
X-35393715Y5649501D01*
X-35393714Y5649501D01*
X-35345043Y5657209D01*
X-35183761Y5682754D01*
X-34981586Y5748445D01*
X-34792180Y5844952D01*
X-34620214Y5969891D01*
X-34469891Y6120214D01*
X-34344952Y6292180D01*
X-34248445Y6481586D01*
X-34182754Y6683761D01*
X-34149501Y6893714D01*
X-34149501Y7106287D01*
X-34182754Y7316240D01*
X-34210124Y7400476D01*
X-34248444Y7518413D01*
X-34344950Y7707817D01*
X-34344952Y7707821D01*
X-34469891Y7879787D01*
X-34620214Y8030110D01*
X-34792180Y8155049D01*
X-34792184Y8155051D01*
X-34792185Y8155052D01*
X-34981589Y8251558D01*
X-35000091Y8257569D01*
X-35057766Y8297006D01*
X-35084964Y8361365D01*
X-35073049Y8430211D01*
X-35025805Y8481687D01*
X-34961772Y8499500D01*
X-14181940Y8499500D01*
X-14114901Y8479815D01*
G37*
G04 #@! TD.AperFunction*
M02*
