G04 #@! TF.GenerationSoftware,KiCad,Pcbnew,8.0.4*
G04 #@! TF.CreationDate,2025-02-14T17:20:51+11:00*
G04 #@! TF.ProjectId,LSG,4c53472e-6b69-4636-9164-5f7063625858,rev?*
G04 #@! TF.SameCoordinates,Original*
G04 #@! TF.FileFunction,Copper,L2,Inr*
G04 #@! TF.FilePolarity,Positive*
%FSLAX46Y46*%
G04 Gerber Fmt 4.6, Leading zero omitted, Abs format (unit mm)*
G04 Created by KiCad (PCBNEW 8.0.4) date 2025-02-14 17:20:51*
%MOMM*%
%LPD*%
G01*
G04 APERTURE LIST*
G04 #@! TA.AperFunction,ComponentPad*
%ADD10C,1.000000*%
G04 #@! TD*
G04 #@! TA.AperFunction,ComponentPad*
%ADD11R,1.500000X1.500000*%
G04 #@! TD*
G04 #@! TA.AperFunction,ComponentPad*
%ADD12O,1.700000X1.100000*%
G04 #@! TD*
G04 #@! TA.AperFunction,ComponentPad*
%ADD13R,1.700000X1.700000*%
G04 #@! TD*
G04 #@! TA.AperFunction,ComponentPad*
%ADD14O,1.700000X1.700000*%
G04 #@! TD*
G04 #@! TA.AperFunction,ViaPad*
%ADD15C,0.600000*%
G04 #@! TD*
G04 #@! TA.AperFunction,ViaPad*
%ADD16C,1.000000*%
G04 #@! TD*
G04 APERTURE END LIST*
D10*
X-2500000Y7000000D03*
D11*
X-36000000Y-3000000D03*
D10*
X18825000Y-7750000D03*
D12*
X32000000Y-4320000D03*
X35800000Y-4320000D03*
X32000000Y4320000D03*
X35800000Y4320000D03*
D11*
X-36000000Y0D03*
D13*
X15000000Y7500000D03*
D14*
X17540000Y7500000D03*
X20080000Y7500000D03*
X22620000Y7500000D03*
X25160000Y7500000D03*
X27700000Y7500000D03*
D11*
X-36000000Y3000000D03*
D10*
X-2500000Y-7000000D03*
D15*
X-16000000Y-1000000D03*
X29500000Y5500000D03*
X10000000Y-750000D03*
X29500000Y2250000D03*
X-27000000Y-4500000D03*
X10000000Y-4750000D03*
X8000000Y1250000D03*
X4000000Y-2250000D03*
X-5250000Y-500000D03*
X23000000Y-6250000D03*
X-33500000Y4250000D03*
X5000000Y1250000D03*
X14250000Y-7500000D03*
X5000000Y-5750000D03*
X-15000000Y-4500000D03*
X17000000Y4750000D03*
X4000000Y-5750000D03*
X-11750000Y-1000000D03*
X10000000Y250000D03*
X3000000Y1250000D03*
X10000000Y-1750000D03*
X6000000Y-2250000D03*
X4000000Y-250000D03*
X7000000Y1250000D03*
X2000000Y1250000D03*
X10000000Y-3750000D03*
X-9000000Y-3000000D03*
X6000000Y-250000D03*
X8000000Y-5750000D03*
X4000000Y-4250000D03*
X8000000Y-250000D03*
X-7250000Y-500000D03*
X3000000Y-5750000D03*
X9000000Y1250000D03*
X10000000Y1250000D03*
X8000000Y-2250000D03*
X2000000Y-750000D03*
X2000000Y-2750000D03*
X8000000Y-4250000D03*
X2000000Y-1750000D03*
X-33500000Y-4250000D03*
X9000000Y-5750000D03*
X4000000Y1250000D03*
X26750000Y-1750000D03*
X6000000Y-5750000D03*
X-27000000Y-1000000D03*
X6000000Y-4250000D03*
X6000000Y1250000D03*
X-6500000Y7500000D03*
X-15000000Y4500000D03*
X13750000Y4500000D03*
X-27000000Y4500000D03*
X27000000Y1000000D03*
X2000000Y250000D03*
X-1000000Y-6000000D03*
X-13500000Y7750000D03*
D16*
X25000000Y-3250000D03*
D15*
X23500000Y2500000D03*
X22972947Y124419D03*
X-9500000Y5250000D03*
X-13250000Y750000D03*
X1199997Y750000D03*
X-3521772Y423242D03*
X-9000000Y-7750000D03*
X5500000Y-8200000D03*
D16*
X34250000Y-2750000D03*
X34250000Y2250000D03*
D15*
X23500000Y-3750000D03*
D16*
X34250000Y0D03*
D15*
X-8750000Y6250000D03*
X-9250000Y-1250000D03*
X-6250000Y1250000D03*
X-1000000Y-2000000D03*
X10000000Y-5750000D03*
X10000000Y-2750000D03*
X13000000Y-3500000D03*
X15750000Y-3500000D03*
X2000000Y-3750000D03*
X2000000Y-5750000D03*
X-22250000Y1250000D03*
X25000000Y3000000D03*
X20000000Y0D03*
X21000000Y6000000D03*
X13000000Y-750000D03*
X19500000Y4750000D03*
X13000000Y-2250000D03*
X-9000000Y-6500000D03*
X9750000Y-8200000D03*
X20250000Y-6500000D03*
X8750000Y-8200000D03*
X6500000Y-8200000D03*
X-5250000Y-7250000D03*
X7000000Y-5750000D03*
X-3875000Y4375000D03*
G04 #@! TA.AperFunction,Conductor*
G36*
X-14114901Y8479815D02*
G01*
X-14069146Y8427011D01*
X-14059202Y8357853D01*
X-14088227Y8294297D01*
X-14094259Y8287819D01*
X-14129816Y8252262D01*
X-14225789Y8099522D01*
X-14273328Y7963663D01*
X-14285368Y7929254D01*
X-14285369Y7929249D01*
X-14305565Y7750003D01*
X-14305565Y7749996D01*
X-14285369Y7570750D01*
X-14285368Y7570745D01*
X-14225789Y7400478D01*
X-14140409Y7264596D01*
X-14129815Y7247737D01*
X-14002262Y7120184D01*
X-13849523Y7024211D01*
X-13679254Y6964631D01*
X-13679249Y6964630D01*
X-13500004Y6944435D01*
X-13500000Y6944435D01*
X-13499996Y6944435D01*
X-13320750Y6964630D01*
X-13320745Y6964631D01*
X-13150476Y7024211D01*
X-12997737Y7120184D01*
X-12870184Y7247737D01*
X-12774211Y7400476D01*
X-12714631Y7570745D01*
X-12714630Y7570750D01*
X-12694435Y7749996D01*
X-12694435Y7750003D01*
X-12714630Y7929249D01*
X-12714631Y7929254D01*
X-12774211Y8099523D01*
X-12870184Y8252262D01*
X-12905741Y8287819D01*
X-12939226Y8349142D01*
X-12934242Y8418834D01*
X-12892370Y8474767D01*
X-12826906Y8499184D01*
X-12818060Y8499500D01*
X-1124000Y8499500D01*
X-1056961Y8479815D01*
X-1011206Y8427011D01*
X-1000000Y8375500D01*
X-1000000Y3000000D01*
X13000000Y3000000D01*
X13000000Y4750003D01*
X18694435Y4750003D01*
X18694435Y4749996D01*
X18714630Y4570750D01*
X18714631Y4570745D01*
X18774211Y4400476D01*
X18870184Y4247737D01*
X18997737Y4120184D01*
X19150476Y4024211D01*
X19320745Y3964631D01*
X19320750Y3964630D01*
X19499996Y3944435D01*
X19500000Y3944435D01*
X19500004Y3944435D01*
X19679249Y3964630D01*
X19679254Y3964631D01*
X19849523Y4024211D01*
X20002262Y4120184D01*
X20129815Y4247737D01*
X20131551Y4250499D01*
X20225789Y4400478D01*
X20285368Y4570745D01*
X20285369Y4570750D01*
X20305565Y4749996D01*
X20305565Y4750003D01*
X20285369Y4929249D01*
X20285368Y4929254D01*
X20258928Y5004816D01*
X20225789Y5099522D01*
X20129816Y5252262D01*
X20002262Y5379816D01*
X19849522Y5475789D01*
X19679255Y5535368D01*
X19679252Y5535368D01*
X19679249Y5535369D01*
X19500004Y5555565D01*
X19499996Y5555565D01*
X19320750Y5535369D01*
X19320745Y5535368D01*
X19150478Y5475789D01*
X19150476Y5475788D01*
X19101732Y5445160D01*
X18997738Y5379816D01*
X18997737Y5379815D01*
X18870184Y5252262D01*
X18774211Y5099523D01*
X18714631Y4929254D01*
X18714630Y4929249D01*
X18694435Y4750003D01*
X13000000Y4750003D01*
X13000000Y8375500D01*
X13019685Y8442539D01*
X13072489Y8488294D01*
X13124000Y8499500D01*
X16352999Y8499500D01*
X16420038Y8479815D01*
X16465793Y8427011D01*
X16475737Y8357853D01*
X16454574Y8304377D01*
X16365965Y8177830D01*
X16365964Y8177828D01*
X16316031Y8070746D01*
X16266097Y7963663D01*
X16266096Y7963659D01*
X16266094Y7963655D01*
X16204938Y7735413D01*
X16204936Y7735403D01*
X16184341Y7500000D01*
X16184341Y7499999D01*
X16204936Y7264596D01*
X16204938Y7264586D01*
X16266094Y7036344D01*
X16266096Y7036337D01*
X16266097Y7036337D01*
X16278706Y7009295D01*
X16365965Y6822169D01*
X16365967Y6822165D01*
X16501501Y6628604D01*
X16501506Y6628597D01*
X16668597Y6461506D01*
X16668604Y6461501D01*
X16862165Y6325967D01*
X16862169Y6325965D01*
X17076335Y6226098D01*
X17076344Y6226094D01*
X17304586Y6164938D01*
X17304596Y6164936D01*
X17539999Y6144341D01*
X17540000Y6144341D01*
X17540001Y6144341D01*
X17775403Y6164936D01*
X17775413Y6164938D01*
X18003655Y6226094D01*
X18003659Y6226096D01*
X18003663Y6226097D01*
X18217830Y6325965D01*
X18217834Y6325967D01*
X18411395Y6461501D01*
X18411402Y6461506D01*
X18578493Y6628597D01*
X18578495Y6628599D01*
X18708425Y6814158D01*
X18763002Y6857782D01*
X18832501Y6864975D01*
X18894855Y6833453D01*
X18911575Y6814158D01*
X19041505Y6628599D01*
X19041506Y6628597D01*
X19208597Y6461506D01*
X19208604Y6461501D01*
X19402165Y6325967D01*
X19402169Y6325965D01*
X19616335Y6226098D01*
X19616344Y6226094D01*
X19844586Y6164938D01*
X19844596Y6164936D01*
X20082776Y6144098D01*
X20147844Y6118645D01*
X20188823Y6062054D01*
X20195188Y6006688D01*
X20194435Y6000004D01*
X20194435Y5999996D01*
X20214630Y5820750D01*
X20214631Y5820745D01*
X20274211Y5650476D01*
X20370184Y5497737D01*
X20497737Y5370184D01*
X20650476Y5274211D01*
X20820745Y5214631D01*
X20820750Y5214630D01*
X20999996Y5194435D01*
X21000000Y5194435D01*
X21000004Y5194435D01*
X21179249Y5214630D01*
X21179254Y5214631D01*
X21349523Y5274211D01*
X21502262Y5370184D01*
X21629815Y5497737D01*
X21653461Y5535368D01*
X21706754Y5620184D01*
X21725788Y5650476D01*
X21737083Y5682753D01*
X21785368Y5820745D01*
X21785369Y5820750D01*
X21805565Y5999996D01*
X21805565Y6000003D01*
X21784589Y6186175D01*
X21786115Y6186346D01*
X21789881Y6247910D01*
X21831173Y6304273D01*
X21896382Y6329363D01*
X21958907Y6318159D01*
X22156330Y6226099D01*
X22156344Y6226094D01*
X22384586Y6164938D01*
X22384596Y6164936D01*
X22619999Y6144341D01*
X22620000Y6144341D01*
X22620001Y6144341D01*
X22855403Y6164936D01*
X22855413Y6164938D01*
X23083655Y6226094D01*
X23083659Y6226096D01*
X23083663Y6226097D01*
X23297830Y6325965D01*
X23297834Y6325967D01*
X23491395Y6461501D01*
X23491402Y6461506D01*
X23658493Y6628597D01*
X23658495Y6628599D01*
X23788425Y6814158D01*
X23843002Y6857782D01*
X23912501Y6864975D01*
X23974855Y6833453D01*
X23991575Y6814158D01*
X24121505Y6628599D01*
X24121506Y6628597D01*
X24288597Y6461506D01*
X24288604Y6461501D01*
X24482165Y6325967D01*
X24482169Y6325965D01*
X24696335Y6226098D01*
X24696344Y6226094D01*
X24924586Y6164938D01*
X24924596Y6164936D01*
X25159999Y6144341D01*
X25160000Y6144341D01*
X25160001Y6144341D01*
X25395403Y6164936D01*
X25395413Y6164938D01*
X25623655Y6226094D01*
X25623659Y6226096D01*
X25623663Y6226097D01*
X25837830Y6325965D01*
X25837834Y6325967D01*
X26031395Y6461501D01*
X26031402Y6461506D01*
X26198493Y6628597D01*
X26198495Y6628599D01*
X26328425Y6814158D01*
X26383002Y6857782D01*
X26452501Y6864975D01*
X26514855Y6833453D01*
X26531575Y6814158D01*
X26661505Y6628599D01*
X26661506Y6628597D01*
X26828597Y6461506D01*
X26828604Y6461501D01*
X27022165Y6325967D01*
X27022169Y6325965D01*
X27236335Y6226098D01*
X27236344Y6226094D01*
X27464586Y6164938D01*
X27464596Y6164936D01*
X27699999Y6144341D01*
X27700000Y6144341D01*
X27700001Y6144341D01*
X27935403Y6164936D01*
X27935413Y6164938D01*
X28163655Y6226094D01*
X28163659Y6226096D01*
X28163663Y6226097D01*
X28377830Y6325965D01*
X28377834Y6325967D01*
X28571395Y6461501D01*
X28571402Y6461506D01*
X28738493Y6628597D01*
X28738495Y6628599D01*
X28861220Y6803868D01*
X28874032Y6822165D01*
X28874034Y6822169D01*
X28874035Y6822170D01*
X28973903Y7036337D01*
X29035063Y7264592D01*
X29055659Y7500000D01*
X29035063Y7735408D01*
X28973903Y7963663D01*
X28874035Y8177829D01*
X28815476Y8261460D01*
X28785426Y8304377D01*
X28763099Y8370583D01*
X28780109Y8438350D01*
X28831057Y8486163D01*
X28887001Y8499500D01*
X34961774Y8499500D01*
X35028813Y8479815D01*
X35074568Y8427011D01*
X35084512Y8357853D01*
X35055487Y8294297D01*
X35000093Y8257569D01*
X34981588Y8251557D01*
X34792184Y8155051D01*
X34792181Y8155049D01*
X34792179Y8155048D01*
X34620213Y8030109D01*
X34469890Y7879786D01*
X34344951Y7707820D01*
X34344949Y7707816D01*
X34248443Y7518412D01*
X34182754Y7316243D01*
X34182753Y7316239D01*
X34149500Y7106286D01*
X34149500Y6893713D01*
X34182753Y6683760D01*
X34248444Y6481585D01*
X34344951Y6292179D01*
X34469890Y6120213D01*
X34620213Y5969890D01*
X34792179Y5844951D01*
X34981585Y5748444D01*
X35183760Y5682753D01*
X35183759Y5682753D01*
X35354202Y5655757D01*
X35393713Y5649500D01*
X35393714Y5649500D01*
X35606286Y5649500D01*
X35606287Y5649500D01*
X35669644Y5659534D01*
X35816239Y5682753D01*
X35816241Y5682753D01*
X35816243Y5682754D01*
X36018412Y5748443D01*
X36207816Y5844949D01*
X36207820Y5844951D01*
X36379786Y5969890D01*
X36530109Y6120213D01*
X36655048Y6292179D01*
X36655052Y6292185D01*
X36751557Y6481588D01*
X36757570Y6500094D01*
X36797008Y6557768D01*
X36861367Y6584965D01*
X36930213Y6573050D01*
X36981688Y6525805D01*
X36999500Y6461773D01*
X36999500Y-6461773D01*
X36979815Y-6528812D01*
X36927011Y-6574567D01*
X36857853Y-6584511D01*
X36794297Y-6555486D01*
X36757570Y-6500094D01*
X36751557Y-6481588D01*
X36655051Y-6292184D01*
X36655049Y-6292181D01*
X36655048Y-6292179D01*
X36530109Y-6120213D01*
X36379786Y-5969890D01*
X36207820Y-5844951D01*
X36018414Y-5748444D01*
X36018413Y-5748443D01*
X36018412Y-5748443D01*
X35816243Y-5682754D01*
X35816241Y-5682753D01*
X35816240Y-5682753D01*
X35654957Y-5657208D01*
X35606287Y-5649500D01*
X35393713Y-5649500D01*
X35345042Y-5657208D01*
X35183760Y-5682753D01*
X34981585Y-5748444D01*
X34792179Y-5844951D01*
X34620213Y-5969890D01*
X34469890Y-6120213D01*
X34344951Y-6292179D01*
X34248444Y-6481585D01*
X34182753Y-6683760D01*
X34170048Y-6763976D01*
X34149500Y-6893713D01*
X34149500Y-7106287D01*
X34153227Y-7129816D01*
X34182753Y-7316239D01*
X34182753Y-7316241D01*
X34182754Y-7316243D01*
X34226718Y-7451551D01*
X34248444Y-7518414D01*
X34344951Y-7707820D01*
X34469890Y-7879786D01*
X34620213Y-8030109D01*
X34792179Y-8155048D01*
X34792181Y-8155049D01*
X34792184Y-8155051D01*
X34981588Y-8251557D01*
X35000092Y-8257569D01*
X35057768Y-8297006D01*
X35084966Y-8361365D01*
X35073051Y-8430211D01*
X35025807Y-8481687D01*
X34961774Y-8499500D01*
X19765301Y-8499500D01*
X19698262Y-8479815D01*
X19652507Y-8427011D01*
X19642563Y-8357853D01*
X19659172Y-8314516D01*
X19658039Y-8313911D01*
X19753811Y-8134733D01*
X19753811Y-8134732D01*
X19753814Y-8134727D01*
X19811024Y-7946132D01*
X19830341Y-7750000D01*
X19811024Y-7553868D01*
X19759950Y-7385503D01*
X19759328Y-7315639D01*
X19796576Y-7256526D01*
X19859870Y-7226935D01*
X19919567Y-7232469D01*
X20070737Y-7285366D01*
X20070743Y-7285367D01*
X20070745Y-7285368D01*
X20070746Y-7285368D01*
X20070750Y-7285369D01*
X20249996Y-7305565D01*
X20250000Y-7305565D01*
X20250004Y-7305565D01*
X20429249Y-7285369D01*
X20429252Y-7285368D01*
X20429255Y-7285368D01*
X20599522Y-7225789D01*
X20752262Y-7129816D01*
X20879816Y-7002262D01*
X20975789Y-6849522D01*
X21035368Y-6679255D01*
X21046043Y-6584511D01*
X21055565Y-6500003D01*
X21055565Y-6499996D01*
X21035369Y-6320750D01*
X21035368Y-6320745D01*
X21024301Y-6289117D01*
X20975789Y-6150478D01*
X20879816Y-5997738D01*
X20752262Y-5870184D01*
X20712104Y-5844951D01*
X20599523Y-5774211D01*
X20429254Y-5714631D01*
X20429249Y-5714630D01*
X20250004Y-5694435D01*
X20249996Y-5694435D01*
X20070750Y-5714630D01*
X20070745Y-5714631D01*
X19900476Y-5774211D01*
X19747737Y-5870184D01*
X19620184Y-5997737D01*
X19524211Y-6150476D01*
X19464631Y-6320745D01*
X19464630Y-6320750D01*
X19444435Y-6499996D01*
X19444435Y-6500003D01*
X19464630Y-6679249D01*
X19464632Y-6679257D01*
X19479293Y-6721155D01*
X19482854Y-6790933D01*
X19448125Y-6851561D01*
X19386132Y-6883788D01*
X19316556Y-6877383D01*
X19303798Y-6871467D01*
X19209733Y-6821188D01*
X19209727Y-6821186D01*
X19021132Y-6763976D01*
X19021129Y-6763975D01*
X18825000Y-6744659D01*
X18628870Y-6763975D01*
X18440266Y-6821188D01*
X18266467Y-6914086D01*
X18266460Y-6914090D01*
X18114116Y-7039116D01*
X17989090Y-7191460D01*
X17989086Y-7191467D01*
X17896188Y-7365266D01*
X17838975Y-7553870D01*
X17819659Y-7750000D01*
X17838975Y-7946129D01*
X17896188Y-8134733D01*
X17991961Y-8313911D01*
X17990352Y-8314770D01*
X18008679Y-8373271D01*
X17990203Y-8440653D01*
X17938230Y-8487350D01*
X17884699Y-8499500D01*
X10660576Y-8499500D01*
X10593537Y-8479815D01*
X10547782Y-8427011D01*
X10537356Y-8361617D01*
X10555565Y-8200003D01*
X10555565Y-8199996D01*
X10535369Y-8020750D01*
X10535368Y-8020745D01*
X10486046Y-7879792D01*
X10475789Y-7850478D01*
X10466635Y-7835910D01*
X10409680Y-7745266D01*
X10379816Y-7697738D01*
X10252262Y-7570184D01*
X10233718Y-7558532D01*
X10099523Y-7474211D01*
X9929254Y-7414631D01*
X9929249Y-7414630D01*
X9750004Y-7394435D01*
X9749996Y-7394435D01*
X9570750Y-7414630D01*
X9570737Y-7414633D01*
X9400479Y-7474209D01*
X9315971Y-7527309D01*
X9248734Y-7546309D01*
X9184029Y-7527309D01*
X9099520Y-7474209D01*
X8929262Y-7414633D01*
X8929249Y-7414630D01*
X8750004Y-7394435D01*
X8749996Y-7394435D01*
X8570750Y-7414630D01*
X8570745Y-7414631D01*
X8400476Y-7474211D01*
X8247737Y-7570184D01*
X8120184Y-7697737D01*
X8024211Y-7850476D01*
X7964631Y-8020745D01*
X7964630Y-8020750D01*
X7944435Y-8199996D01*
X7944435Y-8200003D01*
X7962644Y-8361617D01*
X7950589Y-8430439D01*
X7903240Y-8481818D01*
X7839424Y-8499500D01*
X7410576Y-8499500D01*
X7343537Y-8479815D01*
X7297782Y-8427011D01*
X7287356Y-8361617D01*
X7305565Y-8200003D01*
X7305565Y-8199996D01*
X7285369Y-8020750D01*
X7285368Y-8020745D01*
X7236046Y-7879792D01*
X7225789Y-7850478D01*
X7216635Y-7835910D01*
X7159680Y-7745266D01*
X7129816Y-7697738D01*
X7002262Y-7570184D01*
X6983718Y-7558532D01*
X6849523Y-7474211D01*
X6679254Y-7414631D01*
X6679249Y-7414630D01*
X6500004Y-7394435D01*
X6499996Y-7394435D01*
X6320750Y-7414630D01*
X6320737Y-7414633D01*
X6150479Y-7474209D01*
X6065971Y-7527309D01*
X5998734Y-7546309D01*
X5934029Y-7527309D01*
X5849520Y-7474209D01*
X5679262Y-7414633D01*
X5679249Y-7414630D01*
X5500004Y-7394435D01*
X5499996Y-7394435D01*
X5320750Y-7414630D01*
X5320745Y-7414631D01*
X5150476Y-7474211D01*
X4997737Y-7570184D01*
X4870184Y-7697737D01*
X4774211Y-7850476D01*
X4714631Y-8020745D01*
X4714630Y-8020750D01*
X4694435Y-8199996D01*
X4694435Y-8200003D01*
X4712644Y-8361617D01*
X4700589Y-8430439D01*
X4653240Y-8481818D01*
X4589424Y-8499500D01*
X-8318060Y-8499500D01*
X-8385099Y-8479815D01*
X-8430854Y-8427011D01*
X-8440798Y-8357853D01*
X-8411773Y-8294297D01*
X-8405741Y-8287819D01*
X-8370184Y-8252262D01*
X-8274211Y-8099523D01*
X-8214631Y-7929254D01*
X-8214630Y-7929249D01*
X-8194435Y-7750003D01*
X-8194435Y-7749996D01*
X-8214630Y-7570750D01*
X-8214631Y-7570745D01*
X-8274211Y-7400476D01*
X-8368765Y-7249996D01*
X-6055565Y-7249996D01*
X-6055565Y-7250003D01*
X-6036134Y-7422458D01*
X-6035368Y-7429255D01*
X-5975789Y-7599522D01*
X-5879816Y-7752262D01*
X-5752262Y-7879816D01*
X-5599522Y-7975789D01*
X-5429255Y-8035368D01*
X-5429252Y-8035368D01*
X-5429249Y-8035369D01*
X-5250004Y-8055565D01*
X-5250000Y-8055565D01*
X-5249996Y-8055565D01*
X-5070750Y-8035369D01*
X-5070745Y-8035368D01*
X-4900478Y-7975789D01*
X-4747738Y-7879816D01*
X-4620184Y-7752262D01*
X-4585924Y-7697738D01*
X-4524211Y-7599523D01*
X-4464631Y-7429254D01*
X-4464630Y-7429249D01*
X-4444435Y-7250003D01*
X-4444435Y-7249996D01*
X-4464630Y-7070750D01*
X-4464631Y-7070745D01*
X-4489386Y-7000000D01*
X-3505341Y-7000000D01*
X-3486024Y-7196132D01*
X-3428814Y-7384727D01*
X-3428811Y-7384732D01*
X-3428811Y-7384733D01*
X-3405014Y-7429254D01*
X-3335910Y-7558538D01*
X-3210883Y-7710883D01*
X-3058538Y-7835910D01*
X-2884727Y-7928814D01*
X-2696132Y-7986024D01*
X-2500000Y-8005341D01*
X-2303868Y-7986024D01*
X-2115273Y-7928814D01*
X-2115269Y-7928811D01*
X-2115266Y-7928811D01*
X-1941467Y-7835913D01*
X-1941460Y-7835909D01*
X-1789116Y-7710883D01*
X-1664090Y-7558539D01*
X-1664086Y-7558532D01*
X-1571188Y-7384733D01*
X-1550411Y-7316243D01*
X-1522972Y-7225788D01*
X-1513975Y-7196129D01*
X-1494659Y-7000000D01*
X-1513975Y-6803870D01*
X-1571188Y-6615266D01*
X-1664086Y-6441467D01*
X-1664090Y-6441460D01*
X-1789116Y-6289116D01*
X-1941460Y-6164090D01*
X-1941467Y-6164086D01*
X-2115266Y-6071188D01*
X-2303870Y-6013975D01*
X-2500000Y-5994659D01*
X-2696129Y-6013975D01*
X-2696132Y-6013976D01*
X-2884727Y-6071186D01*
X-2884733Y-6071188D01*
X-3058532Y-6164086D01*
X-3058539Y-6164090D01*
X-3210883Y-6289116D01*
X-3335909Y-6441460D01*
X-3335913Y-6441467D01*
X-3428811Y-6615266D01*
X-3428811Y-6615269D01*
X-3428814Y-6615273D01*
X-3486024Y-6803868D01*
X-3505341Y-7000000D01*
X-4489386Y-7000000D01*
X-4524211Y-6900476D01*
X-4620184Y-6747737D01*
X-4747737Y-6620184D01*
X-4900476Y-6524211D01*
X-5070745Y-6464631D01*
X-5070750Y-6464630D01*
X-5249996Y-6444435D01*
X-5250004Y-6444435D01*
X-5429249Y-6464630D01*
X-5429254Y-6464631D01*
X-5599523Y-6524211D01*
X-5752262Y-6620184D01*
X-5879815Y-6747737D01*
X-5961277Y-6877383D01*
X-5975789Y-6900478D01*
X-6024301Y-7039117D01*
X-6035368Y-7070745D01*
X-6035369Y-7070750D01*
X-6055565Y-7249996D01*
X-8368765Y-7249996D01*
X-8370184Y-7247737D01*
X-8405241Y-7212681D01*
X-8438726Y-7151358D01*
X-8433742Y-7081666D01*
X-8405241Y-7037319D01*
X-8370184Y-7002262D01*
X-8274211Y-6849523D01*
X-8214631Y-6679254D01*
X-8214630Y-6679249D01*
X-8194435Y-6500003D01*
X-8194435Y-6499996D01*
X-8214630Y-6320750D01*
X-8214631Y-6320745D01*
X-8274211Y-6150476D01*
X-8370184Y-5997737D01*
X-8497737Y-5870184D01*
X-8650476Y-5774211D01*
X-8719678Y-5749996D01*
X1194435Y-5749996D01*
X1194435Y-5750003D01*
X1214630Y-5929249D01*
X1214631Y-5929254D01*
X1274211Y-6099523D01*
X1370184Y-6252262D01*
X1497738Y-6379816D01*
X1588080Y-6436582D01*
X1632721Y-6464632D01*
X1650478Y-6475789D01*
X1719935Y-6500093D01*
X1820745Y-6535368D01*
X1820750Y-6535369D01*
X1999996Y-6555565D01*
X2000000Y-6555565D01*
X2000004Y-6555565D01*
X2179249Y-6535369D01*
X2179252Y-6535368D01*
X2179255Y-6535368D01*
X2349522Y-6475789D01*
X2502262Y-6379816D01*
X2629816Y-6252262D01*
X2725789Y-6099522D01*
X2785368Y-5929255D01*
X2805565Y-5750000D01*
X2805565Y-5749996D01*
X6194435Y-5749996D01*
X6194435Y-5750003D01*
X6214630Y-5929249D01*
X6214631Y-5929254D01*
X6274211Y-6099523D01*
X6370184Y-6252262D01*
X6497738Y-6379816D01*
X6588080Y-6436582D01*
X6632721Y-6464632D01*
X6650478Y-6475789D01*
X6719935Y-6500093D01*
X6820745Y-6535368D01*
X6820750Y-6535369D01*
X6999996Y-6555565D01*
X7000000Y-6555565D01*
X7000004Y-6555565D01*
X7179249Y-6535369D01*
X7179252Y-6535368D01*
X7179255Y-6535368D01*
X7349522Y-6475789D01*
X7502262Y-6379816D01*
X7629816Y-6252262D01*
X7725789Y-6099522D01*
X7785368Y-5929255D01*
X7805565Y-5750000D01*
X7805565Y-5749996D01*
X9194435Y-5749996D01*
X9194435Y-5750003D01*
X9214630Y-5929249D01*
X9214631Y-5929254D01*
X9274211Y-6099523D01*
X9370184Y-6252262D01*
X9497738Y-6379816D01*
X9588080Y-6436582D01*
X9632721Y-6464632D01*
X9650478Y-6475789D01*
X9719935Y-6500093D01*
X9820745Y-6535368D01*
X9820750Y-6535369D01*
X9999996Y-6555565D01*
X10000000Y-6555565D01*
X10000004Y-6555565D01*
X10179249Y-6535369D01*
X10179252Y-6535368D01*
X10179255Y-6535368D01*
X10349522Y-6475789D01*
X10502262Y-6379816D01*
X10629816Y-6252262D01*
X10725789Y-6099522D01*
X10785368Y-5929255D01*
X10805565Y-5750000D01*
X10799304Y-5694435D01*
X10785369Y-5570750D01*
X10785368Y-5570745D01*
X10725788Y-5400476D01*
X10629815Y-5247737D01*
X10502262Y-5120184D01*
X10349523Y-5024211D01*
X10179254Y-4964631D01*
X10179249Y-4964630D01*
X10000004Y-4944435D01*
X9999996Y-4944435D01*
X9820750Y-4964630D01*
X9820745Y-4964631D01*
X9650476Y-5024211D01*
X9497737Y-5120184D01*
X9370184Y-5247737D01*
X9274211Y-5400476D01*
X9214631Y-5570745D01*
X9214630Y-5570750D01*
X9194435Y-5749996D01*
X7805565Y-5749996D01*
X7799304Y-5694435D01*
X7785369Y-5570750D01*
X7785368Y-5570745D01*
X7725788Y-5400476D01*
X7629815Y-5247737D01*
X7502262Y-5120184D01*
X7349523Y-5024211D01*
X7179254Y-4964631D01*
X7179249Y-4964630D01*
X7000004Y-4944435D01*
X6999996Y-4944435D01*
X6820750Y-4964630D01*
X6820745Y-4964631D01*
X6650476Y-5024211D01*
X6497737Y-5120184D01*
X6370184Y-5247737D01*
X6274211Y-5400476D01*
X6214631Y-5570745D01*
X6214630Y-5570750D01*
X6194435Y-5749996D01*
X2805565Y-5749996D01*
X2799304Y-5694435D01*
X2785369Y-5570750D01*
X2785368Y-5570745D01*
X2725788Y-5400476D01*
X2629815Y-5247737D01*
X2502262Y-5120184D01*
X2349523Y-5024211D01*
X2179254Y-4964631D01*
X2179249Y-4964630D01*
X2000004Y-4944435D01*
X1999996Y-4944435D01*
X1820750Y-4964630D01*
X1820745Y-4964631D01*
X1650476Y-5024211D01*
X1497737Y-5120184D01*
X1370184Y-5247737D01*
X1274211Y-5400476D01*
X1214631Y-5570745D01*
X1214630Y-5570750D01*
X1194435Y-5749996D01*
X-8719678Y-5749996D01*
X-8820745Y-5714631D01*
X-8820750Y-5714630D01*
X-8999996Y-5694435D01*
X-9000004Y-5694435D01*
X-9179249Y-5714630D01*
X-9179254Y-5714631D01*
X-9349523Y-5774211D01*
X-9462104Y-5844951D01*
X-9502262Y-5870184D01*
X-9629816Y-5997738D01*
X-9725789Y-6150478D01*
X-9774301Y-6289117D01*
X-9785368Y-6320745D01*
X-9785369Y-6320750D01*
X-9805565Y-6499996D01*
X-9805565Y-6500003D01*
X-9796043Y-6584511D01*
X-9785368Y-6679255D01*
X-9725789Y-6849522D01*
X-9629816Y-7002262D01*
X-9594759Y-7037319D01*
X-9561274Y-7098642D01*
X-9566258Y-7168334D01*
X-9594759Y-7212681D01*
X-9629816Y-7247738D01*
X-9672861Y-7316244D01*
X-9716381Y-7385506D01*
X-9725789Y-7400478D01*
X-9767057Y-7518415D01*
X-9785368Y-7570745D01*
X-9785369Y-7570750D01*
X-9805565Y-7749996D01*
X-9805565Y-7750003D01*
X-9785418Y-7928811D01*
X-9785368Y-7929255D01*
X-9725789Y-8099522D01*
X-9629816Y-8252262D01*
X-9594259Y-8287819D01*
X-9560774Y-8349142D01*
X-9565758Y-8418834D01*
X-9607630Y-8474767D01*
X-9673094Y-8499184D01*
X-9681940Y-8499500D01*
X-34961772Y-8499500D01*
X-35028811Y-8479815D01*
X-35074566Y-8427011D01*
X-35084510Y-8357853D01*
X-35055485Y-8294297D01*
X-35000091Y-8257569D01*
X-34981589Y-8251558D01*
X-34792185Y-8155052D01*
X-34792182Y-8155050D01*
X-34792180Y-8155049D01*
X-34620214Y-8030110D01*
X-34469891Y-7879787D01*
X-34344952Y-7707821D01*
X-34248445Y-7518415D01*
X-34234081Y-7474209D01*
X-34182755Y-7316244D01*
X-34181063Y-7305565D01*
X-34156623Y-7151252D01*
X-34149501Y-7106288D01*
X-34149501Y-6893714D01*
X-34165780Y-6790933D01*
X-34182754Y-6683761D01*
X-34248445Y-6481586D01*
X-34344952Y-6292180D01*
X-34469891Y-6120214D01*
X-34620214Y-5969891D01*
X-34792180Y-5844952D01*
X-34981586Y-5748445D01*
X-35183761Y-5682754D01*
X-35183760Y-5682754D01*
X-35354203Y-5655758D01*
X-35393714Y-5649501D01*
X-35606288Y-5649501D01*
X-35669645Y-5659535D01*
X-35816240Y-5682754D01*
X-35816242Y-5682754D01*
X-35816244Y-5682755D01*
X-36018413Y-5748444D01*
X-36018414Y-5748444D01*
X-36018415Y-5748445D01*
X-36207821Y-5844952D01*
X-36379787Y-5969891D01*
X-36530110Y-6120214D01*
X-36655049Y-6292180D01*
X-36655050Y-6292182D01*
X-36655052Y-6292185D01*
X-36751558Y-6481589D01*
X-36757570Y-6500092D01*
X-36797008Y-6557766D01*
X-36861367Y-6584963D01*
X-36930213Y-6573048D01*
X-36981688Y-6525803D01*
X-36999500Y-6461771D01*
X-36999500Y-3749996D01*
X1194435Y-3749996D01*
X1194435Y-3750003D01*
X1214630Y-3929249D01*
X1214631Y-3929254D01*
X1274211Y-4099523D01*
X1353549Y-4225788D01*
X1370184Y-4252262D01*
X1497738Y-4379816D01*
X1650478Y-4475789D01*
X1820745Y-4535368D01*
X1820750Y-4535369D01*
X1999996Y-4555565D01*
X2000000Y-4555565D01*
X2000004Y-4555565D01*
X2179249Y-4535369D01*
X2179252Y-4535368D01*
X2179255Y-4535368D01*
X2349522Y-4475789D01*
X2502262Y-4379816D01*
X2629816Y-4252262D01*
X2725789Y-4099522D01*
X2785368Y-3929255D01*
X2794352Y-3849522D01*
X2805565Y-3750003D01*
X2805565Y-3749996D01*
X2785369Y-3570750D01*
X2785368Y-3570745D01*
X2752141Y-3475788D01*
X2725789Y-3400478D01*
X2629816Y-3247738D01*
X2502262Y-3120184D01*
X2469379Y-3099522D01*
X2349523Y-3024211D01*
X2179254Y-2964631D01*
X2179249Y-2964630D01*
X2000004Y-2944435D01*
X1999996Y-2944435D01*
X1820750Y-2964630D01*
X1820745Y-2964631D01*
X1650476Y-3024211D01*
X1497737Y-3120184D01*
X1370184Y-3247737D01*
X1274211Y-3400476D01*
X1214631Y-3570745D01*
X1214630Y-3570750D01*
X1194435Y-3749996D01*
X-36999500Y-3749996D01*
X-36999500Y-1366868D01*
X-36979815Y-1299829D01*
X-36927011Y-1254074D01*
X-36862244Y-1243579D01*
X-36857483Y-1244090D01*
X-36857483Y-1244091D01*
X-36797873Y-1250500D01*
X-35202128Y-1250499D01*
X-35197449Y-1249996D01*
X-10055565Y-1249996D01*
X-10055565Y-1250003D01*
X-10039227Y-1395005D01*
X-10035368Y-1429255D01*
X-9975789Y-1599522D01*
X-9879816Y-1752262D01*
X-9752262Y-1879816D01*
X-9599522Y-1975789D01*
X-9429255Y-2035368D01*
X-9429252Y-2035368D01*
X-9429249Y-2035369D01*
X-9250004Y-2055565D01*
X-9250000Y-2055565D01*
X-9249996Y-2055565D01*
X-9070750Y-2035369D01*
X-9070745Y-2035368D01*
X-8969678Y-2000003D01*
X-8969658Y-1999996D01*
X-1805565Y-1999996D01*
X-1805565Y-2000003D01*
X-1792024Y-2120184D01*
X-1785368Y-2179255D01*
X-1725789Y-2349522D01*
X-1629816Y-2502262D01*
X-1502262Y-2629816D01*
X-1349522Y-2725789D01*
X-1179255Y-2785368D01*
X-1179252Y-2785368D01*
X-1179249Y-2785369D01*
X-1000004Y-2805565D01*
X-1000000Y-2805565D01*
X-999996Y-2805565D01*
X-820750Y-2785369D01*
X-820745Y-2785368D01*
X-788860Y-2774211D01*
X-719658Y-2749996D01*
X9194435Y-2749996D01*
X9194435Y-2750003D01*
X9214630Y-2929249D01*
X9214631Y-2929254D01*
X9274211Y-3099523D01*
X9367341Y-3247737D01*
X9370184Y-3252262D01*
X9497738Y-3379816D01*
X9650478Y-3475789D01*
X9719678Y-3500003D01*
X9820745Y-3535368D01*
X9820750Y-3535369D01*
X9999996Y-3555565D01*
X10000000Y-3555565D01*
X10000004Y-3555565D01*
X10179249Y-3535369D01*
X10179252Y-3535368D01*
X10179255Y-3535368D01*
X10349522Y-3475789D01*
X10502262Y-3379816D01*
X10629816Y-3252262D01*
X10725789Y-3099522D01*
X10785368Y-2929255D01*
X10785369Y-2929249D01*
X10805565Y-2750003D01*
X10805565Y-2749996D01*
X10785369Y-2570750D01*
X10785368Y-2570745D01*
X10774301Y-2539117D01*
X10725789Y-2400478D01*
X10629816Y-2247738D01*
X10502262Y-2120184D01*
X10349523Y-2024211D01*
X10179254Y-1964631D01*
X10179249Y-1964630D01*
X10000004Y-1944435D01*
X9999996Y-1944435D01*
X9820750Y-1964630D01*
X9820745Y-1964631D01*
X9650476Y-2024211D01*
X9497737Y-2120184D01*
X9370184Y-2247737D01*
X9274211Y-2400476D01*
X9214631Y-2570745D01*
X9214630Y-2570750D01*
X9194435Y-2749996D01*
X-719658Y-2749996D01*
X-650478Y-2725789D01*
X-632721Y-2714632D01*
X-588080Y-2686582D01*
X-497738Y-2629816D01*
X-370184Y-2502262D01*
X-274211Y-2349523D01*
X-214631Y-2179254D01*
X-214630Y-2179249D01*
X-194435Y-2000003D01*
X-194435Y-1999996D01*
X-214630Y-1820750D01*
X-214631Y-1820745D01*
X-274211Y-1650476D01*
X-370184Y-1497737D01*
X-497737Y-1370184D01*
X-650476Y-1274211D01*
X-820745Y-1214631D01*
X-820750Y-1214630D01*
X-999996Y-1194435D01*
X-1000004Y-1194435D01*
X-1179249Y-1214630D01*
X-1179254Y-1214631D01*
X-1349523Y-1274211D01*
X-1502262Y-1370184D01*
X-1629815Y-1497737D01*
X-1725788Y-1650476D01*
X-1785368Y-1820745D01*
X-1785369Y-1820750D01*
X-1805565Y-1999996D01*
X-8969658Y-1999996D01*
X-8900478Y-1975789D01*
X-8882721Y-1964632D01*
X-8802285Y-1914090D01*
X-8747738Y-1879816D01*
X-8620184Y-1752262D01*
X-8615407Y-1744659D01*
X-8524211Y-1599523D01*
X-8464631Y-1429254D01*
X-8464630Y-1429249D01*
X-8444435Y-1250003D01*
X-8444435Y-1249996D01*
X-8464630Y-1070750D01*
X-8464631Y-1070745D01*
X-8524211Y-900476D01*
X-8618765Y-749996D01*
X12194435Y-749996D01*
X12194435Y-750003D01*
X12214630Y-929249D01*
X12214631Y-929254D01*
X12274211Y-1099523D01*
X12279253Y-1107547D01*
X12370184Y-1252262D01*
X12497738Y-1379816D01*
X12521911Y-1395005D01*
X12521913Y-1395006D01*
X12568204Y-1447341D01*
X12578852Y-1516395D01*
X12550477Y-1580243D01*
X12521913Y-1604994D01*
X12497737Y-1620184D01*
X12370184Y-1747737D01*
X12274211Y-1900476D01*
X12214631Y-2070745D01*
X12214630Y-2070750D01*
X12194435Y-2249996D01*
X12194435Y-2250003D01*
X12214630Y-2429249D01*
X12214631Y-2429254D01*
X12274211Y-2599523D01*
X12370184Y-2752262D01*
X12405241Y-2787319D01*
X12438726Y-2848642D01*
X12433742Y-2918334D01*
X12405241Y-2962681D01*
X12370184Y-2997737D01*
X12274211Y-3150476D01*
X12214631Y-3320745D01*
X12214630Y-3320750D01*
X12194435Y-3499996D01*
X12194435Y-3500003D01*
X12214630Y-3679249D01*
X12214631Y-3679254D01*
X12274211Y-3849523D01*
X12336231Y-3948226D01*
X12370184Y-4002262D01*
X12497738Y-4129816D01*
X12650478Y-4225789D01*
X12734930Y-4255340D01*
X12820745Y-4285368D01*
X12820750Y-4285369D01*
X12999996Y-4305565D01*
X13000000Y-4305565D01*
X13000004Y-4305565D01*
X13179249Y-4285369D01*
X13179252Y-4285368D01*
X13179255Y-4285368D01*
X13349522Y-4225789D01*
X13502262Y-4129816D01*
X13629816Y-4002262D01*
X13725789Y-3849522D01*
X13785368Y-3679255D01*
X13785418Y-3678811D01*
X13805565Y-3500003D01*
X13805565Y-3499996D01*
X14944435Y-3499996D01*
X14944435Y-3500003D01*
X14964630Y-3679249D01*
X14964631Y-3679254D01*
X15024211Y-3849523D01*
X15086231Y-3948226D01*
X15120184Y-4002262D01*
X15247738Y-4129816D01*
X15400478Y-4225789D01*
X15484930Y-4255340D01*
X15570745Y-4285368D01*
X15570750Y-4285369D01*
X15749996Y-4305565D01*
X15750000Y-4305565D01*
X15750004Y-4305565D01*
X15929249Y-4285369D01*
X15929252Y-4285368D01*
X15929255Y-4285368D01*
X16099522Y-4225789D01*
X16252262Y-4129816D01*
X16379816Y-4002262D01*
X16475789Y-3849522D01*
X16510615Y-3749996D01*
X22694435Y-3749996D01*
X22694435Y-3750003D01*
X22714630Y-3929249D01*
X22714631Y-3929254D01*
X22774211Y-4099523D01*
X22853549Y-4225788D01*
X22870184Y-4252262D01*
X22997738Y-4379816D01*
X23150478Y-4475789D01*
X23320745Y-4535368D01*
X23320750Y-4535369D01*
X23499996Y-4555565D01*
X23500000Y-4555565D01*
X23500004Y-4555565D01*
X23679249Y-4535369D01*
X23679252Y-4535368D01*
X23679255Y-4535368D01*
X23849522Y-4475789D01*
X24002262Y-4379816D01*
X24129816Y-4252262D01*
X24206851Y-4129660D01*
X24229494Y-4093626D01*
X24232024Y-4095215D01*
X24269859Y-4053232D01*
X24337269Y-4034855D01*
X24403913Y-4055841D01*
X24413522Y-4062980D01*
X24441459Y-4085908D01*
X24441467Y-4085913D01*
X24615266Y-4178811D01*
X24615269Y-4178811D01*
X24615273Y-4178814D01*
X24803868Y-4236024D01*
X25000000Y-4255341D01*
X25196132Y-4236024D01*
X25384727Y-4178814D01*
X25558538Y-4085910D01*
X25710883Y-3960883D01*
X25835910Y-3808538D01*
X25905014Y-3679254D01*
X25928811Y-3634733D01*
X25928811Y-3634732D01*
X25928814Y-3634727D01*
X25986024Y-3446132D01*
X26005341Y-3250000D01*
X25986024Y-3053868D01*
X25928814Y-2865273D01*
X25928811Y-2865269D01*
X25928811Y-2865266D01*
X25867200Y-2750000D01*
X33244659Y-2750000D01*
X33263975Y-2946129D01*
X33263976Y-2946132D01*
X33316774Y-3120184D01*
X33321188Y-3134733D01*
X33414086Y-3308532D01*
X33414090Y-3308539D01*
X33539116Y-3460883D01*
X33691460Y-3585909D01*
X33691467Y-3585913D01*
X33865266Y-3678811D01*
X33865269Y-3678811D01*
X33865273Y-3678814D01*
X34053868Y-3736024D01*
X34250000Y-3755341D01*
X34446132Y-3736024D01*
X34634727Y-3678814D01*
X34808538Y-3585910D01*
X34960883Y-3460883D01*
X35085910Y-3308538D01*
X35178814Y-3134727D01*
X35236024Y-2946132D01*
X35255341Y-2750000D01*
X35236024Y-2553868D01*
X35178814Y-2365273D01*
X35178811Y-2365269D01*
X35178811Y-2365266D01*
X35085913Y-2191467D01*
X35085909Y-2191460D01*
X34960883Y-2039116D01*
X34808539Y-1914090D01*
X34808532Y-1914086D01*
X34634733Y-1821188D01*
X34634727Y-1821186D01*
X34446132Y-1763976D01*
X34446129Y-1763975D01*
X34250000Y-1744659D01*
X34053870Y-1763975D01*
X33865266Y-1821188D01*
X33691467Y-1914086D01*
X33691460Y-1914090D01*
X33539116Y-2039116D01*
X33414090Y-2191460D01*
X33414086Y-2191467D01*
X33321188Y-2365266D01*
X33263975Y-2553870D01*
X33244659Y-2750000D01*
X25867200Y-2750000D01*
X25835913Y-2691467D01*
X25835909Y-2691460D01*
X25710883Y-2539116D01*
X25558539Y-2414090D01*
X25558532Y-2414086D01*
X25384733Y-2321188D01*
X25384727Y-2321186D01*
X25196132Y-2263976D01*
X25196129Y-2263975D01*
X25000000Y-2244659D01*
X24803870Y-2263975D01*
X24615266Y-2321188D01*
X24441467Y-2414086D01*
X24441460Y-2414090D01*
X24289116Y-2539116D01*
X24164090Y-2691460D01*
X24164086Y-2691467D01*
X24071186Y-2865270D01*
X24042341Y-2960358D01*
X24004043Y-3018796D01*
X23940230Y-3047252D01*
X23871164Y-3036690D01*
X23857709Y-3029355D01*
X23849522Y-3024211D01*
X23679254Y-2964631D01*
X23679249Y-2964630D01*
X23500004Y-2944435D01*
X23499996Y-2944435D01*
X23320750Y-2964630D01*
X23320745Y-2964631D01*
X23150476Y-3024211D01*
X22997737Y-3120184D01*
X22870184Y-3247737D01*
X22774211Y-3400476D01*
X22714631Y-3570745D01*
X22714630Y-3570750D01*
X22694435Y-3749996D01*
X16510615Y-3749996D01*
X16535368Y-3679255D01*
X16535418Y-3678811D01*
X16555565Y-3500003D01*
X16555565Y-3499996D01*
X16535369Y-3320750D01*
X16535368Y-3320745D01*
X16475788Y-3150476D01*
X16396450Y-3024211D01*
X16379816Y-2997738D01*
X16252262Y-2870184D01*
X16149422Y-2805565D01*
X16099523Y-2774211D01*
X15929254Y-2714631D01*
X15929249Y-2714630D01*
X15750004Y-2694435D01*
X15749996Y-2694435D01*
X15570750Y-2714630D01*
X15570745Y-2714631D01*
X15400476Y-2774211D01*
X15247737Y-2870184D01*
X15120184Y-2997737D01*
X15024211Y-3150476D01*
X14964631Y-3320745D01*
X14964630Y-3320750D01*
X14944435Y-3499996D01*
X13805565Y-3499996D01*
X13785369Y-3320750D01*
X13785368Y-3320745D01*
X13725788Y-3150476D01*
X13646450Y-3024211D01*
X13629816Y-2997738D01*
X13594759Y-2962681D01*
X13561274Y-2901358D01*
X13566258Y-2831666D01*
X13594759Y-2787319D01*
X13607867Y-2774211D01*
X13629816Y-2752262D01*
X13725789Y-2599522D01*
X13785368Y-2429255D01*
X13787077Y-2414086D01*
X13805565Y-2250003D01*
X13805565Y-2249996D01*
X13785369Y-2070750D01*
X13785368Y-2070745D01*
X13774301Y-2039117D01*
X13725789Y-1900478D01*
X13629816Y-1747738D01*
X13502262Y-1620184D01*
X13478084Y-1604992D01*
X13431796Y-1552661D01*
X13421146Y-1483607D01*
X13449521Y-1419758D01*
X13478082Y-1395009D01*
X13502262Y-1379816D01*
X13629816Y-1252262D01*
X13725789Y-1099522D01*
X13785368Y-929255D01*
X13785418Y-928811D01*
X13805565Y-750003D01*
X13805565Y-749996D01*
X13785369Y-570750D01*
X13785368Y-570745D01*
X13725788Y-400476D01*
X13629815Y-247737D01*
X13502262Y-120184D01*
X13349523Y-24211D01*
X13280321Y3D01*
X19194435Y3D01*
X19194435Y-3D01*
X19214630Y-179249D01*
X19214631Y-179254D01*
X19274211Y-349523D01*
X19333849Y-444435D01*
X19370184Y-502262D01*
X19497738Y-629816D01*
X19650478Y-725789D01*
X19719678Y-750003D01*
X19820745Y-785368D01*
X19820750Y-785369D01*
X19999996Y-805565D01*
X20000000Y-805565D01*
X20000004Y-805565D01*
X20179249Y-785369D01*
X20179252Y-785368D01*
X20179255Y-785368D01*
X20349522Y-725789D01*
X20502262Y-629816D01*
X20629816Y-502262D01*
X20725789Y-349522D01*
X20785368Y-179255D01*
X20796662Y-79020D01*
X20805565Y-3D01*
X20805565Y3D01*
X20791546Y124422D01*
X22167382Y124422D01*
X22167382Y124415D01*
X22187577Y-54830D01*
X22187578Y-54835D01*
X22247158Y-225104D01*
X22295819Y-302547D01*
X22343131Y-377843D01*
X22470685Y-505397D01*
X22623425Y-601370D01*
X22704719Y-629816D01*
X22793692Y-660949D01*
X22793697Y-660950D01*
X22972943Y-681146D01*
X22972947Y-681146D01*
X22972951Y-681146D01*
X23152196Y-660950D01*
X23152199Y-660949D01*
X23152202Y-660949D01*
X23322469Y-601370D01*
X23475209Y-505397D01*
X23602763Y-377843D01*
X23698736Y-225103D01*
X23758315Y-54836D01*
X23758316Y-54830D01*
X23764494Y0D01*
X33244659Y0D01*
X33263975Y-196129D01*
X33321188Y-384733D01*
X33414086Y-558532D01*
X33414090Y-558539D01*
X33539116Y-710883D01*
X33691460Y-835909D01*
X33691467Y-835913D01*
X33865266Y-928811D01*
X33865269Y-928811D01*
X33865273Y-928814D01*
X34053868Y-986024D01*
X34250000Y-1005341D01*
X34446132Y-986024D01*
X34634727Y-928814D01*
X34808538Y-835910D01*
X34960883Y-710883D01*
X35085910Y-558538D01*
X35178814Y-384727D01*
X35236024Y-196132D01*
X35255341Y0D01*
X35236024Y196132D01*
X35178814Y384727D01*
X35158229Y423238D01*
X35085913Y558532D01*
X35085909Y558539D01*
X35049838Y602491D01*
X34960883Y710883D01*
X34808538Y835910D01*
X34634727Y928814D01*
X34446132Y986024D01*
X34288012Y1001597D01*
X34249917Y1016979D01*
X34222937Y1003172D01*
X34211986Y1001597D01*
X34053868Y986024D01*
X33865273Y928814D01*
X33865269Y928811D01*
X33865266Y928811D01*
X33691467Y835913D01*
X33691460Y835909D01*
X33539116Y710883D01*
X33414090Y558539D01*
X33414086Y558532D01*
X33321188Y384733D01*
X33263975Y196129D01*
X33244659Y0D01*
X23764494Y0D01*
X23778512Y124415D01*
X23778512Y124422D01*
X23758316Y303668D01*
X23758315Y303673D01*
X23742272Y349522D01*
X23698736Y473941D01*
X23602763Y626681D01*
X23475209Y754235D01*
X23322469Y850208D01*
X23152202Y909787D01*
X23152199Y909787D01*
X23152196Y909788D01*
X22972951Y929984D01*
X22972943Y929984D01*
X22793697Y909788D01*
X22793692Y909787D01*
X22623425Y850208D01*
X22623423Y850207D01*
X22600670Y835910D01*
X22470685Y754235D01*
X22470684Y754234D01*
X22343131Y626681D01*
X22247158Y473942D01*
X22187578Y303673D01*
X22187577Y303668D01*
X22167382Y124422D01*
X20791546Y124422D01*
X20785369Y179249D01*
X20785368Y179254D01*
X20785368Y179255D01*
X20725789Y349522D01*
X20629816Y502262D01*
X20502262Y629816D01*
X20349522Y725789D01*
X20179255Y785368D01*
X20179252Y785368D01*
X20179249Y785369D01*
X20000004Y805565D01*
X19999996Y805565D01*
X19820750Y785369D01*
X19820745Y785368D01*
X19650478Y725789D01*
X19497738Y629816D01*
X19497737Y629815D01*
X19370184Y502262D01*
X19274211Y349523D01*
X19214631Y179254D01*
X19214630Y179249D01*
X19194435Y3D01*
X13280321Y3D01*
X13264388Y5578D01*
X13179255Y35368D01*
X13179252Y35368D01*
X13179249Y35369D01*
X13000004Y55565D01*
X12999996Y55565D01*
X12820750Y35369D01*
X12820745Y35368D01*
X12650476Y-24211D01*
X12497737Y-120184D01*
X12370184Y-247737D01*
X12274211Y-400476D01*
X12214631Y-570745D01*
X12214630Y-570750D01*
X12194435Y-749996D01*
X-8618765Y-749996D01*
X-8620184Y-747737D01*
X-8747737Y-620184D01*
X-8900476Y-524211D01*
X-9070745Y-464631D01*
X-9070750Y-464630D01*
X-9249996Y-444435D01*
X-9250004Y-444435D01*
X-9429249Y-464630D01*
X-9429254Y-464631D01*
X-9599523Y-524211D01*
X-9722318Y-601369D01*
X-9752262Y-620184D01*
X-9879816Y-747738D01*
X-9903461Y-785369D01*
X-9948773Y-857483D01*
X-9975789Y-900478D01*
X-10005723Y-986024D01*
X-10035368Y-1070745D01*
X-10035369Y-1070750D01*
X-10055565Y-1249996D01*
X-35197449Y-1249996D01*
X-35153757Y-1245299D01*
X-35142516Y-1244091D01*
X-35007671Y-1193797D01*
X-35007664Y-1193793D01*
X-34892455Y-1107547D01*
X-34892452Y-1107544D01*
X-34806206Y-992335D01*
X-34806202Y-992328D01*
X-34755908Y-857482D01*
X-34749501Y-797883D01*
X-34749500Y-797864D01*
X-34749500Y797870D01*
X-34749501Y797876D01*
X-34755908Y857483D01*
X-34806202Y992328D01*
X-34806206Y992335D01*
X-34892452Y1107544D01*
X-34892455Y1107547D01*
X-35007664Y1193793D01*
X-35007671Y1193797D01*
X-35142517Y1244091D01*
X-35142516Y1244091D01*
X-35148925Y1244779D01*
X-35197505Y1250003D01*
X-23055565Y1250003D01*
X-23055565Y1249996D01*
X-23035369Y1070750D01*
X-23035368Y1070745D01*
X-22979047Y909788D01*
X-22975788Y900476D01*
X-22944202Y850208D01*
X-22881235Y749996D01*
X-22879815Y747737D01*
X-22752262Y620184D01*
X-22599523Y524211D01*
X-22429254Y464631D01*
X-22429249Y464630D01*
X-22250004Y444435D01*
X-22250000Y444435D01*
X-22249996Y444435D01*
X-22070750Y464630D01*
X-22070745Y464631D01*
X-21900476Y524211D01*
X-21747737Y620184D01*
X-21620184Y747737D01*
X-21618760Y750003D01*
X-14055565Y750003D01*
X-14055565Y749996D01*
X-14038945Y602491D01*
X-14035368Y570745D01*
X-13983756Y423245D01*
X-13975788Y400476D01*
X-13879815Y247737D01*
X-13752262Y120184D01*
X-13599523Y24211D01*
X-13514388Y-5578D01*
X-13429255Y-35368D01*
X-13429252Y-35368D01*
X-13429249Y-35369D01*
X-13250004Y-55565D01*
X-13250000Y-55565D01*
X-13249996Y-55565D01*
X-13070750Y-35369D01*
X-13070745Y-35368D01*
X-12900476Y24211D01*
X-12747737Y120184D01*
X-12620184Y247737D01*
X-12524211Y400476D01*
X-12516244Y423245D01*
X-4327337Y423245D01*
X-4327337Y423238D01*
X-4307141Y243992D01*
X-4307140Y243987D01*
X-4247560Y73718D01*
X-4227957Y42520D01*
X-4151588Y-79020D01*
X-4024034Y-206574D01*
X-3871294Y-302547D01*
X-3701027Y-362126D01*
X-3701024Y-362126D01*
X-3701021Y-362127D01*
X-3521776Y-382323D01*
X-3521772Y-382323D01*
X-3521768Y-382323D01*
X-3342522Y-362127D01*
X-3342517Y-362126D01*
X-3306497Y-349522D01*
X-3172250Y-302547D01*
X-3019510Y-206574D01*
X-2891956Y-79020D01*
X-2876760Y-54836D01*
X-2795983Y73718D01*
X-2736403Y243987D01*
X-2736402Y243992D01*
X-2716207Y423238D01*
X-2716207Y423245D01*
X-2736402Y602491D01*
X-2736403Y602496D01*
X-2788018Y750003D01*
X394432Y750003D01*
X394432Y749996D01*
X414627Y570750D01*
X414628Y570745D01*
X474208Y400476D01*
X570181Y247737D01*
X697734Y120184D01*
X850473Y24211D01*
X1020742Y-35368D01*
X1020747Y-35369D01*
X1199993Y-55565D01*
X1199997Y-55565D01*
X1200001Y-55565D01*
X1379246Y-35369D01*
X1379249Y-35368D01*
X1379252Y-35368D01*
X1464385Y-5578D01*
X1549520Y24211D01*
X1702259Y120184D01*
X1829812Y247737D01*
X1925785Y400476D01*
X1933753Y423245D01*
X1985365Y570745D01*
X1988942Y602491D01*
X2005562Y749996D01*
X2005562Y750003D01*
X1985366Y929249D01*
X1985365Y929254D01*
X1985110Y929984D01*
X1925786Y1099522D01*
X1829813Y1252262D01*
X1702259Y1379816D01*
X1549519Y1475789D01*
X1379252Y1535368D01*
X1379249Y1535368D01*
X1379246Y1535369D01*
X1200001Y1555565D01*
X1199993Y1555565D01*
X1020747Y1535369D01*
X1020742Y1535368D01*
X850475Y1475789D01*
X697735Y1379816D01*
X697734Y1379815D01*
X570181Y1252262D01*
X474208Y1099523D01*
X414628Y929254D01*
X414627Y929249D01*
X394432Y750003D01*
X-2788018Y750003D01*
X-2795983Y772765D01*
X-2891956Y925504D01*
X-3019509Y1053057D01*
X-3019510Y1053058D01*
X-3172250Y1149031D01*
X-3342517Y1208610D01*
X-3342522Y1208611D01*
X-3521768Y1228807D01*
X-3521776Y1228807D01*
X-3701021Y1208611D01*
X-3701024Y1208610D01*
X-3701027Y1208610D01*
X-3871294Y1149031D01*
X-4024034Y1053058D01*
X-4151588Y925504D01*
X-4247561Y772764D01*
X-4300951Y620184D01*
X-4307140Y602496D01*
X-4307141Y602491D01*
X-4327337Y423245D01*
X-12516244Y423245D01*
X-12464631Y570745D01*
X-12464630Y570750D01*
X-12444435Y749996D01*
X-12444435Y750003D01*
X-12464630Y929249D01*
X-12464631Y929254D01*
X-12524211Y1099523D01*
X-12618765Y1250003D01*
X-7055565Y1250003D01*
X-7055565Y1249996D01*
X-7035369Y1070750D01*
X-7035368Y1070745D01*
X-6979047Y909788D01*
X-6975788Y900476D01*
X-6944202Y850208D01*
X-6881235Y749996D01*
X-6879815Y747737D01*
X-6752262Y620184D01*
X-6599523Y524211D01*
X-6429254Y464631D01*
X-6429249Y464630D01*
X-6250004Y444435D01*
X-6250000Y444435D01*
X-6249996Y444435D01*
X-6070750Y464630D01*
X-6070745Y464631D01*
X-5900476Y524211D01*
X-5747737Y620184D01*
X-5620184Y747737D01*
X-5524211Y900476D01*
X-5464631Y1070745D01*
X-5464630Y1070750D01*
X-5444435Y1249996D01*
X-5444435Y1250003D01*
X-5464630Y1429249D01*
X-5464631Y1429254D01*
X-5524211Y1599523D01*
X-5620184Y1752262D01*
X-5747737Y1879815D01*
X-5747738Y1879816D01*
X-5900478Y1975789D01*
X-6070745Y2035368D01*
X-6070750Y2035369D01*
X-6249996Y2055565D01*
X-6250004Y2055565D01*
X-6429249Y2035369D01*
X-6429252Y2035368D01*
X-6429255Y2035368D01*
X-6599522Y1975789D01*
X-6752262Y1879816D01*
X-6879816Y1752262D01*
X-6975789Y1599522D01*
X-6998237Y1535369D01*
X-7035368Y1429254D01*
X-7035369Y1429249D01*
X-7055565Y1250003D01*
X-12618765Y1250003D01*
X-12620184Y1252262D01*
X-12747737Y1379815D01*
X-12747738Y1379816D01*
X-12900478Y1475789D01*
X-13070745Y1535368D01*
X-13070750Y1535369D01*
X-13249996Y1555565D01*
X-13250004Y1555565D01*
X-13429249Y1535369D01*
X-13429252Y1535368D01*
X-13429255Y1535368D01*
X-13599522Y1475789D01*
X-13752262Y1379816D01*
X-13879816Y1252262D01*
X-13975789Y1099522D01*
X-14035113Y929984D01*
X-14035368Y929254D01*
X-14035369Y929249D01*
X-14055565Y750003D01*
X-21618760Y750003D01*
X-21524211Y900476D01*
X-21464631Y1070745D01*
X-21464630Y1070750D01*
X-21444435Y1249996D01*
X-21444435Y1250003D01*
X-21464630Y1429249D01*
X-21464631Y1429254D01*
X-21524211Y1599523D01*
X-21620184Y1752262D01*
X-21747737Y1879815D01*
X-21747738Y1879816D01*
X-21900478Y1975789D01*
X-22070745Y2035368D01*
X-22070750Y2035369D01*
X-22249996Y2055565D01*
X-22250004Y2055565D01*
X-22429249Y2035369D01*
X-22429252Y2035368D01*
X-22429255Y2035368D01*
X-22599522Y1975789D01*
X-22752262Y1879816D01*
X-22879816Y1752262D01*
X-22975789Y1599522D01*
X-22998237Y1535369D01*
X-23035368Y1429254D01*
X-23035369Y1429249D01*
X-23055565Y1250003D01*
X-35197505Y1250003D01*
X-35202127Y1250500D01*
X-36797872Y1250499D01*
X-36851407Y1244744D01*
X-36862247Y1243579D01*
X-36931006Y1255986D01*
X-36982143Y1303597D01*
X-36999500Y1366869D01*
X-36999500Y1633131D01*
X-36979815Y1700170D01*
X-36927011Y1745925D01*
X-36862246Y1756421D01*
X-36857483Y1755909D01*
X-36797873Y1749500D01*
X-36797865Y1749500D01*
X-35202129Y1749500D01*
X-35202123Y1749501D01*
X-35142516Y1755908D01*
X-35007671Y1806202D01*
X-35007664Y1806206D01*
X-34892455Y1892452D01*
X-34892452Y1892455D01*
X-34806206Y2007664D01*
X-34806202Y2007671D01*
X-34755908Y2142517D01*
X-34749501Y2202116D01*
X-34749500Y2202135D01*
X-34749500Y2500003D01*
X22694435Y2500003D01*
X22694435Y2499996D01*
X22714630Y2320750D01*
X22714631Y2320745D01*
X22774211Y2150476D01*
X22870184Y1997737D01*
X22997737Y1870184D01*
X23150476Y1774211D01*
X23320745Y1714631D01*
X23320750Y1714630D01*
X23499996Y1694435D01*
X23500000Y1694435D01*
X23500004Y1694435D01*
X23679249Y1714630D01*
X23679254Y1714631D01*
X23849523Y1774211D01*
X24002262Y1870184D01*
X24129815Y1997737D01*
X24153461Y2035368D01*
X24225789Y2150478D01*
X24285368Y2320745D01*
X24287668Y2327318D01*
X24290367Y2326373D01*
X24318192Y2376132D01*
X24379848Y2408998D01*
X24449486Y2403313D01*
X24492663Y2375259D01*
X24497738Y2370183D01*
X24650476Y2274211D01*
X24820745Y2214631D01*
X24820750Y2214630D01*
X24999996Y2194435D01*
X25000000Y2194435D01*
X25000004Y2194435D01*
X25179249Y2214630D01*
X25179254Y2214631D01*
X25280332Y2250000D01*
X33244659Y2250000D01*
X33263975Y2053870D01*
X33321188Y1865266D01*
X33414086Y1691467D01*
X33414090Y1691460D01*
X33539116Y1539116D01*
X33691460Y1414090D01*
X33691467Y1414086D01*
X33865266Y1321188D01*
X34053870Y1263975D01*
X34211986Y1248403D01*
X34250081Y1233020D01*
X34277062Y1246828D01*
X34288010Y1248402D01*
X34309285Y1250498D01*
X34446129Y1263975D01*
X34576744Y1303597D01*
X34634727Y1321186D01*
X34634733Y1321188D01*
X34808532Y1414086D01*
X34808539Y1414090D01*
X34960883Y1539116D01*
X35085909Y1691460D01*
X35085913Y1691467D01*
X35178811Y1865266D01*
X35178811Y1865269D01*
X35178814Y1865273D01*
X35236024Y2053868D01*
X35255341Y2250000D01*
X35236024Y2446132D01*
X35178814Y2634727D01*
X35155016Y2679249D01*
X35085913Y2808532D01*
X35085909Y2808539D01*
X34960883Y2960883D01*
X34808539Y3085909D01*
X34808538Y3085910D01*
X34634727Y3178814D01*
X34446132Y3236024D01*
X34250000Y3255341D01*
X34053868Y3236024D01*
X33865273Y3178814D01*
X33865269Y3178811D01*
X33865266Y3178811D01*
X33691467Y3085913D01*
X33691460Y3085909D01*
X33539116Y2960883D01*
X33414090Y2808539D01*
X33414086Y2808532D01*
X33321188Y2634733D01*
X33321186Y2634727D01*
X33283046Y2508997D01*
X33263975Y2446129D01*
X33244659Y2250000D01*
X25280332Y2250000D01*
X25349523Y2274211D01*
X25502262Y2370184D01*
X25629815Y2497737D01*
X25631235Y2499996D01*
X25725789Y2650478D01*
X25785368Y2820745D01*
X25788611Y2849522D01*
X25805565Y3000000D01*
X25805565Y3000003D01*
X25785369Y3179249D01*
X25785368Y3179254D01*
X25769085Y3225789D01*
X25725789Y3349522D01*
X25629816Y3502262D01*
X25502262Y3629816D01*
X25349522Y3725789D01*
X25179255Y3785368D01*
X25179252Y3785368D01*
X25179249Y3785369D01*
X25000004Y3805565D01*
X24999996Y3805565D01*
X24820750Y3785369D01*
X24820745Y3785368D01*
X24650478Y3725789D01*
X24497738Y3629816D01*
X24497737Y3629815D01*
X24370184Y3502262D01*
X24274211Y3349523D01*
X24212332Y3172682D01*
X24209644Y3173622D01*
X24181754Y3123814D01*
X24120077Y3090985D01*
X24050442Y3096713D01*
X24007332Y3124745D01*
X24002262Y3129816D01*
X23849522Y3225789D01*
X23679255Y3285368D01*
X23679252Y3285368D01*
X23679249Y3285369D01*
X23500004Y3305565D01*
X23499996Y3305565D01*
X23320750Y3285369D01*
X23320745Y3285368D01*
X23150478Y3225789D01*
X22997738Y3129816D01*
X22997737Y3129815D01*
X22870184Y3002262D01*
X22774211Y2849523D01*
X22714631Y2679254D01*
X22714630Y2679249D01*
X22694435Y2500003D01*
X-34749500Y2500003D01*
X-34749500Y3797870D01*
X-34749501Y3797876D01*
X-34755908Y3857483D01*
X-34806202Y3992328D01*
X-34806206Y3992335D01*
X-34892452Y4107544D01*
X-34892455Y4107547D01*
X-35007664Y4193793D01*
X-35007671Y4193797D01*
X-35142517Y4244091D01*
X-35142516Y4244091D01*
X-35148925Y4244779D01*
X-35202127Y4250500D01*
X-36797872Y4250499D01*
X-36851407Y4244744D01*
X-36862247Y4243579D01*
X-36931006Y4255986D01*
X-36982143Y4303597D01*
X-36999500Y4366869D01*
X-36999500Y4375003D01*
X-4680565Y4375003D01*
X-4680565Y4374996D01*
X-4660369Y4195750D01*
X-4660368Y4195745D01*
X-4600788Y4025476D01*
X-4504815Y3872737D01*
X-4377262Y3745184D01*
X-4224523Y3649211D01*
X-4054254Y3589631D01*
X-4054249Y3589630D01*
X-3875004Y3569435D01*
X-3875000Y3569435D01*
X-3874996Y3569435D01*
X-3695750Y3589630D01*
X-3695745Y3589631D01*
X-3525476Y3649211D01*
X-3372737Y3745184D01*
X-3245184Y3872737D01*
X-3149211Y4025476D01*
X-3089631Y4195745D01*
X-3089630Y4195750D01*
X-3069435Y4374996D01*
X-3069435Y4375003D01*
X-3089630Y4554249D01*
X-3089631Y4554254D01*
X-3149211Y4724523D01*
X-3245184Y4877262D01*
X-3372737Y5004815D01*
X-3372738Y5004816D01*
X-3477671Y5070750D01*
X-3525476Y5100788D01*
X-3525478Y5100789D01*
X-3695745Y5160368D01*
X-3695750Y5160369D01*
X-3874996Y5180565D01*
X-3875004Y5180565D01*
X-4054249Y5160369D01*
X-4054252Y5160368D01*
X-4054255Y5160368D01*
X-4224522Y5100789D01*
X-4377262Y5004816D01*
X-4504816Y4877262D01*
X-4600789Y4724522D01*
X-4637298Y4620184D01*
X-4660368Y4554254D01*
X-4660369Y4554249D01*
X-4680565Y4375003D01*
X-36999500Y4375003D01*
X-36999500Y5250003D01*
X-10305565Y5250003D01*
X-10305565Y5249996D01*
X-10285369Y5070750D01*
X-10285368Y5070745D01*
X-10235859Y4929255D01*
X-10225788Y4900476D01*
X-10186582Y4838080D01*
X-10131235Y4749996D01*
X-10129815Y4747737D01*
X-10002262Y4620184D01*
X-9849523Y4524211D01*
X-9679254Y4464631D01*
X-9679249Y4464630D01*
X-9500004Y4444435D01*
X-9500000Y4444435D01*
X-9499996Y4444435D01*
X-9320750Y4464630D01*
X-9320745Y4464631D01*
X-9150476Y4524211D01*
X-8997737Y4620184D01*
X-8870184Y4747737D01*
X-8774211Y4900476D01*
X-8714631Y5070745D01*
X-8714630Y5070750D01*
X-8694435Y5249996D01*
X-8694435Y5250004D01*
X-8702880Y5324959D01*
X-8690825Y5393781D01*
X-8643476Y5445160D01*
X-8593546Y5462062D01*
X-8570751Y5464630D01*
X-8570747Y5464631D01*
X-8400478Y5524210D01*
X-8247737Y5620184D01*
X-8120184Y5747737D01*
X-8024211Y5900476D01*
X-7964631Y6070745D01*
X-7964630Y6070750D01*
X-7944435Y6249996D01*
X-7944435Y6250003D01*
X-7964630Y6429249D01*
X-7964631Y6429254D01*
X-8024211Y6599523D01*
X-8120184Y6752262D01*
X-8247737Y6879815D01*
X-8247738Y6879816D01*
X-8350578Y6944435D01*
X-8400476Y6975788D01*
X-8400478Y6975789D01*
X-8469669Y7000000D01*
X-3505341Y7000000D01*
X-3486024Y6803868D01*
X-3428814Y6615273D01*
X-3428811Y6615269D01*
X-3428811Y6615266D01*
X-3335913Y6441467D01*
X-3335909Y6441460D01*
X-3210883Y6289116D01*
X-3058539Y6164090D01*
X-3058532Y6164086D01*
X-2884733Y6071188D01*
X-2884727Y6071186D01*
X-2822488Y6052306D01*
X-2696129Y6013975D01*
X-2500000Y5994659D01*
X-2303870Y6013975D01*
X-2115266Y6071188D01*
X-1941467Y6164086D01*
X-1941460Y6164090D01*
X-1789116Y6289116D01*
X-1664090Y6441460D01*
X-1664086Y6441467D01*
X-1571188Y6615266D01*
X-1513975Y6803870D01*
X-1494659Y7000000D01*
X-1513975Y7196129D01*
X-1550411Y7316240D01*
X-1571186Y7384727D01*
X-1571188Y7384733D01*
X-1664086Y7558532D01*
X-1664090Y7558539D01*
X-1789116Y7710883D01*
X-1941460Y7835909D01*
X-1941467Y7835913D01*
X-2115266Y7928811D01*
X-2115269Y7928811D01*
X-2115273Y7928814D01*
X-2303868Y7986024D01*
X-2500000Y8005341D01*
X-2696132Y7986024D01*
X-2884727Y7928814D01*
X-3058538Y7835910D01*
X-3210883Y7710883D01*
X-3335910Y7558538D01*
X-3428814Y7384727D01*
X-3486024Y7196132D01*
X-3505341Y7000000D01*
X-8469669Y7000000D01*
X-8570745Y7035368D01*
X-8570750Y7035369D01*
X-8749996Y7055565D01*
X-8750004Y7055565D01*
X-8929249Y7035369D01*
X-8929252Y7035368D01*
X-8929255Y7035368D01*
X-9099522Y6975789D01*
X-9252262Y6879816D01*
X-9379816Y6752262D01*
X-9475789Y6599522D01*
X-9531097Y6441460D01*
X-9535368Y6429254D01*
X-9535369Y6429249D01*
X-9555565Y6250003D01*
X-9555565Y6249997D01*
X-9547119Y6175041D01*
X-9559173Y6106219D01*
X-9606522Y6054840D01*
X-9656456Y6037936D01*
X-9679255Y6035368D01*
X-9849522Y5975789D01*
X-10002262Y5879816D01*
X-10129816Y5752262D01*
X-10225789Y5599522D01*
X-10285368Y5429255D01*
X-10285368Y5429254D01*
X-10285369Y5429249D01*
X-10305565Y5250003D01*
X-36999500Y5250003D01*
X-36999500Y6461771D01*
X-36979815Y6528810D01*
X-36927011Y6574565D01*
X-36857853Y6584509D01*
X-36794297Y6555484D01*
X-36757570Y6500093D01*
X-36751558Y6481589D01*
X-36672264Y6325965D01*
X-36655049Y6292180D01*
X-36530110Y6120214D01*
X-36379787Y5969891D01*
X-36207821Y5844952D01*
X-36207817Y5844950D01*
X-36018413Y5748444D01*
X-35816244Y5682755D01*
X-35816242Y5682754D01*
X-35816241Y5682754D01*
X-35654958Y5657209D01*
X-35606288Y5649501D01*
X-35606287Y5649501D01*
X-35393715Y5649501D01*
X-35393714Y5649501D01*
X-35345043Y5657209D01*
X-35183761Y5682754D01*
X-34981586Y5748445D01*
X-34792180Y5844952D01*
X-34620214Y5969891D01*
X-34469891Y6120214D01*
X-34344952Y6292180D01*
X-34248445Y6481586D01*
X-34182754Y6683761D01*
X-34149501Y6893714D01*
X-34149501Y7106287D01*
X-34182754Y7316240D01*
X-34210124Y7400476D01*
X-34248444Y7518413D01*
X-34344950Y7707817D01*
X-34344952Y7707821D01*
X-34469891Y7879787D01*
X-34620214Y8030110D01*
X-34792180Y8155049D01*
X-34792184Y8155051D01*
X-34792185Y8155052D01*
X-34981589Y8251558D01*
X-35000091Y8257569D01*
X-35057766Y8297006D01*
X-35084964Y8361365D01*
X-35073049Y8430211D01*
X-35025805Y8481687D01*
X-34961772Y8499500D01*
X-14181940Y8499500D01*
X-14114901Y8479815D01*
G37*
G04 #@! TD.AperFunction*
M02*
