M48
; DRILL file {KiCad 8.0.4} date 2025-02-16T16:38:44+1100
; FORMAT={-:-/ absolute / metric / decimal}
; #@! TF.CreationDate,2025-02-16T16:38:44+11:00
; #@! TF.GenerationSoftware,Kicad,Pcbnew,8.0.4
; #@! TF.FileFunction,Plated,1,2,PTH
FMAT,2
METRIC
; #@! TA.AperFunction,Plated,PTH,ViaDrill
T1C0.300
; #@! TA.AperFunction,Plated,PTH,ViaDrill
T2C0.500
%
G90
G05
T1
X-139.298Y0.925
X-139.139Y-4.344
X-138.829Y6.166
X-138.143Y-9.549
X-137.724Y11.369
X-136.546Y-14.555
X-135.859Y16.289
X-134.422Y-19.406
X-133.474Y20.982
X-131.551Y-23.893
X-130.438Y25.31
X-128.149Y-27.875
X-126.898Y29.176
X-119.956Y-34.451
X-118.385Y35.374
X-115.246Y-36.795
X-113.626Y37.653
X-110.341Y-38.651
X-108.573Y39.169
X-105.139Y-39.806
X-103.318Y40.059
X-99.934Y-40.311
X-98.113Y40.361
X-94.629Y-40.016
X-92.798Y39.925
X-89.397Y-39.216
X-87.698Y38.725
X-84.418Y-37.522
X-82.698Y36.925
X-79.612Y-35.324
X-78.049Y34.538
X-75.166Y-32.52
X-73.79Y31.438
X-71.1Y-29.15
X-69.798Y27.925
X-64.585Y-20.924
X-63.649Y19.412
X-62.079Y-16.222
X-61.393Y14.588
X-60.298Y-11.275
X-59.798Y9.525
X-59.198Y-6.175
X-58.881Y4.362
X-58.698Y-0.875
X-54.6Y-2.898
X-44.0Y2.302
X-40.3Y0.9
X-40.141Y-4.369
X-39.831Y6.141
X-39.144Y-9.574
X-38.726Y11.344
X-37.9Y1.9
X-37.547Y-14.58
X-36.861Y16.264
X-35.424Y-19.431
X-34.476Y20.957
X-29.151Y-27.9
X-27.9Y29.151
X-25.251Y-31.407
X-23.893Y32.551
X-20.957Y-34.476
X-19.387Y35.349
X-16.247Y-36.82
X-14.628Y37.628
X-11.343Y-38.676
X-9.574Y39.144
X-6.141Y-39.831
X-4.32Y40.034
X-0.936Y-40.336
X0.885Y40.336
X4.369Y-40.041
X6.2Y39.9
X9.601Y-39.241
X11.3Y38.7
X14.58Y-37.547
X16.3Y36.9
X19.387Y-35.349
X20.949Y34.513
X27.898Y-29.175
X29.2Y27.9
X31.4Y-25.2
X32.5Y23.8
X33.435Y16.307
X34.413Y-20.949
X35.173Y12.111
X35.349Y19.387
X36.387Y7.734
X36.92Y-16.247
X37.606Y14.563
X38.7Y-11.3
X39.2Y9.5
X39.8Y-6.2
X40.117Y4.337
X40.3Y-0.9
T2
X37.2Y2.5
X39.3Y7.7
M30
