G04 #@! TF.GenerationSoftware,KiCad,Pcbnew,8.0.4*
G04 #@! TF.CreationDate,2025-02-16T16:38:41+11:00*
G04 #@! TF.ProjectId,LGS_FrontPCB,4c47535f-4672-46f6-9e74-5043422e6b69,rev?*
G04 #@! TF.SameCoordinates,Original*
G04 #@! TF.FileFunction,Copper,L2,Bot*
G04 #@! TF.FilePolarity,Positive*
%FSLAX46Y46*%
G04 Gerber Fmt 4.6, Leading zero omitted, Abs format (unit mm)*
G04 Created by KiCad (PCBNEW 8.0.4) date 2025-02-16 16:38:41*
%MOMM*%
%LPD*%
G01*
G04 APERTURE LIST*
G04 Aperture macros list*
%AMRoundRect*
0 Rectangle with rounded corners*
0 $1 Rounding radius*
0 $2 $3 $4 $5 $6 $7 $8 $9 X,Y pos of 4 corners*
0 Add a 4 corners polygon primitive as box body*
4,1,4,$2,$3,$4,$5,$6,$7,$8,$9,$2,$3,0*
0 Add four circle primitives for the rounded corners*
1,1,$1+$1,$2,$3*
1,1,$1+$1,$4,$5*
1,1,$1+$1,$6,$7*
1,1,$1+$1,$8,$9*
0 Add four rect primitives between the rounded corners*
20,1,$1+$1,$2,$3,$4,$5,0*
20,1,$1+$1,$4,$5,$6,$7,0*
20,1,$1+$1,$6,$7,$8,$9,0*
20,1,$1+$1,$8,$9,$2,$3,0*%
G04 Aperture macros list end*
G04 #@! TA.AperFunction,SMDPad,CuDef*
%ADD10RoundRect,0.375000X-0.132905X-1.178383X0.600706X-1.022449X0.132905X1.178383X-0.600706X1.022449X0*%
G04 #@! TD*
G04 #@! TA.AperFunction,SMDPad,CuDef*
%ADD11RoundRect,0.375000X0.156120X-1.175532X0.830215X-0.846754X-0.156120X1.175532X-0.830215X0.846754X0*%
G04 #@! TD*
G04 #@! TA.AperFunction,SMDPad,CuDef*
%ADD12RoundRect,0.375000X0.011695X-1.185796X0.720834X-0.941620X-0.011695X1.185796X-0.720834X0.941620X0*%
G04 #@! TD*
G04 #@! TA.AperFunction,ViaPad*
%ADD13C,0.600000*%
G04 #@! TD*
G04 #@! TA.AperFunction,ViaPad*
%ADD14C,1.000000*%
G04 #@! TD*
G04 #@! TA.AperFunction,Conductor*
%ADD15C,0.200000*%
G04 #@! TD*
G04 #@! TA.AperFunction,Conductor*
%ADD16C,1.000000*%
G04 #@! TD*
G04 APERTURE END LIST*
D10*
X36387000Y7734000D03*
D11*
X33435000Y16307000D03*
D12*
X35173000Y12111000D03*
D13*
X33435000Y16307000D03*
X35173000Y12111000D03*
X36387000Y7734000D03*
X-54600000Y-2897749D03*
D14*
X37200000Y2500000D03*
X39300000Y7700000D03*
D13*
X-131550784Y-23893310D03*
X-75166054Y-32519600D03*
X-73789853Y31437859D03*
X-130437860Y25310146D03*
X-128149449Y-27874997D03*
X-139298226Y924999D03*
X-139138861Y-4343817D03*
X-98113224Y40361212D03*
X-126898231Y29176192D03*
X-138829398Y6165611D03*
X-135858815Y16289498D03*
X-60298226Y-11275001D03*
X-82698226Y36924999D03*
X-61392518Y14588331D03*
X-58881102Y4361679D03*
X-69798226Y27924999D03*
X-134422087Y-19406098D03*
X-94629400Y-40015630D03*
X-103317822Y40058945D03*
X-63648769Y19411773D03*
X-59798226Y9524999D03*
X-79611515Y-35324488D03*
X-137723829Y11369334D03*
X-87698226Y38724999D03*
X-133474384Y20982368D03*
X-84417861Y-37522330D03*
X-105138857Y-39806178D03*
X-89397071Y-39215862D03*
X-99934441Y-40311215D03*
X-58698226Y-875001D03*
X-118384983Y35374447D03*
X-110340861Y-38651158D03*
X-59198226Y-6175001D03*
X-138142580Y-9549391D03*
X-136545547Y-14555396D03*
X-92798226Y39924999D03*
X-64584953Y-20924492D03*
X-62078607Y-16222336D03*
X-119955591Y-34451158D03*
X-115245542Y-36794600D03*
X-78048771Y34538251D03*
X-108572636Y39169334D03*
X-113625940Y37652716D03*
X-71099999Y-29150003D03*
X-39831172Y6140612D03*
X-38725603Y11344335D03*
X-36860589Y16264499D03*
X-34476158Y20957369D03*
X-27900005Y29151193D03*
X-23893323Y32550756D03*
X-19386757Y35349448D03*
X-14627714Y37627717D03*
X-9574410Y39144335D03*
X-4319596Y40033946D03*
X885002Y40336213D03*
X6200000Y39900000D03*
X11300000Y38700000D03*
X16300000Y36900000D03*
X20949455Y34513252D03*
X29200000Y27900000D03*
X32500000Y23800000D03*
X35349457Y19386774D03*
X37605708Y14563332D03*
X39200000Y9500000D03*
X40117124Y4336680D03*
X40300000Y-900000D03*
X39800000Y-6200000D03*
X38700000Y-11300000D03*
X36919619Y-16247335D03*
X34413273Y-20949491D03*
X31400000Y-25200000D03*
X27898227Y-29175002D03*
X19386711Y-35349487D03*
X14580365Y-37547329D03*
X9601155Y-39240861D03*
X4368826Y-40040629D03*
X-936215Y-40336214D03*
X-6140631Y-39831177D03*
X-11342635Y-38676157D03*
X-16247316Y-36819599D03*
X-20957365Y-34476157D03*
X-25250779Y-31406683D03*
X-29151223Y-27899996D03*
X-35423861Y-19431097D03*
X-37547321Y-14580395D03*
X-39144354Y-9574390D03*
X-40140635Y-4368816D03*
X-40300000Y900000D03*
X-37900000Y1900000D03*
X-44000000Y2302449D03*
D15*
X-46797551Y2302449D02*
X-51997749Y-2897749D01*
X-44000000Y2302449D02*
X-46797551Y2302449D01*
X-51997749Y-2897749D02*
X-54600000Y-2897749D01*
D16*
X37200000Y5771245D02*
X37200000Y2500000D01*
X36387000Y7734000D02*
G75*
G02*
X37200018Y5771245I-1962800J-1962800D01*
G01*
X39217917Y7734000D02*
G75*
G02*
X39299995Y7699995I-17J-116100D01*
G01*
X36387000Y7734000D02*
X39217917Y7734000D01*
D15*
X-33936877Y13726056D02*
X-33459270Y14852391D01*
X-14852391Y33459270D02*
X-13726056Y33936877D01*
X13726056Y33936877D02*
X14852391Y33459270D01*
X22204336Y29104702D02*
X23164452Y28346506D01*
X23164452Y28346506D02*
X24098718Y27556633D01*
X-29830418Y21219386D02*
X-29104702Y22204336D01*
X-37900000Y1900000D02*
X-37897527Y2058074D01*
X32770025Y16307000D02*
X33435000Y16307000D01*
X-37897527Y2058074D02*
X-37895267Y2196270D01*
X5484891Y36194367D02*
X6691248Y35990880D01*
X-37895267Y2196270D02*
X-37859191Y2470296D01*
X-37859191Y2470296D02*
X-37787656Y2737270D01*
X-37787656Y2737270D02*
X-37681885Y2992622D01*
X-33459270Y14852391D02*
X-32944297Y15962128D01*
X-10260180Y35140361D02*
X-9080240Y35463579D01*
X25006055Y26735996D02*
X25885480Y25885480D01*
X-37681885Y2992622D02*
X-37543690Y3231984D01*
X-37543690Y3231984D02*
X-37375434Y3451260D01*
X-31804578Y18126917D02*
X-31181106Y19179542D01*
X-611703Y36602487D02*
X611703Y36602487D01*
X-37375434Y3451260D02*
X-37279312Y3550577D01*
X-4272378Y36357435D02*
X-3055129Y36479891D01*
X-37279312Y3550577D02*
X-36326346Y4503543D01*
X-36326346Y4503543D02*
X-36194367Y5484891D01*
X-36194367Y5484891D02*
X-35990880Y6691248D01*
X-35990880Y6691248D02*
X-35747194Y7890143D01*
X-35747194Y7890143D02*
X-35463579Y9080240D01*
X-35463579Y9080240D02*
X-35140361Y10260180D01*
X12584376Y34376586D02*
X13726056Y33936877D01*
X14852391Y33459270D02*
X15962128Y32944297D01*
X-35140361Y10260180D02*
X-34777893Y11428669D01*
X-34777893Y11428669D02*
X-34376586Y12584376D01*
X17054058Y32392520D02*
X18126917Y31804578D01*
X-34376586Y12584376D02*
X-33936877Y13726056D01*
X-9080240Y35463579D02*
X-7890143Y35747194D01*
X-32944297Y15962128D02*
X-32392520Y17054058D01*
X-28346506Y23164452D02*
X-27556633Y24098718D01*
X11428669Y34777893D02*
X12584376Y34376586D01*
X-32392520Y17054058D02*
X-31804578Y18126917D01*
X-31181106Y19179542D02*
X-30522802Y20210760D01*
X-18126917Y31804578D02*
X-17054058Y32392520D01*
X-5484891Y36194367D02*
X-4272378Y36357435D01*
X-30522802Y20210760D02*
X-29830418Y21219386D01*
X-13726056Y33936877D02*
X-12584376Y34376586D01*
X-29104702Y22204336D02*
X-28346506Y23164452D01*
X-25885480Y25885480D02*
X-25006055Y26735996D01*
X-27556633Y24098718D02*
X-26735996Y25006055D01*
X-11428669Y34777893D02*
X-10260180Y35140361D01*
X-3055129Y36479891D02*
X-1834441Y36561606D01*
X30522802Y20210760D02*
X31181106Y19179542D01*
X-26735996Y25006055D02*
X-25885480Y25885480D01*
X-6691248Y35990880D02*
X-5484891Y36194367D01*
X-25006055Y26735996D02*
X-24098718Y27556633D01*
X-24098718Y27556633D02*
X-23164452Y28346506D01*
X-23164452Y28346506D02*
X-22204336Y29104702D01*
X-22204336Y29104702D02*
X-21219386Y29830418D01*
X-21219386Y29830418D02*
X-20210760Y30522802D01*
X-20210760Y30522802D02*
X-19179542Y31181106D01*
X-19179542Y31181106D02*
X-18126917Y31804578D01*
X27556633Y24098718D02*
X28346506Y23164452D01*
X-17054058Y32392520D02*
X-15962128Y32944297D01*
X-15962128Y32944297D02*
X-14852391Y33459270D01*
X-12584376Y34376586D02*
X-11428669Y34777893D01*
X-7890143Y35747194D02*
X-6691248Y35990880D01*
X-1834441Y36561606D02*
X-611703Y36602487D01*
X611703Y36602487D02*
X1834441Y36561606D01*
X1834441Y36561606D02*
X3055129Y36479891D01*
X3055129Y36479891D02*
X4272378Y36357435D01*
X4272378Y36357435D02*
X5484891Y36194367D01*
X6691248Y35990880D02*
X7890143Y35747194D01*
X31181106Y19179542D02*
X31804578Y18126917D01*
X7890143Y35747194D02*
X9080240Y35463579D01*
X9080240Y35463579D02*
X10260180Y35140361D01*
X10260180Y35140361D02*
X11428669Y34777893D01*
X18126917Y31804578D02*
X19179542Y31181106D01*
X15962128Y32944297D02*
X17054058Y32392520D01*
X19179542Y31181106D02*
X20210760Y30522802D01*
X25885480Y25885480D02*
X26735996Y25006055D01*
X20210760Y30522802D02*
X21219386Y29830418D01*
X21219386Y29830418D02*
X22204336Y29104702D01*
X24098718Y27556633D02*
X25006055Y26735996D01*
X26735996Y25006055D02*
X27556633Y24098718D01*
X28346506Y23164452D02*
X29104702Y22204336D01*
X29104702Y22204336D02*
X29830418Y21219386D01*
X29830418Y21219386D02*
X30522802Y20210760D01*
X31804578Y18126917D02*
X32392520Y17054058D01*
X32392520Y17054058D02*
X32770025Y16307000D01*
G04 #@! TA.AperFunction,Conductor*
G36*
X972847Y42988447D02*
G01*
X978871Y42988311D01*
X2273871Y42939290D01*
X2279888Y42938971D01*
X3572823Y42850764D01*
X3578827Y42850262D01*
X4868410Y42722964D01*
X4874397Y42722282D01*
X6159627Y42555987D01*
X6165589Y42555123D01*
X7445121Y42350008D01*
X7451056Y42348965D01*
X8723854Y42105194D01*
X8729754Y42103971D01*
X9994563Y41821786D01*
X10000423Y41820385D01*
X11256116Y41500035D01*
X11261931Y41498457D01*
X12507339Y41140241D01*
X12513103Y41138488D01*
X13747073Y40742742D01*
X13752782Y40740816D01*
X14974252Y40307876D01*
X14979901Y40305777D01*
X16187704Y39836055D01*
X16193285Y39833786D01*
X17386253Y39327741D01*
X17391764Y39325305D01*
X18568951Y38783335D01*
X18574385Y38780732D01*
X19734541Y38203415D01*
X19739894Y38200650D01*
X20882107Y37588438D01*
X20887374Y37585511D01*
X22010498Y36939018D01*
X22015674Y36935933D01*
X23118687Y36255748D01*
X23123767Y36252509D01*
X24205720Y35539220D01*
X24210700Y35535828D01*
X25124185Y34893101D01*
X25183460Y34827298D01*
X25208314Y34742294D01*
X25193825Y34654924D01*
X25142863Y34582493D01*
X25071167Y34541089D01*
X24992588Y34515557D01*
X24992584Y34515555D01*
X24992581Y34515554D01*
X24894589Y34465624D01*
X24803184Y34419051D01*
X24685688Y34333685D01*
X24631210Y34294106D01*
X24480893Y34143789D01*
X24456981Y34110876D01*
X24355949Y33971816D01*
X24355947Y33971812D01*
X24259445Y33782418D01*
X24259441Y33782407D01*
X24193756Y33580251D01*
X24193752Y33580234D01*
X24170170Y33431338D01*
X24160544Y33370561D01*
X24160500Y33370286D01*
X24160500Y33157713D01*
X24193752Y32947765D01*
X24193756Y32947748D01*
X24259441Y32745592D01*
X24259445Y32745581D01*
X24355947Y32556187D01*
X24480893Y32384210D01*
X24631210Y32233893D01*
X24803187Y32108947D01*
X24992581Y32012445D01*
X24992592Y32012441D01*
X25194748Y31946756D01*
X25194765Y31946752D01*
X25404713Y31913500D01*
X25617287Y31913500D01*
X25827234Y31946752D01*
X25827241Y31946753D01*
X25827243Y31946754D01*
X25827244Y31946754D01*
X25827251Y31946756D01*
X26029407Y32012441D01*
X26029418Y32012445D01*
X26218812Y32108947D01*
X26218816Y32108949D01*
X26309071Y32174523D01*
X26390789Y32233893D01*
X26541106Y32384210D01*
X26580685Y32438688D01*
X26666051Y32556184D01*
X26730469Y32682611D01*
X26762554Y32745581D01*
X26762558Y32745592D01*
X26772701Y32776807D01*
X26828246Y32947757D01*
X26861500Y33157713D01*
X26861500Y33157718D01*
X26862114Y33165509D01*
X26863360Y33165410D01*
X26881207Y33243604D01*
X26936426Y33312845D01*
X27016218Y33351272D01*
X27104782Y33351272D01*
X27184574Y33312845D01*
X27184652Y33312784D01*
X27329778Y33196932D01*
X27334429Y33193102D01*
X28322248Y32354340D01*
X28326782Y32350371D01*
X29288795Y31482052D01*
X29293206Y31477947D01*
X30228453Y30580936D01*
X30232738Y30576700D01*
X31140416Y29651771D01*
X31144570Y29647408D01*
X32023832Y28695422D01*
X32027853Y28690934D01*
X32877884Y27712773D01*
X32881767Y27708166D01*
X33701819Y26704689D01*
X33705560Y26699966D01*
X34494827Y25672163D01*
X34498424Y25667329D01*
X35256216Y24616097D01*
X35259665Y24611157D01*
X35985298Y23537445D01*
X35988596Y23532402D01*
X36681377Y22437237D01*
X36684521Y22432097D01*
X37343851Y21316421D01*
X37346837Y21311188D01*
X37972064Y20176109D01*
X37974891Y20170788D01*
X38565471Y19017293D01*
X38568136Y19011889D01*
X39123550Y17840989D01*
X39126049Y17835506D01*
X39645722Y16648415D01*
X39648055Y16642860D01*
X40131581Y15440505D01*
X40133744Y15434881D01*
X40580632Y14218486D01*
X40582624Y14212800D01*
X40992487Y12983414D01*
X40994306Y12977670D01*
X41366766Y11736428D01*
X41368410Y11730631D01*
X41703114Y10478705D01*
X41704582Y10472861D01*
X42001237Y9211359D01*
X42002527Y9205474D01*
X42260848Y7935597D01*
X42261960Y7929675D01*
X42481729Y6652500D01*
X42482660Y6646547D01*
X42663650Y5363399D01*
X42664402Y5357421D01*
X42806473Y4069269D01*
X42807042Y4063270D01*
X42910044Y2771496D01*
X42910432Y2765484D01*
X42974280Y1471157D01*
X42974486Y1465135D01*
X42999120Y169444D01*
X42999143Y163419D01*
X42984541Y-1132388D01*
X42984382Y-1138412D01*
X42930555Y-2433192D01*
X42930214Y-2439207D01*
X42837214Y-3731771D01*
X42836691Y-3737774D01*
X42704600Y-5026947D01*
X42703895Y-5032931D01*
X42532836Y-6317507D01*
X42531950Y-6323467D01*
X42322083Y-7602257D01*
X42321017Y-7608187D01*
X42072536Y-8880019D01*
X42071292Y-8885914D01*
X41784407Y-10149699D01*
X41782984Y-10155554D01*
X41457983Y-11410026D01*
X41456384Y-11415835D01*
X41093540Y-12659936D01*
X41091765Y-12665694D01*
X40691449Y-13898165D01*
X40689502Y-13903867D01*
X40252024Y-15123744D01*
X40249904Y-15129384D01*
X39775724Y-16335384D01*
X39773435Y-16340958D01*
X39262938Y-17532104D01*
X39260481Y-17537605D01*
X38714167Y-18712732D01*
X38711544Y-18718157D01*
X38129910Y-19876190D01*
X38127125Y-19881532D01*
X37510693Y-21021441D01*
X37507746Y-21026698D01*
X36857089Y-22147415D01*
X36853986Y-22152579D01*
X36169690Y-23253098D01*
X36166431Y-23258166D01*
X35449137Y-24337456D01*
X35445726Y-24342423D01*
X34696106Y-25399474D01*
X34692547Y-25404336D01*
X33911229Y-26438259D01*
X33907524Y-26443010D01*
X33095290Y-27452773D01*
X33091443Y-27457410D01*
X32249008Y-28442126D01*
X32245022Y-28446645D01*
X31373154Y-29405411D01*
X31369033Y-29409807D01*
X30468543Y-30341735D01*
X30464291Y-30346004D01*
X29536000Y-31250244D01*
X29531621Y-31254382D01*
X28576393Y-32130091D01*
X28571891Y-32134095D01*
X27590566Y-32980505D01*
X27585944Y-32984371D01*
X27185852Y-33308861D01*
X27106378Y-33347943D01*
X27017818Y-33348673D01*
X26937711Y-33310905D01*
X26881924Y-33242121D01*
X26863742Y-33165380D01*
X26862114Y-33165509D01*
X26861500Y-33157718D01*
X26861500Y-33157713D01*
X26828246Y-32947757D01*
X26762557Y-32745588D01*
X26762555Y-32745584D01*
X26762554Y-32745581D01*
X26712624Y-32647589D01*
X26666051Y-32556184D01*
X26544227Y-32388506D01*
X26541106Y-32384210D01*
X26390789Y-32233893D01*
X26260472Y-32139214D01*
X26218816Y-32108949D01*
X26212223Y-32105590D01*
X26029418Y-32012445D01*
X26029407Y-32012441D01*
X25827251Y-31946756D01*
X25827234Y-31946752D01*
X25617287Y-31913500D01*
X25404713Y-31913500D01*
X25194765Y-31946752D01*
X25194748Y-31946756D01*
X24992592Y-32012441D01*
X24992581Y-32012445D01*
X24803187Y-32108947D01*
X24631210Y-32233893D01*
X24480893Y-32384210D01*
X24355947Y-32556187D01*
X24259445Y-32745581D01*
X24259441Y-32745592D01*
X24193756Y-32947748D01*
X24193752Y-32947765D01*
X24160500Y-33157713D01*
X24160500Y-33370286D01*
X24193752Y-33580234D01*
X24193756Y-33580251D01*
X24259441Y-33782407D01*
X24259445Y-33782418D01*
X24317991Y-33897320D01*
X24355949Y-33971816D01*
X24367667Y-33987944D01*
X24480893Y-34143789D01*
X24631210Y-34294106D01*
X24676228Y-34326813D01*
X24803184Y-34419051D01*
X24894589Y-34465624D01*
X24992581Y-34515554D01*
X24992584Y-34515555D01*
X24992588Y-34515557D01*
X25068394Y-34540188D01*
X25144418Y-34585610D01*
X25193208Y-34659522D01*
X25205097Y-34747284D01*
X25177730Y-34831513D01*
X25122666Y-34891307D01*
X24485098Y-35347320D01*
X24480145Y-35350751D01*
X23403740Y-36072399D01*
X23398685Y-36075678D01*
X22300932Y-36764405D01*
X22295780Y-36767529D01*
X21177704Y-37422692D01*
X21172460Y-37425659D01*
X20035083Y-38046662D01*
X20029752Y-38049470D01*
X18874021Y-38635792D01*
X18868607Y-38638436D01*
X17695694Y-39189481D01*
X17690202Y-39191960D01*
X16501163Y-39707237D01*
X16495599Y-39709549D01*
X15291468Y-40188606D01*
X15285836Y-40190748D01*
X14067801Y-40633114D01*
X14062108Y-40635085D01*
X12831211Y-41040383D01*
X12825460Y-41042181D01*
X11582824Y-41410038D01*
X11577021Y-41411660D01*
X10323899Y-41741706D01*
X10318050Y-41743153D01*
X9055424Y-42035132D01*
X9049534Y-42036400D01*
X7778715Y-42290006D01*
X7772789Y-42291096D01*
X6494812Y-42506123D01*
X6488855Y-42507032D01*
X5205011Y-42683262D01*
X5199031Y-42683991D01*
X3910429Y-42821275D01*
X3904428Y-42821823D01*
X2612217Y-42920035D01*
X2606203Y-42920400D01*
X1311683Y-42979443D01*
X1305660Y-42979627D01*
X9887Y-42999452D01*
X3862Y-42999453D01*
X-1291918Y-42980042D01*
X-1297940Y-42979860D01*
X-2592475Y-42921231D01*
X-2598490Y-42920868D01*
X-3890739Y-42823069D01*
X-3896739Y-42822523D01*
X-5185377Y-42685652D01*
X-5191358Y-42684925D01*
X-6475295Y-42509100D01*
X-6481252Y-42508192D01*
X-7759265Y-42293579D01*
X-7765191Y-42292491D01*
X-9036086Y-42039292D01*
X-9041977Y-42038026D01*
X-10304673Y-41746458D01*
X-10310523Y-41745014D01*
X-11563803Y-41415354D01*
X-11569606Y-41413733D01*
X-12812338Y-41046279D01*
X-12818089Y-41044483D01*
X-14049096Y-40639586D01*
X-14054791Y-40637617D01*
X-15273017Y-40195622D01*
X-15278649Y-40193481D01*
X-16482892Y-39714825D01*
X-16488457Y-39712515D01*
X-17677674Y-39197613D01*
X-17683166Y-39195136D01*
X-18856270Y-38644458D01*
X-18861685Y-38641815D01*
X-20017551Y-38055888D01*
X-20022883Y-38053083D01*
X-21160470Y-37432439D01*
X-21165716Y-37429473D01*
X-22284054Y-36774636D01*
X-22289206Y-36771514D01*
X-23387165Y-36083148D01*
X-23392221Y-36079870D01*
X-24468834Y-35358580D01*
X-24473788Y-35355151D01*
X-25528050Y-34601614D01*
X-25532899Y-34598037D01*
X-26563916Y-33812889D01*
X-26568654Y-33809166D01*
X-27575391Y-32993194D01*
X-27580014Y-32989330D01*
X-28561629Y-32143217D01*
X-28566132Y-32139214D01*
X-29521622Y-31263826D01*
X-29526003Y-31259689D01*
X-30454600Y-30355731D01*
X-30458853Y-30351463D01*
X-31359625Y-29419839D01*
X-31363747Y-29415445D01*
X-32235922Y-28456955D01*
X-32239909Y-28452438D01*
X-33082672Y-27467980D01*
X-33086521Y-27463343D01*
X-33274591Y-27229688D01*
X-33313378Y-27150070D01*
X-33313779Y-27061508D01*
X-33275714Y-26981542D01*
X-33206723Y-26926011D01*
X-33150701Y-26908361D01*
X-33004757Y-26885246D01*
X-32802588Y-26819557D01*
X-32802584Y-26819555D01*
X-32802581Y-26819554D01*
X-32704589Y-26769624D01*
X-32613184Y-26723051D01*
X-32495688Y-26637685D01*
X-32441210Y-26598106D01*
X-32290893Y-26447789D01*
X-32231523Y-26366071D01*
X-32165949Y-26275816D01*
X-32162590Y-26269223D01*
X-32069445Y-26086418D01*
X-32069441Y-26086407D01*
X-32003756Y-25884251D01*
X-32003752Y-25884234D01*
X-31970500Y-25674286D01*
X-31970500Y-25461713D01*
X-32003752Y-25251765D01*
X-32003756Y-25251748D01*
X-32069441Y-25049592D01*
X-32069445Y-25049581D01*
X-32165947Y-24860187D01*
X-32290893Y-24688210D01*
X-32441210Y-24537893D01*
X-32613187Y-24412947D01*
X-32802581Y-24316445D01*
X-32802592Y-24316441D01*
X-33004748Y-24250756D01*
X-33004765Y-24250752D01*
X-33214713Y-24217500D01*
X-33427287Y-24217500D01*
X-33637234Y-24250752D01*
X-33637251Y-24250756D01*
X-33839407Y-24316441D01*
X-33839418Y-24316445D01*
X-34022223Y-24409590D01*
X-34028816Y-24412949D01*
X-34119071Y-24478523D01*
X-34200789Y-24537893D01*
X-34351106Y-24688210D01*
X-34390685Y-24742688D01*
X-34476051Y-24860184D01*
X-34520866Y-24948140D01*
X-34576107Y-25056554D01*
X-34577563Y-25055812D01*
X-34622972Y-25119819D01*
X-34700482Y-25162664D01*
X-34788906Y-25167636D01*
X-34870730Y-25133749D01*
X-34917874Y-25086612D01*
X-35437951Y-24353739D01*
X-35441363Y-24348773D01*
X-36159003Y-23269713D01*
X-36162263Y-23264646D01*
X-36846888Y-22164383D01*
X-36849994Y-22159219D01*
X-37501031Y-21038670D01*
X-37503978Y-21033416D01*
X-38120770Y-19893717D01*
X-38123557Y-19888375D01*
X-38705552Y-18730543D01*
X-38708177Y-18725119D01*
X-39254886Y-17550127D01*
X-39257345Y-17544626D01*
X-39768188Y-16353722D01*
X-39770479Y-16348150D01*
X-40245077Y-15142222D01*
X-40247198Y-15136582D01*
X-40685041Y-13916914D01*
X-40686991Y-13911213D01*
X-41087724Y-12678801D01*
X-41089500Y-12673043D01*
X-41452729Y-11429098D01*
X-41454330Y-11423290D01*
X-41779735Y-10168914D01*
X-41781160Y-10163059D01*
X-42053359Y-8965734D01*
X-42055505Y-8946718D01*
X-42056599Y-8946863D01*
X-42058307Y-8933927D01*
X-42070506Y-8888463D01*
X-42072999Y-8878067D01*
X-42082746Y-8831977D01*
X-42087085Y-8819683D01*
X-42086718Y-8819553D01*
X-42094307Y-8799758D01*
X-42208052Y-8375851D01*
X-42211492Y-8360687D01*
X-42218542Y-8322796D01*
X-42219194Y-8321431D01*
X-42231834Y-8287223D01*
X-42231837Y-8287213D01*
X-42231937Y-8286837D01*
X-42232222Y-8285773D01*
X-42232224Y-8285770D01*
X-42251497Y-8252413D01*
X-42258744Y-8238655D01*
X-42304211Y-8143500D01*
X-42311052Y-8124139D01*
X-42311609Y-8124352D01*
X-42316255Y-8112166D01*
X-42339360Y-8069379D01*
X-42343812Y-8060624D01*
X-42364768Y-8016766D01*
X-42371877Y-8005837D01*
X-42371377Y-8005512D01*
X-42382993Y-7988579D01*
X-42411539Y-7935718D01*
X-42419228Y-7916922D01*
X-42419839Y-7917189D01*
X-42425064Y-7905239D01*
X-42450454Y-7863177D01*
X-42455182Y-7854902D01*
X-42478522Y-7811683D01*
X-42486164Y-7801114D01*
X-42485623Y-7800723D01*
X-42497914Y-7784555D01*
X-42529812Y-7731713D01*
X-42538284Y-7713503D01*
X-42538950Y-7713832D01*
X-42544722Y-7702139D01*
X-42572342Y-7660845D01*
X-42577293Y-7653057D01*
X-42602941Y-7610569D01*
X-42611077Y-7600384D01*
X-42610499Y-7599922D01*
X-42623389Y-7584528D01*
X-42663099Y-7525161D01*
X-42676735Y-7499721D01*
X-42680428Y-7493351D01*
X-42706384Y-7459650D01*
X-42714125Y-7448873D01*
X-42737772Y-7413522D01*
X-42742639Y-7407978D01*
X-42762388Y-7386939D01*
X-43051978Y-7010954D01*
X-43066369Y-6989527D01*
X-43076634Y-6971866D01*
X-43076639Y-6971860D01*
X-43090590Y-6957988D01*
X-43107926Y-6938314D01*
X-43119931Y-6922728D01*
X-43119935Y-6922724D01*
X-43133796Y-6912128D01*
X-43167291Y-6879633D01*
X-43167503Y-6879372D01*
X-43208901Y-6840265D01*
X-43212547Y-6836732D01*
X-43252937Y-6796577D01*
X-43256113Y-6794155D01*
X-43272067Y-6780600D01*
X-43308700Y-6745994D01*
X-43322343Y-6731763D01*
X-43328023Y-6725217D01*
X-43369051Y-6688849D01*
X-43373696Y-6684598D01*
X-43413539Y-6646961D01*
X-43420563Y-6641883D01*
X-43435949Y-6629550D01*
X-43475601Y-6594403D01*
X-43489819Y-6580470D01*
X-43495183Y-6574658D01*
X-43537540Y-6539376D01*
X-43542173Y-6535395D01*
X-43583469Y-6498790D01*
X-43590018Y-6494364D01*
X-43605937Y-6482401D01*
X-43649035Y-6446502D01*
X-43663810Y-6432874D01*
X-43668850Y-6427730D01*
X-43712520Y-6393506D01*
X-43717129Y-6389782D01*
X-43759736Y-6354293D01*
X-43765836Y-6350437D01*
X-43782252Y-6338860D01*
X-43831032Y-6300633D01*
X-43845500Y-6286551D01*
X-43845980Y-6287068D01*
X-43855534Y-6278195D01*
X-43895827Y-6249577D01*
X-43903340Y-6243970D01*
X-43919267Y-6231489D01*
X-43921584Y-6229672D01*
X-43942214Y-6213506D01*
X-43953440Y-6206871D01*
X-43953081Y-6206263D01*
X-43970700Y-6196401D01*
X-44409386Y-5884836D01*
X-44434910Y-5863266D01*
X-44439812Y-5858360D01*
X-44439816Y-5858357D01*
X-44458020Y-5847838D01*
X-44471782Y-5838782D01*
X-44473840Y-5837633D01*
X-44492012Y-5826152D01*
X-44511178Y-5812540D01*
X-44511185Y-5812537D01*
X-44517685Y-5810122D01*
X-44547922Y-5795892D01*
X-44585094Y-5774414D01*
X-44599918Y-5767231D01*
X-44667047Y-5729746D01*
X-44685096Y-5718356D01*
X-44687099Y-5716935D01*
X-44738143Y-5689984D01*
X-44742242Y-5687758D01*
X-44792581Y-5659649D01*
X-44794845Y-5658750D01*
X-44814246Y-5649803D01*
X-44814250Y-5649801D01*
X-44854573Y-5628510D01*
X-44873249Y-5617300D01*
X-44873980Y-5616804D01*
X-44926223Y-5590626D01*
X-44929982Y-5588692D01*
X-44981686Y-5561394D01*
X-44982523Y-5561084D01*
X-45002498Y-5552408D01*
X-45044823Y-5531201D01*
X-45063792Y-5520355D01*
X-45064355Y-5519990D01*
X-45117251Y-5494861D01*
X-45121004Y-5493030D01*
X-45173342Y-5466805D01*
X-45173973Y-5466587D01*
X-45194188Y-5458310D01*
X-45238493Y-5437262D01*
X-45257719Y-5426796D01*
X-45258119Y-5426548D01*
X-45311619Y-5402476D01*
X-45315350Y-5400751D01*
X-45368321Y-5375587D01*
X-45368763Y-5375445D01*
X-45389198Y-5367571D01*
X-45434515Y-5347181D01*
X-45450644Y-5337803D01*
X-45451166Y-5338723D01*
X-45462508Y-5332282D01*
X-45511498Y-5312394D01*
X-45518294Y-5309487D01*
X-45566539Y-5287780D01*
X-45579028Y-5284028D01*
X-45578728Y-5283032D01*
X-45596657Y-5277824D01*
X-46155459Y-5050981D01*
X-46187207Y-5034636D01*
X-46189628Y-5033099D01*
X-46189636Y-5033096D01*
X-46225113Y-5021983D01*
X-46240474Y-5016470D01*
X-46274921Y-5002486D01*
X-46276694Y-5002266D01*
X-46309090Y-4995458D01*
X-46323073Y-4991279D01*
X-46325571Y-4990515D01*
X-46387764Y-4971034D01*
X-46402214Y-4967627D01*
X-46460392Y-4950241D01*
X-46480701Y-4942919D01*
X-46537796Y-4927069D01*
X-46541539Y-4925990D01*
X-46598336Y-4909017D01*
X-46619423Y-4904409D01*
X-46658432Y-4893580D01*
X-46678945Y-4887885D01*
X-46699275Y-4881002D01*
X-46756764Y-4866243D01*
X-46760506Y-4865243D01*
X-46817716Y-4849361D01*
X-46838783Y-4845187D01*
X-46899481Y-4829604D01*
X-46919846Y-4823148D01*
X-46977715Y-4809482D01*
X-46981457Y-4808560D01*
X-47039035Y-4793779D01*
X-47060059Y-4790036D01*
X-47121896Y-4775435D01*
X-47142293Y-4769399D01*
X-47200497Y-4756836D01*
X-47204237Y-4755991D01*
X-47262175Y-4742310D01*
X-47283174Y-4738990D01*
X-47345351Y-4725570D01*
X-47363853Y-4720634D01*
X-47374360Y-4717281D01*
X-47427290Y-4707761D01*
X-47434042Y-4706425D01*
X-47486609Y-4695080D01*
X-47497600Y-4694180D01*
X-47516584Y-4691702D01*
X-48136151Y-4580273D01*
X-48171311Y-4570552D01*
X-48172706Y-4570024D01*
X-48172712Y-4570022D01*
X-48211061Y-4566183D01*
X-48226451Y-4564032D01*
X-48264381Y-4557211D01*
X-48264392Y-4557211D01*
X-48264877Y-4557252D01*
X-48298847Y-4557197D01*
X-48313141Y-4555949D01*
X-48315649Y-4555714D01*
X-48380937Y-4549179D01*
X-48395281Y-4548777D01*
X-48459292Y-4543189D01*
X-48480004Y-4540206D01*
X-48539685Y-4536134D01*
X-48543443Y-4535842D01*
X-48603063Y-4530637D01*
X-48623983Y-4530383D01*
X-48688338Y-4525992D01*
X-48709066Y-4523407D01*
X-48768849Y-4520463D01*
X-48772599Y-4520243D01*
X-48832345Y-4516168D01*
X-48853214Y-4516309D01*
X-48917745Y-4513132D01*
X-48938462Y-4510945D01*
X-48939081Y-4510926D01*
X-48939082Y-4510926D01*
X-48998409Y-4509126D01*
X-49002066Y-4508980D01*
X-49061910Y-4506034D01*
X-49082752Y-4506569D01*
X-49147394Y-4504609D01*
X-49168142Y-4502813D01*
X-49228050Y-4502128D01*
X-49231800Y-4502050D01*
X-49291688Y-4500235D01*
X-49312493Y-4501162D01*
X-49377001Y-4500424D01*
X-49389981Y-4499500D01*
X-49394882Y-4499500D01*
X-49456754Y-4499500D01*
X-49459024Y-4499487D01*
X-49461415Y-4499459D01*
X-49463912Y-4499431D01*
X-49474636Y-4498728D01*
X-49497726Y-4498992D01*
X-49502271Y-4498992D01*
X-49525365Y-4498728D01*
X-49536089Y-4499431D01*
X-49538620Y-4499460D01*
X-49540976Y-4499487D01*
X-49543246Y-4499500D01*
X-49610024Y-4499500D01*
X-49623000Y-4500424D01*
X-49687504Y-4501162D01*
X-49708308Y-4500234D01*
X-49768197Y-4502050D01*
X-49771947Y-4502128D01*
X-49831855Y-4502813D01*
X-49852606Y-4504609D01*
X-49917242Y-4506569D01*
X-49938086Y-4506034D01*
X-49997881Y-4508977D01*
X-50001627Y-4509126D01*
X-50061521Y-4510943D01*
X-50082252Y-4513132D01*
X-50146780Y-4516309D01*
X-50167653Y-4516168D01*
X-50227399Y-4520243D01*
X-50231150Y-4520463D01*
X-50290930Y-4523407D01*
X-50311660Y-4525992D01*
X-50376011Y-4530383D01*
X-50396953Y-4530639D01*
X-50456550Y-4535841D01*
X-50460306Y-4536133D01*
X-50519997Y-4540206D01*
X-50540708Y-4543189D01*
X-50604714Y-4548777D01*
X-50619066Y-4549180D01*
X-50664790Y-4553757D01*
X-50684308Y-4555710D01*
X-50686762Y-4555941D01*
X-50696139Y-4556760D01*
X-50701157Y-4557198D01*
X-50735108Y-4557253D01*
X-50735607Y-4557211D01*
X-50735621Y-4557211D01*
X-50773554Y-4564033D01*
X-50788954Y-4566185D01*
X-50827283Y-4570021D01*
X-50827285Y-4570022D01*
X-50828684Y-4570551D01*
X-50863841Y-4580271D01*
X-51483411Y-4691701D01*
X-51502383Y-4694178D01*
X-51513387Y-4695079D01*
X-51565956Y-4706425D01*
X-51572709Y-4707761D01*
X-51625636Y-4717281D01*
X-51625638Y-4717281D01*
X-51625640Y-4717282D01*
X-51625641Y-4717282D01*
X-51636152Y-4720636D01*
X-51654640Y-4725568D01*
X-51716817Y-4738989D01*
X-51737830Y-4742312D01*
X-51795766Y-4755992D01*
X-51799505Y-4756836D01*
X-51857701Y-4769398D01*
X-51878101Y-4775435D01*
X-51939937Y-4790036D01*
X-51960958Y-4793778D01*
X-52018518Y-4808554D01*
X-52022259Y-4809476D01*
X-52080168Y-4823151D01*
X-52100526Y-4829607D01*
X-52161230Y-4845190D01*
X-52182267Y-4849359D01*
X-52239433Y-4865228D01*
X-52243176Y-4866228D01*
X-52300727Y-4881003D01*
X-52321061Y-4887888D01*
X-52380575Y-4904409D01*
X-52401666Y-4909018D01*
X-52458464Y-4925992D01*
X-52462189Y-4927065D01*
X-52484749Y-4933328D01*
X-52519311Y-4942923D01*
X-52539617Y-4950245D01*
X-52597783Y-4967628D01*
X-52612239Y-4971036D01*
X-52674427Y-4990515D01*
X-52676923Y-4991279D01*
X-52690899Y-4995456D01*
X-52723293Y-5002264D01*
X-52725077Y-5002486D01*
X-52759524Y-5016469D01*
X-52774883Y-5021981D01*
X-52810362Y-5033095D01*
X-52810363Y-5033095D01*
X-52810364Y-5033096D01*
X-52812785Y-5034632D01*
X-52844530Y-5050977D01*
X-53274434Y-5225494D01*
X-53403348Y-5277826D01*
X-53421273Y-5283033D01*
X-53420974Y-5284029D01*
X-53433465Y-5287782D01*
X-53481683Y-5309477D01*
X-53488483Y-5312386D01*
X-53537495Y-5332282D01*
X-53548840Y-5338726D01*
X-53549401Y-5337738D01*
X-53565501Y-5347190D01*
X-53610795Y-5367569D01*
X-53631227Y-5375441D01*
X-53631668Y-5375583D01*
X-53684645Y-5400751D01*
X-53688384Y-5402480D01*
X-53741882Y-5426550D01*
X-53742269Y-5426790D01*
X-53761507Y-5437264D01*
X-53805805Y-5458309D01*
X-53826035Y-5466590D01*
X-53826654Y-5466804D01*
X-53826659Y-5466806D01*
X-53826660Y-5466807D01*
X-53879048Y-5493056D01*
X-53882727Y-5494851D01*
X-53935639Y-5519988D01*
X-53936191Y-5520345D01*
X-53955172Y-5531199D01*
X-53997501Y-5552408D01*
X-54017482Y-5561086D01*
X-54018315Y-5561394D01*
X-54070006Y-5588687D01*
X-54073771Y-5590624D01*
X-54126016Y-5616803D01*
X-54126750Y-5617300D01*
X-54145429Y-5628511D01*
X-54185750Y-5649801D01*
X-54205153Y-5658749D01*
X-54207409Y-5659645D01*
X-54207416Y-5659649D01*
X-54257755Y-5687757D01*
X-54261830Y-5689970D01*
X-54312891Y-5716931D01*
X-54314881Y-5718342D01*
X-54332950Y-5729746D01*
X-54378866Y-5755385D01*
X-54400076Y-5767229D01*
X-54414889Y-5774406D01*
X-54452082Y-5795895D01*
X-54482311Y-5810121D01*
X-54488810Y-5812536D01*
X-54488815Y-5812539D01*
X-54488818Y-5812540D01*
X-54488819Y-5812541D01*
X-54507978Y-5826147D01*
X-54526162Y-5837635D01*
X-54528252Y-5838802D01*
X-54541988Y-5847842D01*
X-54560173Y-5858350D01*
X-54560178Y-5858353D01*
X-54560179Y-5858354D01*
X-54565081Y-5863259D01*
X-54590610Y-5884834D01*
X-54764922Y-6008635D01*
X-55029297Y-6196400D01*
X-55046915Y-6206259D01*
X-55046556Y-6206868D01*
X-55057789Y-6213507D01*
X-55096687Y-6243990D01*
X-55104204Y-6249600D01*
X-55144463Y-6278193D01*
X-55154024Y-6287072D01*
X-55154504Y-6286554D01*
X-55168970Y-6300637D01*
X-55217750Y-6338864D01*
X-55234170Y-6350443D01*
X-55240262Y-6354293D01*
X-55240265Y-6354295D01*
X-55240267Y-6354296D01*
X-55240269Y-6354298D01*
X-55282901Y-6389809D01*
X-55287518Y-6393540D01*
X-55331149Y-6427731D01*
X-55336182Y-6432868D01*
X-55350954Y-6446493D01*
X-55394055Y-6482396D01*
X-55409983Y-6494367D01*
X-55416536Y-6498796D01*
X-55457798Y-6535371D01*
X-55462435Y-6539356D01*
X-55504811Y-6574654D01*
X-55510166Y-6580456D01*
X-55524398Y-6594405D01*
X-55564049Y-6629551D01*
X-55579442Y-6641888D01*
X-55586457Y-6646961D01*
X-55586459Y-6646962D01*
X-55586461Y-6646964D01*
X-55626356Y-6684650D01*
X-55630930Y-6688836D01*
X-55671973Y-6725216D01*
X-55671976Y-6725219D01*
X-55677643Y-6731751D01*
X-55691297Y-6745994D01*
X-55727921Y-6780591D01*
X-55743895Y-6794163D01*
X-55747066Y-6796581D01*
X-55787456Y-6836737D01*
X-55791107Y-6840275D01*
X-55832488Y-6879365D01*
X-55832493Y-6879371D01*
X-55832496Y-6879374D01*
X-55832498Y-6879377D01*
X-55832697Y-6879622D01*
X-55866203Y-6912128D01*
X-55880065Y-6922725D01*
X-55892062Y-6938302D01*
X-55909413Y-6957993D01*
X-55923362Y-6971861D01*
X-55933623Y-6989516D01*
X-55948018Y-7010950D01*
X-56237608Y-7386936D01*
X-56257354Y-7407971D01*
X-56262225Y-7413519D01*
X-56262226Y-7413520D01*
X-56285872Y-7448873D01*
X-56293620Y-7459659D01*
X-56319572Y-7493353D01*
X-56323273Y-7499737D01*
X-56336899Y-7525161D01*
X-56376604Y-7584521D01*
X-56389498Y-7599916D01*
X-56388918Y-7600380D01*
X-56397058Y-7610571D01*
X-56422716Y-7653075D01*
X-56427655Y-7660845D01*
X-56455278Y-7702143D01*
X-56455279Y-7702145D01*
X-56461052Y-7713838D01*
X-56461717Y-7713509D01*
X-56470187Y-7731717D01*
X-56502075Y-7784543D01*
X-56514373Y-7800718D01*
X-56513832Y-7801110D01*
X-56521475Y-7811681D01*
X-56521478Y-7811684D01*
X-56544827Y-7854923D01*
X-56549550Y-7863188D01*
X-56574932Y-7905234D01*
X-56580158Y-7917186D01*
X-56580769Y-7916918D01*
X-56588460Y-7935721D01*
X-56616999Y-7988570D01*
X-56628617Y-8005505D01*
X-56628117Y-8005831D01*
X-56635231Y-8016769D01*
X-56656183Y-8060620D01*
X-56660636Y-8069379D01*
X-56683742Y-8112165D01*
X-56683742Y-8112166D01*
X-56688390Y-8124357D01*
X-56688950Y-8124143D01*
X-56695785Y-8143500D01*
X-56741260Y-8238670D01*
X-56748501Y-8252413D01*
X-56767778Y-8285776D01*
X-56768165Y-8287218D01*
X-56780809Y-8321438D01*
X-56781457Y-8322793D01*
X-56787607Y-8355851D01*
X-56788507Y-8360687D01*
X-56791946Y-8375850D01*
X-56905691Y-8799758D01*
X-56913283Y-8819555D01*
X-56912914Y-8819686D01*
X-56917252Y-8831977D01*
X-56917255Y-8831982D01*
X-56917255Y-8831984D01*
X-56927000Y-8878068D01*
X-56929490Y-8888455D01*
X-56941694Y-8933933D01*
X-56941694Y-8933935D01*
X-56943401Y-8946865D01*
X-56944505Y-8946719D01*
X-56946640Y-8965741D01*
X-57218847Y-10163094D01*
X-57220255Y-10168878D01*
X-57359397Y-10705245D01*
X-57545669Y-11423290D01*
X-57547270Y-11429098D01*
X-57910499Y-12673043D01*
X-57912274Y-12678800D01*
X-58310619Y-13903867D01*
X-58313008Y-13911213D01*
X-58314951Y-13916895D01*
X-58748192Y-15123744D01*
X-58752801Y-15136582D01*
X-58754922Y-15142222D01*
X-59229520Y-16348150D01*
X-59231796Y-16353685D01*
X-59742680Y-17544685D01*
X-59745111Y-17550123D01*
X-60286058Y-18712732D01*
X-60291822Y-18725119D01*
X-60294441Y-18730531D01*
X-60876464Y-19888417D01*
X-60879207Y-19893675D01*
X-61312193Y-20693742D01*
X-61496021Y-21033416D01*
X-61498968Y-21038670D01*
X-62150005Y-22159219D01*
X-62153096Y-22164358D01*
X-62832138Y-23255649D01*
X-62837736Y-23264646D01*
X-62840996Y-23269713D01*
X-63558636Y-24348773D01*
X-63562048Y-24353739D01*
X-64082125Y-25086612D01*
X-64148166Y-25145621D01*
X-64233270Y-25170133D01*
X-64320581Y-25155292D01*
X-64392806Y-25104038D01*
X-64422946Y-25056071D01*
X-64423893Y-25056554D01*
X-64523947Y-24860187D01*
X-64648893Y-24688210D01*
X-64799210Y-24537893D01*
X-64971187Y-24412947D01*
X-65160581Y-24316445D01*
X-65160592Y-24316441D01*
X-65362748Y-24250756D01*
X-65362765Y-24250752D01*
X-65572713Y-24217500D01*
X-65785287Y-24217500D01*
X-65995234Y-24250752D01*
X-65995251Y-24250756D01*
X-66197407Y-24316441D01*
X-66197418Y-24316445D01*
X-66380223Y-24409590D01*
X-66386816Y-24412949D01*
X-66477071Y-24478523D01*
X-66558789Y-24537893D01*
X-66709106Y-24688210D01*
X-66748685Y-24742688D01*
X-66834051Y-24860184D01*
X-66880624Y-24951589D01*
X-66930554Y-25049581D01*
X-66930555Y-25049584D01*
X-66930557Y-25049588D01*
X-66996246Y-25251757D01*
X-67029500Y-25461713D01*
X-67029500Y-25674287D01*
X-66996246Y-25884243D01*
X-66930557Y-26086412D01*
X-66834051Y-26275816D01*
X-66709104Y-26447792D01*
X-66558792Y-26598104D01*
X-66386816Y-26723051D01*
X-66197412Y-26819557D01*
X-65995243Y-26885246D01*
X-65849298Y-26908361D01*
X-65767103Y-26941332D01*
X-65707352Y-27006703D01*
X-65681881Y-27091524D01*
X-65695735Y-27178997D01*
X-65725409Y-27229689D01*
X-65913492Y-27463359D01*
X-65917341Y-27467995D01*
X-66760090Y-28452438D01*
X-66764077Y-28456955D01*
X-67636252Y-29415445D01*
X-67640371Y-29419836D01*
X-68535868Y-30346004D01*
X-68541146Y-30351463D01*
X-68545399Y-30355731D01*
X-69473996Y-31259689D01*
X-69478377Y-31263826D01*
X-70433867Y-32139214D01*
X-70438370Y-32143217D01*
X-71419985Y-32989330D01*
X-71424608Y-32993194D01*
X-72431363Y-33809180D01*
X-72436065Y-33812875D01*
X-73467100Y-34598037D01*
X-73471943Y-34601609D01*
X-74285014Y-35182755D01*
X-74526211Y-35355151D01*
X-74531160Y-35358576D01*
X-74741505Y-35499500D01*
X-75607778Y-36079870D01*
X-75612834Y-36083148D01*
X-76710793Y-36771514D01*
X-76715945Y-36774636D01*
X-77834283Y-37429473D01*
X-77839529Y-37432439D01*
X-78977116Y-38053083D01*
X-78982448Y-38055888D01*
X-79662535Y-38400635D01*
X-80129113Y-38637151D01*
X-80138314Y-38641815D01*
X-80143729Y-38644458D01*
X-81316833Y-39195136D01*
X-81322325Y-39197613D01*
X-82511542Y-39712515D01*
X-82517107Y-39714825D01*
X-83721350Y-40193481D01*
X-83726982Y-40195622D01*
X-84945208Y-40637617D01*
X-84950903Y-40639586D01*
X-86181910Y-41044483D01*
X-86187661Y-41046279D01*
X-87430393Y-41413733D01*
X-87436196Y-41415354D01*
X-88143699Y-41601454D01*
X-88689486Y-41745016D01*
X-88695326Y-41746458D01*
X-89958022Y-42038026D01*
X-89963913Y-42039292D01*
X-91234808Y-42292491D01*
X-91240734Y-42293579D01*
X-92518747Y-42508192D01*
X-92524704Y-42509100D01*
X-93808641Y-42684925D01*
X-93814622Y-42685652D01*
X-95103260Y-42822523D01*
X-95109260Y-42823069D01*
X-96401509Y-42920868D01*
X-96407524Y-42921231D01*
X-97702059Y-42979860D01*
X-97708081Y-42980042D01*
X-99003862Y-42999453D01*
X-99009887Y-42999452D01*
X-100305660Y-42979627D01*
X-100311683Y-42979443D01*
X-101606203Y-42920400D01*
X-101612217Y-42920035D01*
X-102904428Y-42821823D01*
X-102910429Y-42821275D01*
X-104199031Y-42683991D01*
X-104205011Y-42683262D01*
X-105488855Y-42507032D01*
X-105494812Y-42506123D01*
X-106772789Y-42291096D01*
X-106778715Y-42290006D01*
X-108049534Y-42036400D01*
X-108055424Y-42035132D01*
X-109318050Y-41743153D01*
X-109323899Y-41741706D01*
X-110577021Y-41411660D01*
X-110582824Y-41410038D01*
X-111825460Y-41042181D01*
X-111831211Y-41040383D01*
X-113062108Y-40635085D01*
X-113067801Y-40633114D01*
X-114285836Y-40190748D01*
X-114291468Y-40188606D01*
X-115495599Y-39709549D01*
X-115501163Y-39707237D01*
X-116690202Y-39191960D01*
X-116695694Y-39189481D01*
X-117868607Y-38638436D01*
X-117874021Y-38635792D01*
X-119029752Y-38049470D01*
X-119035083Y-38046662D01*
X-120172460Y-37425659D01*
X-120177704Y-37422692D01*
X-121295780Y-36767529D01*
X-121300932Y-36764405D01*
X-122398685Y-36075678D01*
X-122403740Y-36072399D01*
X-123480145Y-35350751D01*
X-123485098Y-35347320D01*
X-124140471Y-34878572D01*
X-124199235Y-34812313D01*
X-124223431Y-34727119D01*
X-124208266Y-34639863D01*
X-124156744Y-34567829D01*
X-124086198Y-34527452D01*
X-124049588Y-34515557D01*
X-124049584Y-34515555D01*
X-124049581Y-34515554D01*
X-123951589Y-34465624D01*
X-123860184Y-34419051D01*
X-123733228Y-34326813D01*
X-123688210Y-34294106D01*
X-123537893Y-34143789D01*
X-123424667Y-33987944D01*
X-123412949Y-33971816D01*
X-123374991Y-33897320D01*
X-123316445Y-33782418D01*
X-123316441Y-33782407D01*
X-123250756Y-33580251D01*
X-123250752Y-33580234D01*
X-123217500Y-33370286D01*
X-123217500Y-33157713D01*
X-123250752Y-32947765D01*
X-123250756Y-32947748D01*
X-123316441Y-32745592D01*
X-123316445Y-32745581D01*
X-123412947Y-32556187D01*
X-123537893Y-32384210D01*
X-123688210Y-32233893D01*
X-123860187Y-32108947D01*
X-124049581Y-32012445D01*
X-124049592Y-32012441D01*
X-124251748Y-31946756D01*
X-124251765Y-31946752D01*
X-124461713Y-31913500D01*
X-124674287Y-31913500D01*
X-124884234Y-31946752D01*
X-124884251Y-31946756D01*
X-125086407Y-32012441D01*
X-125086418Y-32012445D01*
X-125269223Y-32105590D01*
X-125275816Y-32108949D01*
X-125317472Y-32139214D01*
X-125447789Y-32233893D01*
X-125598106Y-32384210D01*
X-125601227Y-32388506D01*
X-125723051Y-32556184D01*
X-125769624Y-32647589D01*
X-125819554Y-32745581D01*
X-125819555Y-32745584D01*
X-125819557Y-32745588D01*
X-125885246Y-32947757D01*
X-125916181Y-33143073D01*
X-125949152Y-33225270D01*
X-126014523Y-33285021D01*
X-126099344Y-33310492D01*
X-126186817Y-33296638D01*
X-126238083Y-33266500D01*
X-126585944Y-32984371D01*
X-126590566Y-32980505D01*
X-127571891Y-32134095D01*
X-127576393Y-32130091D01*
X-128531621Y-31254382D01*
X-128536000Y-31250244D01*
X-129464291Y-30346004D01*
X-129468543Y-30341735D01*
X-130369033Y-29409807D01*
X-130373154Y-29405411D01*
X-131245022Y-28446645D01*
X-131249008Y-28442126D01*
X-132091443Y-27457410D01*
X-132095290Y-27452773D01*
X-132907524Y-26443010D01*
X-132911229Y-26438259D01*
X-133692547Y-25404336D01*
X-133696106Y-25399474D01*
X-134445726Y-24342423D01*
X-134449137Y-24337456D01*
X-135166431Y-23258166D01*
X-135169690Y-23253098D01*
X-135853986Y-22152579D01*
X-135857089Y-22147415D01*
X-136507746Y-21026698D01*
X-136510693Y-21021441D01*
X-137127125Y-19881532D01*
X-137129910Y-19876190D01*
X-137711544Y-18718157D01*
X-137714167Y-18712732D01*
X-138260481Y-17537605D01*
X-138262938Y-17532104D01*
X-138773435Y-16340958D01*
X-138775724Y-16335384D01*
X-139249904Y-15129384D01*
X-139252024Y-15123744D01*
X-139689502Y-13903867D01*
X-139691449Y-13898165D01*
X-140091765Y-12665694D01*
X-140093540Y-12659936D01*
X-140456384Y-11415835D01*
X-140457983Y-11410026D01*
X-140782984Y-10155554D01*
X-140784407Y-10149699D01*
X-141071292Y-8885914D01*
X-141072536Y-8880019D01*
X-141321017Y-7608187D01*
X-141322083Y-7602257D01*
X-141531950Y-6323467D01*
X-141532836Y-6317507D01*
X-141703895Y-5032931D01*
X-141704600Y-5026947D01*
X-141836691Y-3737774D01*
X-141837214Y-3731771D01*
X-141930214Y-2439207D01*
X-141930555Y-2433192D01*
X-141984382Y-1138412D01*
X-141984541Y-1132388D01*
X-141997301Y0D01*
X-135505490Y0D01*
X-135485531Y-1206994D01*
X-135485530Y-1207007D01*
X-135425675Y-2412672D01*
X-135331156Y-3553347D01*
X-135325989Y-3615706D01*
X-135186581Y-4814788D01*
X-135007603Y-6008606D01*
X-135007599Y-6008625D01*
X-135007598Y-6008635D01*
X-134944026Y-6354293D01*
X-134789251Y-7195854D01*
X-134531764Y-8375233D01*
X-134235424Y-9545453D01*
X-133900555Y-10705236D01*
X-133527522Y-11853313D01*
X-133116734Y-12988429D01*
X-132668639Y-14109342D01*
X-132183729Y-15214826D01*
X-131662533Y-16303673D01*
X-131163030Y-17264285D01*
X-131105617Y-17374698D01*
X-130529000Y-18399350D01*
X-130513601Y-18426713D01*
X-129887122Y-19458584D01*
X-129226868Y-20469178D01*
X-128533562Y-21457389D01*
X-127807961Y-22422136D01*
X-127050859Y-23362365D01*
X-126263084Y-24277048D01*
X-125445497Y-25165184D01*
X-124598992Y-26025802D01*
X-123724496Y-26857962D01*
X-122822963Y-27660753D01*
X-121895380Y-28433297D01*
X-120942762Y-29174749D01*
X-119966149Y-29884300D01*
X-118966611Y-30561173D01*
X-117945239Y-31204627D01*
X-116903150Y-31813959D01*
X-115841485Y-32388504D01*
X-114761404Y-32927632D01*
X-113664088Y-33430754D01*
X-112550737Y-33897320D01*
X-111422569Y-34326820D01*
X-110280817Y-34718784D01*
X-109126729Y-35072784D01*
X-107961568Y-35388432D01*
X-106786608Y-35665383D01*
X-105603133Y-35903335D01*
X-104412437Y-36102027D01*
X-103215823Y-36261241D01*
X-102014599Y-36380805D01*
X-100810079Y-36460587D01*
X-100120651Y-36483394D01*
X-99603586Y-36500500D01*
X-99603580Y-36500500D01*
X-98396414Y-36500500D01*
X-97839574Y-36482078D01*
X-97189921Y-36460587D01*
X-95985401Y-36380805D01*
X-94784177Y-36261241D01*
X-93587563Y-36102027D01*
X-92396867Y-35903335D01*
X-91213392Y-35665383D01*
X-90038432Y-35388432D01*
X-88873271Y-35072784D01*
X-87719183Y-34718784D01*
X-86577431Y-34326820D01*
X-85449263Y-33897320D01*
X-84335912Y-33430754D01*
X-83581172Y-33084704D01*
X-83238593Y-32927631D01*
X-82494443Y-32556184D01*
X-82158515Y-32388504D01*
X-81096850Y-31813959D01*
X-81096844Y-31813956D01*
X-80054762Y-31204628D01*
X-79033392Y-30561175D01*
X-78033838Y-29884291D01*
X-77057245Y-29174754D01*
X-77057238Y-29174749D01*
X-76575589Y-28799867D01*
X-76104631Y-28433306D01*
X-76104620Y-28433297D01*
X-75177037Y-27660753D01*
X-74275504Y-26857962D01*
X-74002425Y-26598104D01*
X-73401009Y-26025803D01*
X-73261778Y-25884251D01*
X-72554503Y-25165184D01*
X-72115417Y-24688210D01*
X-71736918Y-24277051D01*
X-70949144Y-23362369D01*
X-70765306Y-23134064D01*
X-70192039Y-22422136D01*
X-69466438Y-21457389D01*
X-69024898Y-20828036D01*
X-68773141Y-20469192D01*
X-68112880Y-19458588D01*
X-67486387Y-18426694D01*
X-66894382Y-17374698D01*
X-66337466Y-16303672D01*
X-65816273Y-15214832D01*
X-65331357Y-14109334D01*
X-64883272Y-12988447D01*
X-64472471Y-11853294D01*
X-64099447Y-10705245D01*
X-63764579Y-9545466D01*
X-63575740Y-8799755D01*
X-63468236Y-8375233D01*
X-63466729Y-8368334D01*
X-63210747Y-7195846D01*
X-62992401Y-6008635D01*
X-62813418Y-4814786D01*
X-62674008Y-3615684D01*
X-62614518Y-2897749D01*
X-55305645Y-2897749D01*
X-55285140Y-3066621D01*
X-55224818Y-3225679D01*
X-55128183Y-3365678D01*
X-55000852Y-3478483D01*
X-54889584Y-3536881D01*
X-54850228Y-3557538D01*
X-54850225Y-3557538D01*
X-54850225Y-3557539D01*
X-54685056Y-3598249D01*
X-54685054Y-3598249D01*
X-54514946Y-3598249D01*
X-54514944Y-3598249D01*
X-54349775Y-3557539D01*
X-54349774Y-3557538D01*
X-54349771Y-3557538D01*
X-54274461Y-3518011D01*
X-54199148Y-3478483D01*
X-54165071Y-3448294D01*
X-54087377Y-3405791D01*
X-54033112Y-3398249D01*
X-51931859Y-3398249D01*
X-51931857Y-3398249D01*
X-51804563Y-3364141D01*
X-51690435Y-3298249D01*
X-46648523Y1743663D01*
X-46573535Y1790782D01*
X-46507809Y1801949D01*
X-44566888Y1801949D01*
X-44480545Y1782242D01*
X-44434928Y1751904D01*
X-44400852Y1721715D01*
X-44371529Y1706325D01*
X-44250228Y1642659D01*
X-44151123Y1618233D01*
X-44085056Y1601949D01*
X-44085054Y1601949D01*
X-43914946Y1601949D01*
X-43914944Y1601949D01*
X-43848933Y1618219D01*
X-43749771Y1642659D01*
X-43599152Y1721713D01*
X-43599148Y1721715D01*
X-43599146Y1721716D01*
X-43599144Y1721718D01*
X-43471818Y1834518D01*
X-43471817Y1834519D01*
X-43426618Y1900000D01*
X-38605645Y1900000D01*
X-38585140Y1731128D01*
X-38585139Y1731126D01*
X-38585139Y1731124D01*
X-38535221Y1599500D01*
X-38524818Y1572070D01*
X-38428183Y1432071D01*
X-38300852Y1319266D01*
X-38258086Y1296820D01*
X-38150228Y1240210D01*
X-38051123Y1215784D01*
X-37985056Y1199500D01*
X-37985054Y1199500D01*
X-37814946Y1199500D01*
X-37814944Y1199500D01*
X-37759887Y1213070D01*
X-37649771Y1240210D01*
X-37499152Y1319264D01*
X-37499148Y1319266D01*
X-37499146Y1319267D01*
X-37499144Y1319269D01*
X-37371818Y1432069D01*
X-37371817Y1432070D01*
X-37275183Y1572067D01*
X-37275180Y1572072D01*
X-37214860Y1731124D01*
X-37214860Y1731126D01*
X-37194355Y1900000D01*
X-37214860Y2068873D01*
X-37214860Y2068875D01*
X-37275179Y2227925D01*
X-37275184Y2227934D01*
X-37317149Y2288731D01*
X-37349979Y2370985D01*
X-37345594Y2453279D01*
X-37316077Y2563440D01*
X-37307709Y2588092D01*
X-37237023Y2758739D01*
X-37225511Y2782083D01*
X-37133169Y2942025D01*
X-37118708Y2963668D01*
X-37002780Y3114750D01*
X-36987896Y3132003D01*
X-36923604Y3198431D01*
X-36921324Y3200749D01*
X-36693555Y3428518D01*
X-36618567Y3475637D01*
X-36530560Y3485553D01*
X-36446967Y3456302D01*
X-36384343Y3393678D01*
X-36355092Y3310085D01*
X-36354521Y3271373D01*
X-36387952Y2867922D01*
X-36425675Y2412672D01*
X-36436825Y2188083D01*
X-36485531Y1206994D01*
X-36505490Y0D01*
X-36485531Y-1206994D01*
X-36485530Y-1207007D01*
X-36425675Y-2412672D01*
X-36331156Y-3553347D01*
X-36325989Y-3615706D01*
X-36186581Y-4814788D01*
X-36007603Y-6008606D01*
X-36007599Y-6008625D01*
X-36007598Y-6008635D01*
X-35944026Y-6354293D01*
X-35789251Y-7195854D01*
X-35531764Y-8375233D01*
X-35235424Y-9545453D01*
X-34900555Y-10705236D01*
X-34527522Y-11853313D01*
X-34116734Y-12988429D01*
X-33668639Y-14109342D01*
X-33183729Y-15214826D01*
X-32662533Y-16303673D01*
X-32163030Y-17264285D01*
X-32105617Y-17374698D01*
X-31529000Y-18399350D01*
X-31513601Y-18426713D01*
X-30887122Y-19458584D01*
X-30226868Y-20469178D01*
X-29533562Y-21457389D01*
X-28807961Y-22422136D01*
X-28050859Y-23362365D01*
X-27263084Y-24277048D01*
X-26445497Y-25165184D01*
X-25598992Y-26025802D01*
X-24724496Y-26857962D01*
X-23822963Y-27660753D01*
X-22895380Y-28433297D01*
X-21942762Y-29174749D01*
X-20966149Y-29884300D01*
X-19966611Y-30561173D01*
X-18945239Y-31204627D01*
X-17903150Y-31813959D01*
X-16841485Y-32388504D01*
X-15761404Y-32927632D01*
X-14664088Y-33430754D01*
X-13550737Y-33897320D01*
X-12422569Y-34326820D01*
X-11280817Y-34718784D01*
X-10126729Y-35072784D01*
X-8961568Y-35388432D01*
X-7786608Y-35665383D01*
X-6603133Y-35903335D01*
X-5412437Y-36102027D01*
X-4215823Y-36261241D01*
X-3014599Y-36380805D01*
X-1810079Y-36460587D01*
X-1120651Y-36483394D01*
X-603586Y-36500500D01*
X-603580Y-36500500D01*
X603586Y-36500500D01*
X1120651Y-36483394D01*
X1810079Y-36460587D01*
X3014599Y-36380805D01*
X4215823Y-36261241D01*
X5412437Y-36102027D01*
X6603133Y-35903335D01*
X7786608Y-35665383D01*
X8961568Y-35388432D01*
X10126729Y-35072784D01*
X11280817Y-34718784D01*
X12422569Y-34326820D01*
X13550737Y-33897320D01*
X14664088Y-33430754D01*
X15761404Y-32927632D01*
X16841485Y-32388504D01*
X17903150Y-31813959D01*
X18945239Y-31204627D01*
X19966611Y-30561173D01*
X20966149Y-29884300D01*
X21942762Y-29174749D01*
X22895380Y-28433297D01*
X23822963Y-27660753D01*
X24724496Y-26857962D01*
X25598992Y-26025802D01*
X26445497Y-25165184D01*
X27263084Y-24277048D01*
X28050859Y-23362365D01*
X28807961Y-22422136D01*
X29533562Y-21457389D01*
X30226868Y-20469178D01*
X30887122Y-19458584D01*
X31513601Y-18426713D01*
X31529000Y-18399350D01*
X32105617Y-17374698D01*
X32163030Y-17264285D01*
X32662533Y-16303673D01*
X33183729Y-15214826D01*
X33668639Y-14109342D01*
X34116734Y-12988429D01*
X34527522Y-11853313D01*
X34900555Y-10705236D01*
X35235424Y-9545453D01*
X35531764Y-8375233D01*
X35789251Y-7195854D01*
X35944026Y-6354293D01*
X36007598Y-6008635D01*
X36007599Y-6008625D01*
X36007603Y-6008606D01*
X36186581Y-4814788D01*
X36325989Y-3615706D01*
X36331156Y-3553347D01*
X36425675Y-2412672D01*
X36485530Y-1207007D01*
X36485531Y-1206994D01*
X36505490Y0D01*
X36485531Y1206994D01*
X36469850Y1522843D01*
X36485251Y1610055D01*
X36536968Y1681950D01*
X36614758Y1724285D01*
X36703212Y1728677D01*
X36763662Y1704404D01*
X36764833Y1706594D01*
X36773454Y1701986D01*
X36842111Y1673547D01*
X36846895Y1671492D01*
X36902432Y1646765D01*
X36920197Y1638856D01*
X36920200Y1638855D01*
X36922416Y1638135D01*
X36933206Y1635357D01*
X36937327Y1634107D01*
X37017214Y1618216D01*
X37019761Y1617692D01*
X37105354Y1599500D01*
X37294646Y1599500D01*
X37380251Y1617695D01*
X37382800Y1618219D01*
X37462667Y1634105D01*
X37466776Y1635352D01*
X37477571Y1638131D01*
X37479800Y1638855D01*
X37479803Y1638856D01*
X37509408Y1652037D01*
X37553098Y1671489D01*
X37557883Y1673545D01*
X37626543Y1701985D01*
X37635163Y1706593D01*
X37635305Y1706325D01*
X37651931Y1715493D01*
X37652724Y1715846D01*
X37652726Y1715847D01*
X37652730Y1715849D01*
X37660808Y1721718D01*
X37711811Y1758773D01*
X37718217Y1763238D01*
X37774033Y1800534D01*
X37774042Y1800542D01*
X37775562Y1802062D01*
X37799299Y1822337D01*
X37800741Y1823385D01*
X37805871Y1827112D01*
X37849944Y1876060D01*
X37857097Y1883598D01*
X37899464Y1925965D01*
X37904682Y1933775D01*
X37922259Y1956374D01*
X37932532Y1967783D01*
X37932533Y1967784D01*
X37961866Y2018592D01*
X37968723Y2029619D01*
X37998013Y2073453D01*
X38004375Y2088812D01*
X38015887Y2112158D01*
X38016012Y2112375D01*
X38027179Y2131716D01*
X38043078Y2180647D01*
X38048483Y2195297D01*
X38065893Y2237332D01*
X38065894Y2237334D01*
X38070545Y2260717D01*
X38076463Y2283396D01*
X38085672Y2311739D01*
X38085674Y2311744D01*
X38090297Y2355739D01*
X38093032Y2373771D01*
X38093736Y2377309D01*
X38100500Y2411309D01*
X38100500Y2442378D01*
X38101590Y2463178D01*
X38102446Y2471324D01*
X38105460Y2500000D01*
X38101589Y2536822D01*
X38100500Y2557621D01*
X38100500Y5682562D01*
X38100501Y5682568D01*
X38100500Y5688804D01*
X38100519Y5688887D01*
X38100517Y5780805D01*
X38100515Y5931768D01*
X38093791Y6008606D01*
X38072533Y6251550D01*
X38072532Y6251562D01*
X38016784Y6567701D01*
X38016780Y6567717D01*
X38012686Y6582997D01*
X38009376Y6671499D01*
X38044793Y6752672D01*
X38111922Y6810440D01*
X38197468Y6833361D01*
X38204906Y6833500D01*
X39020781Y6833500D01*
X39059602Y6829676D01*
X39099480Y6821743D01*
X39117215Y6818216D01*
X39119761Y6817692D01*
X39205354Y6799500D01*
X39394646Y6799500D01*
X39480251Y6817695D01*
X39482800Y6818219D01*
X39562667Y6834105D01*
X39566776Y6835352D01*
X39577571Y6838131D01*
X39579800Y6838855D01*
X39579803Y6838856D01*
X39609408Y6852037D01*
X39653098Y6871489D01*
X39657883Y6873545D01*
X39726543Y6901985D01*
X39735163Y6906593D01*
X39735305Y6906325D01*
X39751931Y6915493D01*
X39752724Y6915846D01*
X39752726Y6915847D01*
X39752730Y6915849D01*
X39811811Y6958773D01*
X39818217Y6963238D01*
X39874033Y7000534D01*
X39874042Y7000542D01*
X39875562Y7002062D01*
X39899299Y7022337D01*
X39900741Y7023385D01*
X39905871Y7027112D01*
X39949944Y7076060D01*
X39957097Y7083598D01*
X39999464Y7125965D01*
X40004682Y7133775D01*
X40022259Y7156374D01*
X40032532Y7167783D01*
X40032533Y7167784D01*
X40061866Y7218592D01*
X40068723Y7229619D01*
X40098013Y7273453D01*
X40104375Y7288812D01*
X40115887Y7312158D01*
X40127179Y7331716D01*
X40143078Y7380647D01*
X40148483Y7395297D01*
X40165893Y7437332D01*
X40165894Y7437334D01*
X40170545Y7460717D01*
X40176463Y7483396D01*
X40185672Y7511739D01*
X40185674Y7511744D01*
X40190297Y7555739D01*
X40193032Y7573771D01*
X40200500Y7611309D01*
X40200500Y7642378D01*
X40201590Y7663178D01*
X40201609Y7663360D01*
X40205460Y7700000D01*
X40201589Y7736822D01*
X40200500Y7757621D01*
X40200500Y7788685D01*
X40200500Y7788691D01*
X40193031Y7826235D01*
X40190297Y7844262D01*
X40185674Y7888254D01*
X40185674Y7888256D01*
X40176460Y7916611D01*
X40170546Y7939275D01*
X40165894Y7962666D01*
X40148477Y8004712D01*
X40143083Y8019336D01*
X40127179Y8068284D01*
X40115889Y8087837D01*
X40104374Y8111188D01*
X40098013Y8126547D01*
X40068730Y8170369D01*
X40061857Y8181423D01*
X40032533Y8232216D01*
X40022263Y8243620D01*
X40004683Y8266222D01*
X39999464Y8274035D01*
X39957093Y8316405D01*
X39949939Y8323946D01*
X39905875Y8372884D01*
X39905873Y8372884D01*
X39905871Y8372888D01*
X39899282Y8377674D01*
X39886463Y8388628D01*
X39886125Y8388233D01*
X39880190Y8393301D01*
X39880182Y8393310D01*
X39750753Y8487351D01*
X39750748Y8487353D01*
X39750744Y8487356D01*
X39684117Y8521308D01*
X39608208Y8559992D01*
X39456056Y8609444D01*
X39344274Y8627161D01*
X39336646Y8628525D01*
X39306608Y8634500D01*
X39218050Y8634500D01*
X39218039Y8634500D01*
X39129357Y8634513D01*
X39129350Y8634511D01*
X39119691Y8634513D01*
X39119409Y8634500D01*
X37532942Y8634500D01*
X37446599Y8654207D01*
X37377358Y8709426D01*
X37338931Y8789218D01*
X37338310Y8792032D01*
X37269403Y9116219D01*
X37228014Y9240433D01*
X37137262Y9389777D01*
X37015554Y9515183D01*
X36868991Y9610362D01*
X36868985Y9610364D01*
X36868984Y9610365D01*
X36802405Y9634784D01*
X36704924Y9670540D01*
X36531579Y9692703D01*
X36401269Y9679991D01*
X36401260Y9679989D01*
X36401259Y9679989D01*
X35582480Y9505953D01*
X35582471Y9505950D01*
X35582458Y9505948D01*
X35538621Y9491341D01*
X35472896Y9469441D01*
X35384751Y9460843D01*
X35301605Y9491341D01*
X35239925Y9554894D01*
X35218800Y9603028D01*
X34900555Y10705236D01*
X34527522Y11853313D01*
X34116734Y12988429D01*
X34107115Y13012490D01*
X33864009Y13620623D01*
X33668639Y14109342D01*
X33668549Y14109545D01*
X33668541Y14109586D01*
X33667418Y14112398D01*
X33667961Y14112615D01*
X33651893Y14196527D01*
X33674627Y14282123D01*
X33732247Y14349378D01*
X33784107Y14377026D01*
X33891930Y14415360D01*
X33891940Y14415364D01*
X34449717Y14687411D01*
X34644316Y14782323D01*
X34644322Y14782327D01*
X34644326Y14782329D01*
X34754823Y14852530D01*
X34754828Y14852533D01*
X34877781Y14976719D01*
X34970018Y15125150D01*
X34973160Y15134273D01*
X35026912Y15290382D01*
X35026913Y15290385D01*
X35045612Y15464137D01*
X35025181Y15637695D01*
X34981322Y15761058D01*
X33956803Y17861634D01*
X33886593Y17972145D01*
X33762407Y18095098D01*
X33613976Y18187335D01*
X33448741Y18244230D01*
X33274989Y18262929D01*
X33274981Y18262928D01*
X33274979Y18262928D01*
X33170707Y18250653D01*
X33101431Y18242498D01*
X32978068Y18198639D01*
X32641970Y18034713D01*
X32555731Y18014576D01*
X32469291Y18033853D01*
X32399774Y18088725D01*
X32380230Y18117929D01*
X32281209Y18298620D01*
X32272731Y18316059D01*
X32268791Y18325279D01*
X32268789Y18325287D01*
X32241138Y18371969D01*
X32237892Y18377664D01*
X32211825Y18425232D01*
X32211814Y18425242D01*
X32205905Y18433310D01*
X32195218Y18449496D01*
X31651731Y19367079D01*
X31642677Y19384222D01*
X31638430Y19393308D01*
X31638429Y19393312D01*
X31609256Y19439009D01*
X31605785Y19444652D01*
X31578157Y19491299D01*
X31578150Y19491305D01*
X31571962Y19499187D01*
X31560741Y19515005D01*
X30986902Y20413912D01*
X30977279Y20430744D01*
X30972728Y20439688D01*
X30972726Y20439693D01*
X30942046Y20484383D01*
X30938373Y20489931D01*
X30909214Y20535610D01*
X30909203Y20535619D01*
X30902763Y20543281D01*
X30891023Y20558710D01*
X30287468Y21437935D01*
X30277290Y21454433D01*
X30272445Y21463217D01*
X30272442Y21463225D01*
X30240268Y21506891D01*
X30236410Y21512315D01*
X30205762Y21556962D01*
X30205759Y21556967D01*
X30205752Y21556972D01*
X30199050Y21564425D01*
X30186800Y21579456D01*
X29554191Y22438040D01*
X29543465Y22454193D01*
X29538329Y22462810D01*
X29504733Y22505351D01*
X29500709Y22510627D01*
X29500696Y22510645D01*
X29468554Y22554270D01*
X29468546Y22554276D01*
X29461597Y22561502D01*
X29448854Y22576112D01*
X28787934Y23413048D01*
X28776676Y23428829D01*
X28771258Y23437262D01*
X28771255Y23437270D01*
X28736244Y23478679D01*
X28732094Y23483758D01*
X28698462Y23526349D01*
X28698448Y23526358D01*
X28691253Y23533358D01*
X28678032Y23547532D01*
X27989513Y24361916D01*
X27977731Y24377319D01*
X27972031Y24385571D01*
X27972029Y24385577D01*
X27935659Y24425788D01*
X27931292Y24430782D01*
X27896299Y24472173D01*
X27896290Y24472179D01*
X27888872Y24478927D01*
X27875186Y24492650D01*
X27159833Y25283581D01*
X27147549Y25298572D01*
X27141577Y25306630D01*
X27141575Y25306634D01*
X27103827Y25345663D01*
X27099406Y25350392D01*
X27062994Y25390652D01*
X27062982Y25390659D01*
X27055333Y25397164D01*
X27041204Y25410415D01*
X26299819Y26176999D01*
X26287036Y26191577D01*
X26280794Y26199433D01*
X26280789Y26199443D01*
X26241805Y26237143D01*
X26237134Y26241815D01*
X26237105Y26241845D01*
X26199443Y26280789D01*
X26199437Y26280792D01*
X26191588Y26287027D01*
X26177016Y26299803D01*
X25410399Y27041220D01*
X25397138Y27055363D01*
X25390656Y27062986D01*
X25390651Y27062994D01*
X25350453Y27099350D01*
X25345635Y27103856D01*
X25306635Y27141575D01*
X25306628Y27141578D01*
X25298562Y27147557D01*
X25283556Y27159854D01*
X24492650Y27875185D01*
X24478927Y27888872D01*
X24472180Y27896288D01*
X24472173Y27896299D01*
X24442649Y27921259D01*
X24430782Y27931293D01*
X24425791Y27935656D01*
X24385577Y27972029D01*
X24385567Y27972033D01*
X24377316Y27977733D01*
X24361919Y27989512D01*
X23547515Y28678048D01*
X23533337Y28691274D01*
X23526355Y28698452D01*
X23526349Y28698462D01*
X23483746Y28732103D01*
X23478713Y28736216D01*
X23437270Y28771256D01*
X23437260Y28771260D01*
X23428824Y28776680D01*
X23413039Y28787941D01*
X22576111Y29448855D01*
X22561499Y29461599D01*
X22554279Y29468541D01*
X22554270Y29468554D01*
X22510608Y29500723D01*
X22505378Y29504712D01*
X22462809Y29538331D01*
X22462796Y29538336D01*
X22454190Y29543467D01*
X22438037Y29554193D01*
X21579464Y30186795D01*
X21564432Y30199045D01*
X21556965Y30205761D01*
X21531495Y30223243D01*
X21512277Y30236435D01*
X21506870Y30240282D01*
X21463225Y30272441D01*
X21463218Y30272443D01*
X21454444Y30277284D01*
X21437930Y30287472D01*
X21437917Y30287481D01*
X20558714Y30891022D01*
X20543294Y30902754D01*
X20535612Y30909210D01*
X20535609Y30909215D01*
X20489906Y30938389D01*
X20484416Y30942023D01*
X20439693Y30972726D01*
X20439688Y30972727D01*
X20439688Y30972728D01*
X20430746Y30977278D01*
X20413904Y30986907D01*
X19515016Y31560735D01*
X19499201Y31571952D01*
X19491302Y31578153D01*
X19491299Y31578157D01*
X19444638Y31605793D01*
X19439017Y31609250D01*
X19393312Y31638429D01*
X19393293Y31638434D01*
X19384223Y31642675D01*
X19367087Y31651726D01*
X18449513Y32195208D01*
X18433331Y32205892D01*
X18425235Y32211822D01*
X18425232Y32211825D01*
X18377618Y32237917D01*
X18371940Y32241155D01*
X18341985Y32258897D01*
X18325291Y32268786D01*
X18325289Y32268787D01*
X18325287Y32268788D01*
X18325285Y32268788D01*
X18316056Y32272732D01*
X18298614Y32281212D01*
X17363408Y32793718D01*
X17346882Y32803853D01*
X17338607Y32809499D01*
X17338598Y32809508D01*
X17290199Y32833964D01*
X17284376Y32837029D01*
X17236805Y32863100D01*
X17236802Y32863100D01*
X17227446Y32866734D01*
X17209738Y32874623D01*
X16257917Y33355599D01*
X16241051Y33365182D01*
X16232580Y33370556D01*
X16232576Y33370560D01*
X16183424Y33393369D01*
X16177449Y33396262D01*
X16129049Y33420721D01*
X16129039Y33420722D01*
X16119583Y33424036D01*
X16101615Y33431331D01*
X15134257Y33880233D01*
X15117089Y33889242D01*
X15108453Y33894324D01*
X15108444Y33894332D01*
X15058468Y33915522D01*
X15052538Y33918154D01*
X15003299Y33941005D01*
X15003289Y33941006D01*
X14993712Y33944007D01*
X14975516Y33950697D01*
X13993713Y34367017D01*
X13976249Y34375449D01*
X13967436Y34380245D01*
X13967428Y34380252D01*
X13916846Y34399732D01*
X13910709Y34402213D01*
X13860782Y34423386D01*
X13860774Y34423387D01*
X13851105Y34426065D01*
X13832690Y34432144D01*
X12837496Y34815435D01*
X12819771Y34823275D01*
X12810804Y34827774D01*
X12810799Y34827778D01*
X12759558Y34845570D01*
X12753437Y34847810D01*
X12702770Y34867325D01*
X12702766Y34867325D01*
X12693010Y34869679D01*
X12674409Y34875137D01*
X11666988Y35224953D01*
X11649007Y35232198D01*
X11639893Y35236396D01*
X11639888Y35236400D01*
X11588085Y35252468D01*
X11581798Y35254535D01*
X11530603Y35272313D01*
X11530602Y35272313D01*
X11530600Y35272314D01*
X11530597Y35272314D01*
X11520761Y35274342D01*
X11501993Y35279174D01*
X10483432Y35595134D01*
X10465213Y35601776D01*
X10455967Y35605665D01*
X10455960Y35605670D01*
X10403644Y35619999D01*
X10397346Y35621838D01*
X10345532Y35637912D01*
X10345529Y35637912D01*
X10335650Y35639606D01*
X10316718Y35643811D01*
X9288172Y35925558D01*
X9269750Y35931584D01*
X9260368Y35935167D01*
X9260363Y35935170D01*
X9207564Y35947751D01*
X9201195Y35949383D01*
X9148919Y35963704D01*
X9148914Y35963704D01*
X9138976Y35965069D01*
X9119924Y35968637D01*
X8082503Y36215867D01*
X8063886Y36221277D01*
X8054411Y36224537D01*
X8054407Y36224540D01*
X8001261Y36235341D01*
X7994855Y36236755D01*
X7942072Y36249335D01*
X7942069Y36249334D01*
X7942069Y36249335D01*
X7932070Y36250369D01*
X7912903Y36253301D01*
X6867850Y36465718D01*
X6849054Y36470503D01*
X6839480Y36473443D01*
X6839470Y36473448D01*
X6786035Y36482460D01*
X6779514Y36483672D01*
X6726369Y36494476D01*
X6726362Y36494475D01*
X6716343Y36495174D01*
X6697091Y36497463D01*
X5645530Y36674840D01*
X5626588Y36678994D01*
X5616913Y36681615D01*
X5616905Y36681619D01*
X5563119Y36688852D01*
X5556643Y36689833D01*
X5503165Y36698855D01*
X5503157Y36698854D01*
X5493128Y36699218D01*
X5473812Y36700862D01*
X4416871Y36843007D01*
X4397809Y36846525D01*
X4388040Y36848824D01*
X4388037Y36848826D01*
X4334055Y36854256D01*
X4327554Y36855020D01*
X4273784Y36862252D01*
X4273781Y36862251D01*
X4273780Y36862252D01*
X4263738Y36862280D01*
X4244385Y36863277D01*
X3183308Y36970022D01*
X3164129Y36972902D01*
X3154312Y36974868D01*
X3154303Y36974872D01*
X3100213Y36978492D01*
X3093598Y36979046D01*
X3039666Y36984473D01*
X3039658Y36984471D01*
X3029631Y36984165D01*
X3010253Y36984514D01*
X1946176Y37055745D01*
X1926915Y37057983D01*
X1917029Y37059622D01*
X1917020Y37059625D01*
X1862809Y37061436D01*
X1856185Y37061769D01*
X1802126Y37065389D01*
X1802116Y37065387D01*
X1792117Y37064746D01*
X1772733Y37064448D01*
X706872Y37100084D01*
X687545Y37101676D01*
X677599Y37102985D01*
X677595Y37102987D01*
X677590Y37102987D01*
X623389Y37102987D01*
X616739Y37103098D01*
X616500Y37103105D01*
X562572Y37104909D01*
X562571Y37104908D01*
X562570Y37104909D01*
X552578Y37103932D01*
X533209Y37102987D01*
X-533209Y37102987D01*
X-552578Y37103932D01*
X-562570Y37104909D01*
X-562571Y37104908D01*
X-562572Y37104909D01*
X-616500Y37103105D01*
X-616739Y37103098D01*
X-623389Y37102987D01*
X-677595Y37102987D01*
X-677599Y37102985D01*
X-687545Y37101676D01*
X-706872Y37100084D01*
X-1772733Y37064448D01*
X-1792117Y37064746D01*
X-1802117Y37065387D01*
X-1802126Y37065389D01*
X-1856187Y37061769D01*
X-1862808Y37061436D01*
X-1917021Y37059625D01*
X-1917029Y37059622D01*
X-1926918Y37057982D01*
X-1946174Y37055745D01*
X-3010254Y36984514D01*
X-3029631Y36984165D01*
X-3039658Y36984471D01*
X-3039666Y36984473D01*
X-3093598Y36979046D01*
X-3100213Y36978492D01*
X-3154303Y36974872D01*
X-3154312Y36974868D01*
X-3164129Y36972902D01*
X-3183308Y36970022D01*
X-4244385Y36863277D01*
X-4263739Y36862280D01*
X-4273783Y36862252D01*
X-4273783Y36862251D01*
X-4273785Y36862252D01*
X-4327528Y36855023D01*
X-4334094Y36854252D01*
X-4388037Y36848826D01*
X-4388038Y36848825D01*
X-4397805Y36846526D01*
X-4416879Y36843006D01*
X-5473810Y36700863D01*
X-5493129Y36699218D01*
X-5503156Y36698854D01*
X-5503164Y36698855D01*
X-5556623Y36689836D01*
X-5563131Y36688850D01*
X-5616906Y36681619D01*
X-5616914Y36681615D01*
X-5626595Y36678993D01*
X-5645529Y36674840D01*
X-6697089Y36497463D01*
X-6716343Y36495174D01*
X-6726361Y36494475D01*
X-6726369Y36494476D01*
X-6779577Y36483660D01*
X-6786016Y36482463D01*
X-6839470Y36473448D01*
X-6839477Y36473444D01*
X-6849054Y36470503D01*
X-6867850Y36465718D01*
X-7912903Y36253301D01*
X-7932070Y36250369D01*
X-7942069Y36249335D01*
X-7942069Y36249334D01*
X-7942072Y36249335D01*
X-7994855Y36236755D01*
X-8001261Y36235341D01*
X-8054407Y36224540D01*
X-8054411Y36224537D01*
X-8063886Y36221277D01*
X-8082503Y36215867D01*
X-9119924Y35968637D01*
X-9138976Y35965069D01*
X-9148914Y35963704D01*
X-9148919Y35963704D01*
X-9201195Y35949383D01*
X-9207564Y35947751D01*
X-9260363Y35935170D01*
X-9260368Y35935167D01*
X-9269750Y35931584D01*
X-9288172Y35925558D01*
X-10316718Y35643811D01*
X-10335650Y35639606D01*
X-10345529Y35637912D01*
X-10345532Y35637912D01*
X-10397346Y35621838D01*
X-10403644Y35619999D01*
X-10455960Y35605670D01*
X-10455967Y35605665D01*
X-10465213Y35601776D01*
X-10483432Y35595134D01*
X-11501993Y35279174D01*
X-11520761Y35274342D01*
X-11530597Y35272314D01*
X-11530600Y35272314D01*
X-11530602Y35272313D01*
X-11530603Y35272313D01*
X-11581798Y35254535D01*
X-11588085Y35252468D01*
X-11639888Y35236400D01*
X-11639893Y35236396D01*
X-11649007Y35232198D01*
X-11666988Y35224953D01*
X-12674409Y34875137D01*
X-12693012Y34869678D01*
X-12702759Y34867326D01*
X-12702771Y34867325D01*
X-12753399Y34847824D01*
X-12759597Y34845556D01*
X-12810799Y34827778D01*
X-12810810Y34827770D01*
X-12819758Y34823280D01*
X-12837486Y34815439D01*
X-13832690Y34432144D01*
X-13851105Y34426065D01*
X-13860774Y34423387D01*
X-13860782Y34423386D01*
X-13910709Y34402213D01*
X-13916846Y34399732D01*
X-13967428Y34380252D01*
X-13967436Y34380245D01*
X-13976249Y34375449D01*
X-13993713Y34367017D01*
X-14975516Y33950697D01*
X-14993712Y33944007D01*
X-15003289Y33941006D01*
X-15003299Y33941005D01*
X-15052538Y33918154D01*
X-15058468Y33915522D01*
X-15108444Y33894332D01*
X-15108453Y33894324D01*
X-15117089Y33889242D01*
X-15134257Y33880233D01*
X-16101615Y33431331D01*
X-16119583Y33424036D01*
X-16129039Y33420722D01*
X-16129049Y33420721D01*
X-16177449Y33396262D01*
X-16183424Y33393369D01*
X-16232576Y33370560D01*
X-16232580Y33370556D01*
X-16241051Y33365182D01*
X-16257917Y33355599D01*
X-17209738Y32874623D01*
X-17227446Y32866734D01*
X-17236802Y32863100D01*
X-17236805Y32863100D01*
X-17284376Y32837029D01*
X-17290199Y32833964D01*
X-17338598Y32809508D01*
X-17338607Y32809499D01*
X-17346882Y32803853D01*
X-17363408Y32793718D01*
X-18298619Y32281209D01*
X-18316059Y32272731D01*
X-18325279Y32268791D01*
X-18325287Y32268789D01*
X-18371969Y32241138D01*
X-18377664Y32237892D01*
X-18425232Y32211825D01*
X-18425242Y32211814D01*
X-18433310Y32205905D01*
X-18449496Y32195218D01*
X-19367079Y31651731D01*
X-19384222Y31642677D01*
X-19393308Y31638430D01*
X-19393312Y31638429D01*
X-19439009Y31609256D01*
X-19444634Y31605795D01*
X-19491299Y31578157D01*
X-19491305Y31578150D01*
X-19499187Y31571962D01*
X-19515005Y31560741D01*
X-20413912Y30986902D01*
X-20430744Y30977279D01*
X-20439686Y30972728D01*
X-20439693Y30972726D01*
X-20484374Y30942053D01*
X-20484380Y30942049D01*
X-20489913Y30938384D01*
X-20535610Y30909214D01*
X-20535619Y30909203D01*
X-20543281Y30902763D01*
X-20558710Y30891023D01*
X-21437930Y30287472D01*
X-21454433Y30277290D01*
X-21463217Y30272445D01*
X-21463225Y30272442D01*
X-21463230Y30272438D01*
X-21506891Y30240268D01*
X-21512298Y30236422D01*
X-21556967Y30205759D01*
X-21556972Y30205752D01*
X-21564425Y30199050D01*
X-21579456Y30186800D01*
X-22438040Y29554191D01*
X-22454193Y29543465D01*
X-22462806Y29538331D01*
X-22462809Y29538330D01*
X-22505351Y29504734D01*
X-22510618Y29500715D01*
X-22554270Y29468554D01*
X-22554276Y29468546D01*
X-22561502Y29461597D01*
X-22576112Y29448854D01*
X-23413048Y28787934D01*
X-23428829Y28776676D01*
X-23437262Y28771258D01*
X-23437270Y28771255D01*
X-23478679Y28736244D01*
X-23483758Y28732094D01*
X-23526349Y28698462D01*
X-23526358Y28698448D01*
X-23533358Y28691253D01*
X-23547531Y28678034D01*
X-24361916Y27989513D01*
X-24377319Y27977731D01*
X-24385571Y27972031D01*
X-24385577Y27972029D01*
X-24425774Y27935672D01*
X-24430761Y27931310D01*
X-24472173Y27896299D01*
X-24472179Y27896290D01*
X-24478927Y27888872D01*
X-24492650Y27875186D01*
X-25283581Y27159833D01*
X-25298572Y27147549D01*
X-25306628Y27141577D01*
X-25306634Y27141575D01*
X-25345663Y27103827D01*
X-25350392Y27099406D01*
X-25390652Y27062994D01*
X-25390659Y27062982D01*
X-25397164Y27055333D01*
X-25410411Y27041209D01*
X-26147573Y26328279D01*
X-26176995Y26299824D01*
X-26191577Y26287036D01*
X-26199433Y26280794D01*
X-26199443Y26280789D01*
X-26237134Y26241815D01*
X-26241805Y26237143D01*
X-26280789Y26199443D01*
X-26280792Y26199437D01*
X-26287027Y26191588D01*
X-26299803Y26177016D01*
X-27041220Y25410399D01*
X-27055363Y25397138D01*
X-27062986Y25390656D01*
X-27062994Y25390651D01*
X-27099338Y25350466D01*
X-27103856Y25345635D01*
X-27141575Y25306635D01*
X-27141578Y25306628D01*
X-27147557Y25298562D01*
X-27159844Y25283568D01*
X-27875185Y24492650D01*
X-27888872Y24478927D01*
X-27896288Y24472180D01*
X-27896299Y24472173D01*
X-27921259Y24442649D01*
X-27931293Y24430782D01*
X-27935656Y24425791D01*
X-27972029Y24385577D01*
X-27972033Y24385567D01*
X-27977733Y24377316D01*
X-27989512Y24361919D01*
X-28678048Y23547515D01*
X-28691274Y23533337D01*
X-28698452Y23526355D01*
X-28698462Y23526349D01*
X-28732103Y23483746D01*
X-28736216Y23478713D01*
X-28771256Y23437270D01*
X-28771260Y23437260D01*
X-28776680Y23428824D01*
X-28787940Y23413040D01*
X-29448855Y22576111D01*
X-29461599Y22561499D01*
X-29468541Y22554279D01*
X-29468554Y22554270D01*
X-29500709Y22510627D01*
X-29504712Y22505378D01*
X-29538331Y22462809D01*
X-29538336Y22462796D01*
X-29543467Y22454190D01*
X-29554193Y22438037D01*
X-30186791Y21579469D01*
X-30199045Y21564432D01*
X-30205761Y21556965D01*
X-30236422Y21512297D01*
X-30240267Y21506891D01*
X-30272441Y21463225D01*
X-30272443Y21463218D01*
X-30277284Y21454444D01*
X-30287469Y21437933D01*
X-30891022Y20558714D01*
X-30902754Y20543294D01*
X-30909210Y20535612D01*
X-30909215Y20535609D01*
X-30938374Y20489931D01*
X-30938378Y20489924D01*
X-30942023Y20484416D01*
X-30972726Y20439693D01*
X-30972727Y20439688D01*
X-30972728Y20439688D01*
X-30977278Y20430746D01*
X-30986903Y20413909D01*
X-31142106Y20170788D01*
X-31560731Y19515022D01*
X-31571952Y19499201D01*
X-31578153Y19491302D01*
X-31578157Y19491299D01*
X-31578158Y19491297D01*
X-31605781Y19444658D01*
X-31609250Y19439017D01*
X-31638429Y19393312D01*
X-31638434Y19393293D01*
X-31642675Y19384223D01*
X-31651726Y19367087D01*
X-32195208Y18449513D01*
X-32205892Y18433331D01*
X-32211821Y18425235D01*
X-32211825Y18425232D01*
X-32237917Y18377618D01*
X-32241147Y18371953D01*
X-32258897Y18341985D01*
X-32268786Y18325291D01*
X-32272732Y18316056D01*
X-32281212Y18298614D01*
X-32793718Y17363408D01*
X-32803853Y17346882D01*
X-32809499Y17338607D01*
X-32809508Y17338598D01*
X-32833964Y17290199D01*
X-32837029Y17284376D01*
X-32863100Y17236805D01*
X-32863100Y17236804D01*
X-32866734Y17227446D01*
X-32874623Y17209738D01*
X-33355597Y16257922D01*
X-33365182Y16241051D01*
X-33370556Y16232580D01*
X-33370560Y16232576D01*
X-33370561Y16232573D01*
X-33393369Y16183424D01*
X-33396262Y16177449D01*
X-33420721Y16129049D01*
X-33420722Y16129039D01*
X-33424036Y16119583D01*
X-33431331Y16101615D01*
X-33880233Y15134257D01*
X-33889242Y15117089D01*
X-33894324Y15108453D01*
X-33894332Y15108444D01*
X-33915522Y15058468D01*
X-33918154Y15052538D01*
X-33941005Y15003299D01*
X-33941006Y15003289D01*
X-33944007Y14993712D01*
X-33950697Y14975516D01*
X-34363872Y14001130D01*
X-34367015Y13993718D01*
X-34375449Y13976249D01*
X-34380245Y13967436D01*
X-34380252Y13967428D01*
X-34399725Y13916864D01*
X-34402213Y13910709D01*
X-34423386Y13860782D01*
X-34423387Y13860774D01*
X-34426065Y13851105D01*
X-34432144Y13832690D01*
X-34815435Y12837496D01*
X-34823275Y12819771D01*
X-34827774Y12810804D01*
X-34827778Y12810799D01*
X-34845570Y12759558D01*
X-34847810Y12753437D01*
X-34867325Y12702770D01*
X-34867325Y12702768D01*
X-34869679Y12693010D01*
X-34875137Y12674409D01*
X-35224953Y11666988D01*
X-35232198Y11649007D01*
X-35236396Y11639893D01*
X-35236400Y11639888D01*
X-35252468Y11588085D01*
X-35254533Y11581802D01*
X-35264121Y11554194D01*
X-35272313Y11530603D01*
X-35274342Y11520761D01*
X-35279174Y11501993D01*
X-35595122Y10483473D01*
X-35595132Y10483440D01*
X-35601776Y10465213D01*
X-35605665Y10455967D01*
X-35605670Y10455960D01*
X-35619999Y10403644D01*
X-35621838Y10397346D01*
X-35637912Y10345532D01*
X-35637912Y10345530D01*
X-35639606Y10335650D01*
X-35643811Y10316718D01*
X-35925558Y9288172D01*
X-35931584Y9269750D01*
X-35935167Y9260368D01*
X-35935170Y9260363D01*
X-35947751Y9207564D01*
X-35949383Y9201195D01*
X-35963704Y9148919D01*
X-35963704Y9148914D01*
X-35965069Y9138976D01*
X-35968637Y9119924D01*
X-36215867Y8082503D01*
X-36221277Y8063886D01*
X-36224537Y8054411D01*
X-36224540Y8054407D01*
X-36235341Y8001261D01*
X-36236755Y7994855D01*
X-36249335Y7942072D01*
X-36249334Y7942069D01*
X-36249335Y7942069D01*
X-36250369Y7932070D01*
X-36253301Y7912903D01*
X-36464978Y6871489D01*
X-36465716Y6867859D01*
X-36470503Y6849054D01*
X-36473443Y6839480D01*
X-36473448Y6839470D01*
X-36477121Y6817692D01*
X-36482459Y6786043D01*
X-36483672Y6779514D01*
X-36494476Y6726369D01*
X-36494475Y6726362D01*
X-36495174Y6716343D01*
X-36497463Y6697091D01*
X-36674838Y5645541D01*
X-36678994Y5626589D01*
X-36681615Y5616914D01*
X-36681619Y5616905D01*
X-36685502Y5588023D01*
X-36688845Y5563177D01*
X-36689838Y5556617D01*
X-36698855Y5503165D01*
X-36698854Y5503157D01*
X-36699218Y5493127D01*
X-36700862Y5473813D01*
X-36790875Y4804503D01*
X-36821914Y4721560D01*
X-36847380Y4690321D01*
X-37578143Y3959558D01*
X-37591738Y3947439D01*
X-37634950Y3902790D01*
X-37637175Y3900526D01*
X-37679812Y3857891D01*
X-37679813Y3857888D01*
X-37681233Y3856469D01*
X-37693126Y3842679D01*
X-37699209Y3836395D01*
X-37721052Y3816923D01*
X-37732395Y3808220D01*
X-37748094Y3787759D01*
X-37762965Y3770519D01*
X-37780903Y3751987D01*
X-37787850Y3739486D01*
X-37803908Y3715021D01*
X-37912858Y3573034D01*
X-37930021Y3553465D01*
X-37944190Y3539297D01*
X-37954205Y3521949D01*
X-37968670Y3500299D01*
X-37980876Y3484393D01*
X-37988552Y3465859D01*
X-38000055Y3442533D01*
X-38092411Y3282569D01*
X-38106868Y3260932D01*
X-38119070Y3245032D01*
X-38126740Y3226513D01*
X-38138252Y3203168D01*
X-38148277Y3185807D01*
X-38148277Y3185806D01*
X-38153461Y3166456D01*
X-38161832Y3141793D01*
X-38232513Y2971158D01*
X-38244025Y2947813D01*
X-38254048Y2930455D01*
X-38254048Y2930454D01*
X-38259233Y2911101D01*
X-38267601Y2886448D01*
X-38275273Y2867928D01*
X-38275273Y2867926D01*
X-38275274Y2867922D01*
X-38277891Y2848047D01*
X-38282969Y2822519D01*
X-38309713Y2722706D01*
X-38330769Y2644124D01*
X-38339130Y2619490D01*
X-38346809Y2600953D01*
X-38349426Y2581070D01*
X-38354503Y2555544D01*
X-38359691Y2536187D01*
X-38359691Y2536185D01*
X-38359691Y2518170D01*
X-38379398Y2431827D01*
X-38420612Y2377309D01*
X-38420198Y2376942D01*
X-38424923Y2371608D01*
X-38426734Y2369213D01*
X-38428183Y2367929D01*
X-38524818Y2227930D01*
X-38585140Y2068872D01*
X-38605645Y1900000D01*
X-43426618Y1900000D01*
X-43375183Y1974516D01*
X-43375180Y1974521D01*
X-43314860Y2133573D01*
X-43314860Y2133575D01*
X-43294355Y2302449D01*
X-43314860Y2471322D01*
X-43314860Y2471324D01*
X-43375180Y2630376D01*
X-43375183Y2630381D01*
X-43471817Y2770378D01*
X-43471818Y2770379D01*
X-43581922Y2867922D01*
X-43599148Y2883183D01*
X-43689216Y2930455D01*
X-43749771Y2962238D01*
X-43755573Y2963668D01*
X-43914944Y3002949D01*
X-44085056Y3002949D01*
X-44250225Y2962239D01*
X-44250225Y2962238D01*
X-44250228Y2962238D01*
X-44277715Y2947811D01*
X-44400852Y2883183D01*
X-44434927Y2852995D01*
X-44512623Y2810491D01*
X-44566888Y2802949D01*
X-46863443Y2802949D01*
X-46990737Y2768841D01*
X-47070645Y2722706D01*
X-47104865Y2702949D01*
X-49638370Y169444D01*
X-52146777Y-2338963D01*
X-52221765Y-2386082D01*
X-52287491Y-2397249D01*
X-54033112Y-2397249D01*
X-54119455Y-2377542D01*
X-54165073Y-2347203D01*
X-54199144Y-2317018D01*
X-54199146Y-2317016D01*
X-54199148Y-2317015D01*
X-54205959Y-2313439D01*
X-54349771Y-2237959D01*
X-54459887Y-2210819D01*
X-54514944Y-2197249D01*
X-54685056Y-2197249D01*
X-54751123Y-2213533D01*
X-54850228Y-2237959D01*
X-54958086Y-2294569D01*
X-55000852Y-2317015D01*
X-55000855Y-2317018D01*
X-55108823Y-2412669D01*
X-55128183Y-2429820D01*
X-55132596Y-2436214D01*
X-55224816Y-2569816D01*
X-55224819Y-2569821D01*
X-55285139Y-2728873D01*
X-55285139Y-2728874D01*
X-55285140Y-2728877D01*
X-55305645Y-2897749D01*
X-62614518Y-2897749D01*
X-62574324Y-2412672D01*
X-62514469Y-1207007D01*
X-62494510Y0D01*
X-62514469Y1207007D01*
X-62574324Y2412672D01*
X-62674008Y3615684D01*
X-62813418Y4814786D01*
X-62992401Y6008635D01*
X-63210747Y7195846D01*
X-63468231Y8375212D01*
X-63472815Y8393313D01*
X-63677395Y9201182D01*
X-63764579Y9545466D01*
X-64099447Y10705245D01*
X-64472471Y11853294D01*
X-64883272Y12988447D01*
X-65331357Y14109334D01*
X-65816273Y15214832D01*
X-66337466Y16303672D01*
X-66894382Y17374698D01*
X-67486387Y18426694D01*
X-68112880Y19458588D01*
X-68773141Y20469192D01*
X-69388092Y21345718D01*
X-69466438Y21457389D01*
X-70192039Y22422136D01*
X-70765306Y23134064D01*
X-70949144Y23362369D01*
X-71736918Y24277051D01*
X-72273731Y24860184D01*
X-72554503Y25165184D01*
X-73401008Y26025802D01*
X-73464696Y26086407D01*
X-74275493Y26857952D01*
X-74306145Y26885247D01*
X-75177037Y27660753D01*
X-76104620Y28433297D01*
X-76104622Y28433299D01*
X-76104631Y28433306D01*
X-76575589Y28799867D01*
X-77057238Y29174749D01*
X-77461626Y29468554D01*
X-78033838Y29884291D01*
X-78508550Y30205759D01*
X-79033389Y30561173D01*
X-79064759Y30580936D01*
X-80054762Y31204628D01*
X-81096844Y31813956D01*
X-81566378Y32068055D01*
X-82158515Y32388504D01*
X-82697637Y32657609D01*
X-83238593Y32927631D01*
X-84070688Y33309148D01*
X-84335912Y33430754D01*
X-85449263Y33897320D01*
X-86577431Y34326820D01*
X-87719183Y34718784D01*
X-88873271Y35072784D01*
X-90038432Y35388432D01*
X-91213392Y35665383D01*
X-92396867Y35903335D01*
X-93587563Y36102027D01*
X-94784177Y36261241D01*
X-95985401Y36380805D01*
X-97189921Y36460587D01*
X-97839574Y36482078D01*
X-98396414Y36500500D01*
X-98396420Y36500500D01*
X-99603580Y36500500D01*
X-99603586Y36500500D01*
X-100112140Y36483676D01*
X-100810079Y36460587D01*
X-102014599Y36380805D01*
X-103215823Y36261241D01*
X-104412437Y36102027D01*
X-105603133Y35903335D01*
X-106786608Y35665383D01*
X-107961568Y35388432D01*
X-109126729Y35072784D01*
X-110280817Y34718784D01*
X-111422569Y34326820D01*
X-112550737Y33897320D01*
X-113664088Y33430754D01*
X-114761404Y32927632D01*
X-115841485Y32388504D01*
X-116903150Y31813959D01*
X-117945239Y31204627D01*
X-118966611Y30561173D01*
X-119966149Y29884300D01*
X-120942762Y29174749D01*
X-121895380Y28433297D01*
X-122822963Y27660753D01*
X-123724496Y26857962D01*
X-124598992Y26025802D01*
X-125445497Y25165184D01*
X-126263084Y24277048D01*
X-127050859Y23362365D01*
X-127807961Y22422136D01*
X-128533562Y21457389D01*
X-129226868Y20469178D01*
X-129887122Y19458584D01*
X-130513601Y18426713D01*
X-130513607Y18426700D01*
X-130513612Y18426694D01*
X-130734681Y18033853D01*
X-131105620Y17374693D01*
X-131662533Y16303673D01*
X-132183729Y15214826D01*
X-132668639Y14109342D01*
X-132788404Y13809748D01*
X-133107115Y13012490D01*
X-133116734Y12988429D01*
X-133527522Y11853313D01*
X-133900555Y10705236D01*
X-134235424Y9545453D01*
X-134531764Y8375233D01*
X-134789251Y7195854D01*
X-135007603Y6008606D01*
X-135186581Y4814788D01*
X-135325989Y3615706D01*
X-135325990Y3615689D01*
X-135325991Y3615684D01*
X-135425675Y2412672D01*
X-135436825Y2188083D01*
X-135485531Y1206994D01*
X-135505490Y0D01*
X-141997301Y0D01*
X-141999143Y163419D01*
X-141999120Y169444D01*
X-141974486Y1465135D01*
X-141974280Y1471157D01*
X-141910432Y2765484D01*
X-141910044Y2771496D01*
X-141807042Y4063270D01*
X-141806473Y4069269D01*
X-141664402Y5357421D01*
X-141663650Y5363399D01*
X-141482660Y6646547D01*
X-141481729Y6652500D01*
X-141261960Y7929675D01*
X-141260848Y7935597D01*
X-141002527Y9205474D01*
X-141001237Y9211359D01*
X-140704582Y10472861D01*
X-140703114Y10478705D01*
X-140368410Y11730631D01*
X-140366766Y11736428D01*
X-139994306Y12977670D01*
X-139992487Y12983414D01*
X-139582624Y14212800D01*
X-139580632Y14218486D01*
X-139133744Y15434881D01*
X-139131581Y15440505D01*
X-138648055Y16642860D01*
X-138645722Y16648415D01*
X-138126049Y17835506D01*
X-138123550Y17840989D01*
X-137568136Y19011889D01*
X-137565471Y19017293D01*
X-136974891Y20170788D01*
X-136972064Y20176109D01*
X-136346837Y21311188D01*
X-136343851Y21316421D01*
X-135684521Y22432097D01*
X-135681377Y22437237D01*
X-134988596Y23532402D01*
X-134985298Y23537445D01*
X-134259665Y24611157D01*
X-134256216Y24616097D01*
X-133498424Y25667329D01*
X-133494827Y25672163D01*
X-132705560Y26699966D01*
X-132701819Y26704689D01*
X-131881767Y27708166D01*
X-131877884Y27712773D01*
X-131027853Y28690934D01*
X-131023832Y28695422D01*
X-130144570Y29647408D01*
X-130140416Y29651771D01*
X-129232738Y30576700D01*
X-129228453Y30580936D01*
X-128293206Y31477947D01*
X-128288795Y31482052D01*
X-127326782Y32350371D01*
X-127322248Y32354340D01*
X-126334429Y33193102D01*
X-126329777Y33196932D01*
X-126237391Y33270682D01*
X-126157617Y33309148D01*
X-126069054Y33309191D01*
X-125989242Y33270805D01*
X-125933990Y33201590D01*
X-125916691Y33146292D01*
X-125885246Y32947757D01*
X-125829701Y32776807D01*
X-125819558Y32745592D01*
X-125819554Y32745581D01*
X-125787469Y32682611D01*
X-125723051Y32556184D01*
X-125637685Y32438688D01*
X-125598106Y32384210D01*
X-125447789Y32233893D01*
X-125366071Y32174523D01*
X-125275816Y32108949D01*
X-125275812Y32108947D01*
X-125086418Y32012445D01*
X-125086407Y32012441D01*
X-124884251Y31946756D01*
X-124884244Y31946754D01*
X-124884243Y31946754D01*
X-124884241Y31946753D01*
X-124884234Y31946752D01*
X-124674287Y31913500D01*
X-124461713Y31913500D01*
X-124251765Y31946752D01*
X-124251748Y31946756D01*
X-124049592Y32012441D01*
X-124049581Y32012445D01*
X-123860187Y32108947D01*
X-123688210Y32233893D01*
X-123537893Y32384210D01*
X-123412947Y32556187D01*
X-123316445Y32745581D01*
X-123316441Y32745592D01*
X-123250756Y32947748D01*
X-123250752Y32947765D01*
X-123217500Y33157713D01*
X-123217500Y33370286D01*
X-123217544Y33370561D01*
X-123227170Y33431338D01*
X-123250752Y33580234D01*
X-123250756Y33580251D01*
X-123316441Y33782407D01*
X-123316445Y33782418D01*
X-123412947Y33971812D01*
X-123412949Y33971816D01*
X-123513981Y34110876D01*
X-123537893Y34143789D01*
X-123688210Y34294106D01*
X-123742688Y34333685D01*
X-123860184Y34419051D01*
X-123951589Y34465624D01*
X-124049581Y34515554D01*
X-124049584Y34515555D01*
X-124049588Y34515557D01*
X-124089174Y34528419D01*
X-124165200Y34573841D01*
X-124213990Y34647753D01*
X-124225879Y34735515D01*
X-124198513Y34819744D01*
X-124142192Y34880430D01*
X-123210700Y35535827D01*
X-123205720Y35539220D01*
X-122123767Y36252509D01*
X-122118687Y36255748D01*
X-121015674Y36935933D01*
X-121010498Y36939018D01*
X-119887374Y37585511D01*
X-119882107Y37588438D01*
X-118739894Y38200650D01*
X-118734541Y38203415D01*
X-117574385Y38780732D01*
X-117568951Y38783335D01*
X-116391764Y39325305D01*
X-116386253Y39327741D01*
X-115193285Y39833786D01*
X-115187704Y39836055D01*
X-113979901Y40305777D01*
X-113974252Y40307876D01*
X-112752782Y40740816D01*
X-112747073Y40742742D01*
X-111513103Y41138488D01*
X-111507339Y41140241D01*
X-110261931Y41498457D01*
X-110256116Y41500035D01*
X-109000423Y41820385D01*
X-108994563Y41821786D01*
X-107729754Y42103971D01*
X-107723854Y42105194D01*
X-106451056Y42348965D01*
X-106445121Y42350008D01*
X-105165589Y42555123D01*
X-105159627Y42555987D01*
X-103874397Y42722282D01*
X-103868410Y42722964D01*
X-102578827Y42850262D01*
X-102572823Y42850764D01*
X-101279888Y42938971D01*
X-101273871Y42939290D01*
X-99978871Y42988311D01*
X-99972847Y42988447D01*
X-98677025Y42998241D01*
X-98671000Y42998196D01*
X-97375409Y42968753D01*
X-97369388Y42968525D01*
X-96075275Y42899873D01*
X-96069263Y42899462D01*
X-94777874Y42791666D01*
X-94771879Y42791074D01*
X-93484331Y42644231D01*
X-93478355Y42643458D01*
X-92195814Y42457697D01*
X-92189865Y42456743D01*
X-90913579Y42232249D01*
X-90907661Y42231116D01*
X-89638688Y41968070D01*
X-89632807Y41966757D01*
X-88372463Y41665435D01*
X-88366625Y41663946D01*
X-87115908Y41324586D01*
X-87110118Y41322920D01*
X-85870307Y40945870D01*
X-85864569Y40944030D01*
X-84636705Y40529604D01*
X-84631026Y40527591D01*
X-83416275Y40076185D01*
X-83410660Y40074001D01*
X-82210146Y39586032D01*
X-82204599Y39583679D01*
X-81227589Y39151645D01*
X-81019393Y39059581D01*
X-81013920Y39057061D01*
X-79845130Y38497325D01*
X-79839735Y38494640D01*
X-78688439Y37899783D01*
X-78683129Y37896937D01*
X-77550353Y37267489D01*
X-77545131Y37264483D01*
X-76431919Y36601022D01*
X-76426791Y36597859D01*
X-75334227Y35901034D01*
X-75329196Y35897718D01*
X-74797969Y35535827D01*
X-74383454Y35253444D01*
X-74258146Y35168080D01*
X-74253224Y35164616D01*
X-73227007Y34419052D01*
X-73204850Y34402955D01*
X-73200029Y34399340D01*
X-72175106Y33606221D01*
X-72170397Y33602462D01*
X-71818598Y33312784D01*
X-71276895Y32866734D01*
X-71169994Y32778710D01*
X-71165402Y32774810D01*
X-70190420Y31921171D01*
X-70185947Y31917134D01*
X-69851341Y31605781D01*
X-69237203Y31034320D01*
X-69232905Y31030198D01*
X-68778490Y30580936D01*
X-68311327Y30119070D01*
X-68307107Y30114770D01*
X-67413542Y29176167D01*
X-67409454Y29171740D01*
X-66544739Y28206543D01*
X-66540787Y28201995D01*
X-65724769Y27233703D01*
X-65684198Y27154980D01*
X-65681801Y27066449D01*
X-65718054Y26985645D01*
X-65785776Y26928573D01*
X-65845807Y26908914D01*
X-65995243Y26885246D01*
X-66197412Y26819557D01*
X-66386816Y26723051D01*
X-66558792Y26598104D01*
X-66709104Y26447792D01*
X-66834051Y26275816D01*
X-66930557Y26086412D01*
X-66996246Y25884243D01*
X-67029500Y25674287D01*
X-67029500Y25461713D01*
X-66996246Y25251757D01*
X-66931441Y25052308D01*
X-66930558Y25049592D01*
X-66930554Y25049581D01*
X-66930552Y25049578D01*
X-66834051Y24860184D01*
X-66748685Y24742688D01*
X-66709106Y24688210D01*
X-66558789Y24537893D01*
X-66496531Y24492661D01*
X-66386816Y24412949D01*
X-66386812Y24412947D01*
X-66197418Y24316445D01*
X-66197407Y24316441D01*
X-65995251Y24250756D01*
X-65995244Y24250754D01*
X-65995243Y24250754D01*
X-65995241Y24250753D01*
X-65995234Y24250752D01*
X-65785287Y24217500D01*
X-65572713Y24217500D01*
X-65362765Y24250752D01*
X-65362748Y24250756D01*
X-65160592Y24316441D01*
X-65160581Y24316445D01*
X-64971187Y24412947D01*
X-64799210Y24537893D01*
X-64648893Y24688210D01*
X-64523947Y24860187D01*
X-64427440Y25049592D01*
X-64426799Y25051140D01*
X-64426276Y25051876D01*
X-64423893Y25056554D01*
X-64423205Y25056203D01*
X-64375548Y25123367D01*
X-64298034Y25166204D01*
X-64209610Y25171167D01*
X-64127789Y25137273D01*
X-64079775Y25088887D01*
X-63374585Y24078681D01*
X-63371211Y24073689D01*
X-62661942Y22989098D01*
X-62658721Y22984006D01*
X-61982605Y21878428D01*
X-61979542Y21873244D01*
X-61811888Y21579469D01*
X-61337236Y20747752D01*
X-61334329Y20742475D01*
X-60726373Y19598023D01*
X-60723627Y19592660D01*
X-60150575Y18430282D01*
X-60148025Y18424906D01*
X-59610418Y17245694D01*
X-59608028Y17240234D01*
X-59106376Y16045307D01*
X-59104152Y16039778D01*
X-58663346Y14893752D01*
X-58657022Y14874412D01*
X-58655238Y14867841D01*
X-58655238Y14867834D01*
X-58635716Y14821114D01*
X-58632555Y14813057D01*
X-58615108Y14765563D01*
X-58615106Y14765561D01*
X-58615106Y14765559D01*
X-58609050Y14754009D01*
X-58609825Y14753602D01*
X-58600313Y14736387D01*
X-58579846Y14687404D01*
X-58573800Y14667236D01*
X-58573387Y14667372D01*
X-58569314Y14654987D01*
X-58569312Y14654983D01*
X-58569312Y14654982D01*
X-58548731Y14612224D01*
X-58544447Y14602687D01*
X-58526159Y14558920D01*
X-58526158Y14558919D01*
X-58519602Y14547645D01*
X-58519978Y14547426D01*
X-58508919Y14529515D01*
X-58484373Y14478519D01*
X-58477295Y14458752D01*
X-58476872Y14458917D01*
X-58472152Y14446751D01*
X-58449315Y14405051D01*
X-58444546Y14395773D01*
X-58423924Y14352931D01*
X-58416779Y14342014D01*
X-58417159Y14341765D01*
X-58405196Y14324493D01*
X-58377721Y14274321D01*
X-58369660Y14255043D01*
X-58369219Y14255242D01*
X-58363879Y14243346D01*
X-58363879Y14243345D01*
X-58345034Y14212800D01*
X-58338786Y14202674D01*
X-58333606Y14193770D01*
X-58310656Y14151863D01*
X-58310649Y14151856D01*
X-58302952Y14141341D01*
X-58303343Y14141054D01*
X-58290570Y14124522D01*
X-58260010Y14074989D01*
X-58251035Y14056277D01*
X-58250564Y14056519D01*
X-58244621Y14044899D01*
X-58217308Y14005284D01*
X-58211780Y13996814D01*
X-58186531Y13955888D01*
X-58178290Y13945774D01*
X-58178699Y13945440D01*
X-58165187Y13929691D01*
X-58133662Y13883971D01*
X-58123421Y13867447D01*
X-58118623Y13858788D01*
X-58118622Y13858784D01*
X-58118619Y13858780D01*
X-58118618Y13858778D01*
X-58086333Y13815134D01*
X-58082502Y13809770D01*
X-58055519Y13770636D01*
X-58044303Y13754369D01*
X-58044485Y13754243D01*
X-58035316Y13742007D01*
X-58027206Y13728828D01*
X-58027204Y13728826D01*
X-58027203Y13728824D01*
X-58024311Y13726090D01*
X-58001034Y13699826D01*
X-57998669Y13696630D01*
X-57998668Y13696628D01*
X-57970454Y13674179D01*
X-57957645Y13663063D01*
X-57456837Y13189589D01*
X-57438863Y13168904D01*
X-57432971Y13162557D01*
X-57432968Y13162555D01*
X-57432968Y13162554D01*
X-57399913Y13135182D01*
X-57399912Y13135181D01*
X-57390120Y13126514D01*
X-57358959Y13097053D01*
X-57351938Y13091972D01*
X-57329234Y13076650D01*
X-57267477Y13025511D01*
X-57253197Y13012466D01*
X-57245970Y13005189D01*
X-57245967Y13005185D01*
X-57203138Y12972088D01*
X-57197953Y12967939D01*
X-57156253Y12933407D01*
X-57156250Y12933406D01*
X-57156246Y12933402D01*
X-57147537Y12927932D01*
X-57131695Y12916875D01*
X-57073097Y12871591D01*
X-57058143Y12858806D01*
X-57051663Y12852686D01*
X-57051662Y12852685D01*
X-57007320Y12820631D01*
X-57002250Y12816841D01*
X-56958957Y12783385D01*
X-56958953Y12783382D01*
X-56951251Y12778900D01*
X-56934760Y12768179D01*
X-56871656Y12722563D01*
X-56856062Y12710051D01*
X-56850336Y12704964D01*
X-56850334Y12704962D01*
X-56832694Y12693010D01*
X-56804586Y12673965D01*
X-56799630Y12670496D01*
X-56754856Y12638130D01*
X-56754853Y12638128D01*
X-56754850Y12638127D01*
X-56748119Y12634493D01*
X-56731036Y12624129D01*
X-56663316Y12578245D01*
X-56646762Y12565721D01*
X-56643169Y12562696D01*
X-56643165Y12562693D01*
X-56643164Y12562692D01*
X-56595495Y12532208D01*
X-56591085Y12529304D01*
X-56544201Y12497537D01*
X-56539978Y12495421D01*
X-56521941Y12485170D01*
X-56483858Y12460816D01*
X-56467240Y12448824D01*
X-56415967Y12417360D01*
X-56412843Y12415403D01*
X-56362760Y12383376D01*
X-56362757Y12383375D01*
X-56351773Y12376351D01*
X-56352666Y12374952D01*
X-56336766Y12364543D01*
X-56336656Y12364708D01*
X-56325819Y12357447D01*
X-56325817Y12357446D01*
X-56325816Y12357445D01*
X-56314274Y12351734D01*
X-56295276Y12342333D01*
X-56279457Y12333589D01*
X-56250418Y12315770D01*
X-56250406Y12315765D01*
X-56244670Y12314062D01*
X-56213063Y12301656D01*
X-55534703Y11966015D01*
X-55517450Y11956384D01*
X-55510177Y11951836D01*
X-55460274Y11929077D01*
X-55454602Y11926382D01*
X-55405447Y11902062D01*
X-55397323Y11899292D01*
X-55378973Y11892000D01*
X-55328820Y11869127D01*
X-55314422Y11861520D01*
X-55311622Y11860292D01*
X-55255922Y11835859D01*
X-55253322Y11834696D01*
X-55224463Y11821534D01*
X-55195185Y11808182D01*
X-55179912Y11802516D01*
X-55128468Y11779950D01*
X-55114401Y11772773D01*
X-55055124Y11747756D01*
X-55052564Y11746655D01*
X-54993701Y11720835D01*
X-54978806Y11715551D01*
X-54926575Y11693509D01*
X-54912835Y11686735D01*
X-54880281Y11673515D01*
X-54852790Y11662351D01*
X-54850406Y11661364D01*
X-54794028Y11637573D01*
X-54794025Y11637572D01*
X-54790723Y11636179D01*
X-54776212Y11631255D01*
X-54723301Y11609769D01*
X-54709853Y11603362D01*
X-54649136Y11579633D01*
X-54646702Y11578663D01*
X-54586445Y11554194D01*
X-54572272Y11549596D01*
X-54518826Y11528709D01*
X-54505671Y11522650D01*
X-54444366Y11499593D01*
X-54441989Y11498682D01*
X-54381009Y11474851D01*
X-54367184Y11470564D01*
X-54313526Y11450383D01*
X-54304296Y11446252D01*
X-54239089Y11422378D01*
X-54237590Y11421822D01*
X-54223440Y11416500D01*
X-54207002Y11408336D01*
X-54206789Y11408801D01*
X-54194937Y11403346D01*
X-54148881Y11389077D01*
X-54139364Y11385863D01*
X-54094100Y11369292D01*
X-54081371Y11366445D01*
X-54081489Y11365917D01*
X-54061165Y11361906D01*
X-53360287Y11144779D01*
X-53339871Y11137189D01*
X-53283077Y11120819D01*
X-53279308Y11119693D01*
X-53222978Y11102243D01*
X-53222976Y11102242D01*
X-53222838Y11102200D01*
X-53201638Y11097345D01*
X-53155624Y11084083D01*
X-53145390Y11080448D01*
X-53079205Y11062048D01*
X-53077425Y11061545D01*
X-53017201Y11044187D01*
X-53017199Y11044186D01*
X-53011274Y11042479D01*
X-53000658Y11040211D01*
X-52958340Y11028447D01*
X-52956631Y11027972D01*
X-52946414Y11024450D01*
X-52880014Y11006662D01*
X-52878210Y11006169D01*
X-52811871Y10987727D01*
X-52801249Y10985562D01*
X-52758992Y10974242D01*
X-52747806Y10970510D01*
X-52681988Y10953604D01*
X-52680048Y10953095D01*
X-52619884Y10936979D01*
X-52614456Y10935525D01*
X-52602868Y10933282D01*
X-52524338Y10913112D01*
X-52512156Y10909193D01*
X-52447061Y10893250D01*
X-52444902Y10892708D01*
X-52380036Y10876049D01*
X-52367444Y10873752D01*
X-52291831Y10855235D01*
X-52280550Y10851740D01*
X-52214345Y10836249D01*
X-52212351Y10835772D01*
X-52198059Y10832272D01*
X-52151945Y10820979D01*
X-52151943Y10820979D01*
X-52146500Y10819646D01*
X-52134860Y10817652D01*
X-52096569Y10808693D01*
X-52077352Y10801969D01*
X-52077152Y10802592D01*
X-52064744Y10798583D01*
X-52064742Y10798582D01*
X-52064741Y10798582D01*
X-52023008Y10790918D01*
X-52016544Y10789731D01*
X-52007161Y10787773D01*
X-51968842Y10778808D01*
X-51959406Y10776601D01*
X-51959405Y10776601D01*
X-51959401Y10776600D01*
X-51946425Y10775312D01*
X-51946489Y10774662D01*
X-51926189Y10773140D01*
X-51337034Y10664956D01*
X-51316088Y10659924D01*
X-51314407Y10659422D01*
X-51314406Y10659422D01*
X-51314404Y10659421D01*
X-51314402Y10659421D01*
X-51257157Y10650237D01*
X-51252743Y10649478D01*
X-51195652Y10638995D01*
X-51193885Y10638906D01*
X-51172463Y10636650D01*
X-51125125Y10629056D01*
X-51109597Y10625625D01*
X-51046034Y10616348D01*
X-51043257Y10615923D01*
X-50979856Y10605752D01*
X-50964037Y10604379D01*
X-50888127Y10593300D01*
X-50870716Y10589726D01*
X-50808678Y10581678D01*
X-50805544Y10581246D01*
X-50743628Y10572209D01*
X-50725891Y10570938D01*
X-50655125Y10561758D01*
X-50636878Y10558322D01*
X-50575423Y10551389D01*
X-50572139Y10550991D01*
X-50510767Y10543031D01*
X-50492207Y10542005D01*
X-50426559Y10534600D01*
X-50410072Y10531765D01*
X-50346929Y10525596D01*
X-50343977Y10525285D01*
X-50270698Y10517020D01*
X-50270713Y10516886D01*
X-50244348Y10514493D01*
X-50238555Y10513321D01*
X-50182786Y10509480D01*
X-50177112Y10509007D01*
X-50121513Y10503575D01*
X-50115229Y10503786D01*
X-50094907Y10503427D01*
X-50040933Y10499711D01*
X-50021038Y10497330D01*
X-50013668Y10496068D01*
X-49958354Y10493933D01*
X-49952363Y10493611D01*
X-49897163Y10489810D01*
X-49889706Y10490274D01*
X-49869683Y10490510D01*
X-49792908Y10487547D01*
X-49773698Y10485871D01*
X-49763302Y10484453D01*
X-49709291Y10484204D01*
X-49702538Y10484058D01*
X-49648569Y10481975D01*
X-49638112Y10482943D01*
X-49618867Y10483787D01*
X-49550507Y10483473D01*
X-49530409Y10482363D01*
X-49523359Y10481614D01*
X-49467852Y10483005D01*
X-49461953Y10483065D01*
X-49406440Y10482809D01*
X-49399393Y10483704D01*
X-49379334Y10485224D01*
X-49306045Y10487062D01*
X-49284306Y10486400D01*
X-49225208Y10489050D01*
X-49221284Y10489187D01*
X-49162194Y10490668D01*
X-49140571Y10492846D01*
X-49093085Y10494976D01*
X-49081733Y10494799D01*
X-49013547Y10498534D01*
X-49011583Y10498632D01*
X-48943326Y10501694D01*
X-48932052Y10502998D01*
X-48911027Y10504150D01*
X-48891553Y10503083D01*
X-48891522Y10504013D01*
X-48878492Y10503576D01*
X-48878488Y10503576D01*
X-48878487Y10503576D01*
X-48827759Y10508530D01*
X-48819315Y10509174D01*
X-48768400Y10511963D01*
X-48755585Y10514370D01*
X-48755417Y10513478D01*
X-48736647Y10517430D01*
X-48736184Y10517476D01*
X-48719184Y10518160D01*
X-48656077Y10525278D01*
X-48653128Y10525589D01*
X-48605786Y10530214D01*
X-48592722Y10531491D01*
X-48592721Y10531491D01*
X-48589940Y10531763D01*
X-48573442Y10534599D01*
X-48507790Y10542005D01*
X-48489236Y10543030D01*
X-48427860Y10550991D01*
X-48424574Y10551390D01*
X-48363127Y10558322D01*
X-48344872Y10561758D01*
X-48274106Y10570938D01*
X-48256372Y10572209D01*
X-48194439Y10581248D01*
X-48191305Y10581680D01*
X-48129298Y10589724D01*
X-48111874Y10593300D01*
X-48035966Y10604379D01*
X-48020125Y10605754D01*
X-47956703Y10615927D01*
X-47953932Y10616352D01*
X-47890398Y10625626D01*
X-47874879Y10629055D01*
X-47839262Y10634768D01*
X-47827528Y10636651D01*
X-47806109Y10638907D01*
X-47804340Y10638996D01*
X-47747292Y10649471D01*
X-47742882Y10650230D01*
X-47685587Y10659422D01*
X-47683897Y10659927D01*
X-47662955Y10664958D01*
X-47073809Y10773140D01*
X-47053510Y10774662D01*
X-47053575Y10775312D01*
X-47040596Y10776600D01*
X-46992857Y10787769D01*
X-46983470Y10789728D01*
X-46935258Y10798581D01*
X-46922853Y10802590D01*
X-46922652Y10801969D01*
X-46903431Y10808693D01*
X-46865139Y10817652D01*
X-46853488Y10819647D01*
X-46787588Y10835785D01*
X-46785598Y10836262D01*
X-46719455Y10851739D01*
X-46708173Y10855234D01*
X-46632551Y10873753D01*
X-46619953Y10876051D01*
X-46555052Y10892719D01*
X-46552893Y10893261D01*
X-46487861Y10909188D01*
X-46475667Y10913110D01*
X-46397127Y10933283D01*
X-46385543Y10935524D01*
X-46319949Y10953095D01*
X-46317999Y10953607D01*
X-46305913Y10956711D01*
X-46252194Y10970509D01*
X-46241002Y10974243D01*
X-46198730Y10985566D01*
X-46188137Y10987726D01*
X-46121896Y11006141D01*
X-46120089Y11006634D01*
X-46053615Y11024441D01*
X-46043366Y11027972D01*
X-45999348Y11040209D01*
X-45988708Y11042483D01*
X-45922619Y11061531D01*
X-45920812Y11062043D01*
X-45854617Y11080446D01*
X-45844375Y11084083D01*
X-45798368Y11097344D01*
X-45777150Y11102202D01*
X-45720664Y11119700D01*
X-45716902Y11120825D01*
X-45660128Y11137190D01*
X-45639740Y11144770D01*
X-44938828Y11361907D01*
X-44918513Y11365916D01*
X-44918632Y11366444D01*
X-44905904Y11369291D01*
X-44860644Y11385861D01*
X-44851125Y11389076D01*
X-44805058Y11403348D01*
X-44793210Y11408801D01*
X-44792996Y11408337D01*
X-44776561Y11416499D01*
X-44776550Y11416503D01*
X-44762480Y11421794D01*
X-44760902Y11422380D01*
X-44695715Y11446247D01*
X-44686481Y11450379D01*
X-44632810Y11470565D01*
X-44618986Y11474852D01*
X-44557979Y11498693D01*
X-44555604Y11499604D01*
X-44494330Y11522650D01*
X-44481177Y11528706D01*
X-44427717Y11549598D01*
X-44413569Y11554189D01*
X-44410008Y11555634D01*
X-44410007Y11555635D01*
X-44392126Y11562895D01*
X-44353182Y11578709D01*
X-44350751Y11579677D01*
X-44290152Y11603359D01*
X-44276704Y11609765D01*
X-44223791Y11631252D01*
X-44209273Y11636178D01*
X-44149634Y11661345D01*
X-44147145Y11662375D01*
X-44087198Y11686720D01*
X-44073434Y11693503D01*
X-44021189Y11715551D01*
X-44006297Y11720835D01*
X-43947425Y11746660D01*
X-43944861Y11747764D01*
X-43888664Y11771480D01*
X-43888663Y11771480D01*
X-43885603Y11772772D01*
X-43871531Y11779951D01*
X-43820086Y11802517D01*
X-43804814Y11808182D01*
X-43746700Y11834684D01*
X-43744074Y11835859D01*
X-43685589Y11861514D01*
X-43671174Y11869130D01*
X-43621029Y11891999D01*
X-43602681Y11899290D01*
X-43594555Y11902060D01*
X-43555002Y11921630D01*
X-43545389Y11926387D01*
X-43539730Y11929077D01*
X-43517428Y11939247D01*
X-43489813Y11951842D01*
X-43482541Y11956389D01*
X-43465294Y11966016D01*
X-42786936Y12301656D01*
X-42755328Y12314063D01*
X-42749585Y12315767D01*
X-42749584Y12315768D01*
X-42720542Y12333589D01*
X-42704726Y12342331D01*
X-42674180Y12357446D01*
X-42663346Y12364706D01*
X-42663238Y12364545D01*
X-42647332Y12374961D01*
X-42648222Y12376352D01*
X-42587212Y12415366D01*
X-42584088Y12417324D01*
X-42532764Y12448819D01*
X-42516134Y12460820D01*
X-42478047Y12485176D01*
X-42460016Y12495424D01*
X-42455797Y12497538D01*
X-42408926Y12529295D01*
X-42404523Y12532194D01*
X-42356838Y12562689D01*
X-42353235Y12565724D01*
X-42336688Y12578241D01*
X-42268958Y12624131D01*
X-42251884Y12634489D01*
X-42245147Y12638126D01*
X-42200367Y12670496D01*
X-42195415Y12673962D01*
X-42149664Y12704961D01*
X-42143929Y12710057D01*
X-42128344Y12722561D01*
X-42065236Y12768179D01*
X-42048762Y12778890D01*
X-42041040Y12783384D01*
X-41997769Y12816823D01*
X-41992676Y12820631D01*
X-41948334Y12852686D01*
X-41941846Y12858814D01*
X-41926901Y12871591D01*
X-41868303Y12916875D01*
X-41852461Y12927932D01*
X-41843751Y12933402D01*
X-41802080Y12967910D01*
X-41802067Y12967920D01*
X-41802065Y12967921D01*
X-41796845Y12972098D01*
X-41754028Y13005187D01*
X-41746775Y13012490D01*
X-41732511Y13025519D01*
X-41670770Y13076647D01*
X-41648062Y13091971D01*
X-41641041Y13097052D01*
X-41618460Y13118400D01*
X-41609861Y13126529D01*
X-41600085Y13135182D01*
X-41567032Y13162554D01*
X-41561148Y13168893D01*
X-41543164Y13189587D01*
X-41042361Y13663056D01*
X-41029554Y13674170D01*
X-41001335Y13696623D01*
X-41001333Y13696625D01*
X-40998950Y13699847D01*
X-40975701Y13726079D01*
X-40972792Y13728829D01*
X-40972791Y13728830D01*
X-40964678Y13742014D01*
X-40955508Y13754253D01*
X-40955690Y13754379D01*
X-40917496Y13809770D01*
X-40913653Y13815149D01*
X-40881380Y13858777D01*
X-40876565Y13867466D01*
X-40866341Y13883962D01*
X-40834812Y13929690D01*
X-40821296Y13945445D01*
X-40821705Y13945779D01*
X-40813465Y13955891D01*
X-40788202Y13996838D01*
X-40782679Y14005301D01*
X-40755378Y14044898D01*
X-40749440Y14056510D01*
X-40748970Y14056270D01*
X-40739993Y14074978D01*
X-40709427Y14124522D01*
X-40696656Y14141055D01*
X-40697046Y14141341D01*
X-40689339Y14151869D01*
X-40666386Y14193778D01*
X-40661215Y14202667D01*
X-40636121Y14243343D01*
X-40630779Y14255245D01*
X-40630337Y14255046D01*
X-40622278Y14274319D01*
X-40594795Y14324503D01*
X-40582839Y14341766D01*
X-40583219Y14342015D01*
X-40576077Y14352926D01*
X-40555449Y14395780D01*
X-40550685Y14405047D01*
X-40527845Y14446755D01*
X-40523126Y14458917D01*
X-40522705Y14458753D01*
X-40515624Y14478519D01*
X-40491078Y14529515D01*
X-40480020Y14547429D01*
X-40480394Y14547647D01*
X-40473839Y14558919D01*
X-40455561Y14602663D01*
X-40451258Y14612242D01*
X-40430688Y14654978D01*
X-40426613Y14667370D01*
X-40426200Y14667234D01*
X-40420152Y14687404D01*
X-40399684Y14736390D01*
X-40390172Y14753608D01*
X-40390947Y14754015D01*
X-40384892Y14765561D01*
X-40367444Y14813057D01*
X-40364266Y14821154D01*
X-40344762Y14867831D01*
X-40342977Y14874414D01*
X-40336653Y14893752D01*
X-39895859Y16039748D01*
X-39893611Y16045338D01*
X-39391984Y17240204D01*
X-39389568Y17245724D01*
X-38851990Y18424872D01*
X-38849408Y18430316D01*
X-38276372Y19592660D01*
X-38273626Y19598023D01*
X-37665670Y20742475D01*
X-37662763Y20747752D01*
X-37020459Y21873240D01*
X-37017394Y21878428D01*
X-36341278Y22984006D01*
X-36338057Y22989098D01*
X-35628788Y24073689D01*
X-35625414Y24078681D01*
X-34920224Y25088887D01*
X-34854642Y25148406D01*
X-34769731Y25173575D01*
X-34682308Y25159411D01*
X-34609688Y25108717D01*
X-34576505Y25056350D01*
X-34576107Y25056554D01*
X-34573943Y25052308D01*
X-34573192Y25051122D01*
X-34572560Y25049597D01*
X-34572557Y25049588D01*
X-34476051Y24860184D01*
X-34390685Y24742688D01*
X-34351106Y24688210D01*
X-34200789Y24537893D01*
X-34138531Y24492661D01*
X-34028816Y24412949D01*
X-34028812Y24412947D01*
X-33839418Y24316445D01*
X-33839407Y24316441D01*
X-33637251Y24250756D01*
X-33637244Y24250754D01*
X-33637243Y24250754D01*
X-33637241Y24250753D01*
X-33637234Y24250752D01*
X-33427287Y24217500D01*
X-33214713Y24217500D01*
X-33004765Y24250752D01*
X-33004748Y24250756D01*
X-32802592Y24316441D01*
X-32802581Y24316445D01*
X-32613187Y24412947D01*
X-32441210Y24537893D01*
X-32290893Y24688210D01*
X-32165947Y24860187D01*
X-32069445Y25049581D01*
X-32069441Y25049592D01*
X-32003756Y25251748D01*
X-32003752Y25251765D01*
X-31970500Y25461713D01*
X-31970500Y25674286D01*
X-32003752Y25884234D01*
X-32003756Y25884251D01*
X-32069441Y26086407D01*
X-32069445Y26086418D01*
X-32165947Y26275812D01*
X-32165949Y26275816D01*
X-32231523Y26366071D01*
X-32290893Y26447789D01*
X-32441210Y26598106D01*
X-32495688Y26637685D01*
X-32613184Y26723051D01*
X-32704589Y26769624D01*
X-32802581Y26819554D01*
X-32802584Y26819555D01*
X-32802588Y26819557D01*
X-33004757Y26885246D01*
X-33154190Y26908914D01*
X-33236387Y26941886D01*
X-33296138Y27007256D01*
X-33321609Y27092077D01*
X-33307755Y27179550D01*
X-33275230Y27233703D01*
X-32459212Y28201995D01*
X-32455260Y28206543D01*
X-31590545Y29171740D01*
X-31586457Y29176167D01*
X-30692892Y30114770D01*
X-30688672Y30119070D01*
X-29767119Y31030174D01*
X-29762770Y31034345D01*
X-28814052Y31917134D01*
X-28809579Y31921171D01*
X-27834597Y32774810D01*
X-27830005Y32778710D01*
X-26829602Y33602462D01*
X-26824893Y33606221D01*
X-25799970Y34399340D01*
X-25795149Y34402955D01*
X-24746780Y35164612D01*
X-24741853Y35168080D01*
X-23670803Y35897718D01*
X-23665772Y35901034D01*
X-22573208Y36597859D01*
X-22568080Y36601022D01*
X-21454868Y37264483D01*
X-21449646Y37267489D01*
X-20316870Y37896937D01*
X-20311560Y37899783D01*
X-19160264Y38494640D01*
X-19154869Y38497325D01*
X-17986079Y39057061D01*
X-17980606Y39059581D01*
X-16795400Y39583679D01*
X-16789853Y39586032D01*
X-15589339Y40074001D01*
X-15583724Y40076185D01*
X-14368973Y40527591D01*
X-14363294Y40529604D01*
X-13135430Y40944030D01*
X-13129692Y40945870D01*
X-11889881Y41322920D01*
X-11884091Y41324586D01*
X-10633374Y41663946D01*
X-10627536Y41665435D01*
X-9367192Y41966757D01*
X-9361311Y41968070D01*
X-8092338Y42231116D01*
X-8086420Y42232249D01*
X-6810134Y42456743D01*
X-6804185Y42457697D01*
X-5521644Y42643458D01*
X-5515668Y42644231D01*
X-4228120Y42791074D01*
X-4222125Y42791666D01*
X-2930736Y42899462D01*
X-2924724Y42899873D01*
X-1630611Y42968525D01*
X-1624590Y42968753D01*
X-328999Y42998196D01*
X-322974Y42998241D01*
X972847Y42988447D01*
G37*
G04 #@! TD.AperFunction*
M02*
