%TF.GenerationSoftware,KiCad,Pcbnew,8.0.4*%
%TF.CreationDate,2025-02-16T16:38:44+11:00*%
%TF.ProjectId,LGS_FrontPCB,4c47535f-4672-46f6-9e74-5043422e6b69,rev?*%
%TF.SameCoordinates,Original*%
%TF.FileFunction,Drillmap*%
%TF.FilePolarity,Positive*%
%FSLAX45Y45*%
G04 Gerber Fmt 4.5, Leading zero omitted, Abs format (unit mm)*
G04 Created by KiCad (PCBNEW 8.0.4) date 2025-02-16 16:38:44*
%MOMM*%
%LPD*%
G01*
G04 APERTURE LIST*
%ADD10C,0.200000*%
%ADD11C,0.010050*%
%ADD12C,0.100000*%
G04 APERTURE END LIST*
D10*
X-5013843Y1100811D02*
X-4992852Y1099366D01*
X-4969511Y1098465D01*
X-4947003Y1098361D01*
X-4924076Y1098936D01*
X-4903745Y1099848D01*
X-4886157Y1100811D01*
X-4709046Y1127895D02*
X-4782993Y1114317D01*
X-4501611Y1186194D02*
X-4586219Y1159983D01*
X-4295520Y1277682D02*
X-4375745Y1237988D01*
X-4136452Y1404725D02*
X-4193700Y1350601D01*
X-4269855Y-847912D02*
X-4255878Y-900000D01*
X-4347625Y-728033D02*
X-4311716Y-774655D01*
X-4474727Y-625875D02*
X-4419907Y-664810D01*
X-4640212Y-549102D02*
X-4571181Y-577125D01*
X-4828813Y-506147D02*
X-4752781Y-519821D01*
X-5147220Y-519821D02*
X-5071187Y-506147D01*
X-5328819Y-577125D02*
X-5259788Y-549102D01*
X-5480093Y-664810D02*
X-5425273Y-625875D01*
X-5588284Y-774655D02*
X-5552375Y-728033D01*
X-5190954Y1127895D02*
X-5117007Y1114317D01*
X-5398389Y1186194D02*
X-5313781Y1159983D01*
X-5604480Y1277682D02*
X-5524255Y1237988D01*
X-5763548Y1404725D02*
X-5706300Y1350601D01*
X-5630145Y-847912D02*
X-5644122Y-900000D01*
X-4953923Y-500000D02*
X-4946077Y-500000D01*
X-4782993Y1114317D02*
X-4803112Y1111089D01*
X-4826124Y1107730D01*
X-4848649Y1104808D01*
X-4870696Y1102321D01*
X-4886157Y1100811D01*
X-4586219Y1159983D02*
X-4605810Y1154336D01*
X-4625274Y1148925D01*
X-4644598Y1143748D01*
X-4667579Y1137846D01*
X-4690311Y1132279D01*
X-4709046Y1127895D01*
X-4375745Y1237988D02*
X-4394977Y1229217D01*
X-4414397Y1220698D01*
X-4433986Y1212431D01*
X-4453727Y1204415D01*
X-4473600Y1196649D01*
X-4493588Y1189131D01*
X-4501611Y1186194D01*
X-4193700Y1350601D02*
X-4211222Y1336092D01*
X-4229495Y1321970D01*
X-4248496Y1308235D01*
X-4268199Y1294885D01*
X-4285137Y1284053D01*
X-4295520Y1277682D01*
X-4083197Y1500000D02*
X-4091024Y1481268D01*
X-4099848Y1462937D01*
X-4109667Y1445006D01*
X-4120483Y1427476D01*
X-4132294Y1410346D01*
X-4136452Y1404725D01*
X-5117007Y1114317D02*
X-5096888Y1111089D01*
X-5073876Y1107730D01*
X-5051351Y1104808D01*
X-5029304Y1102321D01*
X-5013843Y1100811D01*
X-5313781Y1159983D02*
X-5294190Y1154336D01*
X-5274726Y1148925D01*
X-5255402Y1143748D01*
X-5232421Y1137846D01*
X-5209689Y1132279D01*
X-5190954Y1127895D01*
X-5524255Y1237988D02*
X-5505023Y1229217D01*
X-5485603Y1220698D01*
X-5466014Y1212431D01*
X-5446273Y1204415D01*
X-5426400Y1196649D01*
X-5406412Y1189131D01*
X-5398389Y1186194D01*
X-5706300Y1350601D02*
X-5688778Y1336092D01*
X-5670505Y1321970D01*
X-5651504Y1308235D01*
X-5631801Y1294885D01*
X-5614863Y1284053D01*
X-5604480Y1277682D01*
X-5816803Y1500000D02*
X-5808976Y1481268D01*
X-5800152Y1462937D01*
X-5790332Y1445006D01*
X-5779517Y1427476D01*
X-5767706Y1410346D01*
X-5763548Y1404725D01*
X-6300000Y0D02*
G75*
G02*
X-13500000Y0I-3600000J0D01*
G01*
X-13500000Y0D02*
G75*
G02*
X-6300000Y0I3600000J0D01*
G01*
X-5644122Y-900000D02*
G75*
G02*
X-5816803Y1500000I-4255878J900000D01*
G01*
X-5588284Y-774655D02*
X-5600263Y-792564D01*
X-5611240Y-810748D01*
X-5621204Y-829200D01*
X-5630145Y-847912D01*
X-5480093Y-664810D02*
X-5497056Y-678103D01*
X-5513385Y-691704D01*
X-5529067Y-705605D01*
X-5544091Y-719796D01*
X-5552375Y-728033D01*
X-5328819Y-577125D02*
X-5347643Y-585594D01*
X-5366136Y-594380D01*
X-5384289Y-603476D01*
X-5402093Y-612876D01*
X-5422411Y-624221D01*
X-5425273Y-625875D01*
X-5147220Y-519821D02*
X-5168731Y-524465D01*
X-5190067Y-529503D01*
X-5211217Y-534933D01*
X-5232171Y-540750D01*
X-5252919Y-546950D01*
X-5259788Y-549102D01*
X-4953923Y-500000D02*
X-4975962Y-500252D01*
X-4997989Y-500920D01*
X-5019992Y-502003D01*
X-5041962Y-503502D01*
X-5063889Y-505417D01*
X-5071187Y-506147D01*
X-4311716Y-774655D02*
X-4299737Y-792564D01*
X-4288760Y-810748D01*
X-4278796Y-829200D01*
X-4269855Y-847912D01*
X-4419907Y-664810D02*
X-4402944Y-678103D01*
X-4386615Y-691704D01*
X-4370933Y-705605D01*
X-4355909Y-719796D01*
X-4347625Y-728033D01*
X-4571181Y-577125D02*
X-4552357Y-585594D01*
X-4533864Y-594380D01*
X-4515711Y-603476D01*
X-4497907Y-612876D01*
X-4477589Y-624221D01*
X-4474727Y-625875D01*
X-4752781Y-519821D02*
X-4731269Y-524465D01*
X-4709933Y-529503D01*
X-4688783Y-534933D01*
X-4667829Y-540750D01*
X-4647081Y-546950D01*
X-4640212Y-549102D01*
X-4946077Y-500000D02*
X-4924038Y-500252D01*
X-4902011Y-500920D01*
X-4880008Y-502003D01*
X-4858038Y-503502D01*
X-4836111Y-505417D01*
X-4828813Y-506147D01*
X-4083197Y1500000D02*
G75*
G02*
X-4255878Y-900000I4083197J-1500000D01*
G01*
X3600000Y0D02*
G75*
G02*
X-3600000Y0I-3600000J0D01*
G01*
X-3600000Y0D02*
G75*
G02*
X3600000Y0I3600000J0D01*
G01*
D11*
X502Y0D02*
G75*
G02*
X-502Y0I-502J0D01*
G01*
X-502Y0D02*
G75*
G02*
X502Y0I502J0D01*
G01*
X-9899498Y0D02*
G75*
G02*
X-9900503Y0I-503J0D01*
G01*
X-9900503Y0D02*
G75*
G02*
X-9899498Y0I503J0D01*
G01*
D10*
D12*
X-13944823Y107500D02*
X-13914823Y77500D01*
X-13914823Y107500D02*
X-13944823Y77500D01*
X-13928886Y-419382D02*
X-13898886Y-449382D01*
X-13898886Y-419382D02*
X-13928886Y-449382D01*
X-13897940Y631561D02*
X-13867940Y601561D01*
X-13867940Y631561D02*
X-13897940Y601561D01*
X-13829258Y-939939D02*
X-13799258Y-969939D01*
X-13799258Y-939939D02*
X-13829258Y-969939D01*
X-13787383Y1151933D02*
X-13757383Y1121933D01*
X-13757383Y1151933D02*
X-13787383Y1121933D01*
X-13669555Y-1440540D02*
X-13639555Y-1470540D01*
X-13639555Y-1440540D02*
X-13669555Y-1470540D01*
X-13600881Y1643950D02*
X-13570881Y1613950D01*
X-13570881Y1643950D02*
X-13600881Y1613950D01*
X-13457209Y-1925610D02*
X-13427209Y-1955610D01*
X-13427209Y-1925610D02*
X-13457209Y-1955610D01*
X-13362438Y2113237D02*
X-13332438Y2083237D01*
X-13332438Y2113237D02*
X-13362438Y2083237D01*
X-13170078Y-2374331D02*
X-13140078Y-2404331D01*
X-13140078Y-2374331D02*
X-13170078Y-2404331D01*
X-13058786Y2546015D02*
X-13028786Y2516015D01*
X-13028786Y2546015D02*
X-13058786Y2516015D01*
X-12829945Y-2772500D02*
X-12799945Y-2802500D01*
X-12799945Y-2772500D02*
X-12829945Y-2802500D01*
X-12704823Y2932619D02*
X-12674823Y2902619D01*
X-12674823Y2932619D02*
X-12704823Y2902619D01*
X-12010559Y-3430116D02*
X-11980559Y-3460116D01*
X-11980559Y-3430116D02*
X-12010559Y-3460116D01*
X-11853498Y3552445D02*
X-11823498Y3522445D01*
X-11823498Y3552445D02*
X-11853498Y3522445D01*
X-11539554Y-3664460D02*
X-11509554Y-3694460D01*
X-11509554Y-3664460D02*
X-11539554Y-3694460D01*
X-11377594Y3780272D02*
X-11347594Y3750272D01*
X-11347594Y3780272D02*
X-11377594Y3750272D01*
X-11049086Y-3850116D02*
X-11019086Y-3880116D01*
X-11019086Y-3850116D02*
X-11049086Y-3880116D01*
X-10872264Y3931933D02*
X-10842264Y3901933D01*
X-10842264Y3931933D02*
X-10872264Y3901933D01*
X-10528886Y-3965618D02*
X-10498886Y-3995618D01*
X-10498886Y-3965618D02*
X-10528886Y-3995618D01*
X-10346782Y4020894D02*
X-10316782Y3990894D01*
X-10316782Y4020894D02*
X-10346782Y3990894D01*
X-10008444Y-4016121D02*
X-9978444Y-4046121D01*
X-9978444Y-4016121D02*
X-10008444Y-4046121D01*
X-9826322Y4051121D02*
X-9796322Y4021121D01*
X-9796322Y4051121D02*
X-9826322Y4021121D01*
X-9477940Y-3986563D02*
X-9447940Y-4016563D01*
X-9447940Y-3986563D02*
X-9477940Y-4016563D01*
X-9294823Y4007500D02*
X-9264823Y3977500D01*
X-9264823Y4007500D02*
X-9294823Y3977500D01*
X-8954707Y-3906586D02*
X-8924707Y-3936586D01*
X-8924707Y-3906586D02*
X-8954707Y-3936586D01*
X-8784823Y3887500D02*
X-8754823Y3857500D01*
X-8754823Y3887500D02*
X-8784823Y3857500D01*
X-8456786Y-3737233D02*
X-8426786Y-3767233D01*
X-8426786Y-3737233D02*
X-8456786Y-3767233D01*
X-8284823Y3707500D02*
X-8254823Y3677500D01*
X-8254823Y3707500D02*
X-8284823Y3677500D01*
X-7976151Y-3517449D02*
X-7946151Y-3547449D01*
X-7946151Y-3517449D02*
X-7976151Y-3547449D01*
X-7819877Y3468825D02*
X-7789877Y3438825D01*
X-7789877Y3468825D02*
X-7819877Y3438825D01*
X-7531605Y-3236960D02*
X-7501605Y-3266960D01*
X-7501605Y-3236960D02*
X-7531605Y-3266960D01*
X-7393985Y3158786D02*
X-7363985Y3128786D01*
X-7363985Y3158786D02*
X-7393985Y3128786D01*
X-7125000Y-2900000D02*
X-7095000Y-2930000D01*
X-7095000Y-2900000D02*
X-7125000Y-2930000D01*
X-6994823Y2807500D02*
X-6964823Y2777500D01*
X-6964823Y2807500D02*
X-6994823Y2777500D01*
X-6473495Y-2077449D02*
X-6443495Y-2107449D01*
X-6443495Y-2077449D02*
X-6473495Y-2107449D01*
X-6379877Y1956177D02*
X-6349877Y1926177D01*
X-6349877Y1956177D02*
X-6379877Y1926177D01*
X-6222861Y-1607234D02*
X-6192861Y-1637234D01*
X-6192861Y-1607234D02*
X-6222861Y-1637234D01*
X-6154252Y1473833D02*
X-6124252Y1443833D01*
X-6124252Y1473833D02*
X-6154252Y1443833D01*
X-6044823Y-1112500D02*
X-6014823Y-1142500D01*
X-6014823Y-1112500D02*
X-6044823Y-1142500D01*
X-5994823Y967500D02*
X-5964823Y937500D01*
X-5964823Y967500D02*
X-5994823Y937500D01*
X-5934823Y-602500D02*
X-5904823Y-632500D01*
X-5904823Y-602500D02*
X-5934823Y-632500D01*
X-5903110Y451168D02*
X-5873110Y421168D01*
X-5873110Y451168D02*
X-5903110Y421168D01*
X-5884823Y-72500D02*
X-5854823Y-102500D01*
X-5854823Y-72500D02*
X-5884823Y-102500D01*
X-5475000Y-274775D02*
X-5445000Y-304775D01*
X-5445000Y-274775D02*
X-5475000Y-304775D01*
X-4415000Y245245D02*
X-4385000Y215245D01*
X-4385000Y245245D02*
X-4415000Y215245D01*
X-4045000Y105000D02*
X-4015000Y75000D01*
X-4015000Y105000D02*
X-4045000Y75000D01*
X-4029063Y-421882D02*
X-3999063Y-451882D01*
X-3999063Y-421882D02*
X-4029063Y-451882D01*
X-3998117Y629061D02*
X-3968117Y599061D01*
X-3968117Y629061D02*
X-3998117Y599061D01*
X-3929435Y-942439D02*
X-3899435Y-972439D01*
X-3899435Y-942439D02*
X-3929435Y-972439D01*
X-3887560Y1149434D02*
X-3857560Y1119434D01*
X-3857560Y1149434D02*
X-3887560Y1119434D01*
X-3805000Y205000D02*
X-3775000Y175000D01*
X-3775000Y205000D02*
X-3805000Y175000D01*
X-3769732Y-1443039D02*
X-3739732Y-1473039D01*
X-3739732Y-1443039D02*
X-3769732Y-1473039D01*
X-3701059Y1641450D02*
X-3671059Y1611450D01*
X-3671059Y1641450D02*
X-3701059Y1611450D01*
X-3557386Y-1928110D02*
X-3527386Y-1958110D01*
X-3527386Y-1928110D02*
X-3557386Y-1958110D01*
X-3462616Y2110737D02*
X-3432616Y2080737D01*
X-3432616Y2110737D02*
X-3462616Y2080737D01*
X-2930122Y-2775000D02*
X-2900122Y-2805000D01*
X-2900122Y-2775000D02*
X-2930122Y-2805000D01*
X-2805000Y2930119D02*
X-2775001Y2900119D01*
X-2775001Y2930119D02*
X-2805000Y2900119D01*
X-2540078Y-3125668D02*
X-2510078Y-3155668D01*
X-2510078Y-3125668D02*
X-2540078Y-3155668D01*
X-2404332Y3270076D02*
X-2374332Y3240076D01*
X-2374332Y3270076D02*
X-2404332Y3240076D01*
X-2110737Y-3432616D02*
X-2080736Y-3462616D01*
X-2080736Y-3432616D02*
X-2110737Y-3462616D01*
X-1953676Y3549945D02*
X-1923676Y3519945D01*
X-1923676Y3549945D02*
X-1953676Y3519945D01*
X-1639732Y-3666960D02*
X-1609732Y-3696960D01*
X-1609732Y-3666960D02*
X-1639732Y-3696960D01*
X-1477771Y3777772D02*
X-1447771Y3747772D01*
X-1447771Y3777772D02*
X-1477771Y3747772D01*
X-1149264Y-3852616D02*
X-1119264Y-3882616D01*
X-1119264Y-3852616D02*
X-1149264Y-3882616D01*
X-972441Y3929433D02*
X-942441Y3899433D01*
X-942441Y3929433D02*
X-972441Y3899433D01*
X-629063Y-3968118D02*
X-599063Y-3998118D01*
X-599063Y-3968118D02*
X-629063Y-3998118D01*
X-446960Y4018395D02*
X-416960Y3988395D01*
X-416960Y4018395D02*
X-446960Y3988395D01*
X-108621Y-4018621D02*
X-78622Y-4048621D01*
X-78622Y-4018621D02*
X-108621Y-4048621D01*
X73500Y4048621D02*
X103500Y4018621D01*
X103500Y4048621D02*
X73500Y4018621D01*
X421883Y-3989063D02*
X451883Y-4019063D01*
X451883Y-3989063D02*
X421883Y-4019063D01*
X605000Y4005000D02*
X635000Y3975000D01*
X635000Y4005000D02*
X605000Y3975000D01*
X945115Y-3909086D02*
X975115Y-3939086D01*
X975115Y-3909086D02*
X945115Y-3939086D01*
X1115000Y3885000D02*
X1145000Y3855000D01*
X1145000Y3885000D02*
X1115000Y3855000D01*
X1443036Y-3739733D02*
X1473036Y-3769733D01*
X1473036Y-3739733D02*
X1443036Y-3769733D01*
X1615000Y3705000D02*
X1645000Y3675000D01*
X1645000Y3705000D02*
X1615000Y3675000D01*
X1923671Y-3519949D02*
X1953671Y-3549949D01*
X1953671Y-3519949D02*
X1923671Y-3549949D01*
X2079945Y3466325D02*
X2109946Y3436325D01*
X2109946Y3466325D02*
X2079945Y3436325D01*
X2774823Y-2902500D02*
X2804823Y-2932500D01*
X2804823Y-2902500D02*
X2774823Y-2932500D01*
X2905000Y2805000D02*
X2935000Y2775000D01*
X2935000Y2805000D02*
X2905000Y2775000D01*
X3125000Y-2505000D02*
X3155000Y-2535000D01*
X3155000Y-2505000D02*
X3125000Y-2535000D01*
X3235000Y2395000D02*
X3265000Y2365000D01*
X3265000Y2395000D02*
X3235000Y2365000D01*
X3328500Y1645700D02*
X3358500Y1615700D01*
X3358500Y1645700D02*
X3328500Y1615700D01*
X3426327Y-2079949D02*
X3456327Y-2109949D01*
X3456327Y-2079949D02*
X3426327Y-2109949D01*
X3502300Y1226100D02*
X3532300Y1196100D01*
X3532300Y1226100D02*
X3502300Y1196100D01*
X3519946Y1953677D02*
X3549946Y1923677D01*
X3549946Y1953677D02*
X3519946Y1923677D01*
X3623700Y788400D02*
X3653700Y758400D01*
X3653700Y788400D02*
X3623700Y758400D01*
X3676962Y-1609733D02*
X3706962Y-1639733D01*
X3706962Y-1609733D02*
X3676962Y-1639733D01*
X3745571Y1471333D02*
X3775571Y1441333D01*
X3775571Y1471333D02*
X3745571Y1441333D01*
X3855000Y-1115000D02*
X3885000Y-1145000D01*
X3885000Y-1115000D02*
X3855000Y-1145000D01*
X3905000Y965000D02*
X3935000Y935000D01*
X3935000Y965000D02*
X3905000Y935000D01*
X3965000Y-605000D02*
X3995000Y-635000D01*
X3995000Y-605000D02*
X3965000Y-635000D01*
X3996712Y448668D02*
X4026712Y418668D01*
X4026712Y448668D02*
X3996712Y418668D01*
X4015000Y-75000D02*
X4045000Y-105000D01*
X4045000Y-75000D02*
X4015000Y-105000D01*
X3745000Y250000D02*
G75*
G02*
X3695000Y250000I-25000J0D01*
G01*
X3695000Y250000D02*
G75*
G02*
X3745000Y250000I25000J0D01*
G01*
X3955000Y770000D02*
G75*
G02*
X3905000Y770000I-25000J0D01*
G01*
X3905000Y770000D02*
G75*
G02*
X3955000Y770000I25000J0D01*
G01*
D10*
X-13999223Y-4671484D02*
X-13999223Y-4471484D01*
X-13999223Y-4471484D02*
X-13951604Y-4471484D01*
X-13951604Y-4471484D02*
X-13923033Y-4481008D01*
X-13923033Y-4481008D02*
X-13903985Y-4500055D01*
X-13903985Y-4500055D02*
X-13894461Y-4519103D01*
X-13894461Y-4519103D02*
X-13884937Y-4557198D01*
X-13884937Y-4557198D02*
X-13884937Y-4585770D01*
X-13884937Y-4585770D02*
X-13894461Y-4623865D01*
X-13894461Y-4623865D02*
X-13903985Y-4642912D01*
X-13903985Y-4642912D02*
X-13923033Y-4661960D01*
X-13923033Y-4661960D02*
X-13951604Y-4671484D01*
X-13951604Y-4671484D02*
X-13999223Y-4671484D01*
X-13799223Y-4671484D02*
X-13799223Y-4538150D01*
X-13799223Y-4576246D02*
X-13789699Y-4557198D01*
X-13789699Y-4557198D02*
X-13780175Y-4547674D01*
X-13780175Y-4547674D02*
X-13761128Y-4538150D01*
X-13761128Y-4538150D02*
X-13742080Y-4538150D01*
X-13675414Y-4671484D02*
X-13675414Y-4538150D01*
X-13675414Y-4471484D02*
X-13684937Y-4481008D01*
X-13684937Y-4481008D02*
X-13675414Y-4490531D01*
X-13675414Y-4490531D02*
X-13665890Y-4481008D01*
X-13665890Y-4481008D02*
X-13675414Y-4471484D01*
X-13675414Y-4471484D02*
X-13675414Y-4490531D01*
X-13551604Y-4671484D02*
X-13570652Y-4661960D01*
X-13570652Y-4661960D02*
X-13580175Y-4642912D01*
X-13580175Y-4642912D02*
X-13580175Y-4471484D01*
X-13446842Y-4671484D02*
X-13465890Y-4661960D01*
X-13465890Y-4661960D02*
X-13475414Y-4642912D01*
X-13475414Y-4642912D02*
X-13475414Y-4471484D01*
X-13218271Y-4671484D02*
X-13218271Y-4471484D01*
X-13218271Y-4471484D02*
X-13151604Y-4614341D01*
X-13151604Y-4614341D02*
X-13084937Y-4471484D01*
X-13084937Y-4471484D02*
X-13084937Y-4671484D01*
X-12903985Y-4671484D02*
X-12903985Y-4566722D01*
X-12903985Y-4566722D02*
X-12913509Y-4547674D01*
X-12913509Y-4547674D02*
X-12932556Y-4538150D01*
X-12932556Y-4538150D02*
X-12970652Y-4538150D01*
X-12970652Y-4538150D02*
X-12989699Y-4547674D01*
X-12903985Y-4661960D02*
X-12923033Y-4671484D01*
X-12923033Y-4671484D02*
X-12970652Y-4671484D01*
X-12970652Y-4671484D02*
X-12989699Y-4661960D01*
X-12989699Y-4661960D02*
X-12999223Y-4642912D01*
X-12999223Y-4642912D02*
X-12999223Y-4623865D01*
X-12999223Y-4623865D02*
X-12989699Y-4604817D01*
X-12989699Y-4604817D02*
X-12970652Y-4595293D01*
X-12970652Y-4595293D02*
X-12923033Y-4595293D01*
X-12923033Y-4595293D02*
X-12903985Y-4585770D01*
X-12808747Y-4538150D02*
X-12808747Y-4738150D01*
X-12808747Y-4547674D02*
X-12789699Y-4538150D01*
X-12789699Y-4538150D02*
X-12751604Y-4538150D01*
X-12751604Y-4538150D02*
X-12732556Y-4547674D01*
X-12732556Y-4547674D02*
X-12723033Y-4557198D01*
X-12723033Y-4557198D02*
X-12713509Y-4576246D01*
X-12713509Y-4576246D02*
X-12713509Y-4633389D01*
X-12713509Y-4633389D02*
X-12723033Y-4652436D01*
X-12723033Y-4652436D02*
X-12732556Y-4661960D01*
X-12732556Y-4661960D02*
X-12751604Y-4671484D01*
X-12751604Y-4671484D02*
X-12789699Y-4671484D01*
X-12789699Y-4671484D02*
X-12808747Y-4661960D01*
X-12627794Y-4652436D02*
X-12618271Y-4661960D01*
X-12618271Y-4661960D02*
X-12627794Y-4671484D01*
X-12627794Y-4671484D02*
X-12637318Y-4661960D01*
X-12637318Y-4661960D02*
X-12627794Y-4652436D01*
X-12627794Y-4652436D02*
X-12627794Y-4671484D01*
X-12627794Y-4547674D02*
X-12618271Y-4557198D01*
X-12618271Y-4557198D02*
X-12627794Y-4566722D01*
X-12627794Y-4566722D02*
X-12637318Y-4557198D01*
X-12637318Y-4557198D02*
X-12627794Y-4547674D01*
X-12627794Y-4547674D02*
X-12627794Y-4566722D01*
D12*
X-14290000Y-4985000D02*
X-14260000Y-5015000D01*
X-14260000Y-4985000D02*
X-14290000Y-5015000D01*
D10*
X-13961128Y-4891484D02*
X-13942080Y-4891484D01*
X-13942080Y-4891484D02*
X-13923033Y-4901008D01*
X-13923033Y-4901008D02*
X-13913509Y-4910531D01*
X-13913509Y-4910531D02*
X-13903985Y-4929579D01*
X-13903985Y-4929579D02*
X-13894461Y-4967674D01*
X-13894461Y-4967674D02*
X-13894461Y-5015293D01*
X-13894461Y-5015293D02*
X-13903985Y-5053389D01*
X-13903985Y-5053389D02*
X-13913509Y-5072436D01*
X-13913509Y-5072436D02*
X-13923033Y-5081960D01*
X-13923033Y-5081960D02*
X-13942080Y-5091484D01*
X-13942080Y-5091484D02*
X-13961128Y-5091484D01*
X-13961128Y-5091484D02*
X-13980175Y-5081960D01*
X-13980175Y-5081960D02*
X-13989699Y-5072436D01*
X-13989699Y-5072436D02*
X-13999223Y-5053389D01*
X-13999223Y-5053389D02*
X-14008747Y-5015293D01*
X-14008747Y-5015293D02*
X-14008747Y-4967674D01*
X-14008747Y-4967674D02*
X-13999223Y-4929579D01*
X-13999223Y-4929579D02*
X-13989699Y-4910531D01*
X-13989699Y-4910531D02*
X-13980175Y-4901008D01*
X-13980175Y-4901008D02*
X-13961128Y-4891484D01*
X-13808747Y-5072436D02*
X-13799223Y-5081960D01*
X-13799223Y-5081960D02*
X-13808747Y-5091484D01*
X-13808747Y-5091484D02*
X-13818271Y-5081960D01*
X-13818271Y-5081960D02*
X-13808747Y-5072436D01*
X-13808747Y-5072436D02*
X-13808747Y-5091484D01*
X-13732556Y-4891484D02*
X-13608747Y-4891484D01*
X-13608747Y-4891484D02*
X-13675414Y-4967674D01*
X-13675414Y-4967674D02*
X-13646842Y-4967674D01*
X-13646842Y-4967674D02*
X-13627794Y-4977198D01*
X-13627794Y-4977198D02*
X-13618271Y-4986722D01*
X-13618271Y-4986722D02*
X-13608747Y-5005770D01*
X-13608747Y-5005770D02*
X-13608747Y-5053389D01*
X-13608747Y-5053389D02*
X-13618271Y-5072436D01*
X-13618271Y-5072436D02*
X-13627794Y-5081960D01*
X-13627794Y-5081960D02*
X-13646842Y-5091484D01*
X-13646842Y-5091484D02*
X-13703985Y-5091484D01*
X-13703985Y-5091484D02*
X-13723033Y-5081960D01*
X-13723033Y-5081960D02*
X-13732556Y-5072436D01*
X-13484937Y-4891484D02*
X-13465890Y-4891484D01*
X-13465890Y-4891484D02*
X-13446842Y-4901008D01*
X-13446842Y-4901008D02*
X-13437318Y-4910531D01*
X-13437318Y-4910531D02*
X-13427794Y-4929579D01*
X-13427794Y-4929579D02*
X-13418271Y-4967674D01*
X-13418271Y-4967674D02*
X-13418271Y-5015293D01*
X-13418271Y-5015293D02*
X-13427794Y-5053389D01*
X-13427794Y-5053389D02*
X-13437318Y-5072436D01*
X-13437318Y-5072436D02*
X-13446842Y-5081960D01*
X-13446842Y-5081960D02*
X-13465890Y-5091484D01*
X-13465890Y-5091484D02*
X-13484937Y-5091484D01*
X-13484937Y-5091484D02*
X-13503985Y-5081960D01*
X-13503985Y-5081960D02*
X-13513509Y-5072436D01*
X-13513509Y-5072436D02*
X-13523033Y-5053389D01*
X-13523033Y-5053389D02*
X-13532556Y-5015293D01*
X-13532556Y-5015293D02*
X-13532556Y-4967674D01*
X-13532556Y-4967674D02*
X-13523033Y-4929579D01*
X-13523033Y-4929579D02*
X-13513509Y-4910531D01*
X-13513509Y-4910531D02*
X-13503985Y-4901008D01*
X-13503985Y-4901008D02*
X-13484937Y-4891484D01*
X-13294461Y-4891484D02*
X-13275413Y-4891484D01*
X-13275413Y-4891484D02*
X-13256366Y-4901008D01*
X-13256366Y-4901008D02*
X-13246842Y-4910531D01*
X-13246842Y-4910531D02*
X-13237318Y-4929579D01*
X-13237318Y-4929579D02*
X-13227794Y-4967674D01*
X-13227794Y-4967674D02*
X-13227794Y-5015293D01*
X-13227794Y-5015293D02*
X-13237318Y-5053389D01*
X-13237318Y-5053389D02*
X-13246842Y-5072436D01*
X-13246842Y-5072436D02*
X-13256366Y-5081960D01*
X-13256366Y-5081960D02*
X-13275413Y-5091484D01*
X-13275413Y-5091484D02*
X-13294461Y-5091484D01*
X-13294461Y-5091484D02*
X-13313509Y-5081960D01*
X-13313509Y-5081960D02*
X-13323033Y-5072436D01*
X-13323033Y-5072436D02*
X-13332556Y-5053389D01*
X-13332556Y-5053389D02*
X-13342080Y-5015293D01*
X-13342080Y-5015293D02*
X-13342080Y-4967674D01*
X-13342080Y-4967674D02*
X-13332556Y-4929579D01*
X-13332556Y-4929579D02*
X-13323033Y-4910531D01*
X-13323033Y-4910531D02*
X-13313509Y-4901008D01*
X-13313509Y-4901008D02*
X-13294461Y-4891484D01*
X-13142080Y-5091484D02*
X-13142080Y-4958150D01*
X-13142080Y-4977198D02*
X-13132556Y-4967674D01*
X-13132556Y-4967674D02*
X-13113509Y-4958150D01*
X-13113509Y-4958150D02*
X-13084937Y-4958150D01*
X-13084937Y-4958150D02*
X-13065890Y-4967674D01*
X-13065890Y-4967674D02*
X-13056366Y-4986722D01*
X-13056366Y-4986722D02*
X-13056366Y-5091484D01*
X-13056366Y-4986722D02*
X-13046842Y-4967674D01*
X-13046842Y-4967674D02*
X-13027794Y-4958150D01*
X-13027794Y-4958150D02*
X-12999223Y-4958150D01*
X-12999223Y-4958150D02*
X-12980175Y-4967674D01*
X-12980175Y-4967674D02*
X-12970652Y-4986722D01*
X-12970652Y-4986722D02*
X-12970652Y-5091484D01*
X-12875413Y-5091484D02*
X-12875413Y-4958150D01*
X-12875413Y-4977198D02*
X-12865890Y-4967674D01*
X-12865890Y-4967674D02*
X-12846842Y-4958150D01*
X-12846842Y-4958150D02*
X-12818271Y-4958150D01*
X-12818271Y-4958150D02*
X-12799223Y-4967674D01*
X-12799223Y-4967674D02*
X-12789699Y-4986722D01*
X-12789699Y-4986722D02*
X-12789699Y-5091484D01*
X-12789699Y-4986722D02*
X-12780175Y-4967674D01*
X-12780175Y-4967674D02*
X-12761128Y-4958150D01*
X-12761128Y-4958150D02*
X-12732556Y-4958150D01*
X-12732556Y-4958150D02*
X-12713509Y-4967674D01*
X-12713509Y-4967674D02*
X-12703985Y-4986722D01*
X-12703985Y-4986722D02*
X-12703985Y-5091484D01*
X-12313509Y-4881960D02*
X-12484937Y-5139103D01*
X-12056366Y-4891484D02*
X-12037318Y-4891484D01*
X-12037318Y-4891484D02*
X-12018270Y-4901008D01*
X-12018270Y-4901008D02*
X-12008747Y-4910531D01*
X-12008747Y-4910531D02*
X-11999223Y-4929579D01*
X-11999223Y-4929579D02*
X-11989699Y-4967674D01*
X-11989699Y-4967674D02*
X-11989699Y-5015293D01*
X-11989699Y-5015293D02*
X-11999223Y-5053389D01*
X-11999223Y-5053389D02*
X-12008747Y-5072436D01*
X-12008747Y-5072436D02*
X-12018270Y-5081960D01*
X-12018270Y-5081960D02*
X-12037318Y-5091484D01*
X-12037318Y-5091484D02*
X-12056366Y-5091484D01*
X-12056366Y-5091484D02*
X-12075413Y-5081960D01*
X-12075413Y-5081960D02*
X-12084937Y-5072436D01*
X-12084937Y-5072436D02*
X-12094461Y-5053389D01*
X-12094461Y-5053389D02*
X-12103985Y-5015293D01*
X-12103985Y-5015293D02*
X-12103985Y-4967674D01*
X-12103985Y-4967674D02*
X-12094461Y-4929579D01*
X-12094461Y-4929579D02*
X-12084937Y-4910531D01*
X-12084937Y-4910531D02*
X-12075413Y-4901008D01*
X-12075413Y-4901008D02*
X-12056366Y-4891484D01*
X-11903985Y-5072436D02*
X-11894461Y-5081960D01*
X-11894461Y-5081960D02*
X-11903985Y-5091484D01*
X-11903985Y-5091484D02*
X-11913509Y-5081960D01*
X-11913509Y-5081960D02*
X-11903985Y-5072436D01*
X-11903985Y-5072436D02*
X-11903985Y-5091484D01*
X-11770651Y-4891484D02*
X-11751604Y-4891484D01*
X-11751604Y-4891484D02*
X-11732556Y-4901008D01*
X-11732556Y-4901008D02*
X-11723032Y-4910531D01*
X-11723032Y-4910531D02*
X-11713509Y-4929579D01*
X-11713509Y-4929579D02*
X-11703985Y-4967674D01*
X-11703985Y-4967674D02*
X-11703985Y-5015293D01*
X-11703985Y-5015293D02*
X-11713509Y-5053389D01*
X-11713509Y-5053389D02*
X-11723032Y-5072436D01*
X-11723032Y-5072436D02*
X-11732556Y-5081960D01*
X-11732556Y-5081960D02*
X-11751604Y-5091484D01*
X-11751604Y-5091484D02*
X-11770651Y-5091484D01*
X-11770651Y-5091484D02*
X-11789699Y-5081960D01*
X-11789699Y-5081960D02*
X-11799223Y-5072436D01*
X-11799223Y-5072436D02*
X-11808747Y-5053389D01*
X-11808747Y-5053389D02*
X-11818270Y-5015293D01*
X-11818270Y-5015293D02*
X-11818270Y-4967674D01*
X-11818270Y-4967674D02*
X-11808747Y-4929579D01*
X-11808747Y-4929579D02*
X-11799223Y-4910531D01*
X-11799223Y-4910531D02*
X-11789699Y-4901008D01*
X-11789699Y-4901008D02*
X-11770651Y-4891484D01*
X-11513509Y-5091484D02*
X-11627794Y-5091484D01*
X-11570651Y-5091484D02*
X-11570651Y-4891484D01*
X-11570651Y-4891484D02*
X-11589699Y-4920055D01*
X-11589699Y-4920055D02*
X-11608747Y-4939103D01*
X-11608747Y-4939103D02*
X-11627794Y-4948627D01*
X-11323032Y-5091484D02*
X-11437318Y-5091484D01*
X-11380175Y-5091484D02*
X-11380175Y-4891484D01*
X-11380175Y-4891484D02*
X-11399223Y-4920055D01*
X-11399223Y-4920055D02*
X-11418270Y-4939103D01*
X-11418270Y-4939103D02*
X-11437318Y-4948627D01*
X-11208747Y-4977198D02*
X-11227794Y-4967674D01*
X-11227794Y-4967674D02*
X-11237318Y-4958150D01*
X-11237318Y-4958150D02*
X-11246842Y-4939103D01*
X-11246842Y-4939103D02*
X-11246842Y-4929579D01*
X-11246842Y-4929579D02*
X-11237318Y-4910531D01*
X-11237318Y-4910531D02*
X-11227794Y-4901008D01*
X-11227794Y-4901008D02*
X-11208747Y-4891484D01*
X-11208747Y-4891484D02*
X-11170651Y-4891484D01*
X-11170651Y-4891484D02*
X-11151604Y-4901008D01*
X-11151604Y-4901008D02*
X-11142080Y-4910531D01*
X-11142080Y-4910531D02*
X-11132556Y-4929579D01*
X-11132556Y-4929579D02*
X-11132556Y-4939103D01*
X-11132556Y-4939103D02*
X-11142080Y-4958150D01*
X-11142080Y-4958150D02*
X-11151604Y-4967674D01*
X-11151604Y-4967674D02*
X-11170651Y-4977198D01*
X-11170651Y-4977198D02*
X-11208747Y-4977198D01*
X-11208747Y-4977198D02*
X-11227794Y-4986722D01*
X-11227794Y-4986722D02*
X-11237318Y-4996246D01*
X-11237318Y-4996246D02*
X-11246842Y-5015293D01*
X-11246842Y-5015293D02*
X-11246842Y-5053389D01*
X-11246842Y-5053389D02*
X-11237318Y-5072436D01*
X-11237318Y-5072436D02*
X-11227794Y-5081960D01*
X-11227794Y-5081960D02*
X-11208747Y-5091484D01*
X-11208747Y-5091484D02*
X-11170651Y-5091484D01*
X-11170651Y-5091484D02*
X-11151604Y-5081960D01*
X-11151604Y-5081960D02*
X-11142080Y-5072436D01*
X-11142080Y-5072436D02*
X-11132556Y-5053389D01*
X-11132556Y-5053389D02*
X-11132556Y-5015293D01*
X-11132556Y-5015293D02*
X-11142080Y-4996246D01*
X-11142080Y-4996246D02*
X-11151604Y-4986722D01*
X-11151604Y-4986722D02*
X-11170651Y-4977198D01*
X-11056366Y-4891484D02*
X-11056366Y-4929579D01*
X-10980175Y-4891484D02*
X-10980175Y-4929579D01*
X-10684937Y-5167674D02*
X-10694461Y-5158150D01*
X-10694461Y-5158150D02*
X-10713509Y-5129579D01*
X-10713509Y-5129579D02*
X-10723032Y-5110531D01*
X-10723032Y-5110531D02*
X-10732556Y-5081960D01*
X-10732556Y-5081960D02*
X-10742080Y-5034341D01*
X-10742080Y-5034341D02*
X-10742080Y-4996246D01*
X-10742080Y-4996246D02*
X-10732556Y-4948627D01*
X-10732556Y-4948627D02*
X-10723032Y-4920055D01*
X-10723032Y-4920055D02*
X-10713509Y-4901008D01*
X-10713509Y-4901008D02*
X-10694461Y-4872436D01*
X-10694461Y-4872436D02*
X-10684937Y-4862912D01*
X-10599223Y-5091484D02*
X-10561128Y-5091484D01*
X-10561128Y-5091484D02*
X-10542080Y-5081960D01*
X-10542080Y-5081960D02*
X-10532556Y-5072436D01*
X-10532556Y-5072436D02*
X-10513509Y-5043865D01*
X-10513509Y-5043865D02*
X-10503985Y-5005770D01*
X-10503985Y-5005770D02*
X-10503985Y-4929579D01*
X-10503985Y-4929579D02*
X-10513509Y-4910531D01*
X-10513509Y-4910531D02*
X-10523032Y-4901008D01*
X-10523032Y-4901008D02*
X-10542080Y-4891484D01*
X-10542080Y-4891484D02*
X-10580175Y-4891484D01*
X-10580175Y-4891484D02*
X-10599223Y-4901008D01*
X-10599223Y-4901008D02*
X-10608747Y-4910531D01*
X-10608747Y-4910531D02*
X-10618270Y-4929579D01*
X-10618270Y-4929579D02*
X-10618270Y-4977198D01*
X-10618270Y-4977198D02*
X-10608747Y-4996246D01*
X-10608747Y-4996246D02*
X-10599223Y-5005770D01*
X-10599223Y-5005770D02*
X-10580175Y-5015293D01*
X-10580175Y-5015293D02*
X-10542080Y-5015293D01*
X-10542080Y-5015293D02*
X-10523032Y-5005770D01*
X-10523032Y-5005770D02*
X-10513509Y-4996246D01*
X-10513509Y-4996246D02*
X-10503985Y-4977198D01*
X-10332556Y-4958150D02*
X-10332556Y-5091484D01*
X-10380175Y-4881960D02*
X-10427794Y-5024817D01*
X-10427794Y-5024817D02*
X-10303985Y-5024817D01*
X-10075413Y-5091484D02*
X-10075413Y-4891484D01*
X-9989699Y-5091484D02*
X-9989699Y-4986722D01*
X-9989699Y-4986722D02*
X-9999223Y-4967674D01*
X-9999223Y-4967674D02*
X-10018270Y-4958150D01*
X-10018270Y-4958150D02*
X-10046842Y-4958150D01*
X-10046842Y-4958150D02*
X-10065889Y-4967674D01*
X-10065889Y-4967674D02*
X-10075413Y-4977198D01*
X-9865889Y-5091484D02*
X-9884937Y-5081960D01*
X-9884937Y-5081960D02*
X-9894461Y-5072436D01*
X-9894461Y-5072436D02*
X-9903985Y-5053389D01*
X-9903985Y-5053389D02*
X-9903985Y-4996246D01*
X-9903985Y-4996246D02*
X-9894461Y-4977198D01*
X-9894461Y-4977198D02*
X-9884937Y-4967674D01*
X-9884937Y-4967674D02*
X-9865889Y-4958150D01*
X-9865889Y-4958150D02*
X-9837318Y-4958150D01*
X-9837318Y-4958150D02*
X-9818270Y-4967674D01*
X-9818270Y-4967674D02*
X-9808747Y-4977198D01*
X-9808747Y-4977198D02*
X-9799223Y-4996246D01*
X-9799223Y-4996246D02*
X-9799223Y-5053389D01*
X-9799223Y-5053389D02*
X-9808747Y-5072436D01*
X-9808747Y-5072436D02*
X-9818270Y-5081960D01*
X-9818270Y-5081960D02*
X-9837318Y-5091484D01*
X-9837318Y-5091484D02*
X-9865889Y-5091484D01*
X-9684937Y-5091484D02*
X-9703985Y-5081960D01*
X-9703985Y-5081960D02*
X-9713508Y-5062912D01*
X-9713508Y-5062912D02*
X-9713508Y-4891484D01*
X-9532556Y-5081960D02*
X-9551604Y-5091484D01*
X-9551604Y-5091484D02*
X-9589699Y-5091484D01*
X-9589699Y-5091484D02*
X-9608747Y-5081960D01*
X-9608747Y-5081960D02*
X-9618270Y-5062912D01*
X-9618270Y-5062912D02*
X-9618270Y-4986722D01*
X-9618270Y-4986722D02*
X-9608747Y-4967674D01*
X-9608747Y-4967674D02*
X-9589699Y-4958150D01*
X-9589699Y-4958150D02*
X-9551604Y-4958150D01*
X-9551604Y-4958150D02*
X-9532556Y-4967674D01*
X-9532556Y-4967674D02*
X-9523032Y-4986722D01*
X-9523032Y-4986722D02*
X-9523032Y-5005770D01*
X-9523032Y-5005770D02*
X-9618270Y-5024817D01*
X-9446842Y-5081960D02*
X-9427794Y-5091484D01*
X-9427794Y-5091484D02*
X-9389699Y-5091484D01*
X-9389699Y-5091484D02*
X-9370651Y-5081960D01*
X-9370651Y-5081960D02*
X-9361127Y-5062912D01*
X-9361127Y-5062912D02*
X-9361127Y-5053389D01*
X-9361127Y-5053389D02*
X-9370651Y-5034341D01*
X-9370651Y-5034341D02*
X-9389699Y-5024817D01*
X-9389699Y-5024817D02*
X-9418270Y-5024817D01*
X-9418270Y-5024817D02*
X-9437318Y-5015293D01*
X-9437318Y-5015293D02*
X-9446842Y-4996246D01*
X-9446842Y-4996246D02*
X-9446842Y-4986722D01*
X-9446842Y-4986722D02*
X-9437318Y-4967674D01*
X-9437318Y-4967674D02*
X-9418270Y-4958150D01*
X-9418270Y-4958150D02*
X-9389699Y-4958150D01*
X-9389699Y-4958150D02*
X-9370651Y-4967674D01*
X-9294461Y-5167674D02*
X-9284937Y-5158150D01*
X-9284937Y-5158150D02*
X-9265889Y-5129579D01*
X-9265889Y-5129579D02*
X-9256366Y-5110531D01*
X-9256366Y-5110531D02*
X-9246842Y-5081960D01*
X-9246842Y-5081960D02*
X-9237318Y-5034341D01*
X-9237318Y-5034341D02*
X-9237318Y-4996246D01*
X-9237318Y-4996246D02*
X-9246842Y-4948627D01*
X-9246842Y-4948627D02*
X-9256366Y-4920055D01*
X-9256366Y-4920055D02*
X-9265889Y-4901008D01*
X-9265889Y-4901008D02*
X-9284937Y-4872436D01*
X-9284937Y-4872436D02*
X-9294461Y-4862912D01*
D12*
X-14260000Y-5264000D02*
G75*
G02*
X-14310000Y-5264000I-25000J0D01*
G01*
X-14310000Y-5264000D02*
G75*
G02*
X-14260000Y-5264000I25000J0D01*
G01*
D10*
X-13961128Y-5155484D02*
X-13942080Y-5155484D01*
X-13942080Y-5155484D02*
X-13923033Y-5165008D01*
X-13923033Y-5165008D02*
X-13913509Y-5174531D01*
X-13913509Y-5174531D02*
X-13903985Y-5193579D01*
X-13903985Y-5193579D02*
X-13894461Y-5231674D01*
X-13894461Y-5231674D02*
X-13894461Y-5279293D01*
X-13894461Y-5279293D02*
X-13903985Y-5317389D01*
X-13903985Y-5317389D02*
X-13913509Y-5336436D01*
X-13913509Y-5336436D02*
X-13923033Y-5345960D01*
X-13923033Y-5345960D02*
X-13942080Y-5355484D01*
X-13942080Y-5355484D02*
X-13961128Y-5355484D01*
X-13961128Y-5355484D02*
X-13980175Y-5345960D01*
X-13980175Y-5345960D02*
X-13989699Y-5336436D01*
X-13989699Y-5336436D02*
X-13999223Y-5317389D01*
X-13999223Y-5317389D02*
X-14008747Y-5279293D01*
X-14008747Y-5279293D02*
X-14008747Y-5231674D01*
X-14008747Y-5231674D02*
X-13999223Y-5193579D01*
X-13999223Y-5193579D02*
X-13989699Y-5174531D01*
X-13989699Y-5174531D02*
X-13980175Y-5165008D01*
X-13980175Y-5165008D02*
X-13961128Y-5155484D01*
X-13808747Y-5336436D02*
X-13799223Y-5345960D01*
X-13799223Y-5345960D02*
X-13808747Y-5355484D01*
X-13808747Y-5355484D02*
X-13818271Y-5345960D01*
X-13818271Y-5345960D02*
X-13808747Y-5336436D01*
X-13808747Y-5336436D02*
X-13808747Y-5355484D01*
X-13618271Y-5155484D02*
X-13713509Y-5155484D01*
X-13713509Y-5155484D02*
X-13723033Y-5250722D01*
X-13723033Y-5250722D02*
X-13713509Y-5241198D01*
X-13713509Y-5241198D02*
X-13694461Y-5231674D01*
X-13694461Y-5231674D02*
X-13646842Y-5231674D01*
X-13646842Y-5231674D02*
X-13627794Y-5241198D01*
X-13627794Y-5241198D02*
X-13618271Y-5250722D01*
X-13618271Y-5250722D02*
X-13608747Y-5269770D01*
X-13608747Y-5269770D02*
X-13608747Y-5317389D01*
X-13608747Y-5317389D02*
X-13618271Y-5336436D01*
X-13618271Y-5336436D02*
X-13627794Y-5345960D01*
X-13627794Y-5345960D02*
X-13646842Y-5355484D01*
X-13646842Y-5355484D02*
X-13694461Y-5355484D01*
X-13694461Y-5355484D02*
X-13713509Y-5345960D01*
X-13713509Y-5345960D02*
X-13723033Y-5336436D01*
X-13484937Y-5155484D02*
X-13465890Y-5155484D01*
X-13465890Y-5155484D02*
X-13446842Y-5165008D01*
X-13446842Y-5165008D02*
X-13437318Y-5174531D01*
X-13437318Y-5174531D02*
X-13427794Y-5193579D01*
X-13427794Y-5193579D02*
X-13418271Y-5231674D01*
X-13418271Y-5231674D02*
X-13418271Y-5279293D01*
X-13418271Y-5279293D02*
X-13427794Y-5317389D01*
X-13427794Y-5317389D02*
X-13437318Y-5336436D01*
X-13437318Y-5336436D02*
X-13446842Y-5345960D01*
X-13446842Y-5345960D02*
X-13465890Y-5355484D01*
X-13465890Y-5355484D02*
X-13484937Y-5355484D01*
X-13484937Y-5355484D02*
X-13503985Y-5345960D01*
X-13503985Y-5345960D02*
X-13513509Y-5336436D01*
X-13513509Y-5336436D02*
X-13523033Y-5317389D01*
X-13523033Y-5317389D02*
X-13532556Y-5279293D01*
X-13532556Y-5279293D02*
X-13532556Y-5231674D01*
X-13532556Y-5231674D02*
X-13523033Y-5193579D01*
X-13523033Y-5193579D02*
X-13513509Y-5174531D01*
X-13513509Y-5174531D02*
X-13503985Y-5165008D01*
X-13503985Y-5165008D02*
X-13484937Y-5155484D01*
X-13294461Y-5155484D02*
X-13275413Y-5155484D01*
X-13275413Y-5155484D02*
X-13256366Y-5165008D01*
X-13256366Y-5165008D02*
X-13246842Y-5174531D01*
X-13246842Y-5174531D02*
X-13237318Y-5193579D01*
X-13237318Y-5193579D02*
X-13227794Y-5231674D01*
X-13227794Y-5231674D02*
X-13227794Y-5279293D01*
X-13227794Y-5279293D02*
X-13237318Y-5317389D01*
X-13237318Y-5317389D02*
X-13246842Y-5336436D01*
X-13246842Y-5336436D02*
X-13256366Y-5345960D01*
X-13256366Y-5345960D02*
X-13275413Y-5355484D01*
X-13275413Y-5355484D02*
X-13294461Y-5355484D01*
X-13294461Y-5355484D02*
X-13313509Y-5345960D01*
X-13313509Y-5345960D02*
X-13323033Y-5336436D01*
X-13323033Y-5336436D02*
X-13332556Y-5317389D01*
X-13332556Y-5317389D02*
X-13342080Y-5279293D01*
X-13342080Y-5279293D02*
X-13342080Y-5231674D01*
X-13342080Y-5231674D02*
X-13332556Y-5193579D01*
X-13332556Y-5193579D02*
X-13323033Y-5174531D01*
X-13323033Y-5174531D02*
X-13313509Y-5165008D01*
X-13313509Y-5165008D02*
X-13294461Y-5155484D01*
X-13142080Y-5355484D02*
X-13142080Y-5222150D01*
X-13142080Y-5241198D02*
X-13132556Y-5231674D01*
X-13132556Y-5231674D02*
X-13113509Y-5222150D01*
X-13113509Y-5222150D02*
X-13084937Y-5222150D01*
X-13084937Y-5222150D02*
X-13065890Y-5231674D01*
X-13065890Y-5231674D02*
X-13056366Y-5250722D01*
X-13056366Y-5250722D02*
X-13056366Y-5355484D01*
X-13056366Y-5250722D02*
X-13046842Y-5231674D01*
X-13046842Y-5231674D02*
X-13027794Y-5222150D01*
X-13027794Y-5222150D02*
X-12999223Y-5222150D01*
X-12999223Y-5222150D02*
X-12980175Y-5231674D01*
X-12980175Y-5231674D02*
X-12970652Y-5250722D01*
X-12970652Y-5250722D02*
X-12970652Y-5355484D01*
X-12875413Y-5355484D02*
X-12875413Y-5222150D01*
X-12875413Y-5241198D02*
X-12865890Y-5231674D01*
X-12865890Y-5231674D02*
X-12846842Y-5222150D01*
X-12846842Y-5222150D02*
X-12818271Y-5222150D01*
X-12818271Y-5222150D02*
X-12799223Y-5231674D01*
X-12799223Y-5231674D02*
X-12789699Y-5250722D01*
X-12789699Y-5250722D02*
X-12789699Y-5355484D01*
X-12789699Y-5250722D02*
X-12780175Y-5231674D01*
X-12780175Y-5231674D02*
X-12761128Y-5222150D01*
X-12761128Y-5222150D02*
X-12732556Y-5222150D01*
X-12732556Y-5222150D02*
X-12713509Y-5231674D01*
X-12713509Y-5231674D02*
X-12703985Y-5250722D01*
X-12703985Y-5250722D02*
X-12703985Y-5355484D01*
X-12313509Y-5145960D02*
X-12484937Y-5403103D01*
X-12056366Y-5155484D02*
X-12037318Y-5155484D01*
X-12037318Y-5155484D02*
X-12018270Y-5165008D01*
X-12018270Y-5165008D02*
X-12008747Y-5174531D01*
X-12008747Y-5174531D02*
X-11999223Y-5193579D01*
X-11999223Y-5193579D02*
X-11989699Y-5231674D01*
X-11989699Y-5231674D02*
X-11989699Y-5279293D01*
X-11989699Y-5279293D02*
X-11999223Y-5317389D01*
X-11999223Y-5317389D02*
X-12008747Y-5336436D01*
X-12008747Y-5336436D02*
X-12018270Y-5345960D01*
X-12018270Y-5345960D02*
X-12037318Y-5355484D01*
X-12037318Y-5355484D02*
X-12056366Y-5355484D01*
X-12056366Y-5355484D02*
X-12075413Y-5345960D01*
X-12075413Y-5345960D02*
X-12084937Y-5336436D01*
X-12084937Y-5336436D02*
X-12094461Y-5317389D01*
X-12094461Y-5317389D02*
X-12103985Y-5279293D01*
X-12103985Y-5279293D02*
X-12103985Y-5231674D01*
X-12103985Y-5231674D02*
X-12094461Y-5193579D01*
X-12094461Y-5193579D02*
X-12084937Y-5174531D01*
X-12084937Y-5174531D02*
X-12075413Y-5165008D01*
X-12075413Y-5165008D02*
X-12056366Y-5155484D01*
X-11903985Y-5336436D02*
X-11894461Y-5345960D01*
X-11894461Y-5345960D02*
X-11903985Y-5355484D01*
X-11903985Y-5355484D02*
X-11913509Y-5345960D01*
X-11913509Y-5345960D02*
X-11903985Y-5336436D01*
X-11903985Y-5336436D02*
X-11903985Y-5355484D01*
X-11770651Y-5155484D02*
X-11751604Y-5155484D01*
X-11751604Y-5155484D02*
X-11732556Y-5165008D01*
X-11732556Y-5165008D02*
X-11723032Y-5174531D01*
X-11723032Y-5174531D02*
X-11713509Y-5193579D01*
X-11713509Y-5193579D02*
X-11703985Y-5231674D01*
X-11703985Y-5231674D02*
X-11703985Y-5279293D01*
X-11703985Y-5279293D02*
X-11713509Y-5317389D01*
X-11713509Y-5317389D02*
X-11723032Y-5336436D01*
X-11723032Y-5336436D02*
X-11732556Y-5345960D01*
X-11732556Y-5345960D02*
X-11751604Y-5355484D01*
X-11751604Y-5355484D02*
X-11770651Y-5355484D01*
X-11770651Y-5355484D02*
X-11789699Y-5345960D01*
X-11789699Y-5345960D02*
X-11799223Y-5336436D01*
X-11799223Y-5336436D02*
X-11808747Y-5317389D01*
X-11808747Y-5317389D02*
X-11818270Y-5279293D01*
X-11818270Y-5279293D02*
X-11818270Y-5231674D01*
X-11818270Y-5231674D02*
X-11808747Y-5193579D01*
X-11808747Y-5193579D02*
X-11799223Y-5174531D01*
X-11799223Y-5174531D02*
X-11789699Y-5165008D01*
X-11789699Y-5165008D02*
X-11770651Y-5155484D01*
X-11513509Y-5355484D02*
X-11627794Y-5355484D01*
X-11570651Y-5355484D02*
X-11570651Y-5155484D01*
X-11570651Y-5155484D02*
X-11589699Y-5184055D01*
X-11589699Y-5184055D02*
X-11608747Y-5203103D01*
X-11608747Y-5203103D02*
X-11627794Y-5212627D01*
X-11418270Y-5355484D02*
X-11380175Y-5355484D01*
X-11380175Y-5355484D02*
X-11361128Y-5345960D01*
X-11361128Y-5345960D02*
X-11351604Y-5336436D01*
X-11351604Y-5336436D02*
X-11332556Y-5307865D01*
X-11332556Y-5307865D02*
X-11323032Y-5269770D01*
X-11323032Y-5269770D02*
X-11323032Y-5193579D01*
X-11323032Y-5193579D02*
X-11332556Y-5174531D01*
X-11332556Y-5174531D02*
X-11342080Y-5165008D01*
X-11342080Y-5165008D02*
X-11361128Y-5155484D01*
X-11361128Y-5155484D02*
X-11399223Y-5155484D01*
X-11399223Y-5155484D02*
X-11418270Y-5165008D01*
X-11418270Y-5165008D02*
X-11427794Y-5174531D01*
X-11427794Y-5174531D02*
X-11437318Y-5193579D01*
X-11437318Y-5193579D02*
X-11437318Y-5241198D01*
X-11437318Y-5241198D02*
X-11427794Y-5260246D01*
X-11427794Y-5260246D02*
X-11418270Y-5269770D01*
X-11418270Y-5269770D02*
X-11399223Y-5279293D01*
X-11399223Y-5279293D02*
X-11361128Y-5279293D01*
X-11361128Y-5279293D02*
X-11342080Y-5269770D01*
X-11342080Y-5269770D02*
X-11332556Y-5260246D01*
X-11332556Y-5260246D02*
X-11323032Y-5241198D01*
X-11256366Y-5155484D02*
X-11123032Y-5155484D01*
X-11123032Y-5155484D02*
X-11208747Y-5355484D01*
X-11056366Y-5155484D02*
X-11056366Y-5193579D01*
X-10980175Y-5155484D02*
X-10980175Y-5193579D01*
X-10684937Y-5431674D02*
X-10694461Y-5422150D01*
X-10694461Y-5422150D02*
X-10713509Y-5393579D01*
X-10713509Y-5393579D02*
X-10723032Y-5374531D01*
X-10723032Y-5374531D02*
X-10732556Y-5345960D01*
X-10732556Y-5345960D02*
X-10742080Y-5298341D01*
X-10742080Y-5298341D02*
X-10742080Y-5260246D01*
X-10742080Y-5260246D02*
X-10732556Y-5212627D01*
X-10732556Y-5212627D02*
X-10723032Y-5184055D01*
X-10723032Y-5184055D02*
X-10713509Y-5165008D01*
X-10713509Y-5165008D02*
X-10694461Y-5136436D01*
X-10694461Y-5136436D02*
X-10684937Y-5126912D01*
X-10618270Y-5174531D02*
X-10608747Y-5165008D01*
X-10608747Y-5165008D02*
X-10589699Y-5155484D01*
X-10589699Y-5155484D02*
X-10542080Y-5155484D01*
X-10542080Y-5155484D02*
X-10523032Y-5165008D01*
X-10523032Y-5165008D02*
X-10513509Y-5174531D01*
X-10513509Y-5174531D02*
X-10503985Y-5193579D01*
X-10503985Y-5193579D02*
X-10503985Y-5212627D01*
X-10503985Y-5212627D02*
X-10513509Y-5241198D01*
X-10513509Y-5241198D02*
X-10627794Y-5355484D01*
X-10627794Y-5355484D02*
X-10503985Y-5355484D01*
X-10265889Y-5355484D02*
X-10265889Y-5155484D01*
X-10180175Y-5355484D02*
X-10180175Y-5250722D01*
X-10180175Y-5250722D02*
X-10189699Y-5231674D01*
X-10189699Y-5231674D02*
X-10208747Y-5222150D01*
X-10208747Y-5222150D02*
X-10237318Y-5222150D01*
X-10237318Y-5222150D02*
X-10256366Y-5231674D01*
X-10256366Y-5231674D02*
X-10265889Y-5241198D01*
X-10056366Y-5355484D02*
X-10075413Y-5345960D01*
X-10075413Y-5345960D02*
X-10084937Y-5336436D01*
X-10084937Y-5336436D02*
X-10094461Y-5317389D01*
X-10094461Y-5317389D02*
X-10094461Y-5260246D01*
X-10094461Y-5260246D02*
X-10084937Y-5241198D01*
X-10084937Y-5241198D02*
X-10075413Y-5231674D01*
X-10075413Y-5231674D02*
X-10056366Y-5222150D01*
X-10056366Y-5222150D02*
X-10027794Y-5222150D01*
X-10027794Y-5222150D02*
X-10008747Y-5231674D01*
X-10008747Y-5231674D02*
X-9999223Y-5241198D01*
X-9999223Y-5241198D02*
X-9989699Y-5260246D01*
X-9989699Y-5260246D02*
X-9989699Y-5317389D01*
X-9989699Y-5317389D02*
X-9999223Y-5336436D01*
X-9999223Y-5336436D02*
X-10008747Y-5345960D01*
X-10008747Y-5345960D02*
X-10027794Y-5355484D01*
X-10027794Y-5355484D02*
X-10056366Y-5355484D01*
X-9875413Y-5355484D02*
X-9894461Y-5345960D01*
X-9894461Y-5345960D02*
X-9903985Y-5326912D01*
X-9903985Y-5326912D02*
X-9903985Y-5155484D01*
X-9723032Y-5345960D02*
X-9742080Y-5355484D01*
X-9742080Y-5355484D02*
X-9780175Y-5355484D01*
X-9780175Y-5355484D02*
X-9799223Y-5345960D01*
X-9799223Y-5345960D02*
X-9808747Y-5326912D01*
X-9808747Y-5326912D02*
X-9808747Y-5250722D01*
X-9808747Y-5250722D02*
X-9799223Y-5231674D01*
X-9799223Y-5231674D02*
X-9780175Y-5222150D01*
X-9780175Y-5222150D02*
X-9742080Y-5222150D01*
X-9742080Y-5222150D02*
X-9723032Y-5231674D01*
X-9723032Y-5231674D02*
X-9713508Y-5250722D01*
X-9713508Y-5250722D02*
X-9713508Y-5269770D01*
X-9713508Y-5269770D02*
X-9808747Y-5288817D01*
X-9637318Y-5345960D02*
X-9618270Y-5355484D01*
X-9618270Y-5355484D02*
X-9580175Y-5355484D01*
X-9580175Y-5355484D02*
X-9561127Y-5345960D01*
X-9561127Y-5345960D02*
X-9551604Y-5326912D01*
X-9551604Y-5326912D02*
X-9551604Y-5317389D01*
X-9551604Y-5317389D02*
X-9561127Y-5298341D01*
X-9561127Y-5298341D02*
X-9580175Y-5288817D01*
X-9580175Y-5288817D02*
X-9608747Y-5288817D01*
X-9608747Y-5288817D02*
X-9627794Y-5279293D01*
X-9627794Y-5279293D02*
X-9637318Y-5260246D01*
X-9637318Y-5260246D02*
X-9637318Y-5250722D01*
X-9637318Y-5250722D02*
X-9627794Y-5231674D01*
X-9627794Y-5231674D02*
X-9608747Y-5222150D01*
X-9608747Y-5222150D02*
X-9580175Y-5222150D01*
X-9580175Y-5222150D02*
X-9561127Y-5231674D01*
X-9484937Y-5431674D02*
X-9475413Y-5422150D01*
X-9475413Y-5422150D02*
X-9456366Y-5393579D01*
X-9456366Y-5393579D02*
X-9446842Y-5374531D01*
X-9446842Y-5374531D02*
X-9437318Y-5345960D01*
X-9437318Y-5345960D02*
X-9427794Y-5298341D01*
X-9427794Y-5298341D02*
X-9427794Y-5260246D01*
X-9427794Y-5260246D02*
X-9437318Y-5212627D01*
X-9437318Y-5212627D02*
X-9446842Y-5184055D01*
X-9446842Y-5184055D02*
X-9456366Y-5165008D01*
X-9456366Y-5165008D02*
X-9475413Y-5136436D01*
X-9475413Y-5136436D02*
X-9484937Y-5126912D01*
M02*
