0
SECTION
2
HEADER
9
$INSUNITS
70
4
9
$ACADVER
1
AC1014
9
$HANDSEED
5
FFFF
0
ENDSEC
0
SECTION
2
TABLES
0
TABLE
2
VPORT
5
8
100
AcDbSymbolTable
0
ENDTAB
0
TABLE
2
LTYPE
5
5
100
AcDbSymbolTable
0
LTYPE
5
14
100
AcDbSymbolTableRecord
100
AcDbLinetypeTableRecord
2
BYBLOCK
70
0
0
LTYPE
5
15
100
AcDbSymbolTableRecord
100
AcDbLinetypeTableRecord
2
BYLAYER
70
0
0
LTYPE
5
16
100
AcDbSymbolTableRecord
100
AcDbLinetypeTableRecord
2
DASHED
70
0
3
Dashed __ __ __ __ __ __ __ __ __ __ __ __ __ _
72
65
73
2
40
0.75
49
0.5
74
0
49
-0.25
74
0
0
ENDTAB
0
TABLE
2
LAYER
5
2
100
AcDbSymbolTable
70
3
0
LAYER
5
50
100
AcDbSymbolTableRecord
100
AcDbLayerTableRecord
2
1
70
0
62
7
6
DASHED
0
LAYER
5
51
100
AcDbSymbolTableRecord
100
AcDbLayerTableRecord
2
0
70
0
62
7
6
CONTINUOUS
0
ENDTAB
0
TABLE
2
STYLE
5
3
100
AcDbSymbolTable
70
1
0
STYLE
5
11
100
AcDbSymbolTableRecord
100
AcDbTextStyleTableRecord
2
STANDARD
70
0
0
ENDTAB
0
TABLE
2
VIEW
5
6
100
AcDbSymbolTable
70
0
0
ENDTAB
0
TABLE
2
UCS
5
7
100
AcDbSymbolTable
70
0
0
ENDTAB
0
TABLE
2
APPID
5
9
100
AcDbSymbolTable
70
2
0
APPID
5
12
100
AcDbSymbolTableRecord
100
AcDbRegAppTableRecord
2
ACAD
70
0
0
ENDTAB
0
TABLE
2
DIMSTYLE
5
A
100
AcDbSymbolTable
70
1
0
ENDTAB
0
TABLE
2
BLOCK_RECORD
5
1
100
AcDbSymbolTable
70
1
0
BLOCK_RECORD
5
1F
100
AcDbSymbolTableRecord
100
AcDbBlockTableRecord
2
*MODEL_SPACE
0
BLOCK_RECORD
5
1B
100
AcDbSymbolTableRecord
100
AcDbBlockTableRecord
2
*PAPER_SPACE
0
ENDTAB
0
ENDSEC
0
SECTION
2
BLOCKS
0
BLOCK
5
20
100
AcDbEntity
100
AcDbBlockBegin
2
*MODEL_SPACE
0
ENDBLK
5
21
100
AcDbEntity
100
AcDbBlockEnd
0
BLOCK
5
1C
100
AcDbEntity
100
AcDbBlockBegin
2
*PAPER_SPACE
0
ENDBLK
5
1D
100
AcDbEntity
100
AcDbBlockEnd
0
ENDSEC
0
SECTION
2
ENTITIES
0
POINT
5
100
100
AcDbEntity
8
0
100
AcDbPoint
10
-98.99999999999946
20
-5.5511151231257827e-15
30
0
0
POINT
5
101
100
AcDbEntity
8
0
100
AcDbPoint
10
-3.9968028886505635e-14
20
-1.7763568394002505e-14
30
0
0
CIRCLE
5
102
100
AcDbEntity
8
0
100
AcDbCircle
10
-3.9968028886505635e-14
20
-1.7763568394002505e-14
30
0
40
36
210
-0
220
0
230
1
0
ARC
5
103
100
AcDbEntity
8
0
100
AcDbCircle
10
-3.9968028886505635e-14
20
-1.7763568394002505e-14
30
0
40
43.500000000000007
210
0
220
0
230
1
100
AcDbArc
50
-168.05945603939125
51
159.8287286535348
0
SPLINE
5
104
100
AcDbEntity
8
0
100
AcDbSpline
70
4
71
5
72
16
73
10
74
0
42
0.000000001
43
0.0000000001
44
0.0000000001
40
0.50196261406934461
40
0.50196261406934461
40
0.50196261406934461
40
0.50196261406934461
40
0.50196261406934461
40
0.50196261406934461
40
0.59999999999999998
40
0.69999999999999996
40
0.79999999999999993
40
0.89999999999999991
40
1
40
1
40
1
40
1
40
1
40
1
41
1
41
1
41
1
41
1
41
1
41
1
41
1
41
1
41
1
41
1
10
-49.46077417493867
20
-4.9999999999999991
30
0
10
-49.068893809799249
20
-5.0007889078479062
30
0
10
-48.277633845991772
20
-5.042184786834639
30
0
10
-47.103103402870936
20
-5.2254375499374408
30
0
10
-45.628935861420779
20
-5.6982598354479617
30
0
10
-44.089550672221627
20
-6.5935622892797427
30
0
10
-43.204526373661736
20
-7.4867058557890322
30
0
10
-42.782581520061527
20
-8.2217688938290205
30
0
10
-42.614510342741518
20
-8.7364785443767055
30
0
10
-42.558782877333357
20
-8.9999999999999876
30
0
0
SPLINE
5
105
100
AcDbEntity
8
0
100
AcDbSpline
70
4
71
5
72
16
73
10
74
0
42
0.000000001
43
0.0000000001
44
0.0000000001
40
0.50196261406934461
40
0.50196261406934461
40
0.50196261406934461
40
0.50196261406934461
40
0.50196261406934461
40
0.50196261406934461
40
0.59999999999999998
40
0.69999999999999996
40
0.79999999999999993
40
0.89999999999999991
40
1
40
1
40
1
40
1
40
1
40
1
41
1
41
1
41
1
41
1
41
1
41
1
41
1
41
1
41
1
41
1
10
-49.539225825060782
20
-4.9999999999999991
30
0
10
-49.931106190200197
20
-5.0007889078479053
30
0
10
-50.72236615400768
20
-5.0421847868346381
30
0
10
-51.896896597128531
20
-5.2254375499374408
30
0
10
-53.371064138578667
20
-5.6982598354479617
30
0
10
-54.910449327777826
20
-6.5935622892797427
30
0
10
-55.795473626337717
20
-7.4867058557890322
30
0
10
-56.217418479937926
20
-8.2217688938290205
30
0
10
-56.385489657257935
20
-8.7364785443767055
30
0
10
-56.441217122666096
20
-8.9999999999999876
30
0
0
ARC
5
106
100
AcDbEntity
8
0
100
AcDbCircle
10
-98.99999999999946
20
-5.5511151231257827e-15
30
0
40
43.499999999999474
210
0
220
-0
230
1
100
AcDbArc
50
20.171271346465222
51
348.05945603939131
0
CIRCLE
5
107
100
AcDbEntity
8
0
100
AcDbCircle
10
-98.99999999999946
20
-5.5511151231257827e-15
30
0
40
36
210
-0
220
0
230
1
0
SPLINE
5
108
100
AcDbEntity
8
0
100
AcDbSpline
70
4
71
5
72
16
73
10
74
0
42
0.000000001
43
0.0000000001
44
0.0000000001
40
0
40
0
40
0
40
0
40
0
40
0
40
0.10000000000000001
40
0.20000000000000001
40
0.30000000000000004
40
0.40000000000000002
40
0.5
40
0.5
40
0.5
40
0.5
40
0.5
40
0.5
41
1
41
1
41
1
41
1
41
1
41
1
41
1
41
1
41
1
41
1
10
-58.168027233551413
20
15.000000000000004
30
0
10
-58.03774131392862
20
14.663432322201794
30
0
10
-57.68264885278434
20
14.028267856210546
30
0
10
-56.867006344953651
20
13.189430251666231
30
0
10
-55.310796859661977
20
12.293346579436022
30
0
10
-53.094608971327006
20
11.519364730725297
30
0
10
-51.463745447688765
20
11.157457651839426
30
0
10
-50.457663647497348
20
11.023027387215837
30
0
10
-49.819199400262661
20
10.993194035353277
30
0
10
-49.499999999999993
20
10.99319403535328
30
0
0
SPLINE
5
109
100
AcDbEntity
8
0
100
AcDbSpline
70
4
71
5
72
16
73
10
74
0
42
0.000000001
43
0.0000000001
44
0.0000000001
40
0
40
0
40
0
40
0
40
0
40
0
40
0.10000000000000001
40
0.20000000000000001
40
0.30000000000000004
40
0.40000000000000002
40
0.5
40
0.5
40
0.5
40
0.5
40
0.5
40
0.5
41
1
41
1
41
1
41
1
41
1
41
1
41
1
41
1
41
1
41
1
10
-40.83197276644804
20
15.000000000000004
30
0
10
-40.96225868607084
20
14.663432322201796
30
0
10
-41.317351147215113
20
14.028267856210546
30
0
10
-42.132993655045809
20
13.189430251666231
30
0
10
-43.689203140337476
20
12.293346579436024
30
0
10
-45.905391028672454
20
11.519364730725297
30
0
10
-47.53625455231068
20
11.15745765183943
30
0
10
-48.542336352502105
20
11.023027387215837
30
0
10
-49.180800599736791
20
10.993194035353277
30
0
10
-49.49999999999946
20
10.993194035353282
30
0
0
ENDSEC
0
SECTION
2
OBJECTS
0
DICTIONARY
5
C
100
AcDbDictionary
3
ACAD_GROUP
350
D
3
ACAD_MLINESTYLE
350
17
0
DICTIONARY
5
D
100
AcDbDictionary
0
DICTIONARY
5
1A
330
C
100
AcDbDictionary
0
DICTIONARY
5
17
100
AcDbDictionary
0
ENDSEC
0
EOF
