%TF.GenerationSoftware,KiCad,Pcbnew,8.0.4*%
%TF.CreationDate,2025-02-17T12:03:14+11:00*%
%TF.ProjectId,LGS_FrontPCB,4c47535f-4672-46f6-9e74-5043422e6b69,rev?*%
%TF.SameCoordinates,Original*%
%TF.FileFunction,Drillmap*%
%TF.FilePolarity,Positive*%
%FSLAX45Y45*%
G04 Gerber Fmt 4.5, Leading zero omitted, Abs format (unit mm)*
G04 Created by KiCad (PCBNEW 8.0.4) date 2025-02-17 12:03:14*
%MOMM*%
%LPD*%
G01*
G04 APERTURE LIST*
%ADD10C,0.200000*%
%ADD11C,0.010050*%
%ADD12C,0.220000*%
G04 APERTURE END LIST*
D10*
X-5013843Y1100811D02*
X-4992852Y1099366D01*
X-4969511Y1098465D01*
X-4947003Y1098361D01*
X-4924076Y1098936D01*
X-4903745Y1099848D01*
X-4886157Y1100811D01*
X-4709046Y1127895D02*
X-4782993Y1114317D01*
X-4501611Y1186194D02*
X-4586219Y1159983D01*
X-4295520Y1277682D02*
X-4375745Y1237988D01*
X-4136452Y1404725D02*
X-4193700Y1350601D01*
X-4269855Y-847912D02*
X-4255878Y-900000D01*
X-4347625Y-728033D02*
X-4311716Y-774655D01*
X-4474727Y-625875D02*
X-4419907Y-664810D01*
X-4640212Y-549102D02*
X-4571181Y-577125D01*
X-4828813Y-506147D02*
X-4752781Y-519821D01*
X-5147220Y-519821D02*
X-5071187Y-506147D01*
X-5328819Y-577125D02*
X-5259788Y-549102D01*
X-5480093Y-664810D02*
X-5425273Y-625875D01*
X-5588284Y-774655D02*
X-5552375Y-728033D01*
X-5190954Y1127895D02*
X-5117007Y1114317D01*
X-5398389Y1186194D02*
X-5313781Y1159983D01*
X-5604480Y1277682D02*
X-5524255Y1237988D01*
X-5763548Y1404725D02*
X-5706300Y1350601D01*
X-5630145Y-847912D02*
X-5644122Y-900000D01*
X-4953923Y-500000D02*
X-4946077Y-500000D01*
X-4782993Y1114317D02*
X-4803112Y1111089D01*
X-4826124Y1107730D01*
X-4848649Y1104808D01*
X-4870696Y1102321D01*
X-4886157Y1100811D01*
X-4586219Y1159983D02*
X-4605810Y1154336D01*
X-4625274Y1148925D01*
X-4644598Y1143748D01*
X-4667579Y1137846D01*
X-4690311Y1132279D01*
X-4709046Y1127895D01*
X-4375745Y1237988D02*
X-4394977Y1229217D01*
X-4414397Y1220698D01*
X-4433986Y1212431D01*
X-4453727Y1204415D01*
X-4473600Y1196649D01*
X-4493588Y1189131D01*
X-4501611Y1186194D01*
X-4193700Y1350601D02*
X-4211222Y1336092D01*
X-4229495Y1321970D01*
X-4248496Y1308235D01*
X-4268199Y1294885D01*
X-4285137Y1284053D01*
X-4295520Y1277682D01*
X-4083197Y1500000D02*
X-4091024Y1481268D01*
X-4099848Y1462937D01*
X-4109667Y1445006D01*
X-4120483Y1427476D01*
X-4132294Y1410346D01*
X-4136452Y1404725D01*
X-5117007Y1114317D02*
X-5096888Y1111089D01*
X-5073876Y1107730D01*
X-5051351Y1104808D01*
X-5029304Y1102321D01*
X-5013843Y1100811D01*
X-5313781Y1159983D02*
X-5294190Y1154336D01*
X-5274726Y1148925D01*
X-5255402Y1143748D01*
X-5232421Y1137846D01*
X-5209689Y1132279D01*
X-5190954Y1127895D01*
X-5524255Y1237988D02*
X-5505023Y1229217D01*
X-5485603Y1220698D01*
X-5466014Y1212431D01*
X-5446273Y1204415D01*
X-5426400Y1196649D01*
X-5406412Y1189131D01*
X-5398389Y1186194D01*
X-5706300Y1350601D02*
X-5688778Y1336092D01*
X-5670505Y1321970D01*
X-5651504Y1308235D01*
X-5631801Y1294885D01*
X-5614863Y1284053D01*
X-5604480Y1277682D01*
X-5816803Y1500000D02*
X-5808976Y1481268D01*
X-5800152Y1462937D01*
X-5790332Y1445006D01*
X-5779517Y1427476D01*
X-5767706Y1410346D01*
X-5763548Y1404725D01*
X-6300000Y0D02*
G75*
G02*
X-13500000Y0I-3600000J0D01*
G01*
X-13500000Y0D02*
G75*
G02*
X-6300000Y0I3600000J0D01*
G01*
X-5644122Y-900000D02*
G75*
G02*
X-5816803Y1500000I-4255878J900000D01*
G01*
X-5588284Y-774655D02*
X-5600263Y-792564D01*
X-5611240Y-810748D01*
X-5621204Y-829200D01*
X-5630145Y-847912D01*
X-5480093Y-664810D02*
X-5497056Y-678103D01*
X-5513385Y-691704D01*
X-5529067Y-705605D01*
X-5544091Y-719796D01*
X-5552375Y-728033D01*
X-5328819Y-577125D02*
X-5347643Y-585594D01*
X-5366136Y-594380D01*
X-5384289Y-603476D01*
X-5402093Y-612876D01*
X-5422411Y-624221D01*
X-5425273Y-625875D01*
X-5147220Y-519821D02*
X-5168731Y-524465D01*
X-5190067Y-529503D01*
X-5211217Y-534933D01*
X-5232171Y-540750D01*
X-5252919Y-546950D01*
X-5259788Y-549102D01*
X-4953923Y-500000D02*
X-4975962Y-500252D01*
X-4997989Y-500920D01*
X-5019992Y-502003D01*
X-5041962Y-503502D01*
X-5063889Y-505417D01*
X-5071187Y-506147D01*
X-4311716Y-774655D02*
X-4299737Y-792564D01*
X-4288760Y-810748D01*
X-4278796Y-829200D01*
X-4269855Y-847912D01*
X-4419907Y-664810D02*
X-4402944Y-678103D01*
X-4386615Y-691704D01*
X-4370933Y-705605D01*
X-4355909Y-719796D01*
X-4347625Y-728033D01*
X-4571181Y-577125D02*
X-4552357Y-585594D01*
X-4533864Y-594380D01*
X-4515711Y-603476D01*
X-4497907Y-612876D01*
X-4477589Y-624221D01*
X-4474727Y-625875D01*
X-4752781Y-519821D02*
X-4731269Y-524465D01*
X-4709933Y-529503D01*
X-4688783Y-534933D01*
X-4667829Y-540750D01*
X-4647081Y-546950D01*
X-4640212Y-549102D01*
X-4946077Y-500000D02*
X-4924038Y-500252D01*
X-4902011Y-500920D01*
X-4880008Y-502003D01*
X-4858038Y-503502D01*
X-4836111Y-505417D01*
X-4828813Y-506147D01*
X-4083197Y1500000D02*
G75*
G02*
X-4255878Y-900000I4083197J-1500000D01*
G01*
X3600000Y0D02*
G75*
G02*
X-3600000Y0I-3600000J0D01*
G01*
X-3600000Y0D02*
G75*
G02*
X3600000Y0I3600000J0D01*
G01*
D11*
X502Y0D02*
G75*
G02*
X-502Y0I-502J0D01*
G01*
X-502Y0D02*
G75*
G02*
X502Y0I502J0D01*
G01*
X-9899498Y0D02*
G75*
G02*
X-9900503Y0I-503J0D01*
G01*
X-9900503Y0D02*
G75*
G02*
X-9899498Y0I503J0D01*
G01*
D10*
D12*
X-12566800Y3436400D02*
X-12346800Y3216400D01*
X-12346800Y3436400D02*
X-12566800Y3216400D01*
X-12566800Y-3216400D02*
X-12346800Y-3436400D01*
X-12346800Y-3216400D02*
X-12566800Y-3436400D01*
X-6677900Y2666800D02*
X-6457900Y2446800D01*
X-6457900Y2666800D02*
X-6677900Y2446800D01*
X-6677900Y-2446800D02*
X-6457900Y-2666800D01*
X-6457900Y-2446800D02*
X-6677900Y-2666800D01*
X-3442100Y2666800D02*
X-3222100Y2446800D01*
X-3222100Y2666800D02*
X-3442100Y2446800D01*
X-3442100Y-2446800D02*
X-3222100Y-2666800D01*
X-3222100Y-2446800D02*
X-3442100Y-2666800D01*
X2441100Y3436400D02*
X2661100Y3216400D01*
X2661100Y3436400D02*
X2441100Y3216400D01*
X2441100Y-3216400D02*
X2661100Y-3436400D01*
X2661100Y-3216400D02*
X2441100Y-3436400D01*
D10*
X-13999223Y-4671484D02*
X-13999223Y-4471484D01*
X-13999223Y-4471484D02*
X-13951604Y-4471484D01*
X-13951604Y-4471484D02*
X-13923033Y-4481008D01*
X-13923033Y-4481008D02*
X-13903985Y-4500055D01*
X-13903985Y-4500055D02*
X-13894461Y-4519103D01*
X-13894461Y-4519103D02*
X-13884937Y-4557198D01*
X-13884937Y-4557198D02*
X-13884937Y-4585770D01*
X-13884937Y-4585770D02*
X-13894461Y-4623865D01*
X-13894461Y-4623865D02*
X-13903985Y-4642912D01*
X-13903985Y-4642912D02*
X-13923033Y-4661960D01*
X-13923033Y-4661960D02*
X-13951604Y-4671484D01*
X-13951604Y-4671484D02*
X-13999223Y-4671484D01*
X-13799223Y-4671484D02*
X-13799223Y-4538150D01*
X-13799223Y-4576246D02*
X-13789699Y-4557198D01*
X-13789699Y-4557198D02*
X-13780175Y-4547674D01*
X-13780175Y-4547674D02*
X-13761128Y-4538150D01*
X-13761128Y-4538150D02*
X-13742080Y-4538150D01*
X-13675414Y-4671484D02*
X-13675414Y-4538150D01*
X-13675414Y-4471484D02*
X-13684937Y-4481008D01*
X-13684937Y-4481008D02*
X-13675414Y-4490531D01*
X-13675414Y-4490531D02*
X-13665890Y-4481008D01*
X-13665890Y-4481008D02*
X-13675414Y-4471484D01*
X-13675414Y-4471484D02*
X-13675414Y-4490531D01*
X-13551604Y-4671484D02*
X-13570652Y-4661960D01*
X-13570652Y-4661960D02*
X-13580175Y-4642912D01*
X-13580175Y-4642912D02*
X-13580175Y-4471484D01*
X-13446842Y-4671484D02*
X-13465890Y-4661960D01*
X-13465890Y-4661960D02*
X-13475414Y-4642912D01*
X-13475414Y-4642912D02*
X-13475414Y-4471484D01*
X-13218271Y-4671484D02*
X-13218271Y-4471484D01*
X-13218271Y-4471484D02*
X-13151604Y-4614341D01*
X-13151604Y-4614341D02*
X-13084937Y-4471484D01*
X-13084937Y-4471484D02*
X-13084937Y-4671484D01*
X-12903985Y-4671484D02*
X-12903985Y-4566722D01*
X-12903985Y-4566722D02*
X-12913509Y-4547674D01*
X-12913509Y-4547674D02*
X-12932556Y-4538150D01*
X-12932556Y-4538150D02*
X-12970652Y-4538150D01*
X-12970652Y-4538150D02*
X-12989699Y-4547674D01*
X-12903985Y-4661960D02*
X-12923033Y-4671484D01*
X-12923033Y-4671484D02*
X-12970652Y-4671484D01*
X-12970652Y-4671484D02*
X-12989699Y-4661960D01*
X-12989699Y-4661960D02*
X-12999223Y-4642912D01*
X-12999223Y-4642912D02*
X-12999223Y-4623865D01*
X-12999223Y-4623865D02*
X-12989699Y-4604817D01*
X-12989699Y-4604817D02*
X-12970652Y-4595293D01*
X-12970652Y-4595293D02*
X-12923033Y-4595293D01*
X-12923033Y-4595293D02*
X-12903985Y-4585770D01*
X-12808747Y-4538150D02*
X-12808747Y-4738150D01*
X-12808747Y-4547674D02*
X-12789699Y-4538150D01*
X-12789699Y-4538150D02*
X-12751604Y-4538150D01*
X-12751604Y-4538150D02*
X-12732556Y-4547674D01*
X-12732556Y-4547674D02*
X-12723033Y-4557198D01*
X-12723033Y-4557198D02*
X-12713509Y-4576246D01*
X-12713509Y-4576246D02*
X-12713509Y-4633389D01*
X-12713509Y-4633389D02*
X-12723033Y-4652436D01*
X-12723033Y-4652436D02*
X-12732556Y-4661960D01*
X-12732556Y-4661960D02*
X-12751604Y-4671484D01*
X-12751604Y-4671484D02*
X-12789699Y-4671484D01*
X-12789699Y-4671484D02*
X-12808747Y-4661960D01*
X-12627794Y-4652436D02*
X-12618271Y-4661960D01*
X-12618271Y-4661960D02*
X-12627794Y-4671484D01*
X-12627794Y-4671484D02*
X-12637318Y-4661960D01*
X-12637318Y-4661960D02*
X-12627794Y-4652436D01*
X-12627794Y-4652436D02*
X-12627794Y-4671484D01*
X-12627794Y-4547674D02*
X-12618271Y-4557198D01*
X-12618271Y-4557198D02*
X-12627794Y-4566722D01*
X-12627794Y-4566722D02*
X-12637318Y-4557198D01*
X-12637318Y-4557198D02*
X-12627794Y-4547674D01*
X-12627794Y-4547674D02*
X-12627794Y-4566722D01*
X-14460000Y-4900000D02*
X-14260000Y-5100000D01*
X-14260000Y-4900000D02*
X-14460000Y-5100000D01*
X-14008747Y-4910531D02*
X-13999223Y-4901008D01*
X-13999223Y-4901008D02*
X-13980175Y-4891484D01*
X-13980175Y-4891484D02*
X-13932556Y-4891484D01*
X-13932556Y-4891484D02*
X-13913509Y-4901008D01*
X-13913509Y-4901008D02*
X-13903985Y-4910531D01*
X-13903985Y-4910531D02*
X-13894461Y-4929579D01*
X-13894461Y-4929579D02*
X-13894461Y-4948627D01*
X-13894461Y-4948627D02*
X-13903985Y-4977198D01*
X-13903985Y-4977198D02*
X-14018271Y-5091484D01*
X-14018271Y-5091484D02*
X-13894461Y-5091484D01*
X-13808747Y-5072436D02*
X-13799223Y-5081960D01*
X-13799223Y-5081960D02*
X-13808747Y-5091484D01*
X-13808747Y-5091484D02*
X-13818271Y-5081960D01*
X-13818271Y-5081960D02*
X-13808747Y-5072436D01*
X-13808747Y-5072436D02*
X-13808747Y-5091484D01*
X-13723033Y-4910531D02*
X-13713509Y-4901008D01*
X-13713509Y-4901008D02*
X-13694461Y-4891484D01*
X-13694461Y-4891484D02*
X-13646842Y-4891484D01*
X-13646842Y-4891484D02*
X-13627794Y-4901008D01*
X-13627794Y-4901008D02*
X-13618271Y-4910531D01*
X-13618271Y-4910531D02*
X-13608747Y-4929579D01*
X-13608747Y-4929579D02*
X-13608747Y-4948627D01*
X-13608747Y-4948627D02*
X-13618271Y-4977198D01*
X-13618271Y-4977198D02*
X-13732556Y-5091484D01*
X-13732556Y-5091484D02*
X-13608747Y-5091484D01*
X-13484937Y-4891484D02*
X-13465890Y-4891484D01*
X-13465890Y-4891484D02*
X-13446842Y-4901008D01*
X-13446842Y-4901008D02*
X-13437318Y-4910531D01*
X-13437318Y-4910531D02*
X-13427794Y-4929579D01*
X-13427794Y-4929579D02*
X-13418271Y-4967674D01*
X-13418271Y-4967674D02*
X-13418271Y-5015293D01*
X-13418271Y-5015293D02*
X-13427794Y-5053389D01*
X-13427794Y-5053389D02*
X-13437318Y-5072436D01*
X-13437318Y-5072436D02*
X-13446842Y-5081960D01*
X-13446842Y-5081960D02*
X-13465890Y-5091484D01*
X-13465890Y-5091484D02*
X-13484937Y-5091484D01*
X-13484937Y-5091484D02*
X-13503985Y-5081960D01*
X-13503985Y-5081960D02*
X-13513509Y-5072436D01*
X-13513509Y-5072436D02*
X-13523033Y-5053389D01*
X-13523033Y-5053389D02*
X-13532556Y-5015293D01*
X-13532556Y-5015293D02*
X-13532556Y-4967674D01*
X-13532556Y-4967674D02*
X-13523033Y-4929579D01*
X-13523033Y-4929579D02*
X-13513509Y-4910531D01*
X-13513509Y-4910531D02*
X-13503985Y-4901008D01*
X-13503985Y-4901008D02*
X-13484937Y-4891484D01*
X-13294461Y-4891484D02*
X-13275413Y-4891484D01*
X-13275413Y-4891484D02*
X-13256366Y-4901008D01*
X-13256366Y-4901008D02*
X-13246842Y-4910531D01*
X-13246842Y-4910531D02*
X-13237318Y-4929579D01*
X-13237318Y-4929579D02*
X-13227794Y-4967674D01*
X-13227794Y-4967674D02*
X-13227794Y-5015293D01*
X-13227794Y-5015293D02*
X-13237318Y-5053389D01*
X-13237318Y-5053389D02*
X-13246842Y-5072436D01*
X-13246842Y-5072436D02*
X-13256366Y-5081960D01*
X-13256366Y-5081960D02*
X-13275413Y-5091484D01*
X-13275413Y-5091484D02*
X-13294461Y-5091484D01*
X-13294461Y-5091484D02*
X-13313509Y-5081960D01*
X-13313509Y-5081960D02*
X-13323033Y-5072436D01*
X-13323033Y-5072436D02*
X-13332556Y-5053389D01*
X-13332556Y-5053389D02*
X-13342080Y-5015293D01*
X-13342080Y-5015293D02*
X-13342080Y-4967674D01*
X-13342080Y-4967674D02*
X-13332556Y-4929579D01*
X-13332556Y-4929579D02*
X-13323033Y-4910531D01*
X-13323033Y-4910531D02*
X-13313509Y-4901008D01*
X-13313509Y-4901008D02*
X-13294461Y-4891484D01*
X-13142080Y-5091484D02*
X-13142080Y-4958150D01*
X-13142080Y-4977198D02*
X-13132556Y-4967674D01*
X-13132556Y-4967674D02*
X-13113509Y-4958150D01*
X-13113509Y-4958150D02*
X-13084937Y-4958150D01*
X-13084937Y-4958150D02*
X-13065890Y-4967674D01*
X-13065890Y-4967674D02*
X-13056366Y-4986722D01*
X-13056366Y-4986722D02*
X-13056366Y-5091484D01*
X-13056366Y-4986722D02*
X-13046842Y-4967674D01*
X-13046842Y-4967674D02*
X-13027794Y-4958150D01*
X-13027794Y-4958150D02*
X-12999223Y-4958150D01*
X-12999223Y-4958150D02*
X-12980175Y-4967674D01*
X-12980175Y-4967674D02*
X-12970652Y-4986722D01*
X-12970652Y-4986722D02*
X-12970652Y-5091484D01*
X-12875413Y-5091484D02*
X-12875413Y-4958150D01*
X-12875413Y-4977198D02*
X-12865890Y-4967674D01*
X-12865890Y-4967674D02*
X-12846842Y-4958150D01*
X-12846842Y-4958150D02*
X-12818271Y-4958150D01*
X-12818271Y-4958150D02*
X-12799223Y-4967674D01*
X-12799223Y-4967674D02*
X-12789699Y-4986722D01*
X-12789699Y-4986722D02*
X-12789699Y-5091484D01*
X-12789699Y-4986722D02*
X-12780175Y-4967674D01*
X-12780175Y-4967674D02*
X-12761128Y-4958150D01*
X-12761128Y-4958150D02*
X-12732556Y-4958150D01*
X-12732556Y-4958150D02*
X-12713509Y-4967674D01*
X-12713509Y-4967674D02*
X-12703985Y-4986722D01*
X-12703985Y-4986722D02*
X-12703985Y-5091484D01*
X-12313509Y-4881960D02*
X-12484937Y-5139103D01*
X-12056366Y-4891484D02*
X-12037318Y-4891484D01*
X-12037318Y-4891484D02*
X-12018270Y-4901008D01*
X-12018270Y-4901008D02*
X-12008747Y-4910531D01*
X-12008747Y-4910531D02*
X-11999223Y-4929579D01*
X-11999223Y-4929579D02*
X-11989699Y-4967674D01*
X-11989699Y-4967674D02*
X-11989699Y-5015293D01*
X-11989699Y-5015293D02*
X-11999223Y-5053389D01*
X-11999223Y-5053389D02*
X-12008747Y-5072436D01*
X-12008747Y-5072436D02*
X-12018270Y-5081960D01*
X-12018270Y-5081960D02*
X-12037318Y-5091484D01*
X-12037318Y-5091484D02*
X-12056366Y-5091484D01*
X-12056366Y-5091484D02*
X-12075413Y-5081960D01*
X-12075413Y-5081960D02*
X-12084937Y-5072436D01*
X-12084937Y-5072436D02*
X-12094461Y-5053389D01*
X-12094461Y-5053389D02*
X-12103985Y-5015293D01*
X-12103985Y-5015293D02*
X-12103985Y-4967674D01*
X-12103985Y-4967674D02*
X-12094461Y-4929579D01*
X-12094461Y-4929579D02*
X-12084937Y-4910531D01*
X-12084937Y-4910531D02*
X-12075413Y-4901008D01*
X-12075413Y-4901008D02*
X-12056366Y-4891484D01*
X-11903985Y-5072436D02*
X-11894461Y-5081960D01*
X-11894461Y-5081960D02*
X-11903985Y-5091484D01*
X-11903985Y-5091484D02*
X-11913509Y-5081960D01*
X-11913509Y-5081960D02*
X-11903985Y-5072436D01*
X-11903985Y-5072436D02*
X-11903985Y-5091484D01*
X-11770651Y-4891484D02*
X-11751604Y-4891484D01*
X-11751604Y-4891484D02*
X-11732556Y-4901008D01*
X-11732556Y-4901008D02*
X-11723032Y-4910531D01*
X-11723032Y-4910531D02*
X-11713509Y-4929579D01*
X-11713509Y-4929579D02*
X-11703985Y-4967674D01*
X-11703985Y-4967674D02*
X-11703985Y-5015293D01*
X-11703985Y-5015293D02*
X-11713509Y-5053389D01*
X-11713509Y-5053389D02*
X-11723032Y-5072436D01*
X-11723032Y-5072436D02*
X-11732556Y-5081960D01*
X-11732556Y-5081960D02*
X-11751604Y-5091484D01*
X-11751604Y-5091484D02*
X-11770651Y-5091484D01*
X-11770651Y-5091484D02*
X-11789699Y-5081960D01*
X-11789699Y-5081960D02*
X-11799223Y-5072436D01*
X-11799223Y-5072436D02*
X-11808747Y-5053389D01*
X-11808747Y-5053389D02*
X-11818270Y-5015293D01*
X-11818270Y-5015293D02*
X-11818270Y-4967674D01*
X-11818270Y-4967674D02*
X-11808747Y-4929579D01*
X-11808747Y-4929579D02*
X-11799223Y-4910531D01*
X-11799223Y-4910531D02*
X-11789699Y-4901008D01*
X-11789699Y-4901008D02*
X-11770651Y-4891484D01*
X-11589699Y-4977198D02*
X-11608747Y-4967674D01*
X-11608747Y-4967674D02*
X-11618270Y-4958150D01*
X-11618270Y-4958150D02*
X-11627794Y-4939103D01*
X-11627794Y-4939103D02*
X-11627794Y-4929579D01*
X-11627794Y-4929579D02*
X-11618270Y-4910531D01*
X-11618270Y-4910531D02*
X-11608747Y-4901008D01*
X-11608747Y-4901008D02*
X-11589699Y-4891484D01*
X-11589699Y-4891484D02*
X-11551604Y-4891484D01*
X-11551604Y-4891484D02*
X-11532556Y-4901008D01*
X-11532556Y-4901008D02*
X-11523032Y-4910531D01*
X-11523032Y-4910531D02*
X-11513509Y-4929579D01*
X-11513509Y-4929579D02*
X-11513509Y-4939103D01*
X-11513509Y-4939103D02*
X-11523032Y-4958150D01*
X-11523032Y-4958150D02*
X-11532556Y-4967674D01*
X-11532556Y-4967674D02*
X-11551604Y-4977198D01*
X-11551604Y-4977198D02*
X-11589699Y-4977198D01*
X-11589699Y-4977198D02*
X-11608747Y-4986722D01*
X-11608747Y-4986722D02*
X-11618270Y-4996246D01*
X-11618270Y-4996246D02*
X-11627794Y-5015293D01*
X-11627794Y-5015293D02*
X-11627794Y-5053389D01*
X-11627794Y-5053389D02*
X-11618270Y-5072436D01*
X-11618270Y-5072436D02*
X-11608747Y-5081960D01*
X-11608747Y-5081960D02*
X-11589699Y-5091484D01*
X-11589699Y-5091484D02*
X-11551604Y-5091484D01*
X-11551604Y-5091484D02*
X-11532556Y-5081960D01*
X-11532556Y-5081960D02*
X-11523032Y-5072436D01*
X-11523032Y-5072436D02*
X-11513509Y-5053389D01*
X-11513509Y-5053389D02*
X-11513509Y-5015293D01*
X-11513509Y-5015293D02*
X-11523032Y-4996246D01*
X-11523032Y-4996246D02*
X-11532556Y-4986722D01*
X-11532556Y-4986722D02*
X-11551604Y-4977198D01*
X-11342080Y-4891484D02*
X-11380175Y-4891484D01*
X-11380175Y-4891484D02*
X-11399223Y-4901008D01*
X-11399223Y-4901008D02*
X-11408747Y-4910531D01*
X-11408747Y-4910531D02*
X-11427794Y-4939103D01*
X-11427794Y-4939103D02*
X-11437318Y-4977198D01*
X-11437318Y-4977198D02*
X-11437318Y-5053389D01*
X-11437318Y-5053389D02*
X-11427794Y-5072436D01*
X-11427794Y-5072436D02*
X-11418270Y-5081960D01*
X-11418270Y-5081960D02*
X-11399223Y-5091484D01*
X-11399223Y-5091484D02*
X-11361128Y-5091484D01*
X-11361128Y-5091484D02*
X-11342080Y-5081960D01*
X-11342080Y-5081960D02*
X-11332556Y-5072436D01*
X-11332556Y-5072436D02*
X-11323032Y-5053389D01*
X-11323032Y-5053389D02*
X-11323032Y-5005770D01*
X-11323032Y-5005770D02*
X-11332556Y-4986722D01*
X-11332556Y-4986722D02*
X-11342080Y-4977198D01*
X-11342080Y-4977198D02*
X-11361128Y-4967674D01*
X-11361128Y-4967674D02*
X-11399223Y-4967674D01*
X-11399223Y-4967674D02*
X-11418270Y-4977198D01*
X-11418270Y-4977198D02*
X-11427794Y-4986722D01*
X-11427794Y-4986722D02*
X-11437318Y-5005770D01*
X-11151604Y-4891484D02*
X-11189699Y-4891484D01*
X-11189699Y-4891484D02*
X-11208747Y-4901008D01*
X-11208747Y-4901008D02*
X-11218270Y-4910531D01*
X-11218270Y-4910531D02*
X-11237318Y-4939103D01*
X-11237318Y-4939103D02*
X-11246842Y-4977198D01*
X-11246842Y-4977198D02*
X-11246842Y-5053389D01*
X-11246842Y-5053389D02*
X-11237318Y-5072436D01*
X-11237318Y-5072436D02*
X-11227794Y-5081960D01*
X-11227794Y-5081960D02*
X-11208747Y-5091484D01*
X-11208747Y-5091484D02*
X-11170651Y-5091484D01*
X-11170651Y-5091484D02*
X-11151604Y-5081960D01*
X-11151604Y-5081960D02*
X-11142080Y-5072436D01*
X-11142080Y-5072436D02*
X-11132556Y-5053389D01*
X-11132556Y-5053389D02*
X-11132556Y-5005770D01*
X-11132556Y-5005770D02*
X-11142080Y-4986722D01*
X-11142080Y-4986722D02*
X-11151604Y-4977198D01*
X-11151604Y-4977198D02*
X-11170651Y-4967674D01*
X-11170651Y-4967674D02*
X-11208747Y-4967674D01*
X-11208747Y-4967674D02*
X-11227794Y-4977198D01*
X-11227794Y-4977198D02*
X-11237318Y-4986722D01*
X-11237318Y-4986722D02*
X-11246842Y-5005770D01*
X-11056366Y-4891484D02*
X-11056366Y-4929579D01*
X-10980175Y-4891484D02*
X-10980175Y-4929579D01*
X-10684937Y-5167674D02*
X-10694461Y-5158150D01*
X-10694461Y-5158150D02*
X-10713509Y-5129579D01*
X-10713509Y-5129579D02*
X-10723032Y-5110531D01*
X-10723032Y-5110531D02*
X-10732556Y-5081960D01*
X-10732556Y-5081960D02*
X-10742080Y-5034341D01*
X-10742080Y-5034341D02*
X-10742080Y-4996246D01*
X-10742080Y-4996246D02*
X-10732556Y-4948627D01*
X-10732556Y-4948627D02*
X-10723032Y-4920055D01*
X-10723032Y-4920055D02*
X-10713509Y-4901008D01*
X-10713509Y-4901008D02*
X-10694461Y-4872436D01*
X-10694461Y-4872436D02*
X-10684937Y-4862912D01*
X-10580175Y-4977198D02*
X-10599223Y-4967674D01*
X-10599223Y-4967674D02*
X-10608747Y-4958150D01*
X-10608747Y-4958150D02*
X-10618270Y-4939103D01*
X-10618270Y-4939103D02*
X-10618270Y-4929579D01*
X-10618270Y-4929579D02*
X-10608747Y-4910531D01*
X-10608747Y-4910531D02*
X-10599223Y-4901008D01*
X-10599223Y-4901008D02*
X-10580175Y-4891484D01*
X-10580175Y-4891484D02*
X-10542080Y-4891484D01*
X-10542080Y-4891484D02*
X-10523032Y-4901008D01*
X-10523032Y-4901008D02*
X-10513509Y-4910531D01*
X-10513509Y-4910531D02*
X-10503985Y-4929579D01*
X-10503985Y-4929579D02*
X-10503985Y-4939103D01*
X-10503985Y-4939103D02*
X-10513509Y-4958150D01*
X-10513509Y-4958150D02*
X-10523032Y-4967674D01*
X-10523032Y-4967674D02*
X-10542080Y-4977198D01*
X-10542080Y-4977198D02*
X-10580175Y-4977198D01*
X-10580175Y-4977198D02*
X-10599223Y-4986722D01*
X-10599223Y-4986722D02*
X-10608747Y-4996246D01*
X-10608747Y-4996246D02*
X-10618270Y-5015293D01*
X-10618270Y-5015293D02*
X-10618270Y-5053389D01*
X-10618270Y-5053389D02*
X-10608747Y-5072436D01*
X-10608747Y-5072436D02*
X-10599223Y-5081960D01*
X-10599223Y-5081960D02*
X-10580175Y-5091484D01*
X-10580175Y-5091484D02*
X-10542080Y-5091484D01*
X-10542080Y-5091484D02*
X-10523032Y-5081960D01*
X-10523032Y-5081960D02*
X-10513509Y-5072436D01*
X-10513509Y-5072436D02*
X-10503985Y-5053389D01*
X-10503985Y-5053389D02*
X-10503985Y-5015293D01*
X-10503985Y-5015293D02*
X-10513509Y-4996246D01*
X-10513509Y-4996246D02*
X-10523032Y-4986722D01*
X-10523032Y-4986722D02*
X-10542080Y-4977198D01*
X-10265889Y-5091484D02*
X-10265889Y-4891484D01*
X-10180175Y-5091484D02*
X-10180175Y-4986722D01*
X-10180175Y-4986722D02*
X-10189699Y-4967674D01*
X-10189699Y-4967674D02*
X-10208747Y-4958150D01*
X-10208747Y-4958150D02*
X-10237318Y-4958150D01*
X-10237318Y-4958150D02*
X-10256366Y-4967674D01*
X-10256366Y-4967674D02*
X-10265889Y-4977198D01*
X-10056366Y-5091484D02*
X-10075413Y-5081960D01*
X-10075413Y-5081960D02*
X-10084937Y-5072436D01*
X-10084937Y-5072436D02*
X-10094461Y-5053389D01*
X-10094461Y-5053389D02*
X-10094461Y-4996246D01*
X-10094461Y-4996246D02*
X-10084937Y-4977198D01*
X-10084937Y-4977198D02*
X-10075413Y-4967674D01*
X-10075413Y-4967674D02*
X-10056366Y-4958150D01*
X-10056366Y-4958150D02*
X-10027794Y-4958150D01*
X-10027794Y-4958150D02*
X-10008747Y-4967674D01*
X-10008747Y-4967674D02*
X-9999223Y-4977198D01*
X-9999223Y-4977198D02*
X-9989699Y-4996246D01*
X-9989699Y-4996246D02*
X-9989699Y-5053389D01*
X-9989699Y-5053389D02*
X-9999223Y-5072436D01*
X-9999223Y-5072436D02*
X-10008747Y-5081960D01*
X-10008747Y-5081960D02*
X-10027794Y-5091484D01*
X-10027794Y-5091484D02*
X-10056366Y-5091484D01*
X-9875413Y-5091484D02*
X-9894461Y-5081960D01*
X-9894461Y-5081960D02*
X-9903985Y-5062912D01*
X-9903985Y-5062912D02*
X-9903985Y-4891484D01*
X-9723032Y-5081960D02*
X-9742080Y-5091484D01*
X-9742080Y-5091484D02*
X-9780175Y-5091484D01*
X-9780175Y-5091484D02*
X-9799223Y-5081960D01*
X-9799223Y-5081960D02*
X-9808747Y-5062912D01*
X-9808747Y-5062912D02*
X-9808747Y-4986722D01*
X-9808747Y-4986722D02*
X-9799223Y-4967674D01*
X-9799223Y-4967674D02*
X-9780175Y-4958150D01*
X-9780175Y-4958150D02*
X-9742080Y-4958150D01*
X-9742080Y-4958150D02*
X-9723032Y-4967674D01*
X-9723032Y-4967674D02*
X-9713508Y-4986722D01*
X-9713508Y-4986722D02*
X-9713508Y-5005770D01*
X-9713508Y-5005770D02*
X-9808747Y-5024817D01*
X-9637318Y-5081960D02*
X-9618270Y-5091484D01*
X-9618270Y-5091484D02*
X-9580175Y-5091484D01*
X-9580175Y-5091484D02*
X-9561127Y-5081960D01*
X-9561127Y-5081960D02*
X-9551604Y-5062912D01*
X-9551604Y-5062912D02*
X-9551604Y-5053389D01*
X-9551604Y-5053389D02*
X-9561127Y-5034341D01*
X-9561127Y-5034341D02*
X-9580175Y-5024817D01*
X-9580175Y-5024817D02*
X-9608747Y-5024817D01*
X-9608747Y-5024817D02*
X-9627794Y-5015293D01*
X-9627794Y-5015293D02*
X-9637318Y-4996246D01*
X-9637318Y-4996246D02*
X-9637318Y-4986722D01*
X-9637318Y-4986722D02*
X-9627794Y-4967674D01*
X-9627794Y-4967674D02*
X-9608747Y-4958150D01*
X-9608747Y-4958150D02*
X-9580175Y-4958150D01*
X-9580175Y-4958150D02*
X-9561127Y-4967674D01*
X-9484937Y-5167674D02*
X-9475413Y-5158150D01*
X-9475413Y-5158150D02*
X-9456366Y-5129579D01*
X-9456366Y-5129579D02*
X-9446842Y-5110531D01*
X-9446842Y-5110531D02*
X-9437318Y-5081960D01*
X-9437318Y-5081960D02*
X-9427794Y-5034341D01*
X-9427794Y-5034341D02*
X-9427794Y-4996246D01*
X-9427794Y-4996246D02*
X-9437318Y-4948627D01*
X-9437318Y-4948627D02*
X-9446842Y-4920055D01*
X-9446842Y-4920055D02*
X-9456366Y-4901008D01*
X-9456366Y-4901008D02*
X-9475413Y-4872436D01*
X-9475413Y-4872436D02*
X-9484937Y-4862912D01*
X-9123032Y-5167674D02*
X-9132556Y-5158150D01*
X-9132556Y-5158150D02*
X-9151604Y-5129579D01*
X-9151604Y-5129579D02*
X-9161127Y-5110531D01*
X-9161127Y-5110531D02*
X-9170651Y-5081960D01*
X-9170651Y-5081960D02*
X-9180175Y-5034341D01*
X-9180175Y-5034341D02*
X-9180175Y-4996246D01*
X-9180175Y-4996246D02*
X-9170651Y-4948627D01*
X-9170651Y-4948627D02*
X-9161127Y-4920055D01*
X-9161127Y-4920055D02*
X-9151604Y-4901008D01*
X-9151604Y-4901008D02*
X-9132556Y-4872436D01*
X-9132556Y-4872436D02*
X-9123032Y-4862912D01*
X-9046842Y-4958150D02*
X-9046842Y-5091484D01*
X-9046842Y-4977198D02*
X-9037318Y-4967674D01*
X-9037318Y-4967674D02*
X-9018270Y-4958150D01*
X-9018270Y-4958150D02*
X-8989699Y-4958150D01*
X-8989699Y-4958150D02*
X-8970651Y-4967674D01*
X-8970651Y-4967674D02*
X-8961127Y-4986722D01*
X-8961127Y-4986722D02*
X-8961127Y-5091484D01*
X-8837318Y-5091484D02*
X-8856366Y-5081960D01*
X-8856366Y-5081960D02*
X-8865889Y-5072436D01*
X-8865889Y-5072436D02*
X-8875413Y-5053389D01*
X-8875413Y-5053389D02*
X-8875413Y-4996246D01*
X-8875413Y-4996246D02*
X-8865889Y-4977198D01*
X-8865889Y-4977198D02*
X-8856366Y-4967674D01*
X-8856366Y-4967674D02*
X-8837318Y-4958150D01*
X-8837318Y-4958150D02*
X-8808746Y-4958150D01*
X-8808746Y-4958150D02*
X-8789699Y-4967674D01*
X-8789699Y-4967674D02*
X-8780175Y-4977198D01*
X-8780175Y-4977198D02*
X-8770651Y-4996246D01*
X-8770651Y-4996246D02*
X-8770651Y-5053389D01*
X-8770651Y-5053389D02*
X-8780175Y-5072436D01*
X-8780175Y-5072436D02*
X-8789699Y-5081960D01*
X-8789699Y-5081960D02*
X-8808746Y-5091484D01*
X-8808746Y-5091484D02*
X-8837318Y-5091484D01*
X-8713508Y-4958150D02*
X-8637318Y-4958150D01*
X-8684937Y-4891484D02*
X-8684937Y-5062912D01*
X-8684937Y-5062912D02*
X-8675413Y-5081960D01*
X-8675413Y-5081960D02*
X-8656366Y-5091484D01*
X-8656366Y-5091484D02*
X-8637318Y-5091484D01*
X-8418270Y-4958150D02*
X-8418270Y-5158150D01*
X-8418270Y-4967674D02*
X-8399223Y-4958150D01*
X-8399223Y-4958150D02*
X-8361127Y-4958150D01*
X-8361127Y-4958150D02*
X-8342080Y-4967674D01*
X-8342080Y-4967674D02*
X-8332556Y-4977198D01*
X-8332556Y-4977198D02*
X-8323032Y-4996246D01*
X-8323032Y-4996246D02*
X-8323032Y-5053389D01*
X-8323032Y-5053389D02*
X-8332556Y-5072436D01*
X-8332556Y-5072436D02*
X-8342080Y-5081960D01*
X-8342080Y-5081960D02*
X-8361127Y-5091484D01*
X-8361127Y-5091484D02*
X-8399223Y-5091484D01*
X-8399223Y-5091484D02*
X-8418270Y-5081960D01*
X-8208746Y-5091484D02*
X-8227794Y-5081960D01*
X-8227794Y-5081960D02*
X-8237318Y-5062912D01*
X-8237318Y-5062912D02*
X-8237318Y-4891484D01*
X-8046842Y-5091484D02*
X-8046842Y-4986722D01*
X-8046842Y-4986722D02*
X-8056365Y-4967674D01*
X-8056365Y-4967674D02*
X-8075413Y-4958150D01*
X-8075413Y-4958150D02*
X-8113508Y-4958150D01*
X-8113508Y-4958150D02*
X-8132556Y-4967674D01*
X-8046842Y-5081960D02*
X-8065889Y-5091484D01*
X-8065889Y-5091484D02*
X-8113508Y-5091484D01*
X-8113508Y-5091484D02*
X-8132556Y-5081960D01*
X-8132556Y-5081960D02*
X-8142080Y-5062912D01*
X-8142080Y-5062912D02*
X-8142080Y-5043865D01*
X-8142080Y-5043865D02*
X-8132556Y-5024817D01*
X-8132556Y-5024817D02*
X-8113508Y-5015293D01*
X-8113508Y-5015293D02*
X-8065889Y-5015293D01*
X-8065889Y-5015293D02*
X-8046842Y-5005770D01*
X-7980175Y-4958150D02*
X-7903984Y-4958150D01*
X-7951603Y-4891484D02*
X-7951603Y-5062912D01*
X-7951603Y-5062912D02*
X-7942080Y-5081960D01*
X-7942080Y-5081960D02*
X-7923032Y-5091484D01*
X-7923032Y-5091484D02*
X-7903984Y-5091484D01*
X-7761127Y-5081960D02*
X-7780175Y-5091484D01*
X-7780175Y-5091484D02*
X-7818270Y-5091484D01*
X-7818270Y-5091484D02*
X-7837318Y-5081960D01*
X-7837318Y-5081960D02*
X-7846842Y-5062912D01*
X-7846842Y-5062912D02*
X-7846842Y-4986722D01*
X-7846842Y-4986722D02*
X-7837318Y-4967674D01*
X-7837318Y-4967674D02*
X-7818270Y-4958150D01*
X-7818270Y-4958150D02*
X-7780175Y-4958150D01*
X-7780175Y-4958150D02*
X-7761127Y-4967674D01*
X-7761127Y-4967674D02*
X-7751603Y-4986722D01*
X-7751603Y-4986722D02*
X-7751603Y-5005770D01*
X-7751603Y-5005770D02*
X-7846842Y-5024817D01*
X-7580175Y-5091484D02*
X-7580175Y-4891484D01*
X-7580175Y-5081960D02*
X-7599222Y-5091484D01*
X-7599222Y-5091484D02*
X-7637318Y-5091484D01*
X-7637318Y-5091484D02*
X-7656365Y-5081960D01*
X-7656365Y-5081960D02*
X-7665889Y-5072436D01*
X-7665889Y-5072436D02*
X-7675413Y-5053389D01*
X-7675413Y-5053389D02*
X-7675413Y-4996246D01*
X-7675413Y-4996246D02*
X-7665889Y-4977198D01*
X-7665889Y-4977198D02*
X-7656365Y-4967674D01*
X-7656365Y-4967674D02*
X-7637318Y-4958150D01*
X-7637318Y-4958150D02*
X-7599222Y-4958150D01*
X-7599222Y-4958150D02*
X-7580175Y-4967674D01*
X-7503984Y-5167674D02*
X-7494461Y-5158150D01*
X-7494461Y-5158150D02*
X-7475413Y-5129579D01*
X-7475413Y-5129579D02*
X-7465889Y-5110531D01*
X-7465889Y-5110531D02*
X-7456365Y-5081960D01*
X-7456365Y-5081960D02*
X-7446842Y-5034341D01*
X-7446842Y-5034341D02*
X-7446842Y-4996246D01*
X-7446842Y-4996246D02*
X-7456365Y-4948627D01*
X-7456365Y-4948627D02*
X-7465889Y-4920055D01*
X-7465889Y-4920055D02*
X-7475413Y-4901008D01*
X-7475413Y-4901008D02*
X-7494461Y-4872436D01*
X-7494461Y-4872436D02*
X-7503984Y-4862912D01*
M02*
