G04 #@! TF.GenerationSoftware,KiCad,Pcbnew,8.0.4*
G04 #@! TF.CreationDate,2025-02-17T12:03:11+11:00*
G04 #@! TF.ProjectId,LGS_FrontPCB,4c47535f-4672-46f6-9e74-5043422e6b69,rev?*
G04 #@! TF.SameCoordinates,Original*
G04 #@! TF.FileFunction,Copper,L2,Bot*
G04 #@! TF.FilePolarity,Positive*
%FSLAX46Y46*%
G04 Gerber Fmt 4.6, Leading zero omitted, Abs format (unit mm)*
G04 Created by KiCad (PCBNEW 8.0.4) date 2025-02-17 12:03:11*
%MOMM*%
%LPD*%
G01*
G04 APERTURE LIST*
G04 Aperture macros list*
%AMRoundRect*
0 Rectangle with rounded corners*
0 $1 Rounding radius*
0 $2 $3 $4 $5 $6 $7 $8 $9 X,Y pos of 4 corners*
0 Add a 4 corners polygon primitive as box body*
4,1,4,$2,$3,$4,$5,$6,$7,$8,$9,$2,$3,0*
0 Add four circle primitives for the rounded corners*
1,1,$1+$1,$2,$3*
1,1,$1+$1,$4,$5*
1,1,$1+$1,$6,$7*
1,1,$1+$1,$8,$9*
0 Add four rect primitives between the rounded corners*
20,1,$1+$1,$2,$3,$4,$5,0*
20,1,$1+$1,$4,$5,$6,$7,0*
20,1,$1+$1,$6,$7,$8,$9,0*
20,1,$1+$1,$8,$9,$2,$3,0*%
G04 Aperture macros list end*
G04 #@! TA.AperFunction,SMDPad,CuDef*
%ADD10RoundRect,0.375000X-0.132905X-1.178383X0.600706X-1.022449X0.132905X1.178383X-0.600706X1.022449X0*%
G04 #@! TD*
G04 #@! TA.AperFunction,SMDPad,CuDef*
%ADD11RoundRect,0.375000X0.156120X-1.175532X0.830215X-0.846754X-0.156120X1.175532X-0.830215X0.846754X0*%
G04 #@! TD*
G04 #@! TA.AperFunction,SMDPad,CuDef*
%ADD12RoundRect,0.375000X0.011695X-1.185796X0.720834X-0.941620X-0.011695X1.185796X-0.720834X0.941620X0*%
G04 #@! TD*
G04 #@! TA.AperFunction,ViaPad*
%ADD13C,0.600000*%
G04 #@! TD*
G04 #@! TA.AperFunction,ViaPad*
%ADD14C,1.000000*%
G04 #@! TD*
G04 #@! TA.AperFunction,Conductor*
%ADD15C,0.200000*%
G04 #@! TD*
G04 #@! TA.AperFunction,Conductor*
%ADD16C,1.000000*%
G04 #@! TD*
G04 APERTURE END LIST*
D10*
X36387000Y7734000D03*
D11*
X33435000Y16307000D03*
D12*
X35173000Y12111000D03*
D13*
X33435000Y16307000D03*
X35173000Y12111000D03*
X36387000Y7734000D03*
X-54600000Y-2897749D03*
D14*
X37200000Y2500000D03*
X39300000Y7700000D03*
D13*
X-131550784Y-23893310D03*
X-75166054Y-32519600D03*
X-73789853Y31437859D03*
X-130437860Y25310146D03*
X-128149449Y-27874997D03*
X-139298226Y924999D03*
X-139138861Y-4343817D03*
X-98113224Y40361212D03*
X-126898231Y29176192D03*
X-138829398Y6165611D03*
X-135858815Y16289498D03*
X-60298226Y-11275001D03*
X-82698226Y36924999D03*
X-61392518Y14588331D03*
X-58881102Y4361679D03*
X-69798226Y27924999D03*
X-134422087Y-19406098D03*
X-94629400Y-40015630D03*
X-103317822Y40058945D03*
X-63648769Y19411773D03*
X-59798226Y9524999D03*
X-79611515Y-35324488D03*
X-137723829Y11369334D03*
X-87698226Y38724999D03*
X-133474384Y20982368D03*
X-84417861Y-37522330D03*
X-105138857Y-39806178D03*
X-89397071Y-39215862D03*
X-99934441Y-40311215D03*
X-58698226Y-875001D03*
X-118384983Y35374447D03*
X-110340861Y-38651158D03*
X-59198226Y-6175001D03*
X-138142580Y-9549391D03*
X-136545547Y-14555396D03*
X-92798226Y39924999D03*
X-64584953Y-20924492D03*
X-62078607Y-16222336D03*
X-119955591Y-34451158D03*
X-115245542Y-36794600D03*
X-78048771Y34538251D03*
X-108572636Y39169334D03*
X-113625940Y37652716D03*
X-71099999Y-29150003D03*
X-39831172Y6140612D03*
X-38725603Y11344335D03*
X-36860589Y16264499D03*
X-34476158Y20957369D03*
X-27900005Y29151193D03*
X-23893323Y32550756D03*
X-19386757Y35349448D03*
X-14627714Y37627717D03*
X-9574410Y39144335D03*
X-4319596Y40033946D03*
X885002Y40336213D03*
X6200000Y39900000D03*
X11300000Y38700000D03*
X16300000Y36900000D03*
X20949455Y34513252D03*
X29200000Y27900000D03*
X32500000Y23800000D03*
X35349457Y19386774D03*
X37605708Y14563332D03*
X39200000Y9500000D03*
X40117124Y4336680D03*
X40300000Y-900000D03*
X39800000Y-6200000D03*
X38700000Y-11300000D03*
X36919619Y-16247335D03*
X34413273Y-20949491D03*
X31400000Y-25200000D03*
X27898227Y-29175002D03*
X19386711Y-35349487D03*
X14580365Y-37547329D03*
X9601155Y-39240861D03*
X4368826Y-40040629D03*
X-936215Y-40336214D03*
X-6140631Y-39831177D03*
X-11342635Y-38676157D03*
X-16247316Y-36819599D03*
X-20957365Y-34476157D03*
X-25250779Y-31406683D03*
X-29151223Y-27899996D03*
X-35423861Y-19431097D03*
X-37547321Y-14580395D03*
X-39144354Y-9574390D03*
X-40140635Y-4368816D03*
X-40300000Y900000D03*
X-37900000Y1900000D03*
X-44000000Y2302449D03*
D15*
X-46797551Y2302449D02*
X-51997749Y-2897749D01*
X-44000000Y2302449D02*
X-46797551Y2302449D01*
X-51997749Y-2897749D02*
X-54600000Y-2897749D01*
D16*
X37200000Y5771245D02*
X37200000Y2500000D01*
X36387000Y7734000D02*
G75*
G02*
X37200018Y5771245I-1962800J-1962800D01*
G01*
X39217917Y7734000D02*
G75*
G02*
X39299995Y7699995I-17J-116100D01*
G01*
X36387000Y7734000D02*
X39217917Y7734000D01*
D15*
X-33936877Y13726056D02*
X-33459270Y14852391D01*
X-14852391Y33459270D02*
X-13726056Y33936877D01*
X13726056Y33936877D02*
X14852391Y33459270D01*
X22204336Y29104702D02*
X23164452Y28346506D01*
X23164452Y28346506D02*
X24098718Y27556633D01*
X-29830418Y21219386D02*
X-29104702Y22204336D01*
X-37900000Y1900000D02*
X-37897527Y2058074D01*
X32770025Y16307000D02*
X33435000Y16307000D01*
X-37897527Y2058074D02*
X-37895267Y2196270D01*
X5484891Y36194367D02*
X6691248Y35990880D01*
X-37895267Y2196270D02*
X-37859191Y2470296D01*
X-37859191Y2470296D02*
X-37787656Y2737270D01*
X-37787656Y2737270D02*
X-37681885Y2992622D01*
X-33459270Y14852391D02*
X-32944297Y15962128D01*
X-10260180Y35140361D02*
X-9080240Y35463579D01*
X25006055Y26735996D02*
X25885480Y25885480D01*
X-37681885Y2992622D02*
X-37543690Y3231984D01*
X-37543690Y3231984D02*
X-37375434Y3451260D01*
X-31804578Y18126917D02*
X-31181106Y19179542D01*
X-611703Y36602487D02*
X611703Y36602487D01*
X-37375434Y3451260D02*
X-37279312Y3550577D01*
X-4272378Y36357435D02*
X-3055129Y36479891D01*
X-37279312Y3550577D02*
X-36326346Y4503543D01*
X-36326346Y4503543D02*
X-36194367Y5484891D01*
X-36194367Y5484891D02*
X-35990880Y6691248D01*
X-35990880Y6691248D02*
X-35747194Y7890143D01*
X-35747194Y7890143D02*
X-35463579Y9080240D01*
X-35463579Y9080240D02*
X-35140361Y10260180D01*
X12584376Y34376586D02*
X13726056Y33936877D01*
X14852391Y33459270D02*
X15962128Y32944297D01*
X-35140361Y10260180D02*
X-34777893Y11428669D01*
X-34777893Y11428669D02*
X-34376586Y12584376D01*
X17054058Y32392520D02*
X18126917Y31804578D01*
X-34376586Y12584376D02*
X-33936877Y13726056D01*
X-9080240Y35463579D02*
X-7890143Y35747194D01*
X-32944297Y15962128D02*
X-32392520Y17054058D01*
X-28346506Y23164452D02*
X-27556633Y24098718D01*
X11428669Y34777893D02*
X12584376Y34376586D01*
X-32392520Y17054058D02*
X-31804578Y18126917D01*
X-31181106Y19179542D02*
X-30522802Y20210760D01*
X-18126917Y31804578D02*
X-17054058Y32392520D01*
X-5484891Y36194367D02*
X-4272378Y36357435D01*
X-30522802Y20210760D02*
X-29830418Y21219386D01*
X-13726056Y33936877D02*
X-12584376Y34376586D01*
X-29104702Y22204336D02*
X-28346506Y23164452D01*
X-25885480Y25885480D02*
X-25006055Y26735996D01*
X-27556633Y24098718D02*
X-26735996Y25006055D01*
X-11428669Y34777893D02*
X-10260180Y35140361D01*
X-3055129Y36479891D02*
X-1834441Y36561606D01*
X30522802Y20210760D02*
X31181106Y19179542D01*
X-26735996Y25006055D02*
X-25885480Y25885480D01*
X-6691248Y35990880D02*
X-5484891Y36194367D01*
X-25006055Y26735996D02*
X-24098718Y27556633D01*
X-24098718Y27556633D02*
X-23164452Y28346506D01*
X-23164452Y28346506D02*
X-22204336Y29104702D01*
X-22204336Y29104702D02*
X-21219386Y29830418D01*
X-21219386Y29830418D02*
X-20210760Y30522802D01*
X-20210760Y30522802D02*
X-19179542Y31181106D01*
X-19179542Y31181106D02*
X-18126917Y31804578D01*
X27556633Y24098718D02*
X28346506Y23164452D01*
X-17054058Y32392520D02*
X-15962128Y32944297D01*
X-15962128Y32944297D02*
X-14852391Y33459270D01*
X-12584376Y34376586D02*
X-11428669Y34777893D01*
X-7890143Y35747194D02*
X-6691248Y35990880D01*
X-1834441Y36561606D02*
X-611703Y36602487D01*
X611703Y36602487D02*
X1834441Y36561606D01*
X1834441Y36561606D02*
X3055129Y36479891D01*
X3055129Y36479891D02*
X4272378Y36357435D01*
X4272378Y36357435D02*
X5484891Y36194367D01*
X6691248Y35990880D02*
X7890143Y35747194D01*
X31181106Y19179542D02*
X31804578Y18126917D01*
X7890143Y35747194D02*
X9080240Y35463579D01*
X9080240Y35463579D02*
X10260180Y35140361D01*
X10260180Y35140361D02*
X11428669Y34777893D01*
X18126917Y31804578D02*
X19179542Y31181106D01*
X15962128Y32944297D02*
X17054058Y32392520D01*
X19179542Y31181106D02*
X20210760Y30522802D01*
X25885480Y25885480D02*
X26735996Y25006055D01*
X20210760Y30522802D02*
X21219386Y29830418D01*
X21219386Y29830418D02*
X22204336Y29104702D01*
X24098718Y27556633D02*
X25006055Y26735996D01*
X26735996Y25006055D02*
X27556633Y24098718D01*
X28346506Y23164452D02*
X29104702Y22204336D01*
X29104702Y22204336D02*
X29830418Y21219386D01*
X29830418Y21219386D02*
X30522802Y20210760D01*
X31804578Y18126917D02*
X32392520Y17054058D01*
X32392520Y17054058D02*
X32770025Y16307000D01*
G04 #@! TA.AperFunction,Conductor*
G36*
X977386Y43188395D02*
G01*
X983410Y43188259D01*
X2284462Y43139009D01*
X2290479Y43138690D01*
X3589455Y43050071D01*
X3595459Y43049569D01*
X4891072Y42921675D01*
X4897058Y42920993D01*
X6188285Y42753924D01*
X6194249Y42753060D01*
X7479765Y42546985D01*
X7485699Y42545942D01*
X8764445Y42301032D01*
X8770345Y42299809D01*
X10041063Y42016305D01*
X10046923Y42014904D01*
X11308484Y41693058D01*
X11314299Y41691480D01*
X12565518Y41331593D01*
X12571283Y41329840D01*
X13811037Y40932237D01*
X13816745Y40930311D01*
X15043924Y40495348D01*
X15049572Y40493249D01*
X16262998Y40021341D01*
X16268580Y40019072D01*
X17467133Y39510657D01*
X17472644Y39508221D01*
X18655332Y38963719D01*
X18660766Y38961116D01*
X19826343Y38381101D01*
X19831696Y38378336D01*
X20979246Y37763263D01*
X20984513Y37760336D01*
X22112886Y37110822D01*
X22118062Y37107737D01*
X23226229Y36424374D01*
X23231309Y36421135D01*
X24318317Y35704513D01*
X24323297Y35701121D01*
X25381096Y34956855D01*
X25440371Y34891052D01*
X25465225Y34806048D01*
X25450736Y34718678D01*
X25399774Y34646247D01*
X25322431Y34603100D01*
X25297714Y34597553D01*
X25270238Y34593201D01*
X25194757Y34581246D01*
X24992588Y34515557D01*
X24992584Y34515555D01*
X24992581Y34515554D01*
X24894589Y34465624D01*
X24803184Y34419051D01*
X24685688Y34333685D01*
X24631210Y34294106D01*
X24480893Y34143789D01*
X24421523Y34062071D01*
X24355949Y33971816D01*
X24355947Y33971812D01*
X24259445Y33782418D01*
X24259441Y33782407D01*
X24193756Y33580251D01*
X24193752Y33580234D01*
X24184713Y33523163D01*
X24160544Y33370561D01*
X24160500Y33370286D01*
X24160500Y33157713D01*
X24193752Y32947765D01*
X24193756Y32947748D01*
X24259441Y32745592D01*
X24259445Y32745581D01*
X24355947Y32556187D01*
X24480893Y32384210D01*
X24631210Y32233893D01*
X24803187Y32108947D01*
X24992581Y32012445D01*
X24992592Y32012441D01*
X25194748Y31946756D01*
X25194765Y31946752D01*
X25404713Y31913500D01*
X25617287Y31913500D01*
X25827234Y31946752D01*
X25827241Y31946753D01*
X25827243Y31946754D01*
X25827244Y31946754D01*
X25827251Y31946756D01*
X26029407Y32012441D01*
X26029418Y32012445D01*
X26218812Y32108947D01*
X26218816Y32108949D01*
X26309071Y32174523D01*
X26390789Y32233893D01*
X26541106Y32384210D01*
X26580685Y32438688D01*
X26666051Y32556184D01*
X26712624Y32647589D01*
X26762554Y32745581D01*
X26762558Y32745592D01*
X26763084Y32747209D01*
X26828246Y32947757D01*
X26861500Y33157713D01*
X26861500Y33370287D01*
X26859020Y33385944D01*
X26864975Y33474306D01*
X26908681Y33551334D01*
X26981479Y33601771D01*
X27068951Y33615628D01*
X27153774Y33590159D01*
X27179721Y33572601D01*
X27456905Y33351329D01*
X27461556Y33347499D01*
X28453991Y32504818D01*
X28458525Y32500849D01*
X29425016Y31628488D01*
X29429427Y31624383D01*
X30369078Y30723148D01*
X30373363Y30718913D01*
X31285267Y29789678D01*
X31289421Y29785314D01*
X32172792Y28828880D01*
X32176813Y28824392D01*
X33030816Y27841660D01*
X33034699Y27837053D01*
X33858583Y26828888D01*
X33862324Y26824165D01*
X34655278Y25791559D01*
X34658875Y25786725D01*
X35420209Y24730581D01*
X35423658Y24725641D01*
X36152682Y23646911D01*
X36155980Y23641868D01*
X36851998Y22541585D01*
X36855142Y22536445D01*
X37517553Y21415556D01*
X37520539Y21410323D01*
X38148687Y20269940D01*
X38151514Y20264619D01*
X38744854Y19105734D01*
X38747519Y19100330D01*
X39305528Y17923959D01*
X39308027Y17918476D01*
X39830128Y16725838D01*
X39832461Y16720283D01*
X40318247Y15512309D01*
X40320410Y15506685D01*
X40769386Y14284606D01*
X40771378Y14278920D01*
X41183159Y13043781D01*
X41184978Y13038036D01*
X41559172Y11791012D01*
X41560816Y11785216D01*
X41897088Y10527431D01*
X41898556Y10521587D01*
X42196597Y9254189D01*
X42197887Y9248304D01*
X42457416Y7972493D01*
X42458528Y7966571D01*
X42679323Y6683429D01*
X42680254Y6677476D01*
X42862089Y5388332D01*
X42862841Y5382354D01*
X43005576Y4088182D01*
X43006145Y4082184D01*
X43109629Y2784373D01*
X43110017Y2778360D01*
X43174164Y1477986D01*
X43174370Y1471964D01*
X43199118Y170218D01*
X43199141Y164193D01*
X43184471Y-1137669D01*
X43184312Y-1143693D01*
X43130234Y-2444523D01*
X43129893Y-2450538D01*
X43036459Y-3749142D01*
X43035936Y-3755145D01*
X42903227Y-5050343D01*
X42902522Y-5056327D01*
X42730665Y-6346900D01*
X42729779Y-6352860D01*
X42518929Y-7637636D01*
X42517863Y-7643566D01*
X42268221Y-8921336D01*
X42266977Y-8927231D01*
X41978752Y-10196921D01*
X41977329Y-10202776D01*
X41650810Y-11463111D01*
X41649211Y-11468920D01*
X41284671Y-12718834D01*
X41282896Y-12724592D01*
X40880709Y-13962822D01*
X40878762Y-13968524D01*
X40439240Y-15194101D01*
X40437120Y-15199741D01*
X39960724Y-16411377D01*
X39958435Y-16416951D01*
X39445553Y-17613663D01*
X39443096Y-17619164D01*
X38894229Y-18799782D01*
X38891606Y-18805207D01*
X38307249Y-19968663D01*
X38304464Y-19974005D01*
X37685158Y-21119227D01*
X37682211Y-21124484D01*
X37028519Y-22250429D01*
X37025416Y-22255593D01*
X36337916Y-23361266D01*
X36334657Y-23366334D01*
X35614011Y-24450666D01*
X35610600Y-24455633D01*
X34857476Y-25517624D01*
X34853917Y-25522486D01*
X34068949Y-26561241D01*
X34065244Y-26565992D01*
X33249215Y-27580472D01*
X33245368Y-27585109D01*
X32398996Y-28574427D01*
X32395010Y-28578946D01*
X31519068Y-29542193D01*
X31514947Y-29546589D01*
X30610249Y-30482871D01*
X30605997Y-30487140D01*
X29673368Y-31395605D01*
X29668989Y-31399743D01*
X28709297Y-32279545D01*
X28704795Y-32283549D01*
X27718885Y-33133914D01*
X27714263Y-33137780D01*
X27181156Y-33570151D01*
X27101682Y-33609233D01*
X27013122Y-33609963D01*
X26933015Y-33572195D01*
X26877229Y-33503411D01*
X26856811Y-33417233D01*
X26859255Y-33384459D01*
X26861500Y-33370286D01*
X26861500Y-33157713D01*
X26828247Y-32947765D01*
X26828246Y-32947757D01*
X26762557Y-32745588D01*
X26762555Y-32745584D01*
X26762554Y-32745581D01*
X26712624Y-32647589D01*
X26666051Y-32556184D01*
X26580685Y-32438688D01*
X26541106Y-32384210D01*
X26390789Y-32233893D01*
X26309071Y-32174523D01*
X26218816Y-32108949D01*
X26212223Y-32105590D01*
X26029418Y-32012445D01*
X26029407Y-32012441D01*
X25827251Y-31946756D01*
X25827234Y-31946752D01*
X25617287Y-31913500D01*
X25404713Y-31913500D01*
X25194765Y-31946752D01*
X25194748Y-31946756D01*
X24992592Y-32012441D01*
X24992581Y-32012445D01*
X24803187Y-32108947D01*
X24631210Y-32233893D01*
X24480893Y-32384210D01*
X24355947Y-32556187D01*
X24259445Y-32745581D01*
X24259441Y-32745592D01*
X24193756Y-32947748D01*
X24193752Y-32947765D01*
X24160500Y-33157713D01*
X24160500Y-33370286D01*
X24193752Y-33580234D01*
X24193756Y-33580251D01*
X24259441Y-33782407D01*
X24259445Y-33782418D01*
X24329791Y-33920478D01*
X24355949Y-33971816D01*
X24379399Y-34004092D01*
X24480893Y-34143789D01*
X24631210Y-34294106D01*
X24662932Y-34317153D01*
X24803184Y-34419051D01*
X24894589Y-34465624D01*
X24992581Y-34515554D01*
X24992584Y-34515555D01*
X24992588Y-34515557D01*
X25194757Y-34581246D01*
X25292530Y-34596731D01*
X25374725Y-34629702D01*
X25434477Y-34695072D01*
X25459948Y-34779893D01*
X25446094Y-34867366D01*
X25395659Y-34940166D01*
X25377167Y-34955141D01*
X24598972Y-35511736D01*
X24594019Y-35515167D01*
X23512585Y-36240187D01*
X23507530Y-36243466D01*
X22404647Y-36935411D01*
X22399495Y-36938535D01*
X21276194Y-37596760D01*
X21270950Y-37599727D01*
X20128258Y-38223632D01*
X20122927Y-38226440D01*
X18961796Y-38815501D01*
X18956382Y-38818145D01*
X17777988Y-39371766D01*
X17772496Y-39374245D01*
X16577901Y-39891929D01*
X16572337Y-39894241D01*
X15362579Y-40375537D01*
X15356947Y-40377679D01*
X14133220Y-40822112D01*
X14127527Y-40824083D01*
X12890879Y-41231275D01*
X12885128Y-41233073D01*
X11636684Y-41602649D01*
X11630881Y-41604271D01*
X10371904Y-41935860D01*
X10366055Y-41937307D01*
X9097530Y-42230650D01*
X9091640Y-42231918D01*
X7814881Y-42486709D01*
X7808955Y-42487799D01*
X6525007Y-42703830D01*
X6519051Y-42704739D01*
X5229204Y-42881794D01*
X5223222Y-42882523D01*
X3928606Y-43020447D01*
X3922606Y-43020995D01*
X2624353Y-43119667D01*
X2618339Y-43120032D01*
X1317770Y-43179350D01*
X1311747Y-43179534D01*
X9919Y-43199452D01*
X3894Y-43199453D01*
X-1297940Y-43179951D01*
X-1303962Y-43179769D01*
X-2604547Y-43120867D01*
X-2610562Y-43120504D01*
X-3908849Y-43022247D01*
X-3914849Y-43021701D01*
X-5209509Y-42884191D01*
X-5215491Y-42883464D01*
X-6505428Y-42706817D01*
X-6511384Y-42705909D01*
X-7795369Y-42490293D01*
X-7801295Y-42489205D01*
X-9078129Y-42234824D01*
X-9084020Y-42233558D01*
X-10352608Y-41940629D01*
X-10358458Y-41939185D01*
X-11617610Y-41607980D01*
X-11623413Y-41606359D01*
X-12871944Y-41237191D01*
X-12877695Y-41235395D01*
X-14114455Y-40828605D01*
X-14120150Y-40826636D01*
X-15344068Y-40382576D01*
X-15349700Y-40380435D01*
X-16559571Y-39899542D01*
X-16565136Y-39897232D01*
X-17759910Y-39379924D01*
X-17765402Y-39377447D01*
X-18943987Y-38824196D01*
X-18949402Y-38821553D01*
X-20110670Y-38232888D01*
X-20116002Y-38230083D01*
X-21258919Y-37606531D01*
X-21264165Y-37603565D01*
X-22387700Y-36945685D01*
X-22392852Y-36942563D01*
X-23495956Y-36250971D01*
X-23501012Y-36247693D01*
X-24582640Y-35523044D01*
X-24587595Y-35519615D01*
X-25646814Y-34762533D01*
X-25651662Y-34758956D01*
X-26687481Y-33970152D01*
X-26692219Y-33966429D01*
X-27703661Y-33146644D01*
X-27708284Y-33142780D01*
X-28694486Y-32292713D01*
X-28698989Y-32288710D01*
X-29658944Y-31409231D01*
X-29663325Y-31405094D01*
X-30596244Y-30496928D01*
X-30600497Y-30492661D01*
X-31505511Y-29556651D01*
X-31509633Y-29552256D01*
X-32385851Y-28589323D01*
X-32389838Y-28584806D01*
X-33236557Y-27595725D01*
X-33240406Y-27591089D01*
X-33521167Y-27242278D01*
X-33559954Y-27162660D01*
X-33560355Y-27074097D01*
X-33522291Y-26994131D01*
X-33453300Y-26938600D01*
X-33367047Y-26918502D01*
X-33366146Y-26918500D01*
X-33214713Y-26918500D01*
X-33004757Y-26885246D01*
X-32802588Y-26819557D01*
X-32802584Y-26819555D01*
X-32802581Y-26819554D01*
X-32704589Y-26769624D01*
X-32613184Y-26723051D01*
X-32495688Y-26637685D01*
X-32441210Y-26598106D01*
X-32290893Y-26447789D01*
X-32231523Y-26366071D01*
X-32165949Y-26275816D01*
X-32162590Y-26269223D01*
X-32069445Y-26086418D01*
X-32069441Y-26086407D01*
X-32003756Y-25884251D01*
X-32003752Y-25884234D01*
X-31970500Y-25674286D01*
X-31970500Y-25461713D01*
X-32003752Y-25251765D01*
X-32003756Y-25251748D01*
X-32069441Y-25049592D01*
X-32069445Y-25049581D01*
X-32165947Y-24860187D01*
X-32290893Y-24688210D01*
X-32441210Y-24537893D01*
X-32613187Y-24412947D01*
X-32802581Y-24316445D01*
X-32802592Y-24316441D01*
X-33004748Y-24250756D01*
X-33004765Y-24250752D01*
X-33214713Y-24217500D01*
X-33427287Y-24217500D01*
X-33637234Y-24250752D01*
X-33637251Y-24250756D01*
X-33839407Y-24316441D01*
X-33839418Y-24316445D01*
X-34022223Y-24409590D01*
X-34028816Y-24412949D01*
X-34103214Y-24467002D01*
X-34200789Y-24537893D01*
X-34351106Y-24688210D01*
X-34356299Y-24695358D01*
X-34476051Y-24860184D01*
X-34522624Y-24951589D01*
X-34572554Y-25049581D01*
X-34572558Y-25049592D01*
X-34638245Y-25251753D01*
X-34639027Y-25255011D01*
X-34639830Y-25256632D01*
X-34640662Y-25259192D01*
X-34641037Y-25259069D01*
X-34678342Y-25334369D01*
X-34748197Y-25388810D01*
X-34834755Y-25407551D01*
X-34920872Y-25386879D01*
X-34989492Y-25330890D01*
X-34994819Y-25323730D01*
X-35602789Y-24467002D01*
X-35606201Y-24462036D01*
X-36327194Y-23377934D01*
X-36330454Y-23372867D01*
X-37018286Y-22267448D01*
X-37021391Y-22262285D01*
X-37675455Y-21136529D01*
X-37678403Y-21131274D01*
X-38298084Y-19986235D01*
X-38300849Y-19980935D01*
X-38885587Y-18817649D01*
X-38888211Y-18812225D01*
X-39437463Y-17631771D01*
X-39439922Y-17626270D01*
X-39953180Y-16429735D01*
X-39955471Y-16424162D01*
X-40432266Y-15212648D01*
X-40434387Y-15207009D01*
X-40874280Y-13981631D01*
X-40876230Y-13975930D01*
X-41278836Y-12737759D01*
X-41280612Y-12732001D01*
X-41645538Y-11482243D01*
X-41647139Y-11476435D01*
X-41974065Y-10216198D01*
X-41975490Y-10210343D01*
X-42254361Y-8983673D01*
X-42257598Y-8965624D01*
X-42258297Y-8960331D01*
X-42265068Y-8935094D01*
X-42267558Y-8924709D01*
X-42274632Y-8891260D01*
X-42278315Y-8881636D01*
X-42284654Y-8862100D01*
X-42403250Y-8420111D01*
X-42406691Y-8404941D01*
X-42410351Y-8385267D01*
X-42414029Y-8373973D01*
X-42418562Y-8363041D01*
X-42428585Y-8345695D01*
X-42435833Y-8331936D01*
X-42494307Y-8209559D01*
X-42500692Y-8194664D01*
X-42504746Y-8184031D01*
X-42517682Y-8160075D01*
X-42522131Y-8151327D01*
X-42533875Y-8126750D01*
X-42540083Y-8117205D01*
X-42548357Y-8103272D01*
X-42598472Y-8010469D01*
X-42605700Y-7995647D01*
X-42609896Y-7986051D01*
X-42624163Y-7962416D01*
X-42628891Y-7954140D01*
X-42641990Y-7929883D01*
X-42648113Y-7921416D01*
X-42657216Y-7907659D01*
X-42713320Y-7814717D01*
X-42721382Y-7799992D01*
X-42725597Y-7791455D01*
X-42741154Y-7768196D01*
X-42746102Y-7760413D01*
X-42760558Y-7736466D01*
X-42766505Y-7729021D01*
X-42776417Y-7715476D01*
X-42840216Y-7620094D01*
X-42847997Y-7605581D01*
X-42848402Y-7605816D01*
X-42854947Y-7594528D01*
X-42868918Y-7576387D01*
X-42876655Y-7565615D01*
X-42889371Y-7546606D01*
X-42897978Y-7536801D01*
X-42897625Y-7536491D01*
X-42908895Y-7524483D01*
X-43218362Y-7122693D01*
X-43232753Y-7101265D01*
X-43236317Y-7095133D01*
X-43236321Y-7095126D01*
X-43240982Y-7090493D01*
X-43258312Y-7070825D01*
X-43262315Y-7065628D01*
X-43262321Y-7065622D01*
X-43267960Y-7061311D01*
X-43287399Y-7044342D01*
X-43311065Y-7020812D01*
X-43323107Y-7007509D01*
X-43348098Y-6983901D01*
X-43351728Y-6980383D01*
X-43375276Y-6956973D01*
X-43375276Y-6956972D01*
X-43376137Y-6956117D01*
X-43389806Y-6944503D01*
X-43465921Y-6872603D01*
X-43479560Y-6858376D01*
X-43480386Y-6857423D01*
X-43504065Y-6836435D01*
X-43508711Y-6832183D01*
X-43531737Y-6810432D01*
X-43532763Y-6809691D01*
X-43548142Y-6797364D01*
X-43548143Y-6797363D01*
X-43628689Y-6725966D01*
X-43642900Y-6712041D01*
X-43643425Y-6711471D01*
X-43667904Y-6691081D01*
X-43672535Y-6687102D01*
X-43696426Y-6665925D01*
X-43697071Y-6665490D01*
X-43712981Y-6653532D01*
X-43797954Y-6582752D01*
X-43812714Y-6569139D01*
X-43812937Y-6568911D01*
X-43838218Y-6549098D01*
X-43842821Y-6545379D01*
X-43867507Y-6524817D01*
X-43867773Y-6524650D01*
X-43884192Y-6513071D01*
X-43972840Y-6443601D01*
X-43985506Y-6432790D01*
X-43992810Y-6426006D01*
X-44015458Y-6409921D01*
X-44022963Y-6404321D01*
X-44044859Y-6387163D01*
X-44053443Y-6382089D01*
X-44067403Y-6373028D01*
X-44538941Y-6038132D01*
X-44559064Y-6021126D01*
X-44562677Y-6018352D01*
X-44576686Y-6010257D01*
X-44592335Y-6000210D01*
X-44605520Y-5990846D01*
X-44609539Y-5988719D01*
X-44633378Y-5977499D01*
X-44664511Y-5959510D01*
X-44674268Y-5954782D01*
X-44788002Y-5891274D01*
X-44802043Y-5882412D01*
X-44833577Y-5865762D01*
X-44837671Y-5863539D01*
X-44868814Y-5846149D01*
X-44883888Y-5839197D01*
X-44971615Y-5792877D01*
X-44984654Y-5785051D01*
X-45017734Y-5768476D01*
X-45021494Y-5766541D01*
X-45054212Y-5749266D01*
X-45068165Y-5743206D01*
X-45158330Y-5698028D01*
X-45171365Y-5690575D01*
X-45204954Y-5674618D01*
X-45208696Y-5672792D01*
X-45241976Y-5656118D01*
X-45255858Y-5650435D01*
X-45348457Y-5606444D01*
X-45361480Y-5599355D01*
X-45395570Y-5584016D01*
X-45399298Y-5582293D01*
X-45433071Y-5566249D01*
X-45446891Y-5560926D01*
X-45541882Y-5518186D01*
X-45558496Y-5509754D01*
X-45562122Y-5507694D01*
X-45590194Y-5496298D01*
X-45596981Y-5493394D01*
X-45624593Y-5480971D01*
X-45628591Y-5479770D01*
X-45646162Y-5473579D01*
X-45927664Y-5359305D01*
X-46247387Y-5229514D01*
X-46263756Y-5221087D01*
X-46274545Y-5216081D01*
X-46292741Y-5210381D01*
X-46308094Y-5204870D01*
X-46325745Y-5197705D01*
X-46338370Y-5194418D01*
X-46338362Y-5194387D01*
X-46350351Y-5191867D01*
X-46381680Y-5182505D01*
X-46384170Y-5181742D01*
X-46388684Y-5180329D01*
X-46424604Y-5169077D01*
X-46434107Y-5166837D01*
X-46543231Y-5134225D01*
X-46556498Y-5129441D01*
X-46593183Y-5119257D01*
X-46596920Y-5118180D01*
X-46633425Y-5107271D01*
X-46647207Y-5104260D01*
X-46758138Y-5073465D01*
X-46771435Y-5068963D01*
X-46774791Y-5068101D01*
X-46774792Y-5068101D01*
X-46808470Y-5059454D01*
X-46812188Y-5058461D01*
X-46848914Y-5048265D01*
X-46862669Y-5045540D01*
X-46975053Y-5016688D01*
X-46988367Y-5012468D01*
X-47025559Y-5003685D01*
X-47029296Y-5002764D01*
X-47066322Y-4993259D01*
X-47080080Y-4990811D01*
X-47193828Y-4963949D01*
X-47207164Y-4960004D01*
X-47244541Y-4951936D01*
X-47248280Y-4951091D01*
X-47285576Y-4942284D01*
X-47299319Y-4940112D01*
X-47414513Y-4915247D01*
X-47432985Y-4910320D01*
X-47435667Y-4909464D01*
X-47454379Y-4906098D01*
X-47466129Y-4903985D01*
X-47472871Y-4902652D01*
X-47503075Y-4896132D01*
X-47505863Y-4895904D01*
X-47524831Y-4893427D01*
X-48189685Y-4773853D01*
X-48206120Y-4769309D01*
X-48206139Y-4769386D01*
X-48218827Y-4766406D01*
X-48238755Y-4764411D01*
X-48254142Y-4762261D01*
X-48273872Y-4758713D01*
X-48286902Y-4758100D01*
X-48286894Y-4757949D01*
X-48299182Y-4757928D01*
X-48331828Y-4755077D01*
X-48334330Y-4754843D01*
X-48376866Y-4750586D01*
X-48386310Y-4750321D01*
X-48503239Y-4740113D01*
X-48516796Y-4738160D01*
X-48555179Y-4735542D01*
X-48558937Y-4735250D01*
X-48597304Y-4731900D01*
X-48611000Y-4731734D01*
X-48728551Y-4723714D01*
X-48742111Y-4722022D01*
X-48780585Y-4720127D01*
X-48784327Y-4719907D01*
X-48822765Y-4717286D01*
X-48836427Y-4717378D01*
X-48954201Y-4711579D01*
X-48967772Y-4710147D01*
X-49006328Y-4708977D01*
X-49010071Y-4708828D01*
X-49048534Y-4706935D01*
X-49062171Y-4707285D01*
X-49180100Y-4703709D01*
X-49193679Y-4702535D01*
X-49232225Y-4702093D01*
X-49235964Y-4702015D01*
X-49274520Y-4700847D01*
X-49288122Y-4701454D01*
X-49405741Y-4700108D01*
X-49414296Y-4699500D01*
X-49421212Y-4699500D01*
X-49457902Y-4699500D01*
X-49460173Y-4699487D01*
X-49462965Y-4699455D01*
X-49493001Y-4699111D01*
X-49495085Y-4698974D01*
X-49497741Y-4699005D01*
X-49502259Y-4699005D01*
X-49504914Y-4698974D01*
X-49506998Y-4699111D01*
X-49536981Y-4699454D01*
X-49539826Y-4699487D01*
X-49542098Y-4699500D01*
X-49585743Y-4699500D01*
X-49594292Y-4700109D01*
X-49711876Y-4701454D01*
X-49725489Y-4700848D01*
X-49764032Y-4702015D01*
X-49767772Y-4702093D01*
X-49806324Y-4702535D01*
X-49819901Y-4703709D01*
X-49937828Y-4707285D01*
X-49951472Y-4706935D01*
X-49989925Y-4708828D01*
X-49993669Y-4708977D01*
X-50032233Y-4710147D01*
X-50045799Y-4711579D01*
X-50163570Y-4717378D01*
X-50177233Y-4717287D01*
X-50180901Y-4717537D01*
X-50180902Y-4717537D01*
X-50215670Y-4719908D01*
X-50219402Y-4720127D01*
X-50254211Y-4721842D01*
X-50257901Y-4722024D01*
X-50271445Y-4723714D01*
X-50388997Y-4731734D01*
X-50402701Y-4731901D01*
X-50441063Y-4735251D01*
X-50444824Y-4735543D01*
X-50483212Y-4738162D01*
X-50496757Y-4740113D01*
X-50613693Y-4750322D01*
X-50623137Y-4750587D01*
X-50665701Y-4754847D01*
X-50668211Y-4755082D01*
X-50700824Y-4757929D01*
X-50713107Y-4757950D01*
X-50713100Y-4758100D01*
X-50726133Y-4758713D01*
X-50745856Y-4762260D01*
X-50761240Y-4764410D01*
X-50781164Y-4766405D01*
X-50793870Y-4769389D01*
X-50793888Y-4769311D01*
X-50810319Y-4773854D01*
X-51475164Y-4893426D01*
X-51494127Y-4895902D01*
X-51496921Y-4896131D01*
X-51527114Y-4902648D01*
X-51533870Y-4903985D01*
X-51564328Y-4909463D01*
X-51567007Y-4910318D01*
X-51585486Y-4915247D01*
X-51700678Y-4940112D01*
X-51714436Y-4942287D01*
X-51751719Y-4951091D01*
X-51755436Y-4951931D01*
X-51770947Y-4955279D01*
X-51792846Y-4960006D01*
X-51806175Y-4963950D01*
X-51919918Y-4990810D01*
X-51933674Y-4993259D01*
X-51954419Y-4998585D01*
X-51970720Y-5002769D01*
X-51974396Y-5003675D01*
X-52008232Y-5011666D01*
X-52011649Y-5012473D01*
X-52024960Y-5016694D01*
X-52137331Y-5045541D01*
X-52151093Y-5048268D01*
X-52187851Y-5058471D01*
X-52191587Y-5059469D01*
X-52228547Y-5068958D01*
X-52241844Y-5073460D01*
X-52352789Y-5104259D01*
X-52366576Y-5107272D01*
X-52403060Y-5118175D01*
X-52406805Y-5119254D01*
X-52443505Y-5129442D01*
X-52456774Y-5134226D01*
X-52565880Y-5166833D01*
X-52575386Y-5169074D01*
X-52591687Y-5174180D01*
X-52615896Y-5181764D01*
X-52618321Y-5182506D01*
X-52649631Y-5191863D01*
X-52661635Y-5194385D01*
X-52661627Y-5194417D01*
X-52674251Y-5197703D01*
X-52691919Y-5204875D01*
X-52707268Y-5210384D01*
X-52725455Y-5216082D01*
X-52736252Y-5221092D01*
X-52752604Y-5229510D01*
X-53353834Y-5473577D01*
X-53371405Y-5479769D01*
X-53375411Y-5480973D01*
X-53403053Y-5493409D01*
X-53409846Y-5496315D01*
X-53437869Y-5507691D01*
X-53441494Y-5509750D01*
X-53458105Y-5518180D01*
X-53553102Y-5560923D01*
X-53566953Y-5566260D01*
X-53600730Y-5582305D01*
X-53604455Y-5584028D01*
X-53638534Y-5599363D01*
X-53651538Y-5606442D01*
X-53744150Y-5650439D01*
X-53758040Y-5656127D01*
X-53791287Y-5672785D01*
X-53795035Y-5674614D01*
X-53812477Y-5682900D01*
X-53826040Y-5689344D01*
X-53826041Y-5689345D01*
X-53828649Y-5690584D01*
X-53841678Y-5698034D01*
X-53931826Y-5743203D01*
X-53945780Y-5749264D01*
X-53948215Y-5750549D01*
X-53948216Y-5750550D01*
X-53960165Y-5756859D01*
X-53978502Y-5766541D01*
X-53982272Y-5768480D01*
X-54015342Y-5785049D01*
X-54028389Y-5792881D01*
X-54086589Y-5823611D01*
X-54116114Y-5839200D01*
X-54131195Y-5846155D01*
X-54162307Y-5863528D01*
X-54166409Y-5865756D01*
X-54197954Y-5882411D01*
X-54211996Y-5891274D01*
X-54325717Y-5954776D01*
X-54335456Y-5959494D01*
X-54366612Y-5977496D01*
X-54390464Y-5988721D01*
X-54394471Y-5990842D01*
X-54394473Y-5990843D01*
X-54394477Y-5990845D01*
X-54407663Y-6000210D01*
X-54423327Y-6010266D01*
X-54437321Y-6018352D01*
X-54440934Y-6021126D01*
X-54461058Y-6038132D01*
X-54932590Y-6373024D01*
X-54946557Y-6382090D01*
X-54955149Y-6387169D01*
X-54977039Y-6404322D01*
X-54984548Y-6409926D01*
X-55007191Y-6426008D01*
X-55014488Y-6432785D01*
X-55027157Y-6443599D01*
X-55115812Y-6513075D01*
X-55132234Y-6524655D01*
X-55132488Y-6524815D01*
X-55144885Y-6535142D01*
X-55157164Y-6545370D01*
X-55161755Y-6549079D01*
X-55187053Y-6568905D01*
X-55187059Y-6568910D01*
X-55187062Y-6568914D01*
X-55187266Y-6569122D01*
X-55202048Y-6582757D01*
X-55287012Y-6653530D01*
X-55302948Y-6665505D01*
X-55303570Y-6665925D01*
X-55303572Y-6665927D01*
X-55303574Y-6665928D01*
X-55327450Y-6687092D01*
X-55332035Y-6691032D01*
X-55356575Y-6711473D01*
X-55356576Y-6711475D01*
X-55357086Y-6712027D01*
X-55371319Y-6725976D01*
X-55451855Y-6797363D01*
X-55467251Y-6809703D01*
X-55468261Y-6810433D01*
X-55491274Y-6832172D01*
X-55495903Y-6836409D01*
X-55519606Y-6857418D01*
X-55520421Y-6858357D01*
X-55534081Y-6872607D01*
X-55610189Y-6944500D01*
X-55623866Y-6956120D01*
X-55648266Y-6980380D01*
X-55651922Y-6983923D01*
X-55676901Y-7007518D01*
X-55688942Y-7020822D01*
X-55712597Y-7044340D01*
X-55732045Y-7061315D01*
X-55737681Y-7065623D01*
X-55737681Y-7065624D01*
X-55737683Y-7065625D01*
X-55741685Y-7070821D01*
X-55759022Y-7090498D01*
X-55763678Y-7095127D01*
X-55767239Y-7101254D01*
X-55781629Y-7122681D01*
X-55807635Y-7156446D01*
X-56091101Y-7524480D01*
X-56102376Y-7536493D01*
X-56102024Y-7536803D01*
X-56110625Y-7546600D01*
X-56123343Y-7565614D01*
X-56131091Y-7576400D01*
X-56145053Y-7594528D01*
X-56151598Y-7605817D01*
X-56152005Y-7605580D01*
X-56159781Y-7620092D01*
X-56223592Y-7715492D01*
X-56233509Y-7729042D01*
X-56239442Y-7736470D01*
X-56253877Y-7760384D01*
X-56258841Y-7768192D01*
X-56274399Y-7791451D01*
X-56278608Y-7799976D01*
X-56286682Y-7814726D01*
X-56342770Y-7907641D01*
X-56351878Y-7921405D01*
X-56358008Y-7929882D01*
X-56371123Y-7954168D01*
X-56375857Y-7962452D01*
X-56390102Y-7986049D01*
X-56394291Y-7995631D01*
X-56401520Y-8010458D01*
X-56451641Y-8103272D01*
X-56459916Y-8117205D01*
X-56466121Y-8126746D01*
X-56466122Y-8126749D01*
X-56466124Y-8126751D01*
X-56466124Y-8126752D01*
X-56477868Y-8151330D01*
X-56482306Y-8160059D01*
X-56495251Y-8184029D01*
X-56495251Y-8184031D01*
X-56499295Y-8194637D01*
X-56505685Y-8209544D01*
X-56528169Y-8256601D01*
X-56564166Y-8331937D01*
X-56571414Y-8345695D01*
X-56581435Y-8363037D01*
X-56581437Y-8363044D01*
X-56585977Y-8373994D01*
X-56589645Y-8385259D01*
X-56589648Y-8385264D01*
X-56593311Y-8404956D01*
X-56596747Y-8420104D01*
X-56715344Y-8862100D01*
X-56721690Y-8881654D01*
X-56725363Y-8891255D01*
X-56725368Y-8891263D01*
X-56729632Y-8911429D01*
X-56732438Y-8924695D01*
X-56734928Y-8935086D01*
X-56741703Y-8960334D01*
X-56741703Y-8960338D01*
X-56742399Y-8965607D01*
X-56745637Y-8983671D01*
X-57024517Y-10210378D01*
X-57025925Y-10216162D01*
X-57352860Y-11476435D01*
X-57354461Y-11482243D01*
X-57719387Y-12732001D01*
X-57721163Y-12737759D01*
X-58123769Y-13975930D01*
X-58125712Y-13981612D01*
X-58560978Y-15194101D01*
X-58565612Y-15207009D01*
X-58567724Y-15212626D01*
X-58880116Y-16006399D01*
X-59044528Y-16424162D01*
X-59046819Y-16429735D01*
X-59560093Y-17626306D01*
X-59562520Y-17631736D01*
X-59953041Y-18471045D01*
X-60111788Y-18812225D01*
X-60114393Y-18817611D01*
X-60699176Y-19980987D01*
X-60701892Y-19986192D01*
X-61321617Y-21131312D01*
X-61324534Y-21136511D01*
X-61436831Y-21329794D01*
X-61978608Y-22262285D01*
X-61981713Y-22267448D01*
X-62001518Y-22299277D01*
X-62662326Y-23361266D01*
X-62669545Y-23372867D01*
X-62672805Y-23377934D01*
X-63393798Y-24462036D01*
X-63397210Y-24467002D01*
X-64005180Y-25323730D01*
X-64071221Y-25382739D01*
X-64156325Y-25407251D01*
X-64243636Y-25392410D01*
X-64315861Y-25341156D01*
X-64358695Y-25263640D01*
X-64360968Y-25255028D01*
X-64361752Y-25251760D01*
X-64427441Y-25049592D01*
X-64427445Y-25049581D01*
X-64523947Y-24860187D01*
X-64648893Y-24688210D01*
X-64799210Y-24537893D01*
X-64971187Y-24412947D01*
X-65160581Y-24316445D01*
X-65160592Y-24316441D01*
X-65362748Y-24250756D01*
X-65362765Y-24250752D01*
X-65572713Y-24217500D01*
X-65785287Y-24217500D01*
X-65995234Y-24250752D01*
X-65995251Y-24250756D01*
X-66197407Y-24316441D01*
X-66197418Y-24316445D01*
X-66380223Y-24409590D01*
X-66386816Y-24412949D01*
X-66461214Y-24467002D01*
X-66558789Y-24537893D01*
X-66709106Y-24688210D01*
X-66714299Y-24695358D01*
X-66834051Y-24860184D01*
X-66880624Y-24951589D01*
X-66930554Y-25049581D01*
X-66930555Y-25049584D01*
X-66930557Y-25049588D01*
X-66996246Y-25251757D01*
X-67029500Y-25461713D01*
X-67029500Y-25674287D01*
X-66996246Y-25884243D01*
X-66930557Y-26086412D01*
X-66834051Y-26275816D01*
X-66709104Y-26447792D01*
X-66558792Y-26598104D01*
X-66386816Y-26723051D01*
X-66197412Y-26819557D01*
X-65995243Y-26885246D01*
X-65785287Y-26918500D01*
X-65633853Y-26918500D01*
X-65547510Y-26938207D01*
X-65478269Y-26993426D01*
X-65439842Y-27073218D01*
X-65439842Y-27161782D01*
X-65478269Y-27241574D01*
X-65478775Y-27242207D01*
X-65752937Y-27582820D01*
X-65759593Y-27591089D01*
X-65763442Y-27595725D01*
X-66610161Y-28584806D01*
X-66614148Y-28589323D01*
X-67490366Y-29552256D01*
X-67494488Y-29556651D01*
X-68399502Y-30492661D01*
X-68403755Y-30496928D01*
X-69336674Y-31405094D01*
X-69341055Y-31409231D01*
X-70301010Y-32288710D01*
X-70305513Y-32292713D01*
X-71291715Y-33142780D01*
X-71296338Y-33146644D01*
X-72307798Y-33966443D01*
X-72312500Y-33970138D01*
X-72478671Y-34096682D01*
X-73348337Y-34758956D01*
X-73353185Y-34762533D01*
X-73622659Y-34955141D01*
X-74412422Y-35519628D01*
X-74417341Y-35523031D01*
X-74986296Y-35904210D01*
X-75498987Y-36247693D01*
X-75504043Y-36250971D01*
X-76607147Y-36942563D01*
X-76612299Y-36945685D01*
X-77735834Y-37603565D01*
X-77741080Y-37606531D01*
X-78883997Y-38230083D01*
X-78889329Y-38232888D01*
X-80050597Y-38821553D01*
X-80056012Y-38824196D01*
X-81234597Y-39377447D01*
X-81240089Y-39379924D01*
X-82434863Y-39897232D01*
X-82440428Y-39899542D01*
X-83650299Y-40380435D01*
X-83655931Y-40382576D01*
X-84879849Y-40826636D01*
X-84885544Y-40828605D01*
X-86122304Y-41235395D01*
X-86128055Y-41237191D01*
X-87376586Y-41606359D01*
X-87382389Y-41607980D01*
X-88634401Y-41937307D01*
X-88641541Y-41939185D01*
X-88647391Y-41940629D01*
X-89915979Y-42233558D01*
X-89921870Y-42234824D01*
X-91198704Y-42489205D01*
X-91204630Y-42490293D01*
X-92488615Y-42705909D01*
X-92494571Y-42706817D01*
X-93784508Y-42883464D01*
X-93790490Y-42884191D01*
X-95085150Y-43021701D01*
X-95091150Y-43022247D01*
X-96389437Y-43120504D01*
X-96395452Y-43120867D01*
X-97696037Y-43179769D01*
X-97702059Y-43179951D01*
X-99003894Y-43199453D01*
X-99009919Y-43199452D01*
X-100311747Y-43179534D01*
X-100317770Y-43179350D01*
X-101618339Y-43120032D01*
X-101624353Y-43119667D01*
X-102922606Y-43020995D01*
X-102928606Y-43020447D01*
X-104223222Y-42882523D01*
X-104229204Y-42881794D01*
X-105519051Y-42704739D01*
X-105525007Y-42703830D01*
X-106808955Y-42487799D01*
X-106814881Y-42486709D01*
X-108091640Y-42231918D01*
X-108097530Y-42230650D01*
X-109366055Y-41937307D01*
X-109371904Y-41935860D01*
X-110630881Y-41604271D01*
X-110636684Y-41602649D01*
X-111885128Y-41233073D01*
X-111890879Y-41231275D01*
X-113127527Y-40824083D01*
X-113133220Y-40822112D01*
X-114356947Y-40377679D01*
X-114362579Y-40375537D01*
X-115572337Y-39894241D01*
X-115577901Y-39891929D01*
X-116772496Y-39374245D01*
X-116777988Y-39371766D01*
X-117956382Y-38818145D01*
X-117961796Y-38815501D01*
X-119122927Y-38226440D01*
X-119128258Y-38223632D01*
X-120270950Y-37599727D01*
X-120276194Y-37596760D01*
X-121399495Y-36938535D01*
X-121404647Y-36935411D01*
X-122507530Y-36243466D01*
X-122512585Y-36240187D01*
X-123594019Y-35515167D01*
X-123598972Y-35511736D01*
X-124387501Y-34947750D01*
X-124446265Y-34881491D01*
X-124470461Y-34796297D01*
X-124455296Y-34709041D01*
X-124403774Y-34637007D01*
X-124326100Y-34594461D01*
X-124302866Y-34589341D01*
X-124251757Y-34581246D01*
X-124049588Y-34515557D01*
X-124049584Y-34515555D01*
X-124049581Y-34515554D01*
X-123951589Y-34465624D01*
X-123860184Y-34419051D01*
X-123719932Y-34317153D01*
X-123688210Y-34294106D01*
X-123537893Y-34143789D01*
X-123436399Y-34004092D01*
X-123412949Y-33971816D01*
X-123386791Y-33920478D01*
X-123316445Y-33782418D01*
X-123316441Y-33782407D01*
X-123250756Y-33580251D01*
X-123250752Y-33580234D01*
X-123217500Y-33370286D01*
X-123217500Y-33157713D01*
X-123250752Y-32947765D01*
X-123250756Y-32947748D01*
X-123316441Y-32745592D01*
X-123316445Y-32745581D01*
X-123412947Y-32556187D01*
X-123537893Y-32384210D01*
X-123688210Y-32233893D01*
X-123860187Y-32108947D01*
X-124049581Y-32012445D01*
X-124049592Y-32012441D01*
X-124251748Y-31946756D01*
X-124251765Y-31946752D01*
X-124461713Y-31913500D01*
X-124674287Y-31913500D01*
X-124884234Y-31946752D01*
X-124884251Y-31946756D01*
X-125086407Y-32012441D01*
X-125086418Y-32012445D01*
X-125269223Y-32105590D01*
X-125275816Y-32108949D01*
X-125366071Y-32174523D01*
X-125447789Y-32233893D01*
X-125598106Y-32384210D01*
X-125637685Y-32438688D01*
X-125723051Y-32556184D01*
X-125769624Y-32647589D01*
X-125819554Y-32745581D01*
X-125819555Y-32745584D01*
X-125819557Y-32745588D01*
X-125885246Y-32947757D01*
X-125885247Y-32947765D01*
X-125918500Y-33157713D01*
X-125918500Y-33365556D01*
X-125938207Y-33451899D01*
X-125993426Y-33521140D01*
X-126073218Y-33559567D01*
X-126161782Y-33559567D01*
X-126241574Y-33521140D01*
X-126242852Y-33520113D01*
X-126714263Y-33137780D01*
X-126718885Y-33133914D01*
X-127704795Y-32283549D01*
X-127709297Y-32279545D01*
X-128668989Y-31399743D01*
X-128673368Y-31395605D01*
X-129605997Y-30487140D01*
X-129610249Y-30482871D01*
X-130514947Y-29546589D01*
X-130519068Y-29542193D01*
X-131395010Y-28578946D01*
X-131398996Y-28574427D01*
X-132245368Y-27585109D01*
X-132249215Y-27580472D01*
X-133065244Y-26565992D01*
X-133068949Y-26561241D01*
X-133853917Y-25522486D01*
X-133857476Y-25517624D01*
X-134610600Y-24455633D01*
X-134614011Y-24450666D01*
X-135334657Y-23366334D01*
X-135337916Y-23361266D01*
X-136025416Y-22255593D01*
X-136028519Y-22250429D01*
X-136682211Y-21124484D01*
X-136685158Y-21119227D01*
X-137304464Y-19974005D01*
X-137307249Y-19968663D01*
X-137891606Y-18805207D01*
X-137894229Y-18799782D01*
X-138443096Y-17619164D01*
X-138445553Y-17613663D01*
X-138958435Y-16416951D01*
X-138960724Y-16411377D01*
X-139437120Y-15199741D01*
X-139439240Y-15194101D01*
X-139878762Y-13968524D01*
X-139880709Y-13962822D01*
X-140282896Y-12724592D01*
X-140284671Y-12718834D01*
X-140649211Y-11468920D01*
X-140650810Y-11463111D01*
X-140977329Y-10202776D01*
X-140978752Y-10196921D01*
X-141266977Y-8927231D01*
X-141268221Y-8921336D01*
X-141517863Y-7643566D01*
X-141518929Y-7637636D01*
X-141729779Y-6352860D01*
X-141730665Y-6346900D01*
X-141902522Y-5056327D01*
X-141903227Y-5050343D01*
X-142035936Y-3755145D01*
X-142036459Y-3749142D01*
X-142129893Y-2450538D01*
X-142130234Y-2444523D01*
X-142184312Y-1143693D01*
X-142184471Y-1137669D01*
X-142197291Y0D01*
X-135305463Y0D01*
X-135285613Y-1200381D01*
X-135285612Y-1200393D01*
X-135226086Y-2399452D01*
X-135222351Y-2444523D01*
X-135126946Y-3595894D01*
X-134988301Y-4788406D01*
X-134810304Y-5975683D01*
X-134593149Y-7156425D01*
X-134337073Y-8329342D01*
X-134042356Y-9493150D01*
X-133709322Y-10646578D01*
X-133338333Y-11788365D01*
X-132961129Y-12830678D01*
X-132929789Y-12917278D01*
X-132505443Y-13978786D01*
X-132484157Y-14032031D01*
X-132001903Y-15131458D01*
X-131483563Y-16214340D01*
X-131374459Y-16424162D01*
X-130929699Y-17279496D01*
X-130732996Y-17629038D01*
X-130340926Y-18325747D01*
X-129717880Y-19351964D01*
X-129061244Y-20357020D01*
X-128371737Y-21339816D01*
X-127650112Y-22299277D01*
X-126897158Y-23234354D01*
X-126897147Y-23234366D01*
X-126897142Y-23234373D01*
X-126783490Y-23366334D01*
X-126113700Y-24144025D01*
X-125300592Y-25027295D01*
X-124458726Y-25883197D01*
X-123589021Y-26710797D01*
X-122692428Y-27509189D01*
X-121769928Y-28277500D01*
X-120822529Y-29014890D01*
X-119851268Y-29720553D01*
X-118857206Y-30393717D01*
X-117841431Y-31033645D01*
X-116805052Y-31639639D01*
X-115749205Y-32211035D01*
X-114675042Y-32747209D01*
X-113583738Y-33247575D01*
X-112476488Y-33711584D01*
X-111354501Y-34138731D01*
X-110219005Y-34528547D01*
X-109071241Y-34880607D01*
X-107912464Y-35194525D01*
X-106743942Y-35469959D01*
X-105566952Y-35706607D01*
X-104857833Y-35824937D01*
X-104382794Y-35904208D01*
X-104382784Y-35904209D01*
X-104382780Y-35904210D01*
X-103192723Y-36062553D01*
X-101998081Y-36181461D01*
X-100800161Y-36260806D01*
X-100114510Y-36283488D01*
X-99600279Y-36300500D01*
X-99600273Y-36300500D01*
X-98399721Y-36300500D01*
X-97845932Y-36282179D01*
X-97199839Y-36260806D01*
X-96001919Y-36181461D01*
X-94807277Y-36062553D01*
X-93617220Y-35904210D01*
X-93617219Y-35904209D01*
X-93617205Y-35904208D01*
X-92906370Y-35785590D01*
X-92433048Y-35706607D01*
X-91256058Y-35469959D01*
X-90087536Y-35194525D01*
X-88928759Y-34880607D01*
X-88885591Y-34867366D01*
X-88543822Y-34762533D01*
X-87780995Y-34528547D01*
X-86645499Y-34138731D01*
X-85523512Y-33711584D01*
X-84416262Y-33247575D01*
X-83762336Y-32947748D01*
X-83324955Y-32747208D01*
X-82942261Y-32556184D01*
X-82250795Y-32211035D01*
X-81194948Y-31639639D01*
X-80793826Y-31405094D01*
X-80158570Y-31033646D01*
X-79142797Y-30393719D01*
X-78148719Y-29720544D01*
X-77177477Y-29014895D01*
X-76230083Y-28277509D01*
X-75408742Y-27593449D01*
X-75307572Y-27509189D01*
X-75307566Y-27509183D01*
X-75307558Y-27509177D01*
X-74543447Y-26828756D01*
X-74410979Y-26710797D01*
X-73541274Y-25883197D01*
X-72699408Y-25027295D01*
X-71886300Y-24144025D01*
X-71886299Y-24144024D01*
X-71886289Y-24144013D01*
X-71102857Y-23234373D01*
X-70874750Y-22951092D01*
X-70349888Y-22299277D01*
X-70317032Y-22255593D01*
X-69628261Y-21339813D01*
X-68938765Y-20357034D01*
X-68282122Y-19351968D01*
X-67659062Y-18325728D01*
X-67070300Y-17279496D01*
X-66516436Y-16214339D01*
X-65998104Y-15131475D01*
X-65515834Y-14032012D01*
X-65070210Y-12917278D01*
X-64661660Y-11788346D01*
X-64290680Y-10646587D01*
X-63957647Y-9493163D01*
X-63805224Y-8891260D01*
X-63662927Y-8329342D01*
X-63651251Y-8275863D01*
X-63406855Y-7156446D01*
X-63404745Y-7144976D01*
X-63192485Y-5990846D01*
X-63189695Y-5975678D01*
X-63011699Y-4788412D01*
X-62873051Y-3595868D01*
X-62815203Y-2897749D01*
X-55305645Y-2897749D01*
X-55285140Y-3066621D01*
X-55224818Y-3225679D01*
X-55128183Y-3365678D01*
X-55000852Y-3478483D01*
X-54889584Y-3536881D01*
X-54850228Y-3557538D01*
X-54850225Y-3557538D01*
X-54850225Y-3557539D01*
X-54685056Y-3598249D01*
X-54685054Y-3598249D01*
X-54514946Y-3598249D01*
X-54514944Y-3598249D01*
X-54349775Y-3557539D01*
X-54349774Y-3557538D01*
X-54349771Y-3557538D01*
X-54274461Y-3518011D01*
X-54199148Y-3478483D01*
X-54165071Y-3448294D01*
X-54087377Y-3405791D01*
X-54033112Y-3398249D01*
X-51931859Y-3398249D01*
X-51931857Y-3398249D01*
X-51804563Y-3364141D01*
X-51690435Y-3298249D01*
X-46648523Y1743663D01*
X-46573535Y1790782D01*
X-46507809Y1801949D01*
X-44566888Y1801949D01*
X-44480545Y1782242D01*
X-44434928Y1751904D01*
X-44400852Y1721715D01*
X-44371529Y1706325D01*
X-44250228Y1642659D01*
X-44151123Y1618233D01*
X-44085056Y1601949D01*
X-44085054Y1601949D01*
X-43914946Y1601949D01*
X-43914944Y1601949D01*
X-43848933Y1618219D01*
X-43749771Y1642659D01*
X-43599152Y1721713D01*
X-43599148Y1721715D01*
X-43599146Y1721716D01*
X-43599144Y1721718D01*
X-43471818Y1834518D01*
X-43471817Y1834519D01*
X-43426618Y1900000D01*
X-38605645Y1900000D01*
X-38585140Y1731128D01*
X-38585139Y1731126D01*
X-38585139Y1731124D01*
X-38535221Y1599500D01*
X-38524818Y1572070D01*
X-38428183Y1432071D01*
X-38300852Y1319266D01*
X-38258086Y1296820D01*
X-38150228Y1240210D01*
X-38051123Y1215784D01*
X-37985056Y1199500D01*
X-37985054Y1199500D01*
X-37814946Y1199500D01*
X-37814944Y1199500D01*
X-37759887Y1213070D01*
X-37649771Y1240210D01*
X-37499152Y1319264D01*
X-37499148Y1319266D01*
X-37499146Y1319267D01*
X-37499144Y1319269D01*
X-37371818Y1432069D01*
X-37371817Y1432070D01*
X-37275183Y1572067D01*
X-37275180Y1572072D01*
X-37214860Y1731124D01*
X-37214860Y1731126D01*
X-37194355Y1900000D01*
X-37214860Y2068873D01*
X-37214860Y2068875D01*
X-37275179Y2227925D01*
X-37275184Y2227934D01*
X-37317149Y2288731D01*
X-37349979Y2370985D01*
X-37345594Y2453279D01*
X-37316077Y2563440D01*
X-37307709Y2588092D01*
X-37237023Y2758739D01*
X-37225511Y2782083D01*
X-37133169Y2942025D01*
X-37118708Y2963668D01*
X-37002780Y3114750D01*
X-36987896Y3132003D01*
X-36923604Y3198431D01*
X-36921324Y3200749D01*
X-36474739Y3647334D01*
X-36399751Y3694453D01*
X-36311744Y3704369D01*
X-36228151Y3675118D01*
X-36165527Y3612494D01*
X-36136276Y3528901D01*
X-36135705Y3490187D01*
X-36226086Y2399452D01*
X-36228256Y2355738D01*
X-36285613Y1200381D01*
X-36305463Y0D01*
X-36285613Y-1200381D01*
X-36285612Y-1200393D01*
X-36226086Y-2399452D01*
X-36222351Y-2444523D01*
X-36126946Y-3595894D01*
X-35988301Y-4788406D01*
X-35810304Y-5975683D01*
X-35593149Y-7156425D01*
X-35337073Y-8329342D01*
X-35042356Y-9493150D01*
X-34709322Y-10646578D01*
X-34338333Y-11788365D01*
X-33961129Y-12830678D01*
X-33929789Y-12917278D01*
X-33505443Y-13978786D01*
X-33484157Y-14032031D01*
X-33001903Y-15131458D01*
X-32483563Y-16214340D01*
X-32374459Y-16424162D01*
X-31929699Y-17279496D01*
X-31732996Y-17629038D01*
X-31340926Y-18325747D01*
X-30717880Y-19351964D01*
X-30061244Y-20357020D01*
X-29371737Y-21339816D01*
X-28650112Y-22299277D01*
X-27897158Y-23234354D01*
X-27897147Y-23234366D01*
X-27897142Y-23234373D01*
X-27783490Y-23366334D01*
X-27113700Y-24144025D01*
X-26300592Y-25027295D01*
X-25458726Y-25883197D01*
X-24589021Y-26710797D01*
X-23692428Y-27509189D01*
X-22769928Y-28277500D01*
X-21822529Y-29014890D01*
X-20851268Y-29720553D01*
X-19857206Y-30393717D01*
X-18841431Y-31033645D01*
X-17805052Y-31639639D01*
X-16749205Y-32211035D01*
X-15675042Y-32747209D01*
X-14583738Y-33247575D01*
X-13476488Y-33711584D01*
X-12354501Y-34138731D01*
X-11219005Y-34528547D01*
X-10071241Y-34880607D01*
X-8912464Y-35194525D01*
X-7743942Y-35469959D01*
X-6566952Y-35706607D01*
X-5857833Y-35824937D01*
X-5382794Y-35904208D01*
X-5382784Y-35904209D01*
X-5382780Y-35904210D01*
X-4192723Y-36062553D01*
X-2998081Y-36181461D01*
X-1800161Y-36260806D01*
X-1114510Y-36283488D01*
X-600279Y-36300500D01*
X-600273Y-36300500D01*
X600279Y-36300500D01*
X1114510Y-36283488D01*
X1800161Y-36260806D01*
X2998081Y-36181461D01*
X4192723Y-36062553D01*
X5382780Y-35904210D01*
X5382784Y-35904209D01*
X5382794Y-35904208D01*
X5857833Y-35824937D01*
X6566952Y-35706607D01*
X7743942Y-35469959D01*
X8912464Y-35194525D01*
X10071241Y-34880607D01*
X11219005Y-34528547D01*
X12354501Y-34138731D01*
X13476488Y-33711584D01*
X14583738Y-33247575D01*
X15675042Y-32747209D01*
X16749205Y-32211035D01*
X17805052Y-31639639D01*
X18841431Y-31033645D01*
X19857206Y-30393717D01*
X20851268Y-29720553D01*
X21822529Y-29014890D01*
X22769928Y-28277500D01*
X23692428Y-27509189D01*
X24589021Y-26710797D01*
X25458726Y-25883197D01*
X26300592Y-25027295D01*
X27113700Y-24144025D01*
X27783490Y-23366334D01*
X27897142Y-23234373D01*
X27897147Y-23234366D01*
X27897158Y-23234354D01*
X28650112Y-22299277D01*
X29371737Y-21339816D01*
X30061244Y-20357020D01*
X30717880Y-19351964D01*
X31340926Y-18325747D01*
X31732996Y-17629038D01*
X31929699Y-17279496D01*
X32374459Y-16424162D01*
X32483563Y-16214340D01*
X33001903Y-15131458D01*
X33484157Y-14032031D01*
X33505443Y-13978786D01*
X33929789Y-12917278D01*
X33961129Y-12830678D01*
X34338333Y-11788365D01*
X34709322Y-10646578D01*
X35042356Y-9493150D01*
X35337073Y-8329342D01*
X35593149Y-7156425D01*
X35810304Y-5975683D01*
X35988301Y-4788406D01*
X36126946Y-3595894D01*
X36222351Y-2444523D01*
X36226086Y-2399452D01*
X36285612Y-1200393D01*
X36285613Y-1200381D01*
X36305463Y0D01*
X36285613Y1200381D01*
X36262336Y1669252D01*
X36277738Y1756465D01*
X36329455Y1828359D01*
X36407244Y1870694D01*
X36495698Y1875086D01*
X36577298Y1840663D01*
X36593976Y1827223D01*
X36600700Y1822338D01*
X36624430Y1802071D01*
X36625966Y1800534D01*
X36625968Y1800533D01*
X36681772Y1763244D01*
X36688174Y1758782D01*
X36747268Y1715849D01*
X36747269Y1715848D01*
X36748078Y1715489D01*
X36764691Y1706328D01*
X36764833Y1706594D01*
X36773454Y1701986D01*
X36842111Y1673547D01*
X36846895Y1671492D01*
X36902432Y1646765D01*
X36920197Y1638856D01*
X36920200Y1638855D01*
X36922416Y1638135D01*
X36933206Y1635357D01*
X36937327Y1634107D01*
X37017214Y1618216D01*
X37019761Y1617692D01*
X37105354Y1599500D01*
X37294646Y1599500D01*
X37380251Y1617695D01*
X37382800Y1618219D01*
X37462667Y1634105D01*
X37466776Y1635352D01*
X37477571Y1638131D01*
X37479800Y1638855D01*
X37479803Y1638856D01*
X37509408Y1652037D01*
X37553098Y1671489D01*
X37557883Y1673545D01*
X37626543Y1701985D01*
X37635163Y1706593D01*
X37635305Y1706325D01*
X37651931Y1715493D01*
X37652724Y1715846D01*
X37652728Y1715848D01*
X37652730Y1715849D01*
X37673755Y1731124D01*
X37711811Y1758773D01*
X37718217Y1763238D01*
X37774033Y1800534D01*
X37774042Y1800542D01*
X37775562Y1802062D01*
X37799299Y1822337D01*
X37800741Y1823385D01*
X37805871Y1827112D01*
X37849944Y1876060D01*
X37857097Y1883598D01*
X37899464Y1925965D01*
X37904682Y1933775D01*
X37922259Y1956374D01*
X37932532Y1967783D01*
X37932533Y1967784D01*
X37961866Y2018592D01*
X37968723Y2029619D01*
X37998013Y2073453D01*
X38004375Y2088812D01*
X38015887Y2112158D01*
X38027179Y2131716D01*
X38043078Y2180647D01*
X38048483Y2195297D01*
X38065893Y2237332D01*
X38065894Y2237334D01*
X38070545Y2260717D01*
X38076463Y2283396D01*
X38085672Y2311739D01*
X38085674Y2311744D01*
X38090297Y2355739D01*
X38093032Y2373771D01*
X38093736Y2377309D01*
X38100500Y2411309D01*
X38100500Y2442378D01*
X38101590Y2463178D01*
X38102446Y2471324D01*
X38105460Y2500000D01*
X38101589Y2536822D01*
X38100500Y2557621D01*
X38100500Y5682562D01*
X38100501Y5682568D01*
X38100500Y5688804D01*
X38100519Y5688887D01*
X38100517Y5780805D01*
X38100515Y5931768D01*
X38096672Y5975683D01*
X38072533Y6251550D01*
X38072532Y6251562D01*
X38016784Y6567701D01*
X38016780Y6567717D01*
X38012686Y6582997D01*
X38009376Y6671499D01*
X38044793Y6752672D01*
X38111922Y6810440D01*
X38197468Y6833361D01*
X38204906Y6833500D01*
X39020781Y6833500D01*
X39059602Y6829676D01*
X39099480Y6821743D01*
X39117215Y6818216D01*
X39119761Y6817692D01*
X39205354Y6799500D01*
X39394646Y6799500D01*
X39480251Y6817695D01*
X39482800Y6818219D01*
X39562667Y6834105D01*
X39566776Y6835352D01*
X39577571Y6838131D01*
X39579800Y6838855D01*
X39579803Y6838856D01*
X39609408Y6852037D01*
X39653098Y6871489D01*
X39657883Y6873545D01*
X39726543Y6901985D01*
X39735163Y6906593D01*
X39735305Y6906325D01*
X39751931Y6915493D01*
X39752724Y6915846D01*
X39752726Y6915847D01*
X39752730Y6915849D01*
X39811811Y6958773D01*
X39818217Y6963238D01*
X39874033Y7000534D01*
X39874042Y7000542D01*
X39875562Y7002062D01*
X39899299Y7022337D01*
X39900741Y7023385D01*
X39905871Y7027112D01*
X39949944Y7076060D01*
X39957097Y7083598D01*
X39999464Y7125965D01*
X40004682Y7133775D01*
X40022259Y7156374D01*
X40032532Y7167783D01*
X40032533Y7167784D01*
X40061866Y7218592D01*
X40068723Y7229619D01*
X40098013Y7273453D01*
X40104375Y7288812D01*
X40115887Y7312158D01*
X40127179Y7331716D01*
X40143078Y7380647D01*
X40148483Y7395297D01*
X40165893Y7437332D01*
X40165894Y7437334D01*
X40170545Y7460717D01*
X40176463Y7483396D01*
X40185672Y7511739D01*
X40185674Y7511744D01*
X40190297Y7555739D01*
X40193032Y7573771D01*
X40200500Y7611309D01*
X40200500Y7642378D01*
X40201590Y7663178D01*
X40201609Y7663360D01*
X40205460Y7700000D01*
X40201589Y7736822D01*
X40200500Y7757621D01*
X40200500Y7788685D01*
X40200500Y7788691D01*
X40193031Y7826235D01*
X40190297Y7844262D01*
X40185674Y7888254D01*
X40185674Y7888256D01*
X40176460Y7916611D01*
X40170546Y7939275D01*
X40165894Y7962666D01*
X40148477Y8004712D01*
X40143083Y8019336D01*
X40127179Y8068284D01*
X40115889Y8087837D01*
X40104374Y8111188D01*
X40098013Y8126547D01*
X40068730Y8170369D01*
X40061857Y8181423D01*
X40032533Y8232216D01*
X40022263Y8243620D01*
X40004683Y8266222D01*
X39999464Y8274035D01*
X39957093Y8316405D01*
X39949939Y8323946D01*
X39905875Y8372884D01*
X39905873Y8372884D01*
X39905871Y8372888D01*
X39899282Y8377674D01*
X39886463Y8388628D01*
X39886125Y8388233D01*
X39880190Y8393301D01*
X39880182Y8393310D01*
X39750753Y8487351D01*
X39750748Y8487353D01*
X39750744Y8487356D01*
X39684117Y8521308D01*
X39608208Y8559992D01*
X39456056Y8609444D01*
X39344274Y8627161D01*
X39336646Y8628525D01*
X39306608Y8634500D01*
X39218050Y8634500D01*
X39218039Y8634500D01*
X39129357Y8634513D01*
X39129350Y8634511D01*
X39119691Y8634513D01*
X39119409Y8634500D01*
X37532942Y8634500D01*
X37446599Y8654207D01*
X37377358Y8709426D01*
X37338931Y8789218D01*
X37338310Y8792032D01*
X37269403Y9116219D01*
X37228014Y9240433D01*
X37221432Y9251264D01*
X37198998Y9288183D01*
X37137262Y9389777D01*
X37015554Y9515183D01*
X36868991Y9610362D01*
X36868985Y9610364D01*
X36868984Y9610365D01*
X36802405Y9634784D01*
X36704924Y9670540D01*
X36531579Y9692703D01*
X36401269Y9679991D01*
X36401260Y9679989D01*
X36401259Y9679989D01*
X35582480Y9505953D01*
X35582471Y9505950D01*
X35582458Y9505948D01*
X35458244Y9464559D01*
X35335182Y9389777D01*
X35333813Y9388945D01*
X35249792Y9360947D01*
X35161943Y9372178D01*
X35087668Y9420412D01*
X35041676Y9496097D01*
X35039280Y9503804D01*
X34804569Y10316701D01*
X34709322Y10646578D01*
X34338333Y11788365D01*
X33929796Y12917260D01*
X33929789Y12917278D01*
X33484164Y14032014D01*
X33484157Y14032031D01*
X33464498Y14076847D01*
X33447862Y14163832D01*
X33470614Y14249422D01*
X33528250Y14316665D01*
X33609353Y14352242D01*
X33623471Y14354420D01*
X33768567Y14371501D01*
X33891925Y14415358D01*
X33891940Y14415364D01*
X34453986Y14689493D01*
X34644316Y14782323D01*
X34644322Y14782327D01*
X34644326Y14782329D01*
X34753523Y14851704D01*
X34754828Y14852533D01*
X34877781Y14976719D01*
X34970018Y15125150D01*
X34973160Y15134273D01*
X35026912Y15290382D01*
X35026913Y15290385D01*
X35045612Y15464137D01*
X35025181Y15637695D01*
X34981322Y15761058D01*
X33956803Y17861634D01*
X33886593Y17972145D01*
X33762407Y18095098D01*
X33613976Y18187335D01*
X33448741Y18244230D01*
X33274989Y18262929D01*
X33274981Y18262928D01*
X33274979Y18262928D01*
X33170707Y18250653D01*
X33101431Y18242498D01*
X32978068Y18198639D01*
X32641970Y18034713D01*
X32555731Y18014576D01*
X32469291Y18033853D01*
X32399774Y18088725D01*
X32380230Y18117929D01*
X32281209Y18298620D01*
X32272731Y18316059D01*
X32268791Y18325279D01*
X32268789Y18325287D01*
X32241138Y18371969D01*
X32237892Y18377664D01*
X32211825Y18425232D01*
X32211814Y18425242D01*
X32205905Y18433310D01*
X32195218Y18449496D01*
X31651731Y19367079D01*
X31642677Y19384222D01*
X31638430Y19393308D01*
X31638429Y19393312D01*
X31609256Y19439009D01*
X31605785Y19444652D01*
X31578157Y19491299D01*
X31578150Y19491305D01*
X31571962Y19499187D01*
X31560741Y19515005D01*
X30986902Y20413912D01*
X30977279Y20430744D01*
X30972728Y20439688D01*
X30972726Y20439693D01*
X30942046Y20484383D01*
X30938373Y20489931D01*
X30909214Y20535610D01*
X30909203Y20535619D01*
X30902763Y20543281D01*
X30891023Y20558710D01*
X30287468Y21437935D01*
X30277290Y21454433D01*
X30272445Y21463217D01*
X30272442Y21463225D01*
X30240268Y21506891D01*
X30236410Y21512315D01*
X30205762Y21556962D01*
X30205759Y21556967D01*
X30205752Y21556972D01*
X30199050Y21564425D01*
X30186800Y21579456D01*
X29554191Y22438040D01*
X29543465Y22454193D01*
X29538329Y22462810D01*
X29504733Y22505351D01*
X29500709Y22510627D01*
X29481687Y22536445D01*
X29468554Y22554270D01*
X29468546Y22554276D01*
X29461597Y22561502D01*
X29448854Y22576112D01*
X28787934Y23413048D01*
X28776676Y23428829D01*
X28771258Y23437262D01*
X28771255Y23437270D01*
X28736244Y23478679D01*
X28732094Y23483758D01*
X28698462Y23526349D01*
X28698448Y23526358D01*
X28691253Y23533358D01*
X28678032Y23547532D01*
X27989513Y24361916D01*
X27977731Y24377319D01*
X27972031Y24385571D01*
X27972029Y24385577D01*
X27935659Y24425788D01*
X27931292Y24430782D01*
X27896299Y24472173D01*
X27896290Y24472179D01*
X27888872Y24478927D01*
X27875186Y24492650D01*
X27159833Y25283581D01*
X27147549Y25298572D01*
X27141577Y25306630D01*
X27141575Y25306634D01*
X27103827Y25345663D01*
X27099406Y25350392D01*
X27062994Y25390652D01*
X27062982Y25390659D01*
X27055333Y25397164D01*
X27041204Y25410415D01*
X26299819Y26176999D01*
X26287036Y26191577D01*
X26280794Y26199433D01*
X26280789Y26199443D01*
X26241805Y26237143D01*
X26237134Y26241815D01*
X26237105Y26241845D01*
X26199443Y26280789D01*
X26199437Y26280792D01*
X26191588Y26287027D01*
X26177016Y26299803D01*
X25410399Y27041220D01*
X25397138Y27055363D01*
X25390656Y27062986D01*
X25390651Y27062994D01*
X25350453Y27099350D01*
X25345635Y27103856D01*
X25306635Y27141575D01*
X25306628Y27141578D01*
X25298562Y27147557D01*
X25283556Y27159854D01*
X24492650Y27875185D01*
X24478927Y27888872D01*
X24472180Y27896288D01*
X24472173Y27896299D01*
X24442649Y27921259D01*
X24430782Y27931293D01*
X24425791Y27935656D01*
X24385577Y27972029D01*
X24385567Y27972033D01*
X24377316Y27977733D01*
X24361919Y27989512D01*
X23547515Y28678048D01*
X23533337Y28691274D01*
X23526355Y28698452D01*
X23526349Y28698462D01*
X23483746Y28732103D01*
X23478713Y28736216D01*
X23437270Y28771256D01*
X23437260Y28771260D01*
X23428824Y28776680D01*
X23413039Y28787941D01*
X22576111Y29448855D01*
X22561499Y29461599D01*
X22554279Y29468541D01*
X22554270Y29468554D01*
X22510608Y29500723D01*
X22505378Y29504712D01*
X22462809Y29538331D01*
X22462796Y29538336D01*
X22454190Y29543467D01*
X22438037Y29554193D01*
X21579464Y30186795D01*
X21564432Y30199045D01*
X21556965Y30205761D01*
X21531495Y30223243D01*
X21512277Y30236435D01*
X21506870Y30240282D01*
X21463225Y30272441D01*
X21463218Y30272443D01*
X21454444Y30277284D01*
X21437930Y30287472D01*
X21437917Y30287481D01*
X20558714Y30891022D01*
X20543294Y30902754D01*
X20535612Y30909210D01*
X20535609Y30909215D01*
X20489906Y30938389D01*
X20484416Y30942023D01*
X20439693Y30972726D01*
X20439688Y30972727D01*
X20439688Y30972728D01*
X20430746Y30977278D01*
X20413904Y30986907D01*
X19515016Y31560735D01*
X19499201Y31571952D01*
X19491302Y31578153D01*
X19491299Y31578157D01*
X19444638Y31605793D01*
X19439017Y31609250D01*
X19393312Y31638429D01*
X19393293Y31638434D01*
X19384223Y31642675D01*
X19367087Y31651726D01*
X18449513Y32195208D01*
X18433331Y32205892D01*
X18425235Y32211822D01*
X18425232Y32211825D01*
X18377618Y32237917D01*
X18371940Y32241155D01*
X18341985Y32258897D01*
X18325291Y32268786D01*
X18325289Y32268787D01*
X18325287Y32268788D01*
X18325285Y32268788D01*
X18316056Y32272732D01*
X18298614Y32281212D01*
X17363408Y32793718D01*
X17346882Y32803853D01*
X17338607Y32809499D01*
X17338598Y32809508D01*
X17290199Y32833964D01*
X17284376Y32837029D01*
X17236805Y32863100D01*
X17236802Y32863100D01*
X17227446Y32866734D01*
X17209738Y32874623D01*
X16257917Y33355599D01*
X16241051Y33365182D01*
X16232580Y33370556D01*
X16232576Y33370560D01*
X16183424Y33393369D01*
X16177449Y33396262D01*
X16129049Y33420721D01*
X16129039Y33420722D01*
X16119583Y33424036D01*
X16101615Y33431331D01*
X15134257Y33880233D01*
X15117089Y33889242D01*
X15108453Y33894324D01*
X15108444Y33894332D01*
X15058468Y33915522D01*
X15052538Y33918154D01*
X15003299Y33941005D01*
X15003289Y33941006D01*
X14993712Y33944007D01*
X14975516Y33950697D01*
X13993713Y34367017D01*
X13976249Y34375449D01*
X13967436Y34380245D01*
X13967428Y34380252D01*
X13916846Y34399732D01*
X13910709Y34402213D01*
X13860782Y34423386D01*
X13860774Y34423387D01*
X13851105Y34426065D01*
X13832690Y34432144D01*
X12837496Y34815435D01*
X12819771Y34823275D01*
X12810804Y34827774D01*
X12810799Y34827778D01*
X12759558Y34845570D01*
X12753437Y34847810D01*
X12702770Y34867325D01*
X12702766Y34867325D01*
X12693010Y34869679D01*
X12674409Y34875137D01*
X11666988Y35224953D01*
X11649007Y35232198D01*
X11639893Y35236396D01*
X11639888Y35236400D01*
X11588085Y35252468D01*
X11581798Y35254535D01*
X11530603Y35272313D01*
X11530602Y35272313D01*
X11530600Y35272314D01*
X11530597Y35272314D01*
X11520761Y35274342D01*
X11501993Y35279174D01*
X10483432Y35595134D01*
X10465213Y35601776D01*
X10455967Y35605665D01*
X10455960Y35605670D01*
X10403644Y35619999D01*
X10397346Y35621838D01*
X10345532Y35637912D01*
X10345529Y35637912D01*
X10335650Y35639606D01*
X10316718Y35643811D01*
X9288172Y35925558D01*
X9269750Y35931584D01*
X9260368Y35935167D01*
X9260363Y35935170D01*
X9207564Y35947751D01*
X9201195Y35949383D01*
X9148919Y35963704D01*
X9148914Y35963704D01*
X9138976Y35965069D01*
X9119924Y35968637D01*
X8082503Y36215867D01*
X8063886Y36221277D01*
X8054411Y36224537D01*
X8054407Y36224540D01*
X8001261Y36235341D01*
X7994855Y36236755D01*
X7942072Y36249335D01*
X7942069Y36249334D01*
X7942069Y36249335D01*
X7932070Y36250369D01*
X7912903Y36253301D01*
X6867850Y36465718D01*
X6849054Y36470503D01*
X6839480Y36473443D01*
X6839470Y36473448D01*
X6786035Y36482460D01*
X6779514Y36483672D01*
X6726369Y36494476D01*
X6726362Y36494475D01*
X6716343Y36495174D01*
X6697091Y36497463D01*
X5645530Y36674840D01*
X5626588Y36678994D01*
X5616913Y36681615D01*
X5616905Y36681619D01*
X5563119Y36688852D01*
X5556643Y36689833D01*
X5503165Y36698855D01*
X5503157Y36698854D01*
X5493128Y36699218D01*
X5473812Y36700862D01*
X4416871Y36843007D01*
X4397809Y36846525D01*
X4388040Y36848824D01*
X4388037Y36848826D01*
X4334055Y36854256D01*
X4327554Y36855020D01*
X4273784Y36862252D01*
X4273781Y36862251D01*
X4273780Y36862252D01*
X4263738Y36862280D01*
X4244385Y36863277D01*
X3183308Y36970022D01*
X3164129Y36972902D01*
X3154312Y36974868D01*
X3154303Y36974872D01*
X3100213Y36978492D01*
X3093598Y36979046D01*
X3039666Y36984473D01*
X3039658Y36984471D01*
X3029631Y36984165D01*
X3010253Y36984514D01*
X1946176Y37055745D01*
X1926915Y37057983D01*
X1917029Y37059622D01*
X1917020Y37059625D01*
X1862809Y37061436D01*
X1856185Y37061769D01*
X1802126Y37065389D01*
X1802116Y37065387D01*
X1792117Y37064746D01*
X1772733Y37064448D01*
X706872Y37100084D01*
X687545Y37101676D01*
X677599Y37102985D01*
X677595Y37102987D01*
X677590Y37102987D01*
X623389Y37102987D01*
X616739Y37103098D01*
X616500Y37103105D01*
X562572Y37104909D01*
X562571Y37104908D01*
X562570Y37104909D01*
X552578Y37103932D01*
X533209Y37102987D01*
X-533209Y37102987D01*
X-552578Y37103932D01*
X-562570Y37104909D01*
X-562571Y37104908D01*
X-562572Y37104909D01*
X-616500Y37103105D01*
X-616739Y37103098D01*
X-623389Y37102987D01*
X-677595Y37102987D01*
X-677599Y37102985D01*
X-687545Y37101676D01*
X-706872Y37100084D01*
X-1772733Y37064448D01*
X-1792117Y37064746D01*
X-1802117Y37065387D01*
X-1802126Y37065389D01*
X-1856187Y37061769D01*
X-1862808Y37061436D01*
X-1917021Y37059625D01*
X-1917029Y37059622D01*
X-1926918Y37057982D01*
X-1946174Y37055745D01*
X-3010254Y36984514D01*
X-3029631Y36984165D01*
X-3039658Y36984471D01*
X-3039666Y36984473D01*
X-3093598Y36979046D01*
X-3100213Y36978492D01*
X-3154303Y36974872D01*
X-3154312Y36974868D01*
X-3164129Y36972902D01*
X-3183308Y36970022D01*
X-4244385Y36863277D01*
X-4263739Y36862280D01*
X-4273783Y36862252D01*
X-4273783Y36862251D01*
X-4273785Y36862252D01*
X-4327528Y36855023D01*
X-4334094Y36854252D01*
X-4388037Y36848826D01*
X-4388038Y36848825D01*
X-4397805Y36846526D01*
X-4416879Y36843006D01*
X-5473810Y36700863D01*
X-5493129Y36699218D01*
X-5503156Y36698854D01*
X-5503164Y36698855D01*
X-5556623Y36689836D01*
X-5563131Y36688850D01*
X-5616906Y36681619D01*
X-5616914Y36681615D01*
X-5626595Y36678993D01*
X-5645529Y36674840D01*
X-6697089Y36497463D01*
X-6716343Y36495174D01*
X-6726361Y36494475D01*
X-6726369Y36494476D01*
X-6779577Y36483660D01*
X-6786016Y36482463D01*
X-6839470Y36473448D01*
X-6839477Y36473444D01*
X-6849054Y36470503D01*
X-6867850Y36465718D01*
X-7912903Y36253301D01*
X-7932070Y36250369D01*
X-7942069Y36249335D01*
X-7942069Y36249334D01*
X-7942072Y36249335D01*
X-7994855Y36236755D01*
X-8001261Y36235341D01*
X-8054407Y36224540D01*
X-8054411Y36224537D01*
X-8063886Y36221277D01*
X-8082503Y36215867D01*
X-9119924Y35968637D01*
X-9138976Y35965069D01*
X-9148914Y35963704D01*
X-9148919Y35963704D01*
X-9201195Y35949383D01*
X-9207564Y35947751D01*
X-9260363Y35935170D01*
X-9260368Y35935167D01*
X-9269750Y35931584D01*
X-9288172Y35925558D01*
X-10316718Y35643811D01*
X-10335650Y35639606D01*
X-10345529Y35637912D01*
X-10345532Y35637912D01*
X-10397346Y35621838D01*
X-10403644Y35619999D01*
X-10455960Y35605670D01*
X-10455967Y35605665D01*
X-10465213Y35601776D01*
X-10483432Y35595134D01*
X-11501993Y35279174D01*
X-11520761Y35274342D01*
X-11530597Y35272314D01*
X-11530600Y35272314D01*
X-11530602Y35272313D01*
X-11530603Y35272313D01*
X-11581798Y35254535D01*
X-11588085Y35252468D01*
X-11639888Y35236400D01*
X-11639893Y35236396D01*
X-11649007Y35232198D01*
X-11666988Y35224953D01*
X-12674409Y34875137D01*
X-12693012Y34869678D01*
X-12702759Y34867326D01*
X-12702771Y34867325D01*
X-12753399Y34847824D01*
X-12759597Y34845556D01*
X-12810799Y34827778D01*
X-12810810Y34827770D01*
X-12819758Y34823280D01*
X-12837486Y34815439D01*
X-13832690Y34432144D01*
X-13851105Y34426065D01*
X-13860774Y34423387D01*
X-13860782Y34423386D01*
X-13910709Y34402213D01*
X-13916846Y34399732D01*
X-13967428Y34380252D01*
X-13967436Y34380245D01*
X-13976249Y34375449D01*
X-13993713Y34367017D01*
X-14975516Y33950697D01*
X-14993712Y33944007D01*
X-15003289Y33941006D01*
X-15003299Y33941005D01*
X-15052538Y33918154D01*
X-15058468Y33915522D01*
X-15108444Y33894332D01*
X-15108453Y33894324D01*
X-15117089Y33889242D01*
X-15134257Y33880233D01*
X-16101615Y33431331D01*
X-16119583Y33424036D01*
X-16129039Y33420722D01*
X-16129049Y33420721D01*
X-16177449Y33396262D01*
X-16183424Y33393369D01*
X-16232576Y33370560D01*
X-16232580Y33370556D01*
X-16241051Y33365182D01*
X-16257917Y33355599D01*
X-17209738Y32874623D01*
X-17227446Y32866734D01*
X-17236802Y32863100D01*
X-17236805Y32863100D01*
X-17284376Y32837029D01*
X-17290199Y32833964D01*
X-17338598Y32809508D01*
X-17338607Y32809499D01*
X-17346882Y32803853D01*
X-17363408Y32793718D01*
X-18298619Y32281209D01*
X-18316059Y32272731D01*
X-18325279Y32268791D01*
X-18325287Y32268789D01*
X-18371969Y32241138D01*
X-18377664Y32237892D01*
X-18425232Y32211825D01*
X-18425242Y32211814D01*
X-18433310Y32205905D01*
X-18449496Y32195218D01*
X-19367079Y31651731D01*
X-19384222Y31642677D01*
X-19393308Y31638430D01*
X-19393312Y31638429D01*
X-19439009Y31609256D01*
X-19444634Y31605795D01*
X-19491299Y31578157D01*
X-19491305Y31578150D01*
X-19499187Y31571962D01*
X-19515005Y31560741D01*
X-20413912Y30986902D01*
X-20430744Y30977279D01*
X-20439686Y30972728D01*
X-20439693Y30972726D01*
X-20484374Y30942053D01*
X-20484380Y30942049D01*
X-20489913Y30938384D01*
X-20535610Y30909214D01*
X-20535619Y30909203D01*
X-20543281Y30902763D01*
X-20558710Y30891023D01*
X-21437930Y30287472D01*
X-21454433Y30277290D01*
X-21463217Y30272445D01*
X-21463225Y30272442D01*
X-21463230Y30272438D01*
X-21506891Y30240268D01*
X-21512298Y30236422D01*
X-21556967Y30205759D01*
X-21556972Y30205752D01*
X-21564425Y30199050D01*
X-21579456Y30186800D01*
X-22438040Y29554191D01*
X-22454193Y29543465D01*
X-22462806Y29538331D01*
X-22462809Y29538330D01*
X-22505351Y29504734D01*
X-22510618Y29500715D01*
X-22554270Y29468554D01*
X-22554276Y29468546D01*
X-22561502Y29461597D01*
X-22576112Y29448854D01*
X-23413048Y28787934D01*
X-23428829Y28776676D01*
X-23437262Y28771258D01*
X-23437270Y28771255D01*
X-23478679Y28736244D01*
X-23483758Y28732094D01*
X-23526349Y28698462D01*
X-23526358Y28698448D01*
X-23533358Y28691253D01*
X-23547531Y28678034D01*
X-24361916Y27989513D01*
X-24377319Y27977731D01*
X-24385571Y27972031D01*
X-24385577Y27972029D01*
X-24425774Y27935672D01*
X-24430761Y27931310D01*
X-24472173Y27896299D01*
X-24472179Y27896290D01*
X-24478927Y27888872D01*
X-24492650Y27875186D01*
X-25283581Y27159833D01*
X-25298572Y27147549D01*
X-25306628Y27141577D01*
X-25306634Y27141575D01*
X-25345663Y27103827D01*
X-25350392Y27099406D01*
X-25390652Y27062994D01*
X-25390659Y27062982D01*
X-25397164Y27055333D01*
X-25410411Y27041209D01*
X-26176995Y26299824D01*
X-26191577Y26287036D01*
X-26199433Y26280794D01*
X-26199443Y26280789D01*
X-26237134Y26241815D01*
X-26241805Y26237143D01*
X-26280789Y26199443D01*
X-26280792Y26199437D01*
X-26287027Y26191588D01*
X-26299803Y26177016D01*
X-27041220Y25410399D01*
X-27055363Y25397138D01*
X-27062986Y25390656D01*
X-27062994Y25390651D01*
X-27099338Y25350466D01*
X-27103856Y25345635D01*
X-27141575Y25306635D01*
X-27141578Y25306628D01*
X-27147557Y25298562D01*
X-27159844Y25283568D01*
X-27875185Y24492650D01*
X-27888872Y24478927D01*
X-27896288Y24472180D01*
X-27896299Y24472173D01*
X-27921259Y24442649D01*
X-27931293Y24430782D01*
X-27935656Y24425791D01*
X-27972029Y24385577D01*
X-27972033Y24385567D01*
X-27977733Y24377316D01*
X-27989512Y24361919D01*
X-28678048Y23547515D01*
X-28691274Y23533337D01*
X-28698452Y23526355D01*
X-28698462Y23526349D01*
X-28732103Y23483746D01*
X-28736216Y23478713D01*
X-28771256Y23437270D01*
X-28771260Y23437260D01*
X-28776680Y23428824D01*
X-28787940Y23413040D01*
X-29448855Y22576111D01*
X-29461599Y22561499D01*
X-29468541Y22554279D01*
X-29468554Y22554270D01*
X-29500709Y22510627D01*
X-29504712Y22505378D01*
X-29538331Y22462809D01*
X-29538336Y22462796D01*
X-29543467Y22454190D01*
X-29554193Y22438037D01*
X-30186791Y21579469D01*
X-30199045Y21564432D01*
X-30205761Y21556965D01*
X-30236422Y21512297D01*
X-30240267Y21506891D01*
X-30272441Y21463225D01*
X-30272443Y21463218D01*
X-30277284Y21454444D01*
X-30287469Y21437933D01*
X-30891022Y20558714D01*
X-30902754Y20543294D01*
X-30909210Y20535612D01*
X-30909215Y20535609D01*
X-30938374Y20489931D01*
X-30938378Y20489924D01*
X-30942023Y20484416D01*
X-30972726Y20439693D01*
X-30972727Y20439688D01*
X-30972728Y20439688D01*
X-30977278Y20430746D01*
X-30986903Y20413909D01*
X-31560731Y19515022D01*
X-31571952Y19499201D01*
X-31578153Y19491302D01*
X-31578157Y19491299D01*
X-31578158Y19491297D01*
X-31605781Y19444658D01*
X-31609250Y19439017D01*
X-31638429Y19393312D01*
X-31638434Y19393293D01*
X-31642675Y19384223D01*
X-31651726Y19367087D01*
X-32195208Y18449513D01*
X-32205892Y18433331D01*
X-32211821Y18425235D01*
X-32211825Y18425232D01*
X-32237917Y18377618D01*
X-32241147Y18371953D01*
X-32258897Y18341985D01*
X-32268786Y18325291D01*
X-32272732Y18316056D01*
X-32281212Y18298614D01*
X-32793718Y17363408D01*
X-32803853Y17346882D01*
X-32809499Y17338607D01*
X-32809508Y17338598D01*
X-32833964Y17290199D01*
X-32837029Y17284376D01*
X-32863100Y17236805D01*
X-32863100Y17236804D01*
X-32866734Y17227446D01*
X-32874623Y17209738D01*
X-33121956Y16720283D01*
X-33355597Y16257922D01*
X-33365182Y16241051D01*
X-33370556Y16232580D01*
X-33370560Y16232576D01*
X-33370561Y16232573D01*
X-33393369Y16183424D01*
X-33396262Y16177449D01*
X-33420721Y16129049D01*
X-33420722Y16129039D01*
X-33424036Y16119583D01*
X-33431331Y16101615D01*
X-33880233Y15134257D01*
X-33889242Y15117089D01*
X-33894324Y15108453D01*
X-33894332Y15108444D01*
X-33915522Y15058468D01*
X-33918154Y15052538D01*
X-33941005Y15003299D01*
X-33941006Y15003289D01*
X-33944007Y14993712D01*
X-33950697Y14975516D01*
X-34319335Y14106162D01*
X-34367015Y13993718D01*
X-34375449Y13976249D01*
X-34380245Y13967436D01*
X-34380252Y13967428D01*
X-34394120Y13931418D01*
X-34399725Y13916864D01*
X-34402213Y13910709D01*
X-34423386Y13860782D01*
X-34423387Y13860774D01*
X-34426065Y13851105D01*
X-34432144Y13832690D01*
X-34815435Y12837496D01*
X-34823275Y12819771D01*
X-34827774Y12810804D01*
X-34827778Y12810799D01*
X-34845570Y12759558D01*
X-34847810Y12753437D01*
X-34867325Y12702770D01*
X-34867325Y12702768D01*
X-34869679Y12693010D01*
X-34875137Y12674409D01*
X-35224953Y11666988D01*
X-35232198Y11649007D01*
X-35236396Y11639893D01*
X-35236400Y11639888D01*
X-35252468Y11588085D01*
X-35254533Y11581802D01*
X-35255637Y11578625D01*
X-35272313Y11530603D01*
X-35274342Y11520761D01*
X-35279174Y11501993D01*
X-35558653Y10601038D01*
X-35595132Y10483440D01*
X-35601776Y10465213D01*
X-35605665Y10455967D01*
X-35605670Y10455960D01*
X-35619999Y10403644D01*
X-35621838Y10397346D01*
X-35637912Y10345532D01*
X-35637912Y10345530D01*
X-35639606Y10335650D01*
X-35643811Y10316718D01*
X-35925558Y9288172D01*
X-35931584Y9269750D01*
X-35935167Y9260368D01*
X-35935170Y9260363D01*
X-35947751Y9207564D01*
X-35949383Y9201195D01*
X-35963704Y9148919D01*
X-35963704Y9148914D01*
X-35965069Y9138976D01*
X-35968637Y9119924D01*
X-36215867Y8082503D01*
X-36221277Y8063886D01*
X-36224537Y8054411D01*
X-36224540Y8054407D01*
X-36235341Y8001261D01*
X-36236755Y7994855D01*
X-36249335Y7942072D01*
X-36249334Y7942069D01*
X-36249335Y7942069D01*
X-36250369Y7932070D01*
X-36253301Y7912903D01*
X-36464978Y6871489D01*
X-36465716Y6867859D01*
X-36470503Y6849054D01*
X-36473443Y6839480D01*
X-36473448Y6839470D01*
X-36477121Y6817692D01*
X-36482459Y6786043D01*
X-36483672Y6779514D01*
X-36494476Y6726369D01*
X-36494475Y6726362D01*
X-36495174Y6716343D01*
X-36497463Y6697091D01*
X-36674838Y5645541D01*
X-36678994Y5626589D01*
X-36681615Y5616914D01*
X-36681619Y5616905D01*
X-36685502Y5588023D01*
X-36688845Y5563177D01*
X-36689838Y5556617D01*
X-36698855Y5503165D01*
X-36698854Y5503157D01*
X-36699218Y5493127D01*
X-36700862Y5473813D01*
X-36790875Y4804503D01*
X-36821914Y4721560D01*
X-36847380Y4690321D01*
X-37578143Y3959558D01*
X-37591738Y3947439D01*
X-37634950Y3902790D01*
X-37637175Y3900526D01*
X-37679812Y3857891D01*
X-37679813Y3857888D01*
X-37681233Y3856469D01*
X-37693126Y3842679D01*
X-37699209Y3836395D01*
X-37721052Y3816923D01*
X-37732395Y3808220D01*
X-37748094Y3787759D01*
X-37762965Y3770519D01*
X-37780903Y3751987D01*
X-37787850Y3739486D01*
X-37803908Y3715021D01*
X-37912858Y3573034D01*
X-37930021Y3553465D01*
X-37944190Y3539297D01*
X-37954205Y3521949D01*
X-37968670Y3500299D01*
X-37980876Y3484393D01*
X-37988552Y3465859D01*
X-38000055Y3442533D01*
X-38092411Y3282569D01*
X-38106868Y3260932D01*
X-38119070Y3245032D01*
X-38126740Y3226513D01*
X-38138252Y3203168D01*
X-38148277Y3185807D01*
X-38148277Y3185806D01*
X-38153461Y3166456D01*
X-38161832Y3141793D01*
X-38232513Y2971158D01*
X-38244025Y2947813D01*
X-38254048Y2930455D01*
X-38254048Y2930454D01*
X-38259233Y2911101D01*
X-38267601Y2886448D01*
X-38275273Y2867928D01*
X-38275273Y2867926D01*
X-38275274Y2867922D01*
X-38277891Y2848047D01*
X-38282969Y2822519D01*
X-38309713Y2722706D01*
X-38330769Y2644124D01*
X-38339130Y2619490D01*
X-38346809Y2600953D01*
X-38349426Y2581070D01*
X-38354503Y2555544D01*
X-38359691Y2536187D01*
X-38359691Y2536185D01*
X-38359691Y2518170D01*
X-38379398Y2431827D01*
X-38420612Y2377309D01*
X-38420198Y2376942D01*
X-38424923Y2371608D01*
X-38426734Y2369213D01*
X-38428183Y2367929D01*
X-38524818Y2227930D01*
X-38585140Y2068872D01*
X-38605645Y1900000D01*
X-43426618Y1900000D01*
X-43375183Y1974516D01*
X-43375180Y1974521D01*
X-43314860Y2133573D01*
X-43314860Y2133575D01*
X-43294355Y2302449D01*
X-43314860Y2471322D01*
X-43314860Y2471324D01*
X-43375180Y2630376D01*
X-43375183Y2630381D01*
X-43471817Y2770378D01*
X-43471818Y2770379D01*
X-43581922Y2867922D01*
X-43599148Y2883183D01*
X-43689216Y2930455D01*
X-43749771Y2962238D01*
X-43755573Y2963668D01*
X-43914944Y3002949D01*
X-44085056Y3002949D01*
X-44250225Y2962239D01*
X-44250225Y2962238D01*
X-44250228Y2962238D01*
X-44277715Y2947811D01*
X-44400852Y2883183D01*
X-44434927Y2852995D01*
X-44512623Y2810491D01*
X-44566888Y2802949D01*
X-46863443Y2802949D01*
X-46990737Y2768841D01*
X-47070645Y2722706D01*
X-47104865Y2702949D01*
X-49637596Y170218D01*
X-52146777Y-2338963D01*
X-52221765Y-2386082D01*
X-52287491Y-2397249D01*
X-54033112Y-2397249D01*
X-54119455Y-2377542D01*
X-54165073Y-2347203D01*
X-54199144Y-2317018D01*
X-54199146Y-2317016D01*
X-54199148Y-2317015D01*
X-54205959Y-2313439D01*
X-54349771Y-2237959D01*
X-54459887Y-2210819D01*
X-54514944Y-2197249D01*
X-54685056Y-2197249D01*
X-54751123Y-2213533D01*
X-54850228Y-2237959D01*
X-54958086Y-2294569D01*
X-55000852Y-2317015D01*
X-55000855Y-2317018D01*
X-55093904Y-2399452D01*
X-55128183Y-2429820D01*
X-55166520Y-2485361D01*
X-55224816Y-2569816D01*
X-55224819Y-2569821D01*
X-55285139Y-2728873D01*
X-55285139Y-2728874D01*
X-55285140Y-2728877D01*
X-55305645Y-2897749D01*
X-62815203Y-2897749D01*
X-62773913Y-2399452D01*
X-62714387Y-1200393D01*
X-62694537Y0D01*
X-62714387Y1200393D01*
X-62773913Y2399452D01*
X-62873051Y3595868D01*
X-63011699Y4788412D01*
X-63189695Y5975678D01*
X-63319860Y6683429D01*
X-63406851Y7156425D01*
X-63406851Y7156429D01*
X-63406855Y7156446D01*
X-63662922Y8329321D01*
X-63673954Y8372884D01*
X-63884519Y9204388D01*
X-63957647Y9493163D01*
X-64290680Y10646587D01*
X-64661660Y11788346D01*
X-65070210Y12917278D01*
X-65515834Y14032012D01*
X-65998104Y15131475D01*
X-66516436Y16214339D01*
X-67070300Y17279496D01*
X-67659062Y18325728D01*
X-68282122Y19351968D01*
X-68938765Y20357034D01*
X-69628261Y21339813D01*
X-69681293Y21410323D01*
X-70349888Y22299277D01*
X-71102842Y23234354D01*
X-71102857Y23234373D01*
X-71886289Y24144013D01*
X-72101060Y24377316D01*
X-72699408Y25027295D01*
X-73541274Y25883197D01*
X-74410979Y26710797D01*
X-74849842Y27101593D01*
X-75307558Y27509177D01*
X-75747008Y27875176D01*
X-76230072Y28277500D01*
X-76230074Y28277502D01*
X-76230083Y28277509D01*
X-77177477Y29014895D01*
X-78148719Y29720544D01*
X-79142797Y30393719D01*
X-80158570Y31033646D01*
X-81005232Y31528707D01*
X-81194948Y31639639D01*
X-81197443Y31640989D01*
X-81762447Y31946754D01*
X-82250795Y32211035D01*
X-83321696Y32745581D01*
X-83324955Y32747208D01*
X-84220272Y33157713D01*
X-84416262Y33247575D01*
X-85523512Y33711584D01*
X-86645499Y34138731D01*
X-87780995Y34528547D01*
X-88928759Y34880607D01*
X-90087536Y35194525D01*
X-91256058Y35469959D01*
X-92433048Y35706607D01*
X-92906370Y35785590D01*
X-93617205Y35904208D01*
X-93617220Y35904210D01*
X-94807277Y36062553D01*
X-96001919Y36181461D01*
X-97199839Y36260806D01*
X-97845932Y36282179D01*
X-98399721Y36300500D01*
X-98399727Y36300500D01*
X-99600273Y36300500D01*
X-99600279Y36300500D01*
X-100114510Y36283488D01*
X-100800161Y36260806D01*
X-101998081Y36181461D01*
X-103192723Y36062553D01*
X-104382780Y35904210D01*
X-104382784Y35904209D01*
X-104382794Y35904208D01*
X-104857833Y35824937D01*
X-105566952Y35706607D01*
X-106743942Y35469959D01*
X-107912464Y35194525D01*
X-109071241Y34880607D01*
X-110219005Y34528547D01*
X-111354501Y34138731D01*
X-112476488Y33711584D01*
X-113583738Y33247575D01*
X-114675042Y32747209D01*
X-115749205Y32211035D01*
X-116805052Y31639639D01*
X-117841431Y31033645D01*
X-118857206Y30393717D01*
X-119851268Y29720553D01*
X-120822529Y29014890D01*
X-121769928Y28277500D01*
X-122692428Y27509189D01*
X-123589021Y26710797D01*
X-124458726Y25883197D01*
X-125300592Y25027295D01*
X-126113700Y24144025D01*
X-126366657Y23850317D01*
X-126729008Y23429592D01*
X-126897158Y23234354D01*
X-127650112Y22299277D01*
X-128371737Y21339816D01*
X-129061244Y20357020D01*
X-129717880Y19351964D01*
X-130340926Y18325747D01*
X-130340932Y18325734D01*
X-130340937Y18325728D01*
X-130903571Y17325924D01*
X-130929702Y17279490D01*
X-131483563Y16214340D01*
X-132001903Y15131458D01*
X-132465856Y14073752D01*
X-132484165Y14032012D01*
X-132929789Y12917278D01*
X-132929796Y12917260D01*
X-133338333Y11788365D01*
X-133709322Y10646578D01*
X-134042356Y9493150D01*
X-134337073Y8329342D01*
X-134593149Y7156425D01*
X-134810304Y5975683D01*
X-134988301Y4788406D01*
X-135126946Y3595894D01*
X-135135705Y3490187D01*
X-135226086Y2399452D01*
X-135228256Y2355738D01*
X-135285613Y1200381D01*
X-135305463Y0D01*
X-142197291Y0D01*
X-142199141Y164193D01*
X-142199118Y170218D01*
X-142174370Y1471964D01*
X-142174164Y1477986D01*
X-142110017Y2778360D01*
X-142109629Y2784373D01*
X-142006145Y4082184D01*
X-142005576Y4088182D01*
X-141862841Y5382354D01*
X-141862089Y5388332D01*
X-141680254Y6677476D01*
X-141679323Y6683429D01*
X-141458528Y7966571D01*
X-141457416Y7972493D01*
X-141197887Y9248304D01*
X-141196597Y9254189D01*
X-140898556Y10521587D01*
X-140897088Y10527431D01*
X-140560816Y11785216D01*
X-140559172Y11791012D01*
X-140184978Y13038036D01*
X-140183159Y13043781D01*
X-139771378Y14278920D01*
X-139769386Y14284606D01*
X-139320410Y15506685D01*
X-139318247Y15512309D01*
X-138832461Y16720283D01*
X-138830128Y16725838D01*
X-138308027Y17918476D01*
X-138305528Y17923959D01*
X-137747519Y19100330D01*
X-137744854Y19105734D01*
X-137151514Y20264619D01*
X-137148687Y20269940D01*
X-136520539Y21410323D01*
X-136517553Y21415556D01*
X-135855142Y22536445D01*
X-135851998Y22541585D01*
X-135155980Y23641868D01*
X-135152682Y23646911D01*
X-134423658Y24725641D01*
X-134420209Y24730581D01*
X-133658875Y25786725D01*
X-133655278Y25791559D01*
X-132862324Y26824165D01*
X-132858583Y26828888D01*
X-132034699Y27837053D01*
X-132030816Y27841660D01*
X-131176813Y28824392D01*
X-131172792Y28828880D01*
X-130289421Y29785314D01*
X-130285267Y29789678D01*
X-129373363Y30718913D01*
X-129369078Y30723148D01*
X-128429427Y31624383D01*
X-128425016Y31628488D01*
X-127458525Y32500849D01*
X-127453991Y32504818D01*
X-126461556Y33347499D01*
X-126456905Y33351329D01*
X-126241652Y33523163D01*
X-126161878Y33561629D01*
X-126073315Y33561673D01*
X-125993503Y33523286D01*
X-125938250Y33454072D01*
X-125918500Y33367739D01*
X-125918500Y33157713D01*
X-125885246Y32947757D01*
X-125820084Y32747209D01*
X-125819558Y32745592D01*
X-125819554Y32745581D01*
X-125769624Y32647589D01*
X-125723051Y32556184D01*
X-125637685Y32438688D01*
X-125598106Y32384210D01*
X-125447789Y32233893D01*
X-125366071Y32174523D01*
X-125275816Y32108949D01*
X-125275812Y32108947D01*
X-125086418Y32012445D01*
X-125086407Y32012441D01*
X-124884251Y31946756D01*
X-124884244Y31946754D01*
X-124884243Y31946754D01*
X-124884241Y31946753D01*
X-124884234Y31946752D01*
X-124674287Y31913500D01*
X-124461713Y31913500D01*
X-124251765Y31946752D01*
X-124251748Y31946756D01*
X-124049592Y32012441D01*
X-124049581Y32012445D01*
X-123860187Y32108947D01*
X-123688210Y32233893D01*
X-123537893Y32384210D01*
X-123412947Y32556187D01*
X-123316445Y32745581D01*
X-123316441Y32745592D01*
X-123250756Y32947748D01*
X-123250752Y32947765D01*
X-123217500Y33157713D01*
X-123217500Y33370286D01*
X-123217544Y33370561D01*
X-123241713Y33523163D01*
X-123250752Y33580234D01*
X-123250756Y33580251D01*
X-123316441Y33782407D01*
X-123316445Y33782418D01*
X-123412947Y33971812D01*
X-123412949Y33971816D01*
X-123478523Y34062071D01*
X-123537893Y34143789D01*
X-123688210Y34294106D01*
X-123742688Y34333685D01*
X-123860184Y34419051D01*
X-123951589Y34465624D01*
X-124049581Y34515554D01*
X-124049584Y34515555D01*
X-124049588Y34515557D01*
X-124251757Y34581246D01*
X-124308012Y34590156D01*
X-124390209Y34623127D01*
X-124449960Y34688498D01*
X-124475431Y34773319D01*
X-124461577Y34860792D01*
X-124411142Y34933591D01*
X-124396243Y34945935D01*
X-124392968Y34948390D01*
X-124388119Y34951912D01*
X-123323297Y35701120D01*
X-123318317Y35704513D01*
X-122231309Y36421135D01*
X-122226229Y36424374D01*
X-121118062Y37107737D01*
X-121112886Y37110822D01*
X-119984513Y37760336D01*
X-119979246Y37763263D01*
X-118831696Y38378336D01*
X-118826343Y38381101D01*
X-117660766Y38961116D01*
X-117655332Y38963719D01*
X-116472644Y39508221D01*
X-116467133Y39510657D01*
X-115268580Y40019072D01*
X-115262998Y40021341D01*
X-114049572Y40493249D01*
X-114043924Y40495348D01*
X-112816745Y40930311D01*
X-112811037Y40932237D01*
X-111571283Y41329840D01*
X-111565518Y41331593D01*
X-110314299Y41691480D01*
X-110308484Y41693058D01*
X-109046923Y42014904D01*
X-109041063Y42016305D01*
X-107770345Y42299809D01*
X-107764445Y42301032D01*
X-106485699Y42545942D01*
X-106479765Y42546985D01*
X-105194249Y42753060D01*
X-105188285Y42753924D01*
X-103897058Y42920993D01*
X-103891072Y42921675D01*
X-102595459Y43049569D01*
X-102589455Y43050071D01*
X-101290479Y43138690D01*
X-101284462Y43139009D01*
X-99983410Y43188259D01*
X-99977386Y43188395D01*
X-98675509Y43198235D01*
X-98669484Y43198190D01*
X-97367839Y43168610D01*
X-97361818Y43168382D01*
X-96061659Y43099409D01*
X-96055647Y43098998D01*
X-94758219Y42990698D01*
X-94752223Y42990106D01*
X-93458662Y42842577D01*
X-93452687Y42841804D01*
X-92164153Y42655175D01*
X-92158204Y42654221D01*
X-90875953Y42428678D01*
X-90870035Y42427545D01*
X-89595133Y42163270D01*
X-89589252Y42161957D01*
X-88323018Y41859227D01*
X-88317180Y41857738D01*
X-87060619Y41516792D01*
X-87054829Y41515126D01*
X-85809225Y41136314D01*
X-85803487Y41134474D01*
X-84569885Y40718111D01*
X-84564206Y40716098D01*
X-83343779Y40262583D01*
X-83338164Y40260399D01*
X-82132040Y39770149D01*
X-82126493Y39767796D01*
X-80935749Y39241250D01*
X-80930276Y39238730D01*
X-79756024Y38676379D01*
X-79750629Y38673694D01*
X-78593953Y38076057D01*
X-78588643Y38073211D01*
X-77450574Y37440821D01*
X-77445352Y37437815D01*
X-76326938Y36771254D01*
X-76321810Y36768091D01*
X-75224140Y36068009D01*
X-75219109Y36064693D01*
X-74143055Y35331646D01*
X-74138133Y35328182D01*
X-73310645Y34726998D01*
X-73084860Y34562962D01*
X-73080039Y34559347D01*
X-72050327Y33762522D01*
X-72045618Y33758763D01*
X-71329176Y33168831D01*
X-71060703Y32947765D01*
X-71040556Y32931176D01*
X-71035963Y32927276D01*
X-70056393Y32069619D01*
X-70051921Y32065582D01*
X-69521436Y31571962D01*
X-69098750Y31178649D01*
X-69094473Y31174546D01*
X-68168574Y30259149D01*
X-68164373Y30254868D01*
X-67266632Y29311878D01*
X-67262546Y29307455D01*
X-66716953Y28698462D01*
X-66393759Y28337713D01*
X-66389812Y28333170D01*
X-65695401Y27509177D01*
X-65550811Y27337605D01*
X-65546999Y27332940D01*
X-65474220Y27241074D01*
X-65436050Y27161158D01*
X-65436335Y27072595D01*
X-65475017Y26992926D01*
X-65544436Y26937931D01*
X-65630202Y26918500D01*
X-65785287Y26918500D01*
X-65995243Y26885246D01*
X-66197412Y26819557D01*
X-66386816Y26723051D01*
X-66558792Y26598104D01*
X-66709104Y26447792D01*
X-66834051Y26275816D01*
X-66930557Y26086412D01*
X-66996246Y25884243D01*
X-67029500Y25674287D01*
X-67029500Y25461713D01*
X-66996246Y25251757D01*
X-66996243Y25251748D01*
X-66930558Y25049592D01*
X-66930554Y25049581D01*
X-66918254Y25025441D01*
X-66834051Y24860184D01*
X-66748685Y24742688D01*
X-66709106Y24688210D01*
X-66558789Y24537893D01*
X-66496531Y24492661D01*
X-66386816Y24412949D01*
X-66386812Y24412947D01*
X-66197418Y24316445D01*
X-66197407Y24316441D01*
X-65995251Y24250756D01*
X-65995244Y24250754D01*
X-65995243Y24250754D01*
X-65995241Y24250753D01*
X-65995234Y24250752D01*
X-65785287Y24217500D01*
X-65572713Y24217500D01*
X-65362765Y24250752D01*
X-65362748Y24250756D01*
X-65160592Y24316441D01*
X-65160581Y24316445D01*
X-64971187Y24412947D01*
X-64799210Y24537893D01*
X-64648893Y24688210D01*
X-64523947Y24860187D01*
X-64427445Y25049581D01*
X-64427441Y25049592D01*
X-64361751Y25251763D01*
X-64360383Y25257462D01*
X-64321056Y25336815D01*
X-64251194Y25391246D01*
X-64164634Y25409975D01*
X-64078520Y25389292D01*
X-64009907Y25333294D01*
X-64007254Y25329810D01*
X-63984003Y25298562D01*
X-63957623Y25263109D01*
X-63954101Y25258222D01*
X-63208875Y24190664D01*
X-63205501Y24185672D01*
X-62492918Y23096013D01*
X-62489697Y23090921D01*
X-61810412Y21980160D01*
X-61807365Y21975003D01*
X-61162043Y20844229D01*
X-61159146Y20838970D01*
X-60903125Y20357020D01*
X-60548340Y19689153D01*
X-60545606Y19683812D01*
X-59969880Y18516010D01*
X-59967326Y18510626D01*
X-59427203Y17325895D01*
X-59424813Y17320434D01*
X-58920817Y16119925D01*
X-58918593Y16114396D01*
X-58480997Y14976719D01*
X-58466881Y14940019D01*
X-58460551Y14920657D01*
X-58460548Y14920650D01*
X-58460548Y14920648D01*
X-58449492Y14894189D01*
X-58446339Y14886151D01*
X-58433684Y14851704D01*
X-58433682Y14851701D01*
X-58431457Y14847715D01*
X-58421601Y14827439D01*
X-58387224Y14745166D01*
X-58382697Y14730083D01*
X-58381757Y14730393D01*
X-58377681Y14717997D01*
X-58366240Y14694228D01*
X-58361953Y14684687D01*
X-58351773Y14660323D01*
X-58351771Y14660320D01*
X-58351768Y14660313D01*
X-58345215Y14649044D01*
X-58346082Y14648539D01*
X-58337801Y14635147D01*
X-58321474Y14601226D01*
X-58295049Y14546327D01*
X-58289781Y14531509D01*
X-58288807Y14531887D01*
X-58284091Y14519734D01*
X-58284089Y14519731D01*
X-58284089Y14519729D01*
X-58271377Y14496517D01*
X-58266614Y14487252D01*
X-58255130Y14463393D01*
X-58255128Y14463391D01*
X-58255128Y14463390D01*
X-58247989Y14452481D01*
X-58248843Y14451921D01*
X-58239879Y14439001D01*
X-58192146Y14351841D01*
X-58185134Y14337740D01*
X-58179845Y14325956D01*
X-58179842Y14325952D01*
X-58179842Y14325950D01*
X-58165850Y14303272D01*
X-58160680Y14294385D01*
X-58147886Y14271023D01*
X-58147883Y14271020D01*
X-58140256Y14260602D01*
X-58131468Y14247544D01*
X-58078439Y14161591D01*
X-58070623Y14147708D01*
X-58065024Y14136760D01*
X-58065022Y14136754D01*
X-58065019Y14136750D01*
X-58049775Y14114641D01*
X-58044255Y14106184D01*
X-58030142Y14083308D01*
X-58030141Y14083307D01*
X-58022356Y14073752D01*
X-58012801Y14061016D01*
X-57953394Y13974856D01*
X-57943168Y13958353D01*
X-57942175Y13956562D01*
X-57942174Y13956558D01*
X-57942172Y13956555D01*
X-57942171Y13956554D01*
X-57923595Y13931442D01*
X-57919750Y13926059D01*
X-57911262Y13913749D01*
X-57901999Y13900315D01*
X-57901995Y13900312D01*
X-57901369Y13899618D01*
X-57879565Y13870521D01*
X-57870674Y13856072D01*
X-57864619Y13848623D01*
X-57860203Y13843640D01*
X-57853543Y13836741D01*
X-57850350Y13834201D01*
X-57839250Y13825369D01*
X-57826442Y13814255D01*
X-57305146Y13321409D01*
X-57294377Y13309015D01*
X-57294004Y13309362D01*
X-57285128Y13299800D01*
X-57267296Y13285033D01*
X-57257515Y13276377D01*
X-57240690Y13260471D01*
X-57230127Y13252827D01*
X-57230424Y13252416D01*
X-57216819Y13243234D01*
X-57118722Y13162000D01*
X-57104455Y13148966D01*
X-57102835Y13147334D01*
X-57078189Y13128288D01*
X-57072952Y13124098D01*
X-57048965Y13104234D01*
X-57047011Y13103007D01*
X-57031163Y13091947D01*
X-56929124Y13013091D01*
X-56914190Y13000323D01*
X-56913158Y12999349D01*
X-56913155Y12999345D01*
X-56913151Y12999342D01*
X-56887581Y12980858D01*
X-56882480Y12977045D01*
X-56870646Y12967900D01*
X-56857495Y12957737D01*
X-56857493Y12957736D01*
X-56856270Y12957024D01*
X-56839785Y12946306D01*
X-56732387Y12868669D01*
X-56716809Y12856171D01*
X-56716358Y12855770D01*
X-56689886Y12837834D01*
X-56684933Y12834367D01*
X-56662047Y12817824D01*
X-56659023Y12815638D01*
X-56659017Y12815635D01*
X-56658499Y12815356D01*
X-56641419Y12804995D01*
X-56565235Y12753376D01*
X-56528768Y12728667D01*
X-56513971Y12717472D01*
X-56485497Y12699263D01*
X-56481085Y12696359D01*
X-56453090Y12677391D01*
X-56436952Y12668219D01*
X-56353666Y12614958D01*
X-56342787Y12607107D01*
X-56324563Y12595924D01*
X-56309761Y12586841D01*
X-56306678Y12584911D01*
X-56277192Y12566055D01*
X-56277190Y12566054D01*
X-56273959Y12563988D01*
X-56262149Y12557624D01*
X-56238432Y12543070D01*
X-56218543Y12528390D01*
X-56213523Y12525026D01*
X-56198423Y12517555D01*
X-56182601Y12508809D01*
X-56168250Y12500003D01*
X-56162741Y12497546D01*
X-56139725Y12488511D01*
X-55421497Y12133145D01*
X-55404240Y12123511D01*
X-55403234Y12122882D01*
X-55374415Y12109738D01*
X-55368747Y12107044D01*
X-55340357Y12092997D01*
X-55339208Y12092606D01*
X-55320863Y12085316D01*
X-55221723Y12040103D01*
X-55212258Y12035101D01*
X-55207169Y12032869D01*
X-55174211Y12018412D01*
X-55171622Y12017253D01*
X-55133902Y12000051D01*
X-55123866Y11996327D01*
X-55031769Y11955929D01*
X-55023858Y11952459D01*
X-55014611Y11947742D01*
X-55009316Y11945507D01*
X-54976145Y11931508D01*
X-54973588Y11930408D01*
X-54965660Y11926930D01*
X-54940512Y11915900D01*
X-54940510Y11915899D01*
X-54935247Y11913591D01*
X-54925453Y11910116D01*
X-54824403Y11867471D01*
X-54815359Y11863013D01*
X-54776292Y11847147D01*
X-54773806Y11846118D01*
X-54744901Y11833921D01*
X-54741567Y11832514D01*
X-54735047Y11829763D01*
X-54725511Y11826526D01*
X-54623526Y11785113D01*
X-54614681Y11780899D01*
X-54575224Y11765479D01*
X-54572792Y11764511D01*
X-54533450Y11748536D01*
X-54524137Y11745514D01*
X-54421378Y11705356D01*
X-54412727Y11701372D01*
X-54406817Y11699149D01*
X-54372668Y11686305D01*
X-54370419Y11685442D01*
X-54330684Y11669913D01*
X-54321563Y11667083D01*
X-54273501Y11649007D01*
X-54218406Y11628285D01*
X-54212300Y11625553D01*
X-54169507Y11609885D01*
X-54167875Y11609279D01*
X-54130847Y11595353D01*
X-54117703Y11589866D01*
X-54110609Y11586601D01*
X-54110607Y11586600D01*
X-54095598Y11581950D01*
X-54084866Y11578625D01*
X-54075341Y11575408D01*
X-54050054Y11566149D01*
X-54038213Y11563500D01*
X-54022782Y11559391D01*
X-53275596Y11327920D01*
X-53262283Y11322970D01*
X-53259053Y11322039D01*
X-53259052Y11322038D01*
X-53229212Y11313436D01*
X-53225814Y11312457D01*
X-53222052Y11311332D01*
X-53185759Y11300089D01*
X-53171865Y11296908D01*
X-53074868Y11268950D01*
X-53068087Y11266541D01*
X-53024537Y11254434D01*
X-53022798Y11253941D01*
X-52987110Y11243656D01*
X-52979553Y11241478D01*
X-52972543Y11239979D01*
X-52877619Y11213590D01*
X-52870860Y11211261D01*
X-52827310Y11199594D01*
X-52825511Y11199103D01*
X-52782021Y11187014D01*
X-52775017Y11185586D01*
X-52681716Y11160592D01*
X-52674343Y11158133D01*
X-52631282Y11147072D01*
X-52629303Y11146552D01*
X-52586352Y11135047D01*
X-52578699Y11133566D01*
X-52448968Y11100244D01*
X-52440954Y11097666D01*
X-52398433Y11087253D01*
X-52396387Y11086740D01*
X-52360652Y11077562D01*
X-52360651Y11077562D01*
X-52353865Y11075819D01*
X-52345541Y11074300D01*
X-52218602Y11043213D01*
X-52211147Y11040903D01*
X-52167830Y11030768D01*
X-52165859Y11030296D01*
X-52129946Y11021502D01*
X-52129942Y11021502D01*
X-52122677Y11019723D01*
X-52115019Y11018411D01*
X-52028680Y10998210D01*
X-52012835Y10993805D01*
X-52002720Y10990536D01*
X-51975667Y10985569D01*
X-51966274Y10983609D01*
X-51939478Y10977339D01*
X-51928893Y10976289D01*
X-51912606Y10973990D01*
X-51274550Y10856826D01*
X-51259000Y10853090D01*
X-51231384Y10848659D01*
X-51223223Y10847350D01*
X-51218845Y10846597D01*
X-51185429Y10840462D01*
X-51183169Y10840047D01*
X-51167251Y10838371D01*
X-51130317Y10832445D01*
X-51067260Y10822330D01*
X-51057068Y10820078D01*
X-51015790Y10814053D01*
X-51013016Y10813628D01*
X-50971790Y10807015D01*
X-50961371Y10806110D01*
X-50832956Y10787367D01*
X-50821541Y10785024D01*
X-50816647Y10784389D01*
X-50781351Y10779809D01*
X-50778232Y10779379D01*
X-50738151Y10773529D01*
X-50726501Y10772694D01*
X-50603047Y10756679D01*
X-50591071Y10754424D01*
X-50551298Y10749938D01*
X-50548019Y10749540D01*
X-50512932Y10744989D01*
X-50512930Y10744989D01*
X-50508365Y10744397D01*
X-50496211Y10743724D01*
X-50377788Y10730367D01*
X-50366953Y10728504D01*
X-50325974Y10724500D01*
X-50323032Y10724190D01*
X-50282094Y10719574D01*
X-50271102Y10719140D01*
X-50218365Y10713988D01*
X-50198733Y10711051D01*
X-50166238Y10708813D01*
X-50160577Y10708342D01*
X-50128086Y10705169D01*
X-50108247Y10704819D01*
X-49999995Y10697364D01*
X-49980126Y10694987D01*
X-49979647Y10694905D01*
X-49947641Y10693669D01*
X-49941657Y10693347D01*
X-49909692Y10691146D01*
X-49909189Y10691178D01*
X-49889184Y10691412D01*
X-49757690Y10686337D01*
X-49738481Y10684661D01*
X-49736051Y10684329D01*
X-49704949Y10684186D01*
X-49698196Y10684040D01*
X-49667169Y10682842D01*
X-49664735Y10683068D01*
X-49645485Y10683912D01*
X-49522371Y10683345D01*
X-49502280Y10682235D01*
X-49502054Y10682211D01*
X-49502051Y10682211D01*
X-49497801Y10682317D01*
X-49469900Y10683016D01*
X-49464008Y10683076D01*
X-49431854Y10682928D01*
X-49431616Y10682959D01*
X-49411556Y10684479D01*
X-49284379Y10687668D01*
X-49270171Y10687235D01*
X-49232215Y10688937D01*
X-49228297Y10689074D01*
X-49190319Y10690027D01*
X-49176185Y10691450D01*
X-49075660Y10695959D01*
X-49068171Y10695842D01*
X-49023560Y10698286D01*
X-49021596Y10698384D01*
X-48976813Y10700393D01*
X-48969364Y10701255D01*
X-48896525Y10705245D01*
X-48878971Y10705431D01*
X-48871727Y10705188D01*
X-48871726Y10705188D01*
X-48842940Y10707999D01*
X-48834501Y10708642D01*
X-48822643Y10709292D01*
X-48805624Y10710225D01*
X-48798490Y10711565D01*
X-48781123Y10714038D01*
X-48728893Y10719140D01*
X-48717902Y10719574D01*
X-48676985Y10724189D01*
X-48674032Y10724500D01*
X-48633057Y10728502D01*
X-48622217Y10730366D01*
X-48503787Y10743724D01*
X-48491618Y10744397D01*
X-48451932Y10749546D01*
X-48448641Y10749945D01*
X-48408923Y10754425D01*
X-48396963Y10756676D01*
X-48273498Y10772693D01*
X-48261858Y10773528D01*
X-48221765Y10779379D01*
X-48218637Y10779811D01*
X-48178458Y10785024D01*
X-48167043Y10787367D01*
X-48038627Y10806110D01*
X-48028216Y10807013D01*
X-47986999Y10813624D01*
X-47984236Y10814048D01*
X-47942929Y10820078D01*
X-47932730Y10822331D01*
X-47832744Y10838371D01*
X-47816827Y10840047D01*
X-47781177Y10846593D01*
X-47776766Y10847352D01*
X-47740994Y10853091D01*
X-47725437Y10856829D01*
X-47087391Y10973990D01*
X-47071108Y10976289D01*
X-47060521Y10977339D01*
X-47033714Y10983611D01*
X-47024333Y10985568D01*
X-46997278Y10990536D01*
X-46987153Y10993808D01*
X-46971314Y10998211D01*
X-46884981Y11018410D01*
X-46877327Y11019721D01*
X-46834157Y11030291D01*
X-46832176Y11030765D01*
X-46788877Y11040897D01*
X-46781423Y11043205D01*
X-46729617Y11055892D01*
X-46654444Y11074302D01*
X-46646136Y11075818D01*
X-46603739Y11086706D01*
X-46601584Y11087246D01*
X-46559086Y11097655D01*
X-46551039Y11100242D01*
X-46421296Y11133567D01*
X-46413644Y11135048D01*
X-46370672Y11146558D01*
X-46368699Y11147076D01*
X-46325671Y11158129D01*
X-46318297Y11160588D01*
X-46224980Y11185586D01*
X-46217983Y11187012D01*
X-46174510Y11199098D01*
X-46172705Y11199591D01*
X-46169600Y11200422D01*
X-46136772Y11209217D01*
X-46136771Y11209217D01*
X-46129132Y11211264D01*
X-46122380Y11213590D01*
X-46027463Y11239977D01*
X-46020441Y11241478D01*
X-45977174Y11253948D01*
X-45975372Y11254458D01*
X-45931900Y11266544D01*
X-45925129Y11268949D01*
X-45828122Y11296910D01*
X-45814246Y11300087D01*
X-45777970Y11311324D01*
X-45774211Y11312448D01*
X-45737748Y11322959D01*
X-45724405Y11327919D01*
X-44977227Y11559389D01*
X-44961793Y11563500D01*
X-44949944Y11566151D01*
X-44930690Y11573200D01*
X-44924624Y11575420D01*
X-44915125Y11578628D01*
X-44889392Y11586601D01*
X-44889391Y11586601D01*
X-44889386Y11586603D01*
X-44882287Y11589870D01*
X-44869162Y11595350D01*
X-44832194Y11609254D01*
X-44830559Y11609860D01*
X-44787701Y11625551D01*
X-44781591Y11628285D01*
X-44678427Y11667085D01*
X-44669331Y11669907D01*
X-44629540Y11685456D01*
X-44627171Y11686364D01*
X-44587295Y11701362D01*
X-44578627Y11705353D01*
X-44475862Y11745514D01*
X-44466550Y11748535D01*
X-44460861Y11750844D01*
X-44460860Y11750845D01*
X-44427305Y11764470D01*
X-44424882Y11765435D01*
X-44385345Y11780887D01*
X-44376498Y11785101D01*
X-44274474Y11826531D01*
X-44264945Y11829765D01*
X-44226208Y11846112D01*
X-44223718Y11847143D01*
X-44184649Y11863009D01*
X-44175599Y11867469D01*
X-44074529Y11910121D01*
X-44064753Y11913590D01*
X-44026455Y11930389D01*
X-44023896Y11931490D01*
X-43985398Y11947737D01*
X-43976149Y11952455D01*
X-43876142Y11996323D01*
X-43866109Y12000045D01*
X-43846222Y12009114D01*
X-43828350Y12017264D01*
X-43825844Y12018385D01*
X-43801543Y12029046D01*
X-43787756Y12035094D01*
X-43778288Y12040096D01*
X-43679141Y12085313D01*
X-43660802Y12092602D01*
X-43659647Y12092995D01*
X-43631256Y12107043D01*
X-43625585Y12109739D01*
X-43596759Y12122885D01*
X-43595750Y12123517D01*
X-43578509Y12133141D01*
X-42860276Y12488510D01*
X-42837267Y12497542D01*
X-42831750Y12500002D01*
X-42823816Y12504870D01*
X-42817391Y12508812D01*
X-42801578Y12517553D01*
X-42786480Y12525023D01*
X-42781456Y12528390D01*
X-42761572Y12543066D01*
X-42737847Y12557625D01*
X-42726028Y12563994D01*
X-42693364Y12584882D01*
X-42690237Y12586841D01*
X-42657228Y12607096D01*
X-42646339Y12614954D01*
X-42589482Y12651314D01*
X-42563034Y12668226D01*
X-42546903Y12677394D01*
X-42518923Y12696351D01*
X-42514523Y12699248D01*
X-42486028Y12717471D01*
X-42471233Y12728664D01*
X-42358582Y12804992D01*
X-42341513Y12815347D01*
X-42340985Y12815631D01*
X-42315052Y12834377D01*
X-42310113Y12837834D01*
X-42302313Y12843118D01*
X-42283639Y12855771D01*
X-42283178Y12856182D01*
X-42267611Y12868670D01*
X-42160230Y12946294D01*
X-42143758Y12957005D01*
X-42142505Y12957733D01*
X-42117491Y12977064D01*
X-42112398Y12980872D01*
X-42086837Y12999349D01*
X-42085803Y13000327D01*
X-42070874Y13013088D01*
X-41968814Y13091960D01*
X-41952990Y13103006D01*
X-41951033Y13104234D01*
X-41927040Y13124102D01*
X-41921820Y13128278D01*
X-41897158Y13147338D01*
X-41895520Y13148988D01*
X-41881270Y13162003D01*
X-41783179Y13243234D01*
X-41769569Y13252419D01*
X-41769868Y13252831D01*
X-41759303Y13260476D01*
X-41742476Y13276384D01*
X-41732701Y13285036D01*
X-41714874Y13299800D01*
X-41706000Y13309359D01*
X-41705627Y13309013D01*
X-41694862Y13321400D01*
X-41173557Y13814253D01*
X-41160752Y13825365D01*
X-41146466Y13836732D01*
X-41139822Y13843614D01*
X-41135366Y13848641D01*
X-41129327Y13856071D01*
X-41120429Y13870530D01*
X-41098658Y13899585D01*
X-41098002Y13900310D01*
X-41080263Y13926038D01*
X-41076420Y13931418D01*
X-41057820Y13956561D01*
X-41056813Y13958380D01*
X-41046590Y13974874D01*
X-40987192Y14061022D01*
X-40977639Y14073756D01*
X-40969855Y14083309D01*
X-40955741Y14106184D01*
X-40950224Y14114638D01*
X-40934974Y14136756D01*
X-40929365Y14147724D01*
X-40921557Y14161591D01*
X-40868530Y14247541D01*
X-40859746Y14260595D01*
X-40852114Y14271020D01*
X-40839318Y14294385D01*
X-40834147Y14303272D01*
X-40820157Y14325949D01*
X-40814861Y14337748D01*
X-40807854Y14351837D01*
X-40760111Y14439014D01*
X-40751187Y14451959D01*
X-40752002Y14452493D01*
X-40744865Y14463397D01*
X-40733383Y14487252D01*
X-40728619Y14496520D01*
X-40715912Y14519724D01*
X-40711194Y14531883D01*
X-40710266Y14531523D01*
X-40704953Y14546318D01*
X-40704948Y14546327D01*
X-40678523Y14601226D01*
X-40662186Y14635166D01*
X-40653944Y14648568D01*
X-40654778Y14649053D01*
X-40648228Y14660318D01*
X-40638065Y14684640D01*
X-40633765Y14694212D01*
X-40622317Y14717997D01*
X-40618244Y14730385D01*
X-40617305Y14730076D01*
X-40612776Y14745162D01*
X-40578395Y14827444D01*
X-40568546Y14847708D01*
X-40566316Y14851701D01*
X-40553660Y14886151D01*
X-40550487Y14894237D01*
X-40550054Y14895272D01*
X-40539452Y14920649D01*
X-40539451Y14920650D01*
X-40539449Y14920657D01*
X-40539443Y14920679D01*
X-40533122Y14940007D01*
X-40081418Y16114365D01*
X-40079170Y16119955D01*
X-39575199Y17320404D01*
X-39572783Y17325924D01*
X-39032687Y18510596D01*
X-39030105Y18516039D01*
X-38454405Y19683789D01*
X-38451659Y19689153D01*
X-37840863Y20838952D01*
X-37837956Y20844229D01*
X-37192634Y21975003D01*
X-37189569Y21980191D01*
X-36510302Y23090921D01*
X-36507081Y23096013D01*
X-35794498Y24185672D01*
X-35791124Y24190664D01*
X-35045898Y25258222D01*
X-35042376Y25263109D01*
X-34992766Y25329782D01*
X-34925412Y25387289D01*
X-34839778Y25409876D01*
X-34752823Y25393072D01*
X-34681771Y25340204D01*
X-34640694Y25261742D01*
X-34639613Y25257448D01*
X-34638247Y25251761D01*
X-34572558Y25049592D01*
X-34572554Y25049581D01*
X-34560254Y25025441D01*
X-34476051Y24860184D01*
X-34390685Y24742688D01*
X-34351106Y24688210D01*
X-34200789Y24537893D01*
X-34138531Y24492661D01*
X-34028816Y24412949D01*
X-34028812Y24412947D01*
X-33839418Y24316445D01*
X-33839407Y24316441D01*
X-33637251Y24250756D01*
X-33637244Y24250754D01*
X-33637243Y24250754D01*
X-33637241Y24250753D01*
X-33637234Y24250752D01*
X-33427287Y24217500D01*
X-33214713Y24217500D01*
X-33004765Y24250752D01*
X-33004748Y24250756D01*
X-32802592Y24316441D01*
X-32802581Y24316445D01*
X-32613187Y24412947D01*
X-32441210Y24537893D01*
X-32290893Y24688210D01*
X-32165947Y24860187D01*
X-32069445Y25049581D01*
X-32069441Y25049592D01*
X-32003756Y25251748D01*
X-32003752Y25251765D01*
X-31970500Y25461713D01*
X-31970500Y25674286D01*
X-32003752Y25884234D01*
X-32003756Y25884251D01*
X-32069441Y26086407D01*
X-32069445Y26086418D01*
X-32165947Y26275812D01*
X-32165949Y26275816D01*
X-32231523Y26366071D01*
X-32290893Y26447789D01*
X-32441210Y26598106D01*
X-32495688Y26637685D01*
X-32613184Y26723051D01*
X-32704589Y26769624D01*
X-32802581Y26819554D01*
X-32802584Y26819555D01*
X-32802588Y26819557D01*
X-33004757Y26885246D01*
X-33214713Y26918500D01*
X-33369797Y26918500D01*
X-33456140Y26938207D01*
X-33525381Y26993426D01*
X-33563808Y27073218D01*
X-33563808Y27161782D01*
X-33525778Y27241075D01*
X-33452982Y27332961D01*
X-33449171Y27337625D01*
X-32610192Y28333164D01*
X-32606240Y28337713D01*
X-31737455Y29307452D01*
X-31733367Y29311878D01*
X-30835626Y30254868D01*
X-30831406Y30259168D01*
X-30362104Y30723148D01*
X-29905559Y31174514D01*
X-29901230Y31178667D01*
X-28948078Y32065582D01*
X-28943606Y32069619D01*
X-27964036Y32927276D01*
X-27959443Y32931176D01*
X-26954381Y33758763D01*
X-26949672Y33762522D01*
X-25919960Y34559347D01*
X-25915139Y34562962D01*
X-24861871Y35328178D01*
X-24856944Y35331646D01*
X-23780890Y36064693D01*
X-23775859Y36068009D01*
X-22678189Y36768091D01*
X-22673061Y36771254D01*
X-21554647Y37437815D01*
X-21549425Y37440821D01*
X-20411356Y38073211D01*
X-20406046Y38076057D01*
X-19249370Y38673694D01*
X-19243975Y38676379D01*
X-18069723Y39238730D01*
X-18064250Y39241250D01*
X-16873506Y39767796D01*
X-16867959Y39770149D01*
X-15661835Y40260399D01*
X-15656220Y40262583D01*
X-14435793Y40716098D01*
X-14430114Y40718111D01*
X-13196512Y41134474D01*
X-13190774Y41136314D01*
X-11945170Y41515126D01*
X-11939380Y41516792D01*
X-10682819Y41857738D01*
X-10676981Y41859227D01*
X-9410747Y42161957D01*
X-9404866Y42163270D01*
X-8129964Y42427545D01*
X-8124046Y42428678D01*
X-6841795Y42654221D01*
X-6835846Y42655175D01*
X-5547312Y42841804D01*
X-5541337Y42842577D01*
X-4247776Y42990106D01*
X-4241780Y42990698D01*
X-2944352Y43098998D01*
X-2938340Y43099409D01*
X-1638181Y43168382D01*
X-1632160Y43168610D01*
X-330515Y43198190D01*
X-324490Y43198235D01*
X977386Y43188395D01*
G37*
G04 #@! TD.AperFunction*
M02*
